%TF.GenerationSoftware,KiCad,Pcbnew,9.0.3*%
%TF.CreationDate,2025-10-25T08:35:42-07:00*%
%TF.ProjectId,powerControl,706f7765-7243-46f6-9e74-726f6c2e6b69,rev?*%
%TF.SameCoordinates,Original*%
%TF.FileFunction,Copper,L1,Top*%
%TF.FilePolarity,Positive*%
%FSLAX46Y46*%
G04 Gerber Fmt 4.6, Leading zero omitted, Abs format (unit mm)*
G04 Created by KiCad (PCBNEW 9.0.3) date 2025-10-25 08:35:43*
%MOMM*%
%LPD*%
G01*
G04 APERTURE LIST*
G04 Aperture macros list*
%AMRoundRect*
0 Rectangle with rounded corners*
0 $1 Rounding radius*
0 $2 $3 $4 $5 $6 $7 $8 $9 X,Y pos of 4 corners*
0 Add a 4 corners polygon primitive as box body*
4,1,4,$2,$3,$4,$5,$6,$7,$8,$9,$2,$3,0*
0 Add four circle primitives for the rounded corners*
1,1,$1+$1,$2,$3*
1,1,$1+$1,$4,$5*
1,1,$1+$1,$6,$7*
1,1,$1+$1,$8,$9*
0 Add four rect primitives between the rounded corners*
20,1,$1+$1,$2,$3,$4,$5,0*
20,1,$1+$1,$4,$5,$6,$7,0*
20,1,$1+$1,$6,$7,$8,$9,0*
20,1,$1+$1,$8,$9,$2,$3,0*%
G04 Aperture macros list end*
%ADD10C,0.300000*%
%TA.AperFunction,NonConductor*%
%ADD11C,0.300000*%
%TD*%
%TA.AperFunction,SMDPad,CuDef*%
%ADD12RoundRect,0.250000X-0.625000X0.312500X-0.625000X-0.312500X0.625000X-0.312500X0.625000X0.312500X0*%
%TD*%
%TA.AperFunction,ComponentPad*%
%ADD13RoundRect,0.250000X-0.750000X0.750000X-0.750000X-0.750000X0.750000X-0.750000X0.750000X0.750000X0*%
%TD*%
%TA.AperFunction,ComponentPad*%
%ADD14C,2.000000*%
%TD*%
%TA.AperFunction,ComponentPad*%
%ADD15RoundRect,0.250000X0.750000X-0.750000X0.750000X0.750000X-0.750000X0.750000X-0.750000X-0.750000X0*%
%TD*%
%TA.AperFunction,ViaPad*%
%ADD16C,1.200000*%
%TD*%
%TA.AperFunction,Conductor*%
%ADD17C,0.200000*%
%TD*%
%TA.AperFunction,Conductor*%
%ADD18C,0.500000*%
%TD*%
G04 APERTURE END LIST*
D10*
D11*
X112608225Y-63954080D02*
X113108225Y-65454080D01*
X113108225Y-65454080D02*
X113608225Y-63954080D01*
X114108224Y-64882652D02*
X115251082Y-64882652D01*
X114679653Y-65454080D02*
X114679653Y-64311223D01*
X112822510Y-67868996D02*
X112822510Y-66368996D01*
X112822510Y-66368996D02*
X113679653Y-67868996D01*
X113679653Y-67868996D02*
X113679653Y-66368996D01*
X115251082Y-67726139D02*
X115179654Y-67797568D01*
X115179654Y-67797568D02*
X114965368Y-67868996D01*
X114965368Y-67868996D02*
X114822511Y-67868996D01*
X114822511Y-67868996D02*
X114608225Y-67797568D01*
X114608225Y-67797568D02*
X114465368Y-67654710D01*
X114465368Y-67654710D02*
X114393939Y-67511853D01*
X114393939Y-67511853D02*
X114322511Y-67226139D01*
X114322511Y-67226139D02*
X114322511Y-67011853D01*
X114322511Y-67011853D02*
X114393939Y-66726139D01*
X114393939Y-66726139D02*
X114465368Y-66583282D01*
X114465368Y-66583282D02*
X114608225Y-66440425D01*
X114608225Y-66440425D02*
X114822511Y-66368996D01*
X114822511Y-66368996D02*
X114965368Y-66368996D01*
X114965368Y-66368996D02*
X115179654Y-66440425D01*
X115179654Y-66440425D02*
X115251082Y-66511853D01*
X113108225Y-68783912D02*
X113393939Y-68783912D01*
X113393939Y-68783912D02*
X113536796Y-68855341D01*
X113536796Y-68855341D02*
X113679653Y-68998198D01*
X113679653Y-68998198D02*
X113751082Y-69283912D01*
X113751082Y-69283912D02*
X113751082Y-69783912D01*
X113751082Y-69783912D02*
X113679653Y-70069626D01*
X113679653Y-70069626D02*
X113536796Y-70212484D01*
X113536796Y-70212484D02*
X113393939Y-70283912D01*
X113393939Y-70283912D02*
X113108225Y-70283912D01*
X113108225Y-70283912D02*
X112965368Y-70212484D01*
X112965368Y-70212484D02*
X112822510Y-70069626D01*
X112822510Y-70069626D02*
X112751082Y-69783912D01*
X112751082Y-69783912D02*
X112751082Y-69283912D01*
X112751082Y-69283912D02*
X112822510Y-68998198D01*
X112822510Y-68998198D02*
X112965368Y-68855341D01*
X112965368Y-68855341D02*
X113108225Y-68783912D01*
X115036797Y-69283912D02*
X115036797Y-70283912D01*
X114393939Y-69283912D02*
X114393939Y-70069626D01*
X114393939Y-70069626D02*
X114465368Y-70212484D01*
X114465368Y-70212484D02*
X114608225Y-70283912D01*
X114608225Y-70283912D02*
X114822511Y-70283912D01*
X114822511Y-70283912D02*
X114965368Y-70212484D01*
X114965368Y-70212484D02*
X115036797Y-70141055D01*
X115536797Y-69283912D02*
X116108225Y-69283912D01*
X115751082Y-68783912D02*
X115751082Y-70069626D01*
X115751082Y-70069626D02*
X115822511Y-70212484D01*
X115822511Y-70212484D02*
X115965368Y-70283912D01*
X115965368Y-70283912D02*
X116108225Y-70283912D01*
X116608225Y-69283912D02*
X116608225Y-70783912D01*
X116608225Y-69355341D02*
X116751083Y-69283912D01*
X116751083Y-69283912D02*
X117036797Y-69283912D01*
X117036797Y-69283912D02*
X117179654Y-69355341D01*
X117179654Y-69355341D02*
X117251083Y-69426769D01*
X117251083Y-69426769D02*
X117322511Y-69569626D01*
X117322511Y-69569626D02*
X117322511Y-69998198D01*
X117322511Y-69998198D02*
X117251083Y-70141055D01*
X117251083Y-70141055D02*
X117179654Y-70212484D01*
X117179654Y-70212484D02*
X117036797Y-70283912D01*
X117036797Y-70283912D02*
X116751083Y-70283912D01*
X116751083Y-70283912D02*
X116608225Y-70212484D01*
X118608226Y-69283912D02*
X118608226Y-70283912D01*
X117965368Y-69283912D02*
X117965368Y-70069626D01*
X117965368Y-70069626D02*
X118036797Y-70212484D01*
X118036797Y-70212484D02*
X118179654Y-70283912D01*
X118179654Y-70283912D02*
X118393940Y-70283912D01*
X118393940Y-70283912D02*
X118536797Y-70212484D01*
X118536797Y-70212484D02*
X118608226Y-70141055D01*
X119108226Y-69283912D02*
X119679654Y-69283912D01*
X119322511Y-68783912D02*
X119322511Y-70069626D01*
X119322511Y-70069626D02*
X119393940Y-70212484D01*
X119393940Y-70212484D02*
X119536797Y-70283912D01*
X119536797Y-70283912D02*
X119679654Y-70283912D01*
X113608225Y-71270257D02*
X113465368Y-71198828D01*
X113465368Y-71198828D02*
X113251082Y-71198828D01*
X113251082Y-71198828D02*
X113036796Y-71270257D01*
X113036796Y-71270257D02*
X112893939Y-71413114D01*
X112893939Y-71413114D02*
X112822510Y-71555971D01*
X112822510Y-71555971D02*
X112751082Y-71841685D01*
X112751082Y-71841685D02*
X112751082Y-72055971D01*
X112751082Y-72055971D02*
X112822510Y-72341685D01*
X112822510Y-72341685D02*
X112893939Y-72484542D01*
X112893939Y-72484542D02*
X113036796Y-72627400D01*
X113036796Y-72627400D02*
X113251082Y-72698828D01*
X113251082Y-72698828D02*
X113393939Y-72698828D01*
X113393939Y-72698828D02*
X113608225Y-72627400D01*
X113608225Y-72627400D02*
X113679653Y-72555971D01*
X113679653Y-72555971D02*
X113679653Y-72055971D01*
X113679653Y-72055971D02*
X113393939Y-72055971D01*
X114322510Y-72698828D02*
X114322510Y-71198828D01*
X114322510Y-71198828D02*
X115179653Y-72698828D01*
X115179653Y-72698828D02*
X115179653Y-71198828D01*
X115893939Y-72698828D02*
X115893939Y-71198828D01*
X115893939Y-71198828D02*
X116251082Y-71198828D01*
X116251082Y-71198828D02*
X116465368Y-71270257D01*
X116465368Y-71270257D02*
X116608225Y-71413114D01*
X116608225Y-71413114D02*
X116679654Y-71555971D01*
X116679654Y-71555971D02*
X116751082Y-71841685D01*
X116751082Y-71841685D02*
X116751082Y-72055971D01*
X116751082Y-72055971D02*
X116679654Y-72341685D01*
X116679654Y-72341685D02*
X116608225Y-72484542D01*
X116608225Y-72484542D02*
X116465368Y-72627400D01*
X116465368Y-72627400D02*
X116251082Y-72698828D01*
X116251082Y-72698828D02*
X115893939Y-72698828D01*
D10*
D11*
X133904510Y-96378652D02*
X135047368Y-96378652D01*
X134475939Y-96950080D02*
X134475939Y-95807223D01*
X136404511Y-95450080D02*
X136118796Y-95450080D01*
X136118796Y-95450080D02*
X135975939Y-95521509D01*
X135975939Y-95521509D02*
X135904511Y-95592937D01*
X135904511Y-95592937D02*
X135761653Y-95807223D01*
X135761653Y-95807223D02*
X135690225Y-96092937D01*
X135690225Y-96092937D02*
X135690225Y-96664366D01*
X135690225Y-96664366D02*
X135761653Y-96807223D01*
X135761653Y-96807223D02*
X135833082Y-96878652D01*
X135833082Y-96878652D02*
X135975939Y-96950080D01*
X135975939Y-96950080D02*
X136261653Y-96950080D01*
X136261653Y-96950080D02*
X136404511Y-96878652D01*
X136404511Y-96878652D02*
X136475939Y-96807223D01*
X136475939Y-96807223D02*
X136547368Y-96664366D01*
X136547368Y-96664366D02*
X136547368Y-96307223D01*
X136547368Y-96307223D02*
X136475939Y-96164366D01*
X136475939Y-96164366D02*
X136404511Y-96092937D01*
X136404511Y-96092937D02*
X136261653Y-96021509D01*
X136261653Y-96021509D02*
X135975939Y-96021509D01*
X135975939Y-96021509D02*
X135833082Y-96092937D01*
X135833082Y-96092937D02*
X135761653Y-96164366D01*
X135761653Y-96164366D02*
X135690225Y-96307223D01*
X136975939Y-95450080D02*
X137475939Y-96950080D01*
X137475939Y-96950080D02*
X137975939Y-95450080D01*
X133690225Y-97864996D02*
X134190225Y-99364996D01*
X134190225Y-99364996D02*
X134690225Y-97864996D01*
X135975939Y-97936425D02*
X135833082Y-97864996D01*
X135833082Y-97864996D02*
X135618796Y-97864996D01*
X135618796Y-97864996D02*
X135404510Y-97936425D01*
X135404510Y-97936425D02*
X135261653Y-98079282D01*
X135261653Y-98079282D02*
X135190224Y-98222139D01*
X135190224Y-98222139D02*
X135118796Y-98507853D01*
X135118796Y-98507853D02*
X135118796Y-98722139D01*
X135118796Y-98722139D02*
X135190224Y-99007853D01*
X135190224Y-99007853D02*
X135261653Y-99150710D01*
X135261653Y-99150710D02*
X135404510Y-99293568D01*
X135404510Y-99293568D02*
X135618796Y-99364996D01*
X135618796Y-99364996D02*
X135761653Y-99364996D01*
X135761653Y-99364996D02*
X135975939Y-99293568D01*
X135975939Y-99293568D02*
X136047367Y-99222139D01*
X136047367Y-99222139D02*
X136047367Y-98722139D01*
X136047367Y-98722139D02*
X135761653Y-98722139D01*
X136690224Y-99364996D02*
X136690224Y-97864996D01*
X136690224Y-97864996D02*
X137547367Y-99364996D01*
X137547367Y-99364996D02*
X137547367Y-97864996D01*
X138261653Y-99364996D02*
X138261653Y-97864996D01*
X138261653Y-97864996D02*
X138618796Y-97864996D01*
X138618796Y-97864996D02*
X138833082Y-97936425D01*
X138833082Y-97936425D02*
X138975939Y-98079282D01*
X138975939Y-98079282D02*
X139047368Y-98222139D01*
X139047368Y-98222139D02*
X139118796Y-98507853D01*
X139118796Y-98507853D02*
X139118796Y-98722139D01*
X139118796Y-98722139D02*
X139047368Y-99007853D01*
X139047368Y-99007853D02*
X138975939Y-99150710D01*
X138975939Y-99150710D02*
X138833082Y-99293568D01*
X138833082Y-99293568D02*
X138618796Y-99364996D01*
X138618796Y-99364996D02*
X138261653Y-99364996D01*
X133904510Y-101779912D02*
X133904510Y-100279912D01*
X133904510Y-100279912D02*
X134761653Y-101779912D01*
X134761653Y-101779912D02*
X134761653Y-100279912D01*
X136333082Y-101637055D02*
X136261654Y-101708484D01*
X136261654Y-101708484D02*
X136047368Y-101779912D01*
X136047368Y-101779912D02*
X135904511Y-101779912D01*
X135904511Y-101779912D02*
X135690225Y-101708484D01*
X135690225Y-101708484D02*
X135547368Y-101565626D01*
X135547368Y-101565626D02*
X135475939Y-101422769D01*
X135475939Y-101422769D02*
X135404511Y-101137055D01*
X135404511Y-101137055D02*
X135404511Y-100922769D01*
X135404511Y-100922769D02*
X135475939Y-100637055D01*
X135475939Y-100637055D02*
X135547368Y-100494198D01*
X135547368Y-100494198D02*
X135690225Y-100351341D01*
X135690225Y-100351341D02*
X135904511Y-100279912D01*
X135904511Y-100279912D02*
X136047368Y-100279912D01*
X136047368Y-100279912D02*
X136261654Y-100351341D01*
X136261654Y-100351341D02*
X136333082Y-100422769D01*
X133904510Y-103623400D02*
X135047368Y-103623400D01*
X136404511Y-102694828D02*
X136118796Y-102694828D01*
X136118796Y-102694828D02*
X135975939Y-102766257D01*
X135975939Y-102766257D02*
X135904511Y-102837685D01*
X135904511Y-102837685D02*
X135761653Y-103051971D01*
X135761653Y-103051971D02*
X135690225Y-103337685D01*
X135690225Y-103337685D02*
X135690225Y-103909114D01*
X135690225Y-103909114D02*
X135761653Y-104051971D01*
X135761653Y-104051971D02*
X135833082Y-104123400D01*
X135833082Y-104123400D02*
X135975939Y-104194828D01*
X135975939Y-104194828D02*
X136261653Y-104194828D01*
X136261653Y-104194828D02*
X136404511Y-104123400D01*
X136404511Y-104123400D02*
X136475939Y-104051971D01*
X136475939Y-104051971D02*
X136547368Y-103909114D01*
X136547368Y-103909114D02*
X136547368Y-103551971D01*
X136547368Y-103551971D02*
X136475939Y-103409114D01*
X136475939Y-103409114D02*
X136404511Y-103337685D01*
X136404511Y-103337685D02*
X136261653Y-103266257D01*
X136261653Y-103266257D02*
X135975939Y-103266257D01*
X135975939Y-103266257D02*
X135833082Y-103337685D01*
X135833082Y-103337685D02*
X135761653Y-103409114D01*
X135761653Y-103409114D02*
X135690225Y-103551971D01*
X136975939Y-102694828D02*
X137475939Y-104194828D01*
X137475939Y-104194828D02*
X137975939Y-102694828D01*
D10*
D11*
X112608225Y-76908080D02*
X113108225Y-78408080D01*
X113108225Y-78408080D02*
X113608225Y-76908080D01*
X114108224Y-77836652D02*
X115251082Y-77836652D01*
X114679653Y-78408080D02*
X114679653Y-77265223D01*
X112822510Y-80822996D02*
X112822510Y-79322996D01*
X112822510Y-79322996D02*
X113679653Y-80822996D01*
X113679653Y-80822996D02*
X113679653Y-79322996D01*
X115251082Y-80680139D02*
X115179654Y-80751568D01*
X115179654Y-80751568D02*
X114965368Y-80822996D01*
X114965368Y-80822996D02*
X114822511Y-80822996D01*
X114822511Y-80822996D02*
X114608225Y-80751568D01*
X114608225Y-80751568D02*
X114465368Y-80608710D01*
X114465368Y-80608710D02*
X114393939Y-80465853D01*
X114393939Y-80465853D02*
X114322511Y-80180139D01*
X114322511Y-80180139D02*
X114322511Y-79965853D01*
X114322511Y-79965853D02*
X114393939Y-79680139D01*
X114393939Y-79680139D02*
X114465368Y-79537282D01*
X114465368Y-79537282D02*
X114608225Y-79394425D01*
X114608225Y-79394425D02*
X114822511Y-79322996D01*
X114822511Y-79322996D02*
X114965368Y-79322996D01*
X114965368Y-79322996D02*
X115179654Y-79394425D01*
X115179654Y-79394425D02*
X115251082Y-79465853D01*
X113108225Y-81737912D02*
X113393939Y-81737912D01*
X113393939Y-81737912D02*
X113536796Y-81809341D01*
X113536796Y-81809341D02*
X113679653Y-81952198D01*
X113679653Y-81952198D02*
X113751082Y-82237912D01*
X113751082Y-82237912D02*
X113751082Y-82737912D01*
X113751082Y-82737912D02*
X113679653Y-83023626D01*
X113679653Y-83023626D02*
X113536796Y-83166484D01*
X113536796Y-83166484D02*
X113393939Y-83237912D01*
X113393939Y-83237912D02*
X113108225Y-83237912D01*
X113108225Y-83237912D02*
X112965368Y-83166484D01*
X112965368Y-83166484D02*
X112822510Y-83023626D01*
X112822510Y-83023626D02*
X112751082Y-82737912D01*
X112751082Y-82737912D02*
X112751082Y-82237912D01*
X112751082Y-82237912D02*
X112822510Y-81952198D01*
X112822510Y-81952198D02*
X112965368Y-81809341D01*
X112965368Y-81809341D02*
X113108225Y-81737912D01*
X115036797Y-82237912D02*
X115036797Y-83237912D01*
X114393939Y-82237912D02*
X114393939Y-83023626D01*
X114393939Y-83023626D02*
X114465368Y-83166484D01*
X114465368Y-83166484D02*
X114608225Y-83237912D01*
X114608225Y-83237912D02*
X114822511Y-83237912D01*
X114822511Y-83237912D02*
X114965368Y-83166484D01*
X114965368Y-83166484D02*
X115036797Y-83095055D01*
X115536797Y-82237912D02*
X116108225Y-82237912D01*
X115751082Y-81737912D02*
X115751082Y-83023626D01*
X115751082Y-83023626D02*
X115822511Y-83166484D01*
X115822511Y-83166484D02*
X115965368Y-83237912D01*
X115965368Y-83237912D02*
X116108225Y-83237912D01*
X116608225Y-82237912D02*
X116608225Y-83737912D01*
X116608225Y-82309341D02*
X116751083Y-82237912D01*
X116751083Y-82237912D02*
X117036797Y-82237912D01*
X117036797Y-82237912D02*
X117179654Y-82309341D01*
X117179654Y-82309341D02*
X117251083Y-82380769D01*
X117251083Y-82380769D02*
X117322511Y-82523626D01*
X117322511Y-82523626D02*
X117322511Y-82952198D01*
X117322511Y-82952198D02*
X117251083Y-83095055D01*
X117251083Y-83095055D02*
X117179654Y-83166484D01*
X117179654Y-83166484D02*
X117036797Y-83237912D01*
X117036797Y-83237912D02*
X116751083Y-83237912D01*
X116751083Y-83237912D02*
X116608225Y-83166484D01*
X118608226Y-82237912D02*
X118608226Y-83237912D01*
X117965368Y-82237912D02*
X117965368Y-83023626D01*
X117965368Y-83023626D02*
X118036797Y-83166484D01*
X118036797Y-83166484D02*
X118179654Y-83237912D01*
X118179654Y-83237912D02*
X118393940Y-83237912D01*
X118393940Y-83237912D02*
X118536797Y-83166484D01*
X118536797Y-83166484D02*
X118608226Y-83095055D01*
X119108226Y-82237912D02*
X119679654Y-82237912D01*
X119322511Y-81737912D02*
X119322511Y-83023626D01*
X119322511Y-83023626D02*
X119393940Y-83166484D01*
X119393940Y-83166484D02*
X119536797Y-83237912D01*
X119536797Y-83237912D02*
X119679654Y-83237912D01*
X113608225Y-84224257D02*
X113465368Y-84152828D01*
X113465368Y-84152828D02*
X113251082Y-84152828D01*
X113251082Y-84152828D02*
X113036796Y-84224257D01*
X113036796Y-84224257D02*
X112893939Y-84367114D01*
X112893939Y-84367114D02*
X112822510Y-84509971D01*
X112822510Y-84509971D02*
X112751082Y-84795685D01*
X112751082Y-84795685D02*
X112751082Y-85009971D01*
X112751082Y-85009971D02*
X112822510Y-85295685D01*
X112822510Y-85295685D02*
X112893939Y-85438542D01*
X112893939Y-85438542D02*
X113036796Y-85581400D01*
X113036796Y-85581400D02*
X113251082Y-85652828D01*
X113251082Y-85652828D02*
X113393939Y-85652828D01*
X113393939Y-85652828D02*
X113608225Y-85581400D01*
X113608225Y-85581400D02*
X113679653Y-85509971D01*
X113679653Y-85509971D02*
X113679653Y-85009971D01*
X113679653Y-85009971D02*
X113393939Y-85009971D01*
X114322510Y-85652828D02*
X114322510Y-84152828D01*
X114322510Y-84152828D02*
X115179653Y-85652828D01*
X115179653Y-85652828D02*
X115179653Y-84152828D01*
X115893939Y-85652828D02*
X115893939Y-84152828D01*
X115893939Y-84152828D02*
X116251082Y-84152828D01*
X116251082Y-84152828D02*
X116465368Y-84224257D01*
X116465368Y-84224257D02*
X116608225Y-84367114D01*
X116608225Y-84367114D02*
X116679654Y-84509971D01*
X116679654Y-84509971D02*
X116751082Y-84795685D01*
X116751082Y-84795685D02*
X116751082Y-85009971D01*
X116751082Y-85009971D02*
X116679654Y-85295685D01*
X116679654Y-85295685D02*
X116608225Y-85438542D01*
X116608225Y-85438542D02*
X116465368Y-85581400D01*
X116465368Y-85581400D02*
X116251082Y-85652828D01*
X116251082Y-85652828D02*
X115893939Y-85652828D01*
D10*
D11*
X76540225Y-63954080D02*
X77040225Y-65454080D01*
X77040225Y-65454080D02*
X77540225Y-63954080D01*
X78040224Y-64882652D02*
X79183082Y-64882652D01*
X78611653Y-65454080D02*
X78611653Y-64311223D01*
X76754510Y-67868996D02*
X76754510Y-66368996D01*
X76754510Y-66368996D02*
X77611653Y-67868996D01*
X77611653Y-67868996D02*
X77611653Y-66368996D01*
X79183082Y-67726139D02*
X79111654Y-67797568D01*
X79111654Y-67797568D02*
X78897368Y-67868996D01*
X78897368Y-67868996D02*
X78754511Y-67868996D01*
X78754511Y-67868996D02*
X78540225Y-67797568D01*
X78540225Y-67797568D02*
X78397368Y-67654710D01*
X78397368Y-67654710D02*
X78325939Y-67511853D01*
X78325939Y-67511853D02*
X78254511Y-67226139D01*
X78254511Y-67226139D02*
X78254511Y-67011853D01*
X78254511Y-67011853D02*
X78325939Y-66726139D01*
X78325939Y-66726139D02*
X78397368Y-66583282D01*
X78397368Y-66583282D02*
X78540225Y-66440425D01*
X78540225Y-66440425D02*
X78754511Y-66368996D01*
X78754511Y-66368996D02*
X78897368Y-66368996D01*
X78897368Y-66368996D02*
X79111654Y-66440425D01*
X79111654Y-66440425D02*
X79183082Y-66511853D01*
X77040225Y-68783912D02*
X77325939Y-68783912D01*
X77325939Y-68783912D02*
X77468796Y-68855341D01*
X77468796Y-68855341D02*
X77611653Y-68998198D01*
X77611653Y-68998198D02*
X77683082Y-69283912D01*
X77683082Y-69283912D02*
X77683082Y-69783912D01*
X77683082Y-69783912D02*
X77611653Y-70069626D01*
X77611653Y-70069626D02*
X77468796Y-70212484D01*
X77468796Y-70212484D02*
X77325939Y-70283912D01*
X77325939Y-70283912D02*
X77040225Y-70283912D01*
X77040225Y-70283912D02*
X76897368Y-70212484D01*
X76897368Y-70212484D02*
X76754510Y-70069626D01*
X76754510Y-70069626D02*
X76683082Y-69783912D01*
X76683082Y-69783912D02*
X76683082Y-69283912D01*
X76683082Y-69283912D02*
X76754510Y-68998198D01*
X76754510Y-68998198D02*
X76897368Y-68855341D01*
X76897368Y-68855341D02*
X77040225Y-68783912D01*
X78968797Y-69283912D02*
X78968797Y-70283912D01*
X78325939Y-69283912D02*
X78325939Y-70069626D01*
X78325939Y-70069626D02*
X78397368Y-70212484D01*
X78397368Y-70212484D02*
X78540225Y-70283912D01*
X78540225Y-70283912D02*
X78754511Y-70283912D01*
X78754511Y-70283912D02*
X78897368Y-70212484D01*
X78897368Y-70212484D02*
X78968797Y-70141055D01*
X79468797Y-69283912D02*
X80040225Y-69283912D01*
X79683082Y-68783912D02*
X79683082Y-70069626D01*
X79683082Y-70069626D02*
X79754511Y-70212484D01*
X79754511Y-70212484D02*
X79897368Y-70283912D01*
X79897368Y-70283912D02*
X80040225Y-70283912D01*
X80540225Y-69283912D02*
X80540225Y-70783912D01*
X80540225Y-69355341D02*
X80683083Y-69283912D01*
X80683083Y-69283912D02*
X80968797Y-69283912D01*
X80968797Y-69283912D02*
X81111654Y-69355341D01*
X81111654Y-69355341D02*
X81183083Y-69426769D01*
X81183083Y-69426769D02*
X81254511Y-69569626D01*
X81254511Y-69569626D02*
X81254511Y-69998198D01*
X81254511Y-69998198D02*
X81183083Y-70141055D01*
X81183083Y-70141055D02*
X81111654Y-70212484D01*
X81111654Y-70212484D02*
X80968797Y-70283912D01*
X80968797Y-70283912D02*
X80683083Y-70283912D01*
X80683083Y-70283912D02*
X80540225Y-70212484D01*
X82540226Y-69283912D02*
X82540226Y-70283912D01*
X81897368Y-69283912D02*
X81897368Y-70069626D01*
X81897368Y-70069626D02*
X81968797Y-70212484D01*
X81968797Y-70212484D02*
X82111654Y-70283912D01*
X82111654Y-70283912D02*
X82325940Y-70283912D01*
X82325940Y-70283912D02*
X82468797Y-70212484D01*
X82468797Y-70212484D02*
X82540226Y-70141055D01*
X83040226Y-69283912D02*
X83611654Y-69283912D01*
X83254511Y-68783912D02*
X83254511Y-70069626D01*
X83254511Y-70069626D02*
X83325940Y-70212484D01*
X83325940Y-70212484D02*
X83468797Y-70283912D01*
X83468797Y-70283912D02*
X83611654Y-70283912D01*
X77540225Y-71270257D02*
X77397368Y-71198828D01*
X77397368Y-71198828D02*
X77183082Y-71198828D01*
X77183082Y-71198828D02*
X76968796Y-71270257D01*
X76968796Y-71270257D02*
X76825939Y-71413114D01*
X76825939Y-71413114D02*
X76754510Y-71555971D01*
X76754510Y-71555971D02*
X76683082Y-71841685D01*
X76683082Y-71841685D02*
X76683082Y-72055971D01*
X76683082Y-72055971D02*
X76754510Y-72341685D01*
X76754510Y-72341685D02*
X76825939Y-72484542D01*
X76825939Y-72484542D02*
X76968796Y-72627400D01*
X76968796Y-72627400D02*
X77183082Y-72698828D01*
X77183082Y-72698828D02*
X77325939Y-72698828D01*
X77325939Y-72698828D02*
X77540225Y-72627400D01*
X77540225Y-72627400D02*
X77611653Y-72555971D01*
X77611653Y-72555971D02*
X77611653Y-72055971D01*
X77611653Y-72055971D02*
X77325939Y-72055971D01*
X78254510Y-72698828D02*
X78254510Y-71198828D01*
X78254510Y-71198828D02*
X79111653Y-72698828D01*
X79111653Y-72698828D02*
X79111653Y-71198828D01*
X79825939Y-72698828D02*
X79825939Y-71198828D01*
X79825939Y-71198828D02*
X80183082Y-71198828D01*
X80183082Y-71198828D02*
X80397368Y-71270257D01*
X80397368Y-71270257D02*
X80540225Y-71413114D01*
X80540225Y-71413114D02*
X80611654Y-71555971D01*
X80611654Y-71555971D02*
X80683082Y-71841685D01*
X80683082Y-71841685D02*
X80683082Y-72055971D01*
X80683082Y-72055971D02*
X80611654Y-72341685D01*
X80611654Y-72341685D02*
X80540225Y-72484542D01*
X80540225Y-72484542D02*
X80397368Y-72627400D01*
X80397368Y-72627400D02*
X80183082Y-72698828D01*
X80183082Y-72698828D02*
X79825939Y-72698828D01*
D10*
D11*
X97836510Y-96378652D02*
X98979368Y-96378652D01*
X98407939Y-96950080D02*
X98407939Y-95807223D01*
X100336511Y-95450080D02*
X100050796Y-95450080D01*
X100050796Y-95450080D02*
X99907939Y-95521509D01*
X99907939Y-95521509D02*
X99836511Y-95592937D01*
X99836511Y-95592937D02*
X99693653Y-95807223D01*
X99693653Y-95807223D02*
X99622225Y-96092937D01*
X99622225Y-96092937D02*
X99622225Y-96664366D01*
X99622225Y-96664366D02*
X99693653Y-96807223D01*
X99693653Y-96807223D02*
X99765082Y-96878652D01*
X99765082Y-96878652D02*
X99907939Y-96950080D01*
X99907939Y-96950080D02*
X100193653Y-96950080D01*
X100193653Y-96950080D02*
X100336511Y-96878652D01*
X100336511Y-96878652D02*
X100407939Y-96807223D01*
X100407939Y-96807223D02*
X100479368Y-96664366D01*
X100479368Y-96664366D02*
X100479368Y-96307223D01*
X100479368Y-96307223D02*
X100407939Y-96164366D01*
X100407939Y-96164366D02*
X100336511Y-96092937D01*
X100336511Y-96092937D02*
X100193653Y-96021509D01*
X100193653Y-96021509D02*
X99907939Y-96021509D01*
X99907939Y-96021509D02*
X99765082Y-96092937D01*
X99765082Y-96092937D02*
X99693653Y-96164366D01*
X99693653Y-96164366D02*
X99622225Y-96307223D01*
X100907939Y-95450080D02*
X101407939Y-96950080D01*
X101407939Y-96950080D02*
X101907939Y-95450080D01*
X97622225Y-97864996D02*
X98122225Y-99364996D01*
X98122225Y-99364996D02*
X98622225Y-97864996D01*
X99907939Y-97936425D02*
X99765082Y-97864996D01*
X99765082Y-97864996D02*
X99550796Y-97864996D01*
X99550796Y-97864996D02*
X99336510Y-97936425D01*
X99336510Y-97936425D02*
X99193653Y-98079282D01*
X99193653Y-98079282D02*
X99122224Y-98222139D01*
X99122224Y-98222139D02*
X99050796Y-98507853D01*
X99050796Y-98507853D02*
X99050796Y-98722139D01*
X99050796Y-98722139D02*
X99122224Y-99007853D01*
X99122224Y-99007853D02*
X99193653Y-99150710D01*
X99193653Y-99150710D02*
X99336510Y-99293568D01*
X99336510Y-99293568D02*
X99550796Y-99364996D01*
X99550796Y-99364996D02*
X99693653Y-99364996D01*
X99693653Y-99364996D02*
X99907939Y-99293568D01*
X99907939Y-99293568D02*
X99979367Y-99222139D01*
X99979367Y-99222139D02*
X99979367Y-98722139D01*
X99979367Y-98722139D02*
X99693653Y-98722139D01*
X100622224Y-99364996D02*
X100622224Y-97864996D01*
X100622224Y-97864996D02*
X101479367Y-99364996D01*
X101479367Y-99364996D02*
X101479367Y-97864996D01*
X102193653Y-99364996D02*
X102193653Y-97864996D01*
X102193653Y-97864996D02*
X102550796Y-97864996D01*
X102550796Y-97864996D02*
X102765082Y-97936425D01*
X102765082Y-97936425D02*
X102907939Y-98079282D01*
X102907939Y-98079282D02*
X102979368Y-98222139D01*
X102979368Y-98222139D02*
X103050796Y-98507853D01*
X103050796Y-98507853D02*
X103050796Y-98722139D01*
X103050796Y-98722139D02*
X102979368Y-99007853D01*
X102979368Y-99007853D02*
X102907939Y-99150710D01*
X102907939Y-99150710D02*
X102765082Y-99293568D01*
X102765082Y-99293568D02*
X102550796Y-99364996D01*
X102550796Y-99364996D02*
X102193653Y-99364996D01*
X97836510Y-101779912D02*
X97836510Y-100279912D01*
X97836510Y-100279912D02*
X98693653Y-101779912D01*
X98693653Y-101779912D02*
X98693653Y-100279912D01*
X100265082Y-101637055D02*
X100193654Y-101708484D01*
X100193654Y-101708484D02*
X99979368Y-101779912D01*
X99979368Y-101779912D02*
X99836511Y-101779912D01*
X99836511Y-101779912D02*
X99622225Y-101708484D01*
X99622225Y-101708484D02*
X99479368Y-101565626D01*
X99479368Y-101565626D02*
X99407939Y-101422769D01*
X99407939Y-101422769D02*
X99336511Y-101137055D01*
X99336511Y-101137055D02*
X99336511Y-100922769D01*
X99336511Y-100922769D02*
X99407939Y-100637055D01*
X99407939Y-100637055D02*
X99479368Y-100494198D01*
X99479368Y-100494198D02*
X99622225Y-100351341D01*
X99622225Y-100351341D02*
X99836511Y-100279912D01*
X99836511Y-100279912D02*
X99979368Y-100279912D01*
X99979368Y-100279912D02*
X100193654Y-100351341D01*
X100193654Y-100351341D02*
X100265082Y-100422769D01*
X97836510Y-103623400D02*
X98979368Y-103623400D01*
X100336511Y-102694828D02*
X100050796Y-102694828D01*
X100050796Y-102694828D02*
X99907939Y-102766257D01*
X99907939Y-102766257D02*
X99836511Y-102837685D01*
X99836511Y-102837685D02*
X99693653Y-103051971D01*
X99693653Y-103051971D02*
X99622225Y-103337685D01*
X99622225Y-103337685D02*
X99622225Y-103909114D01*
X99622225Y-103909114D02*
X99693653Y-104051971D01*
X99693653Y-104051971D02*
X99765082Y-104123400D01*
X99765082Y-104123400D02*
X99907939Y-104194828D01*
X99907939Y-104194828D02*
X100193653Y-104194828D01*
X100193653Y-104194828D02*
X100336511Y-104123400D01*
X100336511Y-104123400D02*
X100407939Y-104051971D01*
X100407939Y-104051971D02*
X100479368Y-103909114D01*
X100479368Y-103909114D02*
X100479368Y-103551971D01*
X100479368Y-103551971D02*
X100407939Y-103409114D01*
X100407939Y-103409114D02*
X100336511Y-103337685D01*
X100336511Y-103337685D02*
X100193653Y-103266257D01*
X100193653Y-103266257D02*
X99907939Y-103266257D01*
X99907939Y-103266257D02*
X99765082Y-103337685D01*
X99765082Y-103337685D02*
X99693653Y-103409114D01*
X99693653Y-103409114D02*
X99622225Y-103551971D01*
X100907939Y-102694828D02*
X101407939Y-104194828D01*
X101407939Y-104194828D02*
X101907939Y-102694828D01*
D10*
D11*
X76540225Y-76908080D02*
X77040225Y-78408080D01*
X77040225Y-78408080D02*
X77540225Y-76908080D01*
X78040224Y-77836652D02*
X79183082Y-77836652D01*
X78611653Y-78408080D02*
X78611653Y-77265223D01*
X76754510Y-80822996D02*
X76754510Y-79322996D01*
X76754510Y-79322996D02*
X77611653Y-80822996D01*
X77611653Y-80822996D02*
X77611653Y-79322996D01*
X79183082Y-80680139D02*
X79111654Y-80751568D01*
X79111654Y-80751568D02*
X78897368Y-80822996D01*
X78897368Y-80822996D02*
X78754511Y-80822996D01*
X78754511Y-80822996D02*
X78540225Y-80751568D01*
X78540225Y-80751568D02*
X78397368Y-80608710D01*
X78397368Y-80608710D02*
X78325939Y-80465853D01*
X78325939Y-80465853D02*
X78254511Y-80180139D01*
X78254511Y-80180139D02*
X78254511Y-79965853D01*
X78254511Y-79965853D02*
X78325939Y-79680139D01*
X78325939Y-79680139D02*
X78397368Y-79537282D01*
X78397368Y-79537282D02*
X78540225Y-79394425D01*
X78540225Y-79394425D02*
X78754511Y-79322996D01*
X78754511Y-79322996D02*
X78897368Y-79322996D01*
X78897368Y-79322996D02*
X79111654Y-79394425D01*
X79111654Y-79394425D02*
X79183082Y-79465853D01*
X77040225Y-81737912D02*
X77325939Y-81737912D01*
X77325939Y-81737912D02*
X77468796Y-81809341D01*
X77468796Y-81809341D02*
X77611653Y-81952198D01*
X77611653Y-81952198D02*
X77683082Y-82237912D01*
X77683082Y-82237912D02*
X77683082Y-82737912D01*
X77683082Y-82737912D02*
X77611653Y-83023626D01*
X77611653Y-83023626D02*
X77468796Y-83166484D01*
X77468796Y-83166484D02*
X77325939Y-83237912D01*
X77325939Y-83237912D02*
X77040225Y-83237912D01*
X77040225Y-83237912D02*
X76897368Y-83166484D01*
X76897368Y-83166484D02*
X76754510Y-83023626D01*
X76754510Y-83023626D02*
X76683082Y-82737912D01*
X76683082Y-82737912D02*
X76683082Y-82237912D01*
X76683082Y-82237912D02*
X76754510Y-81952198D01*
X76754510Y-81952198D02*
X76897368Y-81809341D01*
X76897368Y-81809341D02*
X77040225Y-81737912D01*
X78968797Y-82237912D02*
X78968797Y-83237912D01*
X78325939Y-82237912D02*
X78325939Y-83023626D01*
X78325939Y-83023626D02*
X78397368Y-83166484D01*
X78397368Y-83166484D02*
X78540225Y-83237912D01*
X78540225Y-83237912D02*
X78754511Y-83237912D01*
X78754511Y-83237912D02*
X78897368Y-83166484D01*
X78897368Y-83166484D02*
X78968797Y-83095055D01*
X79468797Y-82237912D02*
X80040225Y-82237912D01*
X79683082Y-81737912D02*
X79683082Y-83023626D01*
X79683082Y-83023626D02*
X79754511Y-83166484D01*
X79754511Y-83166484D02*
X79897368Y-83237912D01*
X79897368Y-83237912D02*
X80040225Y-83237912D01*
X80540225Y-82237912D02*
X80540225Y-83737912D01*
X80540225Y-82309341D02*
X80683083Y-82237912D01*
X80683083Y-82237912D02*
X80968797Y-82237912D01*
X80968797Y-82237912D02*
X81111654Y-82309341D01*
X81111654Y-82309341D02*
X81183083Y-82380769D01*
X81183083Y-82380769D02*
X81254511Y-82523626D01*
X81254511Y-82523626D02*
X81254511Y-82952198D01*
X81254511Y-82952198D02*
X81183083Y-83095055D01*
X81183083Y-83095055D02*
X81111654Y-83166484D01*
X81111654Y-83166484D02*
X80968797Y-83237912D01*
X80968797Y-83237912D02*
X80683083Y-83237912D01*
X80683083Y-83237912D02*
X80540225Y-83166484D01*
X82540226Y-82237912D02*
X82540226Y-83237912D01*
X81897368Y-82237912D02*
X81897368Y-83023626D01*
X81897368Y-83023626D02*
X81968797Y-83166484D01*
X81968797Y-83166484D02*
X82111654Y-83237912D01*
X82111654Y-83237912D02*
X82325940Y-83237912D01*
X82325940Y-83237912D02*
X82468797Y-83166484D01*
X82468797Y-83166484D02*
X82540226Y-83095055D01*
X83040226Y-82237912D02*
X83611654Y-82237912D01*
X83254511Y-81737912D02*
X83254511Y-83023626D01*
X83254511Y-83023626D02*
X83325940Y-83166484D01*
X83325940Y-83166484D02*
X83468797Y-83237912D01*
X83468797Y-83237912D02*
X83611654Y-83237912D01*
X77540225Y-84224257D02*
X77397368Y-84152828D01*
X77397368Y-84152828D02*
X77183082Y-84152828D01*
X77183082Y-84152828D02*
X76968796Y-84224257D01*
X76968796Y-84224257D02*
X76825939Y-84367114D01*
X76825939Y-84367114D02*
X76754510Y-84509971D01*
X76754510Y-84509971D02*
X76683082Y-84795685D01*
X76683082Y-84795685D02*
X76683082Y-85009971D01*
X76683082Y-85009971D02*
X76754510Y-85295685D01*
X76754510Y-85295685D02*
X76825939Y-85438542D01*
X76825939Y-85438542D02*
X76968796Y-85581400D01*
X76968796Y-85581400D02*
X77183082Y-85652828D01*
X77183082Y-85652828D02*
X77325939Y-85652828D01*
X77325939Y-85652828D02*
X77540225Y-85581400D01*
X77540225Y-85581400D02*
X77611653Y-85509971D01*
X77611653Y-85509971D02*
X77611653Y-85009971D01*
X77611653Y-85009971D02*
X77325939Y-85009971D01*
X78254510Y-85652828D02*
X78254510Y-84152828D01*
X78254510Y-84152828D02*
X79111653Y-85652828D01*
X79111653Y-85652828D02*
X79111653Y-84152828D01*
X79825939Y-85652828D02*
X79825939Y-84152828D01*
X79825939Y-84152828D02*
X80183082Y-84152828D01*
X80183082Y-84152828D02*
X80397368Y-84224257D01*
X80397368Y-84224257D02*
X80540225Y-84367114D01*
X80540225Y-84367114D02*
X80611654Y-84509971D01*
X80611654Y-84509971D02*
X80683082Y-84795685D01*
X80683082Y-84795685D02*
X80683082Y-85009971D01*
X80683082Y-85009971D02*
X80611654Y-85295685D01*
X80611654Y-85295685D02*
X80540225Y-85438542D01*
X80540225Y-85438542D02*
X80397368Y-85581400D01*
X80397368Y-85581400D02*
X80183082Y-85652828D01*
X80183082Y-85652828D02*
X79825939Y-85652828D01*
D12*
%TO.P,R5,1*%
%TO.N,+6V*%
X133604000Y-76769500D03*
%TO.P,R5,2*%
%TO.N,Net-(J5-Pin_1)*%
X133604000Y-79694500D03*
%TD*%
D13*
%TO.P,J4,1,Pin_1*%
%TO.N,Net-(J4-Pin_1)*%
X140208000Y-66035000D03*
D14*
%TO.P,J4,2*%
%TO.N,N/C*%
X140208000Y-68575000D03*
%TD*%
D13*
%TO.P,J5,1,Pin_1*%
%TO.N,Net-(J5-Pin_1)*%
X140208000Y-78486000D03*
D14*
%TO.P,J5,2*%
%TO.N,N/C*%
X140208000Y-81026000D03*
%TD*%
D12*
%TO.P,R6,1*%
%TO.N,Net-(J5-Pin_1)*%
X133604000Y-81849500D03*
%TO.P,R6,2*%
%TO.N,GND*%
X133604000Y-84774500D03*
%TD*%
%TO.P,R2,1*%
%TO.N,GNDREF*%
X120650000Y-101915500D03*
%TO.P,R2,2*%
%TO.N,GND*%
X120650000Y-104840500D03*
%TD*%
D13*
%TO.P,J2,1,Pin_1*%
%TO.N,+12V*%
X127762000Y-96012000D03*
D14*
%TO.P,J2,2,Pin_2*%
%TO.N,GNDREF*%
X127762000Y-98552000D03*
%TO.P,J2,3,Pin_3*%
%TO.N,unconnected-(J2-Pin_3-Pad3)*%
X127762000Y-101092000D03*
%TO.P,J2,4,Pin_4*%
%TO.N,GND*%
X127762000Y-103632000D03*
%TD*%
D12*
%TO.P,R4,1*%
%TO.N,Net-(J4-Pin_1)*%
X133604000Y-68703000D03*
%TO.P,R4,2*%
%TO.N,GND*%
X133604000Y-71628000D03*
%TD*%
D15*
%TO.P,J6,1,Pin_1*%
%TO.N,GND*%
X120672300Y-91495800D03*
D14*
%TO.P,J6,2,Pin_2*%
%TO.N,+12V*%
X120672300Y-88955800D03*
%TD*%
D13*
%TO.P,J3,1,Pin_1*%
%TO.N,+12V*%
X128016000Y-76962000D03*
D14*
%TO.P,J3,2,Pin_2*%
%TO.N,unconnected-(J3-Pin_2-Pad2)*%
X128016000Y-79502000D03*
%TO.P,J3,3,Pin_3*%
%TO.N,+6V*%
X128016000Y-82042000D03*
%TO.P,J3,4,Pin_4*%
%TO.N,GND*%
X128016000Y-84582000D03*
%TD*%
D12*
%TO.P,R3,1*%
%TO.N,+6V*%
X133604000Y-63623000D03*
%TO.P,R3,2*%
%TO.N,Net-(J4-Pin_1)*%
X133604000Y-66548000D03*
%TD*%
%TO.P,R1,1*%
%TO.N,+12V*%
X120650000Y-95565500D03*
%TO.P,R1,2*%
%TO.N,GNDREF*%
X120650000Y-98490500D03*
%TD*%
D13*
%TO.P,J1,1,Pin_1*%
%TO.N,+12V*%
X127812800Y-63855600D03*
D14*
%TO.P,J1,2,Pin_2*%
%TO.N,unconnected-(J1-Pin_2-Pad2)*%
X127812800Y-66395600D03*
%TO.P,J1,3,Pin_3*%
%TO.N,+6V*%
X127812800Y-68935600D03*
%TO.P,J1,4,Pin_4*%
%TO.N,GND*%
X127812800Y-71475600D03*
%TD*%
D13*
%TO.P,J1,1,Pin_1*%
%TO.N,+12V*%
X91744800Y-63855600D03*
D14*
%TO.P,J1,2,Pin_2*%
%TO.N,unconnected-(J1-Pin_2-Pad2)*%
X91744800Y-66395600D03*
%TO.P,J1,3,Pin_3*%
%TO.N,+6V*%
X91744800Y-68935600D03*
%TO.P,J1,4,Pin_4*%
%TO.N,GND*%
X91744800Y-71475600D03*
%TD*%
D12*
%TO.P,R1,1*%
%TO.N,+12V*%
X84582000Y-95565500D03*
%TO.P,R1,2*%
%TO.N,GNDREF*%
X84582000Y-98490500D03*
%TD*%
%TO.P,R3,1*%
%TO.N,+6V*%
X97536000Y-63623000D03*
%TO.P,R3,2*%
%TO.N,Net-(J4-Pin_1)*%
X97536000Y-66548000D03*
%TD*%
D13*
%TO.P,J3,1,Pin_1*%
%TO.N,+12V*%
X91948000Y-76962000D03*
D14*
%TO.P,J3,2,Pin_2*%
%TO.N,unconnected-(J3-Pin_2-Pad2)*%
X91948000Y-79502000D03*
%TO.P,J3,3,Pin_3*%
%TO.N,+6V*%
X91948000Y-82042000D03*
%TO.P,J3,4,Pin_4*%
%TO.N,GND*%
X91948000Y-84582000D03*
%TD*%
D15*
%TO.P,J6,1,Pin_1*%
%TO.N,GND*%
X84604300Y-91495800D03*
D14*
%TO.P,J6,2,Pin_2*%
%TO.N,+12V*%
X84604300Y-88955800D03*
%TD*%
D12*
%TO.P,R4,1*%
%TO.N,Net-(J4-Pin_1)*%
X97536000Y-68703000D03*
%TO.P,R4,2*%
%TO.N,GND*%
X97536000Y-71628000D03*
%TD*%
D13*
%TO.P,J2,1,Pin_1*%
%TO.N,+12V*%
X91694000Y-96012000D03*
D14*
%TO.P,J2,2,Pin_2*%
%TO.N,GNDREF*%
X91694000Y-98552000D03*
%TO.P,J2,3,Pin_3*%
%TO.N,unconnected-(J2-Pin_3-Pad3)*%
X91694000Y-101092000D03*
%TO.P,J2,4,Pin_4*%
%TO.N,GND*%
X91694000Y-103632000D03*
%TD*%
D12*
%TO.P,R2,1*%
%TO.N,GNDREF*%
X84582000Y-101915500D03*
%TO.P,R2,2*%
%TO.N,GND*%
X84582000Y-104840500D03*
%TD*%
%TO.P,R6,1*%
%TO.N,Net-(J5-Pin_1)*%
X97536000Y-81849500D03*
%TO.P,R6,2*%
%TO.N,GND*%
X97536000Y-84774500D03*
%TD*%
D13*
%TO.P,J5,1,Pin_1*%
%TO.N,Net-(J5-Pin_1)*%
X104140000Y-78486000D03*
D14*
%TO.P,J5,2*%
%TO.N,N/C*%
X104140000Y-81026000D03*
%TD*%
D13*
%TO.P,J4,1,Pin_1*%
%TO.N,Net-(J4-Pin_1)*%
X104140000Y-66035000D03*
D14*
%TO.P,J4,2*%
%TO.N,N/C*%
X104140000Y-68575000D03*
%TD*%
D12*
%TO.P,R5,1*%
%TO.N,+6V*%
X97536000Y-76769500D03*
%TO.P,R5,2*%
%TO.N,Net-(J5-Pin_1)*%
X97536000Y-79694500D03*
%TD*%
D16*
%TO.N,+12V*%
X120650000Y-83566000D03*
X123190000Y-95504000D03*
%TO.N,GNDREF*%
X123190000Y-98552000D03*
%TO.N,+12V*%
X84582000Y-83566000D03*
X87122000Y-95504000D03*
%TO.N,GNDREF*%
X87122000Y-98552000D03*
%TD*%
D17*
%TO.N,+6V*%
X133125400Y-63623000D02*
X133604000Y-63623000D01*
D18*
%TO.N,GNDREF*%
X127700500Y-98490500D02*
X127762000Y-98552000D01*
X123128500Y-98490500D02*
X123190000Y-98552000D01*
%TO.N,+12V*%
X120672300Y-88955800D02*
X120672300Y-83588300D01*
X120650000Y-95565500D02*
X120965500Y-95565500D01*
X120672300Y-83588300D02*
X120650000Y-83566000D01*
X123382500Y-95565500D02*
X123444000Y-95504000D01*
D17*
%TO.N,+6V*%
X133288500Y-76769500D02*
X133604000Y-76769500D01*
D18*
X128016000Y-82042000D02*
X133288500Y-76769500D01*
D17*
%TO.N,Net-(J4-Pin_1)*%
X137540000Y-68703000D02*
X140208000Y-66035000D01*
D18*
%TO.N,+6V*%
X127812800Y-68935600D02*
X133125400Y-63623000D01*
D17*
%TO.N,Net-(J4-Pin_1)*%
X133604000Y-66548000D02*
X133604000Y-68703000D01*
D18*
%TO.N,GNDREF*%
X120650000Y-98490500D02*
X120650000Y-101915500D01*
X120650000Y-98490500D02*
X123128500Y-98490500D01*
%TO.N,+12V*%
X120650000Y-95565500D02*
X123382500Y-95565500D01*
X120672300Y-88955800D02*
X119221300Y-90406800D01*
X119221300Y-94136800D02*
X120650000Y-95565500D01*
X119221300Y-90406800D02*
X119221300Y-94136800D01*
D17*
%TO.N,Net-(J5-Pin_1)*%
X133604000Y-79694500D02*
X134050500Y-79694500D01*
%TO.N,Net-(J4-Pin_1)*%
X133604000Y-68703000D02*
X137540000Y-68703000D01*
%TO.N,Net-(J5-Pin_1)*%
X135259000Y-78486000D02*
X140208000Y-78486000D01*
X133604000Y-79694500D02*
X133604000Y-81849500D01*
X134050500Y-79694500D02*
X135259000Y-78486000D01*
D18*
%TO.N,+6V*%
X91948000Y-82042000D02*
X97220500Y-76769500D01*
D17*
X97057400Y-63623000D02*
X97536000Y-63623000D01*
D18*
X91744800Y-68935600D02*
X97057400Y-63623000D01*
D17*
X97220500Y-76769500D02*
X97536000Y-76769500D01*
D18*
%TO.N,+12V*%
X87314500Y-95565500D02*
X87376000Y-95504000D01*
X84604300Y-83588300D02*
X84582000Y-83566000D01*
X84604300Y-88955800D02*
X84604300Y-83588300D01*
X83153300Y-94136800D02*
X84582000Y-95565500D01*
X84582000Y-95565500D02*
X84897500Y-95565500D01*
X84582000Y-95565500D02*
X87314500Y-95565500D01*
X83153300Y-90406800D02*
X83153300Y-94136800D01*
X84604300Y-88955800D02*
X83153300Y-90406800D01*
%TO.N,GNDREF*%
X87060500Y-98490500D02*
X87122000Y-98552000D01*
X91632500Y-98490500D02*
X91694000Y-98552000D01*
X84582000Y-98490500D02*
X87060500Y-98490500D01*
X84582000Y-98490500D02*
X84582000Y-101915500D01*
D17*
%TO.N,Net-(J4-Pin_1)*%
X97536000Y-66548000D02*
X97536000Y-68703000D01*
X101472000Y-68703000D02*
X104140000Y-66035000D01*
X97536000Y-68703000D02*
X101472000Y-68703000D01*
%TO.N,Net-(J5-Pin_1)*%
X99191000Y-78486000D02*
X104140000Y-78486000D01*
X97536000Y-79694500D02*
X97982500Y-79694500D01*
X97982500Y-79694500D02*
X99191000Y-78486000D01*
X97536000Y-79694500D02*
X97536000Y-81849500D01*
%TD*%
%TA.AperFunction,Conductor*%
%TO.N,GND*%
G36*
X105106539Y-61480185D02*
G01*
X105152294Y-61532989D01*
X105163500Y-61584500D01*
X105163500Y-64420018D01*
X105143815Y-64487057D01*
X105091011Y-64532812D01*
X105026898Y-64543376D01*
X104940011Y-64534500D01*
X103339998Y-64534500D01*
X103339981Y-64534501D01*
X103237203Y-64545000D01*
X103237200Y-64545001D01*
X103070668Y-64600185D01*
X103070663Y-64600187D01*
X102921342Y-64692289D01*
X102797289Y-64816342D01*
X102705187Y-64965663D01*
X102705186Y-64965666D01*
X102650001Y-65132203D01*
X102650001Y-65132204D01*
X102650000Y-65132204D01*
X102639500Y-65234983D01*
X102639500Y-66634901D01*
X102619815Y-66701940D01*
X102603180Y-66722582D01*
X101594726Y-67731039D01*
X101259584Y-68066181D01*
X101198261Y-68099666D01*
X101171903Y-68102500D01*
X98934348Y-68102500D01*
X98867309Y-68082815D01*
X98828809Y-68043597D01*
X98753712Y-67921844D01*
X98629656Y-67797788D01*
X98629655Y-67797787D01*
X98521438Y-67731039D01*
X98474713Y-67679091D01*
X98463490Y-67610129D01*
X98491334Y-67546046D01*
X98521438Y-67519961D01*
X98629656Y-67453212D01*
X98753712Y-67329156D01*
X98845814Y-67179834D01*
X98900999Y-67013297D01*
X98911500Y-66910509D01*
X98911499Y-66185492D01*
X98910439Y-66175120D01*
X98900999Y-66082703D01*
X98900998Y-66082700D01*
X98888251Y-66044232D01*
X98845814Y-65916166D01*
X98753712Y-65766844D01*
X98629656Y-65642788D01*
X98480334Y-65550686D01*
X98313797Y-65495501D01*
X98313795Y-65495500D01*
X98211010Y-65485000D01*
X96860998Y-65485000D01*
X96860981Y-65485001D01*
X96758203Y-65495500D01*
X96758200Y-65495501D01*
X96591668Y-65550685D01*
X96591659Y-65550689D01*
X96461547Y-65630942D01*
X96461542Y-65630946D01*
X96442344Y-65642788D01*
X96318288Y-65766844D01*
X96306446Y-65786042D01*
X96306442Y-65786047D01*
X96226189Y-65916159D01*
X96226186Y-65916166D01*
X96171001Y-66082703D01*
X96171001Y-66082704D01*
X96171000Y-66082704D01*
X96160500Y-66185483D01*
X96160500Y-66910501D01*
X96160501Y-66910519D01*
X96171000Y-67013296D01*
X96171001Y-67013299D01*
X96226185Y-67179831D01*
X96226186Y-67179834D01*
X96318288Y-67329156D01*
X96442344Y-67453212D01*
X96550562Y-67519961D01*
X96597286Y-67571909D01*
X96608509Y-67640872D01*
X96580665Y-67704954D01*
X96550562Y-67731039D01*
X96442342Y-67797789D01*
X96318289Y-67921842D01*
X96226187Y-68071163D01*
X96226186Y-68071166D01*
X96171001Y-68237703D01*
X96171001Y-68237704D01*
X96171000Y-68237704D01*
X96160500Y-68340483D01*
X96160500Y-69065501D01*
X96160501Y-69065519D01*
X96171000Y-69168296D01*
X96171001Y-69168299D01*
X96226185Y-69334831D01*
X96226187Y-69334836D01*
X96261069Y-69391388D01*
X96318288Y-69484156D01*
X96442344Y-69608212D01*
X96591666Y-69700314D01*
X96758203Y-69755499D01*
X96860991Y-69766000D01*
X98211008Y-69765999D01*
X98313797Y-69755499D01*
X98480334Y-69700314D01*
X98629656Y-69608212D01*
X98753712Y-69484156D01*
X98828809Y-69362402D01*
X98880757Y-69315679D01*
X98934348Y-69303500D01*
X101385331Y-69303500D01*
X101385347Y-69303501D01*
X101392943Y-69303501D01*
X101551054Y-69303501D01*
X101551057Y-69303501D01*
X101703785Y-69262577D01*
X101753904Y-69233639D01*
X101840716Y-69183520D01*
X101952520Y-69071716D01*
X101952520Y-69071714D01*
X101962728Y-69061507D01*
X101962729Y-69061504D01*
X102427820Y-68596414D01*
X102489142Y-68562930D01*
X102558834Y-68567914D01*
X102614767Y-68609786D01*
X102639184Y-68675250D01*
X102639500Y-68684096D01*
X102639500Y-68693097D01*
X102676446Y-68926368D01*
X102749433Y-69150996D01*
X102843104Y-69334834D01*
X102856657Y-69361433D01*
X102995483Y-69552510D01*
X103162490Y-69719517D01*
X103353567Y-69858343D01*
X103452991Y-69909002D01*
X103564003Y-69965566D01*
X103564005Y-69965566D01*
X103564008Y-69965568D01*
X103684412Y-70004689D01*
X103788631Y-70038553D01*
X104021903Y-70075500D01*
X104021908Y-70075500D01*
X104258097Y-70075500D01*
X104491368Y-70038553D01*
X104715992Y-69965568D01*
X104926433Y-69858343D01*
X104966614Y-69829149D01*
X105032420Y-69805669D01*
X105100474Y-69821494D01*
X105149169Y-69871599D01*
X105163500Y-69929467D01*
X105163500Y-76871018D01*
X105143815Y-76938057D01*
X105091011Y-76983812D01*
X105026898Y-76994376D01*
X104940011Y-76985500D01*
X103339998Y-76985500D01*
X103339981Y-76985501D01*
X103237203Y-76996000D01*
X103237200Y-76996001D01*
X103070668Y-77051185D01*
X103070663Y-77051187D01*
X102921342Y-77143289D01*
X102797289Y-77267342D01*
X102705187Y-77416663D01*
X102705186Y-77416666D01*
X102650001Y-77583203D01*
X102650001Y-77583204D01*
X102650000Y-77583204D01*
X102639500Y-77685983D01*
X102639500Y-77761500D01*
X102619815Y-77828539D01*
X102567011Y-77874294D01*
X102515500Y-77885500D01*
X99270057Y-77885500D01*
X99111943Y-77885500D01*
X98959215Y-77926423D01*
X98959214Y-77926423D01*
X98959212Y-77926424D01*
X98959209Y-77926425D01*
X98909096Y-77955359D01*
X98909095Y-77955360D01*
X98865689Y-77980420D01*
X98822285Y-78005479D01*
X98822282Y-78005481D01*
X98710478Y-78117286D01*
X98232582Y-78595181D01*
X98171259Y-78628666D01*
X98144901Y-78631500D01*
X96860998Y-78631500D01*
X96860981Y-78631501D01*
X96758203Y-78642000D01*
X96758196Y-78642002D01*
X96733128Y-78650309D01*
X96663299Y-78652710D01*
X96603258Y-78616978D01*
X96572066Y-78554457D01*
X96579627Y-78484998D01*
X96606441Y-78444925D01*
X97182549Y-77868818D01*
X97243872Y-77835333D01*
X97270230Y-77832499D01*
X98211002Y-77832499D01*
X98211008Y-77832499D01*
X98313797Y-77821999D01*
X98480334Y-77766814D01*
X98629656Y-77674712D01*
X98753712Y-77550656D01*
X98845814Y-77401334D01*
X98900999Y-77234797D01*
X98911500Y-77132009D01*
X98911499Y-76406992D01*
X98900999Y-76304203D01*
X98845814Y-76137666D01*
X98753712Y-75988344D01*
X98629656Y-75864288D01*
X98480334Y-75772186D01*
X98313797Y-75717001D01*
X98313795Y-75717000D01*
X98211010Y-75706500D01*
X96860998Y-75706500D01*
X96860981Y-75706501D01*
X96758203Y-75717000D01*
X96758200Y-75717001D01*
X96591668Y-75772185D01*
X96591663Y-75772187D01*
X96442342Y-75864289D01*
X96318289Y-75988342D01*
X96226187Y-76137663D01*
X96226186Y-76137666D01*
X96171001Y-76304203D01*
X96171001Y-76304204D01*
X96171000Y-76304204D01*
X96160500Y-76406983D01*
X96160500Y-76716769D01*
X96140815Y-76783808D01*
X96124181Y-76804450D01*
X93633740Y-79294891D01*
X93572417Y-79328376D01*
X93502725Y-79323392D01*
X93446792Y-79281520D01*
X93423586Y-79226607D01*
X93411553Y-79150631D01*
X93338566Y-78926003D01*
X93231342Y-78715566D01*
X93217988Y-78697186D01*
X93092517Y-78524490D01*
X93092508Y-78524481D01*
X93089353Y-78520786D01*
X93091134Y-78519264D01*
X93062273Y-78466408D01*
X93067257Y-78396716D01*
X93109129Y-78340783D01*
X93118334Y-78334516D01*
X93166656Y-78304712D01*
X93290712Y-78180656D01*
X93382814Y-78031334D01*
X93437999Y-77864797D01*
X93448500Y-77762009D01*
X93448499Y-76161992D01*
X93437999Y-76059203D01*
X93382814Y-75892666D01*
X93290712Y-75743344D01*
X93166656Y-75619288D01*
X93017334Y-75527186D01*
X92850797Y-75472001D01*
X92850795Y-75472000D01*
X92748010Y-75461500D01*
X91147998Y-75461500D01*
X91147981Y-75461501D01*
X91045203Y-75472000D01*
X91045200Y-75472001D01*
X90878668Y-75527185D01*
X90878663Y-75527187D01*
X90729342Y-75619289D01*
X90605289Y-75743342D01*
X90513187Y-75892663D01*
X90513186Y-75892666D01*
X90458001Y-76059203D01*
X90458001Y-76059204D01*
X90458000Y-76059204D01*
X90447500Y-76161983D01*
X90447500Y-77762001D01*
X90447501Y-77762018D01*
X90458000Y-77864796D01*
X90458001Y-77864799D01*
X90488011Y-77955361D01*
X90513186Y-78031334D01*
X90605288Y-78180656D01*
X90729344Y-78304712D01*
X90771102Y-78330468D01*
X90777656Y-78334511D01*
X90824381Y-78386459D01*
X90835604Y-78455421D01*
X90807760Y-78519504D01*
X90806615Y-78520759D01*
X90806647Y-78520786D01*
X90803485Y-78524487D01*
X90803483Y-78524490D01*
X90781711Y-78554457D01*
X90664657Y-78715566D01*
X90557433Y-78926003D01*
X90484446Y-79150631D01*
X90447500Y-79383902D01*
X90447500Y-79620097D01*
X90484446Y-79853368D01*
X90557433Y-80077996D01*
X90664657Y-80288433D01*
X90803483Y-80479510D01*
X90970490Y-80646517D01*
X91005127Y-80671683D01*
X91047792Y-80727013D01*
X91053771Y-80796626D01*
X91021165Y-80858421D01*
X91005130Y-80872315D01*
X90987365Y-80885222D01*
X90970488Y-80897484D01*
X90803485Y-81064487D01*
X90803485Y-81064488D01*
X90803483Y-81064490D01*
X90800683Y-81068344D01*
X90664657Y-81255566D01*
X90557433Y-81466003D01*
X90484446Y-81690631D01*
X90447500Y-81923902D01*
X90447500Y-82160097D01*
X90484446Y-82393368D01*
X90557433Y-82617996D01*
X90612763Y-82726586D01*
X90664657Y-82828433D01*
X90803483Y-83019510D01*
X90970490Y-83186517D01*
X91029716Y-83229547D01*
X91072381Y-83284875D01*
X91080448Y-83339593D01*
X91078893Y-83359340D01*
X91736941Y-84017387D01*
X91716409Y-84022889D01*
X91579592Y-84101881D01*
X91467881Y-84213592D01*
X91388889Y-84350409D01*
X91383387Y-84370941D01*
X90725340Y-83712894D01*
X90665084Y-83795830D01*
X90557897Y-84006197D01*
X90484934Y-84230752D01*
X90448000Y-84463947D01*
X90448000Y-84700052D01*
X90484934Y-84933247D01*
X90557897Y-85157802D01*
X90665087Y-85368174D01*
X90725338Y-85451104D01*
X90725340Y-85451105D01*
X91383387Y-84793058D01*
X91388889Y-84813591D01*
X91467881Y-84950408D01*
X91579592Y-85062119D01*
X91716409Y-85141111D01*
X91736940Y-85146612D01*
X91078893Y-85804658D01*
X91161828Y-85864914D01*
X91372197Y-85972102D01*
X91596752Y-86045065D01*
X91596751Y-86045065D01*
X91829948Y-86082000D01*
X92066052Y-86082000D01*
X92299247Y-86045065D01*
X92523802Y-85972102D01*
X92734163Y-85864918D01*
X92734169Y-85864914D01*
X92817104Y-85804658D01*
X92817105Y-85804658D01*
X92159058Y-85146612D01*
X92179591Y-85141111D01*
X92316408Y-85062119D01*
X92428119Y-84950408D01*
X92507111Y-84813591D01*
X92512612Y-84793059D01*
X93170658Y-85451105D01*
X93170658Y-85451104D01*
X93230914Y-85368169D01*
X93230918Y-85368163D01*
X93338102Y-85157802D01*
X93344866Y-85136986D01*
X96161001Y-85136986D01*
X96171494Y-85239697D01*
X96226641Y-85406119D01*
X96226643Y-85406124D01*
X96318684Y-85555345D01*
X96442654Y-85679315D01*
X96591875Y-85771356D01*
X96591880Y-85771358D01*
X96758302Y-85826505D01*
X96758309Y-85826506D01*
X96861019Y-85836999D01*
X97285999Y-85836999D01*
X97786000Y-85836999D01*
X98210972Y-85836999D01*
X98210986Y-85836998D01*
X98313697Y-85826505D01*
X98480119Y-85771358D01*
X98480124Y-85771356D01*
X98629345Y-85679315D01*
X98753315Y-85555345D01*
X98845356Y-85406124D01*
X98845358Y-85406119D01*
X98900505Y-85239697D01*
X98900506Y-85239690D01*
X98910999Y-85136986D01*
X98911000Y-85136973D01*
X98911000Y-85024500D01*
X97786000Y-85024500D01*
X97786000Y-85836999D01*
X97285999Y-85836999D01*
X97286000Y-85836998D01*
X97286000Y-85024500D01*
X96161001Y-85024500D01*
X96161001Y-85136986D01*
X93344866Y-85136986D01*
X93410555Y-84934820D01*
X93411065Y-84933249D01*
X93411065Y-84933248D01*
X93448000Y-84700052D01*
X93448000Y-84463947D01*
X93442348Y-84428262D01*
X93439774Y-84412013D01*
X96161000Y-84412013D01*
X96161000Y-84524500D01*
X97286000Y-84524500D01*
X97786000Y-84524500D01*
X98910999Y-84524500D01*
X98910999Y-84412028D01*
X98910998Y-84412013D01*
X98900505Y-84309302D01*
X98845358Y-84142880D01*
X98845356Y-84142875D01*
X98753315Y-83993654D01*
X98629345Y-83869684D01*
X98480124Y-83777643D01*
X98480119Y-83777641D01*
X98313697Y-83722494D01*
X98313690Y-83722493D01*
X98210986Y-83712000D01*
X97786000Y-83712000D01*
X97786000Y-84524500D01*
X97286000Y-84524500D01*
X97286000Y-83712000D01*
X96861028Y-83712000D01*
X96861012Y-83712001D01*
X96758302Y-83722494D01*
X96591880Y-83777641D01*
X96591875Y-83777643D01*
X96442654Y-83869684D01*
X96318684Y-83993654D01*
X96226643Y-84142875D01*
X96226641Y-84142880D01*
X96171494Y-84309302D01*
X96171493Y-84309309D01*
X96161000Y-84412013D01*
X93439774Y-84412013D01*
X93411065Y-84230752D01*
X93338102Y-84006197D01*
X93230914Y-83795828D01*
X93170658Y-83712894D01*
X93170658Y-83712893D01*
X92512612Y-84370940D01*
X92507111Y-84350409D01*
X92428119Y-84213592D01*
X92316408Y-84101881D01*
X92179591Y-84022889D01*
X92159059Y-84017387D01*
X92817105Y-83359340D01*
X92815551Y-83339594D01*
X92829915Y-83271216D01*
X92866284Y-83229547D01*
X92925510Y-83186517D01*
X93092517Y-83019510D01*
X93231343Y-82828433D01*
X93338568Y-82617992D01*
X93411553Y-82393368D01*
X93423997Y-82314799D01*
X93448500Y-82160097D01*
X93448500Y-81923902D01*
X93414488Y-81709165D01*
X93423442Y-81639872D01*
X93449277Y-81602089D01*
X95973925Y-79077441D01*
X96035246Y-79043958D01*
X96104938Y-79048942D01*
X96160871Y-79090814D01*
X96185288Y-79156278D01*
X96179310Y-79204127D01*
X96171001Y-79229200D01*
X96171000Y-79229204D01*
X96160500Y-79331983D01*
X96160500Y-80057001D01*
X96160501Y-80057019D01*
X96171000Y-80159796D01*
X96171001Y-80159799D01*
X96197434Y-80239566D01*
X96226186Y-80326334D01*
X96318288Y-80475656D01*
X96442344Y-80599712D01*
X96550562Y-80666461D01*
X96597286Y-80718409D01*
X96608509Y-80787372D01*
X96580665Y-80851454D01*
X96550562Y-80877539D01*
X96442342Y-80944289D01*
X96318289Y-81068342D01*
X96226187Y-81217663D01*
X96226186Y-81217666D01*
X96171001Y-81384203D01*
X96171001Y-81384204D01*
X96171000Y-81384204D01*
X96160500Y-81486983D01*
X96160500Y-82212001D01*
X96160501Y-82212019D01*
X96171000Y-82314796D01*
X96171001Y-82314799D01*
X96226185Y-82481331D01*
X96226187Y-82481336D01*
X96244586Y-82511165D01*
X96318288Y-82630656D01*
X96442344Y-82754712D01*
X96591666Y-82846814D01*
X96758203Y-82901999D01*
X96860991Y-82912500D01*
X98211008Y-82912499D01*
X98313797Y-82901999D01*
X98480334Y-82846814D01*
X98629656Y-82754712D01*
X98753712Y-82630656D01*
X98845814Y-82481334D01*
X98900999Y-82314797D01*
X98911500Y-82212009D01*
X98911499Y-81486992D01*
X98909355Y-81466008D01*
X98900999Y-81384203D01*
X98900998Y-81384200D01*
X98858373Y-81255567D01*
X98845814Y-81217666D01*
X98753712Y-81068344D01*
X98629656Y-80944288D01*
X98629655Y-80944287D01*
X98521438Y-80877539D01*
X98474713Y-80825591D01*
X98463490Y-80756629D01*
X98491334Y-80692546D01*
X98521438Y-80666461D01*
X98629656Y-80599712D01*
X98753712Y-80475656D01*
X98845814Y-80326334D01*
X98900999Y-80159797D01*
X98911500Y-80057009D01*
X98911499Y-79666095D01*
X98931183Y-79599057D01*
X98947813Y-79578420D01*
X99403416Y-79122819D01*
X99464739Y-79089334D01*
X99491097Y-79086500D01*
X102515501Y-79086500D01*
X102582540Y-79106185D01*
X102628295Y-79158989D01*
X102639501Y-79210500D01*
X102639501Y-79286018D01*
X102650000Y-79388796D01*
X102650001Y-79388799D01*
X102680266Y-79480132D01*
X102705186Y-79555334D01*
X102797288Y-79704656D01*
X102921344Y-79828712D01*
X102961318Y-79853368D01*
X102969656Y-79858511D01*
X103016381Y-79910459D01*
X103027604Y-79979421D01*
X102999760Y-80043504D01*
X102998615Y-80044759D01*
X102998647Y-80044786D01*
X102995485Y-80048487D01*
X102995483Y-80048490D01*
X102974046Y-80077996D01*
X102856657Y-80239566D01*
X102749433Y-80450003D01*
X102676446Y-80674631D01*
X102639500Y-80907902D01*
X102639500Y-81144097D01*
X102676446Y-81377368D01*
X102749433Y-81601996D01*
X102794596Y-81690632D01*
X102856657Y-81812433D01*
X102995483Y-82003510D01*
X103162490Y-82170517D01*
X103353567Y-82309343D01*
X103446045Y-82356463D01*
X103564003Y-82416566D01*
X103564005Y-82416566D01*
X103564008Y-82416568D01*
X103684412Y-82455689D01*
X103788631Y-82489553D01*
X104021903Y-82526500D01*
X104021908Y-82526500D01*
X104258097Y-82526500D01*
X104491368Y-82489553D01*
X104516663Y-82481334D01*
X104715992Y-82416568D01*
X104926433Y-82309343D01*
X104966614Y-82280149D01*
X105032420Y-82256669D01*
X105100474Y-82272494D01*
X105149169Y-82322599D01*
X105163500Y-82380467D01*
X105163500Y-107071500D01*
X105143815Y-107138539D01*
X105091011Y-107184294D01*
X105039500Y-107195500D01*
X76316500Y-107195500D01*
X76249461Y-107175815D01*
X76203706Y-107123011D01*
X76192500Y-107071500D01*
X76192500Y-105202986D01*
X83207001Y-105202986D01*
X83217494Y-105305697D01*
X83272641Y-105472119D01*
X83272643Y-105472124D01*
X83364684Y-105621345D01*
X83488654Y-105745315D01*
X83637875Y-105837356D01*
X83637880Y-105837358D01*
X83804302Y-105892505D01*
X83804309Y-105892506D01*
X83907019Y-105902999D01*
X84331999Y-105902999D01*
X84832000Y-105902999D01*
X85256972Y-105902999D01*
X85256986Y-105902998D01*
X85359697Y-105892505D01*
X85526119Y-105837358D01*
X85526124Y-105837356D01*
X85675345Y-105745315D01*
X85799315Y-105621345D01*
X85891356Y-105472124D01*
X85891358Y-105472119D01*
X85946505Y-105305697D01*
X85946506Y-105305690D01*
X85956999Y-105202986D01*
X85957000Y-105202973D01*
X85957000Y-105090500D01*
X84832000Y-105090500D01*
X84832000Y-105902999D01*
X84331999Y-105902999D01*
X84332000Y-105902998D01*
X84332000Y-105090500D01*
X83207001Y-105090500D01*
X83207001Y-105202986D01*
X76192500Y-105202986D01*
X76192500Y-104478013D01*
X83207000Y-104478013D01*
X83207000Y-104590500D01*
X84332000Y-104590500D01*
X84832000Y-104590500D01*
X85956999Y-104590500D01*
X85956999Y-104478028D01*
X85956998Y-104478013D01*
X85946505Y-104375302D01*
X85891358Y-104208880D01*
X85891356Y-104208875D01*
X85799315Y-104059654D01*
X85675345Y-103935684D01*
X85526124Y-103843643D01*
X85526119Y-103843641D01*
X85359697Y-103788494D01*
X85359690Y-103788493D01*
X85256986Y-103778000D01*
X84832000Y-103778000D01*
X84832000Y-104590500D01*
X84332000Y-104590500D01*
X84332000Y-103778000D01*
X83907028Y-103778000D01*
X83907012Y-103778001D01*
X83804302Y-103788494D01*
X83637880Y-103843641D01*
X83637875Y-103843643D01*
X83488654Y-103935684D01*
X83364684Y-104059654D01*
X83272643Y-104208875D01*
X83272641Y-104208880D01*
X83217494Y-104375302D01*
X83217493Y-104375309D01*
X83207000Y-104478013D01*
X76192500Y-104478013D01*
X76192500Y-98127983D01*
X83206500Y-98127983D01*
X83206500Y-98853001D01*
X83206501Y-98853019D01*
X83217000Y-98955796D01*
X83217001Y-98955799D01*
X83272185Y-99122331D01*
X83272186Y-99122334D01*
X83364288Y-99271656D01*
X83488344Y-99395712D01*
X83637666Y-99487814D01*
X83746505Y-99523879D01*
X83803949Y-99563652D01*
X83830772Y-99628167D01*
X83831500Y-99641585D01*
X83831500Y-100764414D01*
X83811815Y-100831453D01*
X83759011Y-100877208D01*
X83746505Y-100882120D01*
X83637666Y-100918186D01*
X83637663Y-100918187D01*
X83488342Y-101010289D01*
X83364289Y-101134342D01*
X83272187Y-101283663D01*
X83272186Y-101283666D01*
X83217001Y-101450203D01*
X83217001Y-101450204D01*
X83217000Y-101450204D01*
X83206500Y-101552983D01*
X83206500Y-102278001D01*
X83206501Y-102278019D01*
X83217000Y-102380796D01*
X83217001Y-102380799D01*
X83272185Y-102547331D01*
X83272186Y-102547334D01*
X83364288Y-102696656D01*
X83488344Y-102820712D01*
X83637666Y-102912814D01*
X83804203Y-102967999D01*
X83906991Y-102978500D01*
X85257008Y-102978499D01*
X85359797Y-102967999D01*
X85526334Y-102912814D01*
X85675656Y-102820712D01*
X85799712Y-102696656D01*
X85891814Y-102547334D01*
X85946999Y-102380797D01*
X85957500Y-102278009D01*
X85957499Y-101552992D01*
X85946999Y-101450203D01*
X85891814Y-101283666D01*
X85799712Y-101134344D01*
X85675656Y-101010288D01*
X85526334Y-100918186D01*
X85465301Y-100897961D01*
X85417495Y-100882120D01*
X85360050Y-100842347D01*
X85333228Y-100777831D01*
X85332500Y-100764414D01*
X85332500Y-99641585D01*
X85352185Y-99574546D01*
X85404989Y-99528791D01*
X85417489Y-99523881D01*
X85526334Y-99487814D01*
X85675656Y-99395712D01*
X85794049Y-99277319D01*
X85855372Y-99243834D01*
X85881730Y-99241000D01*
X86203296Y-99241000D01*
X86270335Y-99260685D01*
X86290977Y-99277319D01*
X86405072Y-99391414D01*
X86545212Y-99493232D01*
X86699555Y-99571873D01*
X86864299Y-99625402D01*
X87035389Y-99652500D01*
X87035390Y-99652500D01*
X87208610Y-99652500D01*
X87208611Y-99652500D01*
X87379701Y-99625402D01*
X87544445Y-99571873D01*
X87698788Y-99493232D01*
X87838928Y-99391414D01*
X87961414Y-99268928D01*
X88063232Y-99128788D01*
X88141873Y-98974445D01*
X88195402Y-98809701D01*
X88222500Y-98638611D01*
X88222500Y-98465389D01*
X88195402Y-98294299D01*
X88141873Y-98129555D01*
X88063232Y-97975212D01*
X87961414Y-97835072D01*
X87838928Y-97712586D01*
X87698788Y-97610768D01*
X87544445Y-97532127D01*
X87379701Y-97478598D01*
X87379699Y-97478597D01*
X87379698Y-97478597D01*
X87248271Y-97457781D01*
X87208611Y-97451500D01*
X87035389Y-97451500D01*
X86995728Y-97457781D01*
X86864302Y-97478597D01*
X86699552Y-97532128D01*
X86545211Y-97610768D01*
X86471135Y-97664587D01*
X86405072Y-97712586D01*
X86405069Y-97712588D01*
X86401131Y-97715450D01*
X86399928Y-97713795D01*
X86344017Y-97738858D01*
X86327229Y-97740000D01*
X85881730Y-97740000D01*
X85814691Y-97720315D01*
X85794049Y-97703681D01*
X85675657Y-97585289D01*
X85675656Y-97585288D01*
X85526334Y-97493186D01*
X85359797Y-97438001D01*
X85359795Y-97438000D01*
X85257010Y-97427500D01*
X83906998Y-97427500D01*
X83906981Y-97427501D01*
X83804203Y-97438000D01*
X83804200Y-97438001D01*
X83637668Y-97493185D01*
X83637663Y-97493187D01*
X83488342Y-97585289D01*
X83364289Y-97709342D01*
X83272187Y-97858663D01*
X83272186Y-97858666D01*
X83217001Y-98025203D01*
X83217001Y-98025204D01*
X83217000Y-98025204D01*
X83206500Y-98127983D01*
X76192500Y-98127983D01*
X76192500Y-86434853D01*
X76212185Y-86367814D01*
X76264989Y-86322059D01*
X76316500Y-86310853D01*
X83729800Y-86310853D01*
X83796839Y-86330538D01*
X83842594Y-86383342D01*
X83853800Y-86434853D01*
X83853800Y-87583168D01*
X83834115Y-87650207D01*
X83802686Y-87683486D01*
X83626788Y-87811284D01*
X83459785Y-87978287D01*
X83459785Y-87978288D01*
X83459783Y-87978290D01*
X83400162Y-88060350D01*
X83320957Y-88169366D01*
X83213733Y-88379803D01*
X83140746Y-88604431D01*
X83103800Y-88837702D01*
X83103800Y-89073897D01*
X83137811Y-89288632D01*
X83128857Y-89357925D01*
X83103019Y-89395711D01*
X82570349Y-89928381D01*
X82521112Y-90002071D01*
X82488221Y-90051296D01*
X82488214Y-90051308D01*
X82431642Y-90187886D01*
X82431640Y-90187892D01*
X82402800Y-90332879D01*
X82402800Y-90332882D01*
X82402800Y-94210718D01*
X82402800Y-94210720D01*
X82402799Y-94210720D01*
X82431640Y-94355707D01*
X82431643Y-94355717D01*
X82488212Y-94492288D01*
X82488216Y-94492295D01*
X82508063Y-94521998D01*
X82508064Y-94522001D01*
X82508065Y-94522001D01*
X82544938Y-94577187D01*
X82570351Y-94615220D01*
X82570352Y-94615221D01*
X83170181Y-95215049D01*
X83203666Y-95276372D01*
X83206500Y-95302730D01*
X83206500Y-95928001D01*
X83206501Y-95928019D01*
X83217000Y-96030796D01*
X83217001Y-96030799D01*
X83233566Y-96080788D01*
X83272186Y-96197334D01*
X83364288Y-96346656D01*
X83488344Y-96470712D01*
X83637666Y-96562814D01*
X83804203Y-96617999D01*
X83906991Y-96628500D01*
X85257008Y-96628499D01*
X85359797Y-96617999D01*
X85526334Y-96562814D01*
X85675656Y-96470712D01*
X85794049Y-96352319D01*
X85855372Y-96318834D01*
X85881730Y-96316000D01*
X86327229Y-96316000D01*
X86394268Y-96335685D01*
X86401020Y-96340702D01*
X86401131Y-96340550D01*
X86405069Y-96343411D01*
X86405072Y-96343414D01*
X86545212Y-96445232D01*
X86699555Y-96523873D01*
X86864299Y-96577402D01*
X87035389Y-96604500D01*
X87035390Y-96604500D01*
X87208610Y-96604500D01*
X87208611Y-96604500D01*
X87379701Y-96577402D01*
X87544445Y-96523873D01*
X87698788Y-96445232D01*
X87838928Y-96343414D01*
X87961414Y-96220928D01*
X88063232Y-96080788D01*
X88141873Y-95926445D01*
X88195402Y-95761701D01*
X88222500Y-95590611D01*
X88222500Y-95417389D01*
X88195402Y-95246299D01*
X88184252Y-95211983D01*
X90193500Y-95211983D01*
X90193500Y-96812001D01*
X90193501Y-96812018D01*
X90204000Y-96914796D01*
X90204001Y-96914799D01*
X90259185Y-97081331D01*
X90259186Y-97081334D01*
X90351288Y-97230656D01*
X90475344Y-97354712D01*
X90517102Y-97380468D01*
X90523656Y-97384511D01*
X90570381Y-97436459D01*
X90581604Y-97505421D01*
X90553760Y-97569504D01*
X90552615Y-97570759D01*
X90552647Y-97570786D01*
X90549485Y-97574487D01*
X90549483Y-97574490D01*
X90489862Y-97656550D01*
X90410657Y-97765566D01*
X90303433Y-97976003D01*
X90230446Y-98200631D01*
X90193500Y-98433902D01*
X90193500Y-98670097D01*
X90230446Y-98903368D01*
X90303433Y-99127996D01*
X90361012Y-99241000D01*
X90410657Y-99338433D01*
X90549483Y-99529510D01*
X90716490Y-99696517D01*
X90751127Y-99721683D01*
X90793792Y-99777013D01*
X90799771Y-99846626D01*
X90767165Y-99908421D01*
X90751130Y-99922315D01*
X90733365Y-99935222D01*
X90716488Y-99947484D01*
X90549485Y-100114487D01*
X90549485Y-100114488D01*
X90549483Y-100114490D01*
X90489862Y-100196550D01*
X90410657Y-100305566D01*
X90303433Y-100516003D01*
X90230446Y-100740631D01*
X90193500Y-100973902D01*
X90193500Y-101210097D01*
X90230446Y-101443368D01*
X90303433Y-101667996D01*
X90410657Y-101878433D01*
X90549483Y-102069510D01*
X90716490Y-102236517D01*
X90775716Y-102279547D01*
X90818381Y-102334875D01*
X90826448Y-102389593D01*
X90824893Y-102409340D01*
X91482941Y-103067387D01*
X91462409Y-103072889D01*
X91325592Y-103151881D01*
X91213881Y-103263592D01*
X91134889Y-103400409D01*
X91129387Y-103420941D01*
X90471340Y-102762894D01*
X90411084Y-102845830D01*
X90303897Y-103056197D01*
X90230934Y-103280752D01*
X90194000Y-103513947D01*
X90194000Y-103750052D01*
X90230934Y-103983247D01*
X90303897Y-104207802D01*
X90411087Y-104418174D01*
X90471338Y-104501104D01*
X90471340Y-104501105D01*
X91129387Y-103843058D01*
X91134889Y-103863591D01*
X91213881Y-104000408D01*
X91325592Y-104112119D01*
X91462409Y-104191111D01*
X91482940Y-104196612D01*
X90824893Y-104854658D01*
X90907828Y-104914914D01*
X91118197Y-105022102D01*
X91342752Y-105095065D01*
X91342751Y-105095065D01*
X91575948Y-105132000D01*
X91812052Y-105132000D01*
X92045247Y-105095065D01*
X92269802Y-105022102D01*
X92480163Y-104914918D01*
X92480169Y-104914914D01*
X92563104Y-104854658D01*
X92563105Y-104854658D01*
X92560500Y-104852053D01*
X96965000Y-104852053D01*
X103709000Y-104852053D01*
X103709000Y-94792855D01*
X96965000Y-94792855D01*
X96965000Y-104852053D01*
X92560500Y-104852053D01*
X91905058Y-104196612D01*
X91925591Y-104191111D01*
X92062408Y-104112119D01*
X92174119Y-104000408D01*
X92253111Y-103863591D01*
X92258612Y-103843059D01*
X92916658Y-104501105D01*
X92916658Y-104501104D01*
X92976914Y-104418169D01*
X92976918Y-104418163D01*
X93084102Y-104207802D01*
X93157065Y-103983247D01*
X93194000Y-103750052D01*
X93194000Y-103513947D01*
X93157065Y-103280752D01*
X93084102Y-103056197D01*
X92976914Y-102845828D01*
X92916658Y-102762894D01*
X92916658Y-102762893D01*
X92258612Y-103420940D01*
X92253111Y-103400409D01*
X92174119Y-103263592D01*
X92062408Y-103151881D01*
X91925591Y-103072889D01*
X91905059Y-103067387D01*
X92563105Y-102409340D01*
X92561551Y-102389594D01*
X92575915Y-102321216D01*
X92612284Y-102279547D01*
X92671510Y-102236517D01*
X92838517Y-102069510D01*
X92977343Y-101878433D01*
X93084568Y-101667992D01*
X93157553Y-101443368D01*
X93182847Y-101283668D01*
X93194500Y-101210097D01*
X93194500Y-100973902D01*
X93157553Y-100740631D01*
X93084566Y-100516003D01*
X92977342Y-100305566D01*
X92838517Y-100114490D01*
X92671510Y-99947483D01*
X92636872Y-99922317D01*
X92594207Y-99866989D01*
X92588228Y-99797375D01*
X92620833Y-99735580D01*
X92636873Y-99721682D01*
X92671510Y-99696517D01*
X92838517Y-99529510D01*
X92977343Y-99338433D01*
X93084568Y-99127992D01*
X93157553Y-98903368D01*
X93194500Y-98670097D01*
X93194500Y-98433902D01*
X93157553Y-98200631D01*
X93084566Y-97976003D01*
X93024778Y-97858663D01*
X92977343Y-97765567D01*
X92838517Y-97574490D01*
X92838508Y-97574481D01*
X92835353Y-97570786D01*
X92837134Y-97569264D01*
X92808273Y-97516408D01*
X92813257Y-97446716D01*
X92855129Y-97390783D01*
X92864334Y-97384516D01*
X92912656Y-97354712D01*
X93036712Y-97230656D01*
X93128814Y-97081334D01*
X93183999Y-96914797D01*
X93194500Y-96812009D01*
X93194499Y-95211992D01*
X93183999Y-95109203D01*
X93128814Y-94942666D01*
X93119282Y-94927212D01*
X93044882Y-94806589D01*
X93036712Y-94793344D01*
X92912657Y-94669289D01*
X92912656Y-94669288D01*
X92763334Y-94577186D01*
X92596797Y-94522001D01*
X92596795Y-94522000D01*
X92494010Y-94511500D01*
X90893998Y-94511500D01*
X90893981Y-94511501D01*
X90791203Y-94522000D01*
X90791200Y-94522001D01*
X90624668Y-94577185D01*
X90624663Y-94577187D01*
X90475342Y-94669289D01*
X90351289Y-94793342D01*
X90259187Y-94942663D01*
X90259186Y-94942666D01*
X90204001Y-95109203D01*
X90204001Y-95109204D01*
X90204000Y-95109204D01*
X90193500Y-95211983D01*
X88184252Y-95211983D01*
X88141873Y-95081555D01*
X88063232Y-94927212D01*
X87961414Y-94787072D01*
X87838928Y-94664586D01*
X87698788Y-94562768D01*
X87544445Y-94484127D01*
X87379701Y-94430598D01*
X87379699Y-94430597D01*
X87379698Y-94430597D01*
X87248271Y-94409781D01*
X87208611Y-94403500D01*
X87035389Y-94403500D01*
X86995728Y-94409781D01*
X86864302Y-94430597D01*
X86699552Y-94484128D01*
X86545211Y-94562768D01*
X86473024Y-94615216D01*
X86405072Y-94664586D01*
X86405070Y-94664588D01*
X86405069Y-94664588D01*
X86290977Y-94778681D01*
X86229654Y-94812166D01*
X86203296Y-94815000D01*
X85881730Y-94815000D01*
X85814691Y-94795315D01*
X85794049Y-94778681D01*
X85675657Y-94660289D01*
X85675656Y-94660288D01*
X85540927Y-94577187D01*
X85526336Y-94568187D01*
X85526331Y-94568185D01*
X85524862Y-94567698D01*
X85359797Y-94513001D01*
X85359795Y-94513000D01*
X85257016Y-94502500D01*
X85257009Y-94502500D01*
X84631730Y-94502500D01*
X84564691Y-94482815D01*
X84544049Y-94466181D01*
X83940119Y-93862251D01*
X83906634Y-93800928D01*
X83903800Y-93774570D01*
X83903800Y-93119799D01*
X83923485Y-93052760D01*
X83976289Y-93007005D01*
X84027800Y-92995799D01*
X84354300Y-92995799D01*
X84354300Y-92044282D01*
X84372709Y-92054911D01*
X84525309Y-92095800D01*
X84683291Y-92095800D01*
X84835891Y-92054911D01*
X84854300Y-92044282D01*
X84854300Y-92995799D01*
X85404272Y-92995799D01*
X85404286Y-92995798D01*
X85506997Y-92985305D01*
X85673419Y-92930158D01*
X85673424Y-92930156D01*
X85822645Y-92838115D01*
X85946615Y-92714145D01*
X86038656Y-92564924D01*
X86038658Y-92564919D01*
X86093805Y-92398497D01*
X86093806Y-92398490D01*
X86104299Y-92295786D01*
X86104300Y-92295773D01*
X86104300Y-91745800D01*
X85152782Y-91745800D01*
X85163411Y-91727391D01*
X85204300Y-91574791D01*
X85204300Y-91416809D01*
X85163411Y-91264209D01*
X85152782Y-91245800D01*
X86104299Y-91245800D01*
X86104299Y-90695828D01*
X86104298Y-90695813D01*
X86093805Y-90593102D01*
X86038658Y-90426680D01*
X86038656Y-90426675D01*
X85946615Y-90277454D01*
X85822644Y-90153483D01*
X85822640Y-90153480D01*
X85808414Y-90144705D01*
X85808413Y-90144705D01*
X85774280Y-90123652D01*
X85727555Y-90071705D01*
X85723052Y-90044038D01*
X90093500Y-90044038D01*
X90093500Y-90295961D01*
X90132910Y-90544785D01*
X90210760Y-90784383D01*
X90325132Y-91008848D01*
X90473201Y-91212649D01*
X90473205Y-91212654D01*
X90651345Y-91390794D01*
X90651350Y-91390798D01*
X90795874Y-91495800D01*
X90855155Y-91538870D01*
X90998184Y-91611747D01*
X91079616Y-91653239D01*
X91079618Y-91653239D01*
X91079621Y-91653241D01*
X91319215Y-91731090D01*
X91568038Y-91770500D01*
X91568039Y-91770500D01*
X91819961Y-91770500D01*
X91819962Y-91770500D01*
X92068785Y-91731090D01*
X92308379Y-91653241D01*
X92532845Y-91538870D01*
X92736656Y-91390793D01*
X92914793Y-91212656D01*
X93062870Y-91008845D01*
X93177241Y-90784379D01*
X93255090Y-90544785D01*
X93294500Y-90295962D01*
X93294500Y-90044038D01*
X93255090Y-89795215D01*
X93177241Y-89555621D01*
X93177239Y-89555618D01*
X93177239Y-89555616D01*
X93135747Y-89474184D01*
X93062870Y-89331155D01*
X93031975Y-89288632D01*
X92914798Y-89127350D01*
X92914794Y-89127345D01*
X92736654Y-88949205D01*
X92736649Y-88949201D01*
X92532848Y-88801132D01*
X92532847Y-88801131D01*
X92532845Y-88801130D01*
X92462747Y-88765413D01*
X92308383Y-88686760D01*
X92068785Y-88608910D01*
X92040506Y-88604431D01*
X91819962Y-88569500D01*
X91568038Y-88569500D01*
X91443626Y-88589205D01*
X91319214Y-88608910D01*
X91079616Y-88686760D01*
X90855151Y-88801132D01*
X90651350Y-88949201D01*
X90651345Y-88949205D01*
X90473205Y-89127345D01*
X90473201Y-89127350D01*
X90325132Y-89331151D01*
X90210760Y-89555616D01*
X90132910Y-89795214D01*
X90093500Y-90044038D01*
X85723052Y-90044038D01*
X85716332Y-90002742D01*
X85744175Y-89938660D01*
X85745662Y-89937033D01*
X85745648Y-89937021D01*
X85748811Y-89933316D01*
X85748817Y-89933310D01*
X85887643Y-89742233D01*
X85994868Y-89531792D01*
X86067853Y-89307168D01*
X86070789Y-89288632D01*
X86104800Y-89073897D01*
X86104800Y-88837702D01*
X86067853Y-88604431D01*
X85994866Y-88379803D01*
X85887642Y-88169366D01*
X85748817Y-87978290D01*
X85581810Y-87811283D01*
X85531179Y-87774497D01*
X85405914Y-87683486D01*
X85363249Y-87628155D01*
X85354800Y-87583168D01*
X85354800Y-84400904D01*
X85374485Y-84333865D01*
X85391119Y-84313223D01*
X85395040Y-84309302D01*
X85421414Y-84282928D01*
X85523232Y-84142788D01*
X85601873Y-83988445D01*
X85655402Y-83823701D01*
X85682500Y-83652611D01*
X85682500Y-83479389D01*
X85655402Y-83308299D01*
X85601873Y-83143555D01*
X85523232Y-82989212D01*
X85421414Y-82849072D01*
X85298928Y-82726586D01*
X85158788Y-82624768D01*
X85004445Y-82546127D01*
X84839701Y-82492598D01*
X84839699Y-82492597D01*
X84839698Y-82492597D01*
X84696903Y-82469981D01*
X84668611Y-82465500D01*
X84495389Y-82465500D01*
X84410551Y-82478937D01*
X84341257Y-82469981D01*
X84287806Y-82424984D01*
X84267167Y-82358232D01*
X84267154Y-82356463D01*
X84267154Y-76250855D01*
X76316500Y-76250855D01*
X76249461Y-76231170D01*
X76203706Y-76178366D01*
X76192500Y-76126855D01*
X76192500Y-73480853D01*
X76212185Y-73413814D01*
X76264989Y-73368059D01*
X76316500Y-73356853D01*
X84267154Y-73356853D01*
X84267154Y-63296855D01*
X76316500Y-63296855D01*
X76249461Y-63277170D01*
X76203706Y-63224366D01*
X76192500Y-63172855D01*
X76192500Y-63055583D01*
X90244300Y-63055583D01*
X90244300Y-64655601D01*
X90244301Y-64655618D01*
X90254800Y-64758396D01*
X90254801Y-64758399D01*
X90309985Y-64924931D01*
X90309987Y-64924936D01*
X90335111Y-64965668D01*
X90402088Y-65074256D01*
X90526144Y-65198312D01*
X90567902Y-65224068D01*
X90574456Y-65228111D01*
X90621181Y-65280059D01*
X90632404Y-65349021D01*
X90604560Y-65413104D01*
X90603415Y-65414359D01*
X90603447Y-65414386D01*
X90600285Y-65418087D01*
X90600283Y-65418090D01*
X90551670Y-65485000D01*
X90461457Y-65609166D01*
X90354233Y-65819603D01*
X90281246Y-66044231D01*
X90244300Y-66277502D01*
X90244300Y-66513697D01*
X90281246Y-66746968D01*
X90354233Y-66971596D01*
X90460335Y-67179831D01*
X90461457Y-67182033D01*
X90600283Y-67373110D01*
X90767290Y-67540117D01*
X90801927Y-67565283D01*
X90844592Y-67620613D01*
X90850571Y-67690226D01*
X90817965Y-67752021D01*
X90801930Y-67765915D01*
X90784165Y-67778822D01*
X90767288Y-67791084D01*
X90600285Y-67958087D01*
X90600285Y-67958088D01*
X90600283Y-67958090D01*
X90540662Y-68040150D01*
X90461457Y-68149166D01*
X90354233Y-68359603D01*
X90281246Y-68584231D01*
X90244300Y-68817502D01*
X90244300Y-69053697D01*
X90281246Y-69286968D01*
X90354233Y-69511596D01*
X90460175Y-69719517D01*
X90461457Y-69722033D01*
X90600283Y-69913110D01*
X90767290Y-70080117D01*
X90826516Y-70123147D01*
X90869181Y-70178475D01*
X90877248Y-70233193D01*
X90875693Y-70252940D01*
X91533741Y-70910987D01*
X91513209Y-70916489D01*
X91376392Y-70995481D01*
X91264681Y-71107192D01*
X91185689Y-71244009D01*
X91180187Y-71264541D01*
X90522140Y-70606494D01*
X90461884Y-70689430D01*
X90354697Y-70899797D01*
X90281734Y-71124352D01*
X90244800Y-71357547D01*
X90244800Y-71593652D01*
X90281734Y-71826847D01*
X90354697Y-72051402D01*
X90461887Y-72261774D01*
X90522138Y-72344704D01*
X90522140Y-72344705D01*
X91180187Y-71686658D01*
X91185689Y-71707191D01*
X91264681Y-71844008D01*
X91376392Y-71955719D01*
X91513209Y-72034711D01*
X91533740Y-72040212D01*
X90875693Y-72698258D01*
X90958628Y-72758514D01*
X91168997Y-72865702D01*
X91393552Y-72938665D01*
X91393551Y-72938665D01*
X91626748Y-72975600D01*
X91862852Y-72975600D01*
X92096047Y-72938665D01*
X92320602Y-72865702D01*
X92530963Y-72758518D01*
X92530969Y-72758514D01*
X92613904Y-72698258D01*
X92613905Y-72698258D01*
X91955858Y-72040212D01*
X91976391Y-72034711D01*
X92113208Y-71955719D01*
X92224919Y-71844008D01*
X92303911Y-71707191D01*
X92309412Y-71686659D01*
X92967458Y-72344705D01*
X92967458Y-72344704D01*
X93027714Y-72261769D01*
X93027718Y-72261763D01*
X93134902Y-72051402D01*
X93154695Y-71990486D01*
X96161001Y-71990486D01*
X96171494Y-72093197D01*
X96226641Y-72259619D01*
X96226643Y-72259624D01*
X96318684Y-72408845D01*
X96442654Y-72532815D01*
X96591875Y-72624856D01*
X96591880Y-72624858D01*
X96758302Y-72680005D01*
X96758309Y-72680006D01*
X96861019Y-72690499D01*
X97285999Y-72690499D01*
X97786000Y-72690499D01*
X98210972Y-72690499D01*
X98210986Y-72690498D01*
X98313697Y-72680005D01*
X98480119Y-72624858D01*
X98480124Y-72624856D01*
X98629345Y-72532815D01*
X98753315Y-72408845D01*
X98845356Y-72259624D01*
X98845358Y-72259619D01*
X98900505Y-72093197D01*
X98900506Y-72093190D01*
X98910999Y-71990486D01*
X98911000Y-71990473D01*
X98911000Y-71878000D01*
X97786000Y-71878000D01*
X97786000Y-72690499D01*
X97285999Y-72690499D01*
X97286000Y-72690498D01*
X97286000Y-71878000D01*
X96161001Y-71878000D01*
X96161001Y-71990486D01*
X93154695Y-71990486D01*
X93207863Y-71826853D01*
X93210970Y-71807241D01*
X93210971Y-71807238D01*
X93244800Y-71593652D01*
X93244800Y-71357546D01*
X93232797Y-71281761D01*
X93230223Y-71265513D01*
X96161000Y-71265513D01*
X96161000Y-71378000D01*
X97286000Y-71378000D01*
X97786000Y-71378000D01*
X98910999Y-71378000D01*
X98910999Y-71265528D01*
X98910998Y-71265513D01*
X98900505Y-71162802D01*
X98845358Y-70996380D01*
X98845356Y-70996375D01*
X98753315Y-70847154D01*
X98629345Y-70723184D01*
X98480124Y-70631143D01*
X98480119Y-70631141D01*
X98313697Y-70575994D01*
X98313690Y-70575993D01*
X98210986Y-70565500D01*
X97786000Y-70565500D01*
X97786000Y-71378000D01*
X97286000Y-71378000D01*
X97286000Y-70565500D01*
X96861028Y-70565500D01*
X96861012Y-70565501D01*
X96758302Y-70575994D01*
X96591880Y-70631141D01*
X96591875Y-70631143D01*
X96442654Y-70723184D01*
X96318684Y-70847154D01*
X96226643Y-70996375D01*
X96226641Y-70996380D01*
X96171494Y-71162802D01*
X96171493Y-71162809D01*
X96161000Y-71265513D01*
X93230223Y-71265513D01*
X93207865Y-71124352D01*
X93134902Y-70899797D01*
X93027714Y-70689428D01*
X92967458Y-70606494D01*
X92967458Y-70606493D01*
X92309412Y-71264540D01*
X92303911Y-71244009D01*
X92224919Y-71107192D01*
X92113208Y-70995481D01*
X91976391Y-70916489D01*
X91955859Y-70910987D01*
X92613905Y-70252940D01*
X92612351Y-70233194D01*
X92626715Y-70164816D01*
X92663084Y-70123147D01*
X92722310Y-70080117D01*
X92889317Y-69913110D01*
X93028143Y-69722033D01*
X93135368Y-69511592D01*
X93208353Y-69286968D01*
X93216799Y-69233642D01*
X93245300Y-69053697D01*
X93245300Y-68817502D01*
X93211288Y-68602765D01*
X93220242Y-68533472D01*
X93246077Y-68495689D01*
X97019449Y-64722318D01*
X97080772Y-64688833D01*
X97107130Y-64685999D01*
X98211002Y-64685999D01*
X98211008Y-64685999D01*
X98313797Y-64675499D01*
X98480334Y-64620314D01*
X98629656Y-64528212D01*
X98753712Y-64404156D01*
X98845814Y-64254834D01*
X98900999Y-64088297D01*
X98911500Y-63985509D01*
X98911499Y-63260492D01*
X98900999Y-63157703D01*
X98845814Y-62991166D01*
X98753712Y-62841844D01*
X98629656Y-62717788D01*
X98480334Y-62625686D01*
X98313797Y-62570501D01*
X98313795Y-62570500D01*
X98211010Y-62560000D01*
X96860998Y-62560000D01*
X96860981Y-62560001D01*
X96758203Y-62570500D01*
X96758200Y-62570501D01*
X96591668Y-62625685D01*
X96591663Y-62625687D01*
X96442342Y-62717789D01*
X96318289Y-62841842D01*
X96226187Y-62991163D01*
X96226186Y-62991166D01*
X96171001Y-63157703D01*
X96171001Y-63157704D01*
X96171000Y-63157704D01*
X96160500Y-63260483D01*
X96160500Y-63407169D01*
X96140815Y-63474208D01*
X96124181Y-63494850D01*
X93430540Y-66188491D01*
X93369217Y-66221976D01*
X93299525Y-66216992D01*
X93243592Y-66175120D01*
X93220386Y-66120207D01*
X93208353Y-66044231D01*
X93135366Y-65819603D01*
X93045274Y-65642789D01*
X93028143Y-65609167D01*
X92889317Y-65418090D01*
X92889308Y-65418081D01*
X92886153Y-65414386D01*
X92887934Y-65412864D01*
X92859073Y-65360008D01*
X92864057Y-65290316D01*
X92905929Y-65234383D01*
X92915134Y-65228116D01*
X92963456Y-65198312D01*
X93087512Y-65074256D01*
X93179614Y-64924934D01*
X93234799Y-64758397D01*
X93245300Y-64655609D01*
X93245299Y-63055592D01*
X93234799Y-62952803D01*
X93179614Y-62786266D01*
X93087512Y-62636944D01*
X92963456Y-62512888D01*
X92814134Y-62420786D01*
X92647597Y-62365601D01*
X92647595Y-62365600D01*
X92544810Y-62355100D01*
X90944798Y-62355100D01*
X90944781Y-62355101D01*
X90842003Y-62365600D01*
X90842000Y-62365601D01*
X90675468Y-62420785D01*
X90675463Y-62420787D01*
X90526142Y-62512889D01*
X90402089Y-62636942D01*
X90309987Y-62786263D01*
X90309986Y-62786266D01*
X90254801Y-62952803D01*
X90254801Y-62952804D01*
X90254800Y-62952804D01*
X90244300Y-63055583D01*
X76192500Y-63055583D01*
X76192500Y-61584500D01*
X76212185Y-61517461D01*
X76264989Y-61471706D01*
X76316500Y-61460500D01*
X105039500Y-61460500D01*
X105106539Y-61480185D01*
G37*
%TD.AperFunction*%
%TA.AperFunction,Conductor*%
G36*
X113284000Y-107195500D02*
G01*
X112384500Y-107195500D01*
X112317461Y-107175815D01*
X112271706Y-107123011D01*
X112260500Y-107071500D01*
X112260500Y-86434853D01*
X112280185Y-86367814D01*
X112332989Y-86322059D01*
X112384500Y-86310853D01*
X113284000Y-86310853D01*
X113284000Y-107195500D01*
G37*
%TD.AperFunction*%
%TA.AperFunction,Conductor*%
G36*
X113284000Y-76250855D02*
G01*
X112384500Y-76250855D01*
X112317461Y-76231170D01*
X112271706Y-76178366D01*
X112260500Y-76126855D01*
X112260500Y-73480853D01*
X112280185Y-73413814D01*
X112332989Y-73368059D01*
X112384500Y-73356853D01*
X113284000Y-73356853D01*
X113284000Y-76250855D01*
G37*
%TD.AperFunction*%
%TA.AperFunction,Conductor*%
G36*
X113284000Y-63296855D02*
G01*
X112384500Y-63296855D01*
X112317461Y-63277170D01*
X112271706Y-63224366D01*
X112260500Y-63172855D01*
X112260500Y-61584500D01*
X112280185Y-61517461D01*
X112332989Y-61471706D01*
X112384500Y-61460500D01*
X113284000Y-61460500D01*
X113284000Y-63296855D01*
G37*
%TD.AperFunction*%
%TD*%
%TA.AperFunction,Conductor*%
%TO.N,GND*%
G36*
X141174539Y-61480185D02*
G01*
X141220294Y-61532989D01*
X141231500Y-61584500D01*
X141231500Y-64420018D01*
X141211815Y-64487057D01*
X141159011Y-64532812D01*
X141094898Y-64543376D01*
X141008011Y-64534500D01*
X139407998Y-64534500D01*
X139407981Y-64534501D01*
X139305203Y-64545000D01*
X139305200Y-64545001D01*
X139138668Y-64600185D01*
X139138663Y-64600187D01*
X138989342Y-64692289D01*
X138865289Y-64816342D01*
X138773187Y-64965663D01*
X138773186Y-64965666D01*
X138718001Y-65132203D01*
X138718001Y-65132204D01*
X138718000Y-65132204D01*
X138707500Y-65234983D01*
X138707500Y-66634901D01*
X138687815Y-66701940D01*
X138671180Y-66722582D01*
X137662726Y-67731039D01*
X137327584Y-68066181D01*
X137266261Y-68099666D01*
X137239903Y-68102500D01*
X135002348Y-68102500D01*
X134935309Y-68082815D01*
X134896809Y-68043597D01*
X134821712Y-67921844D01*
X134697656Y-67797788D01*
X134697655Y-67797787D01*
X134589438Y-67731039D01*
X134542713Y-67679091D01*
X134531490Y-67610129D01*
X134559334Y-67546046D01*
X134589438Y-67519961D01*
X134697656Y-67453212D01*
X134821712Y-67329156D01*
X134913814Y-67179834D01*
X134968999Y-67013297D01*
X134979500Y-66910509D01*
X134979499Y-66185492D01*
X134978439Y-66175120D01*
X134968999Y-66082703D01*
X134968998Y-66082700D01*
X134956251Y-66044232D01*
X134913814Y-65916166D01*
X134821712Y-65766844D01*
X134697656Y-65642788D01*
X134548334Y-65550686D01*
X134381797Y-65495501D01*
X134381795Y-65495500D01*
X134279010Y-65485000D01*
X132928998Y-65485000D01*
X132928981Y-65485001D01*
X132826203Y-65495500D01*
X132826200Y-65495501D01*
X132659668Y-65550685D01*
X132659659Y-65550689D01*
X132529547Y-65630942D01*
X132529542Y-65630946D01*
X132510344Y-65642788D01*
X132386288Y-65766844D01*
X132374446Y-65786042D01*
X132374442Y-65786047D01*
X132294189Y-65916159D01*
X132294186Y-65916166D01*
X132239001Y-66082703D01*
X132239001Y-66082704D01*
X132239000Y-66082704D01*
X132228500Y-66185483D01*
X132228500Y-66910501D01*
X132228501Y-66910519D01*
X132239000Y-67013296D01*
X132239001Y-67013299D01*
X132294185Y-67179831D01*
X132294186Y-67179834D01*
X132386288Y-67329156D01*
X132510344Y-67453212D01*
X132618562Y-67519961D01*
X132665286Y-67571909D01*
X132676509Y-67640872D01*
X132648665Y-67704954D01*
X132618562Y-67731039D01*
X132510342Y-67797789D01*
X132386289Y-67921842D01*
X132294187Y-68071163D01*
X132294186Y-68071166D01*
X132239001Y-68237703D01*
X132239001Y-68237704D01*
X132239000Y-68237704D01*
X132228500Y-68340483D01*
X132228500Y-69065501D01*
X132228501Y-69065519D01*
X132239000Y-69168296D01*
X132239001Y-69168299D01*
X132294185Y-69334831D01*
X132294187Y-69334836D01*
X132329069Y-69391388D01*
X132386288Y-69484156D01*
X132510344Y-69608212D01*
X132659666Y-69700314D01*
X132826203Y-69755499D01*
X132928991Y-69766000D01*
X134279008Y-69765999D01*
X134381797Y-69755499D01*
X134548334Y-69700314D01*
X134697656Y-69608212D01*
X134821712Y-69484156D01*
X134896809Y-69362402D01*
X134948757Y-69315679D01*
X135002348Y-69303500D01*
X137453331Y-69303500D01*
X137453347Y-69303501D01*
X137460943Y-69303501D01*
X137619054Y-69303501D01*
X137619057Y-69303501D01*
X137771785Y-69262577D01*
X137821904Y-69233639D01*
X137908716Y-69183520D01*
X138020520Y-69071716D01*
X138020520Y-69071714D01*
X138030728Y-69061507D01*
X138030729Y-69061504D01*
X138495820Y-68596414D01*
X138557142Y-68562930D01*
X138626834Y-68567914D01*
X138682767Y-68609786D01*
X138707184Y-68675250D01*
X138707500Y-68684096D01*
X138707500Y-68693097D01*
X138744446Y-68926368D01*
X138817433Y-69150996D01*
X138911104Y-69334834D01*
X138924657Y-69361433D01*
X139063483Y-69552510D01*
X139230490Y-69719517D01*
X139421567Y-69858343D01*
X139520991Y-69909002D01*
X139632003Y-69965566D01*
X139632005Y-69965566D01*
X139632008Y-69965568D01*
X139752412Y-70004689D01*
X139856631Y-70038553D01*
X140089903Y-70075500D01*
X140089908Y-70075500D01*
X140326097Y-70075500D01*
X140559368Y-70038553D01*
X140783992Y-69965568D01*
X140994433Y-69858343D01*
X141034614Y-69829149D01*
X141100420Y-69805669D01*
X141168474Y-69821494D01*
X141217169Y-69871599D01*
X141231500Y-69929467D01*
X141231500Y-76871018D01*
X141211815Y-76938057D01*
X141159011Y-76983812D01*
X141094898Y-76994376D01*
X141008011Y-76985500D01*
X139407998Y-76985500D01*
X139407981Y-76985501D01*
X139305203Y-76996000D01*
X139305200Y-76996001D01*
X139138668Y-77051185D01*
X139138663Y-77051187D01*
X138989342Y-77143289D01*
X138865289Y-77267342D01*
X138773187Y-77416663D01*
X138773186Y-77416666D01*
X138718001Y-77583203D01*
X138718001Y-77583204D01*
X138718000Y-77583204D01*
X138707500Y-77685983D01*
X138707500Y-77761500D01*
X138687815Y-77828539D01*
X138635011Y-77874294D01*
X138583500Y-77885500D01*
X135338057Y-77885500D01*
X135179943Y-77885500D01*
X135027215Y-77926423D01*
X135027214Y-77926423D01*
X135027212Y-77926424D01*
X135027209Y-77926425D01*
X134977096Y-77955359D01*
X134977095Y-77955360D01*
X134933689Y-77980420D01*
X134890285Y-78005479D01*
X134890282Y-78005481D01*
X134778478Y-78117286D01*
X134300582Y-78595181D01*
X134239259Y-78628666D01*
X134212901Y-78631500D01*
X132928998Y-78631500D01*
X132928981Y-78631501D01*
X132826203Y-78642000D01*
X132826196Y-78642002D01*
X132801128Y-78650309D01*
X132731299Y-78652710D01*
X132671258Y-78616978D01*
X132640066Y-78554457D01*
X132647627Y-78484998D01*
X132674441Y-78444925D01*
X133250549Y-77868818D01*
X133311872Y-77835333D01*
X133338230Y-77832499D01*
X134279002Y-77832499D01*
X134279008Y-77832499D01*
X134381797Y-77821999D01*
X134548334Y-77766814D01*
X134697656Y-77674712D01*
X134821712Y-77550656D01*
X134913814Y-77401334D01*
X134968999Y-77234797D01*
X134979500Y-77132009D01*
X134979499Y-76406992D01*
X134968999Y-76304203D01*
X134913814Y-76137666D01*
X134821712Y-75988344D01*
X134697656Y-75864288D01*
X134548334Y-75772186D01*
X134381797Y-75717001D01*
X134381795Y-75717000D01*
X134279010Y-75706500D01*
X132928998Y-75706500D01*
X132928981Y-75706501D01*
X132826203Y-75717000D01*
X132826200Y-75717001D01*
X132659668Y-75772185D01*
X132659663Y-75772187D01*
X132510342Y-75864289D01*
X132386289Y-75988342D01*
X132294187Y-76137663D01*
X132294186Y-76137666D01*
X132239001Y-76304203D01*
X132239001Y-76304204D01*
X132239000Y-76304204D01*
X132228500Y-76406983D01*
X132228500Y-76716769D01*
X132208815Y-76783808D01*
X132192181Y-76804450D01*
X129701740Y-79294891D01*
X129640417Y-79328376D01*
X129570725Y-79323392D01*
X129514792Y-79281520D01*
X129491586Y-79226607D01*
X129479553Y-79150631D01*
X129406566Y-78926003D01*
X129299342Y-78715566D01*
X129285988Y-78697186D01*
X129160517Y-78524490D01*
X129160508Y-78524481D01*
X129157353Y-78520786D01*
X129159134Y-78519264D01*
X129130273Y-78466408D01*
X129135257Y-78396716D01*
X129177129Y-78340783D01*
X129186334Y-78334516D01*
X129234656Y-78304712D01*
X129358712Y-78180656D01*
X129450814Y-78031334D01*
X129505999Y-77864797D01*
X129516500Y-77762009D01*
X129516499Y-76161992D01*
X129505999Y-76059203D01*
X129450814Y-75892666D01*
X129358712Y-75743344D01*
X129234656Y-75619288D01*
X129085334Y-75527186D01*
X128918797Y-75472001D01*
X128918795Y-75472000D01*
X128816010Y-75461500D01*
X127215998Y-75461500D01*
X127215981Y-75461501D01*
X127113203Y-75472000D01*
X127113200Y-75472001D01*
X126946668Y-75527185D01*
X126946663Y-75527187D01*
X126797342Y-75619289D01*
X126673289Y-75743342D01*
X126581187Y-75892663D01*
X126581186Y-75892666D01*
X126526001Y-76059203D01*
X126526001Y-76059204D01*
X126526000Y-76059204D01*
X126515500Y-76161983D01*
X126515500Y-77762001D01*
X126515501Y-77762018D01*
X126526000Y-77864796D01*
X126526001Y-77864799D01*
X126556011Y-77955361D01*
X126581186Y-78031334D01*
X126673288Y-78180656D01*
X126797344Y-78304712D01*
X126839102Y-78330468D01*
X126845656Y-78334511D01*
X126892381Y-78386459D01*
X126903604Y-78455421D01*
X126875760Y-78519504D01*
X126874615Y-78520759D01*
X126874647Y-78520786D01*
X126871485Y-78524487D01*
X126871483Y-78524490D01*
X126849711Y-78554457D01*
X126732657Y-78715566D01*
X126625433Y-78926003D01*
X126552446Y-79150631D01*
X126515500Y-79383902D01*
X126515500Y-79620097D01*
X126552446Y-79853368D01*
X126625433Y-80077996D01*
X126732657Y-80288433D01*
X126871483Y-80479510D01*
X127038490Y-80646517D01*
X127073127Y-80671683D01*
X127115792Y-80727013D01*
X127121771Y-80796626D01*
X127089165Y-80858421D01*
X127073130Y-80872315D01*
X127055365Y-80885222D01*
X127038488Y-80897484D01*
X126871485Y-81064487D01*
X126871485Y-81064488D01*
X126871483Y-81064490D01*
X126868683Y-81068344D01*
X126732657Y-81255566D01*
X126625433Y-81466003D01*
X126552446Y-81690631D01*
X126515500Y-81923902D01*
X126515500Y-82160097D01*
X126552446Y-82393368D01*
X126625433Y-82617996D01*
X126680763Y-82726586D01*
X126732657Y-82828433D01*
X126871483Y-83019510D01*
X127038490Y-83186517D01*
X127097716Y-83229547D01*
X127140381Y-83284875D01*
X127148448Y-83339593D01*
X127146893Y-83359340D01*
X127804941Y-84017387D01*
X127784409Y-84022889D01*
X127647592Y-84101881D01*
X127535881Y-84213592D01*
X127456889Y-84350409D01*
X127451387Y-84370941D01*
X126793340Y-83712894D01*
X126733084Y-83795830D01*
X126625897Y-84006197D01*
X126552934Y-84230752D01*
X126516000Y-84463947D01*
X126516000Y-84700052D01*
X126552934Y-84933247D01*
X126625897Y-85157802D01*
X126733087Y-85368174D01*
X126793338Y-85451104D01*
X126793340Y-85451105D01*
X127451387Y-84793058D01*
X127456889Y-84813591D01*
X127535881Y-84950408D01*
X127647592Y-85062119D01*
X127784409Y-85141111D01*
X127804940Y-85146612D01*
X127146893Y-85804658D01*
X127229828Y-85864914D01*
X127440197Y-85972102D01*
X127664752Y-86045065D01*
X127664751Y-86045065D01*
X127897948Y-86082000D01*
X128134052Y-86082000D01*
X128367247Y-86045065D01*
X128591802Y-85972102D01*
X128802163Y-85864918D01*
X128802169Y-85864914D01*
X128885104Y-85804658D01*
X128885105Y-85804658D01*
X128227058Y-85146612D01*
X128247591Y-85141111D01*
X128384408Y-85062119D01*
X128496119Y-84950408D01*
X128575111Y-84813591D01*
X128580612Y-84793059D01*
X129238658Y-85451105D01*
X129238658Y-85451104D01*
X129298914Y-85368169D01*
X129298918Y-85368163D01*
X129406102Y-85157802D01*
X129412866Y-85136986D01*
X132229001Y-85136986D01*
X132239494Y-85239697D01*
X132294641Y-85406119D01*
X132294643Y-85406124D01*
X132386684Y-85555345D01*
X132510654Y-85679315D01*
X132659875Y-85771356D01*
X132659880Y-85771358D01*
X132826302Y-85826505D01*
X132826309Y-85826506D01*
X132929019Y-85836999D01*
X133353999Y-85836999D01*
X133854000Y-85836999D01*
X134278972Y-85836999D01*
X134278986Y-85836998D01*
X134381697Y-85826505D01*
X134548119Y-85771358D01*
X134548124Y-85771356D01*
X134697345Y-85679315D01*
X134821315Y-85555345D01*
X134913356Y-85406124D01*
X134913358Y-85406119D01*
X134968505Y-85239697D01*
X134968506Y-85239690D01*
X134978999Y-85136986D01*
X134979000Y-85136973D01*
X134979000Y-85024500D01*
X133854000Y-85024500D01*
X133854000Y-85836999D01*
X133353999Y-85836999D01*
X133354000Y-85836998D01*
X133354000Y-85024500D01*
X132229001Y-85024500D01*
X132229001Y-85136986D01*
X129412866Y-85136986D01*
X129478555Y-84934820D01*
X129479065Y-84933249D01*
X129479065Y-84933248D01*
X129516000Y-84700052D01*
X129516000Y-84463947D01*
X129510348Y-84428262D01*
X129507774Y-84412013D01*
X132229000Y-84412013D01*
X132229000Y-84524500D01*
X133354000Y-84524500D01*
X133854000Y-84524500D01*
X134978999Y-84524500D01*
X134978999Y-84412028D01*
X134978998Y-84412013D01*
X134968505Y-84309302D01*
X134913358Y-84142880D01*
X134913356Y-84142875D01*
X134821315Y-83993654D01*
X134697345Y-83869684D01*
X134548124Y-83777643D01*
X134548119Y-83777641D01*
X134381697Y-83722494D01*
X134381690Y-83722493D01*
X134278986Y-83712000D01*
X133854000Y-83712000D01*
X133854000Y-84524500D01*
X133354000Y-84524500D01*
X133354000Y-83712000D01*
X132929028Y-83712000D01*
X132929012Y-83712001D01*
X132826302Y-83722494D01*
X132659880Y-83777641D01*
X132659875Y-83777643D01*
X132510654Y-83869684D01*
X132386684Y-83993654D01*
X132294643Y-84142875D01*
X132294641Y-84142880D01*
X132239494Y-84309302D01*
X132239493Y-84309309D01*
X132229000Y-84412013D01*
X129507774Y-84412013D01*
X129479065Y-84230752D01*
X129406102Y-84006197D01*
X129298914Y-83795828D01*
X129238658Y-83712894D01*
X129238658Y-83712893D01*
X128580612Y-84370940D01*
X128575111Y-84350409D01*
X128496119Y-84213592D01*
X128384408Y-84101881D01*
X128247591Y-84022889D01*
X128227059Y-84017387D01*
X128885105Y-83359340D01*
X128883551Y-83339594D01*
X128897915Y-83271216D01*
X128934284Y-83229547D01*
X128993510Y-83186517D01*
X129160517Y-83019510D01*
X129299343Y-82828433D01*
X129406568Y-82617992D01*
X129479553Y-82393368D01*
X129491997Y-82314799D01*
X129516500Y-82160097D01*
X129516500Y-81923902D01*
X129482488Y-81709165D01*
X129491442Y-81639872D01*
X129517277Y-81602089D01*
X132041925Y-79077441D01*
X132103246Y-79043958D01*
X132172938Y-79048942D01*
X132228871Y-79090814D01*
X132253288Y-79156278D01*
X132247310Y-79204127D01*
X132239001Y-79229200D01*
X132239000Y-79229204D01*
X132228500Y-79331983D01*
X132228500Y-80057001D01*
X132228501Y-80057019D01*
X132239000Y-80159796D01*
X132239001Y-80159799D01*
X132265434Y-80239566D01*
X132294186Y-80326334D01*
X132386288Y-80475656D01*
X132510344Y-80599712D01*
X132618562Y-80666461D01*
X132665286Y-80718409D01*
X132676509Y-80787372D01*
X132648665Y-80851454D01*
X132618562Y-80877539D01*
X132510342Y-80944289D01*
X132386289Y-81068342D01*
X132294187Y-81217663D01*
X132294186Y-81217666D01*
X132239001Y-81384203D01*
X132239001Y-81384204D01*
X132239000Y-81384204D01*
X132228500Y-81486983D01*
X132228500Y-82212001D01*
X132228501Y-82212019D01*
X132239000Y-82314796D01*
X132239001Y-82314799D01*
X132294185Y-82481331D01*
X132294187Y-82481336D01*
X132312586Y-82511165D01*
X132386288Y-82630656D01*
X132510344Y-82754712D01*
X132659666Y-82846814D01*
X132826203Y-82901999D01*
X132928991Y-82912500D01*
X134279008Y-82912499D01*
X134381797Y-82901999D01*
X134548334Y-82846814D01*
X134697656Y-82754712D01*
X134821712Y-82630656D01*
X134913814Y-82481334D01*
X134968999Y-82314797D01*
X134979500Y-82212009D01*
X134979499Y-81486992D01*
X134977355Y-81466008D01*
X134968999Y-81384203D01*
X134968998Y-81384200D01*
X134926373Y-81255567D01*
X134913814Y-81217666D01*
X134821712Y-81068344D01*
X134697656Y-80944288D01*
X134697655Y-80944287D01*
X134589438Y-80877539D01*
X134542713Y-80825591D01*
X134531490Y-80756629D01*
X134559334Y-80692546D01*
X134589438Y-80666461D01*
X134697656Y-80599712D01*
X134821712Y-80475656D01*
X134913814Y-80326334D01*
X134968999Y-80159797D01*
X134979500Y-80057009D01*
X134979499Y-79666095D01*
X134999183Y-79599057D01*
X135015813Y-79578420D01*
X135471416Y-79122819D01*
X135532739Y-79089334D01*
X135559097Y-79086500D01*
X138583501Y-79086500D01*
X138650540Y-79106185D01*
X138696295Y-79158989D01*
X138707501Y-79210500D01*
X138707501Y-79286018D01*
X138718000Y-79388796D01*
X138718001Y-79388799D01*
X138748266Y-79480132D01*
X138773186Y-79555334D01*
X138865288Y-79704656D01*
X138989344Y-79828712D01*
X139029318Y-79853368D01*
X139037656Y-79858511D01*
X139084381Y-79910459D01*
X139095604Y-79979421D01*
X139067760Y-80043504D01*
X139066615Y-80044759D01*
X139066647Y-80044786D01*
X139063485Y-80048487D01*
X139063483Y-80048490D01*
X139042046Y-80077996D01*
X138924657Y-80239566D01*
X138817433Y-80450003D01*
X138744446Y-80674631D01*
X138707500Y-80907902D01*
X138707500Y-81144097D01*
X138744446Y-81377368D01*
X138817433Y-81601996D01*
X138862596Y-81690632D01*
X138924657Y-81812433D01*
X139063483Y-82003510D01*
X139230490Y-82170517D01*
X139421567Y-82309343D01*
X139514045Y-82356463D01*
X139632003Y-82416566D01*
X139632005Y-82416566D01*
X139632008Y-82416568D01*
X139752412Y-82455689D01*
X139856631Y-82489553D01*
X140089903Y-82526500D01*
X140089908Y-82526500D01*
X140326097Y-82526500D01*
X140559368Y-82489553D01*
X140584663Y-82481334D01*
X140783992Y-82416568D01*
X140994433Y-82309343D01*
X141034614Y-82280149D01*
X141100420Y-82256669D01*
X141168474Y-82272494D01*
X141217169Y-82322599D01*
X141231500Y-82380467D01*
X141231500Y-107071500D01*
X141211815Y-107138539D01*
X141159011Y-107184294D01*
X141107500Y-107195500D01*
X112384500Y-107195500D01*
X112317461Y-107175815D01*
X112271706Y-107123011D01*
X112260500Y-107071500D01*
X112260500Y-105202986D01*
X119275001Y-105202986D01*
X119285494Y-105305697D01*
X119340641Y-105472119D01*
X119340643Y-105472124D01*
X119432684Y-105621345D01*
X119556654Y-105745315D01*
X119705875Y-105837356D01*
X119705880Y-105837358D01*
X119872302Y-105892505D01*
X119872309Y-105892506D01*
X119975019Y-105902999D01*
X120399999Y-105902999D01*
X120900000Y-105902999D01*
X121324972Y-105902999D01*
X121324986Y-105902998D01*
X121427697Y-105892505D01*
X121594119Y-105837358D01*
X121594124Y-105837356D01*
X121743345Y-105745315D01*
X121867315Y-105621345D01*
X121959356Y-105472124D01*
X121959358Y-105472119D01*
X122014505Y-105305697D01*
X122014506Y-105305690D01*
X122024999Y-105202986D01*
X122025000Y-105202973D01*
X122025000Y-105090500D01*
X120900000Y-105090500D01*
X120900000Y-105902999D01*
X120399999Y-105902999D01*
X120400000Y-105902998D01*
X120400000Y-105090500D01*
X119275001Y-105090500D01*
X119275001Y-105202986D01*
X112260500Y-105202986D01*
X112260500Y-104478013D01*
X119275000Y-104478013D01*
X119275000Y-104590500D01*
X120400000Y-104590500D01*
X120900000Y-104590500D01*
X122024999Y-104590500D01*
X122024999Y-104478028D01*
X122024998Y-104478013D01*
X122014505Y-104375302D01*
X121959358Y-104208880D01*
X121959356Y-104208875D01*
X121867315Y-104059654D01*
X121743345Y-103935684D01*
X121594124Y-103843643D01*
X121594119Y-103843641D01*
X121427697Y-103788494D01*
X121427690Y-103788493D01*
X121324986Y-103778000D01*
X120900000Y-103778000D01*
X120900000Y-104590500D01*
X120400000Y-104590500D01*
X120400000Y-103778000D01*
X119975028Y-103778000D01*
X119975012Y-103778001D01*
X119872302Y-103788494D01*
X119705880Y-103843641D01*
X119705875Y-103843643D01*
X119556654Y-103935684D01*
X119432684Y-104059654D01*
X119340643Y-104208875D01*
X119340641Y-104208880D01*
X119285494Y-104375302D01*
X119285493Y-104375309D01*
X119275000Y-104478013D01*
X112260500Y-104478013D01*
X112260500Y-98127983D01*
X119274500Y-98127983D01*
X119274500Y-98853001D01*
X119274501Y-98853019D01*
X119285000Y-98955796D01*
X119285001Y-98955799D01*
X119340185Y-99122331D01*
X119340186Y-99122334D01*
X119432288Y-99271656D01*
X119556344Y-99395712D01*
X119705666Y-99487814D01*
X119814505Y-99523879D01*
X119871949Y-99563652D01*
X119898772Y-99628167D01*
X119899500Y-99641585D01*
X119899500Y-100764414D01*
X119879815Y-100831453D01*
X119827011Y-100877208D01*
X119814505Y-100882120D01*
X119705666Y-100918186D01*
X119705663Y-100918187D01*
X119556342Y-101010289D01*
X119432289Y-101134342D01*
X119340187Y-101283663D01*
X119340186Y-101283666D01*
X119285001Y-101450203D01*
X119285001Y-101450204D01*
X119285000Y-101450204D01*
X119274500Y-101552983D01*
X119274500Y-102278001D01*
X119274501Y-102278019D01*
X119285000Y-102380796D01*
X119285001Y-102380799D01*
X119340185Y-102547331D01*
X119340186Y-102547334D01*
X119432288Y-102696656D01*
X119556344Y-102820712D01*
X119705666Y-102912814D01*
X119872203Y-102967999D01*
X119974991Y-102978500D01*
X121325008Y-102978499D01*
X121427797Y-102967999D01*
X121594334Y-102912814D01*
X121743656Y-102820712D01*
X121867712Y-102696656D01*
X121959814Y-102547334D01*
X122014999Y-102380797D01*
X122025500Y-102278009D01*
X122025499Y-101552992D01*
X122014999Y-101450203D01*
X121959814Y-101283666D01*
X121867712Y-101134344D01*
X121743656Y-101010288D01*
X121594334Y-100918186D01*
X121533301Y-100897961D01*
X121485495Y-100882120D01*
X121428050Y-100842347D01*
X121401228Y-100777831D01*
X121400500Y-100764414D01*
X121400500Y-99641585D01*
X121420185Y-99574546D01*
X121472989Y-99528791D01*
X121485489Y-99523881D01*
X121594334Y-99487814D01*
X121743656Y-99395712D01*
X121862049Y-99277319D01*
X121923372Y-99243834D01*
X121949730Y-99241000D01*
X122271296Y-99241000D01*
X122338335Y-99260685D01*
X122358977Y-99277319D01*
X122473072Y-99391414D01*
X122613212Y-99493232D01*
X122767555Y-99571873D01*
X122932299Y-99625402D01*
X123103389Y-99652500D01*
X123103390Y-99652500D01*
X123276610Y-99652500D01*
X123276611Y-99652500D01*
X123447701Y-99625402D01*
X123612445Y-99571873D01*
X123766788Y-99493232D01*
X123906928Y-99391414D01*
X124029414Y-99268928D01*
X124131232Y-99128788D01*
X124209873Y-98974445D01*
X124263402Y-98809701D01*
X124290500Y-98638611D01*
X124290500Y-98465389D01*
X124263402Y-98294299D01*
X124209873Y-98129555D01*
X124131232Y-97975212D01*
X124029414Y-97835072D01*
X123906928Y-97712586D01*
X123766788Y-97610768D01*
X123612445Y-97532127D01*
X123447701Y-97478598D01*
X123447699Y-97478597D01*
X123447698Y-97478597D01*
X123316271Y-97457781D01*
X123276611Y-97451500D01*
X123103389Y-97451500D01*
X123063728Y-97457781D01*
X122932302Y-97478597D01*
X122767552Y-97532128D01*
X122613211Y-97610768D01*
X122539135Y-97664587D01*
X122473072Y-97712586D01*
X122473069Y-97712588D01*
X122469131Y-97715450D01*
X122467928Y-97713795D01*
X122412017Y-97738858D01*
X122395229Y-97740000D01*
X121949730Y-97740000D01*
X121882691Y-97720315D01*
X121862049Y-97703681D01*
X121743657Y-97585289D01*
X121743656Y-97585288D01*
X121594334Y-97493186D01*
X121427797Y-97438001D01*
X121427795Y-97438000D01*
X121325010Y-97427500D01*
X119974998Y-97427500D01*
X119974981Y-97427501D01*
X119872203Y-97438000D01*
X119872200Y-97438001D01*
X119705668Y-97493185D01*
X119705663Y-97493187D01*
X119556342Y-97585289D01*
X119432289Y-97709342D01*
X119340187Y-97858663D01*
X119340186Y-97858666D01*
X119285001Y-98025203D01*
X119285001Y-98025204D01*
X119285000Y-98025204D01*
X119274500Y-98127983D01*
X112260500Y-98127983D01*
X112260500Y-86434853D01*
X112280185Y-86367814D01*
X112332989Y-86322059D01*
X112384500Y-86310853D01*
X119797800Y-86310853D01*
X119864839Y-86330538D01*
X119910594Y-86383342D01*
X119921800Y-86434853D01*
X119921800Y-87583168D01*
X119902115Y-87650207D01*
X119870686Y-87683486D01*
X119694788Y-87811284D01*
X119527785Y-87978287D01*
X119527785Y-87978288D01*
X119527783Y-87978290D01*
X119468162Y-88060350D01*
X119388957Y-88169366D01*
X119281733Y-88379803D01*
X119208746Y-88604431D01*
X119171800Y-88837702D01*
X119171800Y-89073897D01*
X119205811Y-89288632D01*
X119196857Y-89357925D01*
X119171019Y-89395711D01*
X118638349Y-89928381D01*
X118589112Y-90002071D01*
X118556221Y-90051296D01*
X118556214Y-90051308D01*
X118499642Y-90187886D01*
X118499640Y-90187892D01*
X118470800Y-90332879D01*
X118470800Y-90332882D01*
X118470800Y-94210718D01*
X118470800Y-94210720D01*
X118470799Y-94210720D01*
X118499640Y-94355707D01*
X118499643Y-94355717D01*
X118556212Y-94492288D01*
X118556216Y-94492295D01*
X118576063Y-94521998D01*
X118576064Y-94522001D01*
X118576065Y-94522001D01*
X118612938Y-94577187D01*
X118638351Y-94615220D01*
X118638352Y-94615221D01*
X119238181Y-95215049D01*
X119271666Y-95276372D01*
X119274500Y-95302730D01*
X119274500Y-95928001D01*
X119274501Y-95928019D01*
X119285000Y-96030796D01*
X119285001Y-96030799D01*
X119301566Y-96080788D01*
X119340186Y-96197334D01*
X119432288Y-96346656D01*
X119556344Y-96470712D01*
X119705666Y-96562814D01*
X119872203Y-96617999D01*
X119974991Y-96628500D01*
X121325008Y-96628499D01*
X121427797Y-96617999D01*
X121594334Y-96562814D01*
X121743656Y-96470712D01*
X121862049Y-96352319D01*
X121923372Y-96318834D01*
X121949730Y-96316000D01*
X122395229Y-96316000D01*
X122462268Y-96335685D01*
X122469020Y-96340702D01*
X122469131Y-96340550D01*
X122473069Y-96343411D01*
X122473072Y-96343414D01*
X122613212Y-96445232D01*
X122767555Y-96523873D01*
X122932299Y-96577402D01*
X123103389Y-96604500D01*
X123103390Y-96604500D01*
X123276610Y-96604500D01*
X123276611Y-96604500D01*
X123447701Y-96577402D01*
X123612445Y-96523873D01*
X123766788Y-96445232D01*
X123906928Y-96343414D01*
X124029414Y-96220928D01*
X124131232Y-96080788D01*
X124209873Y-95926445D01*
X124263402Y-95761701D01*
X124290500Y-95590611D01*
X124290500Y-95417389D01*
X124263402Y-95246299D01*
X124252252Y-95211983D01*
X126261500Y-95211983D01*
X126261500Y-96812001D01*
X126261501Y-96812018D01*
X126272000Y-96914796D01*
X126272001Y-96914799D01*
X126327185Y-97081331D01*
X126327186Y-97081334D01*
X126419288Y-97230656D01*
X126543344Y-97354712D01*
X126585102Y-97380468D01*
X126591656Y-97384511D01*
X126638381Y-97436459D01*
X126649604Y-97505421D01*
X126621760Y-97569504D01*
X126620615Y-97570759D01*
X126620647Y-97570786D01*
X126617485Y-97574487D01*
X126617483Y-97574490D01*
X126557862Y-97656550D01*
X126478657Y-97765566D01*
X126371433Y-97976003D01*
X126298446Y-98200631D01*
X126261500Y-98433902D01*
X126261500Y-98670097D01*
X126298446Y-98903368D01*
X126371433Y-99127996D01*
X126429012Y-99241000D01*
X126478657Y-99338433D01*
X126617483Y-99529510D01*
X126784490Y-99696517D01*
X126819127Y-99721683D01*
X126861792Y-99777013D01*
X126867771Y-99846626D01*
X126835165Y-99908421D01*
X126819130Y-99922315D01*
X126801365Y-99935222D01*
X126784488Y-99947484D01*
X126617485Y-100114487D01*
X126617485Y-100114488D01*
X126617483Y-100114490D01*
X126557862Y-100196550D01*
X126478657Y-100305566D01*
X126371433Y-100516003D01*
X126298446Y-100740631D01*
X126261500Y-100973902D01*
X126261500Y-101210097D01*
X126298446Y-101443368D01*
X126371433Y-101667996D01*
X126478657Y-101878433D01*
X126617483Y-102069510D01*
X126784490Y-102236517D01*
X126843716Y-102279547D01*
X126886381Y-102334875D01*
X126894448Y-102389593D01*
X126892893Y-102409340D01*
X127550941Y-103067387D01*
X127530409Y-103072889D01*
X127393592Y-103151881D01*
X127281881Y-103263592D01*
X127202889Y-103400409D01*
X127197387Y-103420941D01*
X126539340Y-102762894D01*
X126479084Y-102845830D01*
X126371897Y-103056197D01*
X126298934Y-103280752D01*
X126262000Y-103513947D01*
X126262000Y-103750052D01*
X126298934Y-103983247D01*
X126371897Y-104207802D01*
X126479087Y-104418174D01*
X126539338Y-104501104D01*
X126539340Y-104501105D01*
X127197387Y-103843058D01*
X127202889Y-103863591D01*
X127281881Y-104000408D01*
X127393592Y-104112119D01*
X127530409Y-104191111D01*
X127550940Y-104196612D01*
X126892893Y-104854658D01*
X126975828Y-104914914D01*
X127186197Y-105022102D01*
X127410752Y-105095065D01*
X127410751Y-105095065D01*
X127643948Y-105132000D01*
X127880052Y-105132000D01*
X128113247Y-105095065D01*
X128337802Y-105022102D01*
X128548163Y-104914918D01*
X128548169Y-104914914D01*
X128631104Y-104854658D01*
X128631105Y-104854658D01*
X128628500Y-104852053D01*
X133033000Y-104852053D01*
X139777000Y-104852053D01*
X139777000Y-94792855D01*
X133033000Y-94792855D01*
X133033000Y-104852053D01*
X128628500Y-104852053D01*
X127973058Y-104196612D01*
X127993591Y-104191111D01*
X128130408Y-104112119D01*
X128242119Y-104000408D01*
X128321111Y-103863591D01*
X128326612Y-103843059D01*
X128984658Y-104501105D01*
X128984658Y-104501104D01*
X129044914Y-104418169D01*
X129044918Y-104418163D01*
X129152102Y-104207802D01*
X129225065Y-103983247D01*
X129262000Y-103750052D01*
X129262000Y-103513947D01*
X129225065Y-103280752D01*
X129152102Y-103056197D01*
X129044914Y-102845828D01*
X128984658Y-102762894D01*
X128984658Y-102762893D01*
X128326612Y-103420940D01*
X128321111Y-103400409D01*
X128242119Y-103263592D01*
X128130408Y-103151881D01*
X127993591Y-103072889D01*
X127973059Y-103067387D01*
X128631105Y-102409340D01*
X128629551Y-102389594D01*
X128643915Y-102321216D01*
X128680284Y-102279547D01*
X128739510Y-102236517D01*
X128906517Y-102069510D01*
X129045343Y-101878433D01*
X129152568Y-101667992D01*
X129225553Y-101443368D01*
X129250847Y-101283668D01*
X129262500Y-101210097D01*
X129262500Y-100973902D01*
X129225553Y-100740631D01*
X129152566Y-100516003D01*
X129045342Y-100305566D01*
X128906517Y-100114490D01*
X128739510Y-99947483D01*
X128704872Y-99922317D01*
X128662207Y-99866989D01*
X128656228Y-99797375D01*
X128688833Y-99735580D01*
X128704873Y-99721682D01*
X128739510Y-99696517D01*
X128906517Y-99529510D01*
X129045343Y-99338433D01*
X129152568Y-99127992D01*
X129225553Y-98903368D01*
X129262500Y-98670097D01*
X129262500Y-98433902D01*
X129225553Y-98200631D01*
X129152566Y-97976003D01*
X129092778Y-97858663D01*
X129045343Y-97765567D01*
X128906517Y-97574490D01*
X128906508Y-97574481D01*
X128903353Y-97570786D01*
X128905134Y-97569264D01*
X128876273Y-97516408D01*
X128881257Y-97446716D01*
X128923129Y-97390783D01*
X128932334Y-97384516D01*
X128980656Y-97354712D01*
X129104712Y-97230656D01*
X129196814Y-97081334D01*
X129251999Y-96914797D01*
X129262500Y-96812009D01*
X129262499Y-95211992D01*
X129251999Y-95109203D01*
X129196814Y-94942666D01*
X129187282Y-94927212D01*
X129112882Y-94806589D01*
X129104712Y-94793344D01*
X128980657Y-94669289D01*
X128980656Y-94669288D01*
X128831334Y-94577186D01*
X128664797Y-94522001D01*
X128664795Y-94522000D01*
X128562010Y-94511500D01*
X126961998Y-94511500D01*
X126961981Y-94511501D01*
X126859203Y-94522000D01*
X126859200Y-94522001D01*
X126692668Y-94577185D01*
X126692663Y-94577187D01*
X126543342Y-94669289D01*
X126419289Y-94793342D01*
X126327187Y-94942663D01*
X126327186Y-94942666D01*
X126272001Y-95109203D01*
X126272001Y-95109204D01*
X126272000Y-95109204D01*
X126261500Y-95211983D01*
X124252252Y-95211983D01*
X124209873Y-95081555D01*
X124131232Y-94927212D01*
X124029414Y-94787072D01*
X123906928Y-94664586D01*
X123766788Y-94562768D01*
X123612445Y-94484127D01*
X123447701Y-94430598D01*
X123447699Y-94430597D01*
X123447698Y-94430597D01*
X123316271Y-94409781D01*
X123276611Y-94403500D01*
X123103389Y-94403500D01*
X123063728Y-94409781D01*
X122932302Y-94430597D01*
X122767552Y-94484128D01*
X122613211Y-94562768D01*
X122541024Y-94615216D01*
X122473072Y-94664586D01*
X122473070Y-94664588D01*
X122473069Y-94664588D01*
X122358977Y-94778681D01*
X122297654Y-94812166D01*
X122271296Y-94815000D01*
X121949730Y-94815000D01*
X121882691Y-94795315D01*
X121862049Y-94778681D01*
X121743657Y-94660289D01*
X121743656Y-94660288D01*
X121608927Y-94577187D01*
X121594336Y-94568187D01*
X121594331Y-94568185D01*
X121592862Y-94567698D01*
X121427797Y-94513001D01*
X121427795Y-94513000D01*
X121325016Y-94502500D01*
X121325009Y-94502500D01*
X120699730Y-94502500D01*
X120632691Y-94482815D01*
X120612049Y-94466181D01*
X120008119Y-93862251D01*
X119974634Y-93800928D01*
X119971800Y-93774570D01*
X119971800Y-93119799D01*
X119991485Y-93052760D01*
X120044289Y-93007005D01*
X120095800Y-92995799D01*
X120422300Y-92995799D01*
X120422300Y-92044282D01*
X120440709Y-92054911D01*
X120593309Y-92095800D01*
X120751291Y-92095800D01*
X120903891Y-92054911D01*
X120922300Y-92044282D01*
X120922300Y-92995799D01*
X121472272Y-92995799D01*
X121472286Y-92995798D01*
X121574997Y-92985305D01*
X121741419Y-92930158D01*
X121741424Y-92930156D01*
X121890645Y-92838115D01*
X122014615Y-92714145D01*
X122106656Y-92564924D01*
X122106658Y-92564919D01*
X122161805Y-92398497D01*
X122161806Y-92398490D01*
X122172299Y-92295786D01*
X122172300Y-92295773D01*
X122172300Y-91745800D01*
X121220782Y-91745800D01*
X121231411Y-91727391D01*
X121272300Y-91574791D01*
X121272300Y-91416809D01*
X121231411Y-91264209D01*
X121220782Y-91245800D01*
X122172299Y-91245800D01*
X122172299Y-90695828D01*
X122172298Y-90695813D01*
X122161805Y-90593102D01*
X122106658Y-90426680D01*
X122106656Y-90426675D01*
X122014615Y-90277454D01*
X121890644Y-90153483D01*
X121890640Y-90153480D01*
X121876414Y-90144705D01*
X121876413Y-90144705D01*
X121842280Y-90123652D01*
X121795555Y-90071705D01*
X121791052Y-90044038D01*
X126161500Y-90044038D01*
X126161500Y-90295961D01*
X126200910Y-90544785D01*
X126278760Y-90784383D01*
X126393132Y-91008848D01*
X126541201Y-91212649D01*
X126541205Y-91212654D01*
X126719345Y-91390794D01*
X126719350Y-91390798D01*
X126863874Y-91495800D01*
X126923155Y-91538870D01*
X127066184Y-91611747D01*
X127147616Y-91653239D01*
X127147618Y-91653239D01*
X127147621Y-91653241D01*
X127387215Y-91731090D01*
X127636038Y-91770500D01*
X127636039Y-91770500D01*
X127887961Y-91770500D01*
X127887962Y-91770500D01*
X128136785Y-91731090D01*
X128376379Y-91653241D01*
X128600845Y-91538870D01*
X128804656Y-91390793D01*
X128982793Y-91212656D01*
X129130870Y-91008845D01*
X129245241Y-90784379D01*
X129323090Y-90544785D01*
X129362500Y-90295962D01*
X129362500Y-90044038D01*
X129323090Y-89795215D01*
X129245241Y-89555621D01*
X129245239Y-89555618D01*
X129245239Y-89555616D01*
X129203747Y-89474184D01*
X129130870Y-89331155D01*
X129099975Y-89288632D01*
X128982798Y-89127350D01*
X128982794Y-89127345D01*
X128804654Y-88949205D01*
X128804649Y-88949201D01*
X128600848Y-88801132D01*
X128600847Y-88801131D01*
X128600845Y-88801130D01*
X128530747Y-88765413D01*
X128376383Y-88686760D01*
X128136785Y-88608910D01*
X128108506Y-88604431D01*
X127887962Y-88569500D01*
X127636038Y-88569500D01*
X127511626Y-88589205D01*
X127387214Y-88608910D01*
X127147616Y-88686760D01*
X126923151Y-88801132D01*
X126719350Y-88949201D01*
X126719345Y-88949205D01*
X126541205Y-89127345D01*
X126541201Y-89127350D01*
X126393132Y-89331151D01*
X126278760Y-89555616D01*
X126200910Y-89795214D01*
X126161500Y-90044038D01*
X121791052Y-90044038D01*
X121784332Y-90002742D01*
X121812175Y-89938660D01*
X121813662Y-89937033D01*
X121813648Y-89937021D01*
X121816811Y-89933316D01*
X121816817Y-89933310D01*
X121955643Y-89742233D01*
X122062868Y-89531792D01*
X122135853Y-89307168D01*
X122138789Y-89288632D01*
X122172800Y-89073897D01*
X122172800Y-88837702D01*
X122135853Y-88604431D01*
X122062866Y-88379803D01*
X121955642Y-88169366D01*
X121816817Y-87978290D01*
X121649810Y-87811283D01*
X121599179Y-87774497D01*
X121473914Y-87683486D01*
X121431249Y-87628155D01*
X121422800Y-87583168D01*
X121422800Y-84400904D01*
X121442485Y-84333865D01*
X121459119Y-84313223D01*
X121463040Y-84309302D01*
X121489414Y-84282928D01*
X121591232Y-84142788D01*
X121669873Y-83988445D01*
X121723402Y-83823701D01*
X121750500Y-83652611D01*
X121750500Y-83479389D01*
X121723402Y-83308299D01*
X121669873Y-83143555D01*
X121591232Y-82989212D01*
X121489414Y-82849072D01*
X121366928Y-82726586D01*
X121226788Y-82624768D01*
X121072445Y-82546127D01*
X120907701Y-82492598D01*
X120907699Y-82492597D01*
X120907698Y-82492597D01*
X120764903Y-82469981D01*
X120736611Y-82465500D01*
X120563389Y-82465500D01*
X120478551Y-82478937D01*
X120409257Y-82469981D01*
X120355806Y-82424984D01*
X120335167Y-82358232D01*
X120335154Y-82356463D01*
X120335154Y-76250855D01*
X112384500Y-76250855D01*
X112317461Y-76231170D01*
X112271706Y-76178366D01*
X112260500Y-76126855D01*
X112260500Y-73480853D01*
X112280185Y-73413814D01*
X112332989Y-73368059D01*
X112384500Y-73356853D01*
X120335154Y-73356853D01*
X120335154Y-63296855D01*
X112384500Y-63296855D01*
X112317461Y-63277170D01*
X112271706Y-63224366D01*
X112260500Y-63172855D01*
X112260500Y-63055583D01*
X126312300Y-63055583D01*
X126312300Y-64655601D01*
X126312301Y-64655618D01*
X126322800Y-64758396D01*
X126322801Y-64758399D01*
X126377985Y-64924931D01*
X126377987Y-64924936D01*
X126403111Y-64965668D01*
X126470088Y-65074256D01*
X126594144Y-65198312D01*
X126635902Y-65224068D01*
X126642456Y-65228111D01*
X126689181Y-65280059D01*
X126700404Y-65349021D01*
X126672560Y-65413104D01*
X126671415Y-65414359D01*
X126671447Y-65414386D01*
X126668285Y-65418087D01*
X126668283Y-65418090D01*
X126619670Y-65485000D01*
X126529457Y-65609166D01*
X126422233Y-65819603D01*
X126349246Y-66044231D01*
X126312300Y-66277502D01*
X126312300Y-66513697D01*
X126349246Y-66746968D01*
X126422233Y-66971596D01*
X126528335Y-67179831D01*
X126529457Y-67182033D01*
X126668283Y-67373110D01*
X126835290Y-67540117D01*
X126869927Y-67565283D01*
X126912592Y-67620613D01*
X126918571Y-67690226D01*
X126885965Y-67752021D01*
X126869930Y-67765915D01*
X126852165Y-67778822D01*
X126835288Y-67791084D01*
X126668285Y-67958087D01*
X126668285Y-67958088D01*
X126668283Y-67958090D01*
X126608662Y-68040150D01*
X126529457Y-68149166D01*
X126422233Y-68359603D01*
X126349246Y-68584231D01*
X126312300Y-68817502D01*
X126312300Y-69053697D01*
X126349246Y-69286968D01*
X126422233Y-69511596D01*
X126528175Y-69719517D01*
X126529457Y-69722033D01*
X126668283Y-69913110D01*
X126835290Y-70080117D01*
X126894516Y-70123147D01*
X126937181Y-70178475D01*
X126945248Y-70233193D01*
X126943693Y-70252940D01*
X127601741Y-70910987D01*
X127581209Y-70916489D01*
X127444392Y-70995481D01*
X127332681Y-71107192D01*
X127253689Y-71244009D01*
X127248187Y-71264541D01*
X126590140Y-70606494D01*
X126529884Y-70689430D01*
X126422697Y-70899797D01*
X126349734Y-71124352D01*
X126312800Y-71357547D01*
X126312800Y-71593652D01*
X126349734Y-71826847D01*
X126422697Y-72051402D01*
X126529887Y-72261774D01*
X126590138Y-72344704D01*
X126590140Y-72344705D01*
X127248187Y-71686658D01*
X127253689Y-71707191D01*
X127332681Y-71844008D01*
X127444392Y-71955719D01*
X127581209Y-72034711D01*
X127601740Y-72040212D01*
X126943693Y-72698258D01*
X127026628Y-72758514D01*
X127236997Y-72865702D01*
X127461552Y-72938665D01*
X127461551Y-72938665D01*
X127694748Y-72975600D01*
X127930852Y-72975600D01*
X128164047Y-72938665D01*
X128388602Y-72865702D01*
X128598963Y-72758518D01*
X128598969Y-72758514D01*
X128681904Y-72698258D01*
X128681905Y-72698258D01*
X128023858Y-72040212D01*
X128044391Y-72034711D01*
X128181208Y-71955719D01*
X128292919Y-71844008D01*
X128371911Y-71707191D01*
X128377412Y-71686659D01*
X129035458Y-72344705D01*
X129035458Y-72344704D01*
X129095714Y-72261769D01*
X129095718Y-72261763D01*
X129202902Y-72051402D01*
X129222695Y-71990486D01*
X132229001Y-71990486D01*
X132239494Y-72093197D01*
X132294641Y-72259619D01*
X132294643Y-72259624D01*
X132386684Y-72408845D01*
X132510654Y-72532815D01*
X132659875Y-72624856D01*
X132659880Y-72624858D01*
X132826302Y-72680005D01*
X132826309Y-72680006D01*
X132929019Y-72690499D01*
X133353999Y-72690499D01*
X133854000Y-72690499D01*
X134278972Y-72690499D01*
X134278986Y-72690498D01*
X134381697Y-72680005D01*
X134548119Y-72624858D01*
X134548124Y-72624856D01*
X134697345Y-72532815D01*
X134821315Y-72408845D01*
X134913356Y-72259624D01*
X134913358Y-72259619D01*
X134968505Y-72093197D01*
X134968506Y-72093190D01*
X134978999Y-71990486D01*
X134979000Y-71990473D01*
X134979000Y-71878000D01*
X133854000Y-71878000D01*
X133854000Y-72690499D01*
X133353999Y-72690499D01*
X133354000Y-72690498D01*
X133354000Y-71878000D01*
X132229001Y-71878000D01*
X132229001Y-71990486D01*
X129222695Y-71990486D01*
X129275863Y-71826853D01*
X129278970Y-71807241D01*
X129278971Y-71807238D01*
X129312800Y-71593652D01*
X129312800Y-71357546D01*
X129300797Y-71281761D01*
X129298223Y-71265513D01*
X132229000Y-71265513D01*
X132229000Y-71378000D01*
X133354000Y-71378000D01*
X133854000Y-71378000D01*
X134978999Y-71378000D01*
X134978999Y-71265528D01*
X134978998Y-71265513D01*
X134968505Y-71162802D01*
X134913358Y-70996380D01*
X134913356Y-70996375D01*
X134821315Y-70847154D01*
X134697345Y-70723184D01*
X134548124Y-70631143D01*
X134548119Y-70631141D01*
X134381697Y-70575994D01*
X134381690Y-70575993D01*
X134278986Y-70565500D01*
X133854000Y-70565500D01*
X133854000Y-71378000D01*
X133354000Y-71378000D01*
X133354000Y-70565500D01*
X132929028Y-70565500D01*
X132929012Y-70565501D01*
X132826302Y-70575994D01*
X132659880Y-70631141D01*
X132659875Y-70631143D01*
X132510654Y-70723184D01*
X132386684Y-70847154D01*
X132294643Y-70996375D01*
X132294641Y-70996380D01*
X132239494Y-71162802D01*
X132239493Y-71162809D01*
X132229000Y-71265513D01*
X129298223Y-71265513D01*
X129275865Y-71124352D01*
X129202902Y-70899797D01*
X129095714Y-70689428D01*
X129035458Y-70606494D01*
X129035458Y-70606493D01*
X128377412Y-71264540D01*
X128371911Y-71244009D01*
X128292919Y-71107192D01*
X128181208Y-70995481D01*
X128044391Y-70916489D01*
X128023859Y-70910987D01*
X128681905Y-70252940D01*
X128680351Y-70233194D01*
X128694715Y-70164816D01*
X128731084Y-70123147D01*
X128790310Y-70080117D01*
X128957317Y-69913110D01*
X129096143Y-69722033D01*
X129203368Y-69511592D01*
X129276353Y-69286968D01*
X129284799Y-69233642D01*
X129313300Y-69053697D01*
X129313300Y-68817502D01*
X129279288Y-68602765D01*
X129288242Y-68533472D01*
X129314077Y-68495689D01*
X133087449Y-64722318D01*
X133148772Y-64688833D01*
X133175130Y-64685999D01*
X134279002Y-64685999D01*
X134279008Y-64685999D01*
X134381797Y-64675499D01*
X134548334Y-64620314D01*
X134697656Y-64528212D01*
X134821712Y-64404156D01*
X134913814Y-64254834D01*
X134968999Y-64088297D01*
X134979500Y-63985509D01*
X134979499Y-63260492D01*
X134968999Y-63157703D01*
X134913814Y-62991166D01*
X134821712Y-62841844D01*
X134697656Y-62717788D01*
X134548334Y-62625686D01*
X134381797Y-62570501D01*
X134381795Y-62570500D01*
X134279010Y-62560000D01*
X132928998Y-62560000D01*
X132928981Y-62560001D01*
X132826203Y-62570500D01*
X132826200Y-62570501D01*
X132659668Y-62625685D01*
X132659663Y-62625687D01*
X132510342Y-62717789D01*
X132386289Y-62841842D01*
X132294187Y-62991163D01*
X132294186Y-62991166D01*
X132239001Y-63157703D01*
X132239001Y-63157704D01*
X132239000Y-63157704D01*
X132228500Y-63260483D01*
X132228500Y-63407169D01*
X132208815Y-63474208D01*
X132192181Y-63494850D01*
X129498540Y-66188491D01*
X129437217Y-66221976D01*
X129367525Y-66216992D01*
X129311592Y-66175120D01*
X129288386Y-66120207D01*
X129276353Y-66044231D01*
X129203366Y-65819603D01*
X129113274Y-65642789D01*
X129096143Y-65609167D01*
X128957317Y-65418090D01*
X128957308Y-65418081D01*
X128954153Y-65414386D01*
X128955934Y-65412864D01*
X128927073Y-65360008D01*
X128932057Y-65290316D01*
X128973929Y-65234383D01*
X128983134Y-65228116D01*
X129031456Y-65198312D01*
X129155512Y-65074256D01*
X129247614Y-64924934D01*
X129302799Y-64758397D01*
X129313300Y-64655609D01*
X129313299Y-63055592D01*
X129302799Y-62952803D01*
X129247614Y-62786266D01*
X129155512Y-62636944D01*
X129031456Y-62512888D01*
X128882134Y-62420786D01*
X128715597Y-62365601D01*
X128715595Y-62365600D01*
X128612810Y-62355100D01*
X127012798Y-62355100D01*
X127012781Y-62355101D01*
X126910003Y-62365600D01*
X126910000Y-62365601D01*
X126743468Y-62420785D01*
X126743463Y-62420787D01*
X126594142Y-62512889D01*
X126470089Y-62636942D01*
X126377987Y-62786263D01*
X126377986Y-62786266D01*
X126322801Y-62952803D01*
X126322801Y-62952804D01*
X126322800Y-62952804D01*
X126312300Y-63055583D01*
X112260500Y-63055583D01*
X112260500Y-61584500D01*
X112280185Y-61517461D01*
X112332989Y-61471706D01*
X112384500Y-61460500D01*
X141107500Y-61460500D01*
X141174539Y-61480185D01*
G37*
%TD.AperFunction*%
%TD*%
M02*
