M48
; DRILL file {KiCad 9.0.3} date 2025-10-25T08:35:41-0700
; FORMAT={-:-/ absolute / metric / decimal}
; #@! TF.CreationDate,2025-10-25T08:35:41-07:00
; #@! TF.GenerationSoftware,Kicad,Pcbnew,9.0.3
; #@! TF.FileFunction,Plated,1,2,PTH
FMAT,2
METRIC
; #@! TA.AperFunction,Plated,PTH,ViaDrill
T1C0.800
; #@! TA.AperFunction,Plated,PTH,ComponentDrill
T2C1.200
%
G90
G05
T1
X84.582Y-83.566
X87.122Y-95.504
X87.122Y-98.552
X120.65Y-83.566
X123.19Y-95.504
X123.19Y-98.552
T2
X84.604Y-88.956
X84.604Y-91.496
X91.694Y-96.012
X91.694Y-98.552
X91.694Y-101.092
X91.694Y-103.632
X91.745Y-63.856
X91.745Y-66.396
X91.745Y-68.936
X91.745Y-71.476
X91.948Y-76.962
X91.948Y-79.502
X91.948Y-82.042
X91.948Y-84.582
X104.14Y-66.035
X104.14Y-68.575
X104.14Y-78.486
X104.14Y-81.026
X120.672Y-88.956
X120.672Y-91.496
X127.762Y-96.012
X127.762Y-98.552
X127.762Y-101.092
X127.762Y-103.632
X127.813Y-63.856
X127.813Y-66.396
X127.813Y-68.936
X127.813Y-71.476
X128.016Y-76.962
X128.016Y-79.502
X128.016Y-82.042
X128.016Y-84.582
X140.208Y-66.035
X140.208Y-68.575
X140.208Y-78.486
X140.208Y-81.026
M30
