%TF.GenerationSoftware,KiCad,Pcbnew,9.0.3*%
%TF.CreationDate,2025-10-25T08:35:43-07:00*%
%TF.ProjectId,powerControl,706f7765-7243-46f6-9e74-726f6c2e6b69,rev?*%
%TF.SameCoordinates,Original*%
%TF.FileFunction,Copper,L2,Bot*%
%TF.FilePolarity,Positive*%
%FSLAX46Y46*%
G04 Gerber Fmt 4.6, Leading zero omitted, Abs format (unit mm)*
G04 Created by KiCad (PCBNEW 9.0.3) date 2025-10-25 08:35:43*
%MOMM*%
%LPD*%
G01*
G04 APERTURE LIST*
G04 Aperture macros list*
%AMRoundRect*
0 Rectangle with rounded corners*
0 $1 Rounding radius*
0 $2 $3 $4 $5 $6 $7 $8 $9 X,Y pos of 4 corners*
0 Add a 4 corners polygon primitive as box body*
4,1,4,$2,$3,$4,$5,$6,$7,$8,$9,$2,$3,0*
0 Add four circle primitives for the rounded corners*
1,1,$1+$1,$2,$3*
1,1,$1+$1,$4,$5*
1,1,$1+$1,$6,$7*
1,1,$1+$1,$8,$9*
0 Add four rect primitives between the rounded corners*
20,1,$1+$1,$2,$3,$4,$5,0*
20,1,$1+$1,$4,$5,$6,$7,0*
20,1,$1+$1,$6,$7,$8,$9,0*
20,1,$1+$1,$8,$9,$2,$3,0*%
G04 Aperture macros list end*
%TA.AperFunction,ComponentPad*%
%ADD10RoundRect,0.250000X-0.750000X0.750000X-0.750000X-0.750000X0.750000X-0.750000X0.750000X0.750000X0*%
%TD*%
%TA.AperFunction,ComponentPad*%
%ADD11C,2.000000*%
%TD*%
%TA.AperFunction,ComponentPad*%
%ADD12RoundRect,0.250000X0.750000X-0.750000X0.750000X0.750000X-0.750000X0.750000X-0.750000X-0.750000X0*%
%TD*%
%TA.AperFunction,ViaPad*%
%ADD13C,1.200000*%
%TD*%
%TA.AperFunction,Conductor*%
%ADD14C,0.500000*%
%TD*%
G04 APERTURE END LIST*
D10*
%TO.P,J4,1,Pin_1*%
%TO.N,Net-(J4-Pin_1)*%
X140208000Y-66035000D03*
D11*
%TO.P,J4,2*%
%TO.N,N/C*%
X140208000Y-68575000D03*
%TD*%
D10*
%TO.P,J5,1,Pin_1*%
%TO.N,Net-(J5-Pin_1)*%
X140208000Y-78486000D03*
D11*
%TO.P,J5,2*%
%TO.N,N/C*%
X140208000Y-81026000D03*
%TD*%
D10*
%TO.P,J2,1,Pin_1*%
%TO.N,+12V*%
X127762000Y-96012000D03*
D11*
%TO.P,J2,2,Pin_2*%
%TO.N,GNDREF*%
X127762000Y-98552000D03*
%TO.P,J2,3,Pin_3*%
%TO.N,unconnected-(J2-Pin_3-Pad3)*%
X127762000Y-101092000D03*
%TO.P,J2,4,Pin_4*%
%TO.N,GND*%
X127762000Y-103632000D03*
%TD*%
D12*
%TO.P,J6,1,Pin_1*%
%TO.N,GND*%
X120672300Y-91495800D03*
D11*
%TO.P,J6,2,Pin_2*%
%TO.N,+12V*%
X120672300Y-88955800D03*
%TD*%
D10*
%TO.P,J3,1,Pin_1*%
%TO.N,+12V*%
X128016000Y-76962000D03*
D11*
%TO.P,J3,2,Pin_2*%
%TO.N,unconnected-(J3-Pin_2-Pad2)*%
X128016000Y-79502000D03*
%TO.P,J3,3,Pin_3*%
%TO.N,+6V*%
X128016000Y-82042000D03*
%TO.P,J3,4,Pin_4*%
%TO.N,GND*%
X128016000Y-84582000D03*
%TD*%
D10*
%TO.P,J1,1,Pin_1*%
%TO.N,+12V*%
X127812800Y-63855600D03*
D11*
%TO.P,J1,2,Pin_2*%
%TO.N,unconnected-(J1-Pin_2-Pad2)*%
X127812800Y-66395600D03*
%TO.P,J1,3,Pin_3*%
%TO.N,+6V*%
X127812800Y-68935600D03*
%TO.P,J1,4,Pin_4*%
%TO.N,GND*%
X127812800Y-71475600D03*
%TD*%
D10*
%TO.P,J1,1,Pin_1*%
%TO.N,+12V*%
X91744800Y-63855600D03*
D11*
%TO.P,J1,2,Pin_2*%
%TO.N,unconnected-(J1-Pin_2-Pad2)*%
X91744800Y-66395600D03*
%TO.P,J1,3,Pin_3*%
%TO.N,+6V*%
X91744800Y-68935600D03*
%TO.P,J1,4,Pin_4*%
%TO.N,GND*%
X91744800Y-71475600D03*
%TD*%
D10*
%TO.P,J3,1,Pin_1*%
%TO.N,+12V*%
X91948000Y-76962000D03*
D11*
%TO.P,J3,2,Pin_2*%
%TO.N,unconnected-(J3-Pin_2-Pad2)*%
X91948000Y-79502000D03*
%TO.P,J3,3,Pin_3*%
%TO.N,+6V*%
X91948000Y-82042000D03*
%TO.P,J3,4,Pin_4*%
%TO.N,GND*%
X91948000Y-84582000D03*
%TD*%
D12*
%TO.P,J6,1,Pin_1*%
%TO.N,GND*%
X84604300Y-91495800D03*
D11*
%TO.P,J6,2,Pin_2*%
%TO.N,+12V*%
X84604300Y-88955800D03*
%TD*%
D10*
%TO.P,J2,1,Pin_1*%
%TO.N,+12V*%
X91694000Y-96012000D03*
D11*
%TO.P,J2,2,Pin_2*%
%TO.N,GNDREF*%
X91694000Y-98552000D03*
%TO.P,J2,3,Pin_3*%
%TO.N,unconnected-(J2-Pin_3-Pad3)*%
X91694000Y-101092000D03*
%TO.P,J2,4,Pin_4*%
%TO.N,GND*%
X91694000Y-103632000D03*
%TD*%
D10*
%TO.P,J5,1,Pin_1*%
%TO.N,Net-(J5-Pin_1)*%
X104140000Y-78486000D03*
D11*
%TO.P,J5,2*%
%TO.N,N/C*%
X104140000Y-81026000D03*
%TD*%
D10*
%TO.P,J4,1,Pin_1*%
%TO.N,Net-(J4-Pin_1)*%
X104140000Y-66035000D03*
D11*
%TO.P,J4,2*%
%TO.N,N/C*%
X104140000Y-68575000D03*
%TD*%
D13*
%TO.N,+12V*%
X120650000Y-83566000D03*
X123190000Y-95504000D03*
%TO.N,GNDREF*%
X123190000Y-98552000D03*
%TO.N,+12V*%
X84582000Y-83566000D03*
X87122000Y-95504000D03*
%TO.N,GNDREF*%
X87122000Y-98552000D03*
%TD*%
D14*
%TO.N,GNDREF*%
X123190000Y-98552000D02*
X127762000Y-98552000D01*
%TO.N,+12V*%
X123444000Y-95504000D02*
X127254000Y-95504000D01*
X120650000Y-71018400D02*
X127812800Y-63855600D01*
X120650000Y-83566000D02*
X120650000Y-71018400D01*
X127254000Y-76962000D02*
X128016000Y-76962000D01*
X127254000Y-95504000D02*
X127762000Y-96012000D01*
X120650000Y-83566000D02*
X127254000Y-76962000D01*
X91186000Y-76962000D02*
X91948000Y-76962000D01*
X84582000Y-83566000D02*
X91186000Y-76962000D01*
X87376000Y-95504000D02*
X91186000Y-95504000D01*
X84582000Y-83566000D02*
X84582000Y-71018400D01*
X84582000Y-71018400D02*
X91744800Y-63855600D01*
X91186000Y-95504000D02*
X91694000Y-96012000D01*
%TO.N,GNDREF*%
X87122000Y-98552000D02*
X91694000Y-98552000D01*
%TD*%
%TA.AperFunction,Conductor*%
%TO.N,GND*%
G36*
X105106539Y-61480185D02*
G01*
X105152294Y-61532989D01*
X105163500Y-61584500D01*
X105163500Y-64420018D01*
X105143815Y-64487057D01*
X105091011Y-64532812D01*
X105026898Y-64543376D01*
X104940011Y-64534500D01*
X103339998Y-64534500D01*
X103339981Y-64534501D01*
X103237203Y-64545000D01*
X103237200Y-64545001D01*
X103070668Y-64600185D01*
X103070663Y-64600187D01*
X102921342Y-64692289D01*
X102797289Y-64816342D01*
X102705187Y-64965663D01*
X102705186Y-64965666D01*
X102650001Y-65132203D01*
X102650001Y-65132204D01*
X102650000Y-65132204D01*
X102639500Y-65234983D01*
X102639500Y-66835001D01*
X102639501Y-66835018D01*
X102650000Y-66937796D01*
X102650001Y-66937799D01*
X102705185Y-67104331D01*
X102705186Y-67104334D01*
X102797288Y-67253656D01*
X102921344Y-67377712D01*
X102963102Y-67403468D01*
X102969656Y-67407511D01*
X103016381Y-67459459D01*
X103027604Y-67528421D01*
X102999760Y-67592504D01*
X102998615Y-67593759D01*
X102998647Y-67593786D01*
X102995485Y-67597487D01*
X102995483Y-67597490D01*
X102978683Y-67620613D01*
X102856657Y-67788566D01*
X102749433Y-67999003D01*
X102676446Y-68223631D01*
X102639500Y-68456902D01*
X102639500Y-68693097D01*
X102676446Y-68926368D01*
X102749433Y-69150996D01*
X102818715Y-69286968D01*
X102856657Y-69361433D01*
X102995483Y-69552510D01*
X103162490Y-69719517D01*
X103353567Y-69858343D01*
X103452991Y-69909002D01*
X103564003Y-69965566D01*
X103564005Y-69965566D01*
X103564008Y-69965568D01*
X103684412Y-70004689D01*
X103788631Y-70038553D01*
X104021903Y-70075500D01*
X104021908Y-70075500D01*
X104258097Y-70075500D01*
X104491368Y-70038553D01*
X104715992Y-69965568D01*
X104926433Y-69858343D01*
X104966614Y-69829149D01*
X105032420Y-69805669D01*
X105100474Y-69821494D01*
X105149169Y-69871599D01*
X105163500Y-69929467D01*
X105163500Y-76871018D01*
X105143815Y-76938057D01*
X105091011Y-76983812D01*
X105026898Y-76994376D01*
X104940011Y-76985500D01*
X103339998Y-76985500D01*
X103339981Y-76985501D01*
X103237203Y-76996000D01*
X103237200Y-76996001D01*
X103070668Y-77051185D01*
X103070663Y-77051187D01*
X102921342Y-77143289D01*
X102797289Y-77267342D01*
X102705187Y-77416663D01*
X102705186Y-77416666D01*
X102650001Y-77583203D01*
X102650001Y-77583204D01*
X102650000Y-77583204D01*
X102639500Y-77685983D01*
X102639500Y-79286001D01*
X102639501Y-79286018D01*
X102650000Y-79388796D01*
X102650001Y-79388799D01*
X102705185Y-79555331D01*
X102705186Y-79555334D01*
X102797288Y-79704656D01*
X102921344Y-79828712D01*
X102961318Y-79853368D01*
X102969656Y-79858511D01*
X103016381Y-79910459D01*
X103027604Y-79979421D01*
X102999760Y-80043504D01*
X102998615Y-80044759D01*
X102998647Y-80044786D01*
X102995485Y-80048487D01*
X102995483Y-80048490D01*
X102974046Y-80077996D01*
X102856657Y-80239566D01*
X102749433Y-80450003D01*
X102676446Y-80674631D01*
X102639500Y-80907902D01*
X102639500Y-81144097D01*
X102676446Y-81377368D01*
X102749433Y-81601996D01*
X102794596Y-81690632D01*
X102856657Y-81812433D01*
X102995483Y-82003510D01*
X103162490Y-82170517D01*
X103353567Y-82309343D01*
X103452991Y-82360002D01*
X103564003Y-82416566D01*
X103564005Y-82416566D01*
X103564008Y-82416568D01*
X103684412Y-82455689D01*
X103788631Y-82489553D01*
X104021903Y-82526500D01*
X104021908Y-82526500D01*
X104258097Y-82526500D01*
X104491368Y-82489553D01*
X104715992Y-82416568D01*
X104926433Y-82309343D01*
X104966614Y-82280149D01*
X105032420Y-82256669D01*
X105100474Y-82272494D01*
X105149169Y-82322599D01*
X105163500Y-82380467D01*
X105163500Y-107071500D01*
X105143815Y-107138539D01*
X105091011Y-107184294D01*
X105039500Y-107195500D01*
X76316500Y-107195500D01*
X76249461Y-107175815D01*
X76203706Y-107123011D01*
X76192500Y-107071500D01*
X76192500Y-95417389D01*
X86021500Y-95417389D01*
X86021500Y-95590611D01*
X86048598Y-95761701D01*
X86102127Y-95926445D01*
X86180768Y-96080788D01*
X86282586Y-96220928D01*
X86405072Y-96343414D01*
X86545212Y-96445232D01*
X86699555Y-96523873D01*
X86864299Y-96577402D01*
X87035389Y-96604500D01*
X87035390Y-96604500D01*
X87208610Y-96604500D01*
X87208611Y-96604500D01*
X87379701Y-96577402D01*
X87544445Y-96523873D01*
X87698788Y-96445232D01*
X87838928Y-96343414D01*
X87891523Y-96290819D01*
X87952846Y-96257334D01*
X87979204Y-96254500D01*
X90069501Y-96254500D01*
X90136540Y-96274185D01*
X90182295Y-96326989D01*
X90193501Y-96378500D01*
X90193501Y-96812018D01*
X90204000Y-96914796D01*
X90204001Y-96914799D01*
X90259185Y-97081331D01*
X90259186Y-97081334D01*
X90351288Y-97230656D01*
X90475344Y-97354712D01*
X90517102Y-97380468D01*
X90523656Y-97384511D01*
X90570381Y-97436459D01*
X90581604Y-97505421D01*
X90558624Y-97563285D01*
X90552990Y-97570982D01*
X90549483Y-97574490D01*
X90421448Y-97750713D01*
X90421433Y-97750735D01*
X90393838Y-97771859D01*
X90366357Y-97793051D01*
X90366093Y-97793100D01*
X90365954Y-97793207D01*
X90365192Y-97793269D01*
X90321369Y-97801500D01*
X87979204Y-97801500D01*
X87912165Y-97781815D01*
X87891523Y-97765181D01*
X87838930Y-97712588D01*
X87838928Y-97712586D01*
X87698788Y-97610768D01*
X87544445Y-97532127D01*
X87379701Y-97478598D01*
X87379699Y-97478597D01*
X87379698Y-97478597D01*
X87248271Y-97457781D01*
X87208611Y-97451500D01*
X87035389Y-97451500D01*
X86995728Y-97457781D01*
X86864302Y-97478597D01*
X86699552Y-97532128D01*
X86545211Y-97610768D01*
X86465256Y-97668859D01*
X86405072Y-97712586D01*
X86405070Y-97712588D01*
X86405069Y-97712588D01*
X86282588Y-97835069D01*
X86282588Y-97835070D01*
X86282586Y-97835072D01*
X86238859Y-97895256D01*
X86180768Y-97975211D01*
X86102128Y-98129552D01*
X86102127Y-98129554D01*
X86102127Y-98129555D01*
X86075362Y-98211927D01*
X86048597Y-98294302D01*
X86026487Y-98433902D01*
X86021500Y-98465389D01*
X86021500Y-98638611D01*
X86048598Y-98809701D01*
X86102127Y-98974445D01*
X86180768Y-99128788D01*
X86282586Y-99268928D01*
X86405072Y-99391414D01*
X86545212Y-99493232D01*
X86699555Y-99571873D01*
X86864299Y-99625402D01*
X87035389Y-99652500D01*
X87035390Y-99652500D01*
X87208610Y-99652500D01*
X87208611Y-99652500D01*
X87379701Y-99625402D01*
X87544445Y-99571873D01*
X87698788Y-99493232D01*
X87838928Y-99391414D01*
X87891523Y-99338819D01*
X87952846Y-99305334D01*
X87979204Y-99302500D01*
X90321369Y-99302500D01*
X90388408Y-99322185D01*
X90421685Y-99353613D01*
X90549483Y-99529510D01*
X90716490Y-99696517D01*
X90751127Y-99721683D01*
X90793792Y-99777013D01*
X90799771Y-99846626D01*
X90767165Y-99908421D01*
X90751130Y-99922315D01*
X90733365Y-99935222D01*
X90716488Y-99947484D01*
X90549485Y-100114487D01*
X90549485Y-100114488D01*
X90549483Y-100114490D01*
X90489862Y-100196550D01*
X90410657Y-100305566D01*
X90303433Y-100516003D01*
X90230446Y-100740631D01*
X90193500Y-100973902D01*
X90193500Y-101210097D01*
X90230446Y-101443368D01*
X90303433Y-101667996D01*
X90410657Y-101878433D01*
X90549483Y-102069510D01*
X90716490Y-102236517D01*
X90775716Y-102279547D01*
X90818381Y-102334875D01*
X90826448Y-102389593D01*
X90824893Y-102409340D01*
X91482941Y-103067387D01*
X91462409Y-103072889D01*
X91325592Y-103151881D01*
X91213881Y-103263592D01*
X91134889Y-103400409D01*
X91129387Y-103420941D01*
X90471340Y-102762894D01*
X90411084Y-102845830D01*
X90303897Y-103056197D01*
X90230934Y-103280752D01*
X90194000Y-103513947D01*
X90194000Y-103750052D01*
X90230934Y-103983247D01*
X90303897Y-104207802D01*
X90411087Y-104418174D01*
X90471338Y-104501104D01*
X90471340Y-104501105D01*
X91129387Y-103843058D01*
X91134889Y-103863591D01*
X91213881Y-104000408D01*
X91325592Y-104112119D01*
X91462409Y-104191111D01*
X91482940Y-104196612D01*
X90824893Y-104854658D01*
X90907828Y-104914914D01*
X91118197Y-105022102D01*
X91342752Y-105095065D01*
X91342751Y-105095065D01*
X91575948Y-105132000D01*
X91812052Y-105132000D01*
X92045247Y-105095065D01*
X92269802Y-105022102D01*
X92480163Y-104914918D01*
X92480169Y-104914914D01*
X92563104Y-104854658D01*
X92563105Y-104854658D01*
X91905058Y-104196612D01*
X91925591Y-104191111D01*
X92062408Y-104112119D01*
X92174119Y-104000408D01*
X92253111Y-103863591D01*
X92258612Y-103843059D01*
X92916658Y-104501105D01*
X92916658Y-104501104D01*
X92976914Y-104418169D01*
X92976918Y-104418163D01*
X93084102Y-104207802D01*
X93157065Y-103983247D01*
X93194000Y-103750052D01*
X93194000Y-103513947D01*
X93157065Y-103280752D01*
X93084102Y-103056197D01*
X92976914Y-102845828D01*
X92916658Y-102762894D01*
X92916658Y-102762893D01*
X92258612Y-103420940D01*
X92253111Y-103400409D01*
X92174119Y-103263592D01*
X92062408Y-103151881D01*
X91925591Y-103072889D01*
X91905059Y-103067387D01*
X92563105Y-102409340D01*
X92561551Y-102389594D01*
X92575915Y-102321216D01*
X92612284Y-102279547D01*
X92671510Y-102236517D01*
X92838517Y-102069510D01*
X92977343Y-101878433D01*
X93084568Y-101667992D01*
X93157553Y-101443368D01*
X93194500Y-101210097D01*
X93194500Y-100973902D01*
X93157553Y-100740631D01*
X93084566Y-100516003D01*
X92977342Y-100305566D01*
X92838517Y-100114490D01*
X92671510Y-99947483D01*
X92636872Y-99922317D01*
X92594207Y-99866989D01*
X92588228Y-99797375D01*
X92620833Y-99735580D01*
X92636873Y-99721682D01*
X92671510Y-99696517D01*
X92838517Y-99529510D01*
X92977343Y-99338433D01*
X93084568Y-99127992D01*
X93157553Y-98903368D01*
X93194500Y-98670097D01*
X93194500Y-98433902D01*
X93157553Y-98200631D01*
X93084566Y-97976003D01*
X93028002Y-97864991D01*
X92977343Y-97765567D01*
X92838517Y-97574490D01*
X92838508Y-97574481D01*
X92835353Y-97570786D01*
X92837134Y-97569264D01*
X92808273Y-97516408D01*
X92813257Y-97446716D01*
X92855129Y-97390783D01*
X92864334Y-97384516D01*
X92912656Y-97354712D01*
X93036712Y-97230656D01*
X93128814Y-97081334D01*
X93183999Y-96914797D01*
X93194500Y-96812009D01*
X93194499Y-95211992D01*
X93183999Y-95109203D01*
X93128814Y-94942666D01*
X93036712Y-94793344D01*
X92912656Y-94669288D01*
X92763334Y-94577186D01*
X92596797Y-94522001D01*
X92596795Y-94522000D01*
X92494010Y-94511500D01*
X90893998Y-94511500D01*
X90893981Y-94511501D01*
X90791203Y-94522000D01*
X90791200Y-94522001D01*
X90624668Y-94577185D01*
X90624663Y-94577187D01*
X90475342Y-94669289D01*
X90427451Y-94717181D01*
X90366128Y-94750666D01*
X90339770Y-94753500D01*
X87979204Y-94753500D01*
X87912165Y-94733815D01*
X87891523Y-94717181D01*
X87838930Y-94664588D01*
X87838928Y-94664586D01*
X87698788Y-94562768D01*
X87544445Y-94484127D01*
X87379701Y-94430598D01*
X87379699Y-94430597D01*
X87379698Y-94430597D01*
X87248271Y-94409781D01*
X87208611Y-94403500D01*
X87035389Y-94403500D01*
X86995728Y-94409781D01*
X86864302Y-94430597D01*
X86699552Y-94484128D01*
X86545211Y-94562768D01*
X86465256Y-94620859D01*
X86405072Y-94664586D01*
X86405070Y-94664588D01*
X86405069Y-94664588D01*
X86282588Y-94787069D01*
X86282588Y-94787070D01*
X86282586Y-94787072D01*
X86238859Y-94847256D01*
X86180768Y-94927211D01*
X86102128Y-95081552D01*
X86048597Y-95246302D01*
X86021500Y-95417389D01*
X76192500Y-95417389D01*
X76192500Y-88837702D01*
X83103800Y-88837702D01*
X83103800Y-89073897D01*
X83140746Y-89307168D01*
X83213733Y-89531796D01*
X83225873Y-89555621D01*
X83320957Y-89742233D01*
X83459783Y-89933310D01*
X83459789Y-89933316D01*
X83462947Y-89937014D01*
X83461277Y-89938440D01*
X83490389Y-89991754D01*
X83485405Y-90061446D01*
X83443533Y-90117379D01*
X83434322Y-90123650D01*
X83385954Y-90153484D01*
X83261984Y-90277454D01*
X83169943Y-90426675D01*
X83169941Y-90426680D01*
X83114794Y-90593102D01*
X83114793Y-90593109D01*
X83104300Y-90695813D01*
X83104300Y-91245800D01*
X84055818Y-91245800D01*
X84045189Y-91264209D01*
X84004300Y-91416809D01*
X84004300Y-91574791D01*
X84045189Y-91727391D01*
X84055818Y-91745800D01*
X83104301Y-91745800D01*
X83104301Y-92295786D01*
X83114794Y-92398497D01*
X83169941Y-92564919D01*
X83169943Y-92564924D01*
X83261984Y-92714145D01*
X83385954Y-92838115D01*
X83535175Y-92930156D01*
X83535180Y-92930158D01*
X83701602Y-92985305D01*
X83701609Y-92985306D01*
X83804319Y-92995799D01*
X84354299Y-92995799D01*
X84354300Y-92995798D01*
X84354300Y-92044282D01*
X84372709Y-92054911D01*
X84525309Y-92095800D01*
X84683291Y-92095800D01*
X84835891Y-92054911D01*
X84854300Y-92044282D01*
X84854300Y-92995799D01*
X85404272Y-92995799D01*
X85404286Y-92995798D01*
X85506997Y-92985305D01*
X85673419Y-92930158D01*
X85673424Y-92930156D01*
X85822645Y-92838115D01*
X85946615Y-92714145D01*
X86038656Y-92564924D01*
X86038658Y-92564919D01*
X86093805Y-92398497D01*
X86093806Y-92398490D01*
X86104299Y-92295786D01*
X86104300Y-92295773D01*
X86104300Y-91745800D01*
X85152782Y-91745800D01*
X85163411Y-91727391D01*
X85204300Y-91574791D01*
X85204300Y-91416809D01*
X85163411Y-91264209D01*
X85152782Y-91245800D01*
X86104299Y-91245800D01*
X86104299Y-90695828D01*
X86104298Y-90695813D01*
X86093805Y-90593102D01*
X86038658Y-90426680D01*
X86038656Y-90426675D01*
X85946615Y-90277454D01*
X85822644Y-90153483D01*
X85822640Y-90153480D01*
X85808414Y-90144705D01*
X85808413Y-90144705D01*
X85774280Y-90123652D01*
X85727555Y-90071705D01*
X85723052Y-90044038D01*
X90093500Y-90044038D01*
X90093500Y-90295961D01*
X90132910Y-90544785D01*
X90210760Y-90784383D01*
X90325132Y-91008848D01*
X90473201Y-91212649D01*
X90473205Y-91212654D01*
X90651345Y-91390794D01*
X90651350Y-91390798D01*
X90829117Y-91519952D01*
X90855155Y-91538870D01*
X90998184Y-91611747D01*
X91079616Y-91653239D01*
X91079618Y-91653239D01*
X91079621Y-91653241D01*
X91319215Y-91731090D01*
X91568038Y-91770500D01*
X91568039Y-91770500D01*
X91819961Y-91770500D01*
X91819962Y-91770500D01*
X92068785Y-91731090D01*
X92308379Y-91653241D01*
X92532845Y-91538870D01*
X92736656Y-91390793D01*
X92914793Y-91212656D01*
X93062870Y-91008845D01*
X93177241Y-90784379D01*
X93255090Y-90544785D01*
X93294500Y-90295962D01*
X93294500Y-90044038D01*
X93255090Y-89795215D01*
X93177241Y-89555621D01*
X93177239Y-89555618D01*
X93177239Y-89555616D01*
X93135747Y-89474184D01*
X93062870Y-89331155D01*
X93043952Y-89305117D01*
X92914798Y-89127350D01*
X92914794Y-89127345D01*
X92736654Y-88949205D01*
X92736649Y-88949201D01*
X92532848Y-88801132D01*
X92532847Y-88801131D01*
X92532845Y-88801130D01*
X92462747Y-88765413D01*
X92308383Y-88686760D01*
X92068785Y-88608910D01*
X92040506Y-88604431D01*
X91819962Y-88569500D01*
X91568038Y-88569500D01*
X91443626Y-88589205D01*
X91319214Y-88608910D01*
X91079616Y-88686760D01*
X90855151Y-88801132D01*
X90651350Y-88949201D01*
X90651345Y-88949205D01*
X90473205Y-89127345D01*
X90473201Y-89127350D01*
X90325132Y-89331151D01*
X90210760Y-89555616D01*
X90132910Y-89795214D01*
X90093500Y-90044038D01*
X85723052Y-90044038D01*
X85716332Y-90002742D01*
X85744175Y-89938660D01*
X85745662Y-89937033D01*
X85745648Y-89937021D01*
X85748811Y-89933316D01*
X85748817Y-89933310D01*
X85887643Y-89742233D01*
X85994868Y-89531792D01*
X86067853Y-89307168D01*
X86104800Y-89073897D01*
X86104800Y-88837702D01*
X86067853Y-88604431D01*
X85994866Y-88379803D01*
X85887642Y-88169366D01*
X85748817Y-87978290D01*
X85581810Y-87811283D01*
X85390733Y-87672457D01*
X85180296Y-87565233D01*
X84955668Y-87492246D01*
X84722397Y-87455300D01*
X84722392Y-87455300D01*
X84486208Y-87455300D01*
X84486203Y-87455300D01*
X84252931Y-87492246D01*
X84028303Y-87565233D01*
X83817866Y-87672457D01*
X83708850Y-87751662D01*
X83626790Y-87811283D01*
X83626788Y-87811285D01*
X83626787Y-87811285D01*
X83459785Y-87978287D01*
X83459785Y-87978288D01*
X83459783Y-87978290D01*
X83400162Y-88060350D01*
X83320957Y-88169366D01*
X83213733Y-88379803D01*
X83140746Y-88604431D01*
X83103800Y-88837702D01*
X76192500Y-88837702D01*
X76192500Y-83479389D01*
X83481500Y-83479389D01*
X83481500Y-83652610D01*
X83504183Y-83795830D01*
X83508598Y-83823701D01*
X83562127Y-83988445D01*
X83640768Y-84142788D01*
X83742586Y-84282928D01*
X83865072Y-84405414D01*
X84005212Y-84507232D01*
X84159555Y-84585873D01*
X84324299Y-84639402D01*
X84495389Y-84666500D01*
X84495390Y-84666500D01*
X84668610Y-84666500D01*
X84668611Y-84666500D01*
X84839701Y-84639402D01*
X85004445Y-84585873D01*
X85158788Y-84507232D01*
X85298928Y-84405414D01*
X85421414Y-84282928D01*
X85523232Y-84142788D01*
X85601873Y-83988445D01*
X85655402Y-83823701D01*
X85682500Y-83652611D01*
X85682500Y-83578228D01*
X85702185Y-83511189D01*
X85718814Y-83490552D01*
X90324128Y-78885237D01*
X90385449Y-78851754D01*
X90455141Y-78856738D01*
X90511074Y-78898610D01*
X90535491Y-78964074D01*
X90529738Y-79011238D01*
X90484447Y-79150627D01*
X90484447Y-79150630D01*
X90447500Y-79383902D01*
X90447500Y-79620097D01*
X90484446Y-79853368D01*
X90557433Y-80077996D01*
X90664657Y-80288433D01*
X90803483Y-80479510D01*
X90970490Y-80646517D01*
X91005127Y-80671683D01*
X91047792Y-80727013D01*
X91053771Y-80796626D01*
X91021165Y-80858421D01*
X91005130Y-80872315D01*
X90987365Y-80885222D01*
X90970488Y-80897484D01*
X90803485Y-81064487D01*
X90803485Y-81064488D01*
X90803483Y-81064490D01*
X90745649Y-81144092D01*
X90664657Y-81255566D01*
X90557433Y-81466003D01*
X90484446Y-81690631D01*
X90447500Y-81923902D01*
X90447500Y-82160097D01*
X90484446Y-82393368D01*
X90557433Y-82617996D01*
X90664657Y-82828433D01*
X90803483Y-83019510D01*
X90970490Y-83186517D01*
X91029716Y-83229547D01*
X91072381Y-83284875D01*
X91080448Y-83339593D01*
X91078893Y-83359340D01*
X91736941Y-84017387D01*
X91716409Y-84022889D01*
X91579592Y-84101881D01*
X91467881Y-84213592D01*
X91388889Y-84350409D01*
X91383387Y-84370941D01*
X90725340Y-83712894D01*
X90665084Y-83795830D01*
X90557897Y-84006197D01*
X90484934Y-84230752D01*
X90448000Y-84463947D01*
X90448000Y-84700052D01*
X90484934Y-84933247D01*
X90557897Y-85157802D01*
X90665087Y-85368174D01*
X90725338Y-85451104D01*
X90725340Y-85451105D01*
X91383387Y-84793058D01*
X91388889Y-84813591D01*
X91467881Y-84950408D01*
X91579592Y-85062119D01*
X91716409Y-85141111D01*
X91736940Y-85146612D01*
X91078893Y-85804658D01*
X91161828Y-85864914D01*
X91372197Y-85972102D01*
X91596752Y-86045065D01*
X91596751Y-86045065D01*
X91829948Y-86082000D01*
X92066052Y-86082000D01*
X92299247Y-86045065D01*
X92523802Y-85972102D01*
X92734163Y-85864918D01*
X92734169Y-85864914D01*
X92817104Y-85804658D01*
X92817105Y-85804658D01*
X92159058Y-85146612D01*
X92179591Y-85141111D01*
X92316408Y-85062119D01*
X92428119Y-84950408D01*
X92507111Y-84813591D01*
X92512612Y-84793059D01*
X93170658Y-85451105D01*
X93170658Y-85451104D01*
X93230914Y-85368169D01*
X93230918Y-85368163D01*
X93338102Y-85157802D01*
X93411065Y-84933247D01*
X93448000Y-84700052D01*
X93448000Y-84463947D01*
X93411065Y-84230752D01*
X93338102Y-84006197D01*
X93230914Y-83795828D01*
X93170658Y-83712894D01*
X93170658Y-83712893D01*
X92512612Y-84370940D01*
X92507111Y-84350409D01*
X92428119Y-84213592D01*
X92316408Y-84101881D01*
X92179591Y-84022889D01*
X92159059Y-84017387D01*
X92817105Y-83359340D01*
X92815551Y-83339594D01*
X92829915Y-83271216D01*
X92866284Y-83229547D01*
X92925510Y-83186517D01*
X93092517Y-83019510D01*
X93231343Y-82828433D01*
X93338568Y-82617992D01*
X93411553Y-82393368D01*
X93424861Y-82309343D01*
X93448500Y-82160097D01*
X93448500Y-81923902D01*
X93411553Y-81690631D01*
X93338566Y-81466003D01*
X93231342Y-81255566D01*
X93092517Y-81064490D01*
X92925510Y-80897483D01*
X92890872Y-80872317D01*
X92848207Y-80816989D01*
X92842228Y-80747375D01*
X92874833Y-80685580D01*
X92890873Y-80671682D01*
X92925510Y-80646517D01*
X93092517Y-80479510D01*
X93231343Y-80288433D01*
X93338568Y-80077992D01*
X93411553Y-79853368D01*
X93415458Y-79828711D01*
X93448500Y-79620097D01*
X93448500Y-79383902D01*
X93411553Y-79150631D01*
X93338566Y-78926003D01*
X93231342Y-78715566D01*
X93092517Y-78524490D01*
X93092508Y-78524481D01*
X93089353Y-78520786D01*
X93091134Y-78519264D01*
X93062273Y-78466408D01*
X93067257Y-78396716D01*
X93109129Y-78340783D01*
X93118334Y-78334516D01*
X93166656Y-78304712D01*
X93290712Y-78180656D01*
X93382814Y-78031334D01*
X93437999Y-77864797D01*
X93448500Y-77762009D01*
X93448499Y-76161992D01*
X93437999Y-76059203D01*
X93382814Y-75892666D01*
X93290712Y-75743344D01*
X93166656Y-75619288D01*
X93017334Y-75527186D01*
X92850797Y-75472001D01*
X92850795Y-75472000D01*
X92748010Y-75461500D01*
X91147998Y-75461500D01*
X91147981Y-75461501D01*
X91045203Y-75472000D01*
X91045200Y-75472001D01*
X90878668Y-75527185D01*
X90878663Y-75527187D01*
X90729342Y-75619289D01*
X90605289Y-75743342D01*
X90513187Y-75892663D01*
X90513186Y-75892666D01*
X90458001Y-76059203D01*
X90458001Y-76059204D01*
X90458000Y-76059204D01*
X90447500Y-76161983D01*
X90447500Y-76587770D01*
X90427815Y-76654809D01*
X90411181Y-76675451D01*
X85544181Y-81542451D01*
X85482858Y-81575936D01*
X85413166Y-81570952D01*
X85357233Y-81529080D01*
X85332816Y-81463616D01*
X85332500Y-81454770D01*
X85332500Y-71380630D01*
X85341144Y-71351189D01*
X85347668Y-71321203D01*
X85351422Y-71316187D01*
X85352185Y-71313591D01*
X85368819Y-71292949D01*
X85396774Y-71264994D01*
X87608076Y-69053692D01*
X90059061Y-66602706D01*
X90120382Y-66569223D01*
X90190074Y-66574207D01*
X90246007Y-66616079D01*
X90269213Y-66670991D01*
X90281246Y-66746968D01*
X90354233Y-66971596D01*
X90421867Y-67104334D01*
X90461457Y-67182033D01*
X90600283Y-67373110D01*
X90767290Y-67540117D01*
X90801927Y-67565283D01*
X90844592Y-67620613D01*
X90850571Y-67690226D01*
X90817965Y-67752021D01*
X90801930Y-67765915D01*
X90784165Y-67778822D01*
X90767288Y-67791084D01*
X90600285Y-67958087D01*
X90600285Y-67958088D01*
X90600283Y-67958090D01*
X90540662Y-68040150D01*
X90461457Y-68149166D01*
X90354233Y-68359603D01*
X90281246Y-68584231D01*
X90244300Y-68817502D01*
X90244300Y-69053697D01*
X90281246Y-69286968D01*
X90354233Y-69511596D01*
X90460175Y-69719517D01*
X90461457Y-69722033D01*
X90600283Y-69913110D01*
X90767290Y-70080117D01*
X90826516Y-70123147D01*
X90869181Y-70178475D01*
X90877248Y-70233193D01*
X90875693Y-70252940D01*
X91533741Y-70910987D01*
X91513209Y-70916489D01*
X91376392Y-70995481D01*
X91264681Y-71107192D01*
X91185689Y-71244009D01*
X91180187Y-71264541D01*
X90522140Y-70606494D01*
X90461884Y-70689430D01*
X90354697Y-70899797D01*
X90281734Y-71124352D01*
X90244800Y-71357547D01*
X90244800Y-71593652D01*
X90281734Y-71826847D01*
X90354697Y-72051402D01*
X90461887Y-72261774D01*
X90522138Y-72344704D01*
X90522140Y-72344705D01*
X91180187Y-71686658D01*
X91185689Y-71707191D01*
X91264681Y-71844008D01*
X91376392Y-71955719D01*
X91513209Y-72034711D01*
X91533740Y-72040212D01*
X90875693Y-72698258D01*
X90958628Y-72758514D01*
X91168997Y-72865702D01*
X91393552Y-72938665D01*
X91393551Y-72938665D01*
X91626748Y-72975600D01*
X91862852Y-72975600D01*
X92096047Y-72938665D01*
X92320602Y-72865702D01*
X92530963Y-72758518D01*
X92530969Y-72758514D01*
X92613904Y-72698258D01*
X92613905Y-72698258D01*
X91955858Y-72040212D01*
X91976391Y-72034711D01*
X92113208Y-71955719D01*
X92224919Y-71844008D01*
X92303911Y-71707191D01*
X92309412Y-71686659D01*
X92967458Y-72344705D01*
X92967458Y-72344704D01*
X93027714Y-72261769D01*
X93027718Y-72261763D01*
X93134902Y-72051402D01*
X93207865Y-71826847D01*
X93244800Y-71593652D01*
X93244800Y-71357547D01*
X93207865Y-71124352D01*
X93134902Y-70899797D01*
X93027714Y-70689428D01*
X92967458Y-70606494D01*
X92967458Y-70606493D01*
X92309412Y-71264540D01*
X92303911Y-71244009D01*
X92224919Y-71107192D01*
X92113208Y-70995481D01*
X91976391Y-70916489D01*
X91955859Y-70910987D01*
X92613905Y-70252940D01*
X92612351Y-70233194D01*
X92626715Y-70164816D01*
X92663084Y-70123147D01*
X92722310Y-70080117D01*
X92889317Y-69913110D01*
X93028143Y-69722033D01*
X93135368Y-69511592D01*
X93208353Y-69286968D01*
X93229889Y-69150996D01*
X93245300Y-69053697D01*
X93245300Y-68817502D01*
X93208353Y-68584231D01*
X93135366Y-68359603D01*
X93028142Y-68149166D01*
X92889317Y-67958090D01*
X92722310Y-67791083D01*
X92687672Y-67765917D01*
X92645007Y-67710589D01*
X92639028Y-67640975D01*
X92671633Y-67579180D01*
X92687673Y-67565282D01*
X92722310Y-67540117D01*
X92889317Y-67373110D01*
X93028143Y-67182033D01*
X93135368Y-66971592D01*
X93208353Y-66746968D01*
X93245300Y-66513697D01*
X93245300Y-66277502D01*
X93208353Y-66044231D01*
X93135366Y-65819603D01*
X93028142Y-65609166D01*
X92889317Y-65418090D01*
X92889308Y-65418081D01*
X92886153Y-65414386D01*
X92887934Y-65412864D01*
X92859073Y-65360008D01*
X92864057Y-65290316D01*
X92905929Y-65234383D01*
X92915134Y-65228116D01*
X92963456Y-65198312D01*
X93087512Y-65074256D01*
X93179614Y-64924934D01*
X93234799Y-64758397D01*
X93245300Y-64655609D01*
X93245299Y-63055592D01*
X93234799Y-62952803D01*
X93179614Y-62786266D01*
X93087512Y-62636944D01*
X92963456Y-62512888D01*
X92814134Y-62420786D01*
X92647597Y-62365601D01*
X92647595Y-62365600D01*
X92544810Y-62355100D01*
X90944798Y-62355100D01*
X90944781Y-62355101D01*
X90842003Y-62365600D01*
X90842000Y-62365601D01*
X90675468Y-62420785D01*
X90675463Y-62420787D01*
X90526142Y-62512889D01*
X90402089Y-62636942D01*
X90309987Y-62786263D01*
X90309986Y-62786266D01*
X90254801Y-62952803D01*
X90254801Y-62952804D01*
X90254800Y-62952804D01*
X90244300Y-63055583D01*
X90244300Y-64243369D01*
X90224615Y-64310408D01*
X90207981Y-64331050D01*
X83999050Y-70539980D01*
X83999044Y-70539988D01*
X83949812Y-70613668D01*
X83949813Y-70613669D01*
X83916921Y-70662896D01*
X83916914Y-70662908D01*
X83860342Y-70799486D01*
X83860340Y-70799492D01*
X83831500Y-70944479D01*
X83831500Y-82708796D01*
X83811815Y-82775835D01*
X83795181Y-82796477D01*
X83742588Y-82849069D01*
X83742588Y-82849070D01*
X83742586Y-82849072D01*
X83698859Y-82909256D01*
X83640768Y-82989211D01*
X83562128Y-83143552D01*
X83508597Y-83308302D01*
X83481500Y-83479389D01*
X76192500Y-83479389D01*
X76192500Y-61584500D01*
X76212185Y-61517461D01*
X76264989Y-61471706D01*
X76316500Y-61460500D01*
X105039500Y-61460500D01*
X105106539Y-61480185D01*
G37*
%TD.AperFunction*%
%TA.AperFunction,Conductor*%
G36*
X113284000Y-107195500D02*
G01*
X112384500Y-107195500D01*
X112317461Y-107175815D01*
X112271706Y-107123011D01*
X112260500Y-107071500D01*
X112260500Y-61584500D01*
X112280185Y-61517461D01*
X112332989Y-61471706D01*
X112384500Y-61460500D01*
X113284000Y-61460500D01*
X113284000Y-107195500D01*
G37*
%TD.AperFunction*%
%TD*%
%TA.AperFunction,Conductor*%
%TO.N,GND*%
G36*
X141174539Y-61480185D02*
G01*
X141220294Y-61532989D01*
X141231500Y-61584500D01*
X141231500Y-64420018D01*
X141211815Y-64487057D01*
X141159011Y-64532812D01*
X141094898Y-64543376D01*
X141008011Y-64534500D01*
X139407998Y-64534500D01*
X139407981Y-64534501D01*
X139305203Y-64545000D01*
X139305200Y-64545001D01*
X139138668Y-64600185D01*
X139138663Y-64600187D01*
X138989342Y-64692289D01*
X138865289Y-64816342D01*
X138773187Y-64965663D01*
X138773186Y-64965666D01*
X138718001Y-65132203D01*
X138718001Y-65132204D01*
X138718000Y-65132204D01*
X138707500Y-65234983D01*
X138707500Y-66835001D01*
X138707501Y-66835018D01*
X138718000Y-66937796D01*
X138718001Y-66937799D01*
X138773185Y-67104331D01*
X138773186Y-67104334D01*
X138865288Y-67253656D01*
X138989344Y-67377712D01*
X139031102Y-67403468D01*
X139037656Y-67407511D01*
X139084381Y-67459459D01*
X139095604Y-67528421D01*
X139067760Y-67592504D01*
X139066615Y-67593759D01*
X139066647Y-67593786D01*
X139063485Y-67597487D01*
X139063483Y-67597490D01*
X139046683Y-67620613D01*
X138924657Y-67788566D01*
X138817433Y-67999003D01*
X138744446Y-68223631D01*
X138707500Y-68456902D01*
X138707500Y-68693097D01*
X138744446Y-68926368D01*
X138817433Y-69150996D01*
X138886715Y-69286968D01*
X138924657Y-69361433D01*
X139063483Y-69552510D01*
X139230490Y-69719517D01*
X139421567Y-69858343D01*
X139520991Y-69909002D01*
X139632003Y-69965566D01*
X139632005Y-69965566D01*
X139632008Y-69965568D01*
X139752412Y-70004689D01*
X139856631Y-70038553D01*
X140089903Y-70075500D01*
X140089908Y-70075500D01*
X140326097Y-70075500D01*
X140559368Y-70038553D01*
X140783992Y-69965568D01*
X140994433Y-69858343D01*
X141034614Y-69829149D01*
X141100420Y-69805669D01*
X141168474Y-69821494D01*
X141217169Y-69871599D01*
X141231500Y-69929467D01*
X141231500Y-76871018D01*
X141211815Y-76938057D01*
X141159011Y-76983812D01*
X141094898Y-76994376D01*
X141008011Y-76985500D01*
X139407998Y-76985500D01*
X139407981Y-76985501D01*
X139305203Y-76996000D01*
X139305200Y-76996001D01*
X139138668Y-77051185D01*
X139138663Y-77051187D01*
X138989342Y-77143289D01*
X138865289Y-77267342D01*
X138773187Y-77416663D01*
X138773186Y-77416666D01*
X138718001Y-77583203D01*
X138718001Y-77583204D01*
X138718000Y-77583204D01*
X138707500Y-77685983D01*
X138707500Y-79286001D01*
X138707501Y-79286018D01*
X138718000Y-79388796D01*
X138718001Y-79388799D01*
X138773185Y-79555331D01*
X138773186Y-79555334D01*
X138865288Y-79704656D01*
X138989344Y-79828712D01*
X139029318Y-79853368D01*
X139037656Y-79858511D01*
X139084381Y-79910459D01*
X139095604Y-79979421D01*
X139067760Y-80043504D01*
X139066615Y-80044759D01*
X139066647Y-80044786D01*
X139063485Y-80048487D01*
X139063483Y-80048490D01*
X139042046Y-80077996D01*
X138924657Y-80239566D01*
X138817433Y-80450003D01*
X138744446Y-80674631D01*
X138707500Y-80907902D01*
X138707500Y-81144097D01*
X138744446Y-81377368D01*
X138817433Y-81601996D01*
X138862596Y-81690632D01*
X138924657Y-81812433D01*
X139063483Y-82003510D01*
X139230490Y-82170517D01*
X139421567Y-82309343D01*
X139520991Y-82360002D01*
X139632003Y-82416566D01*
X139632005Y-82416566D01*
X139632008Y-82416568D01*
X139752412Y-82455689D01*
X139856631Y-82489553D01*
X140089903Y-82526500D01*
X140089908Y-82526500D01*
X140326097Y-82526500D01*
X140559368Y-82489553D01*
X140783992Y-82416568D01*
X140994433Y-82309343D01*
X141034614Y-82280149D01*
X141100420Y-82256669D01*
X141168474Y-82272494D01*
X141217169Y-82322599D01*
X141231500Y-82380467D01*
X141231500Y-107071500D01*
X141211815Y-107138539D01*
X141159011Y-107184294D01*
X141107500Y-107195500D01*
X112384500Y-107195500D01*
X112317461Y-107175815D01*
X112271706Y-107123011D01*
X112260500Y-107071500D01*
X112260500Y-95417389D01*
X122089500Y-95417389D01*
X122089500Y-95590611D01*
X122116598Y-95761701D01*
X122170127Y-95926445D01*
X122248768Y-96080788D01*
X122350586Y-96220928D01*
X122473072Y-96343414D01*
X122613212Y-96445232D01*
X122767555Y-96523873D01*
X122932299Y-96577402D01*
X123103389Y-96604500D01*
X123103390Y-96604500D01*
X123276610Y-96604500D01*
X123276611Y-96604500D01*
X123447701Y-96577402D01*
X123612445Y-96523873D01*
X123766788Y-96445232D01*
X123906928Y-96343414D01*
X123959523Y-96290819D01*
X124020846Y-96257334D01*
X124047204Y-96254500D01*
X126137501Y-96254500D01*
X126204540Y-96274185D01*
X126250295Y-96326989D01*
X126261501Y-96378500D01*
X126261501Y-96812018D01*
X126272000Y-96914796D01*
X126272001Y-96914799D01*
X126327185Y-97081331D01*
X126327186Y-97081334D01*
X126419288Y-97230656D01*
X126543344Y-97354712D01*
X126585102Y-97380468D01*
X126591656Y-97384511D01*
X126638381Y-97436459D01*
X126649604Y-97505421D01*
X126626624Y-97563285D01*
X126620990Y-97570982D01*
X126617483Y-97574490D01*
X126489448Y-97750713D01*
X126489433Y-97750735D01*
X126461838Y-97771859D01*
X126434357Y-97793051D01*
X126434093Y-97793100D01*
X126433954Y-97793207D01*
X126433192Y-97793269D01*
X126389369Y-97801500D01*
X124047204Y-97801500D01*
X123980165Y-97781815D01*
X123959523Y-97765181D01*
X123906930Y-97712588D01*
X123906928Y-97712586D01*
X123766788Y-97610768D01*
X123612445Y-97532127D01*
X123447701Y-97478598D01*
X123447699Y-97478597D01*
X123447698Y-97478597D01*
X123316271Y-97457781D01*
X123276611Y-97451500D01*
X123103389Y-97451500D01*
X123063728Y-97457781D01*
X122932302Y-97478597D01*
X122767552Y-97532128D01*
X122613211Y-97610768D01*
X122533256Y-97668859D01*
X122473072Y-97712586D01*
X122473070Y-97712588D01*
X122473069Y-97712588D01*
X122350588Y-97835069D01*
X122350588Y-97835070D01*
X122350586Y-97835072D01*
X122306859Y-97895256D01*
X122248768Y-97975211D01*
X122170128Y-98129552D01*
X122170127Y-98129554D01*
X122170127Y-98129555D01*
X122143362Y-98211927D01*
X122116597Y-98294302D01*
X122094487Y-98433902D01*
X122089500Y-98465389D01*
X122089500Y-98638611D01*
X122116598Y-98809701D01*
X122170127Y-98974445D01*
X122248768Y-99128788D01*
X122350586Y-99268928D01*
X122473072Y-99391414D01*
X122613212Y-99493232D01*
X122767555Y-99571873D01*
X122932299Y-99625402D01*
X123103389Y-99652500D01*
X123103390Y-99652500D01*
X123276610Y-99652500D01*
X123276611Y-99652500D01*
X123447701Y-99625402D01*
X123612445Y-99571873D01*
X123766788Y-99493232D01*
X123906928Y-99391414D01*
X123959523Y-99338819D01*
X124020846Y-99305334D01*
X124047204Y-99302500D01*
X126389369Y-99302500D01*
X126456408Y-99322185D01*
X126489685Y-99353613D01*
X126617483Y-99529510D01*
X126784490Y-99696517D01*
X126819127Y-99721683D01*
X126861792Y-99777013D01*
X126867771Y-99846626D01*
X126835165Y-99908421D01*
X126819130Y-99922315D01*
X126801365Y-99935222D01*
X126784488Y-99947484D01*
X126617485Y-100114487D01*
X126617485Y-100114488D01*
X126617483Y-100114490D01*
X126557862Y-100196550D01*
X126478657Y-100305566D01*
X126371433Y-100516003D01*
X126298446Y-100740631D01*
X126261500Y-100973902D01*
X126261500Y-101210097D01*
X126298446Y-101443368D01*
X126371433Y-101667996D01*
X126478657Y-101878433D01*
X126617483Y-102069510D01*
X126784490Y-102236517D01*
X126843716Y-102279547D01*
X126886381Y-102334875D01*
X126894448Y-102389593D01*
X126892893Y-102409340D01*
X127550941Y-103067387D01*
X127530409Y-103072889D01*
X127393592Y-103151881D01*
X127281881Y-103263592D01*
X127202889Y-103400409D01*
X127197387Y-103420941D01*
X126539340Y-102762894D01*
X126479084Y-102845830D01*
X126371897Y-103056197D01*
X126298934Y-103280752D01*
X126262000Y-103513947D01*
X126262000Y-103750052D01*
X126298934Y-103983247D01*
X126371897Y-104207802D01*
X126479087Y-104418174D01*
X126539338Y-104501104D01*
X126539340Y-104501105D01*
X127197387Y-103843058D01*
X127202889Y-103863591D01*
X127281881Y-104000408D01*
X127393592Y-104112119D01*
X127530409Y-104191111D01*
X127550940Y-104196612D01*
X126892893Y-104854658D01*
X126975828Y-104914914D01*
X127186197Y-105022102D01*
X127410752Y-105095065D01*
X127410751Y-105095065D01*
X127643948Y-105132000D01*
X127880052Y-105132000D01*
X128113247Y-105095065D01*
X128337802Y-105022102D01*
X128548163Y-104914918D01*
X128548169Y-104914914D01*
X128631104Y-104854658D01*
X128631105Y-104854658D01*
X127973058Y-104196612D01*
X127993591Y-104191111D01*
X128130408Y-104112119D01*
X128242119Y-104000408D01*
X128321111Y-103863591D01*
X128326612Y-103843059D01*
X128984658Y-104501105D01*
X128984658Y-104501104D01*
X129044914Y-104418169D01*
X129044918Y-104418163D01*
X129152102Y-104207802D01*
X129225065Y-103983247D01*
X129262000Y-103750052D01*
X129262000Y-103513947D01*
X129225065Y-103280752D01*
X129152102Y-103056197D01*
X129044914Y-102845828D01*
X128984658Y-102762894D01*
X128984658Y-102762893D01*
X128326612Y-103420940D01*
X128321111Y-103400409D01*
X128242119Y-103263592D01*
X128130408Y-103151881D01*
X127993591Y-103072889D01*
X127973059Y-103067387D01*
X128631105Y-102409340D01*
X128629551Y-102389594D01*
X128643915Y-102321216D01*
X128680284Y-102279547D01*
X128739510Y-102236517D01*
X128906517Y-102069510D01*
X129045343Y-101878433D01*
X129152568Y-101667992D01*
X129225553Y-101443368D01*
X129262500Y-101210097D01*
X129262500Y-100973902D01*
X129225553Y-100740631D01*
X129152566Y-100516003D01*
X129045342Y-100305566D01*
X128906517Y-100114490D01*
X128739510Y-99947483D01*
X128704872Y-99922317D01*
X128662207Y-99866989D01*
X128656228Y-99797375D01*
X128688833Y-99735580D01*
X128704873Y-99721682D01*
X128739510Y-99696517D01*
X128906517Y-99529510D01*
X129045343Y-99338433D01*
X129152568Y-99127992D01*
X129225553Y-98903368D01*
X129262500Y-98670097D01*
X129262500Y-98433902D01*
X129225553Y-98200631D01*
X129152566Y-97976003D01*
X129096002Y-97864991D01*
X129045343Y-97765567D01*
X128906517Y-97574490D01*
X128906508Y-97574481D01*
X128903353Y-97570786D01*
X128905134Y-97569264D01*
X128876273Y-97516408D01*
X128881257Y-97446716D01*
X128923129Y-97390783D01*
X128932334Y-97384516D01*
X128980656Y-97354712D01*
X129104712Y-97230656D01*
X129196814Y-97081334D01*
X129251999Y-96914797D01*
X129262500Y-96812009D01*
X129262499Y-95211992D01*
X129251999Y-95109203D01*
X129196814Y-94942666D01*
X129104712Y-94793344D01*
X128980656Y-94669288D01*
X128831334Y-94577186D01*
X128664797Y-94522001D01*
X128664795Y-94522000D01*
X128562010Y-94511500D01*
X126961998Y-94511500D01*
X126961981Y-94511501D01*
X126859203Y-94522000D01*
X126859200Y-94522001D01*
X126692668Y-94577185D01*
X126692663Y-94577187D01*
X126543342Y-94669289D01*
X126495451Y-94717181D01*
X126434128Y-94750666D01*
X126407770Y-94753500D01*
X124047204Y-94753500D01*
X123980165Y-94733815D01*
X123959523Y-94717181D01*
X123906930Y-94664588D01*
X123906928Y-94664586D01*
X123766788Y-94562768D01*
X123612445Y-94484127D01*
X123447701Y-94430598D01*
X123447699Y-94430597D01*
X123447698Y-94430597D01*
X123316271Y-94409781D01*
X123276611Y-94403500D01*
X123103389Y-94403500D01*
X123063728Y-94409781D01*
X122932302Y-94430597D01*
X122767552Y-94484128D01*
X122613211Y-94562768D01*
X122533256Y-94620859D01*
X122473072Y-94664586D01*
X122473070Y-94664588D01*
X122473069Y-94664588D01*
X122350588Y-94787069D01*
X122350588Y-94787070D01*
X122350586Y-94787072D01*
X122306859Y-94847256D01*
X122248768Y-94927211D01*
X122170128Y-95081552D01*
X122116597Y-95246302D01*
X122089500Y-95417389D01*
X112260500Y-95417389D01*
X112260500Y-88837702D01*
X119171800Y-88837702D01*
X119171800Y-89073897D01*
X119208746Y-89307168D01*
X119281733Y-89531796D01*
X119293873Y-89555621D01*
X119388957Y-89742233D01*
X119527783Y-89933310D01*
X119527789Y-89933316D01*
X119530947Y-89937014D01*
X119529277Y-89938440D01*
X119558389Y-89991754D01*
X119553405Y-90061446D01*
X119511533Y-90117379D01*
X119502322Y-90123650D01*
X119453954Y-90153484D01*
X119329984Y-90277454D01*
X119237943Y-90426675D01*
X119237941Y-90426680D01*
X119182794Y-90593102D01*
X119182793Y-90593109D01*
X119172300Y-90695813D01*
X119172300Y-91245800D01*
X120123818Y-91245800D01*
X120113189Y-91264209D01*
X120072300Y-91416809D01*
X120072300Y-91574791D01*
X120113189Y-91727391D01*
X120123818Y-91745800D01*
X119172301Y-91745800D01*
X119172301Y-92295786D01*
X119182794Y-92398497D01*
X119237941Y-92564919D01*
X119237943Y-92564924D01*
X119329984Y-92714145D01*
X119453954Y-92838115D01*
X119603175Y-92930156D01*
X119603180Y-92930158D01*
X119769602Y-92985305D01*
X119769609Y-92985306D01*
X119872319Y-92995799D01*
X120422299Y-92995799D01*
X120422300Y-92995798D01*
X120422300Y-92044282D01*
X120440709Y-92054911D01*
X120593309Y-92095800D01*
X120751291Y-92095800D01*
X120903891Y-92054911D01*
X120922300Y-92044282D01*
X120922300Y-92995799D01*
X121472272Y-92995799D01*
X121472286Y-92995798D01*
X121574997Y-92985305D01*
X121741419Y-92930158D01*
X121741424Y-92930156D01*
X121890645Y-92838115D01*
X122014615Y-92714145D01*
X122106656Y-92564924D01*
X122106658Y-92564919D01*
X122161805Y-92398497D01*
X122161806Y-92398490D01*
X122172299Y-92295786D01*
X122172300Y-92295773D01*
X122172300Y-91745800D01*
X121220782Y-91745800D01*
X121231411Y-91727391D01*
X121272300Y-91574791D01*
X121272300Y-91416809D01*
X121231411Y-91264209D01*
X121220782Y-91245800D01*
X122172299Y-91245800D01*
X122172299Y-90695828D01*
X122172298Y-90695813D01*
X122161805Y-90593102D01*
X122106658Y-90426680D01*
X122106656Y-90426675D01*
X122014615Y-90277454D01*
X121890644Y-90153483D01*
X121890640Y-90153480D01*
X121876414Y-90144705D01*
X121876413Y-90144705D01*
X121842280Y-90123652D01*
X121795555Y-90071705D01*
X121791052Y-90044038D01*
X126161500Y-90044038D01*
X126161500Y-90295961D01*
X126200910Y-90544785D01*
X126278760Y-90784383D01*
X126393132Y-91008848D01*
X126541201Y-91212649D01*
X126541205Y-91212654D01*
X126719345Y-91390794D01*
X126719350Y-91390798D01*
X126897117Y-91519952D01*
X126923155Y-91538870D01*
X127066184Y-91611747D01*
X127147616Y-91653239D01*
X127147618Y-91653239D01*
X127147621Y-91653241D01*
X127387215Y-91731090D01*
X127636038Y-91770500D01*
X127636039Y-91770500D01*
X127887961Y-91770500D01*
X127887962Y-91770500D01*
X128136785Y-91731090D01*
X128376379Y-91653241D01*
X128600845Y-91538870D01*
X128804656Y-91390793D01*
X128982793Y-91212656D01*
X129130870Y-91008845D01*
X129245241Y-90784379D01*
X129323090Y-90544785D01*
X129362500Y-90295962D01*
X129362500Y-90044038D01*
X129323090Y-89795215D01*
X129245241Y-89555621D01*
X129245239Y-89555618D01*
X129245239Y-89555616D01*
X129203747Y-89474184D01*
X129130870Y-89331155D01*
X129111952Y-89305117D01*
X128982798Y-89127350D01*
X128982794Y-89127345D01*
X128804654Y-88949205D01*
X128804649Y-88949201D01*
X128600848Y-88801132D01*
X128600847Y-88801131D01*
X128600845Y-88801130D01*
X128530747Y-88765413D01*
X128376383Y-88686760D01*
X128136785Y-88608910D01*
X128108506Y-88604431D01*
X127887962Y-88569500D01*
X127636038Y-88569500D01*
X127511626Y-88589205D01*
X127387214Y-88608910D01*
X127147616Y-88686760D01*
X126923151Y-88801132D01*
X126719350Y-88949201D01*
X126719345Y-88949205D01*
X126541205Y-89127345D01*
X126541201Y-89127350D01*
X126393132Y-89331151D01*
X126278760Y-89555616D01*
X126200910Y-89795214D01*
X126161500Y-90044038D01*
X121791052Y-90044038D01*
X121784332Y-90002742D01*
X121812175Y-89938660D01*
X121813662Y-89937033D01*
X121813648Y-89937021D01*
X121816811Y-89933316D01*
X121816817Y-89933310D01*
X121955643Y-89742233D01*
X122062868Y-89531792D01*
X122135853Y-89307168D01*
X122172800Y-89073897D01*
X122172800Y-88837702D01*
X122135853Y-88604431D01*
X122062866Y-88379803D01*
X121955642Y-88169366D01*
X121816817Y-87978290D01*
X121649810Y-87811283D01*
X121458733Y-87672457D01*
X121248296Y-87565233D01*
X121023668Y-87492246D01*
X120790397Y-87455300D01*
X120790392Y-87455300D01*
X120554208Y-87455300D01*
X120554203Y-87455300D01*
X120320931Y-87492246D01*
X120096303Y-87565233D01*
X119885866Y-87672457D01*
X119776850Y-87751662D01*
X119694790Y-87811283D01*
X119694788Y-87811285D01*
X119694787Y-87811285D01*
X119527785Y-87978287D01*
X119527785Y-87978288D01*
X119527783Y-87978290D01*
X119468162Y-88060350D01*
X119388957Y-88169366D01*
X119281733Y-88379803D01*
X119208746Y-88604431D01*
X119171800Y-88837702D01*
X112260500Y-88837702D01*
X112260500Y-83479389D01*
X119549500Y-83479389D01*
X119549500Y-83652610D01*
X119572183Y-83795830D01*
X119576598Y-83823701D01*
X119630127Y-83988445D01*
X119708768Y-84142788D01*
X119810586Y-84282928D01*
X119933072Y-84405414D01*
X120073212Y-84507232D01*
X120227555Y-84585873D01*
X120392299Y-84639402D01*
X120563389Y-84666500D01*
X120563390Y-84666500D01*
X120736610Y-84666500D01*
X120736611Y-84666500D01*
X120907701Y-84639402D01*
X121072445Y-84585873D01*
X121226788Y-84507232D01*
X121366928Y-84405414D01*
X121489414Y-84282928D01*
X121591232Y-84142788D01*
X121669873Y-83988445D01*
X121723402Y-83823701D01*
X121750500Y-83652611D01*
X121750500Y-83578228D01*
X121770185Y-83511189D01*
X121786814Y-83490552D01*
X126392128Y-78885237D01*
X126453449Y-78851754D01*
X126523141Y-78856738D01*
X126579074Y-78898610D01*
X126603491Y-78964074D01*
X126597738Y-79011238D01*
X126552447Y-79150627D01*
X126552447Y-79150630D01*
X126515500Y-79383902D01*
X126515500Y-79620097D01*
X126552446Y-79853368D01*
X126625433Y-80077996D01*
X126732657Y-80288433D01*
X126871483Y-80479510D01*
X127038490Y-80646517D01*
X127073127Y-80671683D01*
X127115792Y-80727013D01*
X127121771Y-80796626D01*
X127089165Y-80858421D01*
X127073130Y-80872315D01*
X127055365Y-80885222D01*
X127038488Y-80897484D01*
X126871485Y-81064487D01*
X126871485Y-81064488D01*
X126871483Y-81064490D01*
X126813649Y-81144092D01*
X126732657Y-81255566D01*
X126625433Y-81466003D01*
X126552446Y-81690631D01*
X126515500Y-81923902D01*
X126515500Y-82160097D01*
X126552446Y-82393368D01*
X126625433Y-82617996D01*
X126732657Y-82828433D01*
X126871483Y-83019510D01*
X127038490Y-83186517D01*
X127097716Y-83229547D01*
X127140381Y-83284875D01*
X127148448Y-83339593D01*
X127146893Y-83359340D01*
X127804941Y-84017387D01*
X127784409Y-84022889D01*
X127647592Y-84101881D01*
X127535881Y-84213592D01*
X127456889Y-84350409D01*
X127451387Y-84370941D01*
X126793340Y-83712894D01*
X126733084Y-83795830D01*
X126625897Y-84006197D01*
X126552934Y-84230752D01*
X126516000Y-84463947D01*
X126516000Y-84700052D01*
X126552934Y-84933247D01*
X126625897Y-85157802D01*
X126733087Y-85368174D01*
X126793338Y-85451104D01*
X126793340Y-85451105D01*
X127451387Y-84793058D01*
X127456889Y-84813591D01*
X127535881Y-84950408D01*
X127647592Y-85062119D01*
X127784409Y-85141111D01*
X127804940Y-85146612D01*
X127146893Y-85804658D01*
X127229828Y-85864914D01*
X127440197Y-85972102D01*
X127664752Y-86045065D01*
X127664751Y-86045065D01*
X127897948Y-86082000D01*
X128134052Y-86082000D01*
X128367247Y-86045065D01*
X128591802Y-85972102D01*
X128802163Y-85864918D01*
X128802169Y-85864914D01*
X128885104Y-85804658D01*
X128885105Y-85804658D01*
X128227058Y-85146612D01*
X128247591Y-85141111D01*
X128384408Y-85062119D01*
X128496119Y-84950408D01*
X128575111Y-84813591D01*
X128580612Y-84793059D01*
X129238658Y-85451105D01*
X129238658Y-85451104D01*
X129298914Y-85368169D01*
X129298918Y-85368163D01*
X129406102Y-85157802D01*
X129479065Y-84933247D01*
X129516000Y-84700052D01*
X129516000Y-84463947D01*
X129479065Y-84230752D01*
X129406102Y-84006197D01*
X129298914Y-83795828D01*
X129238658Y-83712894D01*
X129238658Y-83712893D01*
X128580612Y-84370940D01*
X128575111Y-84350409D01*
X128496119Y-84213592D01*
X128384408Y-84101881D01*
X128247591Y-84022889D01*
X128227059Y-84017387D01*
X128885105Y-83359340D01*
X128883551Y-83339594D01*
X128897915Y-83271216D01*
X128934284Y-83229547D01*
X128993510Y-83186517D01*
X129160517Y-83019510D01*
X129299343Y-82828433D01*
X129406568Y-82617992D01*
X129479553Y-82393368D01*
X129492861Y-82309343D01*
X129516500Y-82160097D01*
X129516500Y-81923902D01*
X129479553Y-81690631D01*
X129406566Y-81466003D01*
X129299342Y-81255566D01*
X129160517Y-81064490D01*
X128993510Y-80897483D01*
X128958872Y-80872317D01*
X128916207Y-80816989D01*
X128910228Y-80747375D01*
X128942833Y-80685580D01*
X128958873Y-80671682D01*
X128993510Y-80646517D01*
X129160517Y-80479510D01*
X129299343Y-80288433D01*
X129406568Y-80077992D01*
X129479553Y-79853368D01*
X129483458Y-79828711D01*
X129516500Y-79620097D01*
X129516500Y-79383902D01*
X129479553Y-79150631D01*
X129406566Y-78926003D01*
X129299342Y-78715566D01*
X129160517Y-78524490D01*
X129160508Y-78524481D01*
X129157353Y-78520786D01*
X129159134Y-78519264D01*
X129130273Y-78466408D01*
X129135257Y-78396716D01*
X129177129Y-78340783D01*
X129186334Y-78334516D01*
X129234656Y-78304712D01*
X129358712Y-78180656D01*
X129450814Y-78031334D01*
X129505999Y-77864797D01*
X129516500Y-77762009D01*
X129516499Y-76161992D01*
X129505999Y-76059203D01*
X129450814Y-75892666D01*
X129358712Y-75743344D01*
X129234656Y-75619288D01*
X129085334Y-75527186D01*
X128918797Y-75472001D01*
X128918795Y-75472000D01*
X128816010Y-75461500D01*
X127215998Y-75461500D01*
X127215981Y-75461501D01*
X127113203Y-75472000D01*
X127113200Y-75472001D01*
X126946668Y-75527185D01*
X126946663Y-75527187D01*
X126797342Y-75619289D01*
X126673289Y-75743342D01*
X126581187Y-75892663D01*
X126581186Y-75892666D01*
X126526001Y-76059203D01*
X126526001Y-76059204D01*
X126526000Y-76059204D01*
X126515500Y-76161983D01*
X126515500Y-76587770D01*
X126495815Y-76654809D01*
X126479181Y-76675451D01*
X121612181Y-81542451D01*
X121550858Y-81575936D01*
X121481166Y-81570952D01*
X121425233Y-81529080D01*
X121400816Y-81463616D01*
X121400500Y-81454770D01*
X121400500Y-71380630D01*
X121409144Y-71351189D01*
X121415668Y-71321203D01*
X121419422Y-71316187D01*
X121420185Y-71313591D01*
X121436819Y-71292949D01*
X121464774Y-71264994D01*
X123676076Y-69053692D01*
X126127061Y-66602706D01*
X126188382Y-66569223D01*
X126258074Y-66574207D01*
X126314007Y-66616079D01*
X126337213Y-66670991D01*
X126349246Y-66746968D01*
X126422233Y-66971596D01*
X126489867Y-67104334D01*
X126529457Y-67182033D01*
X126668283Y-67373110D01*
X126835290Y-67540117D01*
X126869927Y-67565283D01*
X126912592Y-67620613D01*
X126918571Y-67690226D01*
X126885965Y-67752021D01*
X126869930Y-67765915D01*
X126852165Y-67778822D01*
X126835288Y-67791084D01*
X126668285Y-67958087D01*
X126668285Y-67958088D01*
X126668283Y-67958090D01*
X126608662Y-68040150D01*
X126529457Y-68149166D01*
X126422233Y-68359603D01*
X126349246Y-68584231D01*
X126312300Y-68817502D01*
X126312300Y-69053697D01*
X126349246Y-69286968D01*
X126422233Y-69511596D01*
X126528175Y-69719517D01*
X126529457Y-69722033D01*
X126668283Y-69913110D01*
X126835290Y-70080117D01*
X126894516Y-70123147D01*
X126937181Y-70178475D01*
X126945248Y-70233193D01*
X126943693Y-70252940D01*
X127601741Y-70910987D01*
X127581209Y-70916489D01*
X127444392Y-70995481D01*
X127332681Y-71107192D01*
X127253689Y-71244009D01*
X127248187Y-71264541D01*
X126590140Y-70606494D01*
X126529884Y-70689430D01*
X126422697Y-70899797D01*
X126349734Y-71124352D01*
X126312800Y-71357547D01*
X126312800Y-71593652D01*
X126349734Y-71826847D01*
X126422697Y-72051402D01*
X126529887Y-72261774D01*
X126590138Y-72344704D01*
X126590140Y-72344705D01*
X127248187Y-71686658D01*
X127253689Y-71707191D01*
X127332681Y-71844008D01*
X127444392Y-71955719D01*
X127581209Y-72034711D01*
X127601740Y-72040212D01*
X126943693Y-72698258D01*
X127026628Y-72758514D01*
X127236997Y-72865702D01*
X127461552Y-72938665D01*
X127461551Y-72938665D01*
X127694748Y-72975600D01*
X127930852Y-72975600D01*
X128164047Y-72938665D01*
X128388602Y-72865702D01*
X128598963Y-72758518D01*
X128598969Y-72758514D01*
X128681904Y-72698258D01*
X128681905Y-72698258D01*
X128023858Y-72040212D01*
X128044391Y-72034711D01*
X128181208Y-71955719D01*
X128292919Y-71844008D01*
X128371911Y-71707191D01*
X128377412Y-71686659D01*
X129035458Y-72344705D01*
X129035458Y-72344704D01*
X129095714Y-72261769D01*
X129095718Y-72261763D01*
X129202902Y-72051402D01*
X129275865Y-71826847D01*
X129312800Y-71593652D01*
X129312800Y-71357547D01*
X129275865Y-71124352D01*
X129202902Y-70899797D01*
X129095714Y-70689428D01*
X129035458Y-70606494D01*
X129035458Y-70606493D01*
X128377412Y-71264540D01*
X128371911Y-71244009D01*
X128292919Y-71107192D01*
X128181208Y-70995481D01*
X128044391Y-70916489D01*
X128023859Y-70910987D01*
X128681905Y-70252940D01*
X128680351Y-70233194D01*
X128694715Y-70164816D01*
X128731084Y-70123147D01*
X128790310Y-70080117D01*
X128957317Y-69913110D01*
X129096143Y-69722033D01*
X129203368Y-69511592D01*
X129276353Y-69286968D01*
X129297889Y-69150996D01*
X129313300Y-69053697D01*
X129313300Y-68817502D01*
X129276353Y-68584231D01*
X129203366Y-68359603D01*
X129096142Y-68149166D01*
X128957317Y-67958090D01*
X128790310Y-67791083D01*
X128755672Y-67765917D01*
X128713007Y-67710589D01*
X128707028Y-67640975D01*
X128739633Y-67579180D01*
X128755673Y-67565282D01*
X128790310Y-67540117D01*
X128957317Y-67373110D01*
X129096143Y-67182033D01*
X129203368Y-66971592D01*
X129276353Y-66746968D01*
X129313300Y-66513697D01*
X129313300Y-66277502D01*
X129276353Y-66044231D01*
X129203366Y-65819603D01*
X129096142Y-65609166D01*
X128957317Y-65418090D01*
X128957308Y-65418081D01*
X128954153Y-65414386D01*
X128955934Y-65412864D01*
X128927073Y-65360008D01*
X128932057Y-65290316D01*
X128973929Y-65234383D01*
X128983134Y-65228116D01*
X129031456Y-65198312D01*
X129155512Y-65074256D01*
X129247614Y-64924934D01*
X129302799Y-64758397D01*
X129313300Y-64655609D01*
X129313299Y-63055592D01*
X129302799Y-62952803D01*
X129247614Y-62786266D01*
X129155512Y-62636944D01*
X129031456Y-62512888D01*
X128882134Y-62420786D01*
X128715597Y-62365601D01*
X128715595Y-62365600D01*
X128612810Y-62355100D01*
X127012798Y-62355100D01*
X127012781Y-62355101D01*
X126910003Y-62365600D01*
X126910000Y-62365601D01*
X126743468Y-62420785D01*
X126743463Y-62420787D01*
X126594142Y-62512889D01*
X126470089Y-62636942D01*
X126377987Y-62786263D01*
X126377986Y-62786266D01*
X126322801Y-62952803D01*
X126322801Y-62952804D01*
X126322800Y-62952804D01*
X126312300Y-63055583D01*
X126312300Y-64243369D01*
X126292615Y-64310408D01*
X126275981Y-64331050D01*
X120067050Y-70539980D01*
X120067044Y-70539988D01*
X120017812Y-70613668D01*
X120017813Y-70613669D01*
X119984921Y-70662896D01*
X119984914Y-70662908D01*
X119928342Y-70799486D01*
X119928340Y-70799492D01*
X119899500Y-70944479D01*
X119899500Y-82708796D01*
X119879815Y-82775835D01*
X119863181Y-82796477D01*
X119810588Y-82849069D01*
X119810588Y-82849070D01*
X119810586Y-82849072D01*
X119766859Y-82909256D01*
X119708768Y-82989211D01*
X119630128Y-83143552D01*
X119576597Y-83308302D01*
X119549500Y-83479389D01*
X112260500Y-83479389D01*
X112260500Y-61584500D01*
X112280185Y-61517461D01*
X112332989Y-61471706D01*
X112384500Y-61460500D01*
X141107500Y-61460500D01*
X141174539Y-61480185D01*
G37*
%TD.AperFunction*%
%TD*%
M02*
