M48
; DRILL file {KiCad 9.0.3} date 2025-08-27T20:39:57-0700
; FORMAT={-:-/ absolute / metric / decimal}
; #@! TF.CreationDate,2025-08-27T20:39:57-07:00
; #@! TF.GenerationSoftware,Kicad,Pcbnew,9.0.3
; #@! TF.FileFunction,Plated,1,2,PTH
FMAT,2
METRIC
; #@! TA.AperFunction,Plated,PTH,ViaDrill
T1C0.800
; #@! TA.AperFunction,Plated,PTH,ComponentDrill
T2C1.000
; #@! TA.AperFunction,Plated,PTH,ComponentDrill
T3C1.100
%
G90
G05
T1
X137.922Y-89.154
X141.605Y-99.06
X155.067Y-90.043
X162.814Y-101.092
T2
X129.9Y-104.5
X129.9Y-124.82
X132.44Y-104.5
X132.44Y-124.82
X134.98Y-104.5
X134.98Y-124.82
X137.52Y-104.5
X137.52Y-124.82
X140.06Y-104.5
X140.06Y-124.82
X142.6Y-104.5
X142.6Y-124.82
X145.14Y-104.5
X145.14Y-124.82
X147.68Y-104.5
X147.68Y-124.82
X150.22Y-104.5
X150.22Y-124.82
X152.76Y-104.5
X152.76Y-124.82
X155.3Y-104.5
X155.3Y-124.82
X157.84Y-104.5
X157.84Y-124.82
X160.38Y-104.5
X162.92Y-104.5
X165.46Y-104.5
X168.0Y-104.5
T3
X136.398Y-91.948
X136.398Y-94.488
X136.398Y-97.028
X136.398Y-99.568
X147.959Y-87.507
X150.499Y-87.507
X153.039Y-87.507
X155.579Y-87.507
M30
