%TF.GenerationSoftware,KiCad,Pcbnew,9.0.3*%
%TF.CreationDate,2025-08-27T20:39:39-07:00*%
%TF.ProjectId,ADC_and_voltage_boost,4144435f-616e-4645-9f76-6f6c74616765,v2.0*%
%TF.SameCoordinates,Original*%
%TF.FileFunction,Copper,L1,Top*%
%TF.FilePolarity,Positive*%
%FSLAX46Y46*%
G04 Gerber Fmt 4.6, Leading zero omitted, Abs format (unit mm)*
G04 Created by KiCad (PCBNEW 9.0.3) date 2025-08-27 20:39:39*
%MOMM*%
%LPD*%
G01*
G04 APERTURE LIST*
G04 Aperture macros list*
%AMRoundRect*
0 Rectangle with rounded corners*
0 $1 Rounding radius*
0 $2 $3 $4 $5 $6 $7 $8 $9 X,Y pos of 4 corners*
0 Add a 4 corners polygon primitive as box body*
4,1,4,$2,$3,$4,$5,$6,$7,$8,$9,$2,$3,0*
0 Add four circle primitives for the rounded corners*
1,1,$1+$1,$2,$3*
1,1,$1+$1,$4,$5*
1,1,$1+$1,$6,$7*
1,1,$1+$1,$8,$9*
0 Add four rect primitives between the rounded corners*
20,1,$1+$1,$2,$3,$4,$5,0*
20,1,$1+$1,$4,$5,$6,$7,0*
20,1,$1+$1,$6,$7,$8,$9,0*
20,1,$1+$1,$8,$9,$2,$3,0*%
G04 Aperture macros list end*
%ADD10C,0.200000*%
%TA.AperFunction,NonConductor*%
%ADD11C,0.200000*%
%TD*%
%TA.AperFunction,ComponentPad*%
%ADD12RoundRect,0.250000X-0.550000X1.050000X-0.550000X-1.050000X0.550000X-1.050000X0.550000X1.050000X0*%
%TD*%
%TA.AperFunction,ComponentPad*%
%ADD13O,1.600000X2.600000*%
%TD*%
%TA.AperFunction,SMDPad,CuDef*%
%ADD14RoundRect,0.051250X-0.698750X-0.153750X0.698750X-0.153750X0.698750X0.153750X-0.698750X0.153750X0*%
%TD*%
%TA.AperFunction,SMDPad,CuDef*%
%ADD15RoundRect,0.250000X0.250000X0.475000X-0.250000X0.475000X-0.250000X-0.475000X0.250000X-0.475000X0*%
%TD*%
%TA.AperFunction,ComponentPad*%
%ADD16RoundRect,0.249999X0.850001X0.850001X-0.850001X0.850001X-0.850001X-0.850001X0.850001X-0.850001X0*%
%TD*%
%TA.AperFunction,ComponentPad*%
%ADD17C,2.200000*%
%TD*%
%TA.AperFunction,SMDPad,CuDef*%
%ADD18RoundRect,0.250000X-0.250000X-0.475000X0.250000X-0.475000X0.250000X0.475000X-0.250000X0.475000X0*%
%TD*%
%TA.AperFunction,ComponentPad*%
%ADD19RoundRect,0.249999X-0.850001X0.850001X-0.850001X-0.850001X0.850001X-0.850001X0.850001X0.850001X0*%
%TD*%
%TA.AperFunction,ViaPad*%
%ADD20C,1.000000*%
%TD*%
%TA.AperFunction,Conductor*%
%ADD21C,0.400000*%
%TD*%
%TA.AperFunction,Conductor*%
%ADD22C,0.500000*%
%TD*%
%TA.AperFunction,Conductor*%
%ADD23C,0.200000*%
%TD*%
G04 APERTURE END LIST*
D10*
D11*
X125508482Y-101873279D02*
X125508482Y-101373279D01*
X126294196Y-101158993D02*
X126294196Y-101873279D01*
X126294196Y-101873279D02*
X124794196Y-101873279D01*
X124794196Y-101873279D02*
X124794196Y-101158993D01*
X126294196Y-100301850D02*
X126222768Y-100444707D01*
X126222768Y-100444707D02*
X126079910Y-100516136D01*
X126079910Y-100516136D02*
X124794196Y-100516136D01*
X126222768Y-99158993D02*
X126294196Y-99301850D01*
X126294196Y-99301850D02*
X126294196Y-99587565D01*
X126294196Y-99587565D02*
X126222768Y-99730422D01*
X126222768Y-99730422D02*
X126079910Y-99801850D01*
X126079910Y-99801850D02*
X125508482Y-99801850D01*
X125508482Y-99801850D02*
X125365625Y-99730422D01*
X125365625Y-99730422D02*
X125294196Y-99587565D01*
X125294196Y-99587565D02*
X125294196Y-99301850D01*
X125294196Y-99301850D02*
X125365625Y-99158993D01*
X125365625Y-99158993D02*
X125508482Y-99087565D01*
X125508482Y-99087565D02*
X125651339Y-99087565D01*
X125651339Y-99087565D02*
X125794196Y-99801850D01*
X126222768Y-97801851D02*
X126294196Y-97944708D01*
X126294196Y-97944708D02*
X126294196Y-98230422D01*
X126294196Y-98230422D02*
X126222768Y-98373279D01*
X126222768Y-98373279D02*
X126151339Y-98444708D01*
X126151339Y-98444708D02*
X126008482Y-98516136D01*
X126008482Y-98516136D02*
X125579910Y-98516136D01*
X125579910Y-98516136D02*
X125437053Y-98444708D01*
X125437053Y-98444708D02*
X125365625Y-98373279D01*
X125365625Y-98373279D02*
X125294196Y-98230422D01*
X125294196Y-98230422D02*
X125294196Y-97944708D01*
X125294196Y-97944708D02*
X125365625Y-97801851D01*
X125294196Y-97373279D02*
X125294196Y-96801851D01*
X124794196Y-97158994D02*
X126079910Y-97158994D01*
X126079910Y-97158994D02*
X126222768Y-97087565D01*
X126222768Y-97087565D02*
X126294196Y-96944708D01*
X126294196Y-96944708D02*
X126294196Y-96801851D01*
X126294196Y-96301851D02*
X125294196Y-96301851D01*
X125579910Y-96301851D02*
X125437053Y-96230422D01*
X125437053Y-96230422D02*
X125365625Y-96158994D01*
X125365625Y-96158994D02*
X125294196Y-96016136D01*
X125294196Y-96016136D02*
X125294196Y-95873279D01*
X126294196Y-95158994D02*
X126222768Y-95301851D01*
X126222768Y-95301851D02*
X126151339Y-95373280D01*
X126151339Y-95373280D02*
X126008482Y-95444708D01*
X126008482Y-95444708D02*
X125579910Y-95444708D01*
X125579910Y-95444708D02*
X125437053Y-95373280D01*
X125437053Y-95373280D02*
X125365625Y-95301851D01*
X125365625Y-95301851D02*
X125294196Y-95158994D01*
X125294196Y-95158994D02*
X125294196Y-94944708D01*
X125294196Y-94944708D02*
X125365625Y-94801851D01*
X125365625Y-94801851D02*
X125437053Y-94730423D01*
X125437053Y-94730423D02*
X125579910Y-94658994D01*
X125579910Y-94658994D02*
X126008482Y-94658994D01*
X126008482Y-94658994D02*
X126151339Y-94730423D01*
X126151339Y-94730423D02*
X126222768Y-94801851D01*
X126222768Y-94801851D02*
X126294196Y-94944708D01*
X126294196Y-94944708D02*
X126294196Y-95158994D01*
X126294196Y-94016137D02*
X125294196Y-94016137D01*
X125437053Y-94016137D02*
X125365625Y-93944708D01*
X125365625Y-93944708D02*
X125294196Y-93801851D01*
X125294196Y-93801851D02*
X125294196Y-93587565D01*
X125294196Y-93587565D02*
X125365625Y-93444708D01*
X125365625Y-93444708D02*
X125508482Y-93373280D01*
X125508482Y-93373280D02*
X126294196Y-93373280D01*
X125508482Y-93373280D02*
X125365625Y-93301851D01*
X125365625Y-93301851D02*
X125294196Y-93158994D01*
X125294196Y-93158994D02*
X125294196Y-92944708D01*
X125294196Y-92944708D02*
X125365625Y-92801851D01*
X125365625Y-92801851D02*
X125508482Y-92730422D01*
X125508482Y-92730422D02*
X126294196Y-92730422D01*
X126222768Y-91444708D02*
X126294196Y-91587565D01*
X126294196Y-91587565D02*
X126294196Y-91873280D01*
X126294196Y-91873280D02*
X126222768Y-92016137D01*
X126222768Y-92016137D02*
X126079910Y-92087565D01*
X126079910Y-92087565D02*
X125508482Y-92087565D01*
X125508482Y-92087565D02*
X125365625Y-92016137D01*
X125365625Y-92016137D02*
X125294196Y-91873280D01*
X125294196Y-91873280D02*
X125294196Y-91587565D01*
X125294196Y-91587565D02*
X125365625Y-91444708D01*
X125365625Y-91444708D02*
X125508482Y-91373280D01*
X125508482Y-91373280D02*
X125651339Y-91373280D01*
X125651339Y-91373280D02*
X125794196Y-92087565D01*
X125294196Y-90944708D02*
X125294196Y-90373280D01*
X124794196Y-90730423D02*
X126079910Y-90730423D01*
X126079910Y-90730423D02*
X126222768Y-90658994D01*
X126222768Y-90658994D02*
X126294196Y-90516137D01*
X126294196Y-90516137D02*
X126294196Y-90373280D01*
X126222768Y-89301851D02*
X126294196Y-89444708D01*
X126294196Y-89444708D02*
X126294196Y-89730423D01*
X126294196Y-89730423D02*
X126222768Y-89873280D01*
X126222768Y-89873280D02*
X126079910Y-89944708D01*
X126079910Y-89944708D02*
X125508482Y-89944708D01*
X125508482Y-89944708D02*
X125365625Y-89873280D01*
X125365625Y-89873280D02*
X125294196Y-89730423D01*
X125294196Y-89730423D02*
X125294196Y-89444708D01*
X125294196Y-89444708D02*
X125365625Y-89301851D01*
X125365625Y-89301851D02*
X125508482Y-89230423D01*
X125508482Y-89230423D02*
X125651339Y-89230423D01*
X125651339Y-89230423D02*
X125794196Y-89944708D01*
X126294196Y-88587566D02*
X125294196Y-88587566D01*
X125579910Y-88587566D02*
X125437053Y-88516137D01*
X125437053Y-88516137D02*
X125365625Y-88444709D01*
X125365625Y-88444709D02*
X125294196Y-88301851D01*
X125294196Y-88301851D02*
X125294196Y-88158994D01*
X125865625Y-86587566D02*
X125865625Y-85873281D01*
X126294196Y-86730423D02*
X124794196Y-86230423D01*
X124794196Y-86230423D02*
X126294196Y-85730423D01*
X126294196Y-85230424D02*
X124794196Y-85230424D01*
X124794196Y-85230424D02*
X124794196Y-84873281D01*
X124794196Y-84873281D02*
X124865625Y-84658995D01*
X124865625Y-84658995D02*
X125008482Y-84516138D01*
X125008482Y-84516138D02*
X125151339Y-84444709D01*
X125151339Y-84444709D02*
X125437053Y-84373281D01*
X125437053Y-84373281D02*
X125651339Y-84373281D01*
X125651339Y-84373281D02*
X125937053Y-84444709D01*
X125937053Y-84444709D02*
X126079910Y-84516138D01*
X126079910Y-84516138D02*
X126222768Y-84658995D01*
X126222768Y-84658995D02*
X126294196Y-84873281D01*
X126294196Y-84873281D02*
X126294196Y-85230424D01*
X126151339Y-82873281D02*
X126222768Y-82944709D01*
X126222768Y-82944709D02*
X126294196Y-83158995D01*
X126294196Y-83158995D02*
X126294196Y-83301852D01*
X126294196Y-83301852D02*
X126222768Y-83516138D01*
X126222768Y-83516138D02*
X126079910Y-83658995D01*
X126079910Y-83658995D02*
X125937053Y-83730424D01*
X125937053Y-83730424D02*
X125651339Y-83801852D01*
X125651339Y-83801852D02*
X125437053Y-83801852D01*
X125437053Y-83801852D02*
X125151339Y-83730424D01*
X125151339Y-83730424D02*
X125008482Y-83658995D01*
X125008482Y-83658995D02*
X124865625Y-83516138D01*
X124865625Y-83516138D02*
X124794196Y-83301852D01*
X124794196Y-83301852D02*
X124794196Y-83158995D01*
X124794196Y-83158995D02*
X124865625Y-82944709D01*
X124865625Y-82944709D02*
X124937053Y-82873281D01*
X127709112Y-102016136D02*
X128709112Y-101658993D01*
X128709112Y-101658993D02*
X127709112Y-101301850D01*
X127209112Y-100873279D02*
X127209112Y-99944707D01*
X127209112Y-99944707D02*
X127780541Y-100444707D01*
X127780541Y-100444707D02*
X127780541Y-100230422D01*
X127780541Y-100230422D02*
X127851969Y-100087565D01*
X127851969Y-100087565D02*
X127923398Y-100016136D01*
X127923398Y-100016136D02*
X128066255Y-99944707D01*
X128066255Y-99944707D02*
X128423398Y-99944707D01*
X128423398Y-99944707D02*
X128566255Y-100016136D01*
X128566255Y-100016136D02*
X128637684Y-100087565D01*
X128637684Y-100087565D02*
X128709112Y-100230422D01*
X128709112Y-100230422D02*
X128709112Y-100658993D01*
X128709112Y-100658993D02*
X128637684Y-100801850D01*
X128637684Y-100801850D02*
X128566255Y-100873279D01*
X128566255Y-99301851D02*
X128637684Y-99230422D01*
X128637684Y-99230422D02*
X128709112Y-99301851D01*
X128709112Y-99301851D02*
X128637684Y-99373279D01*
X128637684Y-99373279D02*
X128566255Y-99301851D01*
X128566255Y-99301851D02*
X128709112Y-99301851D01*
X127209112Y-98301850D02*
X127209112Y-98158993D01*
X127209112Y-98158993D02*
X127280541Y-98016136D01*
X127280541Y-98016136D02*
X127351969Y-97944708D01*
X127351969Y-97944708D02*
X127494826Y-97873279D01*
X127494826Y-97873279D02*
X127780541Y-97801850D01*
X127780541Y-97801850D02*
X128137684Y-97801850D01*
X128137684Y-97801850D02*
X128423398Y-97873279D01*
X128423398Y-97873279D02*
X128566255Y-97944708D01*
X128566255Y-97944708D02*
X128637684Y-98016136D01*
X128637684Y-98016136D02*
X128709112Y-98158993D01*
X128709112Y-98158993D02*
X128709112Y-98301850D01*
X128709112Y-98301850D02*
X128637684Y-98444708D01*
X128637684Y-98444708D02*
X128566255Y-98516136D01*
X128566255Y-98516136D02*
X128423398Y-98587565D01*
X128423398Y-98587565D02*
X128137684Y-98658993D01*
X128137684Y-98658993D02*
X127780541Y-98658993D01*
X127780541Y-98658993D02*
X127494826Y-98587565D01*
X127494826Y-98587565D02*
X127351969Y-98516136D01*
X127351969Y-98516136D02*
X127280541Y-98444708D01*
X127280541Y-98444708D02*
X127209112Y-98301850D01*
X130266885Y-101658993D02*
X130195457Y-101801850D01*
X130195457Y-101801850D02*
X130124028Y-101873279D01*
X130124028Y-101873279D02*
X129981171Y-101944707D01*
X129981171Y-101944707D02*
X129909742Y-101944707D01*
X129909742Y-101944707D02*
X129766885Y-101873279D01*
X129766885Y-101873279D02*
X129695457Y-101801850D01*
X129695457Y-101801850D02*
X129624028Y-101658993D01*
X129624028Y-101658993D02*
X129624028Y-101373279D01*
X129624028Y-101373279D02*
X129695457Y-101230422D01*
X129695457Y-101230422D02*
X129766885Y-101158993D01*
X129766885Y-101158993D02*
X129909742Y-101087564D01*
X129909742Y-101087564D02*
X129981171Y-101087564D01*
X129981171Y-101087564D02*
X130124028Y-101158993D01*
X130124028Y-101158993D02*
X130195457Y-101230422D01*
X130195457Y-101230422D02*
X130266885Y-101373279D01*
X130266885Y-101373279D02*
X130266885Y-101658993D01*
X130266885Y-101658993D02*
X130338314Y-101801850D01*
X130338314Y-101801850D02*
X130409742Y-101873279D01*
X130409742Y-101873279D02*
X130552600Y-101944707D01*
X130552600Y-101944707D02*
X130838314Y-101944707D01*
X130838314Y-101944707D02*
X130981171Y-101873279D01*
X130981171Y-101873279D02*
X131052600Y-101801850D01*
X131052600Y-101801850D02*
X131124028Y-101658993D01*
X131124028Y-101658993D02*
X131124028Y-101373279D01*
X131124028Y-101373279D02*
X131052600Y-101230422D01*
X131052600Y-101230422D02*
X130981171Y-101158993D01*
X130981171Y-101158993D02*
X130838314Y-101087564D01*
X130838314Y-101087564D02*
X130552600Y-101087564D01*
X130552600Y-101087564D02*
X130409742Y-101158993D01*
X130409742Y-101158993D02*
X130338314Y-101230422D01*
X130338314Y-101230422D02*
X130266885Y-101373279D01*
X129552600Y-99373279D02*
X131481171Y-100658993D01*
X129766885Y-98944707D02*
X129695457Y-98873279D01*
X129695457Y-98873279D02*
X129624028Y-98730422D01*
X129624028Y-98730422D02*
X129624028Y-98373279D01*
X129624028Y-98373279D02*
X129695457Y-98230422D01*
X129695457Y-98230422D02*
X129766885Y-98158993D01*
X129766885Y-98158993D02*
X129909742Y-98087564D01*
X129909742Y-98087564D02*
X130052600Y-98087564D01*
X130052600Y-98087564D02*
X130266885Y-98158993D01*
X130266885Y-98158993D02*
X131124028Y-99016136D01*
X131124028Y-99016136D02*
X131124028Y-98087564D01*
X129624028Y-97587565D02*
X129624028Y-96587565D01*
X129624028Y-96587565D02*
X131124028Y-97230422D01*
X129552600Y-94944708D02*
X131481171Y-96230422D01*
X129766885Y-94516136D02*
X129695457Y-94444708D01*
X129695457Y-94444708D02*
X129624028Y-94301851D01*
X129624028Y-94301851D02*
X129624028Y-93944708D01*
X129624028Y-93944708D02*
X129695457Y-93801851D01*
X129695457Y-93801851D02*
X129766885Y-93730422D01*
X129766885Y-93730422D02*
X129909742Y-93658993D01*
X129909742Y-93658993D02*
X130052600Y-93658993D01*
X130052600Y-93658993D02*
X130266885Y-93730422D01*
X130266885Y-93730422D02*
X131124028Y-94587565D01*
X131124028Y-94587565D02*
X131124028Y-93658993D01*
X129624028Y-92730422D02*
X129624028Y-92587565D01*
X129624028Y-92587565D02*
X129695457Y-92444708D01*
X129695457Y-92444708D02*
X129766885Y-92373280D01*
X129766885Y-92373280D02*
X129909742Y-92301851D01*
X129909742Y-92301851D02*
X130195457Y-92230422D01*
X130195457Y-92230422D02*
X130552600Y-92230422D01*
X130552600Y-92230422D02*
X130838314Y-92301851D01*
X130838314Y-92301851D02*
X130981171Y-92373280D01*
X130981171Y-92373280D02*
X131052600Y-92444708D01*
X131052600Y-92444708D02*
X131124028Y-92587565D01*
X131124028Y-92587565D02*
X131124028Y-92730422D01*
X131124028Y-92730422D02*
X131052600Y-92873280D01*
X131052600Y-92873280D02*
X130981171Y-92944708D01*
X130981171Y-92944708D02*
X130838314Y-93016137D01*
X130838314Y-93016137D02*
X130552600Y-93087565D01*
X130552600Y-93087565D02*
X130195457Y-93087565D01*
X130195457Y-93087565D02*
X129909742Y-93016137D01*
X129909742Y-93016137D02*
X129766885Y-92944708D01*
X129766885Y-92944708D02*
X129695457Y-92873280D01*
X129695457Y-92873280D02*
X129624028Y-92730422D01*
X129766885Y-91658994D02*
X129695457Y-91587566D01*
X129695457Y-91587566D02*
X129624028Y-91444709D01*
X129624028Y-91444709D02*
X129624028Y-91087566D01*
X129624028Y-91087566D02*
X129695457Y-90944709D01*
X129695457Y-90944709D02*
X129766885Y-90873280D01*
X129766885Y-90873280D02*
X129909742Y-90801851D01*
X129909742Y-90801851D02*
X130052600Y-90801851D01*
X130052600Y-90801851D02*
X130266885Y-90873280D01*
X130266885Y-90873280D02*
X131124028Y-91730423D01*
X131124028Y-91730423D02*
X131124028Y-90801851D01*
X129624028Y-89444709D02*
X129624028Y-90158995D01*
X129624028Y-90158995D02*
X130338314Y-90230423D01*
X130338314Y-90230423D02*
X130266885Y-90158995D01*
X130266885Y-90158995D02*
X130195457Y-90016138D01*
X130195457Y-90016138D02*
X130195457Y-89658995D01*
X130195457Y-89658995D02*
X130266885Y-89516138D01*
X130266885Y-89516138D02*
X130338314Y-89444709D01*
X130338314Y-89444709D02*
X130481171Y-89373280D01*
X130481171Y-89373280D02*
X130838314Y-89373280D01*
X130838314Y-89373280D02*
X130981171Y-89444709D01*
X130981171Y-89444709D02*
X131052600Y-89516138D01*
X131052600Y-89516138D02*
X131124028Y-89658995D01*
X131124028Y-89658995D02*
X131124028Y-90016138D01*
X131124028Y-90016138D02*
X131052600Y-90158995D01*
X131052600Y-90158995D02*
X130981171Y-90230423D01*
D12*
%TO.P,A1,1,~{RESET}*%
%TO.N,unconnected-(A1-~{RESET}-Pad1)*%
X168000000Y-104800000D03*
D13*
%TO.P,A1,2,3V3*%
%TO.N,+BATT*%
X165460000Y-104800000D03*
%TO.P,A1,3,NC*%
%TO.N,unconnected-(A1-NC-Pad3)*%
X162920000Y-104800000D03*
%TO.P,A1,4,GND*%
%TO.N,GND*%
X160380000Y-104800000D03*
%TO.P,A1,5,DAC2/A0*%
%TO.N,/SSTRB*%
X157840000Y-104800000D03*
%TO.P,A1,6,DAC1/A1*%
%TO.N,/~{CS}*%
X155300000Y-104800000D03*
%TO.P,A1,7,I34/A2*%
%TO.N,unconnected-(A1-I34{slash}A2-Pad7)*%
X152760000Y-104800000D03*
%TO.P,A1,8,I39/A3*%
%TO.N,unconnected-(A1-I39{slash}A3-Pad8)*%
X150220000Y-104800000D03*
%TO.P,A1,9,IO36/A4*%
%TO.N,unconnected-(A1-IO36{slash}A4-Pad9)*%
X147680000Y-104800000D03*
%TO.P,A1,10,IO4/A5*%
%TO.N,unconnected-(A1-IO4{slash}A5-Pad10)*%
X145140000Y-104800000D03*
%TO.P,A1,11,SCK/IO5*%
%TO.N,/SCK*%
X142600000Y-104800000D03*
%TO.P,A1,12,MOSI/IO18*%
%TO.N,/MOSI*%
X140060000Y-104800000D03*
%TO.P,A1,13,MISO/IO19*%
%TO.N,/MISO*%
X137520000Y-104800000D03*
%TO.P,A1,14,RX/IO16*%
%TO.N,unconnected-(A1-RX{slash}IO16-Pad14)*%
X134980000Y-104800000D03*
%TO.P,A1,15,TX/IO17*%
%TO.N,unconnected-(A1-TX{slash}IO17-Pad15)*%
X132440000Y-104800000D03*
%TO.P,A1,16,IO21*%
%TO.N,unconnected-(A1-IO21-Pad16)*%
X129900000Y-104800000D03*
%TO.P,A1,17,SDA/IO23*%
%TO.N,unconnected-(A1-SDA{slash}IO23-Pad17)*%
X129900000Y-124520000D03*
%TO.P,A1,18,SCL/IO22*%
%TO.N,unconnected-(A1-SCL{slash}IO22-Pad18)*%
X132440000Y-124520000D03*
%TO.P,A1,19,A6/IO14*%
%TO.N,Net-(A1-A6{slash}IO14)*%
X134980000Y-124520000D03*
%TO.P,A1,20,A7/IO32*%
%TO.N,unconnected-(A1-A7{slash}IO32-Pad20)*%
X137520000Y-124520000D03*
%TO.P,A1,21,A8/IO15*%
%TO.N,unconnected-(A1-A8{slash}IO15-Pad21)*%
X140060000Y-124520000D03*
%TO.P,A1,22,A9/IO33*%
%TO.N,unconnected-(A1-A9{slash}IO33-Pad22)*%
X142600000Y-124520000D03*
%TO.P,A1,23,A10/IO27*%
%TO.N,unconnected-(A1-A10{slash}IO27-Pad23)*%
X145140000Y-124520000D03*
%TO.P,A1,24,A11/IO12*%
%TO.N,unconnected-(A1-A11{slash}IO12-Pad24)*%
X147680000Y-124520000D03*
%TO.P,A1,25,A12/IO13*%
%TO.N,unconnected-(A1-A12{slash}IO13-Pad25)*%
X150220000Y-124520000D03*
%TO.P,A1,26,USB*%
%TO.N,unconnected-(A1-USB-Pad26)*%
X152760000Y-124520000D03*
%TO.P,A1,27,EN*%
%TO.N,unconnected-(A1-EN-Pad27)*%
X155300000Y-124520000D03*
%TO.P,A1,28,VBAT*%
%TO.N,Net-(A1-A6{slash}IO14)*%
X157840000Y-124520000D03*
%TD*%
D14*
%TO.P,U4,1,AVDD1*%
%TO.N,+5V*%
X146721000Y-93199000D03*
%TO.P,U4,2,CH0*%
X146721000Y-93849000D03*
%TO.P,U4,3,CH1*%
%TO.N,Net-(J2-Pin_3)*%
X146721000Y-94499000D03*
%TO.P,U4,4,CH2*%
%TO.N,Net-(J2-Pin_1)*%
X146721000Y-95149000D03*
%TO.P,U4,5,CH3*%
%TO.N,unconnected-(U4-CH3-Pad5)*%
X146721000Y-95799000D03*
%TO.P,U4,6,CH4*%
%TO.N,unconnected-(U4-CH4-Pad6)*%
X146721000Y-96449000D03*
%TO.P,U4,7,CH5*%
%TO.N,unconnected-(U4-CH5-Pad7)*%
X146721000Y-97099000D03*
%TO.P,U4,8,CH6*%
%TO.N,unconnected-(U4-CH6-Pad8)*%
X146721000Y-97749000D03*
%TO.P,U4,9,CH7*%
%TO.N,unconnected-(U4-CH7-Pad9)*%
X146721000Y-98399000D03*
%TO.P,U4,10,~{CS}*%
%TO.N,/~{CS}*%
X146721000Y-99049000D03*
%TO.P,U4,11,DIN*%
%TO.N,/MOSI*%
X146721000Y-99699000D03*
%TO.P,U4,12,SSTRB*%
%TO.N,/SSTRB*%
X146721000Y-100349000D03*
%TO.P,U4,13,SCLK*%
%TO.N,/SCK*%
X152491000Y-100349000D03*
%TO.P,U4,14,DOUT*%
%TO.N,/MISO*%
X152491000Y-99699000D03*
%TO.P,U4,15,DGND0*%
%TO.N,GND*%
X152491000Y-99049000D03*
%TO.P,U4,16,DGND*%
X152491000Y-98399000D03*
%TO.P,U4,17,DVDD0*%
%TO.N,+BATT*%
X152491000Y-97749000D03*
%TO.P,U4,18,DVDD*%
%TO.N,+5V*%
X152491000Y-97099000D03*
%TO.P,U4,19,REFCAP*%
%TO.N,Net-(U4-REFCAP)*%
X152491000Y-96449000D03*
%TO.P,U4,20,REF*%
%TO.N,Net-(U4-REF)*%
X152491000Y-95799000D03*
%TO.P,U4,21,AGND3*%
%TO.N,GND*%
X152491000Y-95149000D03*
%TO.P,U4,22,AVDD2*%
%TO.N,+5V*%
X152491000Y-94499000D03*
%TO.P,U4,23,AGND2*%
%TO.N,GND*%
X152491000Y-93849000D03*
%TO.P,U4,24,AGND1*%
X152491000Y-93199000D03*
%TD*%
D15*
%TO.P,C8,1*%
%TO.N,GND*%
X159921252Y-93655462D03*
%TO.P,C8,2*%
%TO.N,Net-(U4-REF)*%
X158021252Y-93655462D03*
%TD*%
D16*
%TO.P,J2,1,Pin_1*%
%TO.N,Net-(J2-Pin_1)*%
X155579000Y-87507000D03*
D17*
%TO.P,J2,2,Pin_2*%
%TO.N,GND*%
X153039000Y-87507000D03*
%TO.P,J2,3,Pin_3*%
%TO.N,Net-(J2-Pin_3)*%
X150499000Y-87507000D03*
%TO.P,J2,4,Pin_4*%
%TO.N,GND*%
X147959000Y-87507000D03*
%TD*%
D18*
%TO.P,C11,1*%
%TO.N,GND*%
X141671000Y-95631000D03*
%TO.P,C11,2*%
%TO.N,+5V*%
X143571000Y-95631000D03*
%TD*%
D15*
%TO.P,C9,1*%
%TO.N,GND*%
X159900000Y-96068462D03*
%TO.P,C9,2*%
%TO.N,Net-(U4-REFCAP)*%
X158000000Y-96068462D03*
%TD*%
D18*
%TO.P,C2,1*%
%TO.N,+5V*%
X158082252Y-98608462D03*
%TO.P,C2,2*%
%TO.N,GND*%
X159982252Y-98608462D03*
%TD*%
%TO.P,C3,1*%
%TO.N,+BATT*%
X158010252Y-100802462D03*
%TO.P,C3,2*%
%TO.N,GND*%
X159910252Y-100802462D03*
%TD*%
D15*
%TO.P,C1,1*%
%TO.N,+5V*%
X143571000Y-93002500D03*
%TO.P,C1,2*%
%TO.N,GND*%
X141671000Y-93002500D03*
%TD*%
D19*
%TO.P,J1,1,Pin_1*%
%TO.N,+BATT*%
X136398000Y-91948000D03*
D17*
%TO.P,J1,2,Pin_2*%
%TO.N,GND*%
X136398000Y-94488000D03*
%TO.P,J1,3,Pin_3*%
%TO.N,+5V*%
X136398000Y-97028000D03*
%TO.P,J1,4,Pin_4*%
%TO.N,+BATT*%
X136398000Y-99568000D03*
%TD*%
D20*
%TO.N,+BATT*%
X141605000Y-99060000D03*
X162814000Y-101092000D03*
%TO.N,GND*%
X137922000Y-89154000D03*
X155067000Y-90043000D03*
%TD*%
D21*
%TO.N,+BATT*%
X159116000Y-102616000D02*
X163576000Y-102616000D01*
X158234500Y-101026710D02*
X158234500Y-101734500D01*
X156614790Y-99407000D02*
X158234500Y-101026710D01*
X155834058Y-99407000D02*
X156614790Y-99407000D01*
X155379488Y-98952430D02*
X155834058Y-99407000D01*
X158234500Y-101734500D02*
X159116000Y-102616000D01*
X154537928Y-98952430D02*
X155379488Y-98952430D01*
X153334498Y-97749000D02*
X154537928Y-98952430D01*
X163576000Y-102616000D02*
X165460000Y-104500000D01*
X152491000Y-97749000D02*
X153334498Y-97749000D01*
D22*
X163703000Y-102743000D02*
X165460000Y-104500000D01*
X163703000Y-101981000D02*
X163703000Y-102743000D01*
X141097000Y-99568000D02*
X141605000Y-99060000D01*
X134697000Y-93649000D02*
X134697000Y-97867000D01*
X162814000Y-101092000D02*
X163703000Y-101981000D01*
X134697000Y-97867000D02*
X136398000Y-99568000D01*
X136398000Y-91948000D02*
X134697000Y-93649000D01*
X136398000Y-99568000D02*
X141097000Y-99568000D01*
D23*
%TO.N,Net-(U4-REF)*%
X153756000Y-95799000D02*
X155702000Y-93853000D01*
X152491000Y-95799000D02*
X153756000Y-95799000D01*
X157823714Y-93853000D02*
X158021252Y-93655462D01*
X155702000Y-93853000D02*
X157823714Y-93853000D01*
%TO.N,Net-(U4-REFCAP)*%
X157169538Y-96068462D02*
X158000000Y-96068462D01*
X157884714Y-96266000D02*
X158082252Y-96068462D01*
X156789000Y-96449000D02*
X157169538Y-96068462D01*
X152491000Y-96449000D02*
X156789000Y-96449000D01*
%TO.N,/MOSI*%
X144861000Y-99699000D02*
X146721000Y-99699000D01*
X140060000Y-104500000D02*
X144861000Y-99699000D01*
%TO.N,/SCK*%
X142600000Y-104500000D02*
X144501000Y-106401000D01*
X156401000Y-103509001D02*
X153240999Y-100349000D01*
X156401000Y-105756049D02*
X156401000Y-103509001D01*
X155756049Y-106401000D02*
X156401000Y-105756049D01*
X144501000Y-106401000D02*
X155756049Y-106401000D01*
X153240999Y-100349000D02*
X152491000Y-100349000D01*
%TO.N,/~{CS}*%
X155000000Y-104500000D02*
X149549000Y-99049000D01*
X146605000Y-98933000D02*
X146721000Y-99049000D01*
X149549000Y-99049000D02*
X146721000Y-99049000D01*
X155300000Y-104500000D02*
X155000000Y-104500000D01*
%TO.N,/MISO*%
X152491000Y-99699000D02*
X154796049Y-99699000D01*
X158941000Y-103843951D02*
X158941000Y-105756049D01*
X157294049Y-107403000D02*
X140423000Y-107403000D01*
X154796049Y-99699000D02*
X158941000Y-103843951D01*
X158941000Y-105756049D02*
X157294049Y-107403000D01*
X140423000Y-107403000D02*
X137520000Y-104500000D01*
%TO.N,Net-(J2-Pin_3)*%
X147470999Y-94499000D02*
X150499000Y-91470999D01*
X150499000Y-91470999D02*
X150499000Y-87507000D01*
X146721000Y-94499000D02*
X147470999Y-94499000D01*
%TO.N,Net-(J2-Pin_1)*%
X146721000Y-95149000D02*
X147470999Y-95149000D01*
X155112999Y-87507000D02*
X155579000Y-87507000D01*
X147470999Y-95149000D02*
X155112999Y-87507000D01*
D21*
%TO.N,+5V*%
X156464000Y-83058000D02*
X147193000Y-83058000D01*
X143571000Y-93002500D02*
X146524500Y-93002500D01*
X150357000Y-94499000D02*
X152491000Y-94499000D01*
X146524500Y-93002500D02*
X146721000Y-93199000D01*
X150114000Y-96774000D02*
X150114000Y-94742000D01*
X143256000Y-97028000D02*
X143637000Y-96647000D01*
X136398000Y-97028000D02*
X143256000Y-97028000D01*
X146177000Y-84074000D02*
X146177000Y-92655000D01*
X157267670Y-90636330D02*
X157267670Y-83861670D01*
X152491000Y-97099000D02*
X150439000Y-97099000D01*
X147193000Y-83058000D02*
X146177000Y-84074000D01*
X156083000Y-98806000D02*
X157884714Y-98806000D01*
X150114000Y-94742000D02*
X150357000Y-94499000D01*
X157267670Y-83861670D02*
X156464000Y-83058000D01*
X143571000Y-95631000D02*
X143571000Y-93002500D01*
X153405000Y-94499000D02*
X157267670Y-90636330D01*
X146721000Y-93199000D02*
X146721000Y-93849000D01*
X143637000Y-96647000D02*
X143637000Y-95697000D01*
X157884714Y-98806000D02*
X158082252Y-98608462D01*
X154376000Y-97099000D02*
X156083000Y-98806000D01*
X150439000Y-97099000D02*
X150114000Y-96774000D01*
X152491000Y-94499000D02*
X153405000Y-94499000D01*
X152491000Y-97099000D02*
X154376000Y-97099000D01*
X146177000Y-92655000D02*
X146721000Y-93199000D01*
X143637000Y-95697000D02*
X143571000Y-95631000D01*
D23*
%TO.N,GND*%
X160380000Y-104500000D02*
X162281000Y-106401000D01*
X160179790Y-98806000D02*
X159982252Y-98608462D01*
X136398000Y-94488000D02*
X140528000Y-94488000D01*
X140528000Y-94488000D02*
X141671000Y-95631000D01*
X159910252Y-100802462D02*
X159910252Y-98680462D01*
X169101000Y-106085160D02*
X169101000Y-103250000D01*
X152491000Y-99049000D02*
X152491000Y-98399000D01*
X149613000Y-96981520D02*
X149613000Y-94481000D01*
X168785160Y-106401000D02*
X169101000Y-106085160D01*
X150245000Y-93849000D02*
X152491000Y-93849000D01*
X153838900Y-95149000D02*
X152491000Y-95149000D01*
X156404900Y-92583000D02*
X153838900Y-95149000D01*
X155067000Y-90043000D02*
X152491000Y-92619000D01*
X169101000Y-103250000D02*
X164911000Y-99060000D01*
X159921252Y-93655462D02*
X158848790Y-92583000D01*
X159910252Y-98680462D02*
X159982252Y-98608462D01*
X164911000Y-99060000D02*
X161652714Y-99060000D01*
X147959000Y-87507000D02*
X149360000Y-86106000D01*
X151030480Y-98399000D02*
X149613000Y-96981520D01*
X162281000Y-106401000D02*
X168785160Y-106401000D01*
X149360000Y-86106000D02*
X151638000Y-86106000D01*
X151638000Y-86106000D02*
X153039000Y-87507000D01*
X158848790Y-92583000D02*
X156404900Y-92583000D01*
X159921252Y-98547462D02*
X159982252Y-98608462D01*
X152491000Y-98399000D02*
X151030480Y-98399000D01*
X149613000Y-94481000D02*
X150245000Y-93849000D01*
X152491000Y-92619000D02*
X152491000Y-93199000D01*
X161652714Y-99060000D02*
X159910252Y-100802462D01*
X152491000Y-93199000D02*
X152491000Y-93693000D01*
X141671000Y-93002500D02*
X141671000Y-95631000D01*
X159921252Y-93655462D02*
X159921252Y-98547462D01*
%TO.N,Net-(A1-A6{slash}IO14)*%
X155939000Y-122919000D02*
X157840000Y-124820000D01*
X136881000Y-122919000D02*
X155939000Y-122919000D01*
X134980000Y-124820000D02*
X136881000Y-122919000D01*
%TO.N,/SSTRB*%
X157840000Y-105660000D02*
X156598000Y-106902000D01*
X156598000Y-106902000D02*
X142644951Y-106902000D01*
X144993951Y-100349000D02*
X146721000Y-100349000D01*
X141499000Y-103843951D02*
X144993951Y-100349000D01*
X142644951Y-106902000D02*
X141499000Y-105756049D01*
X141499000Y-105756049D02*
X141499000Y-103843951D01*
X157840000Y-104500000D02*
X157840000Y-105660000D01*
%TD*%
%TA.AperFunction,Conductor*%
%TO.N,GND*%
G36*
X157429171Y-81927185D02*
G01*
X157474926Y-81979989D01*
X157486123Y-82029969D01*
X157500852Y-83223050D01*
X157481996Y-83290328D01*
X157429761Y-83336731D01*
X157360730Y-83347527D01*
X157296821Y-83319289D01*
X157289180Y-83312262D01*
X156794111Y-82817193D01*
X156794109Y-82817190D01*
X156711880Y-82734961D01*
X156711878Y-82734959D01*
X156619823Y-82681811D01*
X156619822Y-82681810D01*
X156619821Y-82681810D01*
X156619819Y-82681809D01*
X156607011Y-82678377D01*
X156607003Y-82678376D01*
X156598124Y-82675997D01*
X156517148Y-82654299D01*
X156410852Y-82654299D01*
X156410848Y-82654300D01*
X147253760Y-82654300D01*
X147253744Y-82654299D01*
X147246148Y-82654299D01*
X147139852Y-82654299D01*
X147058874Y-82675997D01*
X147058873Y-82675996D01*
X147037177Y-82681810D01*
X146945122Y-82734959D01*
X146945119Y-82734961D01*
X145853961Y-83826119D01*
X145853957Y-83826125D01*
X145800810Y-83918176D01*
X145800811Y-83918176D01*
X145800811Y-83918178D01*
X145773299Y-84020853D01*
X145773299Y-84137137D01*
X145773300Y-84137150D01*
X145773300Y-87376000D01*
X145753615Y-87443039D01*
X145700811Y-87488794D01*
X145649300Y-87500000D01*
X140000000Y-87500000D01*
X139903927Y-96501623D01*
X139883528Y-96568449D01*
X139830239Y-96613638D01*
X139779934Y-96624300D01*
X137727712Y-96624300D01*
X137660673Y-96604615D01*
X137614918Y-96551811D01*
X137609784Y-96538627D01*
X137606186Y-96527553D01*
X137606184Y-96527550D01*
X137606184Y-96527548D01*
X137513023Y-96344711D01*
X137456324Y-96266672D01*
X137392406Y-96178697D01*
X137247303Y-96033594D01*
X137243858Y-96030149D01*
X137245278Y-96028728D01*
X137211712Y-95977313D01*
X137211212Y-95907445D01*
X137248564Y-95848397D01*
X137257551Y-95841208D01*
X137338697Y-95782251D01*
X137338698Y-95782250D01*
X136568234Y-95011787D01*
X136610292Y-95000518D01*
X136735708Y-94928110D01*
X136838110Y-94825708D01*
X136910518Y-94700292D01*
X136921787Y-94658235D01*
X137692250Y-95428698D01*
X137692250Y-95428697D01*
X137766442Y-95326581D01*
X137766446Y-95326575D01*
X137880780Y-95102184D01*
X137958602Y-94862669D01*
X137998000Y-94613928D01*
X137998000Y-94362071D01*
X137958602Y-94113330D01*
X137880780Y-93873815D01*
X137766442Y-93649416D01*
X137692250Y-93547301D01*
X137692250Y-93547300D01*
X136921787Y-94317764D01*
X136910518Y-94275708D01*
X136838110Y-94150292D01*
X136735708Y-94047890D01*
X136610292Y-93975482D01*
X136568233Y-93964212D01*
X137246875Y-93285571D01*
X137308198Y-93252086D01*
X137322972Y-93249794D01*
X137333302Y-93248826D01*
X137333304Y-93248825D01*
X137333306Y-93248825D01*
X137378196Y-93233116D01*
X137462395Y-93203654D01*
X137572439Y-93122439D01*
X137653654Y-93012395D01*
X137677015Y-92945631D01*
X137698826Y-92883304D01*
X137698826Y-92883302D01*
X137701700Y-92852658D01*
X137701700Y-91043341D01*
X137698826Y-91012697D01*
X137698826Y-91012695D01*
X137653655Y-90883609D01*
X137653654Y-90883605D01*
X137572439Y-90773561D01*
X137462395Y-90692346D01*
X137462391Y-90692344D01*
X137462390Y-90692344D01*
X137333303Y-90647173D01*
X137302658Y-90644300D01*
X137302654Y-90644300D01*
X135493346Y-90644300D01*
X135493342Y-90644300D01*
X135462697Y-90647173D01*
X135462695Y-90647173D01*
X135333609Y-90692344D01*
X135333607Y-90692345D01*
X135333606Y-90692345D01*
X135333605Y-90692346D01*
X135279183Y-90732511D01*
X135223561Y-90773561D01*
X135142345Y-90883607D01*
X135142344Y-90883609D01*
X135097173Y-91012695D01*
X135097173Y-91012697D01*
X135094300Y-91043341D01*
X135094300Y-92558709D01*
X135074615Y-92625748D01*
X135057981Y-92646390D01*
X134333950Y-93370420D01*
X134333946Y-93370425D01*
X134313294Y-93406198D01*
X134313293Y-93406200D01*
X134274219Y-93473878D01*
X134243300Y-93589269D01*
X134243300Y-93589271D01*
X134243300Y-97926730D01*
X134268935Y-98022404D01*
X134274219Y-98042122D01*
X134277706Y-98048161D01*
X134309152Y-98102627D01*
X134333948Y-98145577D01*
X135152295Y-98963924D01*
X135185780Y-99025247D01*
X135182545Y-99089923D01*
X135126402Y-99262711D01*
X135126402Y-99262714D01*
X135094300Y-99465397D01*
X135094300Y-99670602D01*
X135126402Y-99873285D01*
X135126402Y-99873288D01*
X135189812Y-100068444D01*
X135189813Y-100068447D01*
X135229850Y-100147023D01*
X135282976Y-100251288D01*
X135403594Y-100417303D01*
X135548697Y-100562406D01*
X135714712Y-100683024D01*
X135804390Y-100728717D01*
X135897552Y-100776186D01*
X135897555Y-100776187D01*
X136079588Y-100835332D01*
X136092716Y-100839598D01*
X136295397Y-100871700D01*
X136295398Y-100871700D01*
X136500602Y-100871700D01*
X136500603Y-100871700D01*
X136703284Y-100839598D01*
X136703287Y-100839597D01*
X136703288Y-100839597D01*
X136898444Y-100776187D01*
X136898447Y-100776186D01*
X137081288Y-100683024D01*
X137247303Y-100562406D01*
X137392406Y-100417303D01*
X137513024Y-100251288D01*
X137595507Y-100089404D01*
X137643481Y-100038609D01*
X137705992Y-100021700D01*
X139741027Y-100021700D01*
X139808066Y-100041385D01*
X139853821Y-100094189D01*
X139865020Y-100147023D01*
X139842689Y-102239323D01*
X139822290Y-102306149D01*
X139769001Y-102351338D01*
X139718696Y-102362000D01*
X131915735Y-102362000D01*
X131848696Y-102342315D01*
X131802941Y-102289511D01*
X131791735Y-102238000D01*
X131791735Y-86742038D01*
X133908500Y-86742038D01*
X133908500Y-86993962D01*
X133910494Y-87006553D01*
X133947910Y-87242785D01*
X134025760Y-87482383D01*
X134075198Y-87579409D01*
X134128376Y-87683777D01*
X134140132Y-87706848D01*
X134288201Y-87910649D01*
X134288205Y-87910654D01*
X134466345Y-88088794D01*
X134466350Y-88088798D01*
X134606040Y-88190288D01*
X134670155Y-88236870D01*
X134813184Y-88309747D01*
X134894616Y-88351239D01*
X134894618Y-88351239D01*
X134894621Y-88351241D01*
X135134215Y-88429090D01*
X135383038Y-88468500D01*
X135383039Y-88468500D01*
X135634961Y-88468500D01*
X135634962Y-88468500D01*
X135883785Y-88429090D01*
X136123379Y-88351241D01*
X136347845Y-88236870D01*
X136551656Y-88088793D01*
X136729793Y-87910656D01*
X136877870Y-87706845D01*
X136992241Y-87482379D01*
X137070090Y-87242785D01*
X137109500Y-86993962D01*
X137109500Y-86742038D01*
X137070090Y-86493215D01*
X136992241Y-86253621D01*
X136992239Y-86253618D01*
X136992239Y-86253616D01*
X136933613Y-86138557D01*
X136877870Y-86029155D01*
X136817743Y-85946397D01*
X136729798Y-85825350D01*
X136729794Y-85825345D01*
X136551654Y-85647205D01*
X136551649Y-85647201D01*
X136347848Y-85499132D01*
X136347847Y-85499131D01*
X136347845Y-85499130D01*
X136277747Y-85463413D01*
X136123383Y-85384760D01*
X135883785Y-85306910D01*
X135634962Y-85267500D01*
X135383038Y-85267500D01*
X135258626Y-85287205D01*
X135134214Y-85306910D01*
X134894616Y-85384760D01*
X134670151Y-85499132D01*
X134466350Y-85647201D01*
X134466345Y-85647205D01*
X134288205Y-85825345D01*
X134288201Y-85825350D01*
X134140132Y-86029151D01*
X134025760Y-86253616D01*
X133947910Y-86493214D01*
X133916724Y-86690113D01*
X133908500Y-86742038D01*
X131791735Y-86742038D01*
X131791735Y-82564581D01*
X124484351Y-82564581D01*
X124484351Y-102238000D01*
X124464666Y-102305039D01*
X124411862Y-102350794D01*
X124360351Y-102362000D01*
X123052500Y-102362000D01*
X122985461Y-102342315D01*
X122939706Y-102289511D01*
X122928500Y-102238000D01*
X122928500Y-82031500D01*
X122948185Y-81964461D01*
X123000989Y-81918706D01*
X123052500Y-81907500D01*
X157362132Y-81907500D01*
X157429171Y-81927185D01*
G37*
%TD.AperFunction*%
%TA.AperFunction,Conductor*%
G36*
X147446482Y-87719292D02*
G01*
X147518890Y-87844708D01*
X147621292Y-87947110D01*
X147746708Y-88019518D01*
X147788765Y-88030787D01*
X147018300Y-88801250D01*
X147120416Y-88875442D01*
X147344815Y-88989780D01*
X147584330Y-89067602D01*
X147833072Y-89107000D01*
X148084928Y-89107000D01*
X148333669Y-89067602D01*
X148573184Y-88989780D01*
X148797575Y-88875446D01*
X148797581Y-88875442D01*
X148899697Y-88801250D01*
X148899698Y-88801250D01*
X148129234Y-88030787D01*
X148171292Y-88019518D01*
X148296708Y-87947110D01*
X148399110Y-87844708D01*
X148471518Y-87719292D01*
X148482787Y-87677235D01*
X149253250Y-88447698D01*
X149253251Y-88447697D01*
X149312208Y-88366551D01*
X149367538Y-88323885D01*
X149437151Y-88317906D01*
X149498946Y-88350512D01*
X149501147Y-88352859D01*
X149501149Y-88352858D01*
X149504594Y-88356303D01*
X149649697Y-88501406D01*
X149815712Y-88622024D01*
X149891098Y-88660435D01*
X149998552Y-88715186D01*
X149998555Y-88715187D01*
X150109618Y-88751273D01*
X150167293Y-88790710D01*
X150194492Y-88855069D01*
X150195300Y-88869204D01*
X150195300Y-90681000D01*
X150175615Y-90748039D01*
X150122811Y-90793794D01*
X150071300Y-90805000D01*
X146704700Y-90805000D01*
X146637661Y-90785315D01*
X146591906Y-90732511D01*
X146580700Y-90681000D01*
X146580700Y-88575225D01*
X146600385Y-88508186D01*
X146629420Y-88483026D01*
X147435212Y-87677234D01*
X147446482Y-87719292D01*
G37*
%TD.AperFunction*%
%TA.AperFunction,Conductor*%
G36*
X152526482Y-87719292D02*
G01*
X152598890Y-87844708D01*
X152701292Y-87947110D01*
X152826708Y-88019518D01*
X152868765Y-88030787D01*
X152098300Y-88801250D01*
X152200416Y-88875442D01*
X152424815Y-88989780D01*
X152664330Y-89067602D01*
X152819832Y-89092232D01*
X152882967Y-89122161D01*
X152919898Y-89181473D01*
X152918900Y-89251335D01*
X152888115Y-89302386D01*
X151421821Y-90768681D01*
X151360498Y-90802166D01*
X151334140Y-90805000D01*
X150926700Y-90805000D01*
X150859661Y-90785315D01*
X150813906Y-90732511D01*
X150802700Y-90681000D01*
X150802700Y-88869204D01*
X150822385Y-88802165D01*
X150875189Y-88756410D01*
X150888382Y-88751273D01*
X150999444Y-88715187D01*
X150999447Y-88715186D01*
X151065679Y-88681439D01*
X151182288Y-88622024D01*
X151348303Y-88501406D01*
X151493406Y-88356303D01*
X151493406Y-88356302D01*
X151496851Y-88352858D01*
X151498280Y-88354287D01*
X151549624Y-88320731D01*
X151619492Y-88320194D01*
X151678559Y-88357515D01*
X151685791Y-88366551D01*
X151744747Y-88447697D01*
X151744748Y-88447698D01*
X152515212Y-87677234D01*
X152526482Y-87719292D01*
G37*
%TD.AperFunction*%
%TA.AperFunction,Conductor*%
G36*
X154439116Y-88712891D02*
G01*
X154469413Y-88729301D01*
X154514605Y-88762654D01*
X154560170Y-88778598D01*
X154643696Y-88807826D01*
X154674342Y-88810700D01*
X154674346Y-88810700D01*
X156483658Y-88810700D01*
X156514302Y-88807826D01*
X156514304Y-88807826D01*
X156576631Y-88786015D01*
X156643395Y-88762654D01*
X156666340Y-88745719D01*
X156731966Y-88721751D01*
X156800136Y-88737067D01*
X156849204Y-88786807D01*
X156863970Y-88845492D01*
X156863970Y-90417750D01*
X156844285Y-90484789D01*
X156827651Y-90505431D01*
X156564401Y-90768681D01*
X156503078Y-90802166D01*
X156476720Y-90805000D01*
X152543858Y-90805000D01*
X152476819Y-90785315D01*
X152431064Y-90732511D01*
X152421120Y-90663353D01*
X152450145Y-90599797D01*
X152456177Y-90593319D01*
X153798160Y-89251335D01*
X154308104Y-88741390D01*
X154369425Y-88707907D01*
X154439116Y-88712891D01*
G37*
%TD.AperFunction*%
%TA.AperFunction,Conductor*%
G36*
X156312459Y-83481385D02*
G01*
X156333101Y-83498019D01*
X156827651Y-83992569D01*
X156861136Y-84053892D01*
X156863970Y-84080250D01*
X156863970Y-86168507D01*
X156844285Y-86235546D01*
X156791481Y-86281301D01*
X156722323Y-86291245D01*
X156666339Y-86268279D01*
X156643395Y-86251346D01*
X156643390Y-86251344D01*
X156514303Y-86206173D01*
X156483658Y-86203300D01*
X156483654Y-86203300D01*
X154674346Y-86203300D01*
X154674342Y-86203300D01*
X154643697Y-86206173D01*
X154643695Y-86206173D01*
X154514609Y-86251344D01*
X154514607Y-86251345D01*
X154514606Y-86251345D01*
X154514605Y-86251346D01*
X154404561Y-86332561D01*
X154326175Y-86438773D01*
X154323345Y-86442607D01*
X154323344Y-86442609D01*
X154278173Y-86571695D01*
X154278173Y-86571696D01*
X154277205Y-86582024D01*
X154251345Y-86646932D01*
X154241428Y-86658124D01*
X153562787Y-87336765D01*
X153551518Y-87294708D01*
X153479110Y-87169292D01*
X153376708Y-87066890D01*
X153251292Y-86994482D01*
X153209232Y-86983212D01*
X153979698Y-86212748D01*
X153877583Y-86138557D01*
X153653184Y-86024219D01*
X153413669Y-85946397D01*
X153164928Y-85907000D01*
X152913072Y-85907000D01*
X152664330Y-85946397D01*
X152424815Y-86024219D01*
X152200413Y-86138559D01*
X152098301Y-86212747D01*
X152098300Y-86212748D01*
X152868765Y-86983212D01*
X152826708Y-86994482D01*
X152701292Y-87066890D01*
X152598890Y-87169292D01*
X152526482Y-87294708D01*
X152515212Y-87336764D01*
X151744748Y-86566300D01*
X151744746Y-86566301D01*
X151685791Y-86647447D01*
X151630461Y-86690113D01*
X151560848Y-86696092D01*
X151499053Y-86663486D01*
X151496852Y-86661140D01*
X151496851Y-86661142D01*
X151348304Y-86512595D01*
X151182288Y-86391976D01*
X151140125Y-86370493D01*
X150999447Y-86298813D01*
X150999444Y-86298812D01*
X150804286Y-86235402D01*
X150619748Y-86206174D01*
X150601603Y-86203300D01*
X150396397Y-86203300D01*
X150378252Y-86206174D01*
X150193714Y-86235402D01*
X150193711Y-86235402D01*
X149998555Y-86298812D01*
X149998552Y-86298813D01*
X149815711Y-86391976D01*
X149649695Y-86512595D01*
X149649694Y-86512596D01*
X149501149Y-86661142D01*
X149499736Y-86659729D01*
X149448259Y-86693303D01*
X149378391Y-86693772D01*
X149319361Y-86656394D01*
X149312208Y-86647448D01*
X149253251Y-86566301D01*
X149253250Y-86566300D01*
X148482787Y-87336764D01*
X148471518Y-87294708D01*
X148399110Y-87169292D01*
X148296708Y-87066890D01*
X148171292Y-86994482D01*
X148129232Y-86983212D01*
X148899698Y-86212748D01*
X148797583Y-86138557D01*
X148573184Y-86024219D01*
X148333669Y-85946397D01*
X148084928Y-85907000D01*
X147833072Y-85907000D01*
X147584330Y-85946397D01*
X147344815Y-86024219D01*
X147120413Y-86138559D01*
X147018301Y-86212747D01*
X147018300Y-86212748D01*
X147788765Y-86983212D01*
X147746708Y-86994482D01*
X147621292Y-87066890D01*
X147518890Y-87169292D01*
X147446482Y-87294708D01*
X147435212Y-87336765D01*
X146646586Y-86548139D01*
X146646049Y-86548026D01*
X146636145Y-86538262D01*
X146623497Y-86532486D01*
X146611756Y-86514217D01*
X146596294Y-86498973D01*
X146592468Y-86484203D01*
X146585723Y-86473708D01*
X146580700Y-86438773D01*
X146580700Y-84292580D01*
X146600385Y-84225541D01*
X146617019Y-84204899D01*
X147323899Y-83498019D01*
X147385222Y-83464534D01*
X147411580Y-83461700D01*
X156245420Y-83461700D01*
X156312459Y-83481385D01*
G37*
%TD.AperFunction*%
%TD*%
M02*
