%TF.GenerationSoftware,KiCad,Pcbnew,9.0.3*%
%TF.CreationDate,2025-08-27T20:39:39-07:00*%
%TF.ProjectId,ADC_and_voltage_boost,4144435f-616e-4645-9f76-6f6c74616765,v2.0*%
%TF.SameCoordinates,Original*%
%TF.FileFunction,Copper,L2,Bot*%
%TF.FilePolarity,Positive*%
%FSLAX46Y46*%
G04 Gerber Fmt 4.6, Leading zero omitted, Abs format (unit mm)*
G04 Created by KiCad (PCBNEW 9.0.3) date 2025-08-27 20:39:39*
%MOMM*%
%LPD*%
G01*
G04 APERTURE LIST*
G04 Aperture macros list*
%AMRoundRect*
0 Rectangle with rounded corners*
0 $1 Rounding radius*
0 $2 $3 $4 $5 $6 $7 $8 $9 X,Y pos of 4 corners*
0 Add a 4 corners polygon primitive as box body*
4,1,4,$2,$3,$4,$5,$6,$7,$8,$9,$2,$3,0*
0 Add four circle primitives for the rounded corners*
1,1,$1+$1,$2,$3*
1,1,$1+$1,$4,$5*
1,1,$1+$1,$6,$7*
1,1,$1+$1,$8,$9*
0 Add four rect primitives between the rounded corners*
20,1,$1+$1,$2,$3,$4,$5,0*
20,1,$1+$1,$4,$5,$6,$7,0*
20,1,$1+$1,$6,$7,$8,$9,0*
20,1,$1+$1,$8,$9,$2,$3,0*%
G04 Aperture macros list end*
%TA.AperFunction,ComponentPad*%
%ADD10RoundRect,0.250000X-0.550000X1.050000X-0.550000X-1.050000X0.550000X-1.050000X0.550000X1.050000X0*%
%TD*%
%TA.AperFunction,ComponentPad*%
%ADD11O,1.600000X2.600000*%
%TD*%
%TA.AperFunction,ComponentPad*%
%ADD12RoundRect,0.249999X0.850001X0.850001X-0.850001X0.850001X-0.850001X-0.850001X0.850001X-0.850001X0*%
%TD*%
%TA.AperFunction,ComponentPad*%
%ADD13C,2.200000*%
%TD*%
%TA.AperFunction,ComponentPad*%
%ADD14RoundRect,0.249999X-0.850001X0.850001X-0.850001X-0.850001X0.850001X-0.850001X0.850001X0.850001X0*%
%TD*%
%TA.AperFunction,ViaPad*%
%ADD15C,1.000000*%
%TD*%
%TA.AperFunction,Conductor*%
%ADD16C,0.500000*%
%TD*%
%TA.AperFunction,Conductor*%
%ADD17C,0.200000*%
%TD*%
G04 APERTURE END LIST*
D10*
%TO.P,A1,1,~{RESET}*%
%TO.N,unconnected-(A1-~{RESET}-Pad1)*%
X168000000Y-104800000D03*
D11*
%TO.P,A1,2,3V3*%
%TO.N,+BATT*%
X165460000Y-104800000D03*
%TO.P,A1,3,NC*%
%TO.N,unconnected-(A1-NC-Pad3)*%
X162920000Y-104800000D03*
%TO.P,A1,4,GND*%
%TO.N,GND*%
X160380000Y-104800000D03*
%TO.P,A1,5,DAC2/A0*%
%TO.N,/SSTRB*%
X157840000Y-104800000D03*
%TO.P,A1,6,DAC1/A1*%
%TO.N,/~{CS}*%
X155300000Y-104800000D03*
%TO.P,A1,7,I34/A2*%
%TO.N,unconnected-(A1-I34{slash}A2-Pad7)*%
X152760000Y-104800000D03*
%TO.P,A1,8,I39/A3*%
%TO.N,unconnected-(A1-I39{slash}A3-Pad8)*%
X150220000Y-104800000D03*
%TO.P,A1,9,IO36/A4*%
%TO.N,unconnected-(A1-IO36{slash}A4-Pad9)*%
X147680000Y-104800000D03*
%TO.P,A1,10,IO4/A5*%
%TO.N,unconnected-(A1-IO4{slash}A5-Pad10)*%
X145140000Y-104800000D03*
%TO.P,A1,11,SCK/IO5*%
%TO.N,/SCK*%
X142600000Y-104800000D03*
%TO.P,A1,12,MOSI/IO18*%
%TO.N,/MOSI*%
X140060000Y-104800000D03*
%TO.P,A1,13,MISO/IO19*%
%TO.N,/MISO*%
X137520000Y-104800000D03*
%TO.P,A1,14,RX/IO16*%
%TO.N,unconnected-(A1-RX{slash}IO16-Pad14)*%
X134980000Y-104800000D03*
%TO.P,A1,15,TX/IO17*%
%TO.N,unconnected-(A1-TX{slash}IO17-Pad15)*%
X132440000Y-104800000D03*
%TO.P,A1,16,IO21*%
%TO.N,unconnected-(A1-IO21-Pad16)*%
X129900000Y-104800000D03*
%TO.P,A1,17,SDA/IO23*%
%TO.N,unconnected-(A1-SDA{slash}IO23-Pad17)*%
X129900000Y-124520000D03*
%TO.P,A1,18,SCL/IO22*%
%TO.N,unconnected-(A1-SCL{slash}IO22-Pad18)*%
X132440000Y-124520000D03*
%TO.P,A1,19,A6/IO14*%
%TO.N,Net-(A1-A6{slash}IO14)*%
X134980000Y-124520000D03*
%TO.P,A1,20,A7/IO32*%
%TO.N,unconnected-(A1-A7{slash}IO32-Pad20)*%
X137520000Y-124520000D03*
%TO.P,A1,21,A8/IO15*%
%TO.N,unconnected-(A1-A8{slash}IO15-Pad21)*%
X140060000Y-124520000D03*
%TO.P,A1,22,A9/IO33*%
%TO.N,unconnected-(A1-A9{slash}IO33-Pad22)*%
X142600000Y-124520000D03*
%TO.P,A1,23,A10/IO27*%
%TO.N,unconnected-(A1-A10{slash}IO27-Pad23)*%
X145140000Y-124520000D03*
%TO.P,A1,24,A11/IO12*%
%TO.N,unconnected-(A1-A11{slash}IO12-Pad24)*%
X147680000Y-124520000D03*
%TO.P,A1,25,A12/IO13*%
%TO.N,unconnected-(A1-A12{slash}IO13-Pad25)*%
X150220000Y-124520000D03*
%TO.P,A1,26,USB*%
%TO.N,unconnected-(A1-USB-Pad26)*%
X152760000Y-124520000D03*
%TO.P,A1,27,EN*%
%TO.N,unconnected-(A1-EN-Pad27)*%
X155300000Y-124520000D03*
%TO.P,A1,28,VBAT*%
%TO.N,Net-(A1-A6{slash}IO14)*%
X157840000Y-124520000D03*
%TD*%
D12*
%TO.P,J2,1,Pin_1*%
%TO.N,Net-(J2-Pin_1)*%
X155579000Y-87507000D03*
D13*
%TO.P,J2,2,Pin_2*%
%TO.N,GND*%
X153039000Y-87507000D03*
%TO.P,J2,3,Pin_3*%
%TO.N,Net-(J2-Pin_3)*%
X150499000Y-87507000D03*
%TO.P,J2,4,Pin_4*%
%TO.N,GND*%
X147959000Y-87507000D03*
%TD*%
D14*
%TO.P,J1,1,Pin_1*%
%TO.N,+BATT*%
X136398000Y-91948000D03*
D13*
%TO.P,J1,2,Pin_2*%
%TO.N,GND*%
X136398000Y-94488000D03*
%TO.P,J1,3,Pin_3*%
%TO.N,+5V*%
X136398000Y-97028000D03*
%TO.P,J1,4,Pin_4*%
%TO.N,+BATT*%
X136398000Y-99568000D03*
%TD*%
D15*
%TO.N,+BATT*%
X141605000Y-99060000D03*
X162814000Y-101092000D03*
%TO.N,GND*%
X137922000Y-89154000D03*
X155067000Y-90043000D03*
%TD*%
D16*
%TO.N,+BATT*%
X160782000Y-99060000D02*
X141605000Y-99060000D01*
X162814000Y-101092000D02*
X160782000Y-99060000D01*
D17*
%TO.N,GND*%
X152146000Y-93980000D02*
X152911469Y-93980000D01*
X151892000Y-93980000D02*
X152146000Y-93980000D01*
%TD*%
%TA.AperFunction,Conductor*%
%TO.N,GND*%
G36*
X175083539Y-81927185D02*
G01*
X175129294Y-81979989D01*
X175140500Y-82031500D01*
X175140500Y-127010500D01*
X175120815Y-127077539D01*
X175068011Y-127123294D01*
X175016500Y-127134500D01*
X123052500Y-127134500D01*
X122985461Y-127114815D01*
X122939706Y-127062011D01*
X122928500Y-127010500D01*
X122928500Y-125118543D01*
X128899499Y-125118543D01*
X128937947Y-125311829D01*
X128937950Y-125311839D01*
X129013364Y-125493907D01*
X129013371Y-125493920D01*
X129122860Y-125657781D01*
X129122863Y-125657785D01*
X129262214Y-125797136D01*
X129262218Y-125797139D01*
X129426079Y-125906628D01*
X129426092Y-125906635D01*
X129608160Y-125982049D01*
X129608165Y-125982051D01*
X129608169Y-125982051D01*
X129608170Y-125982052D01*
X129801456Y-126020500D01*
X129801459Y-126020500D01*
X129998543Y-126020500D01*
X130128582Y-125994632D01*
X130191835Y-125982051D01*
X130373914Y-125906632D01*
X130537782Y-125797139D01*
X130677139Y-125657782D01*
X130786632Y-125493914D01*
X130862051Y-125311835D01*
X130900500Y-125118543D01*
X131439499Y-125118543D01*
X131477947Y-125311829D01*
X131477950Y-125311839D01*
X131553364Y-125493907D01*
X131553371Y-125493920D01*
X131662860Y-125657781D01*
X131662863Y-125657785D01*
X131802214Y-125797136D01*
X131802218Y-125797139D01*
X131966079Y-125906628D01*
X131966092Y-125906635D01*
X132148160Y-125982049D01*
X132148165Y-125982051D01*
X132148169Y-125982051D01*
X132148170Y-125982052D01*
X132341456Y-126020500D01*
X132341459Y-126020500D01*
X132538543Y-126020500D01*
X132668582Y-125994632D01*
X132731835Y-125982051D01*
X132913914Y-125906632D01*
X133077782Y-125797139D01*
X133217139Y-125657782D01*
X133326632Y-125493914D01*
X133402051Y-125311835D01*
X133440500Y-125118543D01*
X133979499Y-125118543D01*
X134017947Y-125311829D01*
X134017950Y-125311839D01*
X134093364Y-125493907D01*
X134093371Y-125493920D01*
X134202860Y-125657781D01*
X134202863Y-125657785D01*
X134342214Y-125797136D01*
X134342218Y-125797139D01*
X134506079Y-125906628D01*
X134506092Y-125906635D01*
X134688160Y-125982049D01*
X134688165Y-125982051D01*
X134688169Y-125982051D01*
X134688170Y-125982052D01*
X134881456Y-126020500D01*
X134881459Y-126020500D01*
X135078543Y-126020500D01*
X135208582Y-125994632D01*
X135271835Y-125982051D01*
X135453914Y-125906632D01*
X135617782Y-125797139D01*
X135757139Y-125657782D01*
X135866632Y-125493914D01*
X135942051Y-125311835D01*
X135980500Y-125118543D01*
X136519499Y-125118543D01*
X136557947Y-125311829D01*
X136557950Y-125311839D01*
X136633364Y-125493907D01*
X136633371Y-125493920D01*
X136742860Y-125657781D01*
X136742863Y-125657785D01*
X136882214Y-125797136D01*
X136882218Y-125797139D01*
X137046079Y-125906628D01*
X137046092Y-125906635D01*
X137228160Y-125982049D01*
X137228165Y-125982051D01*
X137228169Y-125982051D01*
X137228170Y-125982052D01*
X137421456Y-126020500D01*
X137421459Y-126020500D01*
X137618543Y-126020500D01*
X137748582Y-125994632D01*
X137811835Y-125982051D01*
X137993914Y-125906632D01*
X138157782Y-125797139D01*
X138297139Y-125657782D01*
X138406632Y-125493914D01*
X138482051Y-125311835D01*
X138520500Y-125118543D01*
X139059499Y-125118543D01*
X139097947Y-125311829D01*
X139097950Y-125311839D01*
X139173364Y-125493907D01*
X139173371Y-125493920D01*
X139282860Y-125657781D01*
X139282863Y-125657785D01*
X139422214Y-125797136D01*
X139422218Y-125797139D01*
X139586079Y-125906628D01*
X139586092Y-125906635D01*
X139768160Y-125982049D01*
X139768165Y-125982051D01*
X139768169Y-125982051D01*
X139768170Y-125982052D01*
X139961456Y-126020500D01*
X139961459Y-126020500D01*
X140158543Y-126020500D01*
X140288582Y-125994632D01*
X140351835Y-125982051D01*
X140533914Y-125906632D01*
X140697782Y-125797139D01*
X140837139Y-125657782D01*
X140946632Y-125493914D01*
X141022051Y-125311835D01*
X141060500Y-125118543D01*
X141599499Y-125118543D01*
X141637947Y-125311829D01*
X141637950Y-125311839D01*
X141713364Y-125493907D01*
X141713371Y-125493920D01*
X141822860Y-125657781D01*
X141822863Y-125657785D01*
X141962214Y-125797136D01*
X141962218Y-125797139D01*
X142126079Y-125906628D01*
X142126092Y-125906635D01*
X142308160Y-125982049D01*
X142308165Y-125982051D01*
X142308169Y-125982051D01*
X142308170Y-125982052D01*
X142501456Y-126020500D01*
X142501459Y-126020500D01*
X142698543Y-126020500D01*
X142828582Y-125994632D01*
X142891835Y-125982051D01*
X143073914Y-125906632D01*
X143237782Y-125797139D01*
X143377139Y-125657782D01*
X143486632Y-125493914D01*
X143562051Y-125311835D01*
X143600500Y-125118543D01*
X144139499Y-125118543D01*
X144177947Y-125311829D01*
X144177950Y-125311839D01*
X144253364Y-125493907D01*
X144253371Y-125493920D01*
X144362860Y-125657781D01*
X144362863Y-125657785D01*
X144502214Y-125797136D01*
X144502218Y-125797139D01*
X144666079Y-125906628D01*
X144666092Y-125906635D01*
X144848160Y-125982049D01*
X144848165Y-125982051D01*
X144848169Y-125982051D01*
X144848170Y-125982052D01*
X145041456Y-126020500D01*
X145041459Y-126020500D01*
X145238543Y-126020500D01*
X145368582Y-125994632D01*
X145431835Y-125982051D01*
X145613914Y-125906632D01*
X145777782Y-125797139D01*
X145917139Y-125657782D01*
X146026632Y-125493914D01*
X146102051Y-125311835D01*
X146140500Y-125118543D01*
X146679499Y-125118543D01*
X146717947Y-125311829D01*
X146717950Y-125311839D01*
X146793364Y-125493907D01*
X146793371Y-125493920D01*
X146902860Y-125657781D01*
X146902863Y-125657785D01*
X147042214Y-125797136D01*
X147042218Y-125797139D01*
X147206079Y-125906628D01*
X147206092Y-125906635D01*
X147388160Y-125982049D01*
X147388165Y-125982051D01*
X147388169Y-125982051D01*
X147388170Y-125982052D01*
X147581456Y-126020500D01*
X147581459Y-126020500D01*
X147778543Y-126020500D01*
X147908582Y-125994632D01*
X147971835Y-125982051D01*
X148153914Y-125906632D01*
X148317782Y-125797139D01*
X148457139Y-125657782D01*
X148566632Y-125493914D01*
X148642051Y-125311835D01*
X148680500Y-125118543D01*
X149219499Y-125118543D01*
X149257947Y-125311829D01*
X149257950Y-125311839D01*
X149333364Y-125493907D01*
X149333371Y-125493920D01*
X149442860Y-125657781D01*
X149442863Y-125657785D01*
X149582214Y-125797136D01*
X149582218Y-125797139D01*
X149746079Y-125906628D01*
X149746092Y-125906635D01*
X149928160Y-125982049D01*
X149928165Y-125982051D01*
X149928169Y-125982051D01*
X149928170Y-125982052D01*
X150121456Y-126020500D01*
X150121459Y-126020500D01*
X150318543Y-126020500D01*
X150448582Y-125994632D01*
X150511835Y-125982051D01*
X150693914Y-125906632D01*
X150857782Y-125797139D01*
X150997139Y-125657782D01*
X151106632Y-125493914D01*
X151182051Y-125311835D01*
X151220500Y-125118543D01*
X151759499Y-125118543D01*
X151797947Y-125311829D01*
X151797950Y-125311839D01*
X151873364Y-125493907D01*
X151873371Y-125493920D01*
X151982860Y-125657781D01*
X151982863Y-125657785D01*
X152122214Y-125797136D01*
X152122218Y-125797139D01*
X152286079Y-125906628D01*
X152286092Y-125906635D01*
X152468160Y-125982049D01*
X152468165Y-125982051D01*
X152468169Y-125982051D01*
X152468170Y-125982052D01*
X152661456Y-126020500D01*
X152661459Y-126020500D01*
X152858543Y-126020500D01*
X152988582Y-125994632D01*
X153051835Y-125982051D01*
X153233914Y-125906632D01*
X153397782Y-125797139D01*
X153537139Y-125657782D01*
X153646632Y-125493914D01*
X153722051Y-125311835D01*
X153760500Y-125118543D01*
X154299499Y-125118543D01*
X154337947Y-125311829D01*
X154337950Y-125311839D01*
X154413364Y-125493907D01*
X154413371Y-125493920D01*
X154522860Y-125657781D01*
X154522863Y-125657785D01*
X154662214Y-125797136D01*
X154662218Y-125797139D01*
X154826079Y-125906628D01*
X154826092Y-125906635D01*
X155008160Y-125982049D01*
X155008165Y-125982051D01*
X155008169Y-125982051D01*
X155008170Y-125982052D01*
X155201456Y-126020500D01*
X155201459Y-126020500D01*
X155398543Y-126020500D01*
X155528582Y-125994632D01*
X155591835Y-125982051D01*
X155773914Y-125906632D01*
X155937782Y-125797139D01*
X156077139Y-125657782D01*
X156186632Y-125493914D01*
X156262051Y-125311835D01*
X156300500Y-125118543D01*
X156839499Y-125118543D01*
X156877947Y-125311829D01*
X156877950Y-125311839D01*
X156953364Y-125493907D01*
X156953371Y-125493920D01*
X157062860Y-125657781D01*
X157062863Y-125657785D01*
X157202214Y-125797136D01*
X157202218Y-125797139D01*
X157366079Y-125906628D01*
X157366092Y-125906635D01*
X157548160Y-125982049D01*
X157548165Y-125982051D01*
X157548169Y-125982051D01*
X157548170Y-125982052D01*
X157741456Y-126020500D01*
X157741459Y-126020500D01*
X157938543Y-126020500D01*
X158068582Y-125994632D01*
X158131835Y-125982051D01*
X158313914Y-125906632D01*
X158477782Y-125797139D01*
X158617139Y-125657782D01*
X158726632Y-125493914D01*
X158802051Y-125311835D01*
X158840500Y-125118541D01*
X158840500Y-123921459D01*
X158840500Y-123921456D01*
X158802052Y-123728170D01*
X158802051Y-123728169D01*
X158802051Y-123728165D01*
X158802049Y-123728160D01*
X158726635Y-123546092D01*
X158726628Y-123546079D01*
X158617139Y-123382218D01*
X158617136Y-123382214D01*
X158477785Y-123242863D01*
X158477781Y-123242860D01*
X158313920Y-123133371D01*
X158313907Y-123133364D01*
X158131839Y-123057950D01*
X158131829Y-123057947D01*
X157938543Y-123019500D01*
X157938541Y-123019500D01*
X157741459Y-123019500D01*
X157741457Y-123019500D01*
X157548170Y-123057947D01*
X157548160Y-123057950D01*
X157366092Y-123133364D01*
X157366079Y-123133371D01*
X157202218Y-123242860D01*
X157202214Y-123242863D01*
X157062863Y-123382214D01*
X157062860Y-123382218D01*
X156953371Y-123546079D01*
X156953364Y-123546092D01*
X156877950Y-123728160D01*
X156877947Y-123728170D01*
X156839500Y-123921456D01*
X156839500Y-123921459D01*
X156839500Y-125118541D01*
X156839500Y-125118543D01*
X156839499Y-125118543D01*
X156300500Y-125118543D01*
X156300500Y-125118541D01*
X156300500Y-123921459D01*
X156300500Y-123921456D01*
X156262052Y-123728170D01*
X156262051Y-123728169D01*
X156262051Y-123728165D01*
X156262049Y-123728160D01*
X156186635Y-123546092D01*
X156186628Y-123546079D01*
X156077139Y-123382218D01*
X156077136Y-123382214D01*
X155937785Y-123242863D01*
X155937781Y-123242860D01*
X155773920Y-123133371D01*
X155773907Y-123133364D01*
X155591839Y-123057950D01*
X155591829Y-123057947D01*
X155398543Y-123019500D01*
X155398541Y-123019500D01*
X155201459Y-123019500D01*
X155201457Y-123019500D01*
X155008170Y-123057947D01*
X155008160Y-123057950D01*
X154826092Y-123133364D01*
X154826079Y-123133371D01*
X154662218Y-123242860D01*
X154662214Y-123242863D01*
X154522863Y-123382214D01*
X154522860Y-123382218D01*
X154413371Y-123546079D01*
X154413364Y-123546092D01*
X154337950Y-123728160D01*
X154337947Y-123728170D01*
X154299500Y-123921456D01*
X154299500Y-123921459D01*
X154299500Y-125118541D01*
X154299500Y-125118543D01*
X154299499Y-125118543D01*
X153760500Y-125118543D01*
X153760500Y-125118541D01*
X153760500Y-123921459D01*
X153760500Y-123921456D01*
X153722052Y-123728170D01*
X153722051Y-123728169D01*
X153722051Y-123728165D01*
X153722049Y-123728160D01*
X153646635Y-123546092D01*
X153646628Y-123546079D01*
X153537139Y-123382218D01*
X153537136Y-123382214D01*
X153397785Y-123242863D01*
X153397781Y-123242860D01*
X153233920Y-123133371D01*
X153233907Y-123133364D01*
X153051839Y-123057950D01*
X153051829Y-123057947D01*
X152858543Y-123019500D01*
X152858541Y-123019500D01*
X152661459Y-123019500D01*
X152661457Y-123019500D01*
X152468170Y-123057947D01*
X152468160Y-123057950D01*
X152286092Y-123133364D01*
X152286079Y-123133371D01*
X152122218Y-123242860D01*
X152122214Y-123242863D01*
X151982863Y-123382214D01*
X151982860Y-123382218D01*
X151873371Y-123546079D01*
X151873364Y-123546092D01*
X151797950Y-123728160D01*
X151797947Y-123728170D01*
X151759500Y-123921456D01*
X151759500Y-123921459D01*
X151759500Y-125118541D01*
X151759500Y-125118543D01*
X151759499Y-125118543D01*
X151220500Y-125118543D01*
X151220500Y-125118541D01*
X151220500Y-123921459D01*
X151220500Y-123921456D01*
X151182052Y-123728170D01*
X151182051Y-123728169D01*
X151182051Y-123728165D01*
X151182049Y-123728160D01*
X151106635Y-123546092D01*
X151106628Y-123546079D01*
X150997139Y-123382218D01*
X150997136Y-123382214D01*
X150857785Y-123242863D01*
X150857781Y-123242860D01*
X150693920Y-123133371D01*
X150693907Y-123133364D01*
X150511839Y-123057950D01*
X150511829Y-123057947D01*
X150318543Y-123019500D01*
X150318541Y-123019500D01*
X150121459Y-123019500D01*
X150121457Y-123019500D01*
X149928170Y-123057947D01*
X149928160Y-123057950D01*
X149746092Y-123133364D01*
X149746079Y-123133371D01*
X149582218Y-123242860D01*
X149582214Y-123242863D01*
X149442863Y-123382214D01*
X149442860Y-123382218D01*
X149333371Y-123546079D01*
X149333364Y-123546092D01*
X149257950Y-123728160D01*
X149257947Y-123728170D01*
X149219500Y-123921456D01*
X149219500Y-123921459D01*
X149219500Y-125118541D01*
X149219500Y-125118543D01*
X149219499Y-125118543D01*
X148680500Y-125118543D01*
X148680500Y-125118541D01*
X148680500Y-123921459D01*
X148680500Y-123921456D01*
X148642052Y-123728170D01*
X148642051Y-123728169D01*
X148642051Y-123728165D01*
X148642049Y-123728160D01*
X148566635Y-123546092D01*
X148566628Y-123546079D01*
X148457139Y-123382218D01*
X148457136Y-123382214D01*
X148317785Y-123242863D01*
X148317781Y-123242860D01*
X148153920Y-123133371D01*
X148153907Y-123133364D01*
X147971839Y-123057950D01*
X147971829Y-123057947D01*
X147778543Y-123019500D01*
X147778541Y-123019500D01*
X147581459Y-123019500D01*
X147581457Y-123019500D01*
X147388170Y-123057947D01*
X147388160Y-123057950D01*
X147206092Y-123133364D01*
X147206079Y-123133371D01*
X147042218Y-123242860D01*
X147042214Y-123242863D01*
X146902863Y-123382214D01*
X146902860Y-123382218D01*
X146793371Y-123546079D01*
X146793364Y-123546092D01*
X146717950Y-123728160D01*
X146717947Y-123728170D01*
X146679500Y-123921456D01*
X146679500Y-123921459D01*
X146679500Y-125118541D01*
X146679500Y-125118543D01*
X146679499Y-125118543D01*
X146140500Y-125118543D01*
X146140500Y-125118541D01*
X146140500Y-123921459D01*
X146140500Y-123921456D01*
X146102052Y-123728170D01*
X146102051Y-123728169D01*
X146102051Y-123728165D01*
X146102049Y-123728160D01*
X146026635Y-123546092D01*
X146026628Y-123546079D01*
X145917139Y-123382218D01*
X145917136Y-123382214D01*
X145777785Y-123242863D01*
X145777781Y-123242860D01*
X145613920Y-123133371D01*
X145613907Y-123133364D01*
X145431839Y-123057950D01*
X145431829Y-123057947D01*
X145238543Y-123019500D01*
X145238541Y-123019500D01*
X145041459Y-123019500D01*
X145041457Y-123019500D01*
X144848170Y-123057947D01*
X144848160Y-123057950D01*
X144666092Y-123133364D01*
X144666079Y-123133371D01*
X144502218Y-123242860D01*
X144502214Y-123242863D01*
X144362863Y-123382214D01*
X144362860Y-123382218D01*
X144253371Y-123546079D01*
X144253364Y-123546092D01*
X144177950Y-123728160D01*
X144177947Y-123728170D01*
X144139500Y-123921456D01*
X144139500Y-123921459D01*
X144139500Y-125118541D01*
X144139500Y-125118543D01*
X144139499Y-125118543D01*
X143600500Y-125118543D01*
X143600500Y-125118541D01*
X143600500Y-123921459D01*
X143600500Y-123921456D01*
X143562052Y-123728170D01*
X143562051Y-123728169D01*
X143562051Y-123728165D01*
X143562049Y-123728160D01*
X143486635Y-123546092D01*
X143486628Y-123546079D01*
X143377139Y-123382218D01*
X143377136Y-123382214D01*
X143237785Y-123242863D01*
X143237781Y-123242860D01*
X143073920Y-123133371D01*
X143073907Y-123133364D01*
X142891839Y-123057950D01*
X142891829Y-123057947D01*
X142698543Y-123019500D01*
X142698541Y-123019500D01*
X142501459Y-123019500D01*
X142501457Y-123019500D01*
X142308170Y-123057947D01*
X142308160Y-123057950D01*
X142126092Y-123133364D01*
X142126079Y-123133371D01*
X141962218Y-123242860D01*
X141962214Y-123242863D01*
X141822863Y-123382214D01*
X141822860Y-123382218D01*
X141713371Y-123546079D01*
X141713364Y-123546092D01*
X141637950Y-123728160D01*
X141637947Y-123728170D01*
X141599500Y-123921456D01*
X141599500Y-123921459D01*
X141599500Y-125118541D01*
X141599500Y-125118543D01*
X141599499Y-125118543D01*
X141060500Y-125118543D01*
X141060500Y-125118541D01*
X141060500Y-123921459D01*
X141060500Y-123921456D01*
X141022052Y-123728170D01*
X141022051Y-123728169D01*
X141022051Y-123728165D01*
X141022049Y-123728160D01*
X140946635Y-123546092D01*
X140946628Y-123546079D01*
X140837139Y-123382218D01*
X140837136Y-123382214D01*
X140697785Y-123242863D01*
X140697781Y-123242860D01*
X140533920Y-123133371D01*
X140533907Y-123133364D01*
X140351839Y-123057950D01*
X140351829Y-123057947D01*
X140158543Y-123019500D01*
X140158541Y-123019500D01*
X139961459Y-123019500D01*
X139961457Y-123019500D01*
X139768170Y-123057947D01*
X139768160Y-123057950D01*
X139586092Y-123133364D01*
X139586079Y-123133371D01*
X139422218Y-123242860D01*
X139422214Y-123242863D01*
X139282863Y-123382214D01*
X139282860Y-123382218D01*
X139173371Y-123546079D01*
X139173364Y-123546092D01*
X139097950Y-123728160D01*
X139097947Y-123728170D01*
X139059500Y-123921456D01*
X139059500Y-123921459D01*
X139059500Y-125118541D01*
X139059500Y-125118543D01*
X139059499Y-125118543D01*
X138520500Y-125118543D01*
X138520500Y-125118541D01*
X138520500Y-123921459D01*
X138520500Y-123921456D01*
X138482052Y-123728170D01*
X138482051Y-123728169D01*
X138482051Y-123728165D01*
X138482049Y-123728160D01*
X138406635Y-123546092D01*
X138406628Y-123546079D01*
X138297139Y-123382218D01*
X138297136Y-123382214D01*
X138157785Y-123242863D01*
X138157781Y-123242860D01*
X137993920Y-123133371D01*
X137993907Y-123133364D01*
X137811839Y-123057950D01*
X137811829Y-123057947D01*
X137618543Y-123019500D01*
X137618541Y-123019500D01*
X137421459Y-123019500D01*
X137421457Y-123019500D01*
X137228170Y-123057947D01*
X137228160Y-123057950D01*
X137046092Y-123133364D01*
X137046079Y-123133371D01*
X136882218Y-123242860D01*
X136882214Y-123242863D01*
X136742863Y-123382214D01*
X136742860Y-123382218D01*
X136633371Y-123546079D01*
X136633364Y-123546092D01*
X136557950Y-123728160D01*
X136557947Y-123728170D01*
X136519500Y-123921456D01*
X136519500Y-123921459D01*
X136519500Y-125118541D01*
X136519500Y-125118543D01*
X136519499Y-125118543D01*
X135980500Y-125118543D01*
X135980500Y-125118541D01*
X135980500Y-123921459D01*
X135980500Y-123921456D01*
X135942052Y-123728170D01*
X135942051Y-123728169D01*
X135942051Y-123728165D01*
X135942049Y-123728160D01*
X135866635Y-123546092D01*
X135866628Y-123546079D01*
X135757139Y-123382218D01*
X135757136Y-123382214D01*
X135617785Y-123242863D01*
X135617781Y-123242860D01*
X135453920Y-123133371D01*
X135453907Y-123133364D01*
X135271839Y-123057950D01*
X135271829Y-123057947D01*
X135078543Y-123019500D01*
X135078541Y-123019500D01*
X134881459Y-123019500D01*
X134881457Y-123019500D01*
X134688170Y-123057947D01*
X134688160Y-123057950D01*
X134506092Y-123133364D01*
X134506079Y-123133371D01*
X134342218Y-123242860D01*
X134342214Y-123242863D01*
X134202863Y-123382214D01*
X134202860Y-123382218D01*
X134093371Y-123546079D01*
X134093364Y-123546092D01*
X134017950Y-123728160D01*
X134017947Y-123728170D01*
X133979500Y-123921456D01*
X133979500Y-123921459D01*
X133979500Y-125118541D01*
X133979500Y-125118543D01*
X133979499Y-125118543D01*
X133440500Y-125118543D01*
X133440500Y-125118541D01*
X133440500Y-123921459D01*
X133440500Y-123921456D01*
X133402052Y-123728170D01*
X133402051Y-123728169D01*
X133402051Y-123728165D01*
X133402049Y-123728160D01*
X133326635Y-123546092D01*
X133326628Y-123546079D01*
X133217139Y-123382218D01*
X133217136Y-123382214D01*
X133077785Y-123242863D01*
X133077781Y-123242860D01*
X132913920Y-123133371D01*
X132913907Y-123133364D01*
X132731839Y-123057950D01*
X132731829Y-123057947D01*
X132538543Y-123019500D01*
X132538541Y-123019500D01*
X132341459Y-123019500D01*
X132341457Y-123019500D01*
X132148170Y-123057947D01*
X132148160Y-123057950D01*
X131966092Y-123133364D01*
X131966079Y-123133371D01*
X131802218Y-123242860D01*
X131802214Y-123242863D01*
X131662863Y-123382214D01*
X131662860Y-123382218D01*
X131553371Y-123546079D01*
X131553364Y-123546092D01*
X131477950Y-123728160D01*
X131477947Y-123728170D01*
X131439500Y-123921456D01*
X131439500Y-123921459D01*
X131439500Y-125118541D01*
X131439500Y-125118543D01*
X131439499Y-125118543D01*
X130900500Y-125118543D01*
X130900500Y-125118541D01*
X130900500Y-123921459D01*
X130900500Y-123921456D01*
X130862052Y-123728170D01*
X130862051Y-123728169D01*
X130862051Y-123728165D01*
X130862049Y-123728160D01*
X130786635Y-123546092D01*
X130786628Y-123546079D01*
X130677139Y-123382218D01*
X130677136Y-123382214D01*
X130537785Y-123242863D01*
X130537781Y-123242860D01*
X130373920Y-123133371D01*
X130373907Y-123133364D01*
X130191839Y-123057950D01*
X130191829Y-123057947D01*
X129998543Y-123019500D01*
X129998541Y-123019500D01*
X129801459Y-123019500D01*
X129801457Y-123019500D01*
X129608170Y-123057947D01*
X129608160Y-123057950D01*
X129426092Y-123133364D01*
X129426079Y-123133371D01*
X129262218Y-123242860D01*
X129262214Y-123242863D01*
X129122863Y-123382214D01*
X129122860Y-123382218D01*
X129013371Y-123546079D01*
X129013364Y-123546092D01*
X128937950Y-123728160D01*
X128937947Y-123728170D01*
X128899500Y-123921456D01*
X128899500Y-123921459D01*
X128899500Y-125118541D01*
X128899500Y-125118543D01*
X128899499Y-125118543D01*
X122928500Y-125118543D01*
X122928500Y-105398543D01*
X128899499Y-105398543D01*
X128937947Y-105591829D01*
X128937950Y-105591839D01*
X129013364Y-105773907D01*
X129013371Y-105773920D01*
X129122860Y-105937781D01*
X129122863Y-105937785D01*
X129262214Y-106077136D01*
X129262218Y-106077139D01*
X129426079Y-106186628D01*
X129426092Y-106186635D01*
X129585814Y-106252793D01*
X129608165Y-106262051D01*
X129608169Y-106262051D01*
X129608170Y-106262052D01*
X129801456Y-106300500D01*
X129801459Y-106300500D01*
X129998543Y-106300500D01*
X130128582Y-106274632D01*
X130191835Y-106262051D01*
X130373914Y-106186632D01*
X130537782Y-106077139D01*
X130677139Y-105937782D01*
X130786632Y-105773914D01*
X130862051Y-105591835D01*
X130898034Y-105410938D01*
X130900500Y-105398543D01*
X131439499Y-105398543D01*
X131477947Y-105591829D01*
X131477950Y-105591839D01*
X131553364Y-105773907D01*
X131553371Y-105773920D01*
X131662860Y-105937781D01*
X131662863Y-105937785D01*
X131802214Y-106077136D01*
X131802218Y-106077139D01*
X131966079Y-106186628D01*
X131966092Y-106186635D01*
X132125814Y-106252793D01*
X132148165Y-106262051D01*
X132148169Y-106262051D01*
X132148170Y-106262052D01*
X132341456Y-106300500D01*
X132341459Y-106300500D01*
X132538543Y-106300500D01*
X132668582Y-106274632D01*
X132731835Y-106262051D01*
X132913914Y-106186632D01*
X133077782Y-106077139D01*
X133217139Y-105937782D01*
X133326632Y-105773914D01*
X133402051Y-105591835D01*
X133438034Y-105410938D01*
X133440500Y-105398543D01*
X133979499Y-105398543D01*
X134017947Y-105591829D01*
X134017950Y-105591839D01*
X134093364Y-105773907D01*
X134093371Y-105773920D01*
X134202860Y-105937781D01*
X134202863Y-105937785D01*
X134342214Y-106077136D01*
X134342218Y-106077139D01*
X134506079Y-106186628D01*
X134506092Y-106186635D01*
X134665814Y-106252793D01*
X134688165Y-106262051D01*
X134688169Y-106262051D01*
X134688170Y-106262052D01*
X134881456Y-106300500D01*
X134881459Y-106300500D01*
X135078543Y-106300500D01*
X135208582Y-106274632D01*
X135271835Y-106262051D01*
X135453914Y-106186632D01*
X135617782Y-106077139D01*
X135757139Y-105937782D01*
X135866632Y-105773914D01*
X135942051Y-105591835D01*
X135978034Y-105410938D01*
X135980500Y-105398543D01*
X136519499Y-105398543D01*
X136557947Y-105591829D01*
X136557950Y-105591839D01*
X136633364Y-105773907D01*
X136633371Y-105773920D01*
X136742860Y-105937781D01*
X136742863Y-105937785D01*
X136882214Y-106077136D01*
X136882218Y-106077139D01*
X137046079Y-106186628D01*
X137046092Y-106186635D01*
X137205814Y-106252793D01*
X137228165Y-106262051D01*
X137228169Y-106262051D01*
X137228170Y-106262052D01*
X137421456Y-106300500D01*
X137421459Y-106300500D01*
X137618543Y-106300500D01*
X137748582Y-106274632D01*
X137811835Y-106262051D01*
X137993914Y-106186632D01*
X138157782Y-106077139D01*
X138297139Y-105937782D01*
X138406632Y-105773914D01*
X138482051Y-105591835D01*
X138518034Y-105410938D01*
X138520500Y-105398543D01*
X139059499Y-105398543D01*
X139097947Y-105591829D01*
X139097950Y-105591839D01*
X139173364Y-105773907D01*
X139173371Y-105773920D01*
X139282860Y-105937781D01*
X139282863Y-105937785D01*
X139422214Y-106077136D01*
X139422218Y-106077139D01*
X139586079Y-106186628D01*
X139586092Y-106186635D01*
X139745814Y-106252793D01*
X139768165Y-106262051D01*
X139768169Y-106262051D01*
X139768170Y-106262052D01*
X139961456Y-106300500D01*
X139961459Y-106300500D01*
X140158543Y-106300500D01*
X140288582Y-106274632D01*
X140351835Y-106262051D01*
X140533914Y-106186632D01*
X140697782Y-106077139D01*
X140837139Y-105937782D01*
X140946632Y-105773914D01*
X141022051Y-105591835D01*
X141058034Y-105410938D01*
X141060500Y-105398543D01*
X141599499Y-105398543D01*
X141637947Y-105591829D01*
X141637950Y-105591839D01*
X141713364Y-105773907D01*
X141713371Y-105773920D01*
X141822860Y-105937781D01*
X141822863Y-105937785D01*
X141962214Y-106077136D01*
X141962218Y-106077139D01*
X142126079Y-106186628D01*
X142126092Y-106186635D01*
X142285814Y-106252793D01*
X142308165Y-106262051D01*
X142308169Y-106262051D01*
X142308170Y-106262052D01*
X142501456Y-106300500D01*
X142501459Y-106300500D01*
X142698543Y-106300500D01*
X142828582Y-106274632D01*
X142891835Y-106262051D01*
X143073914Y-106186632D01*
X143237782Y-106077139D01*
X143377139Y-105937782D01*
X143486632Y-105773914D01*
X143562051Y-105591835D01*
X143598034Y-105410938D01*
X143600500Y-105398543D01*
X144139499Y-105398543D01*
X144177947Y-105591829D01*
X144177950Y-105591839D01*
X144253364Y-105773907D01*
X144253371Y-105773920D01*
X144362860Y-105937781D01*
X144362863Y-105937785D01*
X144502214Y-106077136D01*
X144502218Y-106077139D01*
X144666079Y-106186628D01*
X144666092Y-106186635D01*
X144825814Y-106252793D01*
X144848165Y-106262051D01*
X144848169Y-106262051D01*
X144848170Y-106262052D01*
X145041456Y-106300500D01*
X145041459Y-106300500D01*
X145238543Y-106300500D01*
X145368582Y-106274632D01*
X145431835Y-106262051D01*
X145613914Y-106186632D01*
X145777782Y-106077139D01*
X145917139Y-105937782D01*
X146026632Y-105773914D01*
X146102051Y-105591835D01*
X146138034Y-105410938D01*
X146140500Y-105398543D01*
X146679499Y-105398543D01*
X146717947Y-105591829D01*
X146717950Y-105591839D01*
X146793364Y-105773907D01*
X146793371Y-105773920D01*
X146902860Y-105937781D01*
X146902863Y-105937785D01*
X147042214Y-106077136D01*
X147042218Y-106077139D01*
X147206079Y-106186628D01*
X147206092Y-106186635D01*
X147365814Y-106252793D01*
X147388165Y-106262051D01*
X147388169Y-106262051D01*
X147388170Y-106262052D01*
X147581456Y-106300500D01*
X147581459Y-106300500D01*
X147778543Y-106300500D01*
X147908582Y-106274632D01*
X147971835Y-106262051D01*
X148153914Y-106186632D01*
X148317782Y-106077139D01*
X148457139Y-105937782D01*
X148566632Y-105773914D01*
X148642051Y-105591835D01*
X148678034Y-105410938D01*
X148680500Y-105398543D01*
X149219499Y-105398543D01*
X149257947Y-105591829D01*
X149257950Y-105591839D01*
X149333364Y-105773907D01*
X149333371Y-105773920D01*
X149442860Y-105937781D01*
X149442863Y-105937785D01*
X149582214Y-106077136D01*
X149582218Y-106077139D01*
X149746079Y-106186628D01*
X149746092Y-106186635D01*
X149905814Y-106252793D01*
X149928165Y-106262051D01*
X149928169Y-106262051D01*
X149928170Y-106262052D01*
X150121456Y-106300500D01*
X150121459Y-106300500D01*
X150318543Y-106300500D01*
X150448582Y-106274632D01*
X150511835Y-106262051D01*
X150693914Y-106186632D01*
X150857782Y-106077139D01*
X150997139Y-105937782D01*
X151106632Y-105773914D01*
X151182051Y-105591835D01*
X151218034Y-105410938D01*
X151220500Y-105398543D01*
X151759499Y-105398543D01*
X151797947Y-105591829D01*
X151797950Y-105591839D01*
X151873364Y-105773907D01*
X151873371Y-105773920D01*
X151982860Y-105937781D01*
X151982863Y-105937785D01*
X152122214Y-106077136D01*
X152122218Y-106077139D01*
X152286079Y-106186628D01*
X152286092Y-106186635D01*
X152445814Y-106252793D01*
X152468165Y-106262051D01*
X152468169Y-106262051D01*
X152468170Y-106262052D01*
X152661456Y-106300500D01*
X152661459Y-106300500D01*
X152858543Y-106300500D01*
X152988582Y-106274632D01*
X153051835Y-106262051D01*
X153233914Y-106186632D01*
X153397782Y-106077139D01*
X153537139Y-105937782D01*
X153646632Y-105773914D01*
X153722051Y-105591835D01*
X153758034Y-105410938D01*
X153760500Y-105398543D01*
X154299499Y-105398543D01*
X154337947Y-105591829D01*
X154337950Y-105591839D01*
X154413364Y-105773907D01*
X154413371Y-105773920D01*
X154522860Y-105937781D01*
X154522863Y-105937785D01*
X154662214Y-106077136D01*
X154662218Y-106077139D01*
X154826079Y-106186628D01*
X154826092Y-106186635D01*
X154985814Y-106252793D01*
X155008165Y-106262051D01*
X155008169Y-106262051D01*
X155008170Y-106262052D01*
X155201456Y-106300500D01*
X155201459Y-106300500D01*
X155398543Y-106300500D01*
X155528582Y-106274632D01*
X155591835Y-106262051D01*
X155773914Y-106186632D01*
X155937782Y-106077139D01*
X156077139Y-105937782D01*
X156186632Y-105773914D01*
X156262051Y-105591835D01*
X156298034Y-105410938D01*
X156300500Y-105398543D01*
X156839499Y-105398543D01*
X156877947Y-105591829D01*
X156877950Y-105591839D01*
X156953364Y-105773907D01*
X156953371Y-105773920D01*
X157062860Y-105937781D01*
X157062863Y-105937785D01*
X157202214Y-106077136D01*
X157202218Y-106077139D01*
X157366079Y-106186628D01*
X157366092Y-106186635D01*
X157525814Y-106252793D01*
X157548165Y-106262051D01*
X157548169Y-106262051D01*
X157548170Y-106262052D01*
X157741456Y-106300500D01*
X157741459Y-106300500D01*
X157938543Y-106300500D01*
X158068582Y-106274632D01*
X158131835Y-106262051D01*
X158313914Y-106186632D01*
X158477782Y-106077139D01*
X158617139Y-105937782D01*
X158726632Y-105773914D01*
X158802051Y-105591835D01*
X158838034Y-105410937D01*
X158870419Y-105349027D01*
X158931134Y-105314453D01*
X159000904Y-105318192D01*
X159057576Y-105359059D01*
X159082124Y-105415731D01*
X159112009Y-105604417D01*
X159175244Y-105799031D01*
X159268140Y-105981349D01*
X159388417Y-106146894D01*
X159388417Y-106146895D01*
X159533104Y-106291582D01*
X159698650Y-106411859D01*
X159880968Y-106504754D01*
X160075578Y-106567988D01*
X160130000Y-106576607D01*
X160130000Y-104933012D01*
X160187007Y-104965925D01*
X160314174Y-105000000D01*
X160445826Y-105000000D01*
X160572993Y-104965925D01*
X160630000Y-104933012D01*
X160630000Y-106576606D01*
X160684421Y-106567988D01*
X160879031Y-106504754D01*
X161061349Y-106411859D01*
X161226894Y-106291582D01*
X161226895Y-106291582D01*
X161371582Y-106146895D01*
X161371582Y-106146894D01*
X161491859Y-105981349D01*
X161584755Y-105799031D01*
X161647990Y-105604417D01*
X161677875Y-105415731D01*
X161707804Y-105352596D01*
X161767116Y-105315665D01*
X161836978Y-105316663D01*
X161895211Y-105355273D01*
X161921965Y-105410937D01*
X161957947Y-105591829D01*
X161957950Y-105591839D01*
X162033364Y-105773907D01*
X162033371Y-105773920D01*
X162142860Y-105937781D01*
X162142863Y-105937785D01*
X162282214Y-106077136D01*
X162282218Y-106077139D01*
X162446079Y-106186628D01*
X162446092Y-106186635D01*
X162605814Y-106252793D01*
X162628165Y-106262051D01*
X162628169Y-106262051D01*
X162628170Y-106262052D01*
X162821456Y-106300500D01*
X162821459Y-106300500D01*
X163018543Y-106300500D01*
X163148582Y-106274632D01*
X163211835Y-106262051D01*
X163393914Y-106186632D01*
X163557782Y-106077139D01*
X163697139Y-105937782D01*
X163806632Y-105773914D01*
X163882051Y-105591835D01*
X163918034Y-105410938D01*
X163920500Y-105398543D01*
X164459499Y-105398543D01*
X164497947Y-105591829D01*
X164497950Y-105591839D01*
X164573364Y-105773907D01*
X164573371Y-105773920D01*
X164682860Y-105937781D01*
X164682863Y-105937785D01*
X164822214Y-106077136D01*
X164822218Y-106077139D01*
X164986079Y-106186628D01*
X164986092Y-106186635D01*
X165145814Y-106252793D01*
X165168165Y-106262051D01*
X165168169Y-106262051D01*
X165168170Y-106262052D01*
X165361456Y-106300500D01*
X165361459Y-106300500D01*
X165558543Y-106300500D01*
X165688582Y-106274632D01*
X165751835Y-106262051D01*
X165933914Y-106186632D01*
X166097782Y-106077139D01*
X166237139Y-105937782D01*
X166346632Y-105773914D01*
X166422051Y-105591835D01*
X166458034Y-105410938D01*
X166460500Y-105398543D01*
X166460500Y-104201456D01*
X166422052Y-104008170D01*
X166422051Y-104008169D01*
X166422051Y-104008165D01*
X166416839Y-103995581D01*
X166346635Y-103826092D01*
X166346625Y-103826074D01*
X166303630Y-103761727D01*
X166303629Y-103761726D01*
X166259531Y-103695730D01*
X166999500Y-103695730D01*
X166999500Y-105904269D01*
X167002353Y-105934699D01*
X167002353Y-105934701D01*
X167047206Y-106062880D01*
X167047207Y-106062882D01*
X167127850Y-106172150D01*
X167237118Y-106252793D01*
X167263576Y-106262051D01*
X167365299Y-106297646D01*
X167395730Y-106300500D01*
X167395734Y-106300500D01*
X168604270Y-106300500D01*
X168634699Y-106297646D01*
X168634701Y-106297646D01*
X168698790Y-106275219D01*
X168762882Y-106252793D01*
X168872150Y-106172150D01*
X168952793Y-106062882D01*
X168981323Y-105981349D01*
X168997646Y-105934701D01*
X168997646Y-105934699D01*
X169000500Y-105904269D01*
X169000500Y-103695730D01*
X168997646Y-103665300D01*
X168997646Y-103665298D01*
X168952793Y-103537119D01*
X168952792Y-103537117D01*
X168942270Y-103522860D01*
X168872150Y-103427850D01*
X168762882Y-103347207D01*
X168762880Y-103347206D01*
X168634700Y-103302353D01*
X168604270Y-103299500D01*
X168604266Y-103299500D01*
X167395734Y-103299500D01*
X167395730Y-103299500D01*
X167365300Y-103302353D01*
X167365298Y-103302353D01*
X167237119Y-103347206D01*
X167237117Y-103347207D01*
X167127850Y-103427850D01*
X167047207Y-103537117D01*
X167047206Y-103537119D01*
X167002353Y-103665298D01*
X167002353Y-103665300D01*
X166999500Y-103695730D01*
X166259531Y-103695730D01*
X166237139Y-103662218D01*
X166237136Y-103662214D01*
X166097785Y-103522863D01*
X166097781Y-103522860D01*
X165933920Y-103413371D01*
X165933907Y-103413364D01*
X165751839Y-103337950D01*
X165751829Y-103337947D01*
X165558543Y-103299500D01*
X165558541Y-103299500D01*
X165361459Y-103299500D01*
X165361457Y-103299500D01*
X165168170Y-103337947D01*
X165168160Y-103337950D01*
X164986092Y-103413364D01*
X164986079Y-103413371D01*
X164822218Y-103522860D01*
X164822214Y-103522863D01*
X164682863Y-103662214D01*
X164682860Y-103662218D01*
X164573371Y-103826079D01*
X164573364Y-103826092D01*
X164497950Y-104008160D01*
X164497947Y-104008170D01*
X164459500Y-104201456D01*
X164459500Y-104201459D01*
X164459500Y-105398541D01*
X164459500Y-105398543D01*
X164459499Y-105398543D01*
X163920500Y-105398543D01*
X163920500Y-104201456D01*
X163882052Y-104008170D01*
X163882051Y-104008169D01*
X163882051Y-104008165D01*
X163876839Y-103995581D01*
X163806635Y-103826092D01*
X163806628Y-103826079D01*
X163697139Y-103662218D01*
X163697136Y-103662214D01*
X163557785Y-103522863D01*
X163557781Y-103522860D01*
X163393920Y-103413371D01*
X163393907Y-103413364D01*
X163211839Y-103337950D01*
X163211829Y-103337947D01*
X163018543Y-103299500D01*
X163018541Y-103299500D01*
X162821459Y-103299500D01*
X162821457Y-103299500D01*
X162628170Y-103337947D01*
X162628160Y-103337950D01*
X162446092Y-103413364D01*
X162446079Y-103413371D01*
X162282218Y-103522860D01*
X162282214Y-103522863D01*
X162142863Y-103662214D01*
X162142860Y-103662218D01*
X162033371Y-103826079D01*
X162033364Y-103826092D01*
X161957950Y-104008160D01*
X161957947Y-104008170D01*
X161921965Y-104189062D01*
X161889580Y-104250973D01*
X161828864Y-104285547D01*
X161759094Y-104281806D01*
X161702423Y-104240940D01*
X161677875Y-104184268D01*
X161647990Y-103995582D01*
X161584755Y-103800968D01*
X161491859Y-103618650D01*
X161371582Y-103453105D01*
X161371582Y-103453104D01*
X161226895Y-103308417D01*
X161061349Y-103188140D01*
X160879029Y-103095244D01*
X160684413Y-103032009D01*
X160630000Y-103023390D01*
X160630000Y-104066988D01*
X160572993Y-104034075D01*
X160445826Y-104000000D01*
X160314174Y-104000000D01*
X160187007Y-104034075D01*
X160130000Y-104066988D01*
X160130000Y-103023390D01*
X160075586Y-103032009D01*
X159880970Y-103095244D01*
X159698650Y-103188140D01*
X159533105Y-103308417D01*
X159533104Y-103308417D01*
X159388417Y-103453104D01*
X159388417Y-103453105D01*
X159268140Y-103618650D01*
X159175244Y-103800968D01*
X159112010Y-103995581D01*
X159082124Y-104184269D01*
X159052194Y-104247403D01*
X158992883Y-104284334D01*
X158923020Y-104283336D01*
X158864788Y-104244726D01*
X158838034Y-104189061D01*
X158802052Y-104008172D01*
X158802052Y-104008170D01*
X158802051Y-104008165D01*
X158796839Y-103995581D01*
X158726635Y-103826092D01*
X158726628Y-103826079D01*
X158617139Y-103662218D01*
X158617136Y-103662214D01*
X158477785Y-103522863D01*
X158477781Y-103522860D01*
X158313920Y-103413371D01*
X158313907Y-103413364D01*
X158131839Y-103337950D01*
X158131829Y-103337947D01*
X157938543Y-103299500D01*
X157938541Y-103299500D01*
X157741459Y-103299500D01*
X157741457Y-103299500D01*
X157548170Y-103337947D01*
X157548160Y-103337950D01*
X157366092Y-103413364D01*
X157366079Y-103413371D01*
X157202218Y-103522860D01*
X157202214Y-103522863D01*
X157062863Y-103662214D01*
X157062860Y-103662218D01*
X156953371Y-103826079D01*
X156953364Y-103826092D01*
X156877950Y-104008160D01*
X156877947Y-104008170D01*
X156839500Y-104201456D01*
X156839500Y-104201459D01*
X156839500Y-105398541D01*
X156839500Y-105398543D01*
X156839499Y-105398543D01*
X156300500Y-105398543D01*
X156300500Y-104201456D01*
X156262052Y-104008170D01*
X156262051Y-104008169D01*
X156262051Y-104008165D01*
X156256839Y-103995581D01*
X156186635Y-103826092D01*
X156186628Y-103826079D01*
X156077139Y-103662218D01*
X156077136Y-103662214D01*
X155937785Y-103522863D01*
X155937781Y-103522860D01*
X155773920Y-103413371D01*
X155773907Y-103413364D01*
X155591839Y-103337950D01*
X155591829Y-103337947D01*
X155398543Y-103299500D01*
X155398541Y-103299500D01*
X155201459Y-103299500D01*
X155201457Y-103299500D01*
X155008170Y-103337947D01*
X155008160Y-103337950D01*
X154826092Y-103413364D01*
X154826079Y-103413371D01*
X154662218Y-103522860D01*
X154662214Y-103522863D01*
X154522863Y-103662214D01*
X154522860Y-103662218D01*
X154413371Y-103826079D01*
X154413364Y-103826092D01*
X154337950Y-104008160D01*
X154337947Y-104008170D01*
X154299500Y-104201456D01*
X154299500Y-104201459D01*
X154299500Y-105398541D01*
X154299500Y-105398543D01*
X154299499Y-105398543D01*
X153760500Y-105398543D01*
X153760500Y-104201456D01*
X153722052Y-104008170D01*
X153722051Y-104008169D01*
X153722051Y-104008165D01*
X153716839Y-103995581D01*
X153646635Y-103826092D01*
X153646628Y-103826079D01*
X153537139Y-103662218D01*
X153537136Y-103662214D01*
X153397785Y-103522863D01*
X153397781Y-103522860D01*
X153233920Y-103413371D01*
X153233907Y-103413364D01*
X153051839Y-103337950D01*
X153051829Y-103337947D01*
X152858543Y-103299500D01*
X152858541Y-103299500D01*
X152661459Y-103299500D01*
X152661457Y-103299500D01*
X152468170Y-103337947D01*
X152468160Y-103337950D01*
X152286092Y-103413364D01*
X152286079Y-103413371D01*
X152122218Y-103522860D01*
X152122214Y-103522863D01*
X151982863Y-103662214D01*
X151982860Y-103662218D01*
X151873371Y-103826079D01*
X151873364Y-103826092D01*
X151797950Y-104008160D01*
X151797947Y-104008170D01*
X151759500Y-104201456D01*
X151759500Y-104201459D01*
X151759500Y-105398541D01*
X151759500Y-105398543D01*
X151759499Y-105398543D01*
X151220500Y-105398543D01*
X151220500Y-104201456D01*
X151182052Y-104008170D01*
X151182051Y-104008169D01*
X151182051Y-104008165D01*
X151176839Y-103995581D01*
X151106635Y-103826092D01*
X151106628Y-103826079D01*
X150997139Y-103662218D01*
X150997136Y-103662214D01*
X150857785Y-103522863D01*
X150857781Y-103522860D01*
X150693920Y-103413371D01*
X150693907Y-103413364D01*
X150511839Y-103337950D01*
X150511829Y-103337947D01*
X150318543Y-103299500D01*
X150318541Y-103299500D01*
X150121459Y-103299500D01*
X150121457Y-103299500D01*
X149928170Y-103337947D01*
X149928160Y-103337950D01*
X149746092Y-103413364D01*
X149746079Y-103413371D01*
X149582218Y-103522860D01*
X149582214Y-103522863D01*
X149442863Y-103662214D01*
X149442860Y-103662218D01*
X149333371Y-103826079D01*
X149333364Y-103826092D01*
X149257950Y-104008160D01*
X149257947Y-104008170D01*
X149219500Y-104201456D01*
X149219500Y-104201459D01*
X149219500Y-105398541D01*
X149219500Y-105398543D01*
X149219499Y-105398543D01*
X148680500Y-105398543D01*
X148680500Y-104201456D01*
X148642052Y-104008170D01*
X148642051Y-104008169D01*
X148642051Y-104008165D01*
X148636839Y-103995581D01*
X148566635Y-103826092D01*
X148566628Y-103826079D01*
X148457139Y-103662218D01*
X148457136Y-103662214D01*
X148317785Y-103522863D01*
X148317781Y-103522860D01*
X148153920Y-103413371D01*
X148153907Y-103413364D01*
X147971839Y-103337950D01*
X147971829Y-103337947D01*
X147778543Y-103299500D01*
X147778541Y-103299500D01*
X147581459Y-103299500D01*
X147581457Y-103299500D01*
X147388170Y-103337947D01*
X147388160Y-103337950D01*
X147206092Y-103413364D01*
X147206079Y-103413371D01*
X147042218Y-103522860D01*
X147042214Y-103522863D01*
X146902863Y-103662214D01*
X146902860Y-103662218D01*
X146793371Y-103826079D01*
X146793364Y-103826092D01*
X146717950Y-104008160D01*
X146717947Y-104008170D01*
X146679500Y-104201456D01*
X146679500Y-104201459D01*
X146679500Y-105398541D01*
X146679500Y-105398543D01*
X146679499Y-105398543D01*
X146140500Y-105398543D01*
X146140500Y-104201456D01*
X146102052Y-104008170D01*
X146102051Y-104008169D01*
X146102051Y-104008165D01*
X146096839Y-103995581D01*
X146026635Y-103826092D01*
X146026628Y-103826079D01*
X145917139Y-103662218D01*
X145917136Y-103662214D01*
X145777785Y-103522863D01*
X145777781Y-103522860D01*
X145613920Y-103413371D01*
X145613907Y-103413364D01*
X145431839Y-103337950D01*
X145431829Y-103337947D01*
X145238543Y-103299500D01*
X145238541Y-103299500D01*
X145041459Y-103299500D01*
X145041457Y-103299500D01*
X144848170Y-103337947D01*
X144848160Y-103337950D01*
X144666092Y-103413364D01*
X144666079Y-103413371D01*
X144502218Y-103522860D01*
X144502214Y-103522863D01*
X144362863Y-103662214D01*
X144362860Y-103662218D01*
X144253371Y-103826079D01*
X144253364Y-103826092D01*
X144177950Y-104008160D01*
X144177947Y-104008170D01*
X144139500Y-104201456D01*
X144139500Y-104201459D01*
X144139500Y-105398541D01*
X144139500Y-105398543D01*
X144139499Y-105398543D01*
X143600500Y-105398543D01*
X143600500Y-104201456D01*
X143562052Y-104008170D01*
X143562051Y-104008169D01*
X143562051Y-104008165D01*
X143556839Y-103995581D01*
X143486635Y-103826092D01*
X143486628Y-103826079D01*
X143377139Y-103662218D01*
X143377136Y-103662214D01*
X143237785Y-103522863D01*
X143237781Y-103522860D01*
X143073920Y-103413371D01*
X143073907Y-103413364D01*
X142891839Y-103337950D01*
X142891829Y-103337947D01*
X142698543Y-103299500D01*
X142698541Y-103299500D01*
X142501459Y-103299500D01*
X142501457Y-103299500D01*
X142308170Y-103337947D01*
X142308160Y-103337950D01*
X142126092Y-103413364D01*
X142126079Y-103413371D01*
X141962218Y-103522860D01*
X141962214Y-103522863D01*
X141822863Y-103662214D01*
X141822860Y-103662218D01*
X141713371Y-103826079D01*
X141713364Y-103826092D01*
X141637950Y-104008160D01*
X141637947Y-104008170D01*
X141599500Y-104201456D01*
X141599500Y-104201459D01*
X141599500Y-105398541D01*
X141599500Y-105398543D01*
X141599499Y-105398543D01*
X141060500Y-105398543D01*
X141060500Y-104201456D01*
X141022052Y-104008170D01*
X141022051Y-104008169D01*
X141022051Y-104008165D01*
X141016839Y-103995581D01*
X140946635Y-103826092D01*
X140946628Y-103826079D01*
X140837139Y-103662218D01*
X140837136Y-103662214D01*
X140697785Y-103522863D01*
X140697781Y-103522860D01*
X140533920Y-103413371D01*
X140533907Y-103413364D01*
X140351839Y-103337950D01*
X140351829Y-103337947D01*
X140158543Y-103299500D01*
X140158541Y-103299500D01*
X139961459Y-103299500D01*
X139961457Y-103299500D01*
X139768170Y-103337947D01*
X139768160Y-103337950D01*
X139586092Y-103413364D01*
X139586079Y-103413371D01*
X139422218Y-103522860D01*
X139422214Y-103522863D01*
X139282863Y-103662214D01*
X139282860Y-103662218D01*
X139173371Y-103826079D01*
X139173364Y-103826092D01*
X139097950Y-104008160D01*
X139097947Y-104008170D01*
X139059500Y-104201456D01*
X139059500Y-104201459D01*
X139059500Y-105398541D01*
X139059500Y-105398543D01*
X139059499Y-105398543D01*
X138520500Y-105398543D01*
X138520500Y-104201456D01*
X138482052Y-104008170D01*
X138482051Y-104008169D01*
X138482051Y-104008165D01*
X138476839Y-103995581D01*
X138406635Y-103826092D01*
X138406628Y-103826079D01*
X138297139Y-103662218D01*
X138297136Y-103662214D01*
X138157785Y-103522863D01*
X138157781Y-103522860D01*
X137993920Y-103413371D01*
X137993907Y-103413364D01*
X137811839Y-103337950D01*
X137811829Y-103337947D01*
X137618543Y-103299500D01*
X137618541Y-103299500D01*
X137421459Y-103299500D01*
X137421457Y-103299500D01*
X137228170Y-103337947D01*
X137228160Y-103337950D01*
X137046092Y-103413364D01*
X137046079Y-103413371D01*
X136882218Y-103522860D01*
X136882214Y-103522863D01*
X136742863Y-103662214D01*
X136742860Y-103662218D01*
X136633371Y-103826079D01*
X136633364Y-103826092D01*
X136557950Y-104008160D01*
X136557947Y-104008170D01*
X136519500Y-104201456D01*
X136519500Y-104201459D01*
X136519500Y-105398541D01*
X136519500Y-105398543D01*
X136519499Y-105398543D01*
X135980500Y-105398543D01*
X135980500Y-104201456D01*
X135942052Y-104008170D01*
X135942051Y-104008169D01*
X135942051Y-104008165D01*
X135936839Y-103995581D01*
X135866635Y-103826092D01*
X135866628Y-103826079D01*
X135757139Y-103662218D01*
X135757136Y-103662214D01*
X135617785Y-103522863D01*
X135617781Y-103522860D01*
X135453920Y-103413371D01*
X135453907Y-103413364D01*
X135271839Y-103337950D01*
X135271829Y-103337947D01*
X135078543Y-103299500D01*
X135078541Y-103299500D01*
X134881459Y-103299500D01*
X134881457Y-103299500D01*
X134688170Y-103337947D01*
X134688160Y-103337950D01*
X134506092Y-103413364D01*
X134506079Y-103413371D01*
X134342218Y-103522860D01*
X134342214Y-103522863D01*
X134202863Y-103662214D01*
X134202860Y-103662218D01*
X134093371Y-103826079D01*
X134093364Y-103826092D01*
X134017950Y-104008160D01*
X134017947Y-104008170D01*
X133979500Y-104201456D01*
X133979500Y-104201459D01*
X133979500Y-105398541D01*
X133979500Y-105398543D01*
X133979499Y-105398543D01*
X133440500Y-105398543D01*
X133440500Y-104201456D01*
X133402052Y-104008170D01*
X133402051Y-104008169D01*
X133402051Y-104008165D01*
X133396839Y-103995581D01*
X133326635Y-103826092D01*
X133326628Y-103826079D01*
X133217139Y-103662218D01*
X133217136Y-103662214D01*
X133077785Y-103522863D01*
X133077781Y-103522860D01*
X132913920Y-103413371D01*
X132913907Y-103413364D01*
X132731839Y-103337950D01*
X132731829Y-103337947D01*
X132538543Y-103299500D01*
X132538541Y-103299500D01*
X132341459Y-103299500D01*
X132341457Y-103299500D01*
X132148170Y-103337947D01*
X132148160Y-103337950D01*
X131966092Y-103413364D01*
X131966079Y-103413371D01*
X131802218Y-103522860D01*
X131802214Y-103522863D01*
X131662863Y-103662214D01*
X131662860Y-103662218D01*
X131553371Y-103826079D01*
X131553364Y-103826092D01*
X131477950Y-104008160D01*
X131477947Y-104008170D01*
X131439500Y-104201456D01*
X131439500Y-104201459D01*
X131439500Y-105398541D01*
X131439500Y-105398543D01*
X131439499Y-105398543D01*
X130900500Y-105398543D01*
X130900500Y-104201456D01*
X130862052Y-104008170D01*
X130862051Y-104008169D01*
X130862051Y-104008165D01*
X130856839Y-103995581D01*
X130786635Y-103826092D01*
X130786628Y-103826079D01*
X130677139Y-103662218D01*
X130677136Y-103662214D01*
X130537785Y-103522863D01*
X130537781Y-103522860D01*
X130373920Y-103413371D01*
X130373907Y-103413364D01*
X130191839Y-103337950D01*
X130191829Y-103337947D01*
X129998543Y-103299500D01*
X129998541Y-103299500D01*
X129801459Y-103299500D01*
X129801457Y-103299500D01*
X129608170Y-103337947D01*
X129608160Y-103337950D01*
X129426092Y-103413364D01*
X129426079Y-103413371D01*
X129262218Y-103522860D01*
X129262214Y-103522863D01*
X129122863Y-103662214D01*
X129122860Y-103662218D01*
X129013371Y-103826079D01*
X129013364Y-103826092D01*
X128937950Y-104008160D01*
X128937947Y-104008170D01*
X128899500Y-104201456D01*
X128899500Y-104201459D01*
X128899500Y-105398541D01*
X128899500Y-105398543D01*
X128899499Y-105398543D01*
X122928500Y-105398543D01*
X122928500Y-94362071D01*
X134798000Y-94362071D01*
X134798000Y-94613928D01*
X134837397Y-94862669D01*
X134915219Y-95102184D01*
X135029557Y-95326583D01*
X135103748Y-95428697D01*
X135103748Y-95428698D01*
X135874212Y-94658234D01*
X135885482Y-94700292D01*
X135957890Y-94825708D01*
X136060292Y-94928110D01*
X136185708Y-95000518D01*
X136227765Y-95011787D01*
X135457300Y-95782250D01*
X135457301Y-95782251D01*
X135538448Y-95841208D01*
X135581114Y-95896538D01*
X135587093Y-95966151D01*
X135554487Y-96027946D01*
X135552140Y-96030147D01*
X135552142Y-96030149D01*
X135403596Y-96178694D01*
X135403595Y-96178695D01*
X135282976Y-96344711D01*
X135189813Y-96527552D01*
X135189812Y-96527555D01*
X135126402Y-96722711D01*
X135126402Y-96722714D01*
X135094300Y-96925397D01*
X135094300Y-97130602D01*
X135126402Y-97333285D01*
X135126402Y-97333288D01*
X135189812Y-97528444D01*
X135189813Y-97528447D01*
X135282976Y-97711288D01*
X135403594Y-97877303D01*
X135548697Y-98022406D01*
X135714712Y-98143024D01*
X135767232Y-98169784D01*
X135802030Y-98187515D01*
X135852826Y-98235490D01*
X135869621Y-98303311D01*
X135847083Y-98369446D01*
X135802030Y-98408485D01*
X135714711Y-98452976D01*
X135548695Y-98573595D01*
X135403595Y-98718695D01*
X135282976Y-98884711D01*
X135189813Y-99067552D01*
X135189812Y-99067555D01*
X135126402Y-99262711D01*
X135126402Y-99262714D01*
X135094300Y-99465397D01*
X135094300Y-99670602D01*
X135126402Y-99873285D01*
X135126402Y-99873288D01*
X135189812Y-100068444D01*
X135189813Y-100068447D01*
X135282976Y-100251288D01*
X135403594Y-100417303D01*
X135548697Y-100562406D01*
X135714712Y-100683024D01*
X135804390Y-100728717D01*
X135897552Y-100776186D01*
X135897555Y-100776187D01*
X136079588Y-100835332D01*
X136092716Y-100839598D01*
X136295397Y-100871700D01*
X136295398Y-100871700D01*
X136500602Y-100871700D01*
X136500603Y-100871700D01*
X136703284Y-100839598D01*
X136703287Y-100839597D01*
X136703288Y-100839597D01*
X136898444Y-100776187D01*
X136898447Y-100776186D01*
X136932818Y-100758673D01*
X137081288Y-100683024D01*
X137247303Y-100562406D01*
X137392406Y-100417303D01*
X137513024Y-100251288D01*
X137606186Y-100068447D01*
X137669598Y-99873284D01*
X137701700Y-99670603D01*
X137701700Y-99465397D01*
X137669598Y-99262716D01*
X137669597Y-99262712D01*
X137669597Y-99262711D01*
X137606187Y-99067555D01*
X137606181Y-99067542D01*
X137592605Y-99040897D01*
X137592603Y-99040895D01*
X137567021Y-98990687D01*
X140901300Y-98990687D01*
X140901300Y-99129312D01*
X140928341Y-99265254D01*
X140928344Y-99265266D01*
X140981386Y-99393323D01*
X141058401Y-99508585D01*
X141156414Y-99606598D01*
X141271676Y-99683613D01*
X141399733Y-99736655D01*
X141399738Y-99736657D01*
X141535687Y-99763699D01*
X141535690Y-99763700D01*
X141535692Y-99763700D01*
X141674310Y-99763700D01*
X141674311Y-99763699D01*
X141810262Y-99736657D01*
X141874294Y-99710134D01*
X141938323Y-99683613D01*
X141938324Y-99683612D01*
X141938327Y-99683611D01*
X142053583Y-99606600D01*
X142110165Y-99550017D01*
X142171486Y-99516534D01*
X142197845Y-99513700D01*
X160542709Y-99513700D01*
X160609748Y-99533385D01*
X160630390Y-99550019D01*
X162073981Y-100993610D01*
X162107466Y-101054933D01*
X162110300Y-101081291D01*
X162110300Y-101161312D01*
X162137341Y-101297254D01*
X162137344Y-101297266D01*
X162190386Y-101425323D01*
X162267401Y-101540585D01*
X162365414Y-101638598D01*
X162480676Y-101715613D01*
X162608733Y-101768655D01*
X162608738Y-101768657D01*
X162744687Y-101795699D01*
X162744690Y-101795700D01*
X162744692Y-101795700D01*
X162883310Y-101795700D01*
X162883311Y-101795699D01*
X163019262Y-101768657D01*
X163083294Y-101742134D01*
X163147323Y-101715613D01*
X163147324Y-101715612D01*
X163147327Y-101715611D01*
X163262583Y-101638600D01*
X163360600Y-101540583D01*
X163437611Y-101425327D01*
X163490657Y-101297262D01*
X163517700Y-101161308D01*
X163517700Y-101022692D01*
X163517700Y-101022689D01*
X163517699Y-101022687D01*
X163490658Y-100886745D01*
X163490657Y-100886738D01*
X163444866Y-100776187D01*
X163437613Y-100758676D01*
X163360598Y-100643414D01*
X163262585Y-100545401D01*
X163147323Y-100468386D01*
X163019266Y-100415344D01*
X163019254Y-100415341D01*
X162883311Y-100388300D01*
X162883308Y-100388300D01*
X162803291Y-100388300D01*
X162736252Y-100368615D01*
X162715610Y-100351981D01*
X161060577Y-98696948D01*
X161034015Y-98681613D01*
X160971172Y-98645331D01*
X160957122Y-98637219D01*
X160841731Y-98606300D01*
X160841729Y-98606300D01*
X142197845Y-98606300D01*
X142130806Y-98586615D01*
X142110168Y-98569985D01*
X142053583Y-98513400D01*
X141963151Y-98452976D01*
X141938323Y-98436386D01*
X141810266Y-98383344D01*
X141810254Y-98383341D01*
X141674311Y-98356300D01*
X141674308Y-98356300D01*
X141535692Y-98356300D01*
X141535689Y-98356300D01*
X141399745Y-98383341D01*
X141399733Y-98383344D01*
X141271676Y-98436386D01*
X141156414Y-98513401D01*
X141058401Y-98611414D01*
X140981386Y-98726676D01*
X140928344Y-98854733D01*
X140928341Y-98854745D01*
X140901300Y-98990687D01*
X137567021Y-98990687D01*
X137513023Y-98884711D01*
X137392406Y-98718697D01*
X137247303Y-98573594D01*
X137081288Y-98452976D01*
X136993968Y-98408484D01*
X136943173Y-98360511D01*
X136926378Y-98292690D01*
X136948915Y-98226555D01*
X136993969Y-98187515D01*
X137081288Y-98143024D01*
X137247303Y-98022406D01*
X137392406Y-97877303D01*
X137513024Y-97711288D01*
X137606186Y-97528447D01*
X137669598Y-97333284D01*
X137701700Y-97130603D01*
X137701700Y-96925397D01*
X137669598Y-96722716D01*
X137669597Y-96722712D01*
X137669597Y-96722711D01*
X137606187Y-96527555D01*
X137606186Y-96527552D01*
X137513023Y-96344711D01*
X137392406Y-96178697D01*
X137247303Y-96033594D01*
X137243858Y-96030149D01*
X137245278Y-96028728D01*
X137211712Y-95977313D01*
X137211212Y-95907445D01*
X137248564Y-95848397D01*
X137257551Y-95841208D01*
X137338697Y-95782251D01*
X137338698Y-95782250D01*
X136568234Y-95011787D01*
X136610292Y-95000518D01*
X136735708Y-94928110D01*
X136838110Y-94825708D01*
X136910518Y-94700292D01*
X136921787Y-94658235D01*
X137692250Y-95428698D01*
X137692250Y-95428697D01*
X137766442Y-95326581D01*
X137766446Y-95326575D01*
X137880780Y-95102184D01*
X137958602Y-94862669D01*
X137998000Y-94613928D01*
X137998000Y-94362071D01*
X137958602Y-94113330D01*
X137880780Y-93873815D01*
X137766442Y-93649416D01*
X137692250Y-93547301D01*
X137692250Y-93547300D01*
X136921787Y-94317764D01*
X136910518Y-94275708D01*
X136838110Y-94150292D01*
X136735708Y-94047890D01*
X136610292Y-93975482D01*
X136568233Y-93964212D01*
X137246875Y-93285571D01*
X137308198Y-93252086D01*
X137322972Y-93249794D01*
X137333302Y-93248826D01*
X137333304Y-93248825D01*
X137333306Y-93248825D01*
X137378196Y-93233116D01*
X137462395Y-93203654D01*
X137572439Y-93122439D01*
X137653654Y-93012395D01*
X137677015Y-92945631D01*
X137698826Y-92883304D01*
X137698826Y-92883302D01*
X137701700Y-92852658D01*
X137701700Y-91043341D01*
X137698826Y-91012697D01*
X137698826Y-91012695D01*
X137653655Y-90883609D01*
X137653654Y-90883605D01*
X137572439Y-90773561D01*
X137462395Y-90692346D01*
X137462391Y-90692344D01*
X137462390Y-90692344D01*
X137333303Y-90647173D01*
X137302658Y-90644300D01*
X137302654Y-90644300D01*
X135493346Y-90644300D01*
X135493342Y-90644300D01*
X135462697Y-90647173D01*
X135462695Y-90647173D01*
X135333609Y-90692344D01*
X135333607Y-90692345D01*
X135333606Y-90692345D01*
X135333605Y-90692346D01*
X135223561Y-90773561D01*
X135142345Y-90883607D01*
X135142344Y-90883609D01*
X135097173Y-91012695D01*
X135097173Y-91012697D01*
X135094300Y-91043341D01*
X135094300Y-92852658D01*
X135097173Y-92883302D01*
X135097173Y-92883304D01*
X135142344Y-93012390D01*
X135142346Y-93012395D01*
X135223561Y-93122439D01*
X135333605Y-93203654D01*
X135378499Y-93219363D01*
X135462693Y-93248825D01*
X135462695Y-93248825D01*
X135462698Y-93248826D01*
X135473019Y-93249793D01*
X135537926Y-93275649D01*
X135549124Y-93285571D01*
X136227765Y-93964212D01*
X136185708Y-93975482D01*
X136060292Y-94047890D01*
X135957890Y-94150292D01*
X135885482Y-94275708D01*
X135874212Y-94317765D01*
X135103748Y-93547300D01*
X135103747Y-93547301D01*
X135029559Y-93649413D01*
X134915219Y-93873815D01*
X134837397Y-94113330D01*
X134798000Y-94362071D01*
X122928500Y-94362071D01*
X122928500Y-86742038D01*
X133908500Y-86742038D01*
X133908500Y-86993962D01*
X133910494Y-87006553D01*
X133947910Y-87242785D01*
X134025760Y-87482383D01*
X134140132Y-87706848D01*
X134288201Y-87910649D01*
X134288205Y-87910654D01*
X134466345Y-88088794D01*
X134466350Y-88088798D01*
X134510926Y-88121184D01*
X134670155Y-88236870D01*
X134813184Y-88309747D01*
X134894616Y-88351239D01*
X134894618Y-88351239D01*
X134894621Y-88351241D01*
X135134215Y-88429090D01*
X135383038Y-88468500D01*
X135383039Y-88468500D01*
X135634961Y-88468500D01*
X135634962Y-88468500D01*
X135883785Y-88429090D01*
X136123379Y-88351241D01*
X136347845Y-88236870D01*
X136551656Y-88088793D01*
X136729793Y-87910656D01*
X136877870Y-87706845D01*
X136992241Y-87482379D01*
X137025158Y-87381071D01*
X146359000Y-87381071D01*
X146359000Y-87632928D01*
X146398397Y-87881669D01*
X146476219Y-88121184D01*
X146590557Y-88345583D01*
X146664748Y-88447697D01*
X146664748Y-88447698D01*
X147435212Y-87677234D01*
X147446482Y-87719292D01*
X147518890Y-87844708D01*
X147621292Y-87947110D01*
X147746708Y-88019518D01*
X147788765Y-88030787D01*
X147018300Y-88801250D01*
X147120416Y-88875442D01*
X147344815Y-88989780D01*
X147584330Y-89067602D01*
X147833072Y-89107000D01*
X148084928Y-89107000D01*
X148333669Y-89067602D01*
X148573184Y-88989780D01*
X148797575Y-88875446D01*
X148797581Y-88875442D01*
X148899697Y-88801250D01*
X148899698Y-88801250D01*
X148129234Y-88030787D01*
X148171292Y-88019518D01*
X148296708Y-87947110D01*
X148399110Y-87844708D01*
X148471518Y-87719292D01*
X148482787Y-87677235D01*
X149253250Y-88447698D01*
X149253251Y-88447697D01*
X149312208Y-88366551D01*
X149367538Y-88323885D01*
X149437151Y-88317906D01*
X149498946Y-88350512D01*
X149501147Y-88352859D01*
X149501149Y-88352858D01*
X149504594Y-88356303D01*
X149649697Y-88501406D01*
X149815712Y-88622024D01*
X149857873Y-88643506D01*
X149998552Y-88715186D01*
X149998555Y-88715187D01*
X150144645Y-88762654D01*
X150193716Y-88778598D01*
X150396397Y-88810700D01*
X150396398Y-88810700D01*
X150601602Y-88810700D01*
X150601603Y-88810700D01*
X150804284Y-88778598D01*
X150804287Y-88778597D01*
X150804288Y-88778597D01*
X150999444Y-88715187D01*
X150999447Y-88715186D01*
X151140127Y-88643506D01*
X151182288Y-88622024D01*
X151348303Y-88501406D01*
X151493406Y-88356303D01*
X151493406Y-88356302D01*
X151496851Y-88352858D01*
X151498280Y-88354287D01*
X151549624Y-88320731D01*
X151619492Y-88320194D01*
X151678559Y-88357515D01*
X151685791Y-88366551D01*
X151744747Y-88447697D01*
X151744748Y-88447698D01*
X152515212Y-87677234D01*
X152526482Y-87719292D01*
X152598890Y-87844708D01*
X152701292Y-87947110D01*
X152826708Y-88019518D01*
X152868765Y-88030787D01*
X152098300Y-88801250D01*
X152200416Y-88875442D01*
X152424815Y-88989780D01*
X152664330Y-89067602D01*
X152913072Y-89107000D01*
X153164928Y-89107000D01*
X153413669Y-89067602D01*
X153653184Y-88989780D01*
X153877575Y-88875446D01*
X153877581Y-88875442D01*
X153979697Y-88801250D01*
X153979698Y-88801250D01*
X153209234Y-88030787D01*
X153251292Y-88019518D01*
X153376708Y-87947110D01*
X153479110Y-87844708D01*
X153551518Y-87719292D01*
X153562787Y-87677234D01*
X154241428Y-88355874D01*
X154274913Y-88417197D01*
X154277205Y-88431975D01*
X154278173Y-88442303D01*
X154278173Y-88442304D01*
X154323344Y-88571390D01*
X154323346Y-88571395D01*
X154404561Y-88681439D01*
X154514605Y-88762654D01*
X154560167Y-88778597D01*
X154643696Y-88807826D01*
X154674342Y-88810700D01*
X154674346Y-88810700D01*
X156483658Y-88810700D01*
X156514302Y-88807826D01*
X156514304Y-88807826D01*
X156576631Y-88786015D01*
X156643395Y-88762654D01*
X156753439Y-88681439D01*
X156834654Y-88571395D01*
X156859145Y-88501404D01*
X156879826Y-88442304D01*
X156879826Y-88442302D01*
X156882700Y-88411658D01*
X156882700Y-86742038D01*
X159689500Y-86742038D01*
X159689500Y-86993962D01*
X159691494Y-87006553D01*
X159728910Y-87242785D01*
X159806760Y-87482383D01*
X159921132Y-87706848D01*
X160069201Y-87910649D01*
X160069205Y-87910654D01*
X160247345Y-88088794D01*
X160247350Y-88088798D01*
X160291926Y-88121184D01*
X160451155Y-88236870D01*
X160594184Y-88309747D01*
X160675616Y-88351239D01*
X160675618Y-88351239D01*
X160675621Y-88351241D01*
X160915215Y-88429090D01*
X161164038Y-88468500D01*
X161164039Y-88468500D01*
X161415961Y-88468500D01*
X161415962Y-88468500D01*
X161664785Y-88429090D01*
X161904379Y-88351241D01*
X162128845Y-88236870D01*
X162332656Y-88088793D01*
X162510793Y-87910656D01*
X162658870Y-87706845D01*
X162773241Y-87482379D01*
X162851090Y-87242785D01*
X162890500Y-86993962D01*
X162890500Y-86742038D01*
X162851090Y-86493215D01*
X162773241Y-86253621D01*
X162773239Y-86253618D01*
X162773239Y-86253616D01*
X162714613Y-86138557D01*
X162658870Y-86029155D01*
X162598743Y-85946397D01*
X162510798Y-85825350D01*
X162510794Y-85825345D01*
X162332654Y-85647205D01*
X162332649Y-85647201D01*
X162128848Y-85499132D01*
X162128847Y-85499131D01*
X162128845Y-85499130D01*
X162058747Y-85463413D01*
X161904383Y-85384760D01*
X161664785Y-85306910D01*
X161415962Y-85267500D01*
X161164038Y-85267500D01*
X161039626Y-85287205D01*
X160915214Y-85306910D01*
X160675616Y-85384760D01*
X160451151Y-85499132D01*
X160247350Y-85647201D01*
X160247345Y-85647205D01*
X160069205Y-85825345D01*
X160069201Y-85825350D01*
X159921132Y-86029151D01*
X159806760Y-86253616D01*
X159728910Y-86493214D01*
X159701161Y-86668413D01*
X159689500Y-86742038D01*
X156882700Y-86742038D01*
X156882700Y-86602341D01*
X156879826Y-86571697D01*
X156879826Y-86571695D01*
X156834655Y-86442609D01*
X156834654Y-86442605D01*
X156753439Y-86332561D01*
X156643395Y-86251346D01*
X156643391Y-86251344D01*
X156643390Y-86251344D01*
X156514303Y-86206173D01*
X156483658Y-86203300D01*
X156483654Y-86203300D01*
X154674346Y-86203300D01*
X154674342Y-86203300D01*
X154643697Y-86206173D01*
X154643695Y-86206173D01*
X154514609Y-86251344D01*
X154514607Y-86251345D01*
X154514606Y-86251345D01*
X154514605Y-86251346D01*
X154404561Y-86332561D01*
X154360712Y-86391976D01*
X154323345Y-86442607D01*
X154323344Y-86442609D01*
X154278173Y-86571695D01*
X154278173Y-86571696D01*
X154277205Y-86582024D01*
X154251345Y-86646932D01*
X154241428Y-86658124D01*
X153562787Y-87336764D01*
X153551518Y-87294708D01*
X153479110Y-87169292D01*
X153376708Y-87066890D01*
X153251292Y-86994482D01*
X153209232Y-86983212D01*
X153979698Y-86212748D01*
X153877583Y-86138557D01*
X153653184Y-86024219D01*
X153413669Y-85946397D01*
X153164928Y-85907000D01*
X152913072Y-85907000D01*
X152664330Y-85946397D01*
X152424815Y-86024219D01*
X152200413Y-86138559D01*
X152098301Y-86212747D01*
X152098300Y-86212748D01*
X152868765Y-86983212D01*
X152826708Y-86994482D01*
X152701292Y-87066890D01*
X152598890Y-87169292D01*
X152526482Y-87294708D01*
X152515212Y-87336764D01*
X151744748Y-86566300D01*
X151744746Y-86566301D01*
X151685791Y-86647447D01*
X151630461Y-86690113D01*
X151560848Y-86696092D01*
X151499053Y-86663486D01*
X151496852Y-86661140D01*
X151496851Y-86661142D01*
X151348304Y-86512595D01*
X151182288Y-86391976D01*
X151140125Y-86370493D01*
X150999447Y-86298813D01*
X150999444Y-86298812D01*
X150804286Y-86235402D01*
X150619748Y-86206174D01*
X150601603Y-86203300D01*
X150396397Y-86203300D01*
X150378252Y-86206174D01*
X150193714Y-86235402D01*
X150193711Y-86235402D01*
X149998555Y-86298812D01*
X149998552Y-86298813D01*
X149815711Y-86391976D01*
X149649695Y-86512595D01*
X149649694Y-86512596D01*
X149501149Y-86661142D01*
X149499736Y-86659729D01*
X149448259Y-86693303D01*
X149378391Y-86693772D01*
X149319361Y-86656394D01*
X149312208Y-86647448D01*
X149253251Y-86566301D01*
X149253250Y-86566300D01*
X148482787Y-87336764D01*
X148471518Y-87294708D01*
X148399110Y-87169292D01*
X148296708Y-87066890D01*
X148171292Y-86994482D01*
X148129232Y-86983212D01*
X148899698Y-86212748D01*
X148797583Y-86138557D01*
X148573184Y-86024219D01*
X148333669Y-85946397D01*
X148084928Y-85907000D01*
X147833072Y-85907000D01*
X147584330Y-85946397D01*
X147344815Y-86024219D01*
X147120413Y-86138559D01*
X147018301Y-86212747D01*
X147018300Y-86212748D01*
X147788765Y-86983212D01*
X147746708Y-86994482D01*
X147621292Y-87066890D01*
X147518890Y-87169292D01*
X147446482Y-87294708D01*
X147435212Y-87336765D01*
X146664748Y-86566300D01*
X146664747Y-86566301D01*
X146590559Y-86668413D01*
X146476219Y-86892815D01*
X146398397Y-87132330D01*
X146359000Y-87381071D01*
X137025158Y-87381071D01*
X137070090Y-87242785D01*
X137109500Y-86993962D01*
X137109500Y-86742038D01*
X137097839Y-86668413D01*
X137070090Y-86493214D01*
X137017890Y-86332561D01*
X136992241Y-86253621D01*
X136877870Y-86029155D01*
X136817743Y-85946397D01*
X136729798Y-85825350D01*
X136729794Y-85825345D01*
X136551654Y-85647205D01*
X136551649Y-85647201D01*
X136347848Y-85499132D01*
X136347847Y-85499131D01*
X136347845Y-85499130D01*
X136277747Y-85463413D01*
X136123383Y-85384760D01*
X135883785Y-85306910D01*
X135634962Y-85267500D01*
X135383038Y-85267500D01*
X135258626Y-85287205D01*
X135134214Y-85306910D01*
X134894616Y-85384760D01*
X134670151Y-85499132D01*
X134466350Y-85647201D01*
X134466345Y-85647205D01*
X134288205Y-85825345D01*
X134288201Y-85825350D01*
X134140132Y-86029151D01*
X134025760Y-86253616D01*
X133947910Y-86493214D01*
X133920161Y-86668413D01*
X133908500Y-86742038D01*
X122928500Y-86742038D01*
X122928500Y-82031500D01*
X122948185Y-81964461D01*
X123000989Y-81918706D01*
X123052500Y-81907500D01*
X175016500Y-81907500D01*
X175083539Y-81927185D01*
G37*
%TD.AperFunction*%
%TD*%
M02*
