M48
; DRILL file KiCad 10.0.4-10.0.4~ubuntu24.04.1 date 2026-06-21T15:09:02
; FORMAT={-:-/ absolute / metric / decimal}
; #@! TF.CreationDate,2026-06-21T15:09:02-07:00
; #@! TF.GenerationSoftware,Kicad,Pcbnew,10.0.4-10.0.4~ubuntu24.04.1
; #@! TF.FileFunction,NonPlated,1,2,NPTH
FMAT,2
METRIC
; #@! TA.AperFunction,NonPlated,NPTH,ComponentDrill
T1C2.700
%
G90
G05
T1
X77.025Y-1.425
X77.025Y-45.575
X77.425Y-53.925
X77.425Y-98.075
X78.0Y-123.5
X78.0Y-148.0
X112.0Y-111.0
X112.0Y-135.5
X121.175Y-1.425
X121.175Y-45.575
X121.575Y-53.925
X121.575Y-98.075
X123.74Y-123.5
X124.0Y-147.5
X129.425Y-1.425
X129.425Y-45.575
X129.425Y-53.925
X129.425Y-98.075
X157.74Y-111.0
X158.0Y-135.0
X173.575Y-1.425
X173.575Y-45.575
X173.575Y-53.925
X173.575Y-98.075
M30
