%TF.GenerationSoftware,KiCad,Pcbnew,10.0.4-10.0.4~ubuntu24.04.1*%
%TF.CreationDate,2026-06-21T15:08:57-07:00*%
%TF.ProjectId,inductor_probe_board,696e6475-6374-46f7-925f-70726f62655f,rev?*%
%TF.SameCoordinates,Original*%
%TF.FileFunction,Copper,L2,Bot*%
%TF.FilePolarity,Positive*%
%FSLAX46Y46*%
G04 Gerber Fmt 4.6, Leading zero omitted, Abs format (unit mm)*
G04 Created by KiCad (PCBNEW 10.0.4-10.0.4~ubuntu24.04.1) date 2026-06-21 15:08:57*
%MOMM*%
%LPD*%
G01*
G04 APERTURE LIST*
G04 Aperture macros list*
%AMRoundRect*
0 Rectangle with rounded corners*
0 $1 Rounding radius*
0 $2 $3 $4 $5 $6 $7 $8 $9 X,Y pos of 4 corners*
0 Add a 4 corners polygon primitive as box body*
4,1,4,$2,$3,$4,$5,$6,$7,$8,$9,$2,$3,0*
0 Add four circle primitives for the rounded corners*
1,1,$1+$1,$2,$3*
1,1,$1+$1,$4,$5*
1,1,$1+$1,$6,$7*
1,1,$1+$1,$8,$9*
0 Add four rect primitives between the rounded corners*
20,1,$1+$1,$2,$3,$4,$5,0*
20,1,$1+$1,$4,$5,$6,$7,0*
20,1,$1+$1,$6,$7,$8,$9,0*
20,1,$1+$1,$8,$9,$2,$3,0*%
G04 Aperture macros list end*
%TA.AperFunction,ComponentPad*%
%ADD10R,1.700000X1.700000*%
%TD*%
%TA.AperFunction,ComponentPad*%
%ADD11C,1.700000*%
%TD*%
%TA.AperFunction,ComponentPad*%
%ADD12RoundRect,0.250000X-0.550000X-0.550000X0.550000X-0.550000X0.550000X0.550000X-0.550000X0.550000X0*%
%TD*%
%TA.AperFunction,ComponentPad*%
%ADD13C,1.600000*%
%TD*%
%TA.AperFunction,ComponentPad*%
%ADD14C,2.000000*%
%TD*%
%TA.AperFunction,ComponentPad*%
%ADD15RoundRect,0.250000X0.750000X-0.750000X0.750000X0.750000X-0.750000X0.750000X-0.750000X-0.750000X0*%
%TD*%
%TA.AperFunction,ComponentPad*%
%ADD16RoundRect,0.250000X-0.750000X0.750000X-0.750000X-0.750000X0.750000X-0.750000X0.750000X0.750000X0*%
%TD*%
G04 APERTURE END LIST*
D10*
%TO.P,J2,1,Pin_1_1*%
%TO.N,Net-(J2-Pin_1)*%
X167400000Y-71320001D03*
D11*
%TO.P,J2,2,Pin_2_2*%
%TO.N,Net-(J2-Pin_2)*%
X167400000Y-73860001D03*
%TO.P,J2,3,Pin_3_3*%
%TO.N,Net-(J2-Pin_3)*%
X167400000Y-76400001D03*
%TD*%
D12*
%TO.P,U1,1*%
%TO.N,Net-(C1-Pad2)*%
X147730540Y-70260001D03*
D13*
%TO.P,U1,2,-_2*%
%TO.N,Net-(U1A--)*%
X147730540Y-72800001D03*
%TO.P,U1,3,+_3*%
%TO.N,GND*%
X147730540Y-75340001D03*
%TO.P,U1,4,V-_4*%
%TO.N,Net-(U1C-V-)*%
X147730540Y-77880001D03*
%TO.P,U1,5,+_5*%
%TO.N,GND*%
X155350540Y-77880001D03*
%TO.P,U1,6,-_6*%
%TO.N,Net-(J2-Pin_2)*%
X155350540Y-75340001D03*
%TO.P,U1,7*%
%TO.N,/Output*%
X155350540Y-72800001D03*
%TO.P,U1,8,V+_8*%
%TO.N,Net-(U1C-V+)*%
X155350540Y-70260001D03*
%TD*%
D14*
%TO.P,C1,1*%
%TO.N,Net-(U1A--)*%
X92600000Y-20100000D03*
%TO.P,C1,2*%
%TO.N,Net-(C1-Pad2)*%
X92600000Y-17600000D03*
%TD*%
%TO.P,C1,1*%
%TO.N,Net-(U1A--)*%
X145000000Y-72600001D03*
%TO.P,C1,2*%
%TO.N,Net-(C1-Pad2)*%
X145000000Y-70100001D03*
%TD*%
%TO.P,C1,1*%
%TO.N,Net-(U1A--)*%
X93000000Y-72600001D03*
%TO.P,C1,2*%
%TO.N,Net-(C1-Pad2)*%
X93000000Y-70100001D03*
%TD*%
%TO.P,R1,1*%
%TO.N,Net-(U1A--)*%
X141832000Y-20090001D03*
%TO.P,R1,2*%
%TO.N,Net-(C1-Pad2)*%
X141832000Y-17550001D03*
%TD*%
%TO.P,R1,1*%
%TO.N,Net-(U1A--)*%
X141832000Y-72590001D03*
%TO.P,R1,2*%
%TO.N,Net-(C1-Pad2)*%
X141832000Y-70050001D03*
%TD*%
D10*
%TO.P,J2,1,Pin_1_1*%
%TO.N,Net-(J2-Pin_1)*%
X115400000Y-71320001D03*
D11*
%TO.P,J2,2,Pin_2_2*%
%TO.N,Net-(J2-Pin_2)*%
X115400000Y-73860001D03*
%TO.P,J2,3,Pin_3_3*%
%TO.N,Net-(J2-Pin_3)*%
X115400000Y-76400001D03*
%TD*%
D10*
%TO.P,J2,1,Pin_1_1*%
%TO.N,Net-(J2-Pin_1)*%
X167400000Y-18820001D03*
D11*
%TO.P,J2,2,Pin_2_2*%
%TO.N,Net-(J2-Pin_2)*%
X167400000Y-21360001D03*
%TO.P,J2,3,Pin_3_3*%
%TO.N,Net-(J2-Pin_3)*%
X167400000Y-23900001D03*
%TD*%
D12*
%TO.P,U1,1*%
%TO.N,Net-(C1-Pad2)*%
X95730540Y-70260001D03*
D13*
%TO.P,U1,2,-_2*%
%TO.N,Net-(U1A--)*%
X95730540Y-72800001D03*
%TO.P,U1,3,+_3*%
%TO.N,GND*%
X95730540Y-75340001D03*
%TO.P,U1,4,V-_4*%
%TO.N,Net-(U1C-V-)*%
X95730540Y-77880001D03*
%TO.P,U1,5,+_5*%
%TO.N,GND*%
X103350540Y-77880001D03*
%TO.P,U1,6,-_6*%
%TO.N,Net-(J2-Pin_2)*%
X103350540Y-75340001D03*
%TO.P,U1,7*%
%TO.N,/Output*%
X103350540Y-72800001D03*
%TO.P,U1,8,V+_8*%
%TO.N,Net-(U1C-V+)*%
X103350540Y-70260001D03*
%TD*%
D14*
%TO.P,R1,1*%
%TO.N,Net-(U1A--)*%
X89432000Y-20090000D03*
%TO.P,R1,2*%
%TO.N,Net-(C1-Pad2)*%
X89432000Y-17550000D03*
%TD*%
%TO.P,C1,1*%
%TO.N,Net-(U1A--)*%
X145000000Y-20100001D03*
%TO.P,C1,2*%
%TO.N,Net-(C1-Pad2)*%
X145000000Y-17600001D03*
%TD*%
D12*
%TO.P,U1,1*%
%TO.N,Net-(C1-Pad2)*%
X147730540Y-17760001D03*
D13*
%TO.P,U1,2,-_2*%
%TO.N,Net-(U1A--)*%
X147730540Y-20300001D03*
%TO.P,U1,3,+_3*%
%TO.N,GND*%
X147730540Y-22840001D03*
%TO.P,U1,4,V-_4*%
%TO.N,Net-(U1C-V-)*%
X147730540Y-25380001D03*
%TO.P,U1,5,+_5*%
%TO.N,GND*%
X155350540Y-25380001D03*
%TO.P,U1,6,-_6*%
%TO.N,Net-(J2-Pin_2)*%
X155350540Y-22840001D03*
%TO.P,U1,7*%
%TO.N,/Output*%
X155350540Y-20300001D03*
%TO.P,U1,8,V+_8*%
%TO.N,Net-(U1C-V+)*%
X155350540Y-17760001D03*
%TD*%
D10*
%TO.P,J2,1,Pin_1_1*%
%TO.N,Net-(J2-Pin_1)*%
X115000000Y-18820000D03*
D11*
%TO.P,J2,2,Pin_2_2*%
%TO.N,Net-(J2-Pin_2)*%
X115000000Y-21360000D03*
%TO.P,J2,3,Pin_3_3*%
%TO.N,Net-(J2-Pin_3)*%
X115000000Y-23900000D03*
%TD*%
D12*
%TO.P,U1,1*%
%TO.N,Net-(C1-Pad2)*%
X95330540Y-17760000D03*
D13*
%TO.P,U1,2,-_2*%
%TO.N,Net-(U1A--)*%
X95330540Y-20300000D03*
%TO.P,U1,3,+_3*%
%TO.N,GND*%
X95330540Y-22840000D03*
%TO.P,U1,4,V-_4*%
%TO.N,Net-(U1C-V-)*%
X95330540Y-25380000D03*
%TO.P,U1,5,+_5*%
%TO.N,GND*%
X102950540Y-25380000D03*
%TO.P,U1,6,-_6*%
%TO.N,Net-(J2-Pin_2)*%
X102950540Y-22840000D03*
%TO.P,U1,7*%
%TO.N,/Output*%
X102950540Y-20300000D03*
%TO.P,U1,8,V+_8*%
%TO.N,Net-(U1C-V+)*%
X102950540Y-17760000D03*
%TD*%
D14*
%TO.P,R1,1*%
%TO.N,Net-(U1A--)*%
X89832000Y-72590001D03*
%TO.P,R1,2*%
%TO.N,Net-(C1-Pad2)*%
X89832000Y-70050001D03*
%TD*%
D15*
%TO.P,J2,1,Pin_1_1*%
%TO.N,GND*%
X150000000Y-142040000D03*
D14*
%TO.P,J2,2,Pin_2_2*%
%TO.N,/Input*%
X150000000Y-139500000D03*
%TD*%
D16*
%TO.P,J1,1,Pin_1_1*%
%TO.N,+12V*%
X132500000Y-136920000D03*
D14*
%TO.P,J1,2,Pin_2_2*%
%TO.N,/Input*%
X132500000Y-139460000D03*
%TO.P,J1,3,Pin_3_3*%
%TO.N,GND*%
X132500000Y-142000000D03*
%TD*%
D15*
%TO.P,J2,1,Pin_1_1*%
%TO.N,GND*%
X149739937Y-118040000D03*
D14*
%TO.P,J2,2,Pin_2_2*%
%TO.N,/Input*%
X149739937Y-115500000D03*
%TD*%
D16*
%TO.P,J1,1,Pin_1_1*%
%TO.N,+12V*%
X132239937Y-112920000D03*
D14*
%TO.P,J1,2,Pin_2_2*%
%TO.N,/Input*%
X132239937Y-115460000D03*
%TO.P,J1,3,Pin_3_3*%
%TO.N,GND*%
X132239937Y-118000000D03*
%TD*%
D15*
%TO.P,J2,1,Pin_1_1*%
%TO.N,GND*%
X104000000Y-142540000D03*
D14*
%TO.P,J2,2,Pin_2_2*%
%TO.N,/Input*%
X104000000Y-140000000D03*
%TD*%
D16*
%TO.P,J1,1,Pin_1_1*%
%TO.N,+12V*%
X86500000Y-137420000D03*
D14*
%TO.P,J1,2,Pin_2_2*%
%TO.N,/Input*%
X86500000Y-139960000D03*
%TO.P,J1,3,Pin_3_3*%
%TO.N,GND*%
X86500000Y-142500000D03*
%TD*%
D16*
%TO.P,J1,1,Pin_1_1*%
%TO.N,+12V*%
X86500000Y-112920000D03*
D14*
%TO.P,J1,2,Pin_2_2*%
%TO.N,/Input*%
X86500000Y-115460000D03*
%TO.P,J1,3,Pin_3_3*%
%TO.N,GND*%
X86500000Y-118000000D03*
%TD*%
D15*
%TO.P,J2,1,Pin_1_1*%
%TO.N,GND*%
X104000000Y-118040000D03*
D14*
%TO.P,J2,2,Pin_2_2*%
%TO.N,/Input*%
X104000000Y-115500000D03*
%TD*%
M02*
