%TF.GenerationSoftware,KiCad,Pcbnew,10.0.4-10.0.4~ubuntu24.04.1*%
%TF.CreationDate,2026-06-21T15:08:56-07:00*%
%TF.ProjectId,inductor_probe_board,696e6475-6374-46f7-925f-70726f62655f,rev?*%
%TF.SameCoordinates,Original*%
%TF.FileFunction,Copper,L1,Top*%
%TF.FilePolarity,Positive*%
%FSLAX46Y46*%
G04 Gerber Fmt 4.6, Leading zero omitted, Abs format (unit mm)*
G04 Created by KiCad (PCBNEW 10.0.4-10.0.4~ubuntu24.04.1) date 2026-06-21 15:08:56*
%MOMM*%
%LPD*%
G01*
G04 APERTURE LIST*
G04 Aperture macros list*
%AMRoundRect*
0 Rectangle with rounded corners*
0 $1 Rounding radius*
0 $2 $3 $4 $5 $6 $7 $8 $9 X,Y pos of 4 corners*
0 Add a 4 corners polygon primitive as box body*
4,1,4,$2,$3,$4,$5,$6,$7,$8,$9,$2,$3,0*
0 Add four circle primitives for the rounded corners*
1,1,$1+$1,$2,$3*
1,1,$1+$1,$4,$5*
1,1,$1+$1,$6,$7*
1,1,$1+$1,$8,$9*
0 Add four rect primitives between the rounded corners*
20,1,$1+$1,$2,$3,$4,$5,0*
20,1,$1+$1,$4,$5,$6,$7,0*
20,1,$1+$1,$6,$7,$8,$9,0*
20,1,$1+$1,$8,$9,$2,$3,0*%
%AMFreePoly0*
4,1,9,3.862500,-0.866500,0.737500,-0.866500,0.737500,-0.450000,-0.737500,-0.450000,-0.737500,0.450000,0.737500,0.450000,0.737500,0.866500,3.862500,0.866500,3.862500,-0.866500,3.862500,-0.866500,$1*%
G04 Aperture macros list end*
%ADD10C,0.500000*%
%TA.AperFunction,NonConductor*%
%ADD11C,0.500000*%
%TD*%
%TA.AperFunction,SMDPad,CuDef*%
%ADD12R,0.400000X1.100000*%
%TD*%
%TA.AperFunction,SMDPad,CuDef*%
%ADD13RoundRect,0.250000X-0.650000X0.325000X-0.650000X-0.325000X0.650000X-0.325000X0.650000X0.325000X0*%
%TD*%
%TA.AperFunction,SMDPad,CuDef*%
%ADD14RoundRect,0.250000X-0.325000X-0.650000X0.325000X-0.650000X0.325000X0.650000X-0.325000X0.650000X0*%
%TD*%
%TA.AperFunction,SMDPad,CuDef*%
%ADD15RoundRect,0.250000X-0.400000X-0.625000X0.400000X-0.625000X0.400000X0.625000X-0.400000X0.625000X0*%
%TD*%
%TA.AperFunction,ComponentPad*%
%ADD16R,1.700000X1.700000*%
%TD*%
%TA.AperFunction,ComponentPad*%
%ADD17C,1.700000*%
%TD*%
%TA.AperFunction,SMDPad,CuDef*%
%ADD18RoundRect,0.075000X0.075000X-0.650000X0.075000X0.650000X-0.075000X0.650000X-0.075000X-0.650000X0*%
%TD*%
%TA.AperFunction,SMDPad,CuDef*%
%ADD19RoundRect,0.250000X0.400000X0.625000X-0.400000X0.625000X-0.400000X-0.625000X0.400000X-0.625000X0*%
%TD*%
%TA.AperFunction,ComponentPad*%
%ADD20RoundRect,0.250000X-0.550000X-0.550000X0.550000X-0.550000X0.550000X0.550000X-0.550000X0.550000X0*%
%TD*%
%TA.AperFunction,ComponentPad*%
%ADD21C,1.600000*%
%TD*%
%TA.AperFunction,ComponentPad*%
%ADD22C,2.000000*%
%TD*%
%TA.AperFunction,SMDPad,CuDef*%
%ADD23RoundRect,0.225000X-0.425000X-0.225000X0.425000X-0.225000X0.425000X0.225000X-0.425000X0.225000X0*%
%TD*%
%TA.AperFunction,SMDPad,CuDef*%
%ADD24FreePoly0,0.000000*%
%TD*%
%TA.AperFunction,SMDPad,CuDef*%
%ADD25RoundRect,0.150000X-0.150000X0.587500X-0.150000X-0.587500X0.150000X-0.587500X0.150000X0.587500X0*%
%TD*%
%TA.AperFunction,SMDPad,CuDef*%
%ADD26RoundRect,0.250000X0.700000X-0.275000X0.700000X0.275000X-0.700000X0.275000X-0.700000X-0.275000X0*%
%TD*%
%TA.AperFunction,SMDPad,CuDef*%
%ADD27RoundRect,0.250000X1.000000X-1.950000X1.000000X1.950000X-1.000000X1.950000X-1.000000X-1.950000X0*%
%TD*%
%TA.AperFunction,SMDPad,CuDef*%
%ADD28RoundRect,0.250000X-1.000000X1.950000X-1.000000X-1.950000X1.000000X-1.950000X1.000000X1.950000X0*%
%TD*%
%TA.AperFunction,SMDPad,CuDef*%
%ADD29R,1.400000X3.400000*%
%TD*%
%TA.AperFunction,SMDPad,CuDef*%
%ADD30R,2.300000X5.600000*%
%TD*%
%TA.AperFunction,SMDPad,CuDef*%
%ADD31RoundRect,0.250000X0.650000X-0.325000X0.650000X0.325000X-0.650000X0.325000X-0.650000X-0.325000X0*%
%TD*%
%TA.AperFunction,SMDPad,CuDef*%
%ADD32RoundRect,0.150000X0.150000X0.625000X-0.150000X0.625000X-0.150000X-0.625000X0.150000X-0.625000X0*%
%TD*%
%TA.AperFunction,SMDPad,CuDef*%
%ADD33RoundRect,0.250000X0.350000X0.650000X-0.350000X0.650000X-0.350000X-0.650000X0.350000X-0.650000X0*%
%TD*%
%TA.AperFunction,ComponentPad*%
%ADD34RoundRect,0.250000X0.750000X-0.750000X0.750000X0.750000X-0.750000X0.750000X-0.750000X-0.750000X0*%
%TD*%
%TA.AperFunction,SMDPad,CuDef*%
%ADD35RoundRect,0.250000X-0.312500X-0.625000X0.312500X-0.625000X0.312500X0.625000X-0.312500X0.625000X0*%
%TD*%
%TA.AperFunction,ComponentPad*%
%ADD36RoundRect,0.250000X-0.750000X0.750000X-0.750000X-0.750000X0.750000X-0.750000X0.750000X0.750000X0*%
%TD*%
%TA.AperFunction,SMDPad,CuDef*%
%ADD37RoundRect,0.250000X0.312500X0.625000X-0.312500X0.625000X-0.312500X-0.625000X0.312500X-0.625000X0*%
%TD*%
%TA.AperFunction,Conductor*%
%ADD38C,0.300000*%
%TD*%
%TA.AperFunction,Conductor*%
%ADD39C,0.400000*%
%TD*%
%TA.AperFunction,Conductor*%
%ADD40C,0.350000*%
%TD*%
%TA.AperFunction,Conductor*%
%ADD41C,0.200000*%
%TD*%
%TA.AperFunction,Conductor*%
%ADD42C,1.000000*%
%TD*%
G04 APERTURE END LIST*
D10*
D11*
X119052756Y-25029238D02*
X117909899Y-25029238D01*
X118481327Y-25029238D02*
X118481327Y-23029238D01*
X118481327Y-23029238D02*
X118290851Y-23314952D01*
X118290851Y-23314952D02*
X118100375Y-23505428D01*
X118100375Y-23505428D02*
X117909899Y-23600666D01*
X120290851Y-23029238D02*
X120481328Y-23029238D01*
X120481328Y-23029238D02*
X120671804Y-23124476D01*
X120671804Y-23124476D02*
X120767042Y-23219714D01*
X120767042Y-23219714D02*
X120862280Y-23410190D01*
X120862280Y-23410190D02*
X120957518Y-23791142D01*
X120957518Y-23791142D02*
X120957518Y-24267333D01*
X120957518Y-24267333D02*
X120862280Y-24648285D01*
X120862280Y-24648285D02*
X120767042Y-24838761D01*
X120767042Y-24838761D02*
X120671804Y-24934000D01*
X120671804Y-24934000D02*
X120481328Y-25029238D01*
X120481328Y-25029238D02*
X120290851Y-25029238D01*
X120290851Y-25029238D02*
X120100375Y-24934000D01*
X120100375Y-24934000D02*
X120005137Y-24838761D01*
X120005137Y-24838761D02*
X119909899Y-24648285D01*
X119909899Y-24648285D02*
X119814661Y-24267333D01*
X119814661Y-24267333D02*
X119814661Y-23791142D01*
X119814661Y-23791142D02*
X119909899Y-23410190D01*
X119909899Y-23410190D02*
X120005137Y-23219714D01*
X120005137Y-23219714D02*
X120100375Y-23124476D01*
X120100375Y-23124476D02*
X120290851Y-23029238D01*
X121624185Y-25029238D02*
X122671804Y-23695904D01*
X121624185Y-23695904D02*
X122671804Y-25029238D01*
D10*
D11*
X119452756Y-77529239D02*
X118309899Y-77529239D01*
X118881327Y-77529239D02*
X118881327Y-75529239D01*
X118881327Y-75529239D02*
X118690851Y-75814953D01*
X118690851Y-75814953D02*
X118500375Y-76005429D01*
X118500375Y-76005429D02*
X118309899Y-76100667D01*
X120690851Y-75529239D02*
X120881328Y-75529239D01*
X120881328Y-75529239D02*
X121071804Y-75624477D01*
X121071804Y-75624477D02*
X121167042Y-75719715D01*
X121167042Y-75719715D02*
X121262280Y-75910191D01*
X121262280Y-75910191D02*
X121357518Y-76291143D01*
X121357518Y-76291143D02*
X121357518Y-76767334D01*
X121357518Y-76767334D02*
X121262280Y-77148286D01*
X121262280Y-77148286D02*
X121167042Y-77338762D01*
X121167042Y-77338762D02*
X121071804Y-77434001D01*
X121071804Y-77434001D02*
X120881328Y-77529239D01*
X120881328Y-77529239D02*
X120690851Y-77529239D01*
X120690851Y-77529239D02*
X120500375Y-77434001D01*
X120500375Y-77434001D02*
X120405137Y-77338762D01*
X120405137Y-77338762D02*
X120309899Y-77148286D01*
X120309899Y-77148286D02*
X120214661Y-76767334D01*
X120214661Y-76767334D02*
X120214661Y-76291143D01*
X120214661Y-76291143D02*
X120309899Y-75910191D01*
X120309899Y-75910191D02*
X120405137Y-75719715D01*
X120405137Y-75719715D02*
X120500375Y-75624477D01*
X120500375Y-75624477D02*
X120690851Y-75529239D01*
X122024185Y-77529239D02*
X123071804Y-76195905D01*
X122024185Y-76195905D02*
X123071804Y-77529239D01*
D10*
D11*
X171452756Y-77529239D02*
X170309899Y-77529239D01*
X170881327Y-77529239D02*
X170881327Y-75529239D01*
X170881327Y-75529239D02*
X170690851Y-75814953D01*
X170690851Y-75814953D02*
X170500375Y-76005429D01*
X170500375Y-76005429D02*
X170309899Y-76100667D01*
X172690851Y-75529239D02*
X172881328Y-75529239D01*
X172881328Y-75529239D02*
X173071804Y-75624477D01*
X173071804Y-75624477D02*
X173167042Y-75719715D01*
X173167042Y-75719715D02*
X173262280Y-75910191D01*
X173262280Y-75910191D02*
X173357518Y-76291143D01*
X173357518Y-76291143D02*
X173357518Y-76767334D01*
X173357518Y-76767334D02*
X173262280Y-77148286D01*
X173262280Y-77148286D02*
X173167042Y-77338762D01*
X173167042Y-77338762D02*
X173071804Y-77434001D01*
X173071804Y-77434001D02*
X172881328Y-77529239D01*
X172881328Y-77529239D02*
X172690851Y-77529239D01*
X172690851Y-77529239D02*
X172500375Y-77434001D01*
X172500375Y-77434001D02*
X172405137Y-77338762D01*
X172405137Y-77338762D02*
X172309899Y-77148286D01*
X172309899Y-77148286D02*
X172214661Y-76767334D01*
X172214661Y-76767334D02*
X172214661Y-76291143D01*
X172214661Y-76291143D02*
X172309899Y-75910191D01*
X172309899Y-75910191D02*
X172405137Y-75719715D01*
X172405137Y-75719715D02*
X172500375Y-75624477D01*
X172500375Y-75624477D02*
X172690851Y-75529239D01*
X174024185Y-77529239D02*
X175071804Y-76195905D01*
X174024185Y-76195905D02*
X175071804Y-77529239D01*
D10*
D11*
X119452756Y-71729239D02*
X118309899Y-71729239D01*
X118881327Y-71729239D02*
X118881327Y-69729239D01*
X118881327Y-69729239D02*
X118690851Y-70014953D01*
X118690851Y-70014953D02*
X118500375Y-70205429D01*
X118500375Y-70205429D02*
X118309899Y-70300667D01*
X120119423Y-71729239D02*
X121167042Y-70395905D01*
X120119423Y-70395905D02*
X121167042Y-71729239D01*
D10*
D11*
X171452756Y-71729239D02*
X170309899Y-71729239D01*
X170881327Y-71729239D02*
X170881327Y-69729239D01*
X170881327Y-69729239D02*
X170690851Y-70014953D01*
X170690851Y-70014953D02*
X170500375Y-70205429D01*
X170500375Y-70205429D02*
X170309899Y-70300667D01*
X172119423Y-71729239D02*
X173167042Y-70395905D01*
X172119423Y-70395905D02*
X173167042Y-71729239D01*
D10*
D11*
X171452756Y-19229239D02*
X170309899Y-19229239D01*
X170881327Y-19229239D02*
X170881327Y-17229239D01*
X170881327Y-17229239D02*
X170690851Y-17514953D01*
X170690851Y-17514953D02*
X170500375Y-17705429D01*
X170500375Y-17705429D02*
X170309899Y-17800667D01*
X172119423Y-19229239D02*
X173167042Y-17895905D01*
X172119423Y-17895905D02*
X173167042Y-19229239D01*
D10*
D11*
X119052756Y-19229238D02*
X117909899Y-19229238D01*
X118481327Y-19229238D02*
X118481327Y-17229238D01*
X118481327Y-17229238D02*
X118290851Y-17514952D01*
X118290851Y-17514952D02*
X118100375Y-17705428D01*
X118100375Y-17705428D02*
X117909899Y-17800666D01*
X119719423Y-19229238D02*
X120767042Y-17895904D01*
X119719423Y-17895904D02*
X120767042Y-19229238D01*
D10*
D11*
X171452756Y-25029239D02*
X170309899Y-25029239D01*
X170881327Y-25029239D02*
X170881327Y-23029239D01*
X170881327Y-23029239D02*
X170690851Y-23314953D01*
X170690851Y-23314953D02*
X170500375Y-23505429D01*
X170500375Y-23505429D02*
X170309899Y-23600667D01*
X172690851Y-23029239D02*
X172881328Y-23029239D01*
X172881328Y-23029239D02*
X173071804Y-23124477D01*
X173071804Y-23124477D02*
X173167042Y-23219715D01*
X173167042Y-23219715D02*
X173262280Y-23410191D01*
X173262280Y-23410191D02*
X173357518Y-23791143D01*
X173357518Y-23791143D02*
X173357518Y-24267334D01*
X173357518Y-24267334D02*
X173262280Y-24648286D01*
X173262280Y-24648286D02*
X173167042Y-24838762D01*
X173167042Y-24838762D02*
X173071804Y-24934001D01*
X173071804Y-24934001D02*
X172881328Y-25029239D01*
X172881328Y-25029239D02*
X172690851Y-25029239D01*
X172690851Y-25029239D02*
X172500375Y-24934001D01*
X172500375Y-24934001D02*
X172405137Y-24838762D01*
X172405137Y-24838762D02*
X172309899Y-24648286D01*
X172309899Y-24648286D02*
X172214661Y-24267334D01*
X172214661Y-24267334D02*
X172214661Y-23791143D01*
X172214661Y-23791143D02*
X172309899Y-23410191D01*
X172309899Y-23410191D02*
X172405137Y-23219715D01*
X172405137Y-23219715D02*
X172500375Y-23124477D01*
X172500375Y-23124477D02*
X172690851Y-23029239D01*
X174024185Y-25029239D02*
X175071804Y-23695905D01*
X174024185Y-23695905D02*
X175071804Y-25029239D01*
D10*
D11*
X155186089Y-137729238D02*
X155567042Y-137729238D01*
X155567042Y-137729238D02*
X155757518Y-137824476D01*
X155757518Y-137824476D02*
X155947994Y-138014952D01*
X155947994Y-138014952D02*
X156043232Y-138395904D01*
X156043232Y-138395904D02*
X156043232Y-139062571D01*
X156043232Y-139062571D02*
X155947994Y-139443523D01*
X155947994Y-139443523D02*
X155757518Y-139634000D01*
X155757518Y-139634000D02*
X155567042Y-139729238D01*
X155567042Y-139729238D02*
X155186089Y-139729238D01*
X155186089Y-139729238D02*
X154995613Y-139634000D01*
X154995613Y-139634000D02*
X154805137Y-139443523D01*
X154805137Y-139443523D02*
X154709899Y-139062571D01*
X154709899Y-139062571D02*
X154709899Y-138395904D01*
X154709899Y-138395904D02*
X154805137Y-138014952D01*
X154805137Y-138014952D02*
X154995613Y-137824476D01*
X154995613Y-137824476D02*
X155186089Y-137729238D01*
X156900375Y-137729238D02*
X156900375Y-139348285D01*
X156900375Y-139348285D02*
X156995613Y-139538761D01*
X156995613Y-139538761D02*
X157090851Y-139634000D01*
X157090851Y-139634000D02*
X157281327Y-139729238D01*
X157281327Y-139729238D02*
X157662280Y-139729238D01*
X157662280Y-139729238D02*
X157852756Y-139634000D01*
X157852756Y-139634000D02*
X157947994Y-139538761D01*
X157947994Y-139538761D02*
X158043232Y-139348285D01*
X158043232Y-139348285D02*
X158043232Y-137729238D01*
X158709899Y-137729238D02*
X159852756Y-137729238D01*
X159281327Y-139729238D02*
X159281327Y-137729238D01*
D10*
D11*
X123852756Y-141824476D02*
X123662280Y-141729238D01*
X123662280Y-141729238D02*
X123376566Y-141729238D01*
X123376566Y-141729238D02*
X123090851Y-141824476D01*
X123090851Y-141824476D02*
X122900375Y-142014952D01*
X122900375Y-142014952D02*
X122805137Y-142205428D01*
X122805137Y-142205428D02*
X122709899Y-142586380D01*
X122709899Y-142586380D02*
X122709899Y-142872095D01*
X122709899Y-142872095D02*
X122805137Y-143253047D01*
X122805137Y-143253047D02*
X122900375Y-143443523D01*
X122900375Y-143443523D02*
X123090851Y-143634000D01*
X123090851Y-143634000D02*
X123376566Y-143729238D01*
X123376566Y-143729238D02*
X123567042Y-143729238D01*
X123567042Y-143729238D02*
X123852756Y-143634000D01*
X123852756Y-143634000D02*
X123947994Y-143538761D01*
X123947994Y-143538761D02*
X123947994Y-142872095D01*
X123947994Y-142872095D02*
X123567042Y-142872095D01*
X124805137Y-143729238D02*
X124805137Y-141729238D01*
X124805137Y-141729238D02*
X125947994Y-143729238D01*
X125947994Y-143729238D02*
X125947994Y-141729238D01*
X126900375Y-143729238D02*
X126900375Y-141729238D01*
X126900375Y-141729238D02*
X127376565Y-141729238D01*
X127376565Y-141729238D02*
X127662280Y-141824476D01*
X127662280Y-141824476D02*
X127852756Y-142014952D01*
X127852756Y-142014952D02*
X127947994Y-142205428D01*
X127947994Y-142205428D02*
X128043232Y-142586380D01*
X128043232Y-142586380D02*
X128043232Y-142872095D01*
X128043232Y-142872095D02*
X127947994Y-143253047D01*
X127947994Y-143253047D02*
X127852756Y-143443523D01*
X127852756Y-143443523D02*
X127662280Y-143634000D01*
X127662280Y-143634000D02*
X127376565Y-143729238D01*
X127376565Y-143729238D02*
X126900375Y-143729238D01*
D10*
D11*
X125805137Y-140729238D02*
X125805137Y-138729238D01*
X126757518Y-140729238D02*
X126757518Y-138729238D01*
X126757518Y-138729238D02*
X127900375Y-140729238D01*
X127900375Y-140729238D02*
X127900375Y-138729238D01*
D10*
D11*
X155852756Y-141824476D02*
X155662280Y-141729238D01*
X155662280Y-141729238D02*
X155376566Y-141729238D01*
X155376566Y-141729238D02*
X155090851Y-141824476D01*
X155090851Y-141824476D02*
X154900375Y-142014952D01*
X154900375Y-142014952D02*
X154805137Y-142205428D01*
X154805137Y-142205428D02*
X154709899Y-142586380D01*
X154709899Y-142586380D02*
X154709899Y-142872095D01*
X154709899Y-142872095D02*
X154805137Y-143253047D01*
X154805137Y-143253047D02*
X154900375Y-143443523D01*
X154900375Y-143443523D02*
X155090851Y-143634000D01*
X155090851Y-143634000D02*
X155376566Y-143729238D01*
X155376566Y-143729238D02*
X155567042Y-143729238D01*
X155567042Y-143729238D02*
X155852756Y-143634000D01*
X155852756Y-143634000D02*
X155947994Y-143538761D01*
X155947994Y-143538761D02*
X155947994Y-142872095D01*
X155947994Y-142872095D02*
X155567042Y-142872095D01*
X156805137Y-143729238D02*
X156805137Y-141729238D01*
X156805137Y-141729238D02*
X157947994Y-143729238D01*
X157947994Y-143729238D02*
X157947994Y-141729238D01*
X158900375Y-143729238D02*
X158900375Y-141729238D01*
X158900375Y-141729238D02*
X159376565Y-141729238D01*
X159376565Y-141729238D02*
X159662280Y-141824476D01*
X159662280Y-141824476D02*
X159852756Y-142014952D01*
X159852756Y-142014952D02*
X159947994Y-142205428D01*
X159947994Y-142205428D02*
X160043232Y-142586380D01*
X160043232Y-142586380D02*
X160043232Y-142872095D01*
X160043232Y-142872095D02*
X159947994Y-143253047D01*
X159947994Y-143253047D02*
X159852756Y-143443523D01*
X159852756Y-143443523D02*
X159662280Y-143634000D01*
X159662280Y-143634000D02*
X159376565Y-143729238D01*
X159376565Y-143729238D02*
X158900375Y-143729238D01*
D10*
D11*
X124352756Y-137729238D02*
X123209899Y-137729238D01*
X123781327Y-137729238D02*
X123781327Y-135729238D01*
X123781327Y-135729238D02*
X123590851Y-136014952D01*
X123590851Y-136014952D02*
X123400375Y-136205428D01*
X123400375Y-136205428D02*
X123209899Y-136300666D01*
X125114661Y-135919714D02*
X125209899Y-135824476D01*
X125209899Y-135824476D02*
X125400375Y-135729238D01*
X125400375Y-135729238D02*
X125876566Y-135729238D01*
X125876566Y-135729238D02*
X126067042Y-135824476D01*
X126067042Y-135824476D02*
X126162280Y-135919714D01*
X126162280Y-135919714D02*
X126257518Y-136110190D01*
X126257518Y-136110190D02*
X126257518Y-136300666D01*
X126257518Y-136300666D02*
X126162280Y-136586380D01*
X126162280Y-136586380D02*
X125019423Y-137729238D01*
X125019423Y-137729238D02*
X126257518Y-137729238D01*
X126828947Y-135729238D02*
X127495613Y-137729238D01*
X127495613Y-137729238D02*
X128162280Y-135729238D01*
D10*
D11*
X154926026Y-113729238D02*
X155306979Y-113729238D01*
X155306979Y-113729238D02*
X155497455Y-113824476D01*
X155497455Y-113824476D02*
X155687931Y-114014952D01*
X155687931Y-114014952D02*
X155783169Y-114395904D01*
X155783169Y-114395904D02*
X155783169Y-115062571D01*
X155783169Y-115062571D02*
X155687931Y-115443523D01*
X155687931Y-115443523D02*
X155497455Y-115634000D01*
X155497455Y-115634000D02*
X155306979Y-115729238D01*
X155306979Y-115729238D02*
X154926026Y-115729238D01*
X154926026Y-115729238D02*
X154735550Y-115634000D01*
X154735550Y-115634000D02*
X154545074Y-115443523D01*
X154545074Y-115443523D02*
X154449836Y-115062571D01*
X154449836Y-115062571D02*
X154449836Y-114395904D01*
X154449836Y-114395904D02*
X154545074Y-114014952D01*
X154545074Y-114014952D02*
X154735550Y-113824476D01*
X154735550Y-113824476D02*
X154926026Y-113729238D01*
X156640312Y-113729238D02*
X156640312Y-115348285D01*
X156640312Y-115348285D02*
X156735550Y-115538761D01*
X156735550Y-115538761D02*
X156830788Y-115634000D01*
X156830788Y-115634000D02*
X157021264Y-115729238D01*
X157021264Y-115729238D02*
X157402217Y-115729238D01*
X157402217Y-115729238D02*
X157592693Y-115634000D01*
X157592693Y-115634000D02*
X157687931Y-115538761D01*
X157687931Y-115538761D02*
X157783169Y-115348285D01*
X157783169Y-115348285D02*
X157783169Y-113729238D01*
X158449836Y-113729238D02*
X159592693Y-113729238D01*
X159021264Y-115729238D02*
X159021264Y-113729238D01*
D10*
D11*
X123592693Y-117824476D02*
X123402217Y-117729238D01*
X123402217Y-117729238D02*
X123116503Y-117729238D01*
X123116503Y-117729238D02*
X122830788Y-117824476D01*
X122830788Y-117824476D02*
X122640312Y-118014952D01*
X122640312Y-118014952D02*
X122545074Y-118205428D01*
X122545074Y-118205428D02*
X122449836Y-118586380D01*
X122449836Y-118586380D02*
X122449836Y-118872095D01*
X122449836Y-118872095D02*
X122545074Y-119253047D01*
X122545074Y-119253047D02*
X122640312Y-119443523D01*
X122640312Y-119443523D02*
X122830788Y-119634000D01*
X122830788Y-119634000D02*
X123116503Y-119729238D01*
X123116503Y-119729238D02*
X123306979Y-119729238D01*
X123306979Y-119729238D02*
X123592693Y-119634000D01*
X123592693Y-119634000D02*
X123687931Y-119538761D01*
X123687931Y-119538761D02*
X123687931Y-118872095D01*
X123687931Y-118872095D02*
X123306979Y-118872095D01*
X124545074Y-119729238D02*
X124545074Y-117729238D01*
X124545074Y-117729238D02*
X125687931Y-119729238D01*
X125687931Y-119729238D02*
X125687931Y-117729238D01*
X126640312Y-119729238D02*
X126640312Y-117729238D01*
X126640312Y-117729238D02*
X127116502Y-117729238D01*
X127116502Y-117729238D02*
X127402217Y-117824476D01*
X127402217Y-117824476D02*
X127592693Y-118014952D01*
X127592693Y-118014952D02*
X127687931Y-118205428D01*
X127687931Y-118205428D02*
X127783169Y-118586380D01*
X127783169Y-118586380D02*
X127783169Y-118872095D01*
X127783169Y-118872095D02*
X127687931Y-119253047D01*
X127687931Y-119253047D02*
X127592693Y-119443523D01*
X127592693Y-119443523D02*
X127402217Y-119634000D01*
X127402217Y-119634000D02*
X127116502Y-119729238D01*
X127116502Y-119729238D02*
X126640312Y-119729238D01*
D10*
D11*
X125545074Y-116729238D02*
X125545074Y-114729238D01*
X126497455Y-116729238D02*
X126497455Y-114729238D01*
X126497455Y-114729238D02*
X127640312Y-116729238D01*
X127640312Y-116729238D02*
X127640312Y-114729238D01*
D10*
D11*
X155592693Y-117824476D02*
X155402217Y-117729238D01*
X155402217Y-117729238D02*
X155116503Y-117729238D01*
X155116503Y-117729238D02*
X154830788Y-117824476D01*
X154830788Y-117824476D02*
X154640312Y-118014952D01*
X154640312Y-118014952D02*
X154545074Y-118205428D01*
X154545074Y-118205428D02*
X154449836Y-118586380D01*
X154449836Y-118586380D02*
X154449836Y-118872095D01*
X154449836Y-118872095D02*
X154545074Y-119253047D01*
X154545074Y-119253047D02*
X154640312Y-119443523D01*
X154640312Y-119443523D02*
X154830788Y-119634000D01*
X154830788Y-119634000D02*
X155116503Y-119729238D01*
X155116503Y-119729238D02*
X155306979Y-119729238D01*
X155306979Y-119729238D02*
X155592693Y-119634000D01*
X155592693Y-119634000D02*
X155687931Y-119538761D01*
X155687931Y-119538761D02*
X155687931Y-118872095D01*
X155687931Y-118872095D02*
X155306979Y-118872095D01*
X156545074Y-119729238D02*
X156545074Y-117729238D01*
X156545074Y-117729238D02*
X157687931Y-119729238D01*
X157687931Y-119729238D02*
X157687931Y-117729238D01*
X158640312Y-119729238D02*
X158640312Y-117729238D01*
X158640312Y-117729238D02*
X159116502Y-117729238D01*
X159116502Y-117729238D02*
X159402217Y-117824476D01*
X159402217Y-117824476D02*
X159592693Y-118014952D01*
X159592693Y-118014952D02*
X159687931Y-118205428D01*
X159687931Y-118205428D02*
X159783169Y-118586380D01*
X159783169Y-118586380D02*
X159783169Y-118872095D01*
X159783169Y-118872095D02*
X159687931Y-119253047D01*
X159687931Y-119253047D02*
X159592693Y-119443523D01*
X159592693Y-119443523D02*
X159402217Y-119634000D01*
X159402217Y-119634000D02*
X159116502Y-119729238D01*
X159116502Y-119729238D02*
X158640312Y-119729238D01*
D10*
D11*
X124092693Y-113729238D02*
X122949836Y-113729238D01*
X123521264Y-113729238D02*
X123521264Y-111729238D01*
X123521264Y-111729238D02*
X123330788Y-112014952D01*
X123330788Y-112014952D02*
X123140312Y-112205428D01*
X123140312Y-112205428D02*
X122949836Y-112300666D01*
X124854598Y-111919714D02*
X124949836Y-111824476D01*
X124949836Y-111824476D02*
X125140312Y-111729238D01*
X125140312Y-111729238D02*
X125616503Y-111729238D01*
X125616503Y-111729238D02*
X125806979Y-111824476D01*
X125806979Y-111824476D02*
X125902217Y-111919714D01*
X125902217Y-111919714D02*
X125997455Y-112110190D01*
X125997455Y-112110190D02*
X125997455Y-112300666D01*
X125997455Y-112300666D02*
X125902217Y-112586380D01*
X125902217Y-112586380D02*
X124759360Y-113729238D01*
X124759360Y-113729238D02*
X125997455Y-113729238D01*
X126568884Y-111729238D02*
X127235550Y-113729238D01*
X127235550Y-113729238D02*
X127902217Y-111729238D01*
D10*
D11*
X109186089Y-138229238D02*
X109567042Y-138229238D01*
X109567042Y-138229238D02*
X109757518Y-138324476D01*
X109757518Y-138324476D02*
X109947994Y-138514952D01*
X109947994Y-138514952D02*
X110043232Y-138895904D01*
X110043232Y-138895904D02*
X110043232Y-139562571D01*
X110043232Y-139562571D02*
X109947994Y-139943523D01*
X109947994Y-139943523D02*
X109757518Y-140134000D01*
X109757518Y-140134000D02*
X109567042Y-140229238D01*
X109567042Y-140229238D02*
X109186089Y-140229238D01*
X109186089Y-140229238D02*
X108995613Y-140134000D01*
X108995613Y-140134000D02*
X108805137Y-139943523D01*
X108805137Y-139943523D02*
X108709899Y-139562571D01*
X108709899Y-139562571D02*
X108709899Y-138895904D01*
X108709899Y-138895904D02*
X108805137Y-138514952D01*
X108805137Y-138514952D02*
X108995613Y-138324476D01*
X108995613Y-138324476D02*
X109186089Y-138229238D01*
X110900375Y-138229238D02*
X110900375Y-139848285D01*
X110900375Y-139848285D02*
X110995613Y-140038761D01*
X110995613Y-140038761D02*
X111090851Y-140134000D01*
X111090851Y-140134000D02*
X111281327Y-140229238D01*
X111281327Y-140229238D02*
X111662280Y-140229238D01*
X111662280Y-140229238D02*
X111852756Y-140134000D01*
X111852756Y-140134000D02*
X111947994Y-140038761D01*
X111947994Y-140038761D02*
X112043232Y-139848285D01*
X112043232Y-139848285D02*
X112043232Y-138229238D01*
X112709899Y-138229238D02*
X113852756Y-138229238D01*
X113281327Y-140229238D02*
X113281327Y-138229238D01*
D10*
D11*
X77852756Y-142324476D02*
X77662280Y-142229238D01*
X77662280Y-142229238D02*
X77376566Y-142229238D01*
X77376566Y-142229238D02*
X77090851Y-142324476D01*
X77090851Y-142324476D02*
X76900375Y-142514952D01*
X76900375Y-142514952D02*
X76805137Y-142705428D01*
X76805137Y-142705428D02*
X76709899Y-143086380D01*
X76709899Y-143086380D02*
X76709899Y-143372095D01*
X76709899Y-143372095D02*
X76805137Y-143753047D01*
X76805137Y-143753047D02*
X76900375Y-143943523D01*
X76900375Y-143943523D02*
X77090851Y-144134000D01*
X77090851Y-144134000D02*
X77376566Y-144229238D01*
X77376566Y-144229238D02*
X77567042Y-144229238D01*
X77567042Y-144229238D02*
X77852756Y-144134000D01*
X77852756Y-144134000D02*
X77947994Y-144038761D01*
X77947994Y-144038761D02*
X77947994Y-143372095D01*
X77947994Y-143372095D02*
X77567042Y-143372095D01*
X78805137Y-144229238D02*
X78805137Y-142229238D01*
X78805137Y-142229238D02*
X79947994Y-144229238D01*
X79947994Y-144229238D02*
X79947994Y-142229238D01*
X80900375Y-144229238D02*
X80900375Y-142229238D01*
X80900375Y-142229238D02*
X81376565Y-142229238D01*
X81376565Y-142229238D02*
X81662280Y-142324476D01*
X81662280Y-142324476D02*
X81852756Y-142514952D01*
X81852756Y-142514952D02*
X81947994Y-142705428D01*
X81947994Y-142705428D02*
X82043232Y-143086380D01*
X82043232Y-143086380D02*
X82043232Y-143372095D01*
X82043232Y-143372095D02*
X81947994Y-143753047D01*
X81947994Y-143753047D02*
X81852756Y-143943523D01*
X81852756Y-143943523D02*
X81662280Y-144134000D01*
X81662280Y-144134000D02*
X81376565Y-144229238D01*
X81376565Y-144229238D02*
X80900375Y-144229238D01*
D10*
D11*
X79805137Y-141229238D02*
X79805137Y-139229238D01*
X80757518Y-141229238D02*
X80757518Y-139229238D01*
X80757518Y-139229238D02*
X81900375Y-141229238D01*
X81900375Y-141229238D02*
X81900375Y-139229238D01*
D10*
D11*
X109852756Y-142324476D02*
X109662280Y-142229238D01*
X109662280Y-142229238D02*
X109376566Y-142229238D01*
X109376566Y-142229238D02*
X109090851Y-142324476D01*
X109090851Y-142324476D02*
X108900375Y-142514952D01*
X108900375Y-142514952D02*
X108805137Y-142705428D01*
X108805137Y-142705428D02*
X108709899Y-143086380D01*
X108709899Y-143086380D02*
X108709899Y-143372095D01*
X108709899Y-143372095D02*
X108805137Y-143753047D01*
X108805137Y-143753047D02*
X108900375Y-143943523D01*
X108900375Y-143943523D02*
X109090851Y-144134000D01*
X109090851Y-144134000D02*
X109376566Y-144229238D01*
X109376566Y-144229238D02*
X109567042Y-144229238D01*
X109567042Y-144229238D02*
X109852756Y-144134000D01*
X109852756Y-144134000D02*
X109947994Y-144038761D01*
X109947994Y-144038761D02*
X109947994Y-143372095D01*
X109947994Y-143372095D02*
X109567042Y-143372095D01*
X110805137Y-144229238D02*
X110805137Y-142229238D01*
X110805137Y-142229238D02*
X111947994Y-144229238D01*
X111947994Y-144229238D02*
X111947994Y-142229238D01*
X112900375Y-144229238D02*
X112900375Y-142229238D01*
X112900375Y-142229238D02*
X113376565Y-142229238D01*
X113376565Y-142229238D02*
X113662280Y-142324476D01*
X113662280Y-142324476D02*
X113852756Y-142514952D01*
X113852756Y-142514952D02*
X113947994Y-142705428D01*
X113947994Y-142705428D02*
X114043232Y-143086380D01*
X114043232Y-143086380D02*
X114043232Y-143372095D01*
X114043232Y-143372095D02*
X113947994Y-143753047D01*
X113947994Y-143753047D02*
X113852756Y-143943523D01*
X113852756Y-143943523D02*
X113662280Y-144134000D01*
X113662280Y-144134000D02*
X113376565Y-144229238D01*
X113376565Y-144229238D02*
X112900375Y-144229238D01*
D10*
D11*
X78352756Y-138229238D02*
X77209899Y-138229238D01*
X77781327Y-138229238D02*
X77781327Y-136229238D01*
X77781327Y-136229238D02*
X77590851Y-136514952D01*
X77590851Y-136514952D02*
X77400375Y-136705428D01*
X77400375Y-136705428D02*
X77209899Y-136800666D01*
X79114661Y-136419714D02*
X79209899Y-136324476D01*
X79209899Y-136324476D02*
X79400375Y-136229238D01*
X79400375Y-136229238D02*
X79876566Y-136229238D01*
X79876566Y-136229238D02*
X80067042Y-136324476D01*
X80067042Y-136324476D02*
X80162280Y-136419714D01*
X80162280Y-136419714D02*
X80257518Y-136610190D01*
X80257518Y-136610190D02*
X80257518Y-136800666D01*
X80257518Y-136800666D02*
X80162280Y-137086380D01*
X80162280Y-137086380D02*
X79019423Y-138229238D01*
X79019423Y-138229238D02*
X80257518Y-138229238D01*
X80828947Y-136229238D02*
X81495613Y-138229238D01*
X81495613Y-138229238D02*
X82162280Y-136229238D01*
D10*
D11*
X77852756Y-117824476D02*
X77662280Y-117729238D01*
X77662280Y-117729238D02*
X77376566Y-117729238D01*
X77376566Y-117729238D02*
X77090851Y-117824476D01*
X77090851Y-117824476D02*
X76900375Y-118014952D01*
X76900375Y-118014952D02*
X76805137Y-118205428D01*
X76805137Y-118205428D02*
X76709899Y-118586380D01*
X76709899Y-118586380D02*
X76709899Y-118872095D01*
X76709899Y-118872095D02*
X76805137Y-119253047D01*
X76805137Y-119253047D02*
X76900375Y-119443523D01*
X76900375Y-119443523D02*
X77090851Y-119634000D01*
X77090851Y-119634000D02*
X77376566Y-119729238D01*
X77376566Y-119729238D02*
X77567042Y-119729238D01*
X77567042Y-119729238D02*
X77852756Y-119634000D01*
X77852756Y-119634000D02*
X77947994Y-119538761D01*
X77947994Y-119538761D02*
X77947994Y-118872095D01*
X77947994Y-118872095D02*
X77567042Y-118872095D01*
X78805137Y-119729238D02*
X78805137Y-117729238D01*
X78805137Y-117729238D02*
X79947994Y-119729238D01*
X79947994Y-119729238D02*
X79947994Y-117729238D01*
X80900375Y-119729238D02*
X80900375Y-117729238D01*
X80900375Y-117729238D02*
X81376565Y-117729238D01*
X81376565Y-117729238D02*
X81662280Y-117824476D01*
X81662280Y-117824476D02*
X81852756Y-118014952D01*
X81852756Y-118014952D02*
X81947994Y-118205428D01*
X81947994Y-118205428D02*
X82043232Y-118586380D01*
X82043232Y-118586380D02*
X82043232Y-118872095D01*
X82043232Y-118872095D02*
X81947994Y-119253047D01*
X81947994Y-119253047D02*
X81852756Y-119443523D01*
X81852756Y-119443523D02*
X81662280Y-119634000D01*
X81662280Y-119634000D02*
X81376565Y-119729238D01*
X81376565Y-119729238D02*
X80900375Y-119729238D01*
D10*
D11*
X78352756Y-113729238D02*
X77209899Y-113729238D01*
X77781327Y-113729238D02*
X77781327Y-111729238D01*
X77781327Y-111729238D02*
X77590851Y-112014952D01*
X77590851Y-112014952D02*
X77400375Y-112205428D01*
X77400375Y-112205428D02*
X77209899Y-112300666D01*
X79114661Y-111919714D02*
X79209899Y-111824476D01*
X79209899Y-111824476D02*
X79400375Y-111729238D01*
X79400375Y-111729238D02*
X79876566Y-111729238D01*
X79876566Y-111729238D02*
X80067042Y-111824476D01*
X80067042Y-111824476D02*
X80162280Y-111919714D01*
X80162280Y-111919714D02*
X80257518Y-112110190D01*
X80257518Y-112110190D02*
X80257518Y-112300666D01*
X80257518Y-112300666D02*
X80162280Y-112586380D01*
X80162280Y-112586380D02*
X79019423Y-113729238D01*
X79019423Y-113729238D02*
X80257518Y-113729238D01*
X80828947Y-111729238D02*
X81495613Y-113729238D01*
X81495613Y-113729238D02*
X82162280Y-111729238D01*
D10*
D11*
X79805137Y-116729238D02*
X79805137Y-114729238D01*
X80757518Y-116729238D02*
X80757518Y-114729238D01*
X80757518Y-114729238D02*
X81900375Y-116729238D01*
X81900375Y-116729238D02*
X81900375Y-114729238D01*
D10*
D11*
X109186089Y-113729238D02*
X109567042Y-113729238D01*
X109567042Y-113729238D02*
X109757518Y-113824476D01*
X109757518Y-113824476D02*
X109947994Y-114014952D01*
X109947994Y-114014952D02*
X110043232Y-114395904D01*
X110043232Y-114395904D02*
X110043232Y-115062571D01*
X110043232Y-115062571D02*
X109947994Y-115443523D01*
X109947994Y-115443523D02*
X109757518Y-115634000D01*
X109757518Y-115634000D02*
X109567042Y-115729238D01*
X109567042Y-115729238D02*
X109186089Y-115729238D01*
X109186089Y-115729238D02*
X108995613Y-115634000D01*
X108995613Y-115634000D02*
X108805137Y-115443523D01*
X108805137Y-115443523D02*
X108709899Y-115062571D01*
X108709899Y-115062571D02*
X108709899Y-114395904D01*
X108709899Y-114395904D02*
X108805137Y-114014952D01*
X108805137Y-114014952D02*
X108995613Y-113824476D01*
X108995613Y-113824476D02*
X109186089Y-113729238D01*
X110900375Y-113729238D02*
X110900375Y-115348285D01*
X110900375Y-115348285D02*
X110995613Y-115538761D01*
X110995613Y-115538761D02*
X111090851Y-115634000D01*
X111090851Y-115634000D02*
X111281327Y-115729238D01*
X111281327Y-115729238D02*
X111662280Y-115729238D01*
X111662280Y-115729238D02*
X111852756Y-115634000D01*
X111852756Y-115634000D02*
X111947994Y-115538761D01*
X111947994Y-115538761D02*
X112043232Y-115348285D01*
X112043232Y-115348285D02*
X112043232Y-113729238D01*
X112709899Y-113729238D02*
X113852756Y-113729238D01*
X113281327Y-115729238D02*
X113281327Y-113729238D01*
D10*
D11*
X109852756Y-117824476D02*
X109662280Y-117729238D01*
X109662280Y-117729238D02*
X109376566Y-117729238D01*
X109376566Y-117729238D02*
X109090851Y-117824476D01*
X109090851Y-117824476D02*
X108900375Y-118014952D01*
X108900375Y-118014952D02*
X108805137Y-118205428D01*
X108805137Y-118205428D02*
X108709899Y-118586380D01*
X108709899Y-118586380D02*
X108709899Y-118872095D01*
X108709899Y-118872095D02*
X108805137Y-119253047D01*
X108805137Y-119253047D02*
X108900375Y-119443523D01*
X108900375Y-119443523D02*
X109090851Y-119634000D01*
X109090851Y-119634000D02*
X109376566Y-119729238D01*
X109376566Y-119729238D02*
X109567042Y-119729238D01*
X109567042Y-119729238D02*
X109852756Y-119634000D01*
X109852756Y-119634000D02*
X109947994Y-119538761D01*
X109947994Y-119538761D02*
X109947994Y-118872095D01*
X109947994Y-118872095D02*
X109567042Y-118872095D01*
X110805137Y-119729238D02*
X110805137Y-117729238D01*
X110805137Y-117729238D02*
X111947994Y-119729238D01*
X111947994Y-119729238D02*
X111947994Y-117729238D01*
X112900375Y-119729238D02*
X112900375Y-117729238D01*
X112900375Y-117729238D02*
X113376565Y-117729238D01*
X113376565Y-117729238D02*
X113662280Y-117824476D01*
X113662280Y-117824476D02*
X113852756Y-118014952D01*
X113852756Y-118014952D02*
X113947994Y-118205428D01*
X113947994Y-118205428D02*
X114043232Y-118586380D01*
X114043232Y-118586380D02*
X114043232Y-118872095D01*
X114043232Y-118872095D02*
X113947994Y-119253047D01*
X113947994Y-119253047D02*
X113852756Y-119443523D01*
X113852756Y-119443523D02*
X113662280Y-119634000D01*
X113662280Y-119634000D02*
X113376565Y-119729238D01*
X113376565Y-119729238D02*
X112900375Y-119729238D01*
D12*
%TO.P,U5,1,REF_1_1*%
%TO.N,GND*%
X106625000Y-14850000D03*
%TO.P,U5,2,-IN_2*%
X107275000Y-14850000D03*
%TO.P,U5,3,+IN_3*%
%TO.N,/Output*%
X107925000Y-14850000D03*
%TO.P,U5,4,V-_4*%
%TO.N,GND*%
X108575000Y-14850000D03*
%TO.P,U5,5,SENSE_5*%
%TO.N,Net-(U2-AIN0)*%
X108575000Y-10550000D03*
%TO.P,U5,6,OUT_6*%
X107925000Y-10550000D03*
%TO.P,U5,7,V+_7*%
%TO.N,+5V*%
X107275000Y-10550000D03*
%TO.P,U5,8,REF_2_8*%
%TO.N,+2V5*%
X106625000Y-10550000D03*
%TD*%
D13*
%TO.P,C3,1*%
%TO.N,Net-(C3-Pad1)*%
X146600000Y-34025001D03*
%TO.P,C3,2*%
%TO.N,GND*%
X146600000Y-36975001D03*
%TD*%
D14*
%TO.P,C6,1*%
%TO.N,GND*%
X134650000Y-59400001D03*
%TO.P,C6,2*%
%TO.N,+5V*%
X137600000Y-59400001D03*
%TD*%
D15*
%TO.P,R11,1*%
%TO.N,Net-(C2-Pad2)*%
X101450000Y-31700000D03*
%TO.P,R11,2*%
%TO.N,Net-(U1C-V+)*%
X104550000Y-31700000D03*
%TD*%
D16*
%TO.P,J2,1,Pin_1_1*%
%TO.N,Net-(J2-Pin_1)*%
X167400000Y-71320001D03*
D17*
%TO.P,J2,2,Pin_2_2*%
%TO.N,Net-(J2-Pin_2)*%
X167400000Y-73860001D03*
%TO.P,J2,3,Pin_3_3*%
%TO.N,Net-(J2-Pin_3)*%
X167400000Y-76400001D03*
%TD*%
D18*
%TO.P,U2,1,ADDR_1*%
%TO.N,GND*%
X98548040Y-64600001D03*
%TO.P,U2,2,ALERT/RDY_2*%
%TO.N,unconnected-(U2-ALERT{slash}RDY-Pad2)*%
X99048040Y-64600001D03*
%TO.P,U2,3,GND_3*%
%TO.N,GND*%
X99548040Y-64600001D03*
%TO.P,U2,4,AIN0_4*%
%TO.N,Net-(U2-AIN0)*%
X100048040Y-64600001D03*
%TO.P,U2,5,AIN1_5*%
%TO.N,unconnected-(U2-AIN1-Pad5)*%
X100548040Y-64600001D03*
%TO.P,U2,6,AIN2_6*%
%TO.N,unconnected-(U2-AIN2-Pad6)*%
X100548040Y-60300001D03*
%TO.P,U2,7,AIN3_7*%
%TO.N,unconnected-(U2-AIN3-Pad7)*%
X100048040Y-60300001D03*
%TO.P,U2,8,VDD_8*%
%TO.N,+3.3V*%
X99548040Y-60300001D03*
%TO.P,U2,9,SDA_9*%
%TO.N,/Blue*%
X99048040Y-60300001D03*
%TO.P,U2,10,SCL_10*%
%TO.N,/Yellow*%
X98548040Y-60300001D03*
%TD*%
D19*
%TO.P,R10,1*%
%TO.N,Net-(J2-Pin_3)*%
X163350000Y-77660001D03*
%TO.P,R10,2*%
%TO.N,/Output*%
X160250000Y-77660001D03*
%TD*%
D20*
%TO.P,U1,1*%
%TO.N,Net-(C1-Pad2)*%
X147730540Y-70260001D03*
D21*
%TO.P,U1,2,-_2*%
%TO.N,Net-(U1A--)*%
X147730540Y-72800001D03*
%TO.P,U1,3,+_3*%
%TO.N,GND*%
X147730540Y-75340001D03*
%TO.P,U1,4,V-_4*%
%TO.N,Net-(U1C-V-)*%
X147730540Y-77880001D03*
%TO.P,U1,5,+_5*%
%TO.N,GND*%
X155350540Y-77880001D03*
%TO.P,U1,6,-_6*%
%TO.N,Net-(J2-Pin_2)*%
X155350540Y-75340001D03*
%TO.P,U1,7*%
%TO.N,/Output*%
X155350540Y-72800001D03*
%TO.P,U1,8,V+_8*%
%TO.N,Net-(U1C-V+)*%
X155350540Y-70260001D03*
%TD*%
D19*
%TO.P,R12,1*%
%TO.N,Net-(C3-Pad1)*%
X149350000Y-84200001D03*
%TO.P,R12,2*%
%TO.N,Net-(U1C-V-)*%
X146250000Y-84200001D03*
%TD*%
D22*
%TO.P,C1,1*%
%TO.N,Net-(U1A--)*%
X92600000Y-20100000D03*
%TO.P,C1,2*%
%TO.N,Net-(C1-Pad2)*%
X92600000Y-17600000D03*
%TD*%
D23*
%TO.P,U4,1,OUT_1*%
%TO.N,+5V*%
X85175000Y-9400000D03*
D24*
%TO.P,U4,2,GND_2*%
%TO.N,GND*%
X85262500Y-10900000D03*
D23*
%TO.P,U4,3,IN_3*%
%TO.N,V+*%
X85175000Y-12400000D03*
%TD*%
D25*
%TO.P,U3,1,IN_1*%
%TO.N,+5V*%
X160900000Y-6300001D03*
%TO.P,U3,2,OUT_2*%
%TO.N,+2V5*%
X159000000Y-6300001D03*
%TO.P,U3,3,GND_3*%
%TO.N,GND*%
X159950000Y-8175001D03*
%TD*%
D26*
%TO.P,FB2,1*%
%TO.N,V-*%
X96800000Y-37075000D03*
%TO.P,FB2,2*%
%TO.N,Net-(C3-Pad1)*%
X96800000Y-33925000D03*
%TD*%
D13*
%TO.P,C3,1*%
%TO.N,Net-(C3-Pad1)*%
X146600000Y-86525001D03*
%TO.P,C3,2*%
%TO.N,GND*%
X146600000Y-89475001D03*
%TD*%
D14*
%TO.P,C6,1*%
%TO.N,GND*%
X134650000Y-6900001D03*
%TO.P,C6,2*%
%TO.N,+5V*%
X137600000Y-6900001D03*
%TD*%
D27*
%TO.P,C5,1*%
%TO.N,GND*%
X86000000Y-98400001D03*
%TO.P,C5,2*%
%TO.N,Net-(U1C-V-)*%
X86000000Y-90000001D03*
%TD*%
D28*
%TO.P,C4,1*%
%TO.N,Net-(U1C-V+)*%
X112500000Y-37700000D03*
%TO.P,C4,2*%
%TO.N,GND*%
X112500000Y-46100000D03*
%TD*%
D22*
%TO.P,C1,1*%
%TO.N,Net-(U1A--)*%
X145000000Y-72600001D03*
%TO.P,C1,2*%
%TO.N,Net-(C1-Pad2)*%
X145000000Y-70100001D03*
%TD*%
D19*
%TO.P,R9,1*%
%TO.N,Net-(J2-Pin_1)*%
X111350000Y-71060001D03*
%TO.P,R9,2*%
%TO.N,/Output*%
X108250000Y-71060001D03*
%TD*%
D15*
%TO.P,R11,1*%
%TO.N,Net-(C2-Pad2)*%
X101850000Y-84200001D03*
%TO.P,R11,2*%
%TO.N,Net-(U1C-V+)*%
X104950000Y-84200001D03*
%TD*%
D29*
%TO.P,J3,1,Pin_1_1*%
%TO.N,V+*%
X154035540Y-40970001D03*
%TO.P,J3,2,Pin_2_2*%
%TO.N,GND*%
X151535540Y-40970001D03*
%TO.P,J3,3,Pin_3_3*%
%TO.N,V-*%
X149035540Y-40970001D03*
D30*
%TO.P,J3,MP*%
%TO.N,N/C*%
X157835540Y-44130001D03*
X145235540Y-44130001D03*
%TD*%
D26*
%TO.P,FB1,1*%
%TO.N,V+*%
X154000000Y-89575001D03*
%TO.P,FB1,2*%
%TO.N,Net-(C2-Pad2)*%
X154000000Y-86425001D03*
%TD*%
D15*
%TO.P,R11,1*%
%TO.N,Net-(C2-Pad2)*%
X153850000Y-31700001D03*
%TO.P,R11,2*%
%TO.N,Net-(U1C-V+)*%
X156950000Y-31700001D03*
%TD*%
D23*
%TO.P,U4,1,OUT_1*%
%TO.N,+5V*%
X137575000Y-9400001D03*
D24*
%TO.P,U4,2,GND_2*%
%TO.N,GND*%
X137662500Y-10900001D03*
D23*
%TO.P,U4,3,IN_3*%
%TO.N,V+*%
X137575000Y-12400001D03*
%TD*%
D15*
%TO.P,R2,1*%
%TO.N,Net-(C1-Pad2)*%
X108250000Y-74260001D03*
%TO.P,R2,2*%
%TO.N,Net-(J2-Pin_2)*%
X111350000Y-74260001D03*
%TD*%
D14*
%TO.P,C7,1*%
%TO.N,GND*%
X82250000Y-14900000D03*
%TO.P,C7,2*%
%TO.N,V+*%
X85200000Y-14900000D03*
%TD*%
D13*
%TO.P,C3,1*%
%TO.N,Net-(C3-Pad1)*%
X94200000Y-34025000D03*
%TO.P,C3,2*%
%TO.N,GND*%
X94200000Y-36975000D03*
%TD*%
D22*
%TO.P,C1,1*%
%TO.N,Net-(U1A--)*%
X93000000Y-72600001D03*
%TO.P,C1,2*%
%TO.N,Net-(C1-Pad2)*%
X93000000Y-70100001D03*
%TD*%
D26*
%TO.P,FB2,1*%
%TO.N,V-*%
X149200000Y-37075001D03*
%TO.P,FB2,2*%
%TO.N,Net-(C3-Pad1)*%
X149200000Y-33925001D03*
%TD*%
D15*
%TO.P,R11,1*%
%TO.N,Net-(C2-Pad2)*%
X153850000Y-84200001D03*
%TO.P,R11,2*%
%TO.N,Net-(U1C-V+)*%
X156950000Y-84200001D03*
%TD*%
D31*
%TO.P,C2,1*%
%TO.N,GND*%
X105000000Y-89550001D03*
%TO.P,C2,2*%
%TO.N,Net-(C2-Pad2)*%
X105000000Y-86600001D03*
%TD*%
D19*
%TO.P,R12,1*%
%TO.N,Net-(C3-Pad1)*%
X96950000Y-31700000D03*
%TO.P,R12,2*%
%TO.N,Net-(U1C-V-)*%
X93850000Y-31700000D03*
%TD*%
D22*
%TO.P,R1,1*%
%TO.N,Net-(U1A--)*%
X141832000Y-20090001D03*
%TO.P,R1,2*%
%TO.N,Net-(C1-Pad2)*%
X141832000Y-17550001D03*
%TD*%
D26*
%TO.P,FB2,1*%
%TO.N,V-*%
X97200000Y-89575001D03*
%TO.P,FB2,2*%
%TO.N,Net-(C3-Pad1)*%
X97200000Y-86425001D03*
%TD*%
D15*
%TO.P,R2,1*%
%TO.N,Net-(C1-Pad2)*%
X160250000Y-74260001D03*
%TO.P,R2,2*%
%TO.N,Net-(J2-Pin_2)*%
X163350000Y-74260001D03*
%TD*%
D31*
%TO.P,C2,1*%
%TO.N,GND*%
X157000000Y-89550001D03*
%TO.P,C2,2*%
%TO.N,Net-(C2-Pad2)*%
X157000000Y-86600001D03*
%TD*%
D14*
%TO.P,C6,1*%
%TO.N,GND*%
X82250000Y-6900000D03*
%TO.P,C6,2*%
%TO.N,+5V*%
X85200000Y-6900000D03*
%TD*%
D28*
%TO.P,C4,1*%
%TO.N,Net-(U1C-V+)*%
X164900000Y-90200001D03*
%TO.P,C4,2*%
%TO.N,GND*%
X164900000Y-98600001D03*
%TD*%
D22*
%TO.P,R1,1*%
%TO.N,Net-(U1A--)*%
X141832000Y-72590001D03*
%TO.P,R1,2*%
%TO.N,Net-(C1-Pad2)*%
X141832000Y-70050001D03*
%TD*%
D16*
%TO.P,J2,1,Pin_1_1*%
%TO.N,Net-(J2-Pin_1)*%
X115400000Y-71320001D03*
D17*
%TO.P,J2,2,Pin_2_2*%
%TO.N,Net-(J2-Pin_2)*%
X115400000Y-73860001D03*
%TO.P,J2,3,Pin_3_3*%
%TO.N,Net-(J2-Pin_3)*%
X115400000Y-76400001D03*
%TD*%
D26*
%TO.P,FB2,1*%
%TO.N,V-*%
X149200000Y-89575001D03*
%TO.P,FB2,2*%
%TO.N,Net-(C3-Pad1)*%
X149200000Y-86425001D03*
%TD*%
D15*
%TO.P,R2,1*%
%TO.N,Net-(C1-Pad2)*%
X160250000Y-21760001D03*
%TO.P,R2,2*%
%TO.N,Net-(J2-Pin_2)*%
X163350000Y-21760001D03*
%TD*%
D19*
%TO.P,R10,1*%
%TO.N,Net-(J2-Pin_3)*%
X111350000Y-77660001D03*
%TO.P,R10,2*%
%TO.N,/Output*%
X108250000Y-77660001D03*
%TD*%
D27*
%TO.P,C5,1*%
%TO.N,GND*%
X85600000Y-45900000D03*
%TO.P,C5,2*%
%TO.N,Net-(U1C-V-)*%
X85600000Y-37500000D03*
%TD*%
D19*
%TO.P,R12,1*%
%TO.N,Net-(C3-Pad1)*%
X97350000Y-84200001D03*
%TO.P,R12,2*%
%TO.N,Net-(U1C-V-)*%
X94250000Y-84200001D03*
%TD*%
D23*
%TO.P,U4,1,OUT_1*%
%TO.N,+5V*%
X137575000Y-61900001D03*
D24*
%TO.P,U4,2,GND_2*%
%TO.N,GND*%
X137662500Y-63400001D03*
D23*
%TO.P,U4,3,IN_3*%
%TO.N,V+*%
X137575000Y-64900001D03*
%TD*%
D18*
%TO.P,U2,1,ADDR_1*%
%TO.N,GND*%
X150548040Y-12100001D03*
%TO.P,U2,2,ALERT/RDY_2*%
%TO.N,unconnected-(U2-ALERT{slash}RDY-Pad2)*%
X151048040Y-12100001D03*
%TO.P,U2,3,GND_3*%
%TO.N,GND*%
X151548040Y-12100001D03*
%TO.P,U2,4,AIN0_4*%
%TO.N,Net-(U2-AIN0)*%
X152048040Y-12100001D03*
%TO.P,U2,5,AIN1_5*%
%TO.N,unconnected-(U2-AIN1-Pad5)*%
X152548040Y-12100001D03*
%TO.P,U2,6,AIN2_6*%
%TO.N,unconnected-(U2-AIN2-Pad6)*%
X152548040Y-7800001D03*
%TO.P,U2,7,AIN3_7*%
%TO.N,unconnected-(U2-AIN3-Pad7)*%
X152048040Y-7800001D03*
%TO.P,U2,8,VDD_8*%
%TO.N,+3.3V*%
X151548040Y-7800001D03*
%TO.P,U2,9,SDA_9*%
%TO.N,/Blue*%
X151048040Y-7800001D03*
%TO.P,U2,10,SCL_10*%
%TO.N,/Yellow*%
X150548040Y-7800001D03*
%TD*%
%TO.P,U2,1,ADDR_1*%
%TO.N,GND*%
X98148040Y-12100000D03*
%TO.P,U2,2,ALERT/RDY_2*%
%TO.N,unconnected-(U2-ALERT{slash}RDY-Pad2)*%
X98648040Y-12100000D03*
%TO.P,U2,3,GND_3*%
%TO.N,GND*%
X99148040Y-12100000D03*
%TO.P,U2,4,AIN0_4*%
%TO.N,Net-(U2-AIN0)*%
X99648040Y-12100000D03*
%TO.P,U2,5,AIN1_5*%
%TO.N,unconnected-(U2-AIN1-Pad5)*%
X100148040Y-12100000D03*
%TO.P,U2,6,AIN2_6*%
%TO.N,unconnected-(U2-AIN2-Pad6)*%
X100148040Y-7800000D03*
%TO.P,U2,7,AIN3_7*%
%TO.N,unconnected-(U2-AIN3-Pad7)*%
X99648040Y-7800000D03*
%TO.P,U2,8,VDD_8*%
%TO.N,+3.3V*%
X99148040Y-7800000D03*
%TO.P,U2,9,SDA_9*%
%TO.N,/Blue*%
X98648040Y-7800000D03*
%TO.P,U2,10,SCL_10*%
%TO.N,/Yellow*%
X98148040Y-7800000D03*
%TD*%
D26*
%TO.P,FB1,1*%
%TO.N,V+*%
X154000000Y-37075001D03*
%TO.P,FB1,2*%
%TO.N,Net-(C2-Pad2)*%
X154000000Y-33925001D03*
%TD*%
D18*
%TO.P,U2,1,ADDR_1*%
%TO.N,GND*%
X150548040Y-64600001D03*
%TO.P,U2,2,ALERT/RDY_2*%
%TO.N,unconnected-(U2-ALERT{slash}RDY-Pad2)*%
X151048040Y-64600001D03*
%TO.P,U2,3,GND_3*%
%TO.N,GND*%
X151548040Y-64600001D03*
%TO.P,U2,4,AIN0_4*%
%TO.N,Net-(U2-AIN0)*%
X152048040Y-64600001D03*
%TO.P,U2,5,AIN1_5*%
%TO.N,unconnected-(U2-AIN1-Pad5)*%
X152548040Y-64600001D03*
%TO.P,U2,6,AIN2_6*%
%TO.N,unconnected-(U2-AIN2-Pad6)*%
X152548040Y-60300001D03*
%TO.P,U2,7,AIN3_7*%
%TO.N,unconnected-(U2-AIN3-Pad7)*%
X152048040Y-60300001D03*
%TO.P,U2,8,VDD_8*%
%TO.N,+3.3V*%
X151548040Y-60300001D03*
%TO.P,U2,9,SDA_9*%
%TO.N,/Blue*%
X151048040Y-60300001D03*
%TO.P,U2,10,SCL_10*%
%TO.N,/Yellow*%
X150548040Y-60300001D03*
%TD*%
D12*
%TO.P,U5,1,REF_1_1*%
%TO.N,GND*%
X107025000Y-67350001D03*
%TO.P,U5,2,-IN_2*%
X107675000Y-67350001D03*
%TO.P,U5,3,+IN_3*%
%TO.N,/Output*%
X108325000Y-67350001D03*
%TO.P,U5,4,V-_4*%
%TO.N,GND*%
X108975000Y-67350001D03*
%TO.P,U5,5,SENSE_5*%
%TO.N,Net-(U2-AIN0)*%
X108975000Y-63050001D03*
%TO.P,U5,6,OUT_6*%
X108325000Y-63050001D03*
%TO.P,U5,7,V+_7*%
%TO.N,+5V*%
X107675000Y-63050001D03*
%TO.P,U5,8,REF_2_8*%
%TO.N,+2V5*%
X107025000Y-63050001D03*
%TD*%
D19*
%TO.P,R9,1*%
%TO.N,Net-(J2-Pin_1)*%
X110950000Y-18560000D03*
%TO.P,R9,2*%
%TO.N,/Output*%
X107850000Y-18560000D03*
%TD*%
%TO.P,R9,1*%
%TO.N,Net-(J2-Pin_1)*%
X163350000Y-18560001D03*
%TO.P,R9,2*%
%TO.N,/Output*%
X160250000Y-18560001D03*
%TD*%
D14*
%TO.P,C7,1*%
%TO.N,GND*%
X82650000Y-67400001D03*
%TO.P,C7,2*%
%TO.N,V+*%
X85600000Y-67400001D03*
%TD*%
D32*
%TO.P,J4,1,1_1*%
%TO.N,GND*%
X153035540Y-56600001D03*
%TO.P,J4,2,2_2*%
%TO.N,+3.3V*%
X152035540Y-56600001D03*
%TO.P,J4,3,3_3*%
%TO.N,/Blue*%
X151035540Y-56600001D03*
%TO.P,J4,4,4_4*%
%TO.N,/Yellow*%
X150035540Y-56600001D03*
D33*
%TO.P,J4,MP*%
%TO.N,N/C*%
X154335540Y-52725001D03*
X148735540Y-52725001D03*
%TD*%
D29*
%TO.P,J3,1,Pin_1_1*%
%TO.N,V+*%
X154035540Y-93470001D03*
%TO.P,J3,2,Pin_2_2*%
%TO.N,GND*%
X151535540Y-93470001D03*
%TO.P,J3,3,Pin_3_3*%
%TO.N,V-*%
X149035540Y-93470001D03*
D30*
%TO.P,J3,MP*%
%TO.N,N/C*%
X157835540Y-96630001D03*
X145235540Y-96630001D03*
%TD*%
D15*
%TO.P,R2,1*%
%TO.N,Net-(C1-Pad2)*%
X107850000Y-21760000D03*
%TO.P,R2,2*%
%TO.N,Net-(J2-Pin_2)*%
X110950000Y-21760000D03*
%TD*%
D14*
%TO.P,C7,1*%
%TO.N,GND*%
X134650000Y-14900001D03*
%TO.P,C7,2*%
%TO.N,V+*%
X137600000Y-14900001D03*
%TD*%
D27*
%TO.P,C5,1*%
%TO.N,GND*%
X138000000Y-98400001D03*
%TO.P,C5,2*%
%TO.N,Net-(U1C-V-)*%
X138000000Y-90000001D03*
%TD*%
D32*
%TO.P,J4,1,1_1*%
%TO.N,GND*%
X101035540Y-56600001D03*
%TO.P,J4,2,2_2*%
%TO.N,+3.3V*%
X100035540Y-56600001D03*
%TO.P,J4,3,3_3*%
%TO.N,/Blue*%
X99035540Y-56600001D03*
%TO.P,J4,4,4_4*%
%TO.N,/Yellow*%
X98035540Y-56600001D03*
D33*
%TO.P,J4,MP*%
%TO.N,N/C*%
X102335540Y-52725001D03*
X96735540Y-52725001D03*
%TD*%
D28*
%TO.P,C4,1*%
%TO.N,Net-(U1C-V+)*%
X112900000Y-90200001D03*
%TO.P,C4,2*%
%TO.N,GND*%
X112900000Y-98600001D03*
%TD*%
D19*
%TO.P,R9,1*%
%TO.N,Net-(J2-Pin_1)*%
X163350000Y-71060001D03*
%TO.P,R9,2*%
%TO.N,/Output*%
X160250000Y-71060001D03*
%TD*%
%TO.P,R12,1*%
%TO.N,Net-(C3-Pad1)*%
X149350000Y-31700001D03*
%TO.P,R12,2*%
%TO.N,Net-(U1C-V-)*%
X146250000Y-31700001D03*
%TD*%
%TO.P,R10,1*%
%TO.N,Net-(J2-Pin_3)*%
X110950000Y-25160000D03*
%TO.P,R10,2*%
%TO.N,/Output*%
X107850000Y-25160000D03*
%TD*%
D25*
%TO.P,U3,1,IN_1*%
%TO.N,+5V*%
X108500000Y-6300000D03*
%TO.P,U3,2,OUT_2*%
%TO.N,+2V5*%
X106600000Y-6300000D03*
%TO.P,U3,3,GND_3*%
%TO.N,GND*%
X107550000Y-8175000D03*
%TD*%
D19*
%TO.P,R10,1*%
%TO.N,Net-(J2-Pin_3)*%
X163350000Y-25160001D03*
%TO.P,R10,2*%
%TO.N,/Output*%
X160250000Y-25160001D03*
%TD*%
D26*
%TO.P,FB1,1*%
%TO.N,V+*%
X102000000Y-89575001D03*
%TO.P,FB1,2*%
%TO.N,Net-(C2-Pad2)*%
X102000000Y-86425001D03*
%TD*%
D14*
%TO.P,C7,1*%
%TO.N,GND*%
X134650000Y-67400001D03*
%TO.P,C7,2*%
%TO.N,V+*%
X137600000Y-67400001D03*
%TD*%
D29*
%TO.P,J3,1,Pin_1_1*%
%TO.N,V+*%
X102035540Y-93470001D03*
%TO.P,J3,2,Pin_2_2*%
%TO.N,GND*%
X99535540Y-93470001D03*
%TO.P,J3,3,Pin_3_3*%
%TO.N,V-*%
X97035540Y-93470001D03*
D30*
%TO.P,J3,MP*%
%TO.N,N/C*%
X105835540Y-96630001D03*
X93235540Y-96630001D03*
%TD*%
D31*
%TO.P,C2,1*%
%TO.N,GND*%
X104600000Y-37050000D03*
%TO.P,C2,2*%
%TO.N,Net-(C2-Pad2)*%
X104600000Y-34100000D03*
%TD*%
D25*
%TO.P,U3,1,IN_1*%
%TO.N,+5V*%
X108900000Y-58800001D03*
%TO.P,U3,2,OUT_2*%
%TO.N,+2V5*%
X107000000Y-58800001D03*
%TO.P,U3,3,GND_3*%
%TO.N,GND*%
X107950000Y-60675001D03*
%TD*%
D13*
%TO.P,C3,1*%
%TO.N,Net-(C3-Pad1)*%
X94600000Y-86525001D03*
%TO.P,C3,2*%
%TO.N,GND*%
X94600000Y-89475001D03*
%TD*%
D14*
%TO.P,C6,1*%
%TO.N,GND*%
X82650000Y-59400001D03*
%TO.P,C6,2*%
%TO.N,+5V*%
X85600000Y-59400001D03*
%TD*%
D32*
%TO.P,J4,1,1_1*%
%TO.N,GND*%
X153035540Y-4100001D03*
%TO.P,J4,2,2_2*%
%TO.N,+3.3V*%
X152035540Y-4100001D03*
%TO.P,J4,3,3_3*%
%TO.N,/Blue*%
X151035540Y-4100001D03*
%TO.P,J4,4,4_4*%
%TO.N,/Yellow*%
X150035540Y-4100001D03*
D33*
%TO.P,J4,MP*%
%TO.N,N/C*%
X154335540Y-225001D03*
X148735540Y-225001D03*
%TD*%
D16*
%TO.P,J2,1,Pin_1_1*%
%TO.N,Net-(J2-Pin_1)*%
X167400000Y-18820001D03*
D17*
%TO.P,J2,2,Pin_2_2*%
%TO.N,Net-(J2-Pin_2)*%
X167400000Y-21360001D03*
%TO.P,J2,3,Pin_3_3*%
%TO.N,Net-(J2-Pin_3)*%
X167400000Y-23900001D03*
%TD*%
D27*
%TO.P,C5,1*%
%TO.N,GND*%
X138000000Y-45900001D03*
%TO.P,C5,2*%
%TO.N,Net-(U1C-V-)*%
X138000000Y-37500001D03*
%TD*%
D20*
%TO.P,U1,1*%
%TO.N,Net-(C1-Pad2)*%
X95730540Y-70260001D03*
D21*
%TO.P,U1,2,-_2*%
%TO.N,Net-(U1A--)*%
X95730540Y-72800001D03*
%TO.P,U1,3,+_3*%
%TO.N,GND*%
X95730540Y-75340001D03*
%TO.P,U1,4,V-_4*%
%TO.N,Net-(U1C-V-)*%
X95730540Y-77880001D03*
%TO.P,U1,5,+_5*%
%TO.N,GND*%
X103350540Y-77880001D03*
%TO.P,U1,6,-_6*%
%TO.N,Net-(J2-Pin_2)*%
X103350540Y-75340001D03*
%TO.P,U1,7*%
%TO.N,/Output*%
X103350540Y-72800001D03*
%TO.P,U1,8,V+_8*%
%TO.N,Net-(U1C-V+)*%
X103350540Y-70260001D03*
%TD*%
D22*
%TO.P,R1,1*%
%TO.N,Net-(U1A--)*%
X89432000Y-20090000D03*
%TO.P,R1,2*%
%TO.N,Net-(C1-Pad2)*%
X89432000Y-17550000D03*
%TD*%
%TO.P,C1,1*%
%TO.N,Net-(U1A--)*%
X145000000Y-20100001D03*
%TO.P,C1,2*%
%TO.N,Net-(C1-Pad2)*%
X145000000Y-17600001D03*
%TD*%
D20*
%TO.P,U1,1*%
%TO.N,Net-(C1-Pad2)*%
X147730540Y-17760001D03*
D21*
%TO.P,U1,2,-_2*%
%TO.N,Net-(U1A--)*%
X147730540Y-20300001D03*
%TO.P,U1,3,+_3*%
%TO.N,GND*%
X147730540Y-22840001D03*
%TO.P,U1,4,V-_4*%
%TO.N,Net-(U1C-V-)*%
X147730540Y-25380001D03*
%TO.P,U1,5,+_5*%
%TO.N,GND*%
X155350540Y-25380001D03*
%TO.P,U1,6,-_6*%
%TO.N,Net-(J2-Pin_2)*%
X155350540Y-22840001D03*
%TO.P,U1,7*%
%TO.N,/Output*%
X155350540Y-20300001D03*
%TO.P,U1,8,V+_8*%
%TO.N,Net-(U1C-V+)*%
X155350540Y-17760001D03*
%TD*%
D26*
%TO.P,FB1,1*%
%TO.N,V+*%
X101600000Y-37075000D03*
%TO.P,FB1,2*%
%TO.N,Net-(C2-Pad2)*%
X101600000Y-33925000D03*
%TD*%
D23*
%TO.P,U4,1,OUT_1*%
%TO.N,+5V*%
X85575000Y-61900001D03*
D24*
%TO.P,U4,2,GND_2*%
%TO.N,GND*%
X85662500Y-63400001D03*
D23*
%TO.P,U4,3,IN_3*%
%TO.N,V+*%
X85575000Y-64900001D03*
%TD*%
D12*
%TO.P,U5,1,REF_1_1*%
%TO.N,GND*%
X159025000Y-14850001D03*
%TO.P,U5,2,-IN_2*%
X159675000Y-14850001D03*
%TO.P,U5,3,+IN_3*%
%TO.N,/Output*%
X160325000Y-14850001D03*
%TO.P,U5,4,V-_4*%
%TO.N,GND*%
X160975000Y-14850001D03*
%TO.P,U5,5,SENSE_5*%
%TO.N,Net-(U2-AIN0)*%
X160975000Y-10550001D03*
%TO.P,U5,6,OUT_6*%
X160325000Y-10550001D03*
%TO.P,U5,7,V+_7*%
%TO.N,+5V*%
X159675000Y-10550001D03*
%TO.P,U5,8,REF_2_8*%
%TO.N,+2V5*%
X159025000Y-10550001D03*
%TD*%
%TO.P,U5,1,REF_1_1*%
%TO.N,GND*%
X159025000Y-67350001D03*
%TO.P,U5,2,-IN_2*%
X159675000Y-67350001D03*
%TO.P,U5,3,+IN_3*%
%TO.N,/Output*%
X160325000Y-67350001D03*
%TO.P,U5,4,V-_4*%
%TO.N,GND*%
X160975000Y-67350001D03*
%TO.P,U5,5,SENSE_5*%
%TO.N,Net-(U2-AIN0)*%
X160975000Y-63050001D03*
%TO.P,U5,6,OUT_6*%
X160325000Y-63050001D03*
%TO.P,U5,7,V+_7*%
%TO.N,+5V*%
X159675000Y-63050001D03*
%TO.P,U5,8,REF_2_8*%
%TO.N,+2V5*%
X159025000Y-63050001D03*
%TD*%
D32*
%TO.P,J4,1,1_1*%
%TO.N,GND*%
X100635540Y-4100000D03*
%TO.P,J4,2,2_2*%
%TO.N,+3.3V*%
X99635540Y-4100000D03*
%TO.P,J4,3,3_3*%
%TO.N,/Blue*%
X98635540Y-4100000D03*
%TO.P,J4,4,4_4*%
%TO.N,/Yellow*%
X97635540Y-4100000D03*
D33*
%TO.P,J4,MP*%
%TO.N,N/C*%
X101935540Y-225000D03*
X96335540Y-225000D03*
%TD*%
D28*
%TO.P,C4,1*%
%TO.N,Net-(U1C-V+)*%
X164900000Y-37700001D03*
%TO.P,C4,2*%
%TO.N,GND*%
X164900000Y-46100001D03*
%TD*%
D25*
%TO.P,U3,1,IN_1*%
%TO.N,+5V*%
X160900000Y-58800001D03*
%TO.P,U3,2,OUT_2*%
%TO.N,+2V5*%
X159000000Y-58800001D03*
%TO.P,U3,3,GND_3*%
%TO.N,GND*%
X159950000Y-60675001D03*
%TD*%
D16*
%TO.P,J2,1,Pin_1_1*%
%TO.N,Net-(J2-Pin_1)*%
X115000000Y-18820000D03*
D17*
%TO.P,J2,2,Pin_2_2*%
%TO.N,Net-(J2-Pin_2)*%
X115000000Y-21360000D03*
%TO.P,J2,3,Pin_3_3*%
%TO.N,Net-(J2-Pin_3)*%
X115000000Y-23900000D03*
%TD*%
D20*
%TO.P,U1,1*%
%TO.N,Net-(C1-Pad2)*%
X95330540Y-17760000D03*
D21*
%TO.P,U1,2,-_2*%
%TO.N,Net-(U1A--)*%
X95330540Y-20300000D03*
%TO.P,U1,3,+_3*%
%TO.N,GND*%
X95330540Y-22840000D03*
%TO.P,U1,4,V-_4*%
%TO.N,Net-(U1C-V-)*%
X95330540Y-25380000D03*
%TO.P,U1,5,+_5*%
%TO.N,GND*%
X102950540Y-25380000D03*
%TO.P,U1,6,-_6*%
%TO.N,Net-(J2-Pin_2)*%
X102950540Y-22840000D03*
%TO.P,U1,7*%
%TO.N,/Output*%
X102950540Y-20300000D03*
%TO.P,U1,8,V+_8*%
%TO.N,Net-(U1C-V+)*%
X102950540Y-17760000D03*
%TD*%
D31*
%TO.P,C2,1*%
%TO.N,GND*%
X157000000Y-37050001D03*
%TO.P,C2,2*%
%TO.N,Net-(C2-Pad2)*%
X157000000Y-34100001D03*
%TD*%
D22*
%TO.P,R1,1*%
%TO.N,Net-(U1A--)*%
X89832000Y-72590001D03*
%TO.P,R1,2*%
%TO.N,Net-(C1-Pad2)*%
X89832000Y-70050001D03*
%TD*%
D29*
%TO.P,J3,1,Pin_1_1*%
%TO.N,V+*%
X101635540Y-40970000D03*
%TO.P,J3,2,Pin_2_2*%
%TO.N,GND*%
X99135540Y-40970000D03*
%TO.P,J3,3,Pin_3_3*%
%TO.N,V-*%
X96635540Y-40970000D03*
D30*
%TO.P,J3,MP*%
%TO.N,N/C*%
X105435540Y-44130000D03*
X92835540Y-44130000D03*
%TD*%
D34*
%TO.P,J2,1,Pin_1_1*%
%TO.N,GND*%
X150000000Y-142040000D03*
D22*
%TO.P,J2,2,Pin_2_2*%
%TO.N,/Input*%
X150000000Y-139500000D03*
%TD*%
D35*
%TO.P,R1,1*%
%TO.N,/Input*%
X141075000Y-139000000D03*
%TO.P,R1,2*%
%TO.N,Net-(R1-Pad2)*%
X144000000Y-139000000D03*
%TD*%
D36*
%TO.P,J1,1,Pin_1_1*%
%TO.N,+12V*%
X132500000Y-136920000D03*
D22*
%TO.P,J1,2,Pin_2_2*%
%TO.N,/Input*%
X132500000Y-139460000D03*
%TO.P,J1,3,Pin_3_3*%
%TO.N,GND*%
X132500000Y-142000000D03*
%TD*%
D37*
%TO.P,R2,1*%
%TO.N,Net-(R1-Pad2)*%
X144000000Y-142310000D03*
%TO.P,R2,2*%
%TO.N,GND*%
X141075000Y-142310000D03*
%TD*%
D34*
%TO.P,J2,1,Pin_1_1*%
%TO.N,GND*%
X149739937Y-118040000D03*
D22*
%TO.P,J2,2,Pin_2_2*%
%TO.N,/Input*%
X149739937Y-115500000D03*
%TD*%
D35*
%TO.P,R1,1*%
%TO.N,/Input*%
X140814937Y-115000000D03*
%TO.P,R1,2*%
%TO.N,Net-(R1-Pad2)*%
X143739937Y-115000000D03*
%TD*%
D36*
%TO.P,J1,1,Pin_1_1*%
%TO.N,+12V*%
X132239937Y-112920000D03*
D22*
%TO.P,J1,2,Pin_2_2*%
%TO.N,/Input*%
X132239937Y-115460000D03*
%TO.P,J1,3,Pin_3_3*%
%TO.N,GND*%
X132239937Y-118000000D03*
%TD*%
D37*
%TO.P,R2,1*%
%TO.N,Net-(R1-Pad2)*%
X143739937Y-118310000D03*
%TO.P,R2,2*%
%TO.N,GND*%
X140814937Y-118310000D03*
%TD*%
D34*
%TO.P,J2,1,Pin_1_1*%
%TO.N,GND*%
X104000000Y-142540000D03*
D22*
%TO.P,J2,2,Pin_2_2*%
%TO.N,/Input*%
X104000000Y-140000000D03*
%TD*%
D35*
%TO.P,R1,1*%
%TO.N,/Input*%
X95075000Y-139500000D03*
%TO.P,R1,2*%
%TO.N,Net-(R1-Pad2)*%
X98000000Y-139500000D03*
%TD*%
D36*
%TO.P,J1,1,Pin_1_1*%
%TO.N,+12V*%
X86500000Y-137420000D03*
D22*
%TO.P,J1,2,Pin_2_2*%
%TO.N,/Input*%
X86500000Y-139960000D03*
%TO.P,J1,3,Pin_3_3*%
%TO.N,GND*%
X86500000Y-142500000D03*
%TD*%
D37*
%TO.P,R2,1*%
%TO.N,Net-(R1-Pad2)*%
X98000000Y-142810000D03*
%TO.P,R2,2*%
%TO.N,GND*%
X95075000Y-142810000D03*
%TD*%
%TO.P,R2,1*%
%TO.N,Net-(R1-Pad2)*%
X98000000Y-118310000D03*
%TO.P,R2,2*%
%TO.N,GND*%
X95075000Y-118310000D03*
%TD*%
D36*
%TO.P,J1,1,Pin_1_1*%
%TO.N,+12V*%
X86500000Y-112920000D03*
D22*
%TO.P,J1,2,Pin_2_2*%
%TO.N,/Input*%
X86500000Y-115460000D03*
%TO.P,J1,3,Pin_3_3*%
%TO.N,GND*%
X86500000Y-118000000D03*
%TD*%
D35*
%TO.P,R1,1*%
%TO.N,/Input*%
X95075000Y-115000000D03*
%TO.P,R1,2*%
%TO.N,Net-(R1-Pad2)*%
X98000000Y-115000000D03*
%TD*%
D34*
%TO.P,J2,1,Pin_1_1*%
%TO.N,GND*%
X104000000Y-118040000D03*
D22*
%TO.P,J2,2,Pin_2_2*%
%TO.N,/Input*%
X104000000Y-115500000D03*
%TD*%
%TO.N,/Yellow*%
D38*
X150035540Y-59787501D02*
X150035540Y-56600001D01*
%TO.N,Net-(J2-Pin_1)*%
X111210000Y-18820000D02*
X110950000Y-18560000D01*
%TO.N,Net-(C1-Pad2)*%
X160250000Y-74260001D02*
X160250000Y-73533115D01*
%TO.N,Net-(U1C-V+)*%
X164900000Y-89700001D02*
X159400000Y-84200001D01*
%TO.N,/Output*%
X107850000Y-25160000D02*
X109950000Y-23060000D01*
%TO.N,GND*%
D39*
X99500000Y-93470001D02*
X99500000Y-99700001D01*
D38*
X98548040Y-64600001D02*
X98548040Y-65428121D01*
%TO.N,/Output*%
X107850000Y-18560000D02*
X107850000Y-14925000D01*
%TO.N,GND*%
X100469920Y-67350001D02*
X107025000Y-67350001D01*
%TO.N,Net-(U2-AIN0)*%
X160325000Y-10550001D02*
X160225000Y-10650001D01*
%TO.N,Net-(J2-Pin_2)*%
X116600000Y-75060001D02*
X116600000Y-76897058D01*
%TO.N,GND*%
D39*
X136920000Y-10900001D02*
X134650000Y-13170001D01*
%TO.N,Net-(U1C-V+)*%
D38*
X112900000Y-89700001D02*
X107400000Y-84200001D01*
%TO.N,/Output*%
X162350000Y-20660001D02*
X160250000Y-18560001D01*
%TO.N,Net-(J2-Pin_3)*%
X167400000Y-76400001D02*
X164610000Y-76400001D01*
%TO.N,V+*%
D40*
X139100000Y-76600001D02*
X137600000Y-75100001D01*
X95712241Y-24100000D02*
X86700000Y-24100000D01*
%TO.N,/Output*%
D38*
X103350540Y-72800001D02*
X108210540Y-77660001D01*
%TO.N,+2V5*%
X159025000Y-10550001D02*
X159025000Y-6325001D01*
%TO.N,GND*%
D39*
X138000000Y-46300001D02*
X139400000Y-47700001D01*
%TO.N,+3.3V*%
D38*
X99148040Y-5073762D02*
X99635540Y-4586262D01*
%TO.N,Net-(U2-AIN0)*%
X107925000Y-10550000D02*
X107825000Y-10650000D01*
%TO.N,GND*%
D39*
X85600000Y-98400001D02*
X86000000Y-98400001D01*
%TO.N,V-*%
D40*
X149000000Y-89775001D02*
X149200000Y-89575001D01*
%TO.N,Net-(J2-Pin_2)*%
D38*
X111350000Y-21360000D02*
X110950000Y-21760000D01*
X111750000Y-73860001D02*
X111350000Y-74260001D01*
%TO.N,+5V*%
X159675000Y-9898763D02*
X160900000Y-8673763D01*
%TO.N,Net-(J2-Pin_3)*%
X167400000Y-23900001D02*
X164610000Y-23900001D01*
%TO.N,GND*%
D39*
X87400000Y-100200001D02*
X99200000Y-100200001D01*
X99500000Y-93470001D02*
X99500000Y-99900001D01*
X84520000Y-10900000D02*
X82250000Y-13170000D01*
X99500000Y-99900001D02*
X99200000Y-100200001D01*
D38*
X150548040Y-12928121D02*
X152469920Y-14850001D01*
%TO.N,Net-(J2-Pin_1)*%
X167400000Y-71320001D02*
X163610000Y-71320001D01*
%TO.N,GND*%
X99200000Y-63525001D02*
X99301160Y-63525001D01*
%TO.N,+3.3V*%
X152035540Y-4586263D02*
X152035540Y-4100001D01*
%TO.N,GND*%
X115000000Y-97000001D02*
X113400000Y-98600001D01*
%TO.N,Net-(J2-Pin_2)*%
X163750000Y-73860001D02*
X163350000Y-74260001D01*
%TO.N,Net-(U2-AIN0)*%
X152171080Y-13175001D02*
X152048040Y-13051961D01*
%TO.N,GND*%
X113000000Y-46100000D02*
X112500000Y-46100000D01*
%TO.N,Net-(U2-AIN0)*%
X152171080Y-65675001D02*
X152048040Y-65551961D01*
%TO.N,Net-(U1C-V+)*%
X154200540Y-28950541D02*
X156950000Y-31700001D01*
%TO.N,GND*%
X104485456Y-25380000D02*
X114600000Y-35494544D01*
D39*
X89612500Y-67350001D02*
X100469920Y-67350001D01*
%TO.N,+3.3V*%
D38*
X100035540Y-57086263D02*
X100035540Y-56600001D01*
X99548040Y-60300001D02*
X99548040Y-57573763D01*
%TO.N,GND*%
D39*
X151500000Y-93470001D02*
X151500000Y-99700001D01*
D38*
X98148040Y-12928120D02*
X100069920Y-14850000D01*
%TO.N,Net-(U2-AIN0)*%
X160225000Y-63150001D02*
X160225000Y-64575001D01*
%TO.N,Net-(C3-Pad1)*%
X96800000Y-33925000D02*
X94300000Y-33925000D01*
%TO.N,Net-(C1-Pad2)*%
X148880540Y-16610001D02*
X147730540Y-17760001D01*
X160250000Y-21033115D02*
X155826886Y-16610001D01*
%TO.N,+5V*%
X85200000Y-9375000D02*
X85175000Y-9400000D01*
%TO.N,GND*%
D39*
X137600000Y-45900001D02*
X138000000Y-45900001D01*
%TO.N,Net-(C2-Pad2)*%
D38*
X157000000Y-86600001D02*
X154175000Y-86600001D01*
%TO.N,Net-(U1C-V-)*%
D40*
X138000000Y-90000001D02*
X138000000Y-89600001D01*
%TO.N,+3.3V*%
D38*
X151548040Y-5073763D02*
X152035540Y-4586263D01*
%TO.N,GND*%
X147730540Y-22840001D02*
X139140000Y-22840001D01*
X104885456Y-77880001D02*
X115000000Y-87994545D01*
%TO.N,V+*%
D40*
X101600000Y-37075000D02*
X98600000Y-34075000D01*
%TO.N,GND*%
D38*
X107325000Y-13950000D02*
X107275000Y-14000000D01*
D39*
X86000000Y-98400001D02*
X86000000Y-98800001D01*
%TO.N,+5V*%
D38*
X107032106Y-11867894D02*
X107275000Y-11625000D01*
%TO.N,V+*%
D40*
X151000000Y-84200001D02*
X151000000Y-79487760D01*
%TO.N,GND*%
D38*
X150794920Y-11025001D02*
X151200000Y-11025001D01*
%TO.N,Net-(U2-AIN0)*%
X106725000Y-13175000D02*
X99771080Y-13175000D01*
%TO.N,Net-(U1C-V-)*%
D40*
X138000000Y-37500001D02*
X138000000Y-37100001D01*
%TO.N,GND*%
D38*
X98394920Y-11025000D02*
X98800000Y-11025000D01*
X167000000Y-35494545D02*
X167000000Y-44500001D01*
%TO.N,V-*%
D40*
X97000000Y-93470001D02*
X97000000Y-89775001D01*
%TO.N,GND*%
D38*
X95330540Y-22840000D02*
X86740000Y-22840000D01*
%TO.N,+2V5*%
X107025000Y-63050001D02*
X107025000Y-58825001D01*
%TO.N,GND*%
D39*
X82650000Y-65670001D02*
X82650000Y-67400001D01*
D38*
X99148040Y-11271880D02*
X99148040Y-12100000D01*
%TO.N,V+*%
D40*
X98600000Y-31965810D02*
X98600000Y-31700000D01*
%TO.N,Net-(C1-Pad2)*%
D38*
X155826886Y-69110001D02*
X148880540Y-69110001D01*
%TO.N,Net-(U2-AIN0)*%
X100171080Y-65675001D02*
X100048040Y-65551961D01*
%TO.N,Net-(J2-Pin_2)*%
X116200000Y-24397057D02*
X114212057Y-26385000D01*
%TO.N,GND*%
X165400000Y-98100001D02*
X164900000Y-98600001D01*
X152469920Y-14850001D02*
X159025000Y-14850001D01*
X165400000Y-45600001D02*
X164900000Y-46100001D01*
%TO.N,Net-(C1-Pad2)*%
X147520540Y-17550001D02*
X147730540Y-17760001D01*
%TO.N,V+*%
D40*
X102000000Y-89575001D02*
X99000000Y-86575001D01*
%TO.N,GND*%
D38*
X114600000Y-35494544D02*
X114600000Y-44500000D01*
%TO.N,Net-(U1C-V+)*%
X102200540Y-71410001D02*
X102200540Y-81450541D01*
%TO.N,GND*%
D39*
X151500000Y-47400001D02*
X151200000Y-47700001D01*
%TO.N,Net-(C2-Pad2)*%
D38*
X154175000Y-86600001D02*
X154000000Y-86425001D01*
%TO.N,GND*%
D39*
X86000000Y-98075001D02*
X86000000Y-98400001D01*
%TO.N,Net-(C1-Pad2)*%
D38*
X103426886Y-16610000D02*
X96480540Y-16610000D01*
%TO.N,GND*%
D39*
X134650000Y-61130001D02*
X134650000Y-59400001D01*
%TO.N,V+*%
D41*
X85575000Y-64900001D02*
X85575000Y-67375001D01*
%TO.N,GND*%
D38*
X165400000Y-97950001D02*
X165400000Y-98100001D01*
D39*
X141612500Y-67350001D02*
X152469920Y-67350001D01*
D38*
X158248762Y-4100001D02*
X153035540Y-4100001D01*
%TO.N,Net-(U1C-V+)*%
X155350540Y-17760001D02*
X154200540Y-18910001D01*
%TO.N,Net-(U2-AIN0)*%
X108225000Y-64575001D02*
X107125000Y-65675001D01*
%TO.N,GND*%
D39*
X99600000Y-47700000D02*
X111000000Y-47700000D01*
%TO.N,/Output*%
D38*
X160250000Y-77660001D02*
X162350000Y-75560001D01*
%TO.N,GND*%
D39*
X136920000Y-63400001D02*
X134650000Y-65670001D01*
%TO.N,V+*%
D40*
X151000000Y-84465811D02*
X151000000Y-84200001D01*
%TO.N,/Yellow*%
D38*
X98035540Y-59787501D02*
X98035540Y-56600001D01*
%TO.N,/Blue*%
X151048040Y-56612501D02*
X151035540Y-56600001D01*
%TO.N,GND*%
X99301160Y-63525001D02*
X99548040Y-63771881D01*
X107748762Y-4100000D02*
X105848762Y-4100000D01*
%TO.N,+5V*%
X137600000Y-59400001D02*
X137600000Y-61875001D01*
%TO.N,V+*%
D40*
X151000000Y-79487760D02*
X148112241Y-76600001D01*
%TO.N,+5V*%
D38*
X154500000Y-61900001D02*
X156967894Y-64367895D01*
%TO.N,Net-(U1C-V-)*%
X147730540Y-82719461D02*
X146250000Y-84200001D01*
%TO.N,+5V*%
X85200000Y-6900000D02*
X85200000Y-9375000D01*
X159675000Y-10550001D02*
X159675000Y-9898763D01*
%TO.N,Net-(C1-Pad2)*%
X108250000Y-74260001D02*
X108250000Y-73533115D01*
%TO.N,GND*%
D39*
X82650000Y-61130001D02*
X82650000Y-59400001D01*
%TO.N,Net-(J2-Pin_2)*%
D38*
X116200000Y-22560000D02*
X116200000Y-24397057D01*
%TO.N,GND*%
X107725000Y-66450001D02*
X107675000Y-66500001D01*
%TO.N,+5V*%
X159675000Y-11625001D02*
X159675000Y-10550001D01*
%TO.N,Net-(U1A--)*%
X95520540Y-72590001D02*
X95730540Y-72800001D01*
%TO.N,GND*%
X155350540Y-77880001D02*
X156885456Y-77880001D01*
%TO.N,Net-(U2-AIN0)*%
X160225000Y-12075001D02*
X159125000Y-13175001D01*
%TO.N,GND*%
X115000000Y-87994545D02*
X115000000Y-97000001D01*
X160975000Y-14000001D02*
X160925000Y-13950001D01*
%TO.N,Net-(U1A--)*%
X141832000Y-72590001D02*
X147520540Y-72590001D01*
%TO.N,GND*%
D39*
X151200000Y-100200001D02*
X152000000Y-100200001D01*
D38*
X157000000Y-37050001D02*
X165400000Y-45450001D01*
%TO.N,Net-(C1-Pad2)*%
X160250000Y-73533115D02*
X155826886Y-69110001D01*
%TO.N,Net-(U1C-V+)*%
X154200540Y-18910001D02*
X154200540Y-28950541D01*
%TO.N,+5V*%
X108500000Y-8673762D02*
X108500000Y-6300000D01*
%TO.N,Net-(C1-Pad2)*%
X141832000Y-17550001D02*
X147520540Y-17550001D01*
%TO.N,GND*%
X159725000Y-66450001D02*
X159675000Y-66500001D01*
%TO.N,V+*%
D40*
X99000000Y-79487760D02*
X96112241Y-76600001D01*
%TO.N,/Output*%
D38*
X160210540Y-25160001D02*
X160250000Y-25160001D01*
%TO.N,+5V*%
X107432106Y-64367895D02*
X107675000Y-64125001D01*
%TO.N,Net-(U1A--)*%
X147520540Y-20090001D02*
X147730540Y-20300001D01*
%TO.N,GND*%
X160148762Y-56600001D02*
X158248762Y-56600001D01*
%TO.N,Net-(J2-Pin_2)*%
X168600000Y-76897058D02*
X166612057Y-78885001D01*
%TO.N,+5V*%
X159432106Y-11867895D02*
X159675000Y-11625001D01*
%TO.N,GND*%
X151301160Y-11025001D02*
X151548040Y-11271881D01*
%TO.N,Net-(U1C-V-)*%
X95330540Y-30219460D02*
X93850000Y-31700000D01*
%TO.N,Net-(J2-Pin_2)*%
X115400000Y-73860001D02*
X116600000Y-75060001D01*
%TO.N,GND*%
D39*
X151500000Y-99700001D02*
X152000000Y-100200001D01*
%TO.N,Net-(C2-Pad2)*%
D38*
X101450000Y-33775000D02*
X101600000Y-33925000D01*
%TO.N,Net-(U2-AIN0)*%
X99771080Y-13175000D02*
X99648040Y-13051960D01*
%TO.N,+3.3V*%
X99148040Y-7800000D02*
X99148040Y-5073762D01*
%TO.N,GND*%
D39*
X139400000Y-100200001D02*
X151200000Y-100200001D01*
%TO.N,V+*%
D40*
X99000000Y-84465811D02*
X99000000Y-84200001D01*
%TO.N,GND*%
D38*
X159950000Y-8175001D02*
X159950000Y-5801239D01*
%TO.N,V+*%
D40*
X154000000Y-37075001D02*
X151000000Y-34075001D01*
%TO.N,GND*%
D38*
X160925000Y-13950001D02*
X159725000Y-13950001D01*
D39*
X137662500Y-10900001D02*
X136920000Y-10900001D01*
%TO.N,Net-(J2-Pin_2)*%
D38*
X116600000Y-76897058D02*
X114612057Y-78885001D01*
%TO.N,V+*%
D40*
X151000000Y-31700001D02*
X151000000Y-26987760D01*
%TO.N,GND*%
D39*
X98800000Y-47700000D02*
X99600000Y-47700000D01*
%TO.N,/Output*%
D38*
X160250000Y-14925001D02*
X160325000Y-14850001D01*
%TO.N,GND*%
X114600000Y-44500000D02*
X113000000Y-46100000D01*
%TO.N,+2V5*%
X107025000Y-58825001D02*
X107000000Y-58800001D01*
%TO.N,GND*%
X107950000Y-58301239D02*
X106248762Y-56600001D01*
%TO.N,Net-(J2-Pin_2)*%
X115000000Y-21360000D02*
X111350000Y-21360000D01*
%TO.N,GND*%
D39*
X152000000Y-47700001D02*
X163400000Y-47700001D01*
X84920000Y-63400001D02*
X82650000Y-61130001D01*
D38*
X159025000Y-14850001D02*
X159675000Y-14850001D01*
%TO.N,Net-(J2-Pin_2)*%
X115000000Y-21360000D02*
X116200000Y-22560000D01*
%TO.N,Net-(U1C-V+)*%
X154200540Y-81450541D02*
X156950000Y-84200001D01*
%TO.N,GND*%
X151548040Y-63771881D02*
X151548040Y-64600001D01*
%TO.N,Net-(J2-Pin_2)*%
X167400000Y-73860001D02*
X163750000Y-73860001D01*
%TO.N,GND*%
X150548040Y-12100001D02*
X150548040Y-12928121D01*
%TO.N,+3.3V*%
X152035540Y-57086263D02*
X152035540Y-56600001D01*
%TO.N,GND*%
D39*
X139400000Y-47700001D02*
X151200000Y-47700001D01*
%TO.N,+5V*%
D38*
X159675000Y-63050001D02*
X159675000Y-62398763D01*
%TO.N,Net-(C1-Pad2)*%
X148880540Y-69110001D02*
X147730540Y-70260001D01*
%TO.N,Net-(U1C-V+)*%
X112500000Y-37700000D02*
X112500000Y-37200000D01*
%TO.N,GND*%
X161550000Y-65925001D02*
X161550000Y-58001239D01*
D39*
X99100000Y-40970000D02*
X99100000Y-47200000D01*
%TO.N,Net-(J2-Pin_2)*%
D38*
X158895540Y-78885001D02*
X155350540Y-75340001D01*
%TO.N,GND*%
X107275000Y-14000000D02*
X107275000Y-14850000D01*
X156885456Y-77880001D02*
X167000000Y-87994545D01*
X108575000Y-14000000D02*
X108525000Y-13950000D01*
%TO.N,/Output*%
X110350000Y-75560001D02*
X110350000Y-73160001D01*
%TO.N,+5V*%
X137575000Y-61900001D02*
X154500000Y-61900001D01*
%TO.N,GND*%
X147730540Y-75340001D02*
X139140000Y-75340001D01*
X167000000Y-97000001D02*
X165400000Y-98600001D01*
%TO.N,V+*%
D40*
X137600000Y-22600001D02*
X137600000Y-14900001D01*
%TO.N,Net-(U1C-V+)*%
D38*
X155350540Y-70260001D02*
X154200540Y-71410001D01*
%TO.N,V+*%
D40*
X102000000Y-93470001D02*
X102000000Y-89575001D01*
X99000000Y-84200001D02*
X99000000Y-79487760D01*
%TO.N,GND*%
D39*
X86000000Y-98800001D02*
X87400000Y-100200001D01*
%TO.N,Net-(U1C-V+)*%
D38*
X102950540Y-17760000D02*
X101800540Y-18910000D01*
%TO.N,/Yellow*%
X98148040Y-7800000D02*
X97635540Y-7287500D01*
%TO.N,GND*%
D39*
X82250000Y-13170000D02*
X82250000Y-14900000D01*
D38*
X105000000Y-89550001D02*
X113400000Y-97950001D01*
X159675000Y-66500001D02*
X159675000Y-67350001D01*
%TO.N,Net-(U1C-V+)*%
X101800540Y-28950540D02*
X104550000Y-31700000D01*
%TO.N,GND*%
D39*
X151500000Y-99900001D02*
X151200000Y-100200001D01*
%TO.N,Net-(J2-Pin_3)*%
D38*
X115400000Y-76400001D02*
X112610000Y-76400001D01*
%TO.N,GND*%
D39*
X137662500Y-63400001D02*
X141612500Y-67350001D01*
X134650000Y-67400001D02*
X134650000Y-95450001D01*
%TO.N,/Output*%
D38*
X162350000Y-75560001D02*
X162350000Y-73160001D01*
%TO.N,+5V*%
X159675000Y-62398763D02*
X160900000Y-61173763D01*
%TO.N,GND*%
X98794920Y-63525001D02*
X99200000Y-63525001D01*
D39*
X138000000Y-98800001D02*
X139400000Y-100200001D01*
X85262500Y-10900000D02*
X89212500Y-14850000D01*
%TO.N,Net-(C1-Pad2)*%
D38*
X155826886Y-16610001D02*
X148880540Y-16610001D01*
%TO.N,GND*%
D39*
X99500000Y-99700001D02*
X100000000Y-100200001D01*
D38*
X109150000Y-5501238D02*
X107748762Y-4100000D01*
%TO.N,V+*%
D41*
X85175000Y-14875000D02*
X85200000Y-14900000D01*
%TO.N,GND*%
D39*
X82650000Y-67400001D02*
X82650000Y-95450001D01*
%TO.N,V-*%
D40*
X149000000Y-40970001D02*
X149000000Y-37275001D01*
%TO.N,Net-(C3-Pad1)*%
D38*
X96800000Y-31850000D02*
X96950000Y-31700000D01*
%TO.N,+2V5*%
X159025000Y-6325001D02*
X159000000Y-6300001D01*
%TO.N,GND*%
D39*
X136920000Y-10900001D02*
X134650000Y-8630001D01*
D38*
X98548040Y-63771881D02*
X98794920Y-63525001D01*
%TO.N,Net-(U1C-V-)*%
X94250000Y-84200001D02*
X94250000Y-83850001D01*
%TO.N,GND*%
X167000000Y-44500001D02*
X165400000Y-46100001D01*
D39*
X152000000Y-100200001D02*
X163400000Y-100200001D01*
%TO.N,Net-(J2-Pin_1)*%
D38*
X163610000Y-18820001D02*
X163350000Y-18560001D01*
%TO.N,+2V5*%
X106625000Y-6325000D02*
X106600000Y-6300000D01*
%TO.N,GND*%
X98148040Y-12100000D02*
X98148040Y-12928120D01*
X113400000Y-97950001D02*
X113400000Y-98100001D01*
%TO.N,Net-(U1C-V+)*%
X154200540Y-71410001D02*
X154200540Y-81450541D01*
%TO.N,GND*%
D39*
X82250000Y-42950000D02*
X85200000Y-45900000D01*
D38*
X165400000Y-46100001D02*
X164900000Y-46100001D01*
%TO.N,Net-(J2-Pin_2)*%
X168600000Y-24397058D02*
X166612057Y-26385001D01*
%TO.N,Net-(J2-Pin_3)*%
X164610000Y-76400001D02*
X163350000Y-77660001D01*
%TO.N,+5V*%
X160900000Y-61173763D02*
X160900000Y-58800001D01*
%TO.N,Net-(J2-Pin_2)*%
X115400000Y-73860001D02*
X111750000Y-73860001D01*
%TO.N,Net-(C1-Pad2)*%
X96480540Y-16610000D02*
X95330540Y-17760000D01*
%TO.N,GND*%
D39*
X151200000Y-47700001D02*
X152000000Y-47700001D01*
%TO.N,Net-(C3-Pad1)*%
D38*
X149200000Y-33925001D02*
X146700000Y-33925001D01*
%TO.N,GND*%
X151301160Y-63525001D02*
X151548040Y-63771881D01*
%TO.N,+5V*%
X107675000Y-62398763D02*
X108900000Y-61173763D01*
%TO.N,GND*%
X165400000Y-45450001D02*
X165400000Y-45600001D01*
X108975000Y-67350001D02*
X108975000Y-66500001D01*
X108975000Y-66500001D02*
X109550000Y-65925001D01*
D39*
X146600000Y-89475001D02*
X138000000Y-98075001D01*
D38*
X138575000Y-11812501D02*
X137662500Y-10900001D01*
%TO.N,Net-(J2-Pin_2)*%
X166612057Y-78885001D02*
X158895540Y-78885001D01*
%TO.N,+5V*%
X104967894Y-64367895D02*
X107432106Y-64367895D01*
%TO.N,/Output*%
X160250000Y-71060001D02*
X160250000Y-67425001D01*
%TO.N,Net-(U2-AIN0)*%
X108325000Y-63050001D02*
X108225000Y-63150001D01*
%TO.N,GND*%
D39*
X89212500Y-14850000D02*
X100069920Y-14850000D01*
X85600000Y-46300000D02*
X87000000Y-47700000D01*
%TO.N,/Yellow*%
D38*
X98548040Y-60300001D02*
X98035540Y-59787501D01*
%TO.N,Net-(C3-Pad1)*%
X149200000Y-86425001D02*
X146700000Y-86425001D01*
%TO.N,Net-(U1A--)*%
X89432000Y-20090000D02*
X95120540Y-20090000D01*
%TO.N,Net-(J2-Pin_3)*%
X115000000Y-23900000D02*
X112210000Y-23900000D01*
%TO.N,Net-(U2-AIN0)*%
X152048040Y-65551961D02*
X152048040Y-64600001D01*
%TO.N,GND*%
X138575000Y-74775001D02*
X138575000Y-64312501D01*
%TO.N,V-*%
D40*
X97000000Y-89775001D02*
X97200000Y-89575001D01*
%TO.N,Net-(C3-Pad1)*%
D38*
X94700000Y-86425001D02*
X94600000Y-86525001D01*
%TO.N,+3.3V*%
X99548040Y-57573763D02*
X100035540Y-57086263D01*
%TO.N,Net-(U1C-V-)*%
D40*
X143400000Y-84200001D02*
X146250000Y-84200001D01*
%TO.N,+5V*%
D38*
X156967894Y-64367895D02*
X159432106Y-64367895D01*
%TO.N,+3.3V*%
X151548040Y-57573763D02*
X152035540Y-57086263D01*
%TO.N,+5V*%
X85575000Y-61900001D02*
X102500000Y-61900001D01*
%TO.N,/Output*%
X160210540Y-77660001D02*
X160250000Y-77660001D01*
%TO.N,GND*%
D39*
X136920000Y-63400001D02*
X134650000Y-61130001D01*
%TO.N,+3.3V*%
D38*
X151548040Y-60300001D02*
X151548040Y-57573763D01*
%TO.N,GND*%
X95730540Y-75340001D02*
X87140000Y-75340001D01*
%TO.N,Net-(J2-Pin_2)*%
X168600000Y-22560001D02*
X168600000Y-24397058D01*
%TO.N,GND*%
X109550000Y-58001239D02*
X108148762Y-56600001D01*
X161550000Y-13425001D02*
X161550000Y-5501239D01*
%TO.N,Net-(C2-Pad2)*%
X101850000Y-84200001D02*
X101850000Y-86275001D01*
%TO.N,Net-(C3-Pad1)*%
X97200000Y-86425001D02*
X97200000Y-84350001D01*
%TO.N,GND*%
X107950000Y-60675001D02*
X107950000Y-58301239D01*
%TO.N,Net-(C3-Pad1)*%
X146700000Y-86425001D02*
X146600000Y-86525001D01*
%TO.N,Net-(U2-AIN0)*%
X152048040Y-13051961D02*
X152048040Y-12100001D01*
%TO.N,GND*%
D39*
X87000000Y-47700000D02*
X98800000Y-47700000D01*
%TO.N,V+*%
D40*
X98600000Y-26987759D02*
X95712241Y-24100000D01*
%TO.N,GND*%
D39*
X82250000Y-8630000D02*
X82250000Y-6900000D01*
%TO.N,/Output*%
D38*
X155350540Y-72800001D02*
X160210540Y-77660001D01*
%TO.N,Net-(U1C-V-)*%
D40*
X143400000Y-31700001D02*
X146250000Y-31700001D01*
%TO.N,Net-(C3-Pad1)*%
D38*
X146700000Y-33925001D02*
X146600000Y-34025001D01*
%TO.N,Net-(U1C-V-)*%
D40*
X138000000Y-89600001D02*
X143400000Y-84200001D01*
%TO.N,V+*%
X86700000Y-24100000D02*
X85200000Y-22600000D01*
%TO.N,Net-(U2-AIN0)*%
D38*
X108225000Y-63150001D02*
X108225000Y-64575001D01*
%TO.N,GND*%
D39*
X85600000Y-45575000D02*
X85600000Y-45900000D01*
D38*
X98548040Y-65428121D02*
X100469920Y-67350001D01*
%TO.N,Net-(U2-AIN0)*%
X107825000Y-12075000D02*
X106725000Y-13175000D01*
%TO.N,+5V*%
X159675000Y-64125001D02*
X159675000Y-63050001D01*
%TO.N,GND*%
D39*
X137662500Y-10900001D02*
X141612500Y-14850001D01*
%TO.N,Net-(J2-Pin_1)*%
D38*
X115000000Y-18820000D02*
X111210000Y-18820000D01*
%TO.N,GND*%
X103350540Y-77880001D02*
X104885456Y-77880001D01*
%TO.N,Net-(U1C-V-)*%
D40*
X91400000Y-84200001D02*
X94250000Y-84200001D01*
%TO.N,/Blue*%
D38*
X98648040Y-7800000D02*
X98648040Y-4112500D01*
%TO.N,V+*%
D40*
X85600000Y-75100001D02*
X85600000Y-67400001D01*
%TO.N,Net-(U1C-V-)*%
D38*
X95330540Y-25380000D02*
X95330540Y-30219460D01*
%TO.N,Net-(U1C-V+)*%
X102200540Y-81450541D02*
X104950000Y-84200001D01*
%TO.N,Net-(C2-Pad2)*%
X157000000Y-34100001D02*
X154175000Y-34100001D01*
%TO.N,GND*%
X139140000Y-22840001D02*
X138575000Y-22275001D01*
X150548040Y-65428121D02*
X152469920Y-67350001D01*
X107025000Y-67350001D02*
X107675000Y-67350001D01*
D39*
X138000000Y-98400001D02*
X138000000Y-98800001D01*
%TO.N,Net-(U2-AIN0)*%
D38*
X107825000Y-10650000D02*
X107825000Y-12075000D01*
%TO.N,GND*%
D39*
X134650000Y-95450001D02*
X137600000Y-98400001D01*
%TO.N,Net-(U2-AIN0)*%
D38*
X159125000Y-13175001D02*
X152171080Y-13175001D01*
%TO.N,GND*%
X160148762Y-4100001D02*
X158248762Y-4100001D01*
%TO.N,Net-(U1C-V-)*%
X95730540Y-77880001D02*
X95730540Y-82719461D01*
%TO.N,V+*%
D40*
X98600000Y-31700000D02*
X98600000Y-26987759D01*
X137600000Y-75100001D02*
X137600000Y-67400001D01*
%TO.N,/Output*%
D38*
X110350000Y-73160001D02*
X108250000Y-71060001D01*
%TO.N,V-*%
D40*
X149000000Y-37275001D02*
X149200000Y-37075001D01*
%TO.N,GND*%
D38*
X159950000Y-5801239D02*
X158248762Y-4100001D01*
%TO.N,Net-(C2-Pad2)*%
X153850000Y-31700001D02*
X153850000Y-33775001D01*
%TO.N,GND*%
D39*
X85662500Y-63400001D02*
X89612500Y-67350001D01*
%TO.N,Net-(U2-AIN0)*%
D38*
X108325000Y-63050001D02*
X108975000Y-63050001D01*
%TO.N,Net-(C3-Pad1)*%
X149200000Y-84350001D02*
X149350000Y-84200001D01*
%TO.N,/Yellow*%
X150548040Y-7800001D02*
X150035540Y-7287501D01*
%TO.N,V+*%
D40*
X87100000Y-76600001D02*
X85600000Y-75100001D01*
%TO.N,/Output*%
D38*
X109950000Y-23060000D02*
X109950000Y-20660000D01*
%TO.N,Net-(U1C-V-)*%
X147730540Y-77880001D02*
X147730540Y-82719461D01*
D40*
X138000000Y-37100001D02*
X143400000Y-31700001D01*
%TO.N,Net-(U2-AIN0)*%
D38*
X160225000Y-64575001D02*
X159125000Y-65675001D01*
%TO.N,GND*%
D39*
X134650000Y-14900001D02*
X134650000Y-42950001D01*
%TO.N,+5V*%
D38*
X160900000Y-8673763D02*
X160900000Y-6300001D01*
%TO.N,Net-(U1C-V-)*%
X95730540Y-82719461D02*
X94250000Y-84200001D01*
%TO.N,GND*%
X86575000Y-64312501D02*
X85662500Y-63400001D01*
%TO.N,V+*%
D40*
X148112241Y-76600001D02*
X139100000Y-76600001D01*
%TO.N,Net-(U1C-V-)*%
D38*
X146250000Y-84200001D02*
X146250000Y-83850001D01*
%TO.N,GND*%
D39*
X151500000Y-40970001D02*
X151500000Y-47200001D01*
%TO.N,/Yellow*%
D38*
X97635540Y-7287500D02*
X97635540Y-4100000D01*
%TO.N,GND*%
D39*
X82650000Y-95450001D02*
X85600000Y-98400001D01*
%TO.N,V+*%
D40*
X101600000Y-40970000D02*
X101600000Y-37075000D01*
%TO.N,Net-(U1C-V+)*%
D38*
X159400000Y-84200001D02*
X156950000Y-84200001D01*
%TO.N,GND*%
X113000000Y-45600000D02*
X112500000Y-46100000D01*
X152469920Y-67350001D02*
X159025000Y-67350001D01*
%TO.N,/Output*%
X160250000Y-67425001D02*
X160325000Y-67350001D01*
%TO.N,Net-(C3-Pad1)*%
X149200000Y-86425001D02*
X149200000Y-84350001D01*
%TO.N,GND*%
D39*
X137662500Y-63400001D02*
X136920000Y-63400001D01*
X141612500Y-14850001D02*
X152469920Y-14850001D01*
%TO.N,/Output*%
D38*
X102950540Y-20300000D02*
X107810540Y-25160000D01*
%TO.N,V+*%
D41*
X85175000Y-12400000D02*
X85175000Y-14875000D01*
%TO.N,GND*%
D38*
X160975000Y-67350001D02*
X160975000Y-66500001D01*
%TO.N,+5V*%
X104567894Y-11867894D02*
X107032106Y-11867894D01*
%TO.N,GND*%
X156885456Y-25380001D02*
X167000000Y-35494545D01*
X87140000Y-75340001D02*
X86575000Y-74775001D01*
%TO.N,V+*%
D40*
X151000000Y-34075001D02*
X151000000Y-31700001D01*
%TO.N,GND*%
D38*
X150548040Y-12100001D02*
X150548040Y-11271881D01*
D39*
X163400000Y-100200001D02*
X165200000Y-98400001D01*
X146600000Y-36975001D02*
X138000000Y-45575001D01*
X85662500Y-63400001D02*
X84920000Y-63400001D01*
D38*
X107550000Y-8175000D02*
X107550000Y-5801238D01*
%TO.N,/Output*%
X162350000Y-23060001D02*
X162350000Y-20660001D01*
%TO.N,+5V*%
X85600000Y-61875001D02*
X85575000Y-61900001D01*
%TO.N,GND*%
D39*
X85262500Y-10900000D02*
X84520000Y-10900000D01*
D38*
X160975000Y-66500001D02*
X161550000Y-65925001D01*
%TO.N,Net-(U1C-V+)*%
X159400000Y-31700001D02*
X156950000Y-31700001D01*
%TO.N,GND*%
X106625000Y-14850000D02*
X107275000Y-14850000D01*
%TO.N,+5V*%
X107675000Y-64125001D02*
X107675000Y-63050001D01*
%TO.N,Net-(C1-Pad2)*%
X147520540Y-70050001D02*
X147730540Y-70260001D01*
%TO.N,GND*%
X159675000Y-14000001D02*
X159675000Y-14850001D01*
%TO.N,Net-(U1C-V+)*%
X164900000Y-90200001D02*
X164900000Y-89700001D01*
%TO.N,Net-(U2-AIN0)*%
X99648040Y-13051960D02*
X99648040Y-12100000D01*
%TO.N,/Output*%
X160250000Y-25160001D02*
X162350000Y-23060001D01*
%TO.N,Net-(C3-Pad1)*%
X97200000Y-86425001D02*
X94700000Y-86425001D01*
%TO.N,GND*%
X108525000Y-13950000D02*
X107325000Y-13950000D01*
%TO.N,V+*%
D41*
X85575000Y-67375001D02*
X85600000Y-67400001D01*
D40*
X148112241Y-24100001D02*
X139100000Y-24100001D01*
%TO.N,GND*%
D39*
X151500000Y-40970001D02*
X151500000Y-47400001D01*
%TO.N,V+*%
D40*
X96112241Y-76600001D02*
X87100000Y-76600001D01*
%TO.N,GND*%
D38*
X151200000Y-11025001D02*
X151301160Y-11025001D01*
%TO.N,+3.3V*%
X99635540Y-4586262D02*
X99635540Y-4100000D01*
%TO.N,Net-(U1C-V-)*%
D40*
X86000000Y-90000001D02*
X86000000Y-89600001D01*
%TO.N,Net-(U1C-V+)*%
D38*
X112900000Y-90200001D02*
X112900000Y-89700001D01*
%TO.N,V+*%
D40*
X98600000Y-34075000D02*
X98600000Y-31700000D01*
%TO.N,/Blue*%
D38*
X151048040Y-60300001D02*
X151048040Y-56612501D01*
%TO.N,GND*%
D39*
X100000000Y-100200001D02*
X111400000Y-100200001D01*
X151500000Y-93470001D02*
X151500000Y-99900001D01*
%TO.N,V+*%
D40*
X151000000Y-31965811D02*
X151000000Y-31700001D01*
%TO.N,GND*%
D38*
X98548040Y-64600001D02*
X98548040Y-63771881D01*
%TO.N,Net-(J2-Pin_1)*%
X111610000Y-71320001D02*
X111350000Y-71060001D01*
%TO.N,+2V5*%
X106625000Y-10550000D02*
X106625000Y-6325000D01*
%TO.N,Net-(J2-Pin_2)*%
X166612057Y-26385001D02*
X158895540Y-26385001D01*
X158895540Y-26385001D02*
X155350540Y-22840001D01*
%TO.N,GND*%
X86575000Y-74775001D02*
X86575000Y-64312501D01*
%TO.N,Net-(J2-Pin_2)*%
X106495540Y-26385000D02*
X102950540Y-22840000D01*
%TO.N,Net-(U2-AIN0)*%
X100048040Y-65551961D02*
X100048040Y-64600001D01*
%TO.N,V+*%
D41*
X137575000Y-67375001D02*
X137600000Y-67400001D01*
%TO.N,GND*%
D38*
X138575000Y-22275001D02*
X138575000Y-11812501D01*
D39*
X82250000Y-14900000D02*
X82250000Y-42950000D01*
%TO.N,V+*%
D40*
X151000000Y-86575001D02*
X151000000Y-84200001D01*
%TO.N,GND*%
D38*
X159725000Y-13950001D02*
X159675000Y-14000001D01*
%TO.N,/Output*%
X108250000Y-77660001D02*
X110350000Y-75560001D01*
X108250000Y-67425001D02*
X108325000Y-67350001D01*
%TO.N,GND*%
X160975000Y-14000001D02*
X161550000Y-13425001D01*
D39*
X138000000Y-98075001D02*
X138000000Y-98400001D01*
%TO.N,Net-(J2-Pin_1)*%
D38*
X163610000Y-71320001D02*
X163350000Y-71060001D01*
%TO.N,GND*%
X159950000Y-58301239D02*
X158248762Y-56600001D01*
D39*
X138000000Y-45575001D02*
X138000000Y-45900001D01*
%TO.N,+5V*%
D38*
X85175000Y-9400000D02*
X102100000Y-9400000D01*
%TO.N,V+*%
D41*
X137575000Y-14875001D02*
X137600000Y-14900001D01*
%TO.N,Net-(U1C-V-)*%
D40*
X85600000Y-37100000D02*
X91000000Y-31700000D01*
%TO.N,Net-(C3-Pad1)*%
D38*
X149200000Y-33925001D02*
X149200000Y-31850001D01*
%TO.N,GND*%
D39*
X134650000Y-42950001D02*
X137600000Y-45900001D01*
D38*
X98901160Y-11025000D02*
X99148040Y-11271880D01*
X113400000Y-98600001D02*
X112900000Y-98600001D01*
%TO.N,Net-(C1-Pad2)*%
X107850000Y-21033114D02*
X103426886Y-16610000D01*
%TO.N,V+*%
D40*
X99000000Y-86575001D02*
X99000000Y-84200001D01*
%TO.N,GND*%
D38*
X100069920Y-14850000D02*
X106625000Y-14850000D01*
X160925000Y-66450001D02*
X159725000Y-66450001D01*
X108148762Y-56600001D02*
X106248762Y-56600001D01*
%TO.N,/Output*%
X162350000Y-73160001D02*
X160250000Y-71060001D01*
%TO.N,GND*%
X98148040Y-11271880D02*
X98394920Y-11025000D01*
%TO.N,+5V*%
X137575000Y-9400001D02*
X154500000Y-9400001D01*
%TO.N,Net-(J2-Pin_3)*%
X164610000Y-23900001D02*
X163350000Y-25160001D01*
%TO.N,+5V*%
X102500000Y-61900001D02*
X104967894Y-64367895D01*
%TO.N,Net-(U1C-V-)*%
D40*
X91000000Y-31700000D02*
X93850000Y-31700000D01*
%TO.N,Net-(C1-Pad2)*%
D38*
X95520540Y-70050001D02*
X95730540Y-70260001D01*
%TO.N,GND*%
X104600000Y-37050000D02*
X113000000Y-45450000D01*
X98800000Y-11025000D02*
X98901160Y-11025000D01*
%TO.N,V+*%
D40*
X85200000Y-22600000D02*
X85200000Y-14900000D01*
%TO.N,GND*%
D39*
X163400000Y-47700001D02*
X165200000Y-45900001D01*
%TO.N,Net-(C1-Pad2)*%
D38*
X95120540Y-17550000D02*
X95330540Y-17760000D01*
%TO.N,GND*%
X86175000Y-22275000D02*
X86175000Y-11812500D01*
%TO.N,Net-(J2-Pin_3)*%
X112610000Y-76400001D02*
X111350000Y-77660001D01*
%TO.N,Net-(U1C-V+)*%
X112500000Y-37200000D02*
X107000000Y-31700000D01*
%TO.N,V+*%
D40*
X154000000Y-40970001D02*
X154000000Y-37075001D01*
%TO.N,Net-(C1-Pad2)*%
D38*
X107850000Y-21760000D02*
X107850000Y-21033114D01*
%TO.N,GND*%
X107550000Y-5801238D02*
X105848762Y-4100000D01*
%TO.N,V+*%
D40*
X151000000Y-26987760D02*
X148112241Y-24100001D01*
%TO.N,Net-(C1-Pad2)*%
D38*
X141832000Y-70050001D02*
X147520540Y-70050001D01*
X108250000Y-73533115D02*
X103826886Y-69110001D01*
%TO.N,GND*%
X155350540Y-25380001D02*
X156885456Y-25380001D01*
X139140000Y-75340001D02*
X138575000Y-74775001D01*
%TO.N,+3.3V*%
X151548040Y-7800001D02*
X151548040Y-5073763D01*
%TO.N,V-*%
D40*
X149000000Y-93470001D02*
X149000000Y-89775001D01*
%TO.N,Net-(C2-Pad2)*%
D38*
X153850000Y-86275001D02*
X154000000Y-86425001D01*
%TO.N,GND*%
X109150000Y-13425000D02*
X109150000Y-5501238D01*
X105848762Y-4100000D02*
X100635540Y-4100000D01*
D39*
X84520000Y-10900000D02*
X82250000Y-8630000D01*
X134650000Y-13170001D02*
X134650000Y-14900001D01*
D38*
X161550000Y-58001239D02*
X160148762Y-56600001D01*
%TO.N,Net-(C2-Pad2)*%
X153850000Y-33775001D02*
X154000000Y-33925001D01*
%TO.N,V+*%
D41*
X137575000Y-12400001D02*
X137575000Y-14875001D01*
%TO.N,/Yellow*%
D38*
X150548040Y-60300001D02*
X150035540Y-59787501D01*
%TO.N,Net-(C2-Pad2)*%
X105000000Y-86600001D02*
X102175000Y-86600001D01*
%TO.N,GND*%
D39*
X138000000Y-45900001D02*
X138000000Y-46300001D01*
%TO.N,Net-(U2-AIN0)*%
D38*
X107125000Y-65675001D02*
X100171080Y-65675001D01*
%TO.N,GND*%
X108925000Y-66450001D02*
X107725000Y-66450001D01*
%TO.N,/Yellow*%
X150035540Y-7287501D02*
X150035540Y-4100001D01*
%TO.N,GND*%
X167000000Y-87994545D02*
X167000000Y-97000001D01*
%TO.N,V-*%
D40*
X96600000Y-37275000D02*
X96800000Y-37075000D01*
%TO.N,GND*%
D38*
X151200000Y-63525001D02*
X151301160Y-63525001D01*
%TO.N,Net-(J2-Pin_2)*%
X167400000Y-73860001D02*
X168600000Y-75060001D01*
%TO.N,Net-(U1A--)*%
X147520540Y-72590001D02*
X147730540Y-72800001D01*
%TO.N,GND*%
X160975000Y-66500001D02*
X160925000Y-66450001D01*
D39*
X84920000Y-63400001D02*
X82650000Y-65670001D01*
%TO.N,/Blue*%
D38*
X151048040Y-4112501D02*
X151035540Y-4100001D01*
%TO.N,Net-(U1C-V+)*%
X107400000Y-84200001D02*
X104950000Y-84200001D01*
%TO.N,Net-(U1C-V-)*%
D40*
X85600000Y-37500000D02*
X85600000Y-37100000D01*
%TO.N,GND*%
D38*
X165400000Y-98600001D02*
X164900000Y-98600001D01*
%TO.N,Net-(J2-Pin_1)*%
X115400000Y-71320001D02*
X111610000Y-71320001D01*
%TO.N,Net-(U1C-V+)*%
X164900000Y-37200001D02*
X159400000Y-31700001D01*
%TO.N,Net-(U1C-V-)*%
X93850000Y-31700000D02*
X93850000Y-31350000D01*
%TO.N,+5V*%
X137600000Y-6900001D02*
X137600000Y-9375001D01*
X107675000Y-63050001D02*
X107675000Y-62398763D01*
%TO.N,Net-(J2-Pin_2)*%
X167400000Y-21360001D02*
X163750000Y-21360001D01*
%TO.N,Net-(C2-Pad2)*%
X153850000Y-84200001D02*
X153850000Y-86275001D01*
%TO.N,GND*%
X150548040Y-63771881D02*
X150794920Y-63525001D01*
%TO.N,Net-(U1C-V-)*%
X146250000Y-31700001D02*
X146250000Y-31350001D01*
%TO.N,+2V5*%
X159025000Y-58825001D02*
X159000000Y-58800001D01*
%TO.N,GND*%
X159950000Y-60675001D02*
X159950000Y-58301239D01*
D39*
X94600000Y-89475001D02*
X86000000Y-98075001D01*
%TO.N,Net-(C2-Pad2)*%
D38*
X104600000Y-34100000D02*
X101775000Y-34100000D01*
%TO.N,GND*%
X159025000Y-67350001D02*
X159675000Y-67350001D01*
%TO.N,Net-(U2-AIN0)*%
X160325000Y-63050001D02*
X160975000Y-63050001D01*
%TO.N,GND*%
X150548040Y-64600001D02*
X150548040Y-65428121D01*
%TO.N,+5V*%
X107275000Y-9898762D02*
X108500000Y-8673762D01*
X107275000Y-11625000D02*
X107275000Y-10550000D01*
%TO.N,GND*%
X107675000Y-66500001D02*
X107675000Y-67350001D01*
X99548040Y-63771881D02*
X99548040Y-64600001D01*
%TO.N,Net-(J2-Pin_3)*%
X112210000Y-23900000D02*
X110950000Y-25160000D01*
%TO.N,V+*%
D40*
X154000000Y-93470001D02*
X154000000Y-89575001D01*
%TO.N,Net-(U2-AIN0)*%
D38*
X160225000Y-10650001D02*
X160225000Y-12075001D01*
%TO.N,GND*%
X108575000Y-14000000D02*
X109150000Y-13425000D01*
X109550000Y-65925001D02*
X109550000Y-58001239D01*
%TO.N,/Blue*%
X99048040Y-56612501D02*
X99035540Y-56600001D01*
%TO.N,GND*%
D39*
X99100000Y-47400000D02*
X98800000Y-47700000D01*
%TO.N,+5V*%
D38*
X156967894Y-11867895D02*
X159432106Y-11867895D01*
%TO.N,Net-(C2-Pad2)*%
X101850000Y-86275001D02*
X102000000Y-86425001D01*
%TO.N,Net-(J2-Pin_2)*%
X167400000Y-21360001D02*
X168600000Y-22560001D01*
%TO.N,/Output*%
X155350540Y-20300001D02*
X160210540Y-25160001D01*
%TO.N,+5V*%
X108900000Y-61173763D02*
X108900000Y-58800001D01*
%TO.N,GND*%
X102950540Y-25380000D02*
X104485456Y-25380000D01*
D39*
X137600000Y-98400001D02*
X138000000Y-98400001D01*
%TO.N,Net-(U1C-V+)*%
D38*
X107000000Y-31700000D02*
X104550000Y-31700000D01*
%TO.N,Net-(J2-Pin_2)*%
X114612057Y-78885001D02*
X106895540Y-78885001D01*
%TO.N,GND*%
X161550000Y-5501239D02*
X160148762Y-4100001D01*
%TO.N,Net-(U1A--)*%
X89832000Y-72590001D02*
X95520540Y-72590001D01*
%TO.N,GND*%
X138575000Y-64312501D02*
X137662500Y-63400001D01*
%TO.N,Net-(C2-Pad2)*%
X101775000Y-34100000D02*
X101600000Y-33925000D01*
%TO.N,Net-(C1-Pad2)*%
X89432000Y-17550000D02*
X95120540Y-17550000D01*
%TO.N,GND*%
X151548040Y-11271881D02*
X151548040Y-12100001D01*
%TO.N,Net-(J2-Pin_2)*%
X114212057Y-26385000D02*
X106495540Y-26385000D01*
%TO.N,+5V*%
X102100000Y-9400000D02*
X104567894Y-11867894D01*
%TO.N,GND*%
X150794920Y-63525001D02*
X151200000Y-63525001D01*
%TO.N,/Output*%
X160250000Y-18560001D02*
X160250000Y-14925001D01*
%TO.N,GND*%
D39*
X151500000Y-47200001D02*
X152000000Y-47700001D01*
%TO.N,/Blue*%
D38*
X151048040Y-7800001D02*
X151048040Y-4112501D01*
%TO.N,+5V*%
X137600000Y-61875001D02*
X137575000Y-61900001D01*
%TO.N,GND*%
D39*
X111000000Y-47700000D02*
X112800000Y-45900000D01*
%TO.N,Net-(C2-Pad2)*%
D38*
X154175000Y-34100001D02*
X154000000Y-33925001D01*
%TO.N,Net-(J2-Pin_2)*%
X163750000Y-21360001D02*
X163350000Y-21760001D01*
%TO.N,GND*%
X108975000Y-66500001D02*
X108925000Y-66450001D01*
%TO.N,V+*%
D41*
X137575000Y-64900001D02*
X137575000Y-67375001D01*
%TO.N,Net-(C1-Pad2)*%
D38*
X96880540Y-69110001D02*
X95730540Y-70260001D01*
%TO.N,GND*%
X86740000Y-22840000D02*
X86175000Y-22275000D01*
X160975000Y-14850001D02*
X160975000Y-14000001D01*
D39*
X99100000Y-40970000D02*
X99100000Y-47400000D01*
%TO.N,Net-(C2-Pad2)*%
D38*
X101450000Y-31700000D02*
X101450000Y-33775000D01*
%TO.N,GND*%
D39*
X134650000Y-65670001D02*
X134650000Y-67400001D01*
%TO.N,+5V*%
D38*
X137600000Y-9375001D02*
X137575000Y-9400001D01*
%TO.N,GND*%
D39*
X111400000Y-100200001D02*
X113200000Y-98400001D01*
D38*
X150548040Y-11271881D02*
X150794920Y-11025001D01*
%TO.N,Net-(U1A--)*%
X141832000Y-20090001D02*
X147520540Y-20090001D01*
%TO.N,Net-(U1C-V+)*%
X164900000Y-37700001D02*
X164900000Y-37200001D01*
%TO.N,Net-(J2-Pin_1)*%
X167400000Y-18820001D02*
X163610000Y-18820001D01*
%TO.N,Net-(C1-Pad2)*%
X103826886Y-69110001D02*
X96880540Y-69110001D01*
%TO.N,GND*%
X113000000Y-45450000D02*
X113000000Y-45600000D01*
%TO.N,Net-(U1C-V-)*%
X147730540Y-25380001D02*
X147730540Y-30219461D01*
%TO.N,Net-(U2-AIN0)*%
X160325000Y-10550001D02*
X160975000Y-10550001D01*
X159125000Y-65675001D02*
X152171080Y-65675001D01*
%TO.N,Net-(U1C-V+)*%
X101800540Y-18910000D02*
X101800540Y-28950540D01*
%TO.N,/Output*%
X107810540Y-25160000D02*
X107850000Y-25160000D01*
%TO.N,+2V5*%
X159025000Y-63050001D02*
X159025000Y-58825001D01*
%TO.N,Net-(U1C-V+)*%
X103350540Y-70260001D02*
X102200540Y-71410001D01*
%TO.N,Net-(U2-AIN0)*%
X107925000Y-10550000D02*
X108575000Y-10550000D01*
%TO.N,Net-(C3-Pad1)*%
X97200000Y-84350001D02*
X97350000Y-84200001D01*
%TO.N,Net-(U1C-V-)*%
D40*
X86000000Y-89600001D02*
X91400000Y-84200001D01*
%TO.N,GND*%
D38*
X113400000Y-98100001D02*
X112900000Y-98600001D01*
%TO.N,Net-(C2-Pad2)*%
X102175000Y-86600001D02*
X102000000Y-86425001D01*
%TO.N,/Output*%
X108250000Y-71060001D02*
X108250000Y-67425001D01*
%TO.N,V+*%
D40*
X139100000Y-24100001D02*
X137600000Y-22600001D01*
%TO.N,+5V*%
D38*
X85600000Y-59400001D02*
X85600000Y-61875001D01*
%TO.N,/Blue*%
X99048040Y-60300001D02*
X99048040Y-56612501D01*
%TO.N,GND*%
X157000000Y-89550001D02*
X165400000Y-97950001D01*
%TO.N,Net-(C3-Pad1)*%
X94300000Y-33925000D02*
X94200000Y-34025000D01*
%TO.N,/Output*%
X107850000Y-14925000D02*
X107925000Y-14850000D01*
%TO.N,GND*%
X108575000Y-14850000D02*
X108575000Y-14000000D01*
%TO.N,V-*%
D40*
X96600000Y-40970000D02*
X96600000Y-37275000D01*
%TO.N,Net-(U2-AIN0)*%
D38*
X160325000Y-63050001D02*
X160225000Y-63150001D01*
%TO.N,Net-(J2-Pin_2)*%
X106895540Y-78885001D02*
X103350540Y-75340001D01*
%TO.N,GND*%
D39*
X94200000Y-36975000D02*
X85600000Y-45575000D01*
D38*
X98148040Y-12100000D02*
X98148040Y-11271880D01*
D39*
X85600000Y-45900000D02*
X85600000Y-46300000D01*
%TO.N,/Output*%
D38*
X108210540Y-77660001D02*
X108250000Y-77660001D01*
%TO.N,+5V*%
X107275000Y-10550000D02*
X107275000Y-9898762D01*
%TO.N,Net-(C3-Pad1)*%
X96800000Y-33925000D02*
X96800000Y-31850000D01*
%TO.N,GND*%
X158248762Y-56600001D02*
X153035540Y-56600001D01*
X106248762Y-56600001D02*
X101035540Y-56600001D01*
%TO.N,Net-(U1A--)*%
X95120540Y-20090000D02*
X95330540Y-20300000D01*
%TO.N,Net-(C3-Pad1)*%
X149200000Y-31850001D02*
X149350000Y-31700001D01*
%TO.N,/Blue*%
X98648040Y-4112500D02*
X98635540Y-4100000D01*
%TO.N,Net-(J2-Pin_2)*%
X168600000Y-75060001D02*
X168600000Y-76897058D01*
%TO.N,Net-(C1-Pad2)*%
X160250000Y-21760001D02*
X160250000Y-21033115D01*
%TO.N,GND*%
D39*
X99100000Y-47200000D02*
X99600000Y-47700000D01*
%TO.N,Net-(U1C-V-)*%
D38*
X147730540Y-30219461D02*
X146250000Y-31700001D01*
%TO.N,/Output*%
X109950000Y-20660000D02*
X107850000Y-18560000D01*
%TO.N,V+*%
D40*
X154000000Y-89575001D02*
X151000000Y-86575001D01*
%TO.N,+5V*%
D38*
X159432106Y-64367895D02*
X159675000Y-64125001D01*
X154500000Y-9400001D02*
X156967894Y-11867895D01*
%TO.N,GND*%
X150548040Y-64600001D02*
X150548040Y-63771881D01*
D39*
X134650000Y-8630001D02*
X134650000Y-6900001D01*
D38*
X86175000Y-11812500D02*
X85262500Y-10900000D01*
%TO.N,Net-(C1-Pad2)*%
X89832000Y-70050001D02*
X95520540Y-70050001D01*
%TO.N,GND*%
D39*
X85200000Y-45900000D02*
X85600000Y-45900000D01*
X99200000Y-100200001D02*
X100000000Y-100200001D01*
D42*
X150000000Y-143500000D02*
X148000000Y-145500000D01*
X150000000Y-142040000D02*
X150000000Y-143500000D01*
%TO.N,/Input*%
X141075000Y-139000000D02*
X141075000Y-138925000D01*
X132500000Y-139460000D02*
X140805000Y-139460000D01*
X140805000Y-139460000D02*
X141075000Y-139190000D01*
%TO.N,GND*%
X143000000Y-145500000D02*
X141075000Y-143575000D01*
%TO.N,/Input*%
X141075000Y-139190000D02*
X141075000Y-139000000D01*
%TO.N,GND*%
X141075000Y-143575000D02*
X141075000Y-142310000D01*
X140885000Y-142310000D02*
X141075000Y-142310000D01*
X148000000Y-145500000D02*
X143000000Y-145500000D01*
%TO.N,/Input*%
X143000000Y-137000000D02*
X147500000Y-137000000D01*
X141075000Y-138925000D02*
X143000000Y-137000000D01*
X147500000Y-137000000D02*
X150000000Y-139500000D01*
%TO.N,Net-(R1-Pad2)*%
X144000000Y-139000000D02*
X144000000Y-142310000D01*
%TO.N,GND*%
X140575000Y-142000000D02*
X140885000Y-142310000D01*
X132500000Y-142000000D02*
X140575000Y-142000000D01*
X149739937Y-119500000D02*
X147739937Y-121500000D01*
X149739937Y-118040000D02*
X149739937Y-119500000D01*
%TO.N,/Input*%
X140814937Y-115000000D02*
X140814937Y-114925000D01*
X132239937Y-115460000D02*
X140544937Y-115460000D01*
X140544937Y-115460000D02*
X140814937Y-115190000D01*
%TO.N,GND*%
X142739937Y-121500000D02*
X140814937Y-119575000D01*
%TO.N,/Input*%
X140814937Y-115190000D02*
X140814937Y-115000000D01*
%TO.N,GND*%
X140814937Y-119575000D02*
X140814937Y-118310000D01*
X140624937Y-118310000D02*
X140814937Y-118310000D01*
X147739937Y-121500000D02*
X142739937Y-121500000D01*
%TO.N,/Input*%
X142739937Y-113000000D02*
X147239937Y-113000000D01*
X140814937Y-114925000D02*
X142739937Y-113000000D01*
X147239937Y-113000000D02*
X149739937Y-115500000D01*
%TO.N,Net-(R1-Pad2)*%
X143739937Y-115000000D02*
X143739937Y-118310000D01*
%TO.N,GND*%
X140314937Y-118000000D02*
X140624937Y-118310000D01*
X132239937Y-118000000D02*
X140314937Y-118000000D01*
X104000000Y-144000000D02*
X102000000Y-146000000D01*
X104000000Y-142540000D02*
X104000000Y-144000000D01*
%TO.N,/Input*%
X95075000Y-139500000D02*
X95075000Y-139425000D01*
X86500000Y-139960000D02*
X94805000Y-139960000D01*
X94805000Y-139960000D02*
X95075000Y-139690000D01*
%TO.N,GND*%
X97000000Y-146000000D02*
X95075000Y-144075000D01*
%TO.N,/Input*%
X95075000Y-139690000D02*
X95075000Y-139500000D01*
%TO.N,GND*%
X95075000Y-144075000D02*
X95075000Y-142810000D01*
X94885000Y-142810000D02*
X95075000Y-142810000D01*
X102000000Y-146000000D02*
X97000000Y-146000000D01*
%TO.N,/Input*%
X97000000Y-137500000D02*
X101500000Y-137500000D01*
X95075000Y-139425000D02*
X97000000Y-137500000D01*
X101500000Y-137500000D02*
X104000000Y-140000000D01*
%TO.N,Net-(R1-Pad2)*%
X98000000Y-139500000D02*
X98000000Y-142810000D01*
%TO.N,GND*%
X94575000Y-142500000D02*
X94885000Y-142810000D01*
X86500000Y-142500000D02*
X94575000Y-142500000D01*
X86500000Y-118000000D02*
X94575000Y-118000000D01*
X94575000Y-118000000D02*
X94885000Y-118310000D01*
X102000000Y-121500000D02*
X97000000Y-121500000D01*
X94885000Y-118310000D02*
X95075000Y-118310000D01*
X95075000Y-119575000D02*
X95075000Y-118310000D01*
X97000000Y-121500000D02*
X95075000Y-119575000D01*
X104000000Y-118040000D02*
X104000000Y-119500000D01*
X104000000Y-119500000D02*
X102000000Y-121500000D01*
%TO.N,/Input*%
X101500000Y-113000000D02*
X104000000Y-115500000D01*
X95075000Y-114925000D02*
X97000000Y-113000000D01*
X97000000Y-113000000D02*
X101500000Y-113000000D01*
X95075000Y-115190000D02*
X95075000Y-115000000D01*
X94805000Y-115460000D02*
X95075000Y-115190000D01*
X86500000Y-115460000D02*
X94805000Y-115460000D01*
X95075000Y-115000000D02*
X95075000Y-114925000D01*
%TO.N,Net-(R1-Pad2)*%
X98000000Y-115000000D02*
X98000000Y-118310000D01*
%TD*%
%TA.AperFunction,Conductor*%
%TO.N,GND*%
G36*
X114442539Y-108520185D02*
G01*
X114488294Y-108572989D01*
X114499500Y-108624500D01*
X114499500Y-112846854D01*
X114479815Y-112913893D01*
X114427011Y-112959648D01*
X114375500Y-112970854D01*
X107949857Y-112970854D01*
X107949857Y-116487622D01*
X114375500Y-116487622D01*
X114384185Y-116490172D01*
X114393147Y-116488884D01*
X114417187Y-116499862D01*
X114442539Y-116507307D01*
X114448466Y-116514147D01*
X114456703Y-116517909D01*
X114470992Y-116540143D01*
X114488294Y-116560111D01*
X114490581Y-116570625D01*
X114494477Y-116576687D01*
X114499500Y-116611622D01*
X114499500Y-116845502D01*
X114479815Y-116912541D01*
X114427011Y-116958296D01*
X114375500Y-116969502D01*
X107949857Y-116969502D01*
X107949857Y-120488974D01*
X114375500Y-120488974D01*
X114442539Y-120508659D01*
X114488294Y-120561463D01*
X114499500Y-120612974D01*
X114499500Y-125875500D01*
X114479815Y-125942539D01*
X114427011Y-125988294D01*
X114375500Y-125999500D01*
X75624500Y-125999500D01*
X75557461Y-125979815D01*
X75511706Y-125927011D01*
X75500500Y-125875500D01*
X75500500Y-123374038D01*
X76399500Y-123374038D01*
X76399500Y-123625961D01*
X76438910Y-123874785D01*
X76516760Y-124114383D01*
X76631132Y-124338848D01*
X76779201Y-124542649D01*
X76779205Y-124542654D01*
X76957345Y-124720794D01*
X76957350Y-124720798D01*
X77135117Y-124849952D01*
X77161155Y-124868870D01*
X77304184Y-124941747D01*
X77385616Y-124983239D01*
X77385618Y-124983239D01*
X77385621Y-124983241D01*
X77625215Y-125061090D01*
X77874038Y-125100500D01*
X77874039Y-125100500D01*
X78125961Y-125100500D01*
X78125962Y-125100500D01*
X78374785Y-125061090D01*
X78614379Y-124983241D01*
X78838845Y-124868870D01*
X79042656Y-124720793D01*
X79220793Y-124542656D01*
X79368870Y-124338845D01*
X79483241Y-124114379D01*
X79561090Y-123874785D01*
X79600500Y-123625962D01*
X79600500Y-123374038D01*
X79561090Y-123125215D01*
X79483241Y-122885621D01*
X79483239Y-122885618D01*
X79483239Y-122885616D01*
X79441747Y-122804184D01*
X79368870Y-122661155D01*
X79349952Y-122635117D01*
X79220798Y-122457350D01*
X79220794Y-122457345D01*
X79042654Y-122279205D01*
X79042649Y-122279201D01*
X78838848Y-122131132D01*
X78838847Y-122131131D01*
X78838845Y-122131130D01*
X78768747Y-122095413D01*
X78614383Y-122016760D01*
X78374785Y-121938910D01*
X78125962Y-121899500D01*
X77874038Y-121899500D01*
X77749626Y-121919205D01*
X77625214Y-121938910D01*
X77385616Y-122016760D01*
X77161151Y-122131132D01*
X76957350Y-122279201D01*
X76957345Y-122279205D01*
X76779205Y-122457345D01*
X76779201Y-122457350D01*
X76631132Y-122661151D01*
X76516760Y-122885616D01*
X76438910Y-123125214D01*
X76399500Y-123374038D01*
X75500500Y-123374038D01*
X75500500Y-116969502D01*
X75949857Y-116969502D01*
X75949857Y-120488974D01*
X82803274Y-120488974D01*
X82803274Y-116969502D01*
X82784111Y-116969502D01*
X82717072Y-116949817D01*
X82671317Y-116897013D01*
X82660111Y-116845502D01*
X82660111Y-114611621D01*
X82679796Y-114544582D01*
X82732600Y-114498827D01*
X82784111Y-114487621D01*
X82920663Y-114487621D01*
X82920663Y-112119983D01*
X84999500Y-112119983D01*
X84999500Y-113720001D01*
X84999501Y-113720018D01*
X85010000Y-113822796D01*
X85010001Y-113822799D01*
X85056520Y-113963181D01*
X85065186Y-113989334D01*
X85157288Y-114138656D01*
X85281344Y-114262712D01*
X85323102Y-114288468D01*
X85329656Y-114292511D01*
X85376381Y-114344459D01*
X85387604Y-114413421D01*
X85359760Y-114477504D01*
X85358615Y-114478759D01*
X85358647Y-114478786D01*
X85355485Y-114482487D01*
X85355483Y-114482490D01*
X85299089Y-114560110D01*
X85216657Y-114673566D01*
X85109433Y-114884003D01*
X85036446Y-115108631D01*
X84999500Y-115341902D01*
X84999500Y-115578097D01*
X85036446Y-115811368D01*
X85109433Y-116035996D01*
X85202022Y-116217710D01*
X85216657Y-116246433D01*
X85355483Y-116437510D01*
X85522490Y-116604517D01*
X85581716Y-116647547D01*
X85624381Y-116702875D01*
X85632448Y-116757593D01*
X85630893Y-116777340D01*
X86288941Y-117435387D01*
X86268409Y-117440889D01*
X86131592Y-117519881D01*
X86019881Y-117631592D01*
X85940889Y-117768409D01*
X85935387Y-117788941D01*
X85277340Y-117130894D01*
X85217084Y-117213830D01*
X85109897Y-117424197D01*
X85036934Y-117648752D01*
X85000000Y-117881947D01*
X85000000Y-118118052D01*
X85036934Y-118351247D01*
X85109897Y-118575802D01*
X85217087Y-118786174D01*
X85277338Y-118869104D01*
X85277340Y-118869105D01*
X85935387Y-118211058D01*
X85940889Y-118231591D01*
X86019881Y-118368408D01*
X86131592Y-118480119D01*
X86268409Y-118559111D01*
X86288940Y-118564612D01*
X85630893Y-119222658D01*
X85713828Y-119282914D01*
X85924197Y-119390102D01*
X86148752Y-119463065D01*
X86148751Y-119463065D01*
X86381948Y-119500000D01*
X86618052Y-119500000D01*
X86851247Y-119463065D01*
X87075802Y-119390102D01*
X87286163Y-119282918D01*
X87286169Y-119282914D01*
X87369104Y-119222658D01*
X87369105Y-119222658D01*
X87131433Y-118984986D01*
X94012501Y-118984986D01*
X94022994Y-119087697D01*
X94078141Y-119254119D01*
X94078143Y-119254124D01*
X94170184Y-119403345D01*
X94294154Y-119527315D01*
X94443375Y-119619356D01*
X94443380Y-119619358D01*
X94609802Y-119674505D01*
X94609809Y-119674506D01*
X94712519Y-119684999D01*
X94824999Y-119684999D01*
X95325000Y-119684999D01*
X95437472Y-119684999D01*
X95437486Y-119684998D01*
X95540197Y-119674505D01*
X95706619Y-119619358D01*
X95706624Y-119619356D01*
X95855845Y-119527315D01*
X95979815Y-119403345D01*
X96071856Y-119254124D01*
X96071858Y-119254119D01*
X96127005Y-119087697D01*
X96127006Y-119087690D01*
X96137499Y-118984986D01*
X96137500Y-118984973D01*
X96137500Y-118560000D01*
X95325000Y-118560000D01*
X95325000Y-119684999D01*
X94824999Y-119684999D01*
X94825000Y-119684998D01*
X94825000Y-118560000D01*
X94012501Y-118560000D01*
X94012501Y-118984986D01*
X87131433Y-118984986D01*
X86711058Y-118564612D01*
X86731591Y-118559111D01*
X86868408Y-118480119D01*
X86980119Y-118368408D01*
X87059111Y-118231591D01*
X87064612Y-118211059D01*
X87722658Y-118869105D01*
X87722658Y-118869104D01*
X87782914Y-118786169D01*
X87782918Y-118786163D01*
X87890102Y-118575802D01*
X87924376Y-118470320D01*
X87924376Y-118470319D01*
X87963065Y-118351245D01*
X88000000Y-118118052D01*
X88000000Y-117881947D01*
X87963463Y-117651262D01*
X87963462Y-117651259D01*
X87963064Y-117648748D01*
X87958601Y-117635013D01*
X94012500Y-117635013D01*
X94012500Y-118060000D01*
X94825000Y-118060000D01*
X95325000Y-118060000D01*
X96137499Y-118060000D01*
X96137499Y-117635028D01*
X96137498Y-117635013D01*
X96127005Y-117532302D01*
X96071858Y-117365880D01*
X96071856Y-117365875D01*
X95979815Y-117216654D01*
X95855845Y-117092684D01*
X95706624Y-117000643D01*
X95706619Y-117000641D01*
X95540197Y-116945494D01*
X95540190Y-116945493D01*
X95437486Y-116935000D01*
X95325000Y-116935000D01*
X95325000Y-118060000D01*
X94825000Y-118060000D01*
X94825000Y-116935000D01*
X94712527Y-116935000D01*
X94712512Y-116935001D01*
X94609802Y-116945494D01*
X94443380Y-117000641D01*
X94443375Y-117000643D01*
X94294154Y-117092684D01*
X94170184Y-117216654D01*
X94078143Y-117365875D01*
X94078141Y-117365880D01*
X94022994Y-117532302D01*
X94022993Y-117532309D01*
X94012500Y-117635013D01*
X87958601Y-117635013D01*
X87890102Y-117424197D01*
X87782914Y-117213828D01*
X87722658Y-117130894D01*
X87722658Y-117130893D01*
X87064612Y-117788940D01*
X87059111Y-117768409D01*
X86980119Y-117631592D01*
X86868408Y-117519881D01*
X86731591Y-117440889D01*
X86711059Y-117435387D01*
X87369105Y-116777340D01*
X87367551Y-116757594D01*
X87368345Y-116753813D01*
X87367190Y-116750129D01*
X87375468Y-116719902D01*
X87381915Y-116689216D01*
X87384922Y-116685385D01*
X87385647Y-116682741D01*
X87394462Y-116673235D01*
X87408269Y-116655650D01*
X87413060Y-116651342D01*
X87477510Y-116604517D01*
X87587543Y-116494483D01*
X87589989Y-116492285D01*
X87618649Y-116478558D01*
X87646531Y-116463334D01*
X87651568Y-116462792D01*
X87653004Y-116462105D01*
X87655294Y-116462391D01*
X87672889Y-116460500D01*
X94903543Y-116460500D01*
X94950403Y-116451178D01*
X95019118Y-116437510D01*
X95096836Y-116422051D01*
X95182347Y-116386631D01*
X95191558Y-116382815D01*
X95196862Y-116381156D01*
X95206284Y-116380989D01*
X95233888Y-116375499D01*
X95437502Y-116375499D01*
X95437508Y-116375499D01*
X95540297Y-116364999D01*
X95706834Y-116309814D01*
X95856156Y-116217712D01*
X95980212Y-116093656D01*
X96072314Y-115944334D01*
X96127499Y-115777797D01*
X96138000Y-115675009D01*
X96137999Y-115328280D01*
X96157683Y-115261242D01*
X96174313Y-115240605D01*
X96725321Y-114689597D01*
X96786642Y-114656114D01*
X96856334Y-114661098D01*
X96912267Y-114702970D01*
X96936684Y-114768434D01*
X96937000Y-114777280D01*
X96937000Y-115675001D01*
X96937001Y-115675018D01*
X96947500Y-115777796D01*
X96947501Y-115777799D01*
X96993206Y-115915725D01*
X96999500Y-115954729D01*
X96999500Y-117355270D01*
X96993206Y-117394273D01*
X96947502Y-117532199D01*
X96947500Y-117532209D01*
X96937000Y-117634983D01*
X96937000Y-118985001D01*
X96937001Y-118985018D01*
X96947500Y-119087796D01*
X96947501Y-119087799D01*
X97002615Y-119254119D01*
X97002686Y-119254334D01*
X97094788Y-119403656D01*
X97218844Y-119527712D01*
X97368166Y-119619814D01*
X97534703Y-119674999D01*
X97637491Y-119685500D01*
X98362508Y-119685499D01*
X98362516Y-119685498D01*
X98362519Y-119685498D01*
X98418802Y-119679748D01*
X98465297Y-119674999D01*
X98631834Y-119619814D01*
X98781156Y-119527712D01*
X98905212Y-119403656D01*
X98997314Y-119254334D01*
X99052499Y-119087797D01*
X99063000Y-118985009D01*
X99062999Y-117634992D01*
X99052499Y-117532203D01*
X99021946Y-117440000D01*
X99006794Y-117394273D01*
X99000500Y-117355269D01*
X99000500Y-115954728D01*
X99006794Y-115915724D01*
X99052499Y-115777797D01*
X99063000Y-115675009D01*
X99062999Y-114324992D01*
X99052499Y-114222203D01*
X99033047Y-114163503D01*
X99030646Y-114093676D01*
X99066378Y-114033634D01*
X99128898Y-114002441D01*
X99150754Y-114000500D01*
X101034218Y-114000500D01*
X101101257Y-114020185D01*
X101121899Y-114036819D01*
X102463181Y-115378101D01*
X102496666Y-115439424D01*
X102499500Y-115465782D01*
X102499500Y-115618097D01*
X102536446Y-115851368D01*
X102609433Y-116075996D01*
X102681641Y-116217710D01*
X102716657Y-116286433D01*
X102855483Y-116477510D01*
X102855489Y-116477516D01*
X102858647Y-116481214D01*
X102856977Y-116482640D01*
X102886089Y-116535954D01*
X102881105Y-116605646D01*
X102839233Y-116661579D01*
X102830022Y-116667850D01*
X102781654Y-116697684D01*
X102657684Y-116821654D01*
X102565643Y-116970875D01*
X102565641Y-116970880D01*
X102510494Y-117137302D01*
X102510493Y-117137309D01*
X102500000Y-117240013D01*
X102500000Y-117790000D01*
X103451518Y-117790000D01*
X103440889Y-117808409D01*
X103400000Y-117961009D01*
X103400000Y-118118991D01*
X103440889Y-118271591D01*
X103451518Y-118290000D01*
X102500001Y-118290000D01*
X102500001Y-118839986D01*
X102510494Y-118942697D01*
X102565641Y-119109119D01*
X102565643Y-119109124D01*
X102657684Y-119258345D01*
X102781654Y-119382315D01*
X102930875Y-119474356D01*
X102930880Y-119474358D01*
X103097302Y-119529505D01*
X103097309Y-119529506D01*
X103200019Y-119539999D01*
X103749999Y-119539999D01*
X103750000Y-119539998D01*
X103750000Y-118588482D01*
X103768409Y-118599111D01*
X103921009Y-118640000D01*
X104078991Y-118640000D01*
X104231591Y-118599111D01*
X104250000Y-118588482D01*
X104250000Y-119539999D01*
X104799972Y-119539999D01*
X104799986Y-119539998D01*
X104902697Y-119529505D01*
X105069119Y-119474358D01*
X105069124Y-119474356D01*
X105218345Y-119382315D01*
X105342315Y-119258345D01*
X105434356Y-119109124D01*
X105434358Y-119109119D01*
X105489505Y-118942697D01*
X105489506Y-118942690D01*
X105499999Y-118839986D01*
X105500000Y-118839973D01*
X105500000Y-118290000D01*
X104548482Y-118290000D01*
X104559111Y-118271591D01*
X104600000Y-118118991D01*
X104600000Y-117961009D01*
X104559111Y-117808409D01*
X104548482Y-117790000D01*
X105499999Y-117790000D01*
X105499999Y-117240028D01*
X105499998Y-117240013D01*
X105489505Y-117137302D01*
X105434358Y-116970880D01*
X105434356Y-116970875D01*
X105342315Y-116821654D01*
X105218343Y-116697682D01*
X105169980Y-116667852D01*
X105123255Y-116615904D01*
X105112032Y-116546942D01*
X105139876Y-116482859D01*
X105141362Y-116481233D01*
X105141348Y-116481221D01*
X105144511Y-116477516D01*
X105144517Y-116477510D01*
X105283343Y-116286433D01*
X105390568Y-116075992D01*
X105463553Y-115851368D01*
X105475205Y-115777799D01*
X105500500Y-115618097D01*
X105500500Y-115381902D01*
X105463553Y-115148631D01*
X105390566Y-114924003D01*
X105283342Y-114713566D01*
X105144517Y-114522490D01*
X104977510Y-114355483D01*
X104786433Y-114216657D01*
X104575996Y-114109433D01*
X104351368Y-114036446D01*
X104118097Y-113999500D01*
X104118092Y-113999500D01*
X103965782Y-113999500D01*
X103898743Y-113979815D01*
X103878101Y-113963181D01*
X102281479Y-112366559D01*
X102281459Y-112366537D01*
X102137785Y-112222863D01*
X102137781Y-112222860D01*
X101973920Y-112113371D01*
X101973911Y-112113366D01*
X101852255Y-112062975D01*
X101852256Y-112062975D01*
X101845165Y-112060038D01*
X101791836Y-112037949D01*
X101687539Y-112017203D01*
X101683107Y-112016321D01*
X101683102Y-112016320D01*
X101598543Y-111999500D01*
X101598541Y-111999500D01*
X96901459Y-111999500D01*
X96901457Y-111999500D01*
X96842127Y-112011302D01*
X96812461Y-112017203D01*
X96708167Y-112037947D01*
X96708159Y-112037950D01*
X96654834Y-112060037D01*
X96654834Y-112060038D01*
X96647744Y-112062975D01*
X96526089Y-112113366D01*
X96526079Y-112113371D01*
X96362219Y-112222859D01*
X96292540Y-112292538D01*
X96222861Y-112362218D01*
X96222858Y-112362221D01*
X94996897Y-113588181D01*
X94935574Y-113621666D01*
X94909217Y-113624500D01*
X94712499Y-113624500D01*
X94712480Y-113624501D01*
X94609703Y-113635000D01*
X94609700Y-113635001D01*
X94443168Y-113690185D01*
X94443163Y-113690187D01*
X94293842Y-113782289D01*
X94169789Y-113906342D01*
X94077687Y-114055663D01*
X94077686Y-114055666D01*
X94022501Y-114222203D01*
X94022501Y-114222204D01*
X94022500Y-114222204D01*
X94012000Y-114324983D01*
X94012000Y-114335500D01*
X93992315Y-114402539D01*
X93939511Y-114448294D01*
X93888000Y-114459500D01*
X87821230Y-114459500D01*
X87754191Y-114439815D01*
X87708436Y-114387011D01*
X87698492Y-114317853D01*
X87727517Y-114254297D01*
X87733549Y-114247819D01*
X87764711Y-114216657D01*
X87842712Y-114138656D01*
X87934814Y-113989334D01*
X87989999Y-113822797D01*
X88000500Y-113720009D01*
X88000499Y-112119992D01*
X87989999Y-112017203D01*
X87934814Y-111850666D01*
X87842712Y-111701344D01*
X87718656Y-111577288D01*
X87569334Y-111485186D01*
X87402797Y-111430001D01*
X87402795Y-111430000D01*
X87300010Y-111419500D01*
X85699998Y-111419500D01*
X85699981Y-111419501D01*
X85597203Y-111430000D01*
X85597200Y-111430001D01*
X85430668Y-111485185D01*
X85430663Y-111485187D01*
X85281342Y-111577289D01*
X85157289Y-111701342D01*
X85065187Y-111850663D01*
X85065185Y-111850668D01*
X85010001Y-112017203D01*
X84999500Y-112119983D01*
X82920663Y-112119983D01*
X82920663Y-110968935D01*
X76451515Y-110968935D01*
X76451515Y-114487621D01*
X78925637Y-114487621D01*
X78992676Y-114507306D01*
X79038431Y-114560110D01*
X79049637Y-114611621D01*
X79049637Y-116845502D01*
X79029952Y-116912541D01*
X78977148Y-116958296D01*
X78925637Y-116969502D01*
X75949857Y-116969502D01*
X75500500Y-116969502D01*
X75500500Y-110874038D01*
X110399500Y-110874038D01*
X110399500Y-111125961D01*
X110438910Y-111374785D01*
X110516760Y-111614383D01*
X110631132Y-111838848D01*
X110779201Y-112042649D01*
X110779205Y-112042654D01*
X110957345Y-112220794D01*
X110957350Y-112220798D01*
X111135117Y-112349952D01*
X111161155Y-112368870D01*
X111304184Y-112441747D01*
X111385616Y-112483239D01*
X111385618Y-112483239D01*
X111385621Y-112483241D01*
X111625215Y-112561090D01*
X111874038Y-112600500D01*
X111874039Y-112600500D01*
X112125961Y-112600500D01*
X112125962Y-112600500D01*
X112374785Y-112561090D01*
X112614379Y-112483241D01*
X112838845Y-112368870D01*
X113042656Y-112220793D01*
X113220793Y-112042656D01*
X113368870Y-111838845D01*
X113483241Y-111614379D01*
X113561090Y-111374785D01*
X113600500Y-111125962D01*
X113600500Y-110874038D01*
X113561090Y-110625215D01*
X113483241Y-110385621D01*
X113483239Y-110385618D01*
X113483239Y-110385616D01*
X113441747Y-110304184D01*
X113368870Y-110161155D01*
X113349952Y-110135117D01*
X113220798Y-109957350D01*
X113220794Y-109957345D01*
X113042654Y-109779205D01*
X113042649Y-109779201D01*
X112838848Y-109631132D01*
X112838847Y-109631131D01*
X112838845Y-109631130D01*
X112768747Y-109595413D01*
X112614383Y-109516760D01*
X112374785Y-109438910D01*
X112125962Y-109399500D01*
X111874038Y-109399500D01*
X111749626Y-109419205D01*
X111625214Y-109438910D01*
X111385616Y-109516760D01*
X111161151Y-109631132D01*
X110957350Y-109779201D01*
X110957345Y-109779205D01*
X110779205Y-109957345D01*
X110779201Y-109957350D01*
X110631132Y-110161151D01*
X110516760Y-110385616D01*
X110438910Y-110625214D01*
X110399500Y-110874038D01*
X75500500Y-110874038D01*
X75500500Y-108624500D01*
X75520185Y-108557461D01*
X75572989Y-108511706D01*
X75624500Y-108500500D01*
X114375500Y-108500500D01*
X114442539Y-108520185D01*
G37*
%TD.AperFunction*%
%TD*%
%TA.AperFunction,Conductor*%
%TO.N,GND*%
G36*
X114442539Y-133020185D02*
G01*
X114488294Y-133072989D01*
X114499500Y-133124500D01*
X114499500Y-137346854D01*
X114479815Y-137413893D01*
X114427011Y-137459648D01*
X114375500Y-137470854D01*
X107949857Y-137470854D01*
X107949857Y-140987622D01*
X114375500Y-140987622D01*
X114384185Y-140990172D01*
X114393147Y-140988884D01*
X114417187Y-140999862D01*
X114442539Y-141007307D01*
X114448466Y-141014147D01*
X114456703Y-141017909D01*
X114470992Y-141040143D01*
X114488294Y-141060111D01*
X114490581Y-141070625D01*
X114494477Y-141076687D01*
X114499500Y-141111622D01*
X114499500Y-141345502D01*
X114479815Y-141412541D01*
X114427011Y-141458296D01*
X114375500Y-141469502D01*
X107949857Y-141469502D01*
X107949857Y-144988974D01*
X114375500Y-144988974D01*
X114442539Y-145008659D01*
X114488294Y-145061463D01*
X114499500Y-145112974D01*
X114499500Y-150375500D01*
X114479815Y-150442539D01*
X114427011Y-150488294D01*
X114375500Y-150499500D01*
X75624500Y-150499500D01*
X75557461Y-150479815D01*
X75511706Y-150427011D01*
X75500500Y-150375500D01*
X75500500Y-147874038D01*
X76399500Y-147874038D01*
X76399500Y-148125961D01*
X76438910Y-148374785D01*
X76516760Y-148614383D01*
X76631132Y-148838848D01*
X76779201Y-149042649D01*
X76779205Y-149042654D01*
X76957345Y-149220794D01*
X76957350Y-149220798D01*
X77135117Y-149349952D01*
X77161155Y-149368870D01*
X77304184Y-149441747D01*
X77385616Y-149483239D01*
X77385618Y-149483239D01*
X77385621Y-149483241D01*
X77625215Y-149561090D01*
X77874038Y-149600500D01*
X77874039Y-149600500D01*
X78125961Y-149600500D01*
X78125962Y-149600500D01*
X78374785Y-149561090D01*
X78614379Y-149483241D01*
X78838845Y-149368870D01*
X79042656Y-149220793D01*
X79220793Y-149042656D01*
X79368870Y-148838845D01*
X79483241Y-148614379D01*
X79561090Y-148374785D01*
X79600500Y-148125962D01*
X79600500Y-147874038D01*
X79561090Y-147625215D01*
X79483241Y-147385621D01*
X79483239Y-147385618D01*
X79483239Y-147385616D01*
X79441747Y-147304184D01*
X79368870Y-147161155D01*
X79349952Y-147135117D01*
X79220798Y-146957350D01*
X79220794Y-146957345D01*
X79042654Y-146779205D01*
X79042649Y-146779201D01*
X78838848Y-146631132D01*
X78838847Y-146631131D01*
X78838845Y-146631130D01*
X78768747Y-146595413D01*
X78614383Y-146516760D01*
X78374785Y-146438910D01*
X78125962Y-146399500D01*
X77874038Y-146399500D01*
X77749626Y-146419205D01*
X77625214Y-146438910D01*
X77385616Y-146516760D01*
X77161151Y-146631132D01*
X76957350Y-146779201D01*
X76957345Y-146779205D01*
X76779205Y-146957345D01*
X76779201Y-146957350D01*
X76631132Y-147161151D01*
X76516760Y-147385616D01*
X76438910Y-147625214D01*
X76399500Y-147874038D01*
X75500500Y-147874038D01*
X75500500Y-141469502D01*
X75949857Y-141469502D01*
X75949857Y-144988974D01*
X82803274Y-144988974D01*
X82803274Y-141469502D01*
X82784111Y-141469502D01*
X82717072Y-141449817D01*
X82671317Y-141397013D01*
X82660111Y-141345502D01*
X82660111Y-139111621D01*
X82679796Y-139044582D01*
X82732600Y-138998827D01*
X82784111Y-138987621D01*
X82920663Y-138987621D01*
X82920663Y-136619983D01*
X84999500Y-136619983D01*
X84999500Y-138220001D01*
X84999501Y-138220018D01*
X85010000Y-138322796D01*
X85010001Y-138322799D01*
X85056520Y-138463181D01*
X85065186Y-138489334D01*
X85157288Y-138638656D01*
X85281344Y-138762712D01*
X85323102Y-138788468D01*
X85329656Y-138792511D01*
X85376381Y-138844459D01*
X85387604Y-138913421D01*
X85359760Y-138977504D01*
X85358615Y-138978759D01*
X85358647Y-138978786D01*
X85355485Y-138982487D01*
X85355483Y-138982490D01*
X85299089Y-139060110D01*
X85216657Y-139173566D01*
X85109433Y-139384003D01*
X85036446Y-139608631D01*
X84999500Y-139841902D01*
X84999500Y-140078097D01*
X85036446Y-140311368D01*
X85109433Y-140535996D01*
X85202022Y-140717710D01*
X85216657Y-140746433D01*
X85355483Y-140937510D01*
X85522490Y-141104517D01*
X85581716Y-141147547D01*
X85624381Y-141202875D01*
X85632448Y-141257593D01*
X85630893Y-141277340D01*
X86288941Y-141935387D01*
X86268409Y-141940889D01*
X86131592Y-142019881D01*
X86019881Y-142131592D01*
X85940889Y-142268409D01*
X85935387Y-142288941D01*
X85277340Y-141630894D01*
X85217084Y-141713830D01*
X85109897Y-141924197D01*
X85036934Y-142148752D01*
X85000000Y-142381947D01*
X85000000Y-142618052D01*
X85036934Y-142851247D01*
X85109897Y-143075802D01*
X85217087Y-143286174D01*
X85277338Y-143369104D01*
X85277340Y-143369105D01*
X85935387Y-142711058D01*
X85940889Y-142731591D01*
X86019881Y-142868408D01*
X86131592Y-142980119D01*
X86268409Y-143059111D01*
X86288940Y-143064612D01*
X85630893Y-143722658D01*
X85713828Y-143782914D01*
X85924197Y-143890102D01*
X86148752Y-143963065D01*
X86148751Y-143963065D01*
X86381948Y-144000000D01*
X86618052Y-144000000D01*
X86851247Y-143963065D01*
X87075802Y-143890102D01*
X87286163Y-143782918D01*
X87286169Y-143782914D01*
X87369104Y-143722658D01*
X87369105Y-143722658D01*
X87131433Y-143484986D01*
X94012501Y-143484986D01*
X94022994Y-143587697D01*
X94078141Y-143754119D01*
X94078143Y-143754124D01*
X94170184Y-143903345D01*
X94294154Y-144027315D01*
X94443375Y-144119356D01*
X94443380Y-144119358D01*
X94609802Y-144174505D01*
X94609809Y-144174506D01*
X94712519Y-144184999D01*
X94824999Y-144184999D01*
X95325000Y-144184999D01*
X95437472Y-144184999D01*
X95437486Y-144184998D01*
X95540197Y-144174505D01*
X95706619Y-144119358D01*
X95706624Y-144119356D01*
X95855845Y-144027315D01*
X95979815Y-143903345D01*
X96071856Y-143754124D01*
X96071858Y-143754119D01*
X96127005Y-143587697D01*
X96127006Y-143587690D01*
X96137499Y-143484986D01*
X96137500Y-143484973D01*
X96137500Y-143060000D01*
X95325000Y-143060000D01*
X95325000Y-144184999D01*
X94824999Y-144184999D01*
X94825000Y-144184998D01*
X94825000Y-143060000D01*
X94012501Y-143060000D01*
X94012501Y-143484986D01*
X87131433Y-143484986D01*
X86711058Y-143064612D01*
X86731591Y-143059111D01*
X86868408Y-142980119D01*
X86980119Y-142868408D01*
X87059111Y-142731591D01*
X87064612Y-142711059D01*
X87722658Y-143369105D01*
X87722658Y-143369104D01*
X87782914Y-143286169D01*
X87782918Y-143286163D01*
X87890102Y-143075802D01*
X87924376Y-142970320D01*
X87924376Y-142970319D01*
X87963065Y-142851245D01*
X88000000Y-142618052D01*
X88000000Y-142381947D01*
X87963463Y-142151262D01*
X87963462Y-142151259D01*
X87963064Y-142148748D01*
X87958601Y-142135013D01*
X94012500Y-142135013D01*
X94012500Y-142560000D01*
X94825000Y-142560000D01*
X95325000Y-142560000D01*
X96137499Y-142560000D01*
X96137499Y-142135028D01*
X96137498Y-142135013D01*
X96127005Y-142032302D01*
X96071858Y-141865880D01*
X96071856Y-141865875D01*
X95979815Y-141716654D01*
X95855845Y-141592684D01*
X95706624Y-141500643D01*
X95706619Y-141500641D01*
X95540197Y-141445494D01*
X95540190Y-141445493D01*
X95437486Y-141435000D01*
X95325000Y-141435000D01*
X95325000Y-142560000D01*
X94825000Y-142560000D01*
X94825000Y-141435000D01*
X94712527Y-141435000D01*
X94712512Y-141435001D01*
X94609802Y-141445494D01*
X94443380Y-141500641D01*
X94443375Y-141500643D01*
X94294154Y-141592684D01*
X94170184Y-141716654D01*
X94078143Y-141865875D01*
X94078141Y-141865880D01*
X94022994Y-142032302D01*
X94022993Y-142032309D01*
X94012500Y-142135013D01*
X87958601Y-142135013D01*
X87890102Y-141924197D01*
X87782914Y-141713828D01*
X87722658Y-141630894D01*
X87722658Y-141630893D01*
X87064612Y-142288940D01*
X87059111Y-142268409D01*
X86980119Y-142131592D01*
X86868408Y-142019881D01*
X86731591Y-141940889D01*
X86711059Y-141935387D01*
X87369105Y-141277340D01*
X87367551Y-141257594D01*
X87368345Y-141253813D01*
X87367190Y-141250129D01*
X87375468Y-141219902D01*
X87381915Y-141189216D01*
X87384922Y-141185385D01*
X87385647Y-141182741D01*
X87394462Y-141173235D01*
X87408269Y-141155650D01*
X87413060Y-141151342D01*
X87477510Y-141104517D01*
X87587543Y-140994483D01*
X87589989Y-140992285D01*
X87618649Y-140978558D01*
X87646531Y-140963334D01*
X87651568Y-140962792D01*
X87653004Y-140962105D01*
X87655294Y-140962391D01*
X87672889Y-140960500D01*
X94903543Y-140960500D01*
X94950403Y-140951178D01*
X95019118Y-140937510D01*
X95096836Y-140922051D01*
X95182347Y-140886631D01*
X95191558Y-140882815D01*
X95196862Y-140881156D01*
X95206284Y-140880989D01*
X95233888Y-140875499D01*
X95437502Y-140875499D01*
X95437508Y-140875499D01*
X95540297Y-140864999D01*
X95706834Y-140809814D01*
X95856156Y-140717712D01*
X95980212Y-140593656D01*
X96072314Y-140444334D01*
X96127499Y-140277797D01*
X96138000Y-140175009D01*
X96137999Y-139828280D01*
X96157683Y-139761242D01*
X96174313Y-139740605D01*
X96725321Y-139189597D01*
X96786642Y-139156114D01*
X96856334Y-139161098D01*
X96912267Y-139202970D01*
X96936684Y-139268434D01*
X96937000Y-139277280D01*
X96937000Y-140175001D01*
X96937001Y-140175018D01*
X96947500Y-140277796D01*
X96947501Y-140277799D01*
X96993206Y-140415725D01*
X96999500Y-140454729D01*
X96999500Y-141855270D01*
X96993206Y-141894273D01*
X96947502Y-142032199D01*
X96947500Y-142032209D01*
X96937000Y-142134983D01*
X96937000Y-143485001D01*
X96937001Y-143485018D01*
X96947500Y-143587796D01*
X96947501Y-143587799D01*
X97002615Y-143754119D01*
X97002686Y-143754334D01*
X97094788Y-143903656D01*
X97218844Y-144027712D01*
X97368166Y-144119814D01*
X97534703Y-144174999D01*
X97637491Y-144185500D01*
X98362508Y-144185499D01*
X98362516Y-144185498D01*
X98362519Y-144185498D01*
X98418802Y-144179748D01*
X98465297Y-144174999D01*
X98631834Y-144119814D01*
X98781156Y-144027712D01*
X98905212Y-143903656D01*
X98997314Y-143754334D01*
X99052499Y-143587797D01*
X99063000Y-143485009D01*
X99062999Y-142134992D01*
X99052499Y-142032203D01*
X99021946Y-141940000D01*
X99006794Y-141894273D01*
X99000500Y-141855269D01*
X99000500Y-140454728D01*
X99006794Y-140415724D01*
X99052499Y-140277797D01*
X99063000Y-140175009D01*
X99062999Y-138824992D01*
X99052499Y-138722203D01*
X99033047Y-138663503D01*
X99030646Y-138593676D01*
X99066378Y-138533634D01*
X99128898Y-138502441D01*
X99150754Y-138500500D01*
X101034218Y-138500500D01*
X101101257Y-138520185D01*
X101121899Y-138536819D01*
X102463181Y-139878101D01*
X102496666Y-139939424D01*
X102499500Y-139965782D01*
X102499500Y-140118097D01*
X102536446Y-140351368D01*
X102609433Y-140575996D01*
X102681641Y-140717710D01*
X102716657Y-140786433D01*
X102855483Y-140977510D01*
X102855489Y-140977516D01*
X102858647Y-140981214D01*
X102856977Y-140982640D01*
X102886089Y-141035954D01*
X102881105Y-141105646D01*
X102839233Y-141161579D01*
X102830022Y-141167850D01*
X102781654Y-141197684D01*
X102657684Y-141321654D01*
X102565643Y-141470875D01*
X102565641Y-141470880D01*
X102510494Y-141637302D01*
X102510493Y-141637309D01*
X102500000Y-141740013D01*
X102500000Y-142290000D01*
X103451518Y-142290000D01*
X103440889Y-142308409D01*
X103400000Y-142461009D01*
X103400000Y-142618991D01*
X103440889Y-142771591D01*
X103451518Y-142790000D01*
X102500001Y-142790000D01*
X102500001Y-143339986D01*
X102510494Y-143442697D01*
X102565641Y-143609119D01*
X102565643Y-143609124D01*
X102657684Y-143758345D01*
X102781654Y-143882315D01*
X102930875Y-143974356D01*
X102930880Y-143974358D01*
X103097302Y-144029505D01*
X103097309Y-144029506D01*
X103200019Y-144039999D01*
X103749999Y-144039999D01*
X103750000Y-144039998D01*
X103750000Y-143088482D01*
X103768409Y-143099111D01*
X103921009Y-143140000D01*
X104078991Y-143140000D01*
X104231591Y-143099111D01*
X104250000Y-143088482D01*
X104250000Y-144039999D01*
X104799972Y-144039999D01*
X104799986Y-144039998D01*
X104902697Y-144029505D01*
X105069119Y-143974358D01*
X105069124Y-143974356D01*
X105218345Y-143882315D01*
X105342315Y-143758345D01*
X105434356Y-143609124D01*
X105434358Y-143609119D01*
X105489505Y-143442697D01*
X105489506Y-143442690D01*
X105499999Y-143339986D01*
X105500000Y-143339973D01*
X105500000Y-142790000D01*
X104548482Y-142790000D01*
X104559111Y-142771591D01*
X104600000Y-142618991D01*
X104600000Y-142461009D01*
X104559111Y-142308409D01*
X104548482Y-142290000D01*
X105499999Y-142290000D01*
X105499999Y-141740028D01*
X105499998Y-141740013D01*
X105489505Y-141637302D01*
X105434358Y-141470880D01*
X105434356Y-141470875D01*
X105342315Y-141321654D01*
X105218343Y-141197682D01*
X105169980Y-141167852D01*
X105123255Y-141115904D01*
X105112032Y-141046942D01*
X105139876Y-140982859D01*
X105141362Y-140981233D01*
X105141348Y-140981221D01*
X105144511Y-140977516D01*
X105144517Y-140977510D01*
X105283343Y-140786433D01*
X105390568Y-140575992D01*
X105463553Y-140351368D01*
X105475205Y-140277799D01*
X105500500Y-140118097D01*
X105500500Y-139881902D01*
X105463553Y-139648631D01*
X105390566Y-139424003D01*
X105283342Y-139213566D01*
X105144517Y-139022490D01*
X104977510Y-138855483D01*
X104786433Y-138716657D01*
X104575996Y-138609433D01*
X104351368Y-138536446D01*
X104118097Y-138499500D01*
X104118092Y-138499500D01*
X103965782Y-138499500D01*
X103898743Y-138479815D01*
X103878101Y-138463181D01*
X102281479Y-136866559D01*
X102281459Y-136866537D01*
X102137785Y-136722863D01*
X102137781Y-136722860D01*
X101973920Y-136613371D01*
X101973911Y-136613366D01*
X101852255Y-136562975D01*
X101852256Y-136562975D01*
X101845165Y-136560038D01*
X101791836Y-136537949D01*
X101687539Y-136517203D01*
X101683107Y-136516321D01*
X101683102Y-136516320D01*
X101598543Y-136499500D01*
X101598541Y-136499500D01*
X96901459Y-136499500D01*
X96901457Y-136499500D01*
X96842127Y-136511302D01*
X96812461Y-136517203D01*
X96708167Y-136537947D01*
X96708159Y-136537950D01*
X96654834Y-136560037D01*
X96654834Y-136560038D01*
X96647744Y-136562975D01*
X96526089Y-136613366D01*
X96526079Y-136613371D01*
X96362219Y-136722859D01*
X96292540Y-136792538D01*
X96222861Y-136862218D01*
X96222858Y-136862221D01*
X94996897Y-138088181D01*
X94935574Y-138121666D01*
X94909217Y-138124500D01*
X94712499Y-138124500D01*
X94712480Y-138124501D01*
X94609703Y-138135000D01*
X94609700Y-138135001D01*
X94443168Y-138190185D01*
X94443163Y-138190187D01*
X94293842Y-138282289D01*
X94169789Y-138406342D01*
X94077687Y-138555663D01*
X94077686Y-138555666D01*
X94022501Y-138722203D01*
X94022501Y-138722204D01*
X94022500Y-138722204D01*
X94012000Y-138824983D01*
X94012000Y-138835500D01*
X93992315Y-138902539D01*
X93939511Y-138948294D01*
X93888000Y-138959500D01*
X87821230Y-138959500D01*
X87754191Y-138939815D01*
X87708436Y-138887011D01*
X87698492Y-138817853D01*
X87727517Y-138754297D01*
X87733549Y-138747819D01*
X87764711Y-138716657D01*
X87842712Y-138638656D01*
X87934814Y-138489334D01*
X87989999Y-138322797D01*
X88000500Y-138220009D01*
X88000499Y-136619992D01*
X87989999Y-136517203D01*
X87934814Y-136350666D01*
X87842712Y-136201344D01*
X87718656Y-136077288D01*
X87569334Y-135985186D01*
X87402797Y-135930001D01*
X87402795Y-135930000D01*
X87300010Y-135919500D01*
X85699998Y-135919500D01*
X85699981Y-135919501D01*
X85597203Y-135930000D01*
X85597200Y-135930001D01*
X85430668Y-135985185D01*
X85430663Y-135985187D01*
X85281342Y-136077289D01*
X85157289Y-136201342D01*
X85065187Y-136350663D01*
X85065185Y-136350668D01*
X85010001Y-136517203D01*
X84999500Y-136619983D01*
X82920663Y-136619983D01*
X82920663Y-135468935D01*
X76451515Y-135468935D01*
X76451515Y-138987621D01*
X78925637Y-138987621D01*
X78992676Y-139007306D01*
X79038431Y-139060110D01*
X79049637Y-139111621D01*
X79049637Y-141345502D01*
X79029952Y-141412541D01*
X78977148Y-141458296D01*
X78925637Y-141469502D01*
X75949857Y-141469502D01*
X75500500Y-141469502D01*
X75500500Y-135374038D01*
X110399500Y-135374038D01*
X110399500Y-135625961D01*
X110438910Y-135874785D01*
X110516760Y-136114383D01*
X110631132Y-136338848D01*
X110779201Y-136542649D01*
X110779205Y-136542654D01*
X110957345Y-136720794D01*
X110957350Y-136720798D01*
X111135117Y-136849952D01*
X111161155Y-136868870D01*
X111304184Y-136941747D01*
X111385616Y-136983239D01*
X111385618Y-136983239D01*
X111385621Y-136983241D01*
X111625215Y-137061090D01*
X111874038Y-137100500D01*
X111874039Y-137100500D01*
X112125961Y-137100500D01*
X112125962Y-137100500D01*
X112374785Y-137061090D01*
X112614379Y-136983241D01*
X112838845Y-136868870D01*
X113042656Y-136720793D01*
X113220793Y-136542656D01*
X113368870Y-136338845D01*
X113483241Y-136114379D01*
X113561090Y-135874785D01*
X113600500Y-135625962D01*
X113600500Y-135374038D01*
X113561090Y-135125215D01*
X113483241Y-134885621D01*
X113483239Y-134885618D01*
X113483239Y-134885616D01*
X113441747Y-134804184D01*
X113368870Y-134661155D01*
X113349952Y-134635117D01*
X113220798Y-134457350D01*
X113220794Y-134457345D01*
X113042654Y-134279205D01*
X113042649Y-134279201D01*
X112838848Y-134131132D01*
X112838847Y-134131131D01*
X112838845Y-134131130D01*
X112768747Y-134095413D01*
X112614383Y-134016760D01*
X112374785Y-133938910D01*
X112125962Y-133899500D01*
X111874038Y-133899500D01*
X111749626Y-133919205D01*
X111625214Y-133938910D01*
X111385616Y-134016760D01*
X111161151Y-134131132D01*
X110957350Y-134279201D01*
X110957345Y-134279205D01*
X110779205Y-134457345D01*
X110779201Y-134457350D01*
X110631132Y-134661151D01*
X110516760Y-134885616D01*
X110438910Y-135125214D01*
X110399500Y-135374038D01*
X75500500Y-135374038D01*
X75500500Y-133124500D01*
X75520185Y-133057461D01*
X75572989Y-133011706D01*
X75624500Y-133000500D01*
X114375500Y-133000500D01*
X114442539Y-133020185D01*
G37*
%TD.AperFunction*%
%TD*%
%TA.AperFunction,Conductor*%
%TO.N,GND*%
G36*
X160182476Y-108520185D02*
G01*
X160228231Y-108572989D01*
X160239437Y-108624500D01*
X160239437Y-112846854D01*
X160219752Y-112913893D01*
X160166948Y-112959648D01*
X160115437Y-112970854D01*
X153689794Y-112970854D01*
X153689794Y-116487622D01*
X160115437Y-116487622D01*
X160124122Y-116490172D01*
X160133084Y-116488884D01*
X160157124Y-116499862D01*
X160182476Y-116507307D01*
X160188403Y-116514147D01*
X160196640Y-116517909D01*
X160210929Y-116540143D01*
X160228231Y-116560111D01*
X160230518Y-116570625D01*
X160234414Y-116576687D01*
X160239437Y-116611622D01*
X160239437Y-116845502D01*
X160219752Y-116912541D01*
X160166948Y-116958296D01*
X160115437Y-116969502D01*
X153689794Y-116969502D01*
X153689794Y-120488974D01*
X160115437Y-120488974D01*
X160182476Y-120508659D01*
X160228231Y-120561463D01*
X160239437Y-120612974D01*
X160239437Y-125875500D01*
X160219752Y-125942539D01*
X160166948Y-125988294D01*
X160115437Y-125999500D01*
X121364437Y-125999500D01*
X121297398Y-125979815D01*
X121251643Y-125927011D01*
X121240437Y-125875500D01*
X121240437Y-123374038D01*
X122139437Y-123374038D01*
X122139437Y-123625961D01*
X122178847Y-123874785D01*
X122256697Y-124114383D01*
X122371069Y-124338848D01*
X122519138Y-124542649D01*
X122519142Y-124542654D01*
X122697282Y-124720794D01*
X122697287Y-124720798D01*
X122875054Y-124849952D01*
X122901092Y-124868870D01*
X123044121Y-124941747D01*
X123125553Y-124983239D01*
X123125555Y-124983239D01*
X123125558Y-124983241D01*
X123365152Y-125061090D01*
X123613975Y-125100500D01*
X123613976Y-125100500D01*
X123865898Y-125100500D01*
X123865899Y-125100500D01*
X124114722Y-125061090D01*
X124354316Y-124983241D01*
X124578782Y-124868870D01*
X124782593Y-124720793D01*
X124960730Y-124542656D01*
X125108807Y-124338845D01*
X125223178Y-124114379D01*
X125301027Y-123874785D01*
X125340437Y-123625962D01*
X125340437Y-123374038D01*
X125301027Y-123125215D01*
X125223178Y-122885621D01*
X125223176Y-122885618D01*
X125223176Y-122885616D01*
X125181684Y-122804184D01*
X125108807Y-122661155D01*
X125089889Y-122635117D01*
X124960735Y-122457350D01*
X124960731Y-122457345D01*
X124782591Y-122279205D01*
X124782586Y-122279201D01*
X124578785Y-122131132D01*
X124578784Y-122131131D01*
X124578782Y-122131130D01*
X124508684Y-122095413D01*
X124354320Y-122016760D01*
X124114722Y-121938910D01*
X123865899Y-121899500D01*
X123613975Y-121899500D01*
X123489563Y-121919205D01*
X123365151Y-121938910D01*
X123125553Y-122016760D01*
X122901088Y-122131132D01*
X122697287Y-122279201D01*
X122697282Y-122279205D01*
X122519142Y-122457345D01*
X122519138Y-122457350D01*
X122371069Y-122661151D01*
X122256697Y-122885616D01*
X122178847Y-123125214D01*
X122139437Y-123374038D01*
X121240437Y-123374038D01*
X121240437Y-116969502D01*
X121689794Y-116969502D01*
X121689794Y-120488974D01*
X128543211Y-120488974D01*
X128543211Y-116969502D01*
X128524048Y-116969502D01*
X128457009Y-116949817D01*
X128411254Y-116897013D01*
X128400048Y-116845502D01*
X128400048Y-114611621D01*
X128419733Y-114544582D01*
X128472537Y-114498827D01*
X128524048Y-114487621D01*
X128660600Y-114487621D01*
X128660600Y-112119983D01*
X130739437Y-112119983D01*
X130739437Y-113720001D01*
X130739438Y-113720018D01*
X130749937Y-113822796D01*
X130749938Y-113822799D01*
X130796457Y-113963181D01*
X130805123Y-113989334D01*
X130897225Y-114138656D01*
X131021281Y-114262712D01*
X131063039Y-114288468D01*
X131069593Y-114292511D01*
X131116318Y-114344459D01*
X131127541Y-114413421D01*
X131099697Y-114477504D01*
X131098552Y-114478759D01*
X131098584Y-114478786D01*
X131095422Y-114482487D01*
X131095420Y-114482490D01*
X131039026Y-114560110D01*
X130956594Y-114673566D01*
X130849370Y-114884003D01*
X130776383Y-115108631D01*
X130739437Y-115341902D01*
X130739437Y-115578097D01*
X130776383Y-115811368D01*
X130849370Y-116035996D01*
X130941959Y-116217710D01*
X130956594Y-116246433D01*
X131095420Y-116437510D01*
X131262427Y-116604517D01*
X131321653Y-116647547D01*
X131364318Y-116702875D01*
X131372385Y-116757593D01*
X131370830Y-116777340D01*
X132028878Y-117435387D01*
X132008346Y-117440889D01*
X131871529Y-117519881D01*
X131759818Y-117631592D01*
X131680826Y-117768409D01*
X131675324Y-117788941D01*
X131017277Y-117130894D01*
X130957021Y-117213830D01*
X130849834Y-117424197D01*
X130776871Y-117648752D01*
X130739937Y-117881947D01*
X130739937Y-118118052D01*
X130776871Y-118351247D01*
X130849834Y-118575802D01*
X130957024Y-118786174D01*
X131017275Y-118869104D01*
X131017277Y-118869105D01*
X131675324Y-118211058D01*
X131680826Y-118231591D01*
X131759818Y-118368408D01*
X131871529Y-118480119D01*
X132008346Y-118559111D01*
X132028877Y-118564612D01*
X131370830Y-119222658D01*
X131453765Y-119282914D01*
X131664134Y-119390102D01*
X131888689Y-119463065D01*
X131888688Y-119463065D01*
X132121885Y-119500000D01*
X132357989Y-119500000D01*
X132591184Y-119463065D01*
X132815739Y-119390102D01*
X133026100Y-119282918D01*
X133026106Y-119282914D01*
X133109041Y-119222658D01*
X133109042Y-119222658D01*
X132871370Y-118984986D01*
X139752438Y-118984986D01*
X139762931Y-119087697D01*
X139818078Y-119254119D01*
X139818080Y-119254124D01*
X139910121Y-119403345D01*
X140034091Y-119527315D01*
X140183312Y-119619356D01*
X140183317Y-119619358D01*
X140349739Y-119674505D01*
X140349746Y-119674506D01*
X140452456Y-119684999D01*
X140564936Y-119684999D01*
X141064937Y-119684999D01*
X141177409Y-119684999D01*
X141177423Y-119684998D01*
X141280134Y-119674505D01*
X141446556Y-119619358D01*
X141446561Y-119619356D01*
X141595782Y-119527315D01*
X141719752Y-119403345D01*
X141811793Y-119254124D01*
X141811795Y-119254119D01*
X141866942Y-119087697D01*
X141866943Y-119087690D01*
X141877436Y-118984986D01*
X141877437Y-118984973D01*
X141877437Y-118560000D01*
X141064937Y-118560000D01*
X141064937Y-119684999D01*
X140564936Y-119684999D01*
X140564937Y-119684998D01*
X140564937Y-118560000D01*
X139752438Y-118560000D01*
X139752438Y-118984986D01*
X132871370Y-118984986D01*
X132450995Y-118564612D01*
X132471528Y-118559111D01*
X132608345Y-118480119D01*
X132720056Y-118368408D01*
X132799048Y-118231591D01*
X132804549Y-118211059D01*
X133462595Y-118869105D01*
X133462595Y-118869104D01*
X133522851Y-118786169D01*
X133522855Y-118786163D01*
X133630039Y-118575802D01*
X133664313Y-118470320D01*
X133664313Y-118470319D01*
X133703002Y-118351245D01*
X133739937Y-118118052D01*
X133739937Y-117881947D01*
X133703400Y-117651262D01*
X133703399Y-117651259D01*
X133703001Y-117648748D01*
X133698538Y-117635013D01*
X139752437Y-117635013D01*
X139752437Y-118060000D01*
X140564937Y-118060000D01*
X141064937Y-118060000D01*
X141877436Y-118060000D01*
X141877436Y-117635028D01*
X141877435Y-117635013D01*
X141866942Y-117532302D01*
X141811795Y-117365880D01*
X141811793Y-117365875D01*
X141719752Y-117216654D01*
X141595782Y-117092684D01*
X141446561Y-117000643D01*
X141446556Y-117000641D01*
X141280134Y-116945494D01*
X141280127Y-116945493D01*
X141177423Y-116935000D01*
X141064937Y-116935000D01*
X141064937Y-118060000D01*
X140564937Y-118060000D01*
X140564937Y-116935000D01*
X140452464Y-116935000D01*
X140452449Y-116935001D01*
X140349739Y-116945494D01*
X140183317Y-117000641D01*
X140183312Y-117000643D01*
X140034091Y-117092684D01*
X139910121Y-117216654D01*
X139818080Y-117365875D01*
X139818078Y-117365880D01*
X139762931Y-117532302D01*
X139762930Y-117532309D01*
X139752437Y-117635013D01*
X133698538Y-117635013D01*
X133630039Y-117424197D01*
X133522851Y-117213828D01*
X133462595Y-117130894D01*
X133462595Y-117130893D01*
X132804549Y-117788940D01*
X132799048Y-117768409D01*
X132720056Y-117631592D01*
X132608345Y-117519881D01*
X132471528Y-117440889D01*
X132450996Y-117435387D01*
X133109042Y-116777340D01*
X133107488Y-116757594D01*
X133108282Y-116753813D01*
X133107127Y-116750129D01*
X133115405Y-116719902D01*
X133121852Y-116689216D01*
X133124859Y-116685385D01*
X133125584Y-116682741D01*
X133134399Y-116673235D01*
X133148206Y-116655650D01*
X133152997Y-116651342D01*
X133217447Y-116604517D01*
X133327480Y-116494483D01*
X133329926Y-116492285D01*
X133358586Y-116478558D01*
X133386468Y-116463334D01*
X133391505Y-116462792D01*
X133392941Y-116462105D01*
X133395231Y-116462391D01*
X133412826Y-116460500D01*
X140643480Y-116460500D01*
X140690340Y-116451178D01*
X140759055Y-116437510D01*
X140836773Y-116422051D01*
X140922284Y-116386631D01*
X140931495Y-116382815D01*
X140936799Y-116381156D01*
X140946221Y-116380989D01*
X140973825Y-116375499D01*
X141177439Y-116375499D01*
X141177445Y-116375499D01*
X141280234Y-116364999D01*
X141446771Y-116309814D01*
X141596093Y-116217712D01*
X141720149Y-116093656D01*
X141812251Y-115944334D01*
X141867436Y-115777797D01*
X141877937Y-115675009D01*
X141877936Y-115328280D01*
X141897620Y-115261242D01*
X141914250Y-115240605D01*
X142465258Y-114689597D01*
X142526579Y-114656114D01*
X142596271Y-114661098D01*
X142652204Y-114702970D01*
X142676621Y-114768434D01*
X142676937Y-114777280D01*
X142676937Y-115675001D01*
X142676938Y-115675018D01*
X142687437Y-115777796D01*
X142687438Y-115777799D01*
X142733143Y-115915725D01*
X142739437Y-115954729D01*
X142739437Y-117355270D01*
X142733143Y-117394273D01*
X142687439Y-117532199D01*
X142687437Y-117532209D01*
X142676937Y-117634983D01*
X142676937Y-118985001D01*
X142676938Y-118985018D01*
X142687437Y-119087796D01*
X142687438Y-119087799D01*
X142742552Y-119254119D01*
X142742623Y-119254334D01*
X142834725Y-119403656D01*
X142958781Y-119527712D01*
X143108103Y-119619814D01*
X143274640Y-119674999D01*
X143377428Y-119685500D01*
X144102445Y-119685499D01*
X144102453Y-119685498D01*
X144102456Y-119685498D01*
X144158739Y-119679748D01*
X144205234Y-119674999D01*
X144371771Y-119619814D01*
X144521093Y-119527712D01*
X144645149Y-119403656D01*
X144737251Y-119254334D01*
X144792436Y-119087797D01*
X144802937Y-118985009D01*
X144802936Y-117634992D01*
X144792436Y-117532203D01*
X144761883Y-117440000D01*
X144746731Y-117394273D01*
X144740437Y-117355269D01*
X144740437Y-115954728D01*
X144746731Y-115915724D01*
X144792436Y-115777797D01*
X144802937Y-115675009D01*
X144802936Y-114324992D01*
X144792436Y-114222203D01*
X144772984Y-114163503D01*
X144770583Y-114093676D01*
X144806315Y-114033634D01*
X144868835Y-114002441D01*
X144890691Y-114000500D01*
X146774155Y-114000500D01*
X146841194Y-114020185D01*
X146861836Y-114036819D01*
X148203118Y-115378101D01*
X148236603Y-115439424D01*
X148239437Y-115465782D01*
X148239437Y-115618097D01*
X148276383Y-115851368D01*
X148349370Y-116075996D01*
X148421578Y-116217710D01*
X148456594Y-116286433D01*
X148595420Y-116477510D01*
X148595426Y-116477516D01*
X148598584Y-116481214D01*
X148596914Y-116482640D01*
X148626026Y-116535954D01*
X148621042Y-116605646D01*
X148579170Y-116661579D01*
X148569959Y-116667850D01*
X148521591Y-116697684D01*
X148397621Y-116821654D01*
X148305580Y-116970875D01*
X148305578Y-116970880D01*
X148250431Y-117137302D01*
X148250430Y-117137309D01*
X148239937Y-117240013D01*
X148239937Y-117790000D01*
X149191455Y-117790000D01*
X149180826Y-117808409D01*
X149139937Y-117961009D01*
X149139937Y-118118991D01*
X149180826Y-118271591D01*
X149191455Y-118290000D01*
X148239938Y-118290000D01*
X148239938Y-118839986D01*
X148250431Y-118942697D01*
X148305578Y-119109119D01*
X148305580Y-119109124D01*
X148397621Y-119258345D01*
X148521591Y-119382315D01*
X148670812Y-119474356D01*
X148670817Y-119474358D01*
X148837239Y-119529505D01*
X148837246Y-119529506D01*
X148939956Y-119539999D01*
X149489936Y-119539999D01*
X149489937Y-119539998D01*
X149489937Y-118588482D01*
X149508346Y-118599111D01*
X149660946Y-118640000D01*
X149818928Y-118640000D01*
X149971528Y-118599111D01*
X149989937Y-118588482D01*
X149989937Y-119539999D01*
X150539909Y-119539999D01*
X150539923Y-119539998D01*
X150642634Y-119529505D01*
X150809056Y-119474358D01*
X150809061Y-119474356D01*
X150958282Y-119382315D01*
X151082252Y-119258345D01*
X151174293Y-119109124D01*
X151174295Y-119109119D01*
X151229442Y-118942697D01*
X151229443Y-118942690D01*
X151239936Y-118839986D01*
X151239937Y-118839973D01*
X151239937Y-118290000D01*
X150288419Y-118290000D01*
X150299048Y-118271591D01*
X150339937Y-118118991D01*
X150339937Y-117961009D01*
X150299048Y-117808409D01*
X150288419Y-117790000D01*
X151239936Y-117790000D01*
X151239936Y-117240028D01*
X151239935Y-117240013D01*
X151229442Y-117137302D01*
X151174295Y-116970880D01*
X151174293Y-116970875D01*
X151082252Y-116821654D01*
X150958280Y-116697682D01*
X150909917Y-116667852D01*
X150863192Y-116615904D01*
X150851969Y-116546942D01*
X150879813Y-116482859D01*
X150881299Y-116481233D01*
X150881285Y-116481221D01*
X150884448Y-116477516D01*
X150884454Y-116477510D01*
X151023280Y-116286433D01*
X151130505Y-116075992D01*
X151203490Y-115851368D01*
X151215142Y-115777799D01*
X151240437Y-115618097D01*
X151240437Y-115381902D01*
X151203490Y-115148631D01*
X151130503Y-114924003D01*
X151023279Y-114713566D01*
X150884454Y-114522490D01*
X150717447Y-114355483D01*
X150526370Y-114216657D01*
X150315933Y-114109433D01*
X150091305Y-114036446D01*
X149858034Y-113999500D01*
X149858029Y-113999500D01*
X149705719Y-113999500D01*
X149638680Y-113979815D01*
X149618038Y-113963181D01*
X148021416Y-112366559D01*
X148021396Y-112366537D01*
X147877722Y-112222863D01*
X147877718Y-112222860D01*
X147713857Y-112113371D01*
X147713848Y-112113366D01*
X147592192Y-112062975D01*
X147592193Y-112062975D01*
X147585102Y-112060038D01*
X147531773Y-112037949D01*
X147427476Y-112017203D01*
X147423044Y-112016321D01*
X147423039Y-112016320D01*
X147338480Y-111999500D01*
X147338478Y-111999500D01*
X142641396Y-111999500D01*
X142641394Y-111999500D01*
X142582064Y-112011302D01*
X142552398Y-112017203D01*
X142448104Y-112037947D01*
X142448096Y-112037950D01*
X142394771Y-112060037D01*
X142394771Y-112060038D01*
X142387681Y-112062975D01*
X142266026Y-112113366D01*
X142266016Y-112113371D01*
X142102156Y-112222859D01*
X142032477Y-112292538D01*
X141962798Y-112362218D01*
X141962795Y-112362221D01*
X140736834Y-113588181D01*
X140675511Y-113621666D01*
X140649154Y-113624500D01*
X140452436Y-113624500D01*
X140452417Y-113624501D01*
X140349640Y-113635000D01*
X140349637Y-113635001D01*
X140183105Y-113690185D01*
X140183100Y-113690187D01*
X140033779Y-113782289D01*
X139909726Y-113906342D01*
X139817624Y-114055663D01*
X139817623Y-114055666D01*
X139762438Y-114222203D01*
X139762438Y-114222204D01*
X139762437Y-114222204D01*
X139751937Y-114324983D01*
X139751937Y-114335500D01*
X139732252Y-114402539D01*
X139679448Y-114448294D01*
X139627937Y-114459500D01*
X133561167Y-114459500D01*
X133494128Y-114439815D01*
X133448373Y-114387011D01*
X133438429Y-114317853D01*
X133467454Y-114254297D01*
X133473486Y-114247819D01*
X133504648Y-114216657D01*
X133582649Y-114138656D01*
X133674751Y-113989334D01*
X133729936Y-113822797D01*
X133740437Y-113720009D01*
X133740436Y-112119992D01*
X133729936Y-112017203D01*
X133674751Y-111850666D01*
X133582649Y-111701344D01*
X133458593Y-111577288D01*
X133309271Y-111485186D01*
X133142734Y-111430001D01*
X133142732Y-111430000D01*
X133039947Y-111419500D01*
X131439935Y-111419500D01*
X131439918Y-111419501D01*
X131337140Y-111430000D01*
X131337137Y-111430001D01*
X131170605Y-111485185D01*
X131170600Y-111485187D01*
X131021279Y-111577289D01*
X130897226Y-111701342D01*
X130805124Y-111850663D01*
X130805122Y-111850668D01*
X130749938Y-112017203D01*
X130739437Y-112119983D01*
X128660600Y-112119983D01*
X128660600Y-110968935D01*
X122191452Y-110968935D01*
X122191452Y-114487621D01*
X124665574Y-114487621D01*
X124732613Y-114507306D01*
X124778368Y-114560110D01*
X124789574Y-114611621D01*
X124789574Y-116845502D01*
X124769889Y-116912541D01*
X124717085Y-116958296D01*
X124665574Y-116969502D01*
X121689794Y-116969502D01*
X121240437Y-116969502D01*
X121240437Y-110874038D01*
X156139437Y-110874038D01*
X156139437Y-111125961D01*
X156178847Y-111374785D01*
X156256697Y-111614383D01*
X156371069Y-111838848D01*
X156519138Y-112042649D01*
X156519142Y-112042654D01*
X156697282Y-112220794D01*
X156697287Y-112220798D01*
X156875054Y-112349952D01*
X156901092Y-112368870D01*
X157044121Y-112441747D01*
X157125553Y-112483239D01*
X157125555Y-112483239D01*
X157125558Y-112483241D01*
X157365152Y-112561090D01*
X157613975Y-112600500D01*
X157613976Y-112600500D01*
X157865898Y-112600500D01*
X157865899Y-112600500D01*
X158114722Y-112561090D01*
X158354316Y-112483241D01*
X158578782Y-112368870D01*
X158782593Y-112220793D01*
X158960730Y-112042656D01*
X159108807Y-111838845D01*
X159223178Y-111614379D01*
X159301027Y-111374785D01*
X159340437Y-111125962D01*
X159340437Y-110874038D01*
X159301027Y-110625215D01*
X159223178Y-110385621D01*
X159223176Y-110385618D01*
X159223176Y-110385616D01*
X159181684Y-110304184D01*
X159108807Y-110161155D01*
X159089889Y-110135117D01*
X158960735Y-109957350D01*
X158960731Y-109957345D01*
X158782591Y-109779205D01*
X158782586Y-109779201D01*
X158578785Y-109631132D01*
X158578784Y-109631131D01*
X158578782Y-109631130D01*
X158508684Y-109595413D01*
X158354320Y-109516760D01*
X158114722Y-109438910D01*
X157865899Y-109399500D01*
X157613975Y-109399500D01*
X157489563Y-109419205D01*
X157365151Y-109438910D01*
X157125553Y-109516760D01*
X156901088Y-109631132D01*
X156697287Y-109779201D01*
X156697282Y-109779205D01*
X156519142Y-109957345D01*
X156519138Y-109957350D01*
X156371069Y-110161151D01*
X156256697Y-110385616D01*
X156178847Y-110625214D01*
X156139437Y-110874038D01*
X121240437Y-110874038D01*
X121240437Y-108624500D01*
X121260122Y-108557461D01*
X121312926Y-108511706D01*
X121364437Y-108500500D01*
X160115437Y-108500500D01*
X160182476Y-108520185D01*
G37*
%TD.AperFunction*%
%TD*%
%TA.AperFunction,Conductor*%
%TO.N,GND*%
G36*
X160442539Y-132520185D02*
G01*
X160488294Y-132572989D01*
X160499500Y-132624500D01*
X160499500Y-136846854D01*
X160479815Y-136913893D01*
X160427011Y-136959648D01*
X160375500Y-136970854D01*
X153949857Y-136970854D01*
X153949857Y-140487622D01*
X160375500Y-140487622D01*
X160384185Y-140490172D01*
X160393147Y-140488884D01*
X160417187Y-140499862D01*
X160442539Y-140507307D01*
X160448466Y-140514147D01*
X160456703Y-140517909D01*
X160470992Y-140540143D01*
X160488294Y-140560111D01*
X160490581Y-140570625D01*
X160494477Y-140576687D01*
X160499500Y-140611622D01*
X160499500Y-140845502D01*
X160479815Y-140912541D01*
X160427011Y-140958296D01*
X160375500Y-140969502D01*
X153949857Y-140969502D01*
X153949857Y-144488974D01*
X160375500Y-144488974D01*
X160442539Y-144508659D01*
X160488294Y-144561463D01*
X160499500Y-144612974D01*
X160499500Y-149875500D01*
X160479815Y-149942539D01*
X160427011Y-149988294D01*
X160375500Y-149999500D01*
X121624500Y-149999500D01*
X121557461Y-149979815D01*
X121511706Y-149927011D01*
X121500500Y-149875500D01*
X121500500Y-147374038D01*
X122399500Y-147374038D01*
X122399500Y-147625961D01*
X122438910Y-147874785D01*
X122516760Y-148114383D01*
X122631132Y-148338848D01*
X122779201Y-148542649D01*
X122779205Y-148542654D01*
X122957345Y-148720794D01*
X122957350Y-148720798D01*
X123135117Y-148849952D01*
X123161155Y-148868870D01*
X123304184Y-148941747D01*
X123385616Y-148983239D01*
X123385618Y-148983239D01*
X123385621Y-148983241D01*
X123625215Y-149061090D01*
X123874038Y-149100500D01*
X123874039Y-149100500D01*
X124125961Y-149100500D01*
X124125962Y-149100500D01*
X124374785Y-149061090D01*
X124614379Y-148983241D01*
X124838845Y-148868870D01*
X125042656Y-148720793D01*
X125220793Y-148542656D01*
X125368870Y-148338845D01*
X125483241Y-148114379D01*
X125561090Y-147874785D01*
X125600500Y-147625962D01*
X125600500Y-147374038D01*
X125561090Y-147125215D01*
X125483241Y-146885621D01*
X125483239Y-146885618D01*
X125483239Y-146885616D01*
X125441747Y-146804184D01*
X125368870Y-146661155D01*
X125349952Y-146635117D01*
X125220798Y-146457350D01*
X125220794Y-146457345D01*
X125042654Y-146279205D01*
X125042649Y-146279201D01*
X124838848Y-146131132D01*
X124838847Y-146131131D01*
X124838845Y-146131130D01*
X124768747Y-146095413D01*
X124614383Y-146016760D01*
X124374785Y-145938910D01*
X124125962Y-145899500D01*
X123874038Y-145899500D01*
X123749626Y-145919205D01*
X123625214Y-145938910D01*
X123385616Y-146016760D01*
X123161151Y-146131132D01*
X122957350Y-146279201D01*
X122957345Y-146279205D01*
X122779205Y-146457345D01*
X122779201Y-146457350D01*
X122631132Y-146661151D01*
X122516760Y-146885616D01*
X122438910Y-147125214D01*
X122399500Y-147374038D01*
X121500500Y-147374038D01*
X121500500Y-140969502D01*
X121949857Y-140969502D01*
X121949857Y-144488974D01*
X128803274Y-144488974D01*
X128803274Y-140969502D01*
X128784111Y-140969502D01*
X128717072Y-140949817D01*
X128671317Y-140897013D01*
X128660111Y-140845502D01*
X128660111Y-138611621D01*
X128679796Y-138544582D01*
X128732600Y-138498827D01*
X128784111Y-138487621D01*
X128920663Y-138487621D01*
X128920663Y-136119983D01*
X130999500Y-136119983D01*
X130999500Y-137720001D01*
X130999501Y-137720018D01*
X131010000Y-137822796D01*
X131010001Y-137822799D01*
X131056520Y-137963181D01*
X131065186Y-137989334D01*
X131157288Y-138138656D01*
X131281344Y-138262712D01*
X131323102Y-138288468D01*
X131329656Y-138292511D01*
X131376381Y-138344459D01*
X131387604Y-138413421D01*
X131359760Y-138477504D01*
X131358615Y-138478759D01*
X131358647Y-138478786D01*
X131355485Y-138482487D01*
X131355483Y-138482490D01*
X131299089Y-138560110D01*
X131216657Y-138673566D01*
X131109433Y-138884003D01*
X131036446Y-139108631D01*
X130999500Y-139341902D01*
X130999500Y-139578097D01*
X131036446Y-139811368D01*
X131109433Y-140035996D01*
X131202022Y-140217710D01*
X131216657Y-140246433D01*
X131355483Y-140437510D01*
X131522490Y-140604517D01*
X131581716Y-140647547D01*
X131624381Y-140702875D01*
X131632448Y-140757593D01*
X131630893Y-140777340D01*
X132288941Y-141435387D01*
X132268409Y-141440889D01*
X132131592Y-141519881D01*
X132019881Y-141631592D01*
X131940889Y-141768409D01*
X131935387Y-141788941D01*
X131277340Y-141130894D01*
X131217084Y-141213830D01*
X131109897Y-141424197D01*
X131036934Y-141648752D01*
X131000000Y-141881947D01*
X131000000Y-142118052D01*
X131036934Y-142351247D01*
X131109897Y-142575802D01*
X131217087Y-142786174D01*
X131277338Y-142869104D01*
X131277340Y-142869105D01*
X131935387Y-142211058D01*
X131940889Y-142231591D01*
X132019881Y-142368408D01*
X132131592Y-142480119D01*
X132268409Y-142559111D01*
X132288940Y-142564612D01*
X131630893Y-143222658D01*
X131713828Y-143282914D01*
X131924197Y-143390102D01*
X132148752Y-143463065D01*
X132148751Y-143463065D01*
X132381948Y-143500000D01*
X132618052Y-143500000D01*
X132851247Y-143463065D01*
X133075802Y-143390102D01*
X133286163Y-143282918D01*
X133286169Y-143282914D01*
X133369104Y-143222658D01*
X133369105Y-143222658D01*
X133131433Y-142984986D01*
X140012501Y-142984986D01*
X140022994Y-143087697D01*
X140078141Y-143254119D01*
X140078143Y-143254124D01*
X140170184Y-143403345D01*
X140294154Y-143527315D01*
X140443375Y-143619356D01*
X140443380Y-143619358D01*
X140609802Y-143674505D01*
X140609809Y-143674506D01*
X140712519Y-143684999D01*
X140824999Y-143684999D01*
X141325000Y-143684999D01*
X141437472Y-143684999D01*
X141437486Y-143684998D01*
X141540197Y-143674505D01*
X141706619Y-143619358D01*
X141706624Y-143619356D01*
X141855845Y-143527315D01*
X141979815Y-143403345D01*
X142071856Y-143254124D01*
X142071858Y-143254119D01*
X142127005Y-143087697D01*
X142127006Y-143087690D01*
X142137499Y-142984986D01*
X142137500Y-142984973D01*
X142137500Y-142560000D01*
X141325000Y-142560000D01*
X141325000Y-143684999D01*
X140824999Y-143684999D01*
X140825000Y-143684998D01*
X140825000Y-142560000D01*
X140012501Y-142560000D01*
X140012501Y-142984986D01*
X133131433Y-142984986D01*
X132711058Y-142564612D01*
X132731591Y-142559111D01*
X132868408Y-142480119D01*
X132980119Y-142368408D01*
X133059111Y-142231591D01*
X133064612Y-142211059D01*
X133722658Y-142869105D01*
X133722658Y-142869104D01*
X133782914Y-142786169D01*
X133782918Y-142786163D01*
X133890102Y-142575802D01*
X133924376Y-142470320D01*
X133924376Y-142470319D01*
X133963065Y-142351245D01*
X134000000Y-142118052D01*
X134000000Y-141881947D01*
X133963463Y-141651262D01*
X133963462Y-141651259D01*
X133963064Y-141648748D01*
X133958601Y-141635013D01*
X140012500Y-141635013D01*
X140012500Y-142060000D01*
X140825000Y-142060000D01*
X141325000Y-142060000D01*
X142137499Y-142060000D01*
X142137499Y-141635028D01*
X142137498Y-141635013D01*
X142127005Y-141532302D01*
X142071858Y-141365880D01*
X142071856Y-141365875D01*
X141979815Y-141216654D01*
X141855845Y-141092684D01*
X141706624Y-141000643D01*
X141706619Y-141000641D01*
X141540197Y-140945494D01*
X141540190Y-140945493D01*
X141437486Y-140935000D01*
X141325000Y-140935000D01*
X141325000Y-142060000D01*
X140825000Y-142060000D01*
X140825000Y-140935000D01*
X140712527Y-140935000D01*
X140712512Y-140935001D01*
X140609802Y-140945494D01*
X140443380Y-141000641D01*
X140443375Y-141000643D01*
X140294154Y-141092684D01*
X140170184Y-141216654D01*
X140078143Y-141365875D01*
X140078141Y-141365880D01*
X140022994Y-141532302D01*
X140022993Y-141532309D01*
X140012500Y-141635013D01*
X133958601Y-141635013D01*
X133890102Y-141424197D01*
X133782914Y-141213828D01*
X133722658Y-141130894D01*
X133722658Y-141130893D01*
X133064612Y-141788940D01*
X133059111Y-141768409D01*
X132980119Y-141631592D01*
X132868408Y-141519881D01*
X132731591Y-141440889D01*
X132711059Y-141435387D01*
X133369105Y-140777340D01*
X133367551Y-140757594D01*
X133368345Y-140753813D01*
X133367190Y-140750129D01*
X133375468Y-140719902D01*
X133381915Y-140689216D01*
X133384922Y-140685385D01*
X133385647Y-140682741D01*
X133394462Y-140673235D01*
X133408269Y-140655650D01*
X133413060Y-140651342D01*
X133477510Y-140604517D01*
X133587543Y-140494483D01*
X133589989Y-140492285D01*
X133618649Y-140478558D01*
X133646531Y-140463334D01*
X133651568Y-140462792D01*
X133653004Y-140462105D01*
X133655294Y-140462391D01*
X133672889Y-140460500D01*
X140903543Y-140460500D01*
X140950403Y-140451178D01*
X141019118Y-140437510D01*
X141096836Y-140422051D01*
X141182347Y-140386631D01*
X141191558Y-140382815D01*
X141196862Y-140381156D01*
X141206284Y-140380989D01*
X141233888Y-140375499D01*
X141437502Y-140375499D01*
X141437508Y-140375499D01*
X141540297Y-140364999D01*
X141706834Y-140309814D01*
X141856156Y-140217712D01*
X141980212Y-140093656D01*
X142072314Y-139944334D01*
X142127499Y-139777797D01*
X142138000Y-139675009D01*
X142137999Y-139328280D01*
X142157683Y-139261242D01*
X142174313Y-139240605D01*
X142725321Y-138689597D01*
X142786642Y-138656114D01*
X142856334Y-138661098D01*
X142912267Y-138702970D01*
X142936684Y-138768434D01*
X142937000Y-138777280D01*
X142937000Y-139675001D01*
X142937001Y-139675018D01*
X142947500Y-139777796D01*
X142947501Y-139777799D01*
X142993206Y-139915725D01*
X142999500Y-139954729D01*
X142999500Y-141355270D01*
X142993206Y-141394273D01*
X142947502Y-141532199D01*
X142947500Y-141532209D01*
X142937000Y-141634983D01*
X142937000Y-142985001D01*
X142937001Y-142985018D01*
X142947500Y-143087796D01*
X142947501Y-143087799D01*
X143002615Y-143254119D01*
X143002686Y-143254334D01*
X143094788Y-143403656D01*
X143218844Y-143527712D01*
X143368166Y-143619814D01*
X143534703Y-143674999D01*
X143637491Y-143685500D01*
X144362508Y-143685499D01*
X144362516Y-143685498D01*
X144362519Y-143685498D01*
X144418802Y-143679748D01*
X144465297Y-143674999D01*
X144631834Y-143619814D01*
X144781156Y-143527712D01*
X144905212Y-143403656D01*
X144997314Y-143254334D01*
X145052499Y-143087797D01*
X145063000Y-142985009D01*
X145062999Y-141634992D01*
X145052499Y-141532203D01*
X145021946Y-141440000D01*
X145006794Y-141394273D01*
X145000500Y-141355269D01*
X145000500Y-139954728D01*
X145006794Y-139915724D01*
X145052499Y-139777797D01*
X145063000Y-139675009D01*
X145062999Y-138324992D01*
X145052499Y-138222203D01*
X145033047Y-138163503D01*
X145030646Y-138093676D01*
X145066378Y-138033634D01*
X145128898Y-138002441D01*
X145150754Y-138000500D01*
X147034218Y-138000500D01*
X147101257Y-138020185D01*
X147121899Y-138036819D01*
X148463181Y-139378101D01*
X148496666Y-139439424D01*
X148499500Y-139465782D01*
X148499500Y-139618097D01*
X148536446Y-139851368D01*
X148609433Y-140075996D01*
X148681641Y-140217710D01*
X148716657Y-140286433D01*
X148855483Y-140477510D01*
X148855489Y-140477516D01*
X148858647Y-140481214D01*
X148856977Y-140482640D01*
X148886089Y-140535954D01*
X148881105Y-140605646D01*
X148839233Y-140661579D01*
X148830022Y-140667850D01*
X148781654Y-140697684D01*
X148657684Y-140821654D01*
X148565643Y-140970875D01*
X148565641Y-140970880D01*
X148510494Y-141137302D01*
X148510493Y-141137309D01*
X148500000Y-141240013D01*
X148500000Y-141790000D01*
X149451518Y-141790000D01*
X149440889Y-141808409D01*
X149400000Y-141961009D01*
X149400000Y-142118991D01*
X149440889Y-142271591D01*
X149451518Y-142290000D01*
X148500001Y-142290000D01*
X148500001Y-142839986D01*
X148510494Y-142942697D01*
X148565641Y-143109119D01*
X148565643Y-143109124D01*
X148657684Y-143258345D01*
X148781654Y-143382315D01*
X148930875Y-143474356D01*
X148930880Y-143474358D01*
X149097302Y-143529505D01*
X149097309Y-143529506D01*
X149200019Y-143539999D01*
X149749999Y-143539999D01*
X149750000Y-143539998D01*
X149750000Y-142588482D01*
X149768409Y-142599111D01*
X149921009Y-142640000D01*
X150078991Y-142640000D01*
X150231591Y-142599111D01*
X150250000Y-142588482D01*
X150250000Y-143539999D01*
X150799972Y-143539999D01*
X150799986Y-143539998D01*
X150902697Y-143529505D01*
X151069119Y-143474358D01*
X151069124Y-143474356D01*
X151218345Y-143382315D01*
X151342315Y-143258345D01*
X151434356Y-143109124D01*
X151434358Y-143109119D01*
X151489505Y-142942697D01*
X151489506Y-142942690D01*
X151499999Y-142839986D01*
X151500000Y-142839973D01*
X151500000Y-142290000D01*
X150548482Y-142290000D01*
X150559111Y-142271591D01*
X150600000Y-142118991D01*
X150600000Y-141961009D01*
X150559111Y-141808409D01*
X150548482Y-141790000D01*
X151499999Y-141790000D01*
X151499999Y-141240028D01*
X151499998Y-141240013D01*
X151489505Y-141137302D01*
X151434358Y-140970880D01*
X151434356Y-140970875D01*
X151342315Y-140821654D01*
X151218343Y-140697682D01*
X151169980Y-140667852D01*
X151123255Y-140615904D01*
X151112032Y-140546942D01*
X151139876Y-140482859D01*
X151141362Y-140481233D01*
X151141348Y-140481221D01*
X151144511Y-140477516D01*
X151144517Y-140477510D01*
X151283343Y-140286433D01*
X151390568Y-140075992D01*
X151463553Y-139851368D01*
X151475205Y-139777799D01*
X151500500Y-139618097D01*
X151500500Y-139381902D01*
X151463553Y-139148631D01*
X151390566Y-138924003D01*
X151283342Y-138713566D01*
X151144517Y-138522490D01*
X150977510Y-138355483D01*
X150786433Y-138216657D01*
X150575996Y-138109433D01*
X150351368Y-138036446D01*
X150118097Y-137999500D01*
X150118092Y-137999500D01*
X149965782Y-137999500D01*
X149898743Y-137979815D01*
X149878101Y-137963181D01*
X148281479Y-136366559D01*
X148281459Y-136366537D01*
X148137785Y-136222863D01*
X148137781Y-136222860D01*
X147973920Y-136113371D01*
X147973911Y-136113366D01*
X147852255Y-136062975D01*
X147852256Y-136062975D01*
X147845165Y-136060038D01*
X147791836Y-136037949D01*
X147687539Y-136017203D01*
X147683107Y-136016321D01*
X147683102Y-136016320D01*
X147598543Y-135999500D01*
X147598541Y-135999500D01*
X142901459Y-135999500D01*
X142901457Y-135999500D01*
X142842127Y-136011302D01*
X142812461Y-136017203D01*
X142708167Y-136037947D01*
X142708159Y-136037950D01*
X142654834Y-136060037D01*
X142654834Y-136060038D01*
X142647744Y-136062975D01*
X142526089Y-136113366D01*
X142526079Y-136113371D01*
X142362219Y-136222859D01*
X142292540Y-136292538D01*
X142222861Y-136362218D01*
X142222858Y-136362221D01*
X140996897Y-137588181D01*
X140935574Y-137621666D01*
X140909217Y-137624500D01*
X140712499Y-137624500D01*
X140712480Y-137624501D01*
X140609703Y-137635000D01*
X140609700Y-137635001D01*
X140443168Y-137690185D01*
X140443163Y-137690187D01*
X140293842Y-137782289D01*
X140169789Y-137906342D01*
X140077687Y-138055663D01*
X140077686Y-138055666D01*
X140022501Y-138222203D01*
X140022501Y-138222204D01*
X140022500Y-138222204D01*
X140012000Y-138324983D01*
X140012000Y-138335500D01*
X139992315Y-138402539D01*
X139939511Y-138448294D01*
X139888000Y-138459500D01*
X133821230Y-138459500D01*
X133754191Y-138439815D01*
X133708436Y-138387011D01*
X133698492Y-138317853D01*
X133727517Y-138254297D01*
X133733549Y-138247819D01*
X133764711Y-138216657D01*
X133842712Y-138138656D01*
X133934814Y-137989334D01*
X133989999Y-137822797D01*
X134000500Y-137720009D01*
X134000499Y-136119992D01*
X133989999Y-136017203D01*
X133934814Y-135850666D01*
X133842712Y-135701344D01*
X133718656Y-135577288D01*
X133569334Y-135485186D01*
X133402797Y-135430001D01*
X133402795Y-135430000D01*
X133300010Y-135419500D01*
X131699998Y-135419500D01*
X131699981Y-135419501D01*
X131597203Y-135430000D01*
X131597200Y-135430001D01*
X131430668Y-135485185D01*
X131430663Y-135485187D01*
X131281342Y-135577289D01*
X131157289Y-135701342D01*
X131065187Y-135850663D01*
X131065185Y-135850668D01*
X131010001Y-136017203D01*
X130999500Y-136119983D01*
X128920663Y-136119983D01*
X128920663Y-134968935D01*
X122451515Y-134968935D01*
X122451515Y-138487621D01*
X124925637Y-138487621D01*
X124992676Y-138507306D01*
X125038431Y-138560110D01*
X125049637Y-138611621D01*
X125049637Y-140845502D01*
X125029952Y-140912541D01*
X124977148Y-140958296D01*
X124925637Y-140969502D01*
X121949857Y-140969502D01*
X121500500Y-140969502D01*
X121500500Y-134874038D01*
X156399500Y-134874038D01*
X156399500Y-135125961D01*
X156438910Y-135374785D01*
X156516760Y-135614383D01*
X156631132Y-135838848D01*
X156779201Y-136042649D01*
X156779205Y-136042654D01*
X156957345Y-136220794D01*
X156957350Y-136220798D01*
X157135117Y-136349952D01*
X157161155Y-136368870D01*
X157304184Y-136441747D01*
X157385616Y-136483239D01*
X157385618Y-136483239D01*
X157385621Y-136483241D01*
X157625215Y-136561090D01*
X157874038Y-136600500D01*
X157874039Y-136600500D01*
X158125961Y-136600500D01*
X158125962Y-136600500D01*
X158374785Y-136561090D01*
X158614379Y-136483241D01*
X158838845Y-136368870D01*
X159042656Y-136220793D01*
X159220793Y-136042656D01*
X159368870Y-135838845D01*
X159483241Y-135614379D01*
X159561090Y-135374785D01*
X159600500Y-135125962D01*
X159600500Y-134874038D01*
X159561090Y-134625215D01*
X159483241Y-134385621D01*
X159483239Y-134385618D01*
X159483239Y-134385616D01*
X159441747Y-134304184D01*
X159368870Y-134161155D01*
X159349952Y-134135117D01*
X159220798Y-133957350D01*
X159220794Y-133957345D01*
X159042654Y-133779205D01*
X159042649Y-133779201D01*
X158838848Y-133631132D01*
X158838847Y-133631131D01*
X158838845Y-133631130D01*
X158768747Y-133595413D01*
X158614383Y-133516760D01*
X158374785Y-133438910D01*
X158125962Y-133399500D01*
X157874038Y-133399500D01*
X157749626Y-133419205D01*
X157625214Y-133438910D01*
X157385616Y-133516760D01*
X157161151Y-133631132D01*
X156957350Y-133779201D01*
X156957345Y-133779205D01*
X156779205Y-133957345D01*
X156779201Y-133957350D01*
X156631132Y-134161151D01*
X156516760Y-134385616D01*
X156438910Y-134625214D01*
X156399500Y-134874038D01*
X121500500Y-134874038D01*
X121500500Y-132624500D01*
X121520185Y-132557461D01*
X121572989Y-132511706D01*
X121624500Y-132500500D01*
X160375500Y-132500500D01*
X160442539Y-132520185D01*
G37*
%TD.AperFunction*%
%TD*%
M02*
