%TF.GenerationSoftware,KiCad,Pcbnew,10.0.4-10.0.4~ubuntu24.04.1*%
%TF.CreationDate,2026-06-21T15:08:57-07:00*%
%TF.ProjectId,inductor_probe_board,696e6475-6374-46f7-925f-70726f62655f,rev?*%
%TF.SameCoordinates,Original*%
%TF.FileFunction,Profile,NP*%
%FSLAX46Y46*%
G04 Gerber Fmt 4.6, Leading zero omitted, Abs format (unit mm)*
G04 Created by KiCad (PCBNEW 10.0.4-10.0.4~ubuntu24.04.1) date 2026-06-21 15:08:57*
%MOMM*%
%LPD*%
G01*
G04 APERTURE LIST*
%TA.AperFunction,Profile*%
%ADD10C,0.100000*%
%TD*%
%TA.AperFunction,Profile*%
%ADD11C,0.050000*%
%TD*%
G04 APERTURE END LIST*
D10*
X74099999Y1500001D02*
X124100000Y1500001D01*
X124100000Y-48499999D01*
X74099999Y-48499999D01*
X74099999Y1500001D01*
X126499999Y-51000000D02*
X176500000Y-51000000D01*
X176500000Y-101000000D01*
X126499999Y-101000000D01*
X126499999Y-51000000D01*
X74499999Y-51000000D02*
X124500000Y-51000000D01*
X124500000Y-101000000D01*
X74499999Y-101000000D01*
X74499999Y-51000000D01*
X126499999Y1500000D02*
X176500000Y1500000D01*
X176500000Y-48500000D01*
X126499999Y-48500000D01*
X126499999Y1500000D01*
D11*
X161000000Y-150500000D02*
X121000000Y-150500000D01*
X161000000Y-132000000D02*
X161000000Y-150500000D01*
X121000000Y-150500000D02*
X121000000Y-132000000D01*
X121000000Y-132000000D02*
X161000000Y-132000000D01*
X121000000Y-150500000D02*
X161000000Y-150500000D01*
X160739937Y-126500000D02*
X120739937Y-126500000D01*
X160739937Y-108000000D02*
X160739937Y-126500000D01*
X120739937Y-126500000D02*
X120739937Y-108000000D01*
X120739937Y-108000000D02*
X160739937Y-108000000D01*
X120739937Y-126500000D02*
X160739937Y-126500000D01*
X115000000Y-151000000D02*
X75000000Y-151000000D01*
X115000000Y-132500000D02*
X115000000Y-151000000D01*
X75000000Y-151000000D02*
X75000000Y-132500000D01*
X75000000Y-132500000D02*
X115000000Y-132500000D01*
X75000000Y-151000000D02*
X115000000Y-151000000D01*
X75000000Y-108000000D02*
X115000000Y-108000000D01*
X75000000Y-126500000D02*
X75000000Y-108000000D01*
X75000000Y-126500000D02*
X115000000Y-126500000D01*
X115000000Y-108000000D02*
X115000000Y-126500000D01*
X115000000Y-126500000D02*
X75000000Y-126500000D01*
M02*
