M48
; DRILL file KiCad 10.0.4-10.0.4~ubuntu24.04.1 date 2026-06-21T15:09:02
; FORMAT={-:-/ absolute / metric / decimal}
; #@! TF.CreationDate,2026-06-21T15:09:02-07:00
; #@! TF.GenerationSoftware,Kicad,Pcbnew,10.0.4-10.0.4~ubuntu24.04.1
; #@! TF.FileFunction,Plated,1,2,PTH
FMAT,2
METRIC
; #@! TA.AperFunction,Plated,PTH,ComponentDrill
T1C0.700
; #@! TA.AperFunction,Plated,PTH,ComponentDrill
T2C0.800
; #@! TA.AperFunction,Plated,PTH,ComponentDrill
T3C1.000
; #@! TA.AperFunction,Plated,PTH,ComponentDrill
T4C1.200
%
G90
G05
T1
X89.432Y-17.55
X89.432Y-20.09
X89.832Y-70.05
X89.832Y-72.59
X141.832Y-17.55
X141.832Y-20.09
X141.832Y-70.05
X141.832Y-72.59
T2
X92.6Y-17.6
X92.6Y-20.1
X93.0Y-70.1
X93.0Y-72.6
X95.331Y-17.76
X95.331Y-20.3
X95.331Y-22.84
X95.331Y-25.38
X95.731Y-70.26
X95.731Y-72.8
X95.731Y-75.34
X95.731Y-77.88
X102.951Y-17.76
X102.951Y-20.3
X102.951Y-22.84
X102.951Y-25.38
X103.351Y-70.26
X103.351Y-72.8
X103.351Y-75.34
X103.351Y-77.88
X145.0Y-17.6
X145.0Y-20.1
X145.0Y-70.1
X145.0Y-72.6
X147.731Y-17.76
X147.731Y-20.3
X147.731Y-22.84
X147.731Y-25.38
X147.731Y-70.26
X147.731Y-72.8
X147.731Y-75.34
X147.731Y-77.88
X155.351Y-17.76
X155.351Y-20.3
X155.351Y-22.84
X155.351Y-25.38
X155.351Y-70.26
X155.351Y-72.8
X155.351Y-75.34
X155.351Y-77.88
T3
X115.0Y-18.82
X115.0Y-21.36
X115.0Y-23.9
X115.4Y-71.32
X115.4Y-73.86
X115.4Y-76.4
X167.4Y-18.82
X167.4Y-21.36
X167.4Y-23.9
X167.4Y-71.32
X167.4Y-73.86
X167.4Y-76.4
T4
X86.5Y-112.92
X86.5Y-115.46
X86.5Y-118.0
X86.5Y-137.42
X86.5Y-139.96
X86.5Y-142.5
X104.0Y-115.5
X104.0Y-118.04
X104.0Y-140.0
X104.0Y-142.54
X132.24Y-112.92
X132.24Y-115.46
X132.24Y-118.0
X132.5Y-136.92
X132.5Y-139.46
X132.5Y-142.0
X149.74Y-115.5
X149.74Y-118.04
X150.0Y-139.5
X150.0Y-142.04
M30
