M48
; DRILL file {KiCad 9.0.3} date 2025-09-17T16:04:31-0700
; FORMAT={-:-/ absolute / metric / decimal}
; #@! TF.CreationDate,2025-09-17T16:04:31-07:00
; #@! TF.GenerationSoftware,Kicad,Pcbnew,9.0.3
; #@! TF.FileFunction,Plated,1,2,PTH
FMAT,2
METRIC
; #@! TA.AperFunction,Plated,PTH,ViaDrill
T1C0.800
; #@! TA.AperFunction,Plated,PTH,ComponentDrill
T2C1.000
; #@! TA.AperFunction,Plated,PTH,ComponentDrill
T3C1.100
%
G90
G05
T1
X126.873Y-86.995
X144.78Y-85.598
X163.576Y-93.472
T2
X130.048Y-104.394
X130.048Y-124.714
X132.588Y-104.394
X132.588Y-124.714
X135.128Y-104.394
X135.128Y-124.714
X137.668Y-104.394
X137.668Y-124.714
X140.208Y-104.394
X140.208Y-124.714
X142.748Y-104.394
X142.748Y-124.714
X145.288Y-104.394
X145.288Y-124.714
X147.828Y-104.394
X147.828Y-124.714
X150.368Y-104.394
X150.368Y-124.714
X152.908Y-104.394
X152.908Y-124.714
X155.448Y-104.394
X155.448Y-124.714
X157.988Y-104.394
X157.988Y-124.714
X160.528Y-104.394
X163.068Y-104.394
X165.608Y-104.394
X168.148Y-104.394
T3
X136.525Y-91.694
X136.525Y-94.234
X136.525Y-96.774
X136.525Y-99.314
X147.959Y-87.507
X150.499Y-87.507
X153.039Y-87.507
X155.579Y-87.507
M30
