%TF.GenerationSoftware,KiCad,Pcbnew,9.0.3*%
%TF.CreationDate,2025-09-23T16:22:56-07:00*%
%TF.ProjectId,ADC_and_voltage_boost,4144435f-616e-4645-9f76-6f6c74616765,v2.0*%
%TF.SameCoordinates,Original*%
%TF.FileFunction,Copper,L2,Bot*%
%TF.FilePolarity,Positive*%
%FSLAX46Y46*%
G04 Gerber Fmt 4.6, Leading zero omitted, Abs format (unit mm)*
G04 Created by KiCad (PCBNEW 9.0.3) date 2025-09-23 16:22:56*
%MOMM*%
%LPD*%
G01*
G04 APERTURE LIST*
G04 Aperture macros list*
%AMRoundRect*
0 Rectangle with rounded corners*
0 $1 Rounding radius*
0 $2 $3 $4 $5 $6 $7 $8 $9 X,Y pos of 4 corners*
0 Add a 4 corners polygon primitive as box body*
4,1,4,$2,$3,$4,$5,$6,$7,$8,$9,$2,$3,0*
0 Add four circle primitives for the rounded corners*
1,1,$1+$1,$2,$3*
1,1,$1+$1,$4,$5*
1,1,$1+$1,$6,$7*
1,1,$1+$1,$8,$9*
0 Add four rect primitives between the rounded corners*
20,1,$1+$1,$2,$3,$4,$5,0*
20,1,$1+$1,$4,$5,$6,$7,0*
20,1,$1+$1,$6,$7,$8,$9,0*
20,1,$1+$1,$8,$9,$2,$3,0*%
G04 Aperture macros list end*
%TA.AperFunction,ComponentPad*%
%ADD10RoundRect,0.250000X-0.550000X1.050000X-0.550000X-1.050000X0.550000X-1.050000X0.550000X1.050000X0*%
%TD*%
%TA.AperFunction,ComponentPad*%
%ADD11O,1.600000X2.600000*%
%TD*%
%TA.AperFunction,ComponentPad*%
%ADD12RoundRect,0.249999X0.850001X0.850001X-0.850001X0.850001X-0.850001X-0.850001X0.850001X-0.850001X0*%
%TD*%
%TA.AperFunction,ComponentPad*%
%ADD13C,2.200000*%
%TD*%
%TA.AperFunction,ComponentPad*%
%ADD14RoundRect,0.249999X0.850001X-0.850001X0.850001X0.850001X-0.850001X0.850001X-0.850001X-0.850001X0*%
%TD*%
%TA.AperFunction,ViaPad*%
%ADD15C,1.000000*%
%TD*%
G04 APERTURE END LIST*
D10*
%TO.P,A1,1,~{RESET}*%
%TO.N,unconnected-(A1-~{RESET}-Pad1)*%
X168148000Y-104694000D03*
D11*
%TO.P,A1,2,3V3*%
%TO.N,+BATT*%
X165608000Y-104694000D03*
%TO.P,A1,3,AREF*%
%TO.N,unconnected-(A1-AREF-Pad3)*%
X163068000Y-104694000D03*
%TO.P,A1,4,GND*%
%TO.N,GND*%
X160528000Y-104694000D03*
%TO.P,A1,5,A0*%
%TO.N,/SSTRB*%
X157988000Y-104694000D03*
%TO.P,A1,6,A1*%
%TO.N,/~{CS}*%
X155448000Y-104694000D03*
%TO.P,A1,7,A2*%
%TO.N,unconnected-(A1-A2-Pad7)*%
X152908000Y-104694000D03*
%TO.P,A1,8,A3*%
%TO.N,unconnected-(A1-A3-Pad8)*%
X150368000Y-104694000D03*
%TO.P,A1,9,A4*%
%TO.N,unconnected-(A1-A4-Pad9)*%
X147828000Y-104694000D03*
%TO.P,A1,10,A5*%
%TO.N,unconnected-(A1-A5-Pad10)*%
X145288000Y-104694000D03*
%TO.P,A1,11,SCK*%
%TO.N,/SCK*%
X142748000Y-104694000D03*
%TO.P,A1,12,MOSI*%
%TO.N,/MOSI*%
X140208000Y-104694000D03*
%TO.P,A1,13,MISO*%
%TO.N,/MISO*%
X137668000Y-104694000D03*
%TO.P,A1,14,RX*%
%TO.N,unconnected-(A1-RX-Pad14)*%
X135128000Y-104694000D03*
%TO.P,A1,15,TX*%
%TO.N,unconnected-(A1-TX-Pad15)*%
X132588000Y-104694000D03*
%TO.P,A1,16,SPARE*%
%TO.N,unconnected-(A1-SPARE-Pad16)*%
X130048000Y-104694000D03*
%TO.P,A1,17,SDA*%
%TO.N,unconnected-(A1-SDA-Pad17)*%
X130048000Y-124414000D03*
%TO.P,A1,18,SCL*%
%TO.N,unconnected-(A1-SCL-Pad18)*%
X132588000Y-124414000D03*
%TO.P,A1,19,D0*%
%TO.N,unconnected-(A1-D0-Pad19)*%
X135128000Y-124414000D03*
%TO.P,A1,20,D1*%
%TO.N,unconnected-(A1-D1-Pad20)*%
X137668000Y-124414000D03*
%TO.P,A1,21,D2*%
%TO.N,unconnected-(A1-D2-Pad21)*%
X140208000Y-124414000D03*
%TO.P,A1,22,D3*%
%TO.N,unconnected-(A1-D3-Pad22)*%
X142748000Y-124414000D03*
%TO.P,A1,23,D4*%
%TO.N,unconnected-(A1-D4-Pad23)*%
X145288000Y-124414000D03*
%TO.P,A1,24,D5*%
%TO.N,unconnected-(A1-D5-Pad24)*%
X147828000Y-124414000D03*
%TO.P,A1,25,D6*%
%TO.N,unconnected-(A1-D6-Pad25)*%
X150368000Y-124414000D03*
%TO.P,A1,26,USB*%
%TO.N,unconnected-(A1-USB-Pad26)*%
X152908000Y-124414000D03*
%TO.P,A1,27,EN*%
%TO.N,unconnected-(A1-EN-Pad27)*%
X155448000Y-124414000D03*
%TO.P,A1,28,VBAT*%
%TO.N,unconnected-(A1-VBAT-Pad28)*%
X157988000Y-124414000D03*
%TD*%
D12*
%TO.P,J2,1,Pin_1*%
%TO.N,Net-(J2-Pin_1)*%
X155579000Y-87507000D03*
D13*
%TO.P,J2,2,Pin_2*%
%TO.N,GND*%
X153039000Y-87507000D03*
%TO.P,J2,3,Pin_3*%
%TO.N,Net-(J2-Pin_3)*%
X150499000Y-87507000D03*
%TO.P,J2,4,Pin_4*%
%TO.N,GND*%
X147959000Y-87507000D03*
%TD*%
D14*
%TO.P,J1,1,Pin_1*%
%TO.N,+BATT*%
X136525000Y-99314000D03*
D13*
%TO.P,J1,2,Pin_2*%
%TO.N,GND*%
X136525000Y-96774000D03*
%TO.P,J1,3,Pin_3*%
%TO.N,+5V*%
X136525000Y-94234000D03*
%TO.P,J1,4,Pin_4*%
%TO.N,+BATT*%
X136525000Y-91694000D03*
%TD*%
D15*
%TO.N,GND*%
X144780000Y-85598000D03*
X126873000Y-86995000D03*
X163576000Y-93472000D03*
%TD*%
%TA.AperFunction,Conductor*%
%TO.N,GND*%
G36*
X175083539Y-81927185D02*
G01*
X175129294Y-81979989D01*
X175140500Y-82031500D01*
X175140500Y-97793000D01*
X175120815Y-97860039D01*
X175068011Y-97905794D01*
X175016500Y-97917000D01*
X137915635Y-97917000D01*
X137848596Y-97897315D01*
X137802841Y-97844511D01*
X137792897Y-97775353D01*
X137815317Y-97720115D01*
X137893440Y-97612586D01*
X138007780Y-97388184D01*
X138085602Y-97148669D01*
X138125000Y-96899928D01*
X138125000Y-96648071D01*
X138085602Y-96399330D01*
X138007780Y-96159815D01*
X137893442Y-95935416D01*
X137819250Y-95833301D01*
X137819250Y-95833300D01*
X137048787Y-96603764D01*
X137037518Y-96561708D01*
X136965110Y-96436292D01*
X136862708Y-96333890D01*
X136737292Y-96261482D01*
X136695232Y-96250212D01*
X137465698Y-95479748D01*
X137465697Y-95479747D01*
X137384551Y-95420791D01*
X137341885Y-95365461D01*
X137335906Y-95295848D01*
X137368512Y-95234053D01*
X137370859Y-95231852D01*
X137370858Y-95231851D01*
X137374303Y-95228406D01*
X137519406Y-95083303D01*
X137640024Y-94917288D01*
X137733186Y-94734447D01*
X137796598Y-94539284D01*
X137828700Y-94336603D01*
X137828700Y-94131397D01*
X137796598Y-93928716D01*
X137796597Y-93928712D01*
X137796597Y-93928711D01*
X137733187Y-93733555D01*
X137733186Y-93733552D01*
X137640023Y-93550711D01*
X137519406Y-93384697D01*
X137374303Y-93239594D01*
X137208288Y-93118976D01*
X137120968Y-93074484D01*
X137070173Y-93026511D01*
X137053378Y-92958690D01*
X137075915Y-92892555D01*
X137120969Y-92853515D01*
X137208288Y-92809024D01*
X137374303Y-92688406D01*
X137519406Y-92543303D01*
X137640024Y-92377288D01*
X137733186Y-92194447D01*
X137796598Y-91999284D01*
X137828700Y-91796603D01*
X137828700Y-91591397D01*
X137796598Y-91388716D01*
X137796597Y-91388712D01*
X137796597Y-91388711D01*
X137733187Y-91193555D01*
X137733186Y-91193552D01*
X137640023Y-91010711D01*
X137519406Y-90844697D01*
X137374303Y-90699594D01*
X137208288Y-90578976D01*
X137025447Y-90485813D01*
X137025444Y-90485812D01*
X136830286Y-90422402D01*
X136695163Y-90401000D01*
X136627603Y-90390300D01*
X136422397Y-90390300D01*
X136354836Y-90401000D01*
X136219714Y-90422402D01*
X136219711Y-90422402D01*
X136024555Y-90485812D01*
X136024552Y-90485813D01*
X135841711Y-90578976D01*
X135675695Y-90699595D01*
X135530595Y-90844695D01*
X135409976Y-91010711D01*
X135316813Y-91193552D01*
X135316812Y-91193555D01*
X135253402Y-91388711D01*
X135253402Y-91388714D01*
X135221300Y-91591397D01*
X135221300Y-91796602D01*
X135253402Y-91999285D01*
X135253402Y-91999288D01*
X135316812Y-92194444D01*
X135316813Y-92194447D01*
X135409976Y-92377288D01*
X135530594Y-92543303D01*
X135675697Y-92688406D01*
X135841712Y-92809024D01*
X135894232Y-92835784D01*
X135929030Y-92853515D01*
X135979826Y-92901490D01*
X135996621Y-92969311D01*
X135974083Y-93035446D01*
X135929030Y-93074485D01*
X135841711Y-93118976D01*
X135675695Y-93239595D01*
X135530595Y-93384695D01*
X135409976Y-93550711D01*
X135316813Y-93733552D01*
X135316812Y-93733555D01*
X135253402Y-93928711D01*
X135253402Y-93928714D01*
X135221300Y-94131397D01*
X135221300Y-94336602D01*
X135253402Y-94539285D01*
X135253402Y-94539288D01*
X135316812Y-94734444D01*
X135316813Y-94734447D01*
X135409976Y-94917288D01*
X135530595Y-95083304D01*
X135679142Y-95231851D01*
X135677727Y-95233265D01*
X135711299Y-95284731D01*
X135711774Y-95354599D01*
X135674400Y-95413632D01*
X135665447Y-95420791D01*
X135584301Y-95479746D01*
X135584300Y-95479748D01*
X136354765Y-96250212D01*
X136312708Y-96261482D01*
X136187292Y-96333890D01*
X136084890Y-96436292D01*
X136012482Y-96561708D01*
X136001212Y-96603765D01*
X135230748Y-95833300D01*
X135230747Y-95833301D01*
X135156559Y-95935413D01*
X135042219Y-96159815D01*
X134964397Y-96399330D01*
X134925000Y-96648071D01*
X134925000Y-96899928D01*
X134964397Y-97148669D01*
X135042219Y-97388184D01*
X135156559Y-97612586D01*
X135234683Y-97720115D01*
X135258163Y-97785921D01*
X135242338Y-97853975D01*
X135192232Y-97902670D01*
X135134365Y-97917000D01*
X123052500Y-97917000D01*
X122985461Y-97897315D01*
X122939706Y-97844511D01*
X122928500Y-97793000D01*
X122928500Y-87381071D01*
X146359000Y-87381071D01*
X146359000Y-87632928D01*
X146398397Y-87881669D01*
X146476219Y-88121184D01*
X146590557Y-88345583D01*
X146664748Y-88447697D01*
X146664748Y-88447698D01*
X147435212Y-87677234D01*
X147446482Y-87719292D01*
X147518890Y-87844708D01*
X147621292Y-87947110D01*
X147746708Y-88019518D01*
X147788765Y-88030787D01*
X147018300Y-88801250D01*
X147120416Y-88875442D01*
X147344815Y-88989780D01*
X147584330Y-89067602D01*
X147833072Y-89107000D01*
X148084928Y-89107000D01*
X148333669Y-89067602D01*
X148573184Y-88989780D01*
X148797575Y-88875446D01*
X148797581Y-88875442D01*
X148899697Y-88801250D01*
X148899698Y-88801250D01*
X148129234Y-88030787D01*
X148171292Y-88019518D01*
X148296708Y-87947110D01*
X148399110Y-87844708D01*
X148471518Y-87719292D01*
X148482787Y-87677235D01*
X149253250Y-88447698D01*
X149253251Y-88447697D01*
X149312208Y-88366551D01*
X149367538Y-88323885D01*
X149437151Y-88317906D01*
X149498946Y-88350512D01*
X149501147Y-88352859D01*
X149501149Y-88352858D01*
X149504594Y-88356303D01*
X149649697Y-88501406D01*
X149815712Y-88622024D01*
X149857873Y-88643506D01*
X149998552Y-88715186D01*
X149998555Y-88715187D01*
X150144645Y-88762654D01*
X150193716Y-88778598D01*
X150396397Y-88810700D01*
X150396398Y-88810700D01*
X150601602Y-88810700D01*
X150601603Y-88810700D01*
X150804284Y-88778598D01*
X150804287Y-88778597D01*
X150804288Y-88778597D01*
X150999444Y-88715187D01*
X150999447Y-88715186D01*
X151140127Y-88643506D01*
X151182288Y-88622024D01*
X151348303Y-88501406D01*
X151493406Y-88356303D01*
X151493406Y-88356302D01*
X151496851Y-88352858D01*
X151498280Y-88354287D01*
X151549624Y-88320731D01*
X151619492Y-88320194D01*
X151678559Y-88357515D01*
X151685791Y-88366551D01*
X151744747Y-88447697D01*
X151744748Y-88447698D01*
X152515212Y-87677234D01*
X152526482Y-87719292D01*
X152598890Y-87844708D01*
X152701292Y-87947110D01*
X152826708Y-88019518D01*
X152868765Y-88030787D01*
X152098300Y-88801250D01*
X152200416Y-88875442D01*
X152424815Y-88989780D01*
X152664330Y-89067602D01*
X152913072Y-89107000D01*
X153164928Y-89107000D01*
X153413669Y-89067602D01*
X153653184Y-88989780D01*
X153877575Y-88875446D01*
X153877581Y-88875442D01*
X153979697Y-88801250D01*
X153979698Y-88801250D01*
X153209234Y-88030787D01*
X153251292Y-88019518D01*
X153376708Y-87947110D01*
X153479110Y-87844708D01*
X153551518Y-87719292D01*
X153562787Y-87677234D01*
X154241428Y-88355874D01*
X154274913Y-88417197D01*
X154277205Y-88431975D01*
X154278173Y-88442303D01*
X154278173Y-88442304D01*
X154323344Y-88571390D01*
X154323346Y-88571395D01*
X154404561Y-88681439D01*
X154514605Y-88762654D01*
X154560167Y-88778597D01*
X154643696Y-88807826D01*
X154674342Y-88810700D01*
X154674346Y-88810700D01*
X156483658Y-88810700D01*
X156514302Y-88807826D01*
X156514304Y-88807826D01*
X156576631Y-88786015D01*
X156643395Y-88762654D01*
X156753439Y-88681439D01*
X156834654Y-88571395D01*
X156859145Y-88501404D01*
X156879826Y-88442304D01*
X156879826Y-88442302D01*
X156882700Y-88411658D01*
X156882700Y-86602341D01*
X156879826Y-86571697D01*
X156879826Y-86571695D01*
X156834655Y-86442609D01*
X156834654Y-86442605D01*
X156753439Y-86332561D01*
X156643395Y-86251346D01*
X156643391Y-86251344D01*
X156643390Y-86251344D01*
X156514303Y-86206173D01*
X156483658Y-86203300D01*
X156483654Y-86203300D01*
X154674346Y-86203300D01*
X154674342Y-86203300D01*
X154643697Y-86206173D01*
X154643695Y-86206173D01*
X154514609Y-86251344D01*
X154514607Y-86251345D01*
X154514606Y-86251345D01*
X154514605Y-86251346D01*
X154404561Y-86332561D01*
X154360712Y-86391976D01*
X154323345Y-86442607D01*
X154323344Y-86442609D01*
X154278173Y-86571695D01*
X154278173Y-86571696D01*
X154277205Y-86582024D01*
X154251345Y-86646932D01*
X154241428Y-86658124D01*
X153562787Y-87336764D01*
X153551518Y-87294708D01*
X153479110Y-87169292D01*
X153376708Y-87066890D01*
X153251292Y-86994482D01*
X153209232Y-86983212D01*
X153979698Y-86212748D01*
X153877583Y-86138557D01*
X153653184Y-86024219D01*
X153413669Y-85946397D01*
X153164928Y-85907000D01*
X152913072Y-85907000D01*
X152664330Y-85946397D01*
X152424815Y-86024219D01*
X152200413Y-86138559D01*
X152098301Y-86212747D01*
X152098300Y-86212748D01*
X152868765Y-86983212D01*
X152826708Y-86994482D01*
X152701292Y-87066890D01*
X152598890Y-87169292D01*
X152526482Y-87294708D01*
X152515212Y-87336764D01*
X151744748Y-86566300D01*
X151744746Y-86566301D01*
X151685791Y-86647447D01*
X151630461Y-86690113D01*
X151560848Y-86696092D01*
X151499053Y-86663486D01*
X151496852Y-86661140D01*
X151496851Y-86661142D01*
X151348304Y-86512595D01*
X151182288Y-86391976D01*
X151140125Y-86370493D01*
X150999447Y-86298813D01*
X150999444Y-86298812D01*
X150804286Y-86235402D01*
X150619748Y-86206174D01*
X150601603Y-86203300D01*
X150396397Y-86203300D01*
X150378252Y-86206174D01*
X150193714Y-86235402D01*
X150193711Y-86235402D01*
X149998555Y-86298812D01*
X149998552Y-86298813D01*
X149815711Y-86391976D01*
X149649695Y-86512595D01*
X149649694Y-86512596D01*
X149501149Y-86661142D01*
X149499736Y-86659729D01*
X149448259Y-86693303D01*
X149378391Y-86693772D01*
X149319361Y-86656394D01*
X149312208Y-86647448D01*
X149253251Y-86566301D01*
X149253250Y-86566300D01*
X148482787Y-87336764D01*
X148471518Y-87294708D01*
X148399110Y-87169292D01*
X148296708Y-87066890D01*
X148171292Y-86994482D01*
X148129232Y-86983212D01*
X148899698Y-86212748D01*
X148797583Y-86138557D01*
X148573184Y-86024219D01*
X148333669Y-85946397D01*
X148084928Y-85907000D01*
X147833072Y-85907000D01*
X147584330Y-85946397D01*
X147344815Y-86024219D01*
X147120413Y-86138559D01*
X147018301Y-86212747D01*
X147018300Y-86212748D01*
X147788765Y-86983212D01*
X147746708Y-86994482D01*
X147621292Y-87066890D01*
X147518890Y-87169292D01*
X147446482Y-87294708D01*
X147435212Y-87336765D01*
X146664748Y-86566300D01*
X146664747Y-86566301D01*
X146590559Y-86668413D01*
X146476219Y-86892815D01*
X146398397Y-87132330D01*
X146359000Y-87381071D01*
X122928500Y-87381071D01*
X122928500Y-82031500D01*
X122948185Y-81964461D01*
X123000989Y-81918706D01*
X123052500Y-81907500D01*
X175016500Y-81907500D01*
X175083539Y-81927185D01*
G37*
%TD.AperFunction*%
%TD*%
M02*
