%TF.GenerationSoftware,KiCad,Pcbnew,9.0.3*%
%TF.CreationDate,2025-09-30T08:48:07-07:00*%
%TF.ProjectId,backplate_wiring,6261636b-706c-4617-9465-5f776972696e,rev?*%
%TF.SameCoordinates,Original*%
%TF.FileFunction,Copper,L1,Top*%
%TF.FilePolarity,Positive*%
%FSLAX46Y46*%
G04 Gerber Fmt 4.6, Leading zero omitted, Abs format (unit mm)*
G04 Created by KiCad (PCBNEW 9.0.3) date 2025-09-30 08:48:07*
%MOMM*%
%LPD*%
G01*
G04 APERTURE LIST*
G04 Aperture macros list*
%AMRoundRect*
0 Rectangle with rounded corners*
0 $1 Rounding radius*
0 $2 $3 $4 $5 $6 $7 $8 $9 X,Y pos of 4 corners*
0 Add a 4 corners polygon primitive as box body*
4,1,4,$2,$3,$4,$5,$6,$7,$8,$9,$2,$3,0*
0 Add four circle primitives for the rounded corners*
1,1,$1+$1,$2,$3*
1,1,$1+$1,$4,$5*
1,1,$1+$1,$6,$7*
1,1,$1+$1,$8,$9*
0 Add four rect primitives between the rounded corners*
20,1,$1+$1,$2,$3,$4,$5,0*
20,1,$1+$1,$4,$5,$6,$7,0*
20,1,$1+$1,$6,$7,$8,$9,0*
20,1,$1+$1,$8,$9,$2,$3,0*%
G04 Aperture macros list end*
%ADD10C,0.300000*%
%TA.AperFunction,NonConductor*%
%ADD11C,0.300000*%
%TD*%
%TA.AperFunction,SMDPad,CuDef*%
%ADD12RoundRect,0.250000X-1.075000X0.375000X-1.075000X-0.375000X1.075000X-0.375000X1.075000X0.375000X0*%
%TD*%
%TA.AperFunction,ComponentPad*%
%ADD13RoundRect,0.249999X0.850001X0.850001X-0.850001X0.850001X-0.850001X-0.850001X0.850001X-0.850001X0*%
%TD*%
%TA.AperFunction,ComponentPad*%
%ADD14C,2.200000*%
%TD*%
%TA.AperFunction,ComponentPad*%
%ADD15O,2.200000X3.500000*%
%TD*%
%TA.AperFunction,ComponentPad*%
%ADD16R,1.500000X2.500000*%
%TD*%
%TA.AperFunction,ComponentPad*%
%ADD17O,1.500000X2.500000*%
%TD*%
%TA.AperFunction,ComponentPad*%
%ADD18R,1.800000X1.800000*%
%TD*%
%TA.AperFunction,ComponentPad*%
%ADD19C,1.800000*%
%TD*%
%TA.AperFunction,ComponentPad*%
%ADD20RoundRect,0.249999X-0.850001X-0.850001X0.850001X-0.850001X0.850001X0.850001X-0.850001X0.850001X0*%
%TD*%
%TA.AperFunction,SMDPad,CuDef*%
%ADD21RoundRect,0.250000X-0.312500X-0.625000X0.312500X-0.625000X0.312500X0.625000X-0.312500X0.625000X0*%
%TD*%
%TA.AperFunction,SMDPad,CuDef*%
%ADD22RoundRect,0.250000X0.312500X0.625000X-0.312500X0.625000X-0.312500X-0.625000X0.312500X-0.625000X0*%
%TD*%
%TA.AperFunction,Conductor*%
%ADD23C,0.500000*%
%TD*%
G04 APERTURE END LIST*
D10*
D11*
X131904225Y-148160828D02*
X132189939Y-148160828D01*
X132189939Y-148160828D02*
X132332796Y-148232257D01*
X132332796Y-148232257D02*
X132475653Y-148375114D01*
X132475653Y-148375114D02*
X132547082Y-148660828D01*
X132547082Y-148660828D02*
X132547082Y-149160828D01*
X132547082Y-149160828D02*
X132475653Y-149446542D01*
X132475653Y-149446542D02*
X132332796Y-149589400D01*
X132332796Y-149589400D02*
X132189939Y-149660828D01*
X132189939Y-149660828D02*
X131904225Y-149660828D01*
X131904225Y-149660828D02*
X131761368Y-149589400D01*
X131761368Y-149589400D02*
X131618510Y-149446542D01*
X131618510Y-149446542D02*
X131547082Y-149160828D01*
X131547082Y-149160828D02*
X131547082Y-148660828D01*
X131547082Y-148660828D02*
X131618510Y-148375114D01*
X131618510Y-148375114D02*
X131761368Y-148232257D01*
X131761368Y-148232257D02*
X131904225Y-148160828D01*
X133189939Y-149660828D02*
X133189939Y-148160828D01*
X133189939Y-148160828D02*
X134047082Y-149660828D01*
X134047082Y-149660828D02*
X134047082Y-148160828D01*
X136189940Y-148160828D02*
X136475654Y-148160828D01*
X136475654Y-148160828D02*
X136618511Y-148232257D01*
X136618511Y-148232257D02*
X136761368Y-148375114D01*
X136761368Y-148375114D02*
X136832797Y-148660828D01*
X136832797Y-148660828D02*
X136832797Y-149160828D01*
X136832797Y-149160828D02*
X136761368Y-149446542D01*
X136761368Y-149446542D02*
X136618511Y-149589400D01*
X136618511Y-149589400D02*
X136475654Y-149660828D01*
X136475654Y-149660828D02*
X136189940Y-149660828D01*
X136189940Y-149660828D02*
X136047083Y-149589400D01*
X136047083Y-149589400D02*
X135904225Y-149446542D01*
X135904225Y-149446542D02*
X135832797Y-149160828D01*
X135832797Y-149160828D02*
X135832797Y-148660828D01*
X135832797Y-148660828D02*
X135904225Y-148375114D01*
X135904225Y-148375114D02*
X136047083Y-148232257D01*
X136047083Y-148232257D02*
X136189940Y-148160828D01*
X137975654Y-148875114D02*
X137475654Y-148875114D01*
X137475654Y-149660828D02*
X137475654Y-148160828D01*
X137475654Y-148160828D02*
X138189940Y-148160828D01*
X139261368Y-148875114D02*
X138761368Y-148875114D01*
X138761368Y-149660828D02*
X138761368Y-148160828D01*
X138761368Y-148160828D02*
X139475654Y-148160828D01*
D10*
D11*
X132158225Y-124284828D02*
X132443939Y-124284828D01*
X132443939Y-124284828D02*
X132586796Y-124356257D01*
X132586796Y-124356257D02*
X132729653Y-124499114D01*
X132729653Y-124499114D02*
X132801082Y-124784828D01*
X132801082Y-124784828D02*
X132801082Y-125284828D01*
X132801082Y-125284828D02*
X132729653Y-125570542D01*
X132729653Y-125570542D02*
X132586796Y-125713400D01*
X132586796Y-125713400D02*
X132443939Y-125784828D01*
X132443939Y-125784828D02*
X132158225Y-125784828D01*
X132158225Y-125784828D02*
X132015368Y-125713400D01*
X132015368Y-125713400D02*
X131872510Y-125570542D01*
X131872510Y-125570542D02*
X131801082Y-125284828D01*
X131801082Y-125284828D02*
X131801082Y-124784828D01*
X131801082Y-124784828D02*
X131872510Y-124499114D01*
X131872510Y-124499114D02*
X132015368Y-124356257D01*
X132015368Y-124356257D02*
X132158225Y-124284828D01*
X133443939Y-125784828D02*
X133443939Y-124284828D01*
X133443939Y-124284828D02*
X134301082Y-125784828D01*
X134301082Y-125784828D02*
X134301082Y-124284828D01*
X136443940Y-124284828D02*
X136729654Y-124284828D01*
X136729654Y-124284828D02*
X136872511Y-124356257D01*
X136872511Y-124356257D02*
X137015368Y-124499114D01*
X137015368Y-124499114D02*
X137086797Y-124784828D01*
X137086797Y-124784828D02*
X137086797Y-125284828D01*
X137086797Y-125284828D02*
X137015368Y-125570542D01*
X137015368Y-125570542D02*
X136872511Y-125713400D01*
X136872511Y-125713400D02*
X136729654Y-125784828D01*
X136729654Y-125784828D02*
X136443940Y-125784828D01*
X136443940Y-125784828D02*
X136301083Y-125713400D01*
X136301083Y-125713400D02*
X136158225Y-125570542D01*
X136158225Y-125570542D02*
X136086797Y-125284828D01*
X136086797Y-125284828D02*
X136086797Y-124784828D01*
X136086797Y-124784828D02*
X136158225Y-124499114D01*
X136158225Y-124499114D02*
X136301083Y-124356257D01*
X136301083Y-124356257D02*
X136443940Y-124284828D01*
X138229654Y-124999114D02*
X137729654Y-124999114D01*
X137729654Y-125784828D02*
X137729654Y-124284828D01*
X137729654Y-124284828D02*
X138443940Y-124284828D01*
X139515368Y-124999114D02*
X139015368Y-124999114D01*
X139015368Y-125784828D02*
X139015368Y-124284828D01*
X139015368Y-124284828D02*
X139729654Y-124284828D01*
D10*
D11*
X140638225Y-134472828D02*
X141138225Y-135972828D01*
X141138225Y-135972828D02*
X141638225Y-134472828D01*
X142138224Y-135401400D02*
X143281082Y-135401400D01*
X145923939Y-134544257D02*
X145781082Y-134472828D01*
X145781082Y-134472828D02*
X145566796Y-134472828D01*
X145566796Y-134472828D02*
X145352510Y-134544257D01*
X145352510Y-134544257D02*
X145209653Y-134687114D01*
X145209653Y-134687114D02*
X145138224Y-134829971D01*
X145138224Y-134829971D02*
X145066796Y-135115685D01*
X145066796Y-135115685D02*
X145066796Y-135329971D01*
X145066796Y-135329971D02*
X145138224Y-135615685D01*
X145138224Y-135615685D02*
X145209653Y-135758542D01*
X145209653Y-135758542D02*
X145352510Y-135901400D01*
X145352510Y-135901400D02*
X145566796Y-135972828D01*
X145566796Y-135972828D02*
X145709653Y-135972828D01*
X145709653Y-135972828D02*
X145923939Y-135901400D01*
X145923939Y-135901400D02*
X145995367Y-135829971D01*
X145995367Y-135829971D02*
X145995367Y-135329971D01*
X145995367Y-135329971D02*
X145709653Y-135329971D01*
X146638224Y-135972828D02*
X146638224Y-134472828D01*
X146638224Y-134472828D02*
X147495367Y-135972828D01*
X147495367Y-135972828D02*
X147495367Y-134472828D01*
X148209653Y-135972828D02*
X148209653Y-134472828D01*
X148209653Y-134472828D02*
X148566796Y-134472828D01*
X148566796Y-134472828D02*
X148781082Y-134544257D01*
X148781082Y-134544257D02*
X148923939Y-134687114D01*
X148923939Y-134687114D02*
X148995368Y-134829971D01*
X148995368Y-134829971D02*
X149066796Y-135115685D01*
X149066796Y-135115685D02*
X149066796Y-135329971D01*
X149066796Y-135329971D02*
X148995368Y-135615685D01*
X148995368Y-135615685D02*
X148923939Y-135758542D01*
X148923939Y-135758542D02*
X148781082Y-135901400D01*
X148781082Y-135901400D02*
X148566796Y-135972828D01*
X148566796Y-135972828D02*
X148209653Y-135972828D01*
X151638225Y-134544257D02*
X151495368Y-134472828D01*
X151495368Y-134472828D02*
X151281082Y-134472828D01*
X151281082Y-134472828D02*
X151066796Y-134544257D01*
X151066796Y-134544257D02*
X150923939Y-134687114D01*
X150923939Y-134687114D02*
X150852510Y-134829971D01*
X150852510Y-134829971D02*
X150781082Y-135115685D01*
X150781082Y-135115685D02*
X150781082Y-135329971D01*
X150781082Y-135329971D02*
X150852510Y-135615685D01*
X150852510Y-135615685D02*
X150923939Y-135758542D01*
X150923939Y-135758542D02*
X151066796Y-135901400D01*
X151066796Y-135901400D02*
X151281082Y-135972828D01*
X151281082Y-135972828D02*
X151423939Y-135972828D01*
X151423939Y-135972828D02*
X151638225Y-135901400D01*
X151638225Y-135901400D02*
X151709653Y-135829971D01*
X151709653Y-135829971D02*
X151709653Y-135329971D01*
X151709653Y-135329971D02*
X151423939Y-135329971D01*
X152352510Y-135972828D02*
X152352510Y-134472828D01*
X152352510Y-134472828D02*
X153209653Y-135972828D01*
X153209653Y-135972828D02*
X153209653Y-134472828D01*
X153923939Y-135972828D02*
X153923939Y-134472828D01*
X153923939Y-134472828D02*
X154281082Y-134472828D01*
X154281082Y-134472828D02*
X154495368Y-134544257D01*
X154495368Y-134544257D02*
X154638225Y-134687114D01*
X154638225Y-134687114D02*
X154709654Y-134829971D01*
X154709654Y-134829971D02*
X154781082Y-135115685D01*
X154781082Y-135115685D02*
X154781082Y-135329971D01*
X154781082Y-135329971D02*
X154709654Y-135615685D01*
X154709654Y-135615685D02*
X154638225Y-135758542D01*
X154638225Y-135758542D02*
X154495368Y-135901400D01*
X154495368Y-135901400D02*
X154281082Y-135972828D01*
X154281082Y-135972828D02*
X153923939Y-135972828D01*
X156352511Y-134472828D02*
X156852511Y-135972828D01*
X156852511Y-135972828D02*
X157352511Y-134472828D01*
X157852510Y-135401400D02*
X158995368Y-135401400D01*
X158423939Y-135972828D02*
X158423939Y-134829971D01*
D10*
D11*
X90930225Y-133952828D02*
X91430225Y-135452828D01*
X91430225Y-135452828D02*
X91930225Y-133952828D01*
X92430224Y-134881400D02*
X93573082Y-134881400D01*
X93001653Y-135452828D02*
X93001653Y-134309971D01*
X95215939Y-133952828D02*
X95715939Y-135452828D01*
X95715939Y-135452828D02*
X96215939Y-133952828D01*
X96715938Y-134881400D02*
X97858796Y-134881400D01*
X100501653Y-134024257D02*
X100358796Y-133952828D01*
X100358796Y-133952828D02*
X100144510Y-133952828D01*
X100144510Y-133952828D02*
X99930224Y-134024257D01*
X99930224Y-134024257D02*
X99787367Y-134167114D01*
X99787367Y-134167114D02*
X99715938Y-134309971D01*
X99715938Y-134309971D02*
X99644510Y-134595685D01*
X99644510Y-134595685D02*
X99644510Y-134809971D01*
X99644510Y-134809971D02*
X99715938Y-135095685D01*
X99715938Y-135095685D02*
X99787367Y-135238542D01*
X99787367Y-135238542D02*
X99930224Y-135381400D01*
X99930224Y-135381400D02*
X100144510Y-135452828D01*
X100144510Y-135452828D02*
X100287367Y-135452828D01*
X100287367Y-135452828D02*
X100501653Y-135381400D01*
X100501653Y-135381400D02*
X100573081Y-135309971D01*
X100573081Y-135309971D02*
X100573081Y-134809971D01*
X100573081Y-134809971D02*
X100287367Y-134809971D01*
X101215938Y-135452828D02*
X101215938Y-133952828D01*
X101215938Y-133952828D02*
X102073081Y-135452828D01*
X102073081Y-135452828D02*
X102073081Y-133952828D01*
X102787367Y-135452828D02*
X102787367Y-133952828D01*
X102787367Y-133952828D02*
X103144510Y-133952828D01*
X103144510Y-133952828D02*
X103358796Y-134024257D01*
X103358796Y-134024257D02*
X103501653Y-134167114D01*
X103501653Y-134167114D02*
X103573082Y-134309971D01*
X103573082Y-134309971D02*
X103644510Y-134595685D01*
X103644510Y-134595685D02*
X103644510Y-134809971D01*
X103644510Y-134809971D02*
X103573082Y-135095685D01*
X103573082Y-135095685D02*
X103501653Y-135238542D01*
X103501653Y-135238542D02*
X103358796Y-135381400D01*
X103358796Y-135381400D02*
X103144510Y-135452828D01*
X103144510Y-135452828D02*
X102787367Y-135452828D01*
X106215939Y-134024257D02*
X106073082Y-133952828D01*
X106073082Y-133952828D02*
X105858796Y-133952828D01*
X105858796Y-133952828D02*
X105644510Y-134024257D01*
X105644510Y-134024257D02*
X105501653Y-134167114D01*
X105501653Y-134167114D02*
X105430224Y-134309971D01*
X105430224Y-134309971D02*
X105358796Y-134595685D01*
X105358796Y-134595685D02*
X105358796Y-134809971D01*
X105358796Y-134809971D02*
X105430224Y-135095685D01*
X105430224Y-135095685D02*
X105501653Y-135238542D01*
X105501653Y-135238542D02*
X105644510Y-135381400D01*
X105644510Y-135381400D02*
X105858796Y-135452828D01*
X105858796Y-135452828D02*
X106001653Y-135452828D01*
X106001653Y-135452828D02*
X106215939Y-135381400D01*
X106215939Y-135381400D02*
X106287367Y-135309971D01*
X106287367Y-135309971D02*
X106287367Y-134809971D01*
X106287367Y-134809971D02*
X106001653Y-134809971D01*
X106930224Y-135452828D02*
X106930224Y-133952828D01*
X106930224Y-133952828D02*
X107787367Y-135452828D01*
X107787367Y-135452828D02*
X107787367Y-133952828D01*
X108501653Y-135452828D02*
X108501653Y-133952828D01*
X108501653Y-133952828D02*
X108858796Y-133952828D01*
X108858796Y-133952828D02*
X109073082Y-134024257D01*
X109073082Y-134024257D02*
X109215939Y-134167114D01*
X109215939Y-134167114D02*
X109287368Y-134309971D01*
X109287368Y-134309971D02*
X109358796Y-134595685D01*
X109358796Y-134595685D02*
X109358796Y-134809971D01*
X109358796Y-134809971D02*
X109287368Y-135095685D01*
X109287368Y-135095685D02*
X109215939Y-135238542D01*
X109215939Y-135238542D02*
X109073082Y-135381400D01*
X109073082Y-135381400D02*
X108858796Y-135452828D01*
X108858796Y-135452828D02*
X108501653Y-135452828D01*
D10*
D11*
X192708225Y-133452828D02*
X193208225Y-134952828D01*
X193208225Y-134952828D02*
X193708225Y-133452828D01*
X194208224Y-134381400D02*
X195351082Y-134381400D01*
X194779653Y-134952828D02*
X194779653Y-133809971D01*
X196993939Y-133452828D02*
X197493939Y-134952828D01*
X197493939Y-134952828D02*
X197993939Y-133452828D01*
X198493938Y-134381400D02*
X199636796Y-134381400D01*
X202279653Y-133524257D02*
X202136796Y-133452828D01*
X202136796Y-133452828D02*
X201922510Y-133452828D01*
X201922510Y-133452828D02*
X201708224Y-133524257D01*
X201708224Y-133524257D02*
X201565367Y-133667114D01*
X201565367Y-133667114D02*
X201493938Y-133809971D01*
X201493938Y-133809971D02*
X201422510Y-134095685D01*
X201422510Y-134095685D02*
X201422510Y-134309971D01*
X201422510Y-134309971D02*
X201493938Y-134595685D01*
X201493938Y-134595685D02*
X201565367Y-134738542D01*
X201565367Y-134738542D02*
X201708224Y-134881400D01*
X201708224Y-134881400D02*
X201922510Y-134952828D01*
X201922510Y-134952828D02*
X202065367Y-134952828D01*
X202065367Y-134952828D02*
X202279653Y-134881400D01*
X202279653Y-134881400D02*
X202351081Y-134809971D01*
X202351081Y-134809971D02*
X202351081Y-134309971D01*
X202351081Y-134309971D02*
X202065367Y-134309971D01*
X202993938Y-134952828D02*
X202993938Y-133452828D01*
X202993938Y-133452828D02*
X203851081Y-134952828D01*
X203851081Y-134952828D02*
X203851081Y-133452828D01*
X204565367Y-134952828D02*
X204565367Y-133452828D01*
X204565367Y-133452828D02*
X204922510Y-133452828D01*
X204922510Y-133452828D02*
X205136796Y-133524257D01*
X205136796Y-133524257D02*
X205279653Y-133667114D01*
X205279653Y-133667114D02*
X205351082Y-133809971D01*
X205351082Y-133809971D02*
X205422510Y-134095685D01*
X205422510Y-134095685D02*
X205422510Y-134309971D01*
X205422510Y-134309971D02*
X205351082Y-134595685D01*
X205351082Y-134595685D02*
X205279653Y-134738542D01*
X205279653Y-134738542D02*
X205136796Y-134881400D01*
X205136796Y-134881400D02*
X204922510Y-134952828D01*
X204922510Y-134952828D02*
X204565367Y-134952828D01*
X207993939Y-133524257D02*
X207851082Y-133452828D01*
X207851082Y-133452828D02*
X207636796Y-133452828D01*
X207636796Y-133452828D02*
X207422510Y-133524257D01*
X207422510Y-133524257D02*
X207279653Y-133667114D01*
X207279653Y-133667114D02*
X207208224Y-133809971D01*
X207208224Y-133809971D02*
X207136796Y-134095685D01*
X207136796Y-134095685D02*
X207136796Y-134309971D01*
X207136796Y-134309971D02*
X207208224Y-134595685D01*
X207208224Y-134595685D02*
X207279653Y-134738542D01*
X207279653Y-134738542D02*
X207422510Y-134881400D01*
X207422510Y-134881400D02*
X207636796Y-134952828D01*
X207636796Y-134952828D02*
X207779653Y-134952828D01*
X207779653Y-134952828D02*
X207993939Y-134881400D01*
X207993939Y-134881400D02*
X208065367Y-134809971D01*
X208065367Y-134809971D02*
X208065367Y-134309971D01*
X208065367Y-134309971D02*
X207779653Y-134309971D01*
X208708224Y-134952828D02*
X208708224Y-133452828D01*
X208708224Y-133452828D02*
X209565367Y-134952828D01*
X209565367Y-134952828D02*
X209565367Y-133452828D01*
X210279653Y-134952828D02*
X210279653Y-133452828D01*
X210279653Y-133452828D02*
X210636796Y-133452828D01*
X210636796Y-133452828D02*
X210851082Y-133524257D01*
X210851082Y-133524257D02*
X210993939Y-133667114D01*
X210993939Y-133667114D02*
X211065368Y-133809971D01*
X211065368Y-133809971D02*
X211136796Y-134095685D01*
X211136796Y-134095685D02*
X211136796Y-134309971D01*
X211136796Y-134309971D02*
X211065368Y-134595685D01*
X211065368Y-134595685D02*
X210993939Y-134738542D01*
X210993939Y-134738542D02*
X210851082Y-134881400D01*
X210851082Y-134881400D02*
X210636796Y-134952828D01*
X210636796Y-134952828D02*
X210279653Y-134952828D01*
D10*
D11*
X140548225Y-158320828D02*
X141048225Y-159820828D01*
X141048225Y-159820828D02*
X141548225Y-158320828D01*
X142048224Y-159249400D02*
X143191082Y-159249400D01*
X145833939Y-158392257D02*
X145691082Y-158320828D01*
X145691082Y-158320828D02*
X145476796Y-158320828D01*
X145476796Y-158320828D02*
X145262510Y-158392257D01*
X145262510Y-158392257D02*
X145119653Y-158535114D01*
X145119653Y-158535114D02*
X145048224Y-158677971D01*
X145048224Y-158677971D02*
X144976796Y-158963685D01*
X144976796Y-158963685D02*
X144976796Y-159177971D01*
X144976796Y-159177971D02*
X145048224Y-159463685D01*
X145048224Y-159463685D02*
X145119653Y-159606542D01*
X145119653Y-159606542D02*
X145262510Y-159749400D01*
X145262510Y-159749400D02*
X145476796Y-159820828D01*
X145476796Y-159820828D02*
X145619653Y-159820828D01*
X145619653Y-159820828D02*
X145833939Y-159749400D01*
X145833939Y-159749400D02*
X145905367Y-159677971D01*
X145905367Y-159677971D02*
X145905367Y-159177971D01*
X145905367Y-159177971D02*
X145619653Y-159177971D01*
X146548224Y-159820828D02*
X146548224Y-158320828D01*
X146548224Y-158320828D02*
X147405367Y-159820828D01*
X147405367Y-159820828D02*
X147405367Y-158320828D01*
X148119653Y-159820828D02*
X148119653Y-158320828D01*
X148119653Y-158320828D02*
X148476796Y-158320828D01*
X148476796Y-158320828D02*
X148691082Y-158392257D01*
X148691082Y-158392257D02*
X148833939Y-158535114D01*
X148833939Y-158535114D02*
X148905368Y-158677971D01*
X148905368Y-158677971D02*
X148976796Y-158963685D01*
X148976796Y-158963685D02*
X148976796Y-159177971D01*
X148976796Y-159177971D02*
X148905368Y-159463685D01*
X148905368Y-159463685D02*
X148833939Y-159606542D01*
X148833939Y-159606542D02*
X148691082Y-159749400D01*
X148691082Y-159749400D02*
X148476796Y-159820828D01*
X148476796Y-159820828D02*
X148119653Y-159820828D01*
X151548225Y-158392257D02*
X151405368Y-158320828D01*
X151405368Y-158320828D02*
X151191082Y-158320828D01*
X151191082Y-158320828D02*
X150976796Y-158392257D01*
X150976796Y-158392257D02*
X150833939Y-158535114D01*
X150833939Y-158535114D02*
X150762510Y-158677971D01*
X150762510Y-158677971D02*
X150691082Y-158963685D01*
X150691082Y-158963685D02*
X150691082Y-159177971D01*
X150691082Y-159177971D02*
X150762510Y-159463685D01*
X150762510Y-159463685D02*
X150833939Y-159606542D01*
X150833939Y-159606542D02*
X150976796Y-159749400D01*
X150976796Y-159749400D02*
X151191082Y-159820828D01*
X151191082Y-159820828D02*
X151333939Y-159820828D01*
X151333939Y-159820828D02*
X151548225Y-159749400D01*
X151548225Y-159749400D02*
X151619653Y-159677971D01*
X151619653Y-159677971D02*
X151619653Y-159177971D01*
X151619653Y-159177971D02*
X151333939Y-159177971D01*
X152262510Y-159820828D02*
X152262510Y-158320828D01*
X152262510Y-158320828D02*
X153119653Y-159820828D01*
X153119653Y-159820828D02*
X153119653Y-158320828D01*
X153833939Y-159820828D02*
X153833939Y-158320828D01*
X153833939Y-158320828D02*
X154191082Y-158320828D01*
X154191082Y-158320828D02*
X154405368Y-158392257D01*
X154405368Y-158392257D02*
X154548225Y-158535114D01*
X154548225Y-158535114D02*
X154619654Y-158677971D01*
X154619654Y-158677971D02*
X154691082Y-158963685D01*
X154691082Y-158963685D02*
X154691082Y-159177971D01*
X154691082Y-159177971D02*
X154619654Y-159463685D01*
X154619654Y-159463685D02*
X154548225Y-159606542D01*
X154548225Y-159606542D02*
X154405368Y-159749400D01*
X154405368Y-159749400D02*
X154191082Y-159820828D01*
X154191082Y-159820828D02*
X153833939Y-159820828D01*
X156262511Y-158320828D02*
X156762511Y-159820828D01*
X156762511Y-159820828D02*
X157262511Y-158320828D01*
X157762510Y-159249400D02*
X158905368Y-159249400D01*
X158333939Y-159820828D02*
X158333939Y-158677971D01*
D10*
D11*
X192618225Y-157300828D02*
X193118225Y-158800828D01*
X193118225Y-158800828D02*
X193618225Y-157300828D01*
X194118224Y-158229400D02*
X195261082Y-158229400D01*
X194689653Y-158800828D02*
X194689653Y-157657971D01*
X196903939Y-157300828D02*
X197403939Y-158800828D01*
X197403939Y-158800828D02*
X197903939Y-157300828D01*
X198403938Y-158229400D02*
X199546796Y-158229400D01*
X202189653Y-157372257D02*
X202046796Y-157300828D01*
X202046796Y-157300828D02*
X201832510Y-157300828D01*
X201832510Y-157300828D02*
X201618224Y-157372257D01*
X201618224Y-157372257D02*
X201475367Y-157515114D01*
X201475367Y-157515114D02*
X201403938Y-157657971D01*
X201403938Y-157657971D02*
X201332510Y-157943685D01*
X201332510Y-157943685D02*
X201332510Y-158157971D01*
X201332510Y-158157971D02*
X201403938Y-158443685D01*
X201403938Y-158443685D02*
X201475367Y-158586542D01*
X201475367Y-158586542D02*
X201618224Y-158729400D01*
X201618224Y-158729400D02*
X201832510Y-158800828D01*
X201832510Y-158800828D02*
X201975367Y-158800828D01*
X201975367Y-158800828D02*
X202189653Y-158729400D01*
X202189653Y-158729400D02*
X202261081Y-158657971D01*
X202261081Y-158657971D02*
X202261081Y-158157971D01*
X202261081Y-158157971D02*
X201975367Y-158157971D01*
X202903938Y-158800828D02*
X202903938Y-157300828D01*
X202903938Y-157300828D02*
X203761081Y-158800828D01*
X203761081Y-158800828D02*
X203761081Y-157300828D01*
X204475367Y-158800828D02*
X204475367Y-157300828D01*
X204475367Y-157300828D02*
X204832510Y-157300828D01*
X204832510Y-157300828D02*
X205046796Y-157372257D01*
X205046796Y-157372257D02*
X205189653Y-157515114D01*
X205189653Y-157515114D02*
X205261082Y-157657971D01*
X205261082Y-157657971D02*
X205332510Y-157943685D01*
X205332510Y-157943685D02*
X205332510Y-158157971D01*
X205332510Y-158157971D02*
X205261082Y-158443685D01*
X205261082Y-158443685D02*
X205189653Y-158586542D01*
X205189653Y-158586542D02*
X205046796Y-158729400D01*
X205046796Y-158729400D02*
X204832510Y-158800828D01*
X204832510Y-158800828D02*
X204475367Y-158800828D01*
X207903939Y-157372257D02*
X207761082Y-157300828D01*
X207761082Y-157300828D02*
X207546796Y-157300828D01*
X207546796Y-157300828D02*
X207332510Y-157372257D01*
X207332510Y-157372257D02*
X207189653Y-157515114D01*
X207189653Y-157515114D02*
X207118224Y-157657971D01*
X207118224Y-157657971D02*
X207046796Y-157943685D01*
X207046796Y-157943685D02*
X207046796Y-158157971D01*
X207046796Y-158157971D02*
X207118224Y-158443685D01*
X207118224Y-158443685D02*
X207189653Y-158586542D01*
X207189653Y-158586542D02*
X207332510Y-158729400D01*
X207332510Y-158729400D02*
X207546796Y-158800828D01*
X207546796Y-158800828D02*
X207689653Y-158800828D01*
X207689653Y-158800828D02*
X207903939Y-158729400D01*
X207903939Y-158729400D02*
X207975367Y-158657971D01*
X207975367Y-158657971D02*
X207975367Y-158157971D01*
X207975367Y-158157971D02*
X207689653Y-158157971D01*
X208618224Y-158800828D02*
X208618224Y-157300828D01*
X208618224Y-157300828D02*
X209475367Y-158800828D01*
X209475367Y-158800828D02*
X209475367Y-157300828D01*
X210189653Y-158800828D02*
X210189653Y-157300828D01*
X210189653Y-157300828D02*
X210546796Y-157300828D01*
X210546796Y-157300828D02*
X210761082Y-157372257D01*
X210761082Y-157372257D02*
X210903939Y-157515114D01*
X210903939Y-157515114D02*
X210975368Y-157657971D01*
X210975368Y-157657971D02*
X211046796Y-157943685D01*
X211046796Y-157943685D02*
X211046796Y-158157971D01*
X211046796Y-158157971D02*
X210975368Y-158443685D01*
X210975368Y-158443685D02*
X210903939Y-158586542D01*
X210903939Y-158586542D02*
X210761082Y-158729400D01*
X210761082Y-158729400D02*
X210546796Y-158800828D01*
X210546796Y-158800828D02*
X210189653Y-158800828D01*
D10*
D11*
X90840225Y-157800828D02*
X91340225Y-159300828D01*
X91340225Y-159300828D02*
X91840225Y-157800828D01*
X92340224Y-158729400D02*
X93483082Y-158729400D01*
X92911653Y-159300828D02*
X92911653Y-158157971D01*
X95125939Y-157800828D02*
X95625939Y-159300828D01*
X95625939Y-159300828D02*
X96125939Y-157800828D01*
X96625938Y-158729400D02*
X97768796Y-158729400D01*
X100411653Y-157872257D02*
X100268796Y-157800828D01*
X100268796Y-157800828D02*
X100054510Y-157800828D01*
X100054510Y-157800828D02*
X99840224Y-157872257D01*
X99840224Y-157872257D02*
X99697367Y-158015114D01*
X99697367Y-158015114D02*
X99625938Y-158157971D01*
X99625938Y-158157971D02*
X99554510Y-158443685D01*
X99554510Y-158443685D02*
X99554510Y-158657971D01*
X99554510Y-158657971D02*
X99625938Y-158943685D01*
X99625938Y-158943685D02*
X99697367Y-159086542D01*
X99697367Y-159086542D02*
X99840224Y-159229400D01*
X99840224Y-159229400D02*
X100054510Y-159300828D01*
X100054510Y-159300828D02*
X100197367Y-159300828D01*
X100197367Y-159300828D02*
X100411653Y-159229400D01*
X100411653Y-159229400D02*
X100483081Y-159157971D01*
X100483081Y-159157971D02*
X100483081Y-158657971D01*
X100483081Y-158657971D02*
X100197367Y-158657971D01*
X101125938Y-159300828D02*
X101125938Y-157800828D01*
X101125938Y-157800828D02*
X101983081Y-159300828D01*
X101983081Y-159300828D02*
X101983081Y-157800828D01*
X102697367Y-159300828D02*
X102697367Y-157800828D01*
X102697367Y-157800828D02*
X103054510Y-157800828D01*
X103054510Y-157800828D02*
X103268796Y-157872257D01*
X103268796Y-157872257D02*
X103411653Y-158015114D01*
X103411653Y-158015114D02*
X103483082Y-158157971D01*
X103483082Y-158157971D02*
X103554510Y-158443685D01*
X103554510Y-158443685D02*
X103554510Y-158657971D01*
X103554510Y-158657971D02*
X103483082Y-158943685D01*
X103483082Y-158943685D02*
X103411653Y-159086542D01*
X103411653Y-159086542D02*
X103268796Y-159229400D01*
X103268796Y-159229400D02*
X103054510Y-159300828D01*
X103054510Y-159300828D02*
X102697367Y-159300828D01*
X106125939Y-157872257D02*
X105983082Y-157800828D01*
X105983082Y-157800828D02*
X105768796Y-157800828D01*
X105768796Y-157800828D02*
X105554510Y-157872257D01*
X105554510Y-157872257D02*
X105411653Y-158015114D01*
X105411653Y-158015114D02*
X105340224Y-158157971D01*
X105340224Y-158157971D02*
X105268796Y-158443685D01*
X105268796Y-158443685D02*
X105268796Y-158657971D01*
X105268796Y-158657971D02*
X105340224Y-158943685D01*
X105340224Y-158943685D02*
X105411653Y-159086542D01*
X105411653Y-159086542D02*
X105554510Y-159229400D01*
X105554510Y-159229400D02*
X105768796Y-159300828D01*
X105768796Y-159300828D02*
X105911653Y-159300828D01*
X105911653Y-159300828D02*
X106125939Y-159229400D01*
X106125939Y-159229400D02*
X106197367Y-159157971D01*
X106197367Y-159157971D02*
X106197367Y-158657971D01*
X106197367Y-158657971D02*
X105911653Y-158657971D01*
X106840224Y-159300828D02*
X106840224Y-157800828D01*
X106840224Y-157800828D02*
X107697367Y-159300828D01*
X107697367Y-159300828D02*
X107697367Y-157800828D01*
X108411653Y-159300828D02*
X108411653Y-157800828D01*
X108411653Y-157800828D02*
X108768796Y-157800828D01*
X108768796Y-157800828D02*
X108983082Y-157872257D01*
X108983082Y-157872257D02*
X109125939Y-158015114D01*
X109125939Y-158015114D02*
X109197368Y-158157971D01*
X109197368Y-158157971D02*
X109268796Y-158443685D01*
X109268796Y-158443685D02*
X109268796Y-158657971D01*
X109268796Y-158657971D02*
X109197368Y-158943685D01*
X109197368Y-158943685D02*
X109125939Y-159086542D01*
X109125939Y-159086542D02*
X108983082Y-159229400D01*
X108983082Y-159229400D02*
X108768796Y-159300828D01*
X108768796Y-159300828D02*
X108411653Y-159300828D01*
D12*
%TO.P,F1,1*%
%TO.N,Net-(J1-Pin_4)*%
X151728000Y-127784000D03*
%TO.P,F1,2*%
%TO.N,+BATT*%
X151728000Y-130584000D03*
%TD*%
D13*
%TO.P,D4,1,K*%
%TO.N,Net-(D2-A)*%
X122518000Y-129822000D03*
D14*
%TO.P,D4,2,A*%
%TO.N,GND*%
X112358000Y-129822000D03*
%TD*%
D15*
%TO.P,SW2,*%
%TO.N,*%
X131590000Y-120424000D03*
X139790000Y-120424000D03*
D16*
%TO.P,SW2,1,C*%
%TO.N,GND*%
X133690000Y-120424000D03*
D17*
%TO.P,SW2,2,B*%
%TO.N,Net-(J1-Pin_2)*%
X135690000Y-120424000D03*
%TO.P,SW2,3,A*%
%TO.N,unconnected-(SW2-A-Pad3)*%
X137690000Y-120424000D03*
%TD*%
D18*
%TO.P,D2,1,K*%
%TO.N,Net-(D2-K)*%
X128614000Y-129822000D03*
D19*
%TO.P,D2,2,A*%
%TO.N,Net-(D2-A)*%
X126074000Y-129822000D03*
%TD*%
D13*
%TO.P,D3,1,K*%
%TO.N,Net-(D1-A)*%
X181192000Y-129568000D03*
D14*
%TO.P,D3,2,A*%
%TO.N,Net-(D3-A)*%
X171032000Y-129568000D03*
%TD*%
D20*
%TO.P,J5,1,Pin_1*%
%TO.N,+BATT*%
X90514000Y-121592400D03*
D14*
%TO.P,J5,2,Pin_2*%
%TO.N,-BATT*%
X93054000Y-121592400D03*
%TO.P,J5,3,Pin_3*%
%TO.N,GND*%
X95594000Y-121592400D03*
%TO.P,J5,4,Pin_4*%
X98134000Y-121592400D03*
%TD*%
D12*
%TO.P,F2,1*%
%TO.N,Net-(J1-Pin_1)*%
X148172000Y-127784000D03*
%TO.P,F2,2*%
%TO.N,-BATT*%
X148172000Y-130584000D03*
%TD*%
D21*
%TO.P,R2,1*%
%TO.N,+BATT*%
X163623401Y-129639427D03*
%TO.P,R2,2*%
%TO.N,Net-(D3-A)*%
X166548401Y-129639427D03*
%TD*%
D18*
%TO.P,D1,1,K*%
%TO.N,GND*%
X188558000Y-129983000D03*
D19*
%TO.P,D1,2,A*%
%TO.N,Net-(D1-A)*%
X186018000Y-129983000D03*
%TD*%
D20*
%TO.P,J6,1,Pin_1*%
%TO.N,+BATT*%
X201761000Y-121561500D03*
D14*
%TO.P,J6,2,Pin_2*%
%TO.N,-BATT*%
X204301000Y-121561500D03*
%TO.P,J6,3,Pin_3*%
%TO.N,GND*%
X206841000Y-121561500D03*
%TO.P,J6,4,Pin_4*%
X209381000Y-121561500D03*
%TD*%
D20*
%TO.P,J1,1,Pin_1*%
%TO.N,Net-(J1-Pin_1)*%
X145970000Y-122152000D03*
D14*
%TO.P,J1,2,Pin_2*%
%TO.N,Net-(J1-Pin_2)*%
X148510000Y-122152000D03*
%TO.P,J1,3,Pin_3*%
X151050000Y-122152000D03*
%TO.P,J1,4,Pin_4*%
%TO.N,Net-(J1-Pin_4)*%
X153590000Y-122152000D03*
%TD*%
D22*
%TO.P,R1,1*%
%TO.N,-BATT*%
X136234000Y-129822000D03*
%TO.P,R1,2*%
%TO.N,Net-(D2-K)*%
X133309000Y-129822000D03*
%TD*%
D20*
%TO.P,J5,1,Pin_1*%
%TO.N,+BATT*%
X90424000Y-145440400D03*
D14*
%TO.P,J5,2,Pin_2*%
%TO.N,-BATT*%
X92964000Y-145440400D03*
%TO.P,J5,3,Pin_3*%
%TO.N,GND*%
X95504000Y-145440400D03*
%TO.P,J5,4,Pin_4*%
X98044000Y-145440400D03*
%TD*%
D12*
%TO.P,F2,1*%
%TO.N,Net-(J1-Pin_1)*%
X148082000Y-151632000D03*
%TO.P,F2,2*%
%TO.N,-BATT*%
X148082000Y-154432000D03*
%TD*%
D18*
%TO.P,D1,1,K*%
%TO.N,GND*%
X188468000Y-153831000D03*
D19*
%TO.P,D1,2,A*%
%TO.N,Net-(D1-A)*%
X185928000Y-153831000D03*
%TD*%
D21*
%TO.P,R2,1*%
%TO.N,+BATT*%
X163533401Y-153487427D03*
%TO.P,R2,2*%
%TO.N,Net-(D3-A)*%
X166458401Y-153487427D03*
%TD*%
D22*
%TO.P,R1,1*%
%TO.N,-BATT*%
X136144000Y-153670000D03*
%TO.P,R1,2*%
%TO.N,Net-(D2-K)*%
X133219000Y-153670000D03*
%TD*%
D20*
%TO.P,J6,1,Pin_1*%
%TO.N,+BATT*%
X201671000Y-145409500D03*
D14*
%TO.P,J6,2,Pin_2*%
%TO.N,-BATT*%
X204211000Y-145409500D03*
%TO.P,J6,3,Pin_3*%
%TO.N,GND*%
X206751000Y-145409500D03*
%TO.P,J6,4,Pin_4*%
X209291000Y-145409500D03*
%TD*%
D13*
%TO.P,D3,1,K*%
%TO.N,Net-(D1-A)*%
X181102000Y-153416000D03*
D14*
%TO.P,D3,2,A*%
%TO.N,Net-(D3-A)*%
X170942000Y-153416000D03*
%TD*%
D20*
%TO.P,J1,1,Pin_1*%
%TO.N,Net-(J1-Pin_1)*%
X145880000Y-146000000D03*
D14*
%TO.P,J1,2,Pin_2*%
%TO.N,Net-(J1-Pin_2)*%
X148420000Y-146000000D03*
%TO.P,J1,3,Pin_3*%
X150960000Y-146000000D03*
%TO.P,J1,4,Pin_4*%
%TO.N,Net-(J1-Pin_4)*%
X153500000Y-146000000D03*
%TD*%
D12*
%TO.P,F1,1*%
%TO.N,Net-(J1-Pin_4)*%
X151638000Y-151632000D03*
%TO.P,F1,2*%
%TO.N,+BATT*%
X151638000Y-154432000D03*
%TD*%
D18*
%TO.P,D2,1,K*%
%TO.N,Net-(D2-K)*%
X128524000Y-153670000D03*
D19*
%TO.P,D2,2,A*%
%TO.N,Net-(D2-A)*%
X125984000Y-153670000D03*
%TD*%
D13*
%TO.P,D4,1,K*%
%TO.N,Net-(D2-A)*%
X122428000Y-153670000D03*
D14*
%TO.P,D4,2,A*%
%TO.N,GND*%
X112268000Y-153670000D03*
%TD*%
D15*
%TO.P,SW2,*%
%TO.N,*%
X131500000Y-144272000D03*
X139700000Y-144272000D03*
D16*
%TO.P,SW2,1,C*%
%TO.N,GND*%
X133600000Y-144272000D03*
D17*
%TO.P,SW2,2,B*%
%TO.N,Net-(J1-Pin_2)*%
X135600000Y-144272000D03*
%TO.P,SW2,3,A*%
%TO.N,unconnected-(SW2-A-Pad3)*%
X137600000Y-144272000D03*
%TD*%
D23*
%TO.N,Net-(D3-A)*%
X166548401Y-129639427D02*
X170866401Y-129639427D01*
%TO.N,Net-(J1-Pin_2)*%
X148510000Y-122152000D02*
X150349000Y-122152000D01*
X142456445Y-120601000D02*
X140432445Y-122625000D01*
X148510000Y-122152000D02*
X148510000Y-121993708D01*
X135690000Y-120924000D02*
X135690000Y-120424000D01*
X140432445Y-122625000D02*
X137391000Y-122625000D01*
%TO.N,Net-(D2-K)*%
X133309000Y-129822000D02*
X128614000Y-129822000D01*
%TO.N,Net-(J1-Pin_4)*%
X152386110Y-127784000D02*
X151728000Y-127784000D01*
X153590000Y-126580110D02*
X152386110Y-127784000D01*
%TO.N,GND*%
X198419500Y-129983000D02*
X188558000Y-129983000D01*
X132678000Y-122710000D02*
X133154000Y-122234000D01*
X98134000Y-121592400D02*
X104128400Y-121592400D01*
%TO.N,+BATT*%
X90514000Y-124234000D02*
X90514000Y-121592400D01*
%TO.N,GND*%
X104128400Y-121592400D02*
X112358000Y-129822000D01*
X135775000Y-117403000D02*
X204587000Y-117403000D01*
%TO.N,-BATT*%
X93054000Y-123218000D02*
X93054000Y-121592400D01*
X148172000Y-130584000D02*
X149696000Y-129060000D01*
X146140000Y-132616000D02*
X102452000Y-132616000D01*
%TO.N,+BATT*%
X151728000Y-130584000D02*
X153252000Y-130584000D01*
X148967697Y-133344303D02*
X99624303Y-133344303D01*
%TO.N,-BATT*%
X148172000Y-130584000D02*
X146140000Y-132616000D01*
%TO.N,+BATT*%
X151728000Y-130584000D02*
X148967697Y-133344303D01*
%TO.N,Net-(J1-Pin_1)*%
X145970000Y-122152000D02*
X145970000Y-125842000D01*
%TO.N,Net-(D1-A)*%
X185603000Y-129568000D02*
X186018000Y-129983000D01*
%TO.N,+BATT*%
X154776000Y-129568000D02*
X163551974Y-129568000D01*
X153760000Y-130584000D02*
X154776000Y-129568000D01*
%TO.N,Net-(D2-A)*%
X122518000Y-129822000D02*
X126328000Y-129822000D01*
%TO.N,GND*%
X207100000Y-121302500D02*
X206841000Y-121561500D01*
X207100000Y-119916000D02*
X207100000Y-121302500D01*
X130646000Y-122710000D02*
X132678000Y-122710000D01*
X98134000Y-121592400D02*
X95791000Y-121592400D01*
%TO.N,-BATT*%
X154291000Y-127669292D02*
X154291000Y-124465000D01*
%TO.N,+BATT*%
X153252000Y-130584000D02*
X157570000Y-126266000D01*
%TO.N,-BATT*%
X204560000Y-121302500D02*
X204301000Y-121561500D01*
X203544000Y-118900000D02*
X204560000Y-119916000D01*
X204560000Y-119916000D02*
X204560000Y-121302500D01*
%TO.N,+BATT*%
X197056500Y-126266000D02*
X201761000Y-121561500D01*
%TO.N,-BATT*%
X149696000Y-129060000D02*
X152900292Y-129060000D01*
%TO.N,GND*%
X98134000Y-121592400D02*
X101842400Y-117884000D01*
X101842400Y-117884000D02*
X125820000Y-117884000D01*
X206841000Y-121561500D02*
X209381000Y-121561500D01*
%TO.N,-BATT*%
X159856000Y-118900000D02*
X203544000Y-118900000D01*
X136996000Y-130584000D02*
X148172000Y-130584000D01*
%TO.N,GND*%
X204587000Y-117403000D02*
X207100000Y-119916000D01*
%TO.N,Net-(J1-Pin_1)*%
X147912000Y-127784000D02*
X148172000Y-127784000D01*
%TO.N,GND*%
X206841000Y-121561500D02*
X198419500Y-129983000D01*
%TO.N,+BATT*%
X157570000Y-126266000D02*
X197056500Y-126266000D01*
X153252000Y-130584000D02*
X153760000Y-130584000D01*
%TO.N,-BATT*%
X102452000Y-132616000D02*
X93054000Y-123218000D01*
X152900292Y-129060000D02*
X154291000Y-127669292D01*
X136234000Y-129822000D02*
X136996000Y-130584000D01*
X154291000Y-124465000D02*
X159856000Y-118900000D01*
%TO.N,Net-(D1-A)*%
X181192000Y-129568000D02*
X185603000Y-129568000D01*
%TO.N,GND*%
X133154000Y-122234000D02*
X133154000Y-120024000D01*
%TO.N,Net-(J1-Pin_4)*%
X153590000Y-122152000D02*
X153590000Y-126580110D01*
%TO.N,+BATT*%
X163551974Y-129568000D02*
X163623401Y-129639427D01*
%TO.N,GND*%
X133154000Y-120024000D02*
X135775000Y-117403000D01*
%TO.N,+BATT*%
X99624303Y-133344303D02*
X90514000Y-124234000D01*
%TO.N,GND*%
X125820000Y-117884000D02*
X130646000Y-122710000D01*
%TO.N,Net-(J1-Pin_2)*%
X147117292Y-120601000D02*
X142456445Y-120601000D01*
X137391000Y-122625000D02*
X135690000Y-120924000D01*
X148510000Y-121993708D02*
X147117292Y-120601000D01*
%TO.N,Net-(J1-Pin_1)*%
X145970000Y-125842000D02*
X147912000Y-127784000D01*
%TO.N,-BATT*%
X203454000Y-142748000D02*
X204470000Y-143764000D01*
X148082000Y-154432000D02*
X146050000Y-156464000D01*
X146050000Y-156464000D02*
X102362000Y-156464000D01*
X152810292Y-152908000D02*
X154201000Y-151517292D01*
X154201000Y-148313000D02*
X159766000Y-142748000D01*
X148082000Y-154432000D02*
X149606000Y-152908000D01*
X204470000Y-143764000D02*
X204470000Y-145150500D01*
X102362000Y-156464000D02*
X92964000Y-147066000D01*
X159766000Y-142748000D02*
X203454000Y-142748000D01*
X136906000Y-154432000D02*
X148082000Y-154432000D01*
X136144000Y-153670000D02*
X136906000Y-154432000D01*
X204470000Y-145150500D02*
X204211000Y-145409500D01*
X92964000Y-147066000D02*
X92964000Y-145440400D01*
X154201000Y-151517292D02*
X154201000Y-148313000D01*
X149606000Y-152908000D02*
X152810292Y-152908000D01*
%TO.N,+BATT*%
X153162000Y-154432000D02*
X157480000Y-150114000D01*
X148877697Y-157192303D02*
X99534303Y-157192303D01*
X163461974Y-153416000D02*
X163533401Y-153487427D01*
X151638000Y-154432000D02*
X148877697Y-157192303D01*
X196966500Y-150114000D02*
X201671000Y-145409500D01*
X153162000Y-154432000D02*
X153670000Y-154432000D01*
X157480000Y-150114000D02*
X196966500Y-150114000D01*
X154686000Y-153416000D02*
X163461974Y-153416000D01*
X90424000Y-148082000D02*
X90424000Y-145440400D01*
X151638000Y-154432000D02*
X153162000Y-154432000D01*
X99534303Y-157192303D02*
X90424000Y-148082000D01*
X153670000Y-154432000D02*
X154686000Y-153416000D01*
%TO.N,GND*%
X133064000Y-146082000D02*
X133064000Y-143872000D01*
X206751000Y-145409500D02*
X209291000Y-145409500D01*
X135685000Y-141251000D02*
X204497000Y-141251000D01*
X104038400Y-145440400D02*
X112268000Y-153670000D01*
X98044000Y-145440400D02*
X104038400Y-145440400D01*
X132588000Y-146558000D02*
X133064000Y-146082000D01*
X204497000Y-141251000D02*
X207010000Y-143764000D01*
X133064000Y-143872000D02*
X135685000Y-141251000D01*
X125730000Y-141732000D02*
X130556000Y-146558000D01*
X101752400Y-141732000D02*
X125730000Y-141732000D01*
X98044000Y-145440400D02*
X101752400Y-141732000D01*
X206751000Y-145409500D02*
X198329500Y-153831000D01*
X98044000Y-145440400D02*
X95701000Y-145440400D01*
X198329500Y-153831000D02*
X188468000Y-153831000D01*
X130556000Y-146558000D02*
X132588000Y-146558000D01*
X207010000Y-143764000D02*
X207010000Y-145150500D01*
X207010000Y-145150500D02*
X206751000Y-145409500D01*
%TO.N,Net-(J1-Pin_4)*%
X153500000Y-150428110D02*
X152296110Y-151632000D01*
X153500000Y-146000000D02*
X153500000Y-150428110D01*
X152296110Y-151632000D02*
X151638000Y-151632000D01*
%TO.N,Net-(D1-A)*%
X185513000Y-153416000D02*
X185928000Y-153831000D01*
X181102000Y-153416000D02*
X185513000Y-153416000D01*
%TO.N,Net-(D2-A)*%
X122428000Y-153670000D02*
X126238000Y-153670000D01*
%TO.N,Net-(D2-K)*%
X133219000Y-153670000D02*
X128524000Y-153670000D01*
%TO.N,Net-(J1-Pin_1)*%
X145880000Y-149690000D02*
X147822000Y-151632000D01*
X145880000Y-146000000D02*
X145880000Y-149690000D01*
X147822000Y-151632000D02*
X148082000Y-151632000D01*
%TO.N,Net-(J1-Pin_2)*%
X148420000Y-145841708D02*
X147027292Y-144449000D01*
X137301000Y-146473000D02*
X135600000Y-144772000D01*
X147027292Y-144449000D02*
X142366445Y-144449000D01*
X148420000Y-146000000D02*
X148420000Y-145841708D01*
X142366445Y-144449000D02*
X140342445Y-146473000D01*
X135600000Y-144772000D02*
X135600000Y-144272000D01*
X140342445Y-146473000D02*
X137301000Y-146473000D01*
X148420000Y-146000000D02*
X150259000Y-146000000D01*
%TO.N,Net-(D3-A)*%
X166458401Y-153487427D02*
X170776401Y-153487427D01*
%TD*%
M02*
