%TF.GenerationSoftware,KiCad,Pcbnew,9.0.3*%
%TF.CreationDate,2025-09-30T08:48:07-07:00*%
%TF.ProjectId,backplate_wiring,6261636b-706c-4617-9465-5f776972696e,rev?*%
%TF.SameCoordinates,Original*%
%TF.FileFunction,Copper,L2,Bot*%
%TF.FilePolarity,Positive*%
%FSLAX46Y46*%
G04 Gerber Fmt 4.6, Leading zero omitted, Abs format (unit mm)*
G04 Created by KiCad (PCBNEW 9.0.3) date 2025-09-30 08:48:07*
%MOMM*%
%LPD*%
G01*
G04 APERTURE LIST*
G04 Aperture macros list*
%AMRoundRect*
0 Rectangle with rounded corners*
0 $1 Rounding radius*
0 $2 $3 $4 $5 $6 $7 $8 $9 X,Y pos of 4 corners*
0 Add a 4 corners polygon primitive as box body*
4,1,4,$2,$3,$4,$5,$6,$7,$8,$9,$2,$3,0*
0 Add four circle primitives for the rounded corners*
1,1,$1+$1,$2,$3*
1,1,$1+$1,$4,$5*
1,1,$1+$1,$6,$7*
1,1,$1+$1,$8,$9*
0 Add four rect primitives between the rounded corners*
20,1,$1+$1,$2,$3,$4,$5,0*
20,1,$1+$1,$4,$5,$6,$7,0*
20,1,$1+$1,$6,$7,$8,$9,0*
20,1,$1+$1,$8,$9,$2,$3,0*%
G04 Aperture macros list end*
%TA.AperFunction,ComponentPad*%
%ADD10RoundRect,0.249999X0.850001X0.850001X-0.850001X0.850001X-0.850001X-0.850001X0.850001X-0.850001X0*%
%TD*%
%TA.AperFunction,ComponentPad*%
%ADD11C,2.200000*%
%TD*%
%TA.AperFunction,ComponentPad*%
%ADD12O,2.200000X3.500000*%
%TD*%
%TA.AperFunction,ComponentPad*%
%ADD13R,1.500000X2.500000*%
%TD*%
%TA.AperFunction,ComponentPad*%
%ADD14O,1.500000X2.500000*%
%TD*%
%TA.AperFunction,ComponentPad*%
%ADD15R,1.800000X1.800000*%
%TD*%
%TA.AperFunction,ComponentPad*%
%ADD16C,1.800000*%
%TD*%
%TA.AperFunction,ComponentPad*%
%ADD17RoundRect,0.249999X-0.850001X-0.850001X0.850001X-0.850001X0.850001X0.850001X-0.850001X0.850001X0*%
%TD*%
G04 APERTURE END LIST*
D10*
%TO.P,D4,1,K*%
%TO.N,Net-(D2-A)*%
X122518000Y-129822000D03*
D11*
%TO.P,D4,2,A*%
%TO.N,GND*%
X112358000Y-129822000D03*
%TD*%
D12*
%TO.P,SW2,*%
%TO.N,*%
X131590000Y-120424000D03*
X139790000Y-120424000D03*
D13*
%TO.P,SW2,1,C*%
%TO.N,GND*%
X133690000Y-120424000D03*
D14*
%TO.P,SW2,2,B*%
%TO.N,Net-(J1-Pin_2)*%
X135690000Y-120424000D03*
%TO.P,SW2,3,A*%
%TO.N,unconnected-(SW2-A-Pad3)*%
X137690000Y-120424000D03*
%TD*%
D15*
%TO.P,D2,1,K*%
%TO.N,Net-(D2-K)*%
X128614000Y-129822000D03*
D16*
%TO.P,D2,2,A*%
%TO.N,Net-(D2-A)*%
X126074000Y-129822000D03*
%TD*%
D10*
%TO.P,D3,1,K*%
%TO.N,Net-(D1-A)*%
X181192000Y-129568000D03*
D11*
%TO.P,D3,2,A*%
%TO.N,Net-(D3-A)*%
X171032000Y-129568000D03*
%TD*%
D17*
%TO.P,J5,1,Pin_1*%
%TO.N,+BATT*%
X90514000Y-121592400D03*
D11*
%TO.P,J5,2,Pin_2*%
%TO.N,-BATT*%
X93054000Y-121592400D03*
%TO.P,J5,3,Pin_3*%
%TO.N,GND*%
X95594000Y-121592400D03*
%TO.P,J5,4,Pin_4*%
X98134000Y-121592400D03*
%TD*%
D15*
%TO.P,D1,1,K*%
%TO.N,GND*%
X188558000Y-129983000D03*
D16*
%TO.P,D1,2,A*%
%TO.N,Net-(D1-A)*%
X186018000Y-129983000D03*
%TD*%
D17*
%TO.P,J6,1,Pin_1*%
%TO.N,+BATT*%
X201761000Y-121561500D03*
D11*
%TO.P,J6,2,Pin_2*%
%TO.N,-BATT*%
X204301000Y-121561500D03*
%TO.P,J6,3,Pin_3*%
%TO.N,GND*%
X206841000Y-121561500D03*
%TO.P,J6,4,Pin_4*%
X209381000Y-121561500D03*
%TD*%
D17*
%TO.P,J1,1,Pin_1*%
%TO.N,Net-(J1-Pin_1)*%
X145970000Y-122152000D03*
D11*
%TO.P,J1,2,Pin_2*%
%TO.N,Net-(J1-Pin_2)*%
X148510000Y-122152000D03*
%TO.P,J1,3,Pin_3*%
X151050000Y-122152000D03*
%TO.P,J1,4,Pin_4*%
%TO.N,Net-(J1-Pin_4)*%
X153590000Y-122152000D03*
%TD*%
D17*
%TO.P,J5,1,Pin_1*%
%TO.N,+BATT*%
X90424000Y-145440400D03*
D11*
%TO.P,J5,2,Pin_2*%
%TO.N,-BATT*%
X92964000Y-145440400D03*
%TO.P,J5,3,Pin_3*%
%TO.N,GND*%
X95504000Y-145440400D03*
%TO.P,J5,4,Pin_4*%
X98044000Y-145440400D03*
%TD*%
D15*
%TO.P,D1,1,K*%
%TO.N,GND*%
X188468000Y-153831000D03*
D16*
%TO.P,D1,2,A*%
%TO.N,Net-(D1-A)*%
X185928000Y-153831000D03*
%TD*%
D17*
%TO.P,J6,1,Pin_1*%
%TO.N,+BATT*%
X201671000Y-145409500D03*
D11*
%TO.P,J6,2,Pin_2*%
%TO.N,-BATT*%
X204211000Y-145409500D03*
%TO.P,J6,3,Pin_3*%
%TO.N,GND*%
X206751000Y-145409500D03*
%TO.P,J6,4,Pin_4*%
X209291000Y-145409500D03*
%TD*%
D10*
%TO.P,D3,1,K*%
%TO.N,Net-(D1-A)*%
X181102000Y-153416000D03*
D11*
%TO.P,D3,2,A*%
%TO.N,Net-(D3-A)*%
X170942000Y-153416000D03*
%TD*%
D17*
%TO.P,J1,1,Pin_1*%
%TO.N,Net-(J1-Pin_1)*%
X145880000Y-146000000D03*
D11*
%TO.P,J1,2,Pin_2*%
%TO.N,Net-(J1-Pin_2)*%
X148420000Y-146000000D03*
%TO.P,J1,3,Pin_3*%
X150960000Y-146000000D03*
%TO.P,J1,4,Pin_4*%
%TO.N,Net-(J1-Pin_4)*%
X153500000Y-146000000D03*
%TD*%
D15*
%TO.P,D2,1,K*%
%TO.N,Net-(D2-K)*%
X128524000Y-153670000D03*
D16*
%TO.P,D2,2,A*%
%TO.N,Net-(D2-A)*%
X125984000Y-153670000D03*
%TD*%
D10*
%TO.P,D4,1,K*%
%TO.N,Net-(D2-A)*%
X122428000Y-153670000D03*
D11*
%TO.P,D4,2,A*%
%TO.N,GND*%
X112268000Y-153670000D03*
%TD*%
D12*
%TO.P,SW2,*%
%TO.N,*%
X131500000Y-144272000D03*
X139700000Y-144272000D03*
D13*
%TO.P,SW2,1,C*%
%TO.N,GND*%
X133600000Y-144272000D03*
D14*
%TO.P,SW2,2,B*%
%TO.N,Net-(J1-Pin_2)*%
X135600000Y-144272000D03*
%TO.P,SW2,3,A*%
%TO.N,unconnected-(SW2-A-Pad3)*%
X137600000Y-144272000D03*
%TD*%
M02*
