M48
; DRILL file {KiCad 9.0.3} date 2025-08-26T07:18:57-0700
; FORMAT={-:-/ absolute / metric / decimal}
; #@! TF.CreationDate,2025-08-26T07:18:57-07:00
; #@! TF.GenerationSoftware,Kicad,Pcbnew,9.0.3
; #@! TF.FileFunction,Plated,1,2,PTH
FMAT,2
METRIC
; #@! TA.AperFunction,Plated,PTH,ViaDrill
T1C0.800
; #@! TA.AperFunction,Plated,PTH,ViaDrill
T2C1.000
; #@! TA.AperFunction,Plated,PTH,ComponentDrill
T3C1.000
; #@! TA.AperFunction,Plated,PTH,ComponentDrill
T4C1.100
; #@! TA.AperFunction,Plated,PTH,ComponentDrill
T5C1.200
%
G90
G05
T1
X54.652Y-125.25
X57.192Y-126.52
X75.734Y-143.792
X75.734Y-146.84
X94.64Y-125.25
X97.18Y-126.52
X115.722Y-143.792
X115.722Y-146.84
T2
X47.413Y-146.84
X49.064Y-131.219
X50.842Y-114.582
X61.637Y-115.471
X67.987Y-115.471
X75.48Y-117.376
X75.48Y-139.347
X87.401Y-146.84
X89.052Y-131.219
X90.83Y-114.582
X101.625Y-115.471
X107.975Y-115.471
X115.468Y-117.376
X115.468Y-139.347
T3
X48.048Y-137.315
X48.048Y-139.855
X88.036Y-137.315
X88.036Y-139.855
T4
X49.318Y-117.376
X49.318Y-119.916
X49.318Y-122.456
X49.318Y-124.996
X60.879Y-112.935
X63.419Y-112.935
X65.959Y-112.935
X68.499Y-112.935
X89.306Y-117.376
X89.306Y-119.916
X89.306Y-122.456
X89.306Y-124.996
X100.867Y-112.935
X103.407Y-112.935
X105.947Y-112.935
X108.487Y-112.935
X163.38Y-112.5
X163.38Y-135.5
X165.92Y-112.5
X165.92Y-135.5
X168.46Y-112.5
X168.46Y-135.5
X171.0Y-112.5
X171.0Y-135.5
X183.38Y-112.5
X183.38Y-135.5
X185.92Y-112.5
X185.92Y-135.5
X188.46Y-112.5
X188.46Y-135.5
X191.0Y-112.5
X191.0Y-135.5
T5
X129.0Y-112.0
X129.0Y-135.0
X132.5Y-112.0
X132.5Y-135.0
X136.0Y-112.0
X136.0Y-135.0
X239.0Y-112.0
X239.0Y-135.0
X242.5Y-112.0
X242.5Y-135.0
X246.0Y-112.0
X246.0Y-135.0
M30
