%TF.GenerationSoftware,KiCad,Pcbnew,9.0.3*%
%TF.CreationDate,2025-08-26T07:18:43-07:00*%
%TF.ProjectId,board_prints,626f6172-645f-4707-9269-6e74732e6b69,rev?*%
%TF.SameCoordinates,Original*%
%TF.FileFunction,Copper,L2,Bot*%
%TF.FilePolarity,Positive*%
%FSLAX46Y46*%
G04 Gerber Fmt 4.6, Leading zero omitted, Abs format (unit mm)*
G04 Created by KiCad (PCBNEW 9.0.3) date 2025-08-26 07:18:43*
%MOMM*%
%LPD*%
G01*
G04 APERTURE LIST*
G04 Aperture macros list*
%AMRoundRect*
0 Rectangle with rounded corners*
0 $1 Rounding radius*
0 $2 $3 $4 $5 $6 $7 $8 $9 X,Y pos of 4 corners*
0 Add a 4 corners polygon primitive as box body*
4,1,4,$2,$3,$4,$5,$6,$7,$8,$9,$2,$3,0*
0 Add four circle primitives for the rounded corners*
1,1,$1+$1,$2,$3*
1,1,$1+$1,$4,$5*
1,1,$1+$1,$6,$7*
1,1,$1+$1,$8,$9*
0 Add four rect primitives between the rounded corners*
20,1,$1+$1,$2,$3,$4,$5,0*
20,1,$1+$1,$4,$5,$6,$7,0*
20,1,$1+$1,$6,$7,$8,$9,0*
20,1,$1+$1,$8,$9,$2,$3,0*%
G04 Aperture macros list end*
%TA.AperFunction,ComponentPad*%
%ADD10RoundRect,0.249999X0.850001X0.850001X-0.850001X0.850001X-0.850001X-0.850001X0.850001X-0.850001X0*%
%TD*%
%TA.AperFunction,ComponentPad*%
%ADD11C,2.200000*%
%TD*%
%TA.AperFunction,ComponentPad*%
%ADD12R,1.700000X1.700000*%
%TD*%
%TA.AperFunction,ComponentPad*%
%ADD13C,1.700000*%
%TD*%
%TA.AperFunction,ComponentPad*%
%ADD14RoundRect,0.250001X-0.949999X-0.949999X0.949999X-0.949999X0.949999X0.949999X-0.949999X0.949999X0*%
%TD*%
%TA.AperFunction,ComponentPad*%
%ADD15C,2.400000*%
%TD*%
%TA.AperFunction,ComponentPad*%
%ADD16RoundRect,0.249999X-0.850001X0.850001X-0.850001X-0.850001X0.850001X-0.850001X0.850001X0.850001X0*%
%TD*%
%TA.AperFunction,ComponentPad*%
%ADD17RoundRect,0.249999X-0.850001X-0.850001X0.850001X-0.850001X0.850001X0.850001X-0.850001X0.850001X0*%
%TD*%
%TA.AperFunction,ViaPad*%
%ADD18C,1.000000*%
%TD*%
%TA.AperFunction,ViaPad*%
%ADD19C,1.500000*%
%TD*%
%TA.AperFunction,Conductor*%
%ADD20C,0.200000*%
%TD*%
G04 APERTURE END LIST*
D10*
%TO.P,J2,1,Pin_1*%
%TO.N,Net-(J2-Pin_1)*%
X108487000Y-112935000D03*
D11*
%TO.P,J2,2,Pin_2*%
%TO.N,GND*%
X105947000Y-112935000D03*
%TO.P,J2,3,Pin_3*%
%TO.N,Net-(J2-Pin_3)*%
X103407000Y-112935000D03*
%TO.P,J2,4,Pin_4*%
%TO.N,GND*%
X100867000Y-112935000D03*
%TD*%
D12*
%TO.P,J3,1,Pin_1*%
%TO.N,+BATT*%
X48048000Y-139855000D03*
D13*
%TO.P,J3,2,Pin_2*%
%TO.N,GND*%
X48048000Y-137315000D03*
%TD*%
D14*
%TO.P,J4,1,Pin_1*%
%TO.N,+BATT*%
X129000000Y-112000000D03*
D15*
%TO.P,J4,2,Pin_2*%
%TO.N,-BATT*%
X132500000Y-112000000D03*
%TO.P,J4,3,Pin_3*%
%TO.N,GND*%
X136000000Y-112000000D03*
%TD*%
D14*
%TO.P,J4,1,Pin_1*%
%TO.N,+BATT*%
X129000000Y-135000000D03*
D15*
%TO.P,J4,2,Pin_2*%
%TO.N,-BATT*%
X132500000Y-135000000D03*
%TO.P,J4,3,Pin_3*%
%TO.N,GND*%
X136000000Y-135000000D03*
%TD*%
D12*
%TO.P,J3,1,Pin_1*%
%TO.N,+BATT*%
X88036000Y-139855000D03*
D13*
%TO.P,J3,2,Pin_2*%
%TO.N,GND*%
X88036000Y-137315000D03*
%TD*%
D10*
%TO.P,J2,1,Pin_1*%
%TO.N,Net-(J2-Pin_1)*%
X68499000Y-112935000D03*
D11*
%TO.P,J2,2,Pin_2*%
%TO.N,GND*%
X65959000Y-112935000D03*
%TO.P,J2,3,Pin_3*%
%TO.N,Net-(J2-Pin_3)*%
X63419000Y-112935000D03*
%TO.P,J2,4,Pin_4*%
%TO.N,GND*%
X60879000Y-112935000D03*
%TD*%
D16*
%TO.P,J1,1,Pin_1*%
%TO.N,+BATT*%
X49318000Y-117376000D03*
D11*
%TO.P,J1,2,Pin_2*%
%TO.N,GND*%
X49318000Y-119916000D03*
%TO.P,J1,3,Pin_3*%
%TO.N,+5V*%
X49318000Y-122456000D03*
%TO.P,J1,4,Pin_4*%
%TO.N,+BATT*%
X49318000Y-124996000D03*
%TD*%
D17*
%TO.P,J1,1,Pin_1*%
%TO.N,GND*%
X183380000Y-135500000D03*
D11*
%TO.P,J1,2,Pin_2*%
X185920000Y-135500000D03*
%TO.P,J1,3,Pin_3*%
%TO.N,Net-(J1-Pin_3)*%
X188460000Y-135500000D03*
%TO.P,J1,4,Pin_4*%
%TO.N,Net-(J1-Pin_4)*%
X191000000Y-135500000D03*
%TD*%
D16*
%TO.P,J1,1,Pin_1*%
%TO.N,+BATT*%
X89306000Y-117376000D03*
D11*
%TO.P,J1,2,Pin_2*%
%TO.N,GND*%
X89306000Y-119916000D03*
%TO.P,J1,3,Pin_3*%
%TO.N,+5V*%
X89306000Y-122456000D03*
%TO.P,J1,4,Pin_4*%
%TO.N,+BATT*%
X89306000Y-124996000D03*
%TD*%
D17*
%TO.P,J3,1,Pin_1*%
%TO.N,GND*%
X163380000Y-112500000D03*
D11*
%TO.P,J3,2,Pin_2*%
X165920000Y-112500000D03*
%TO.P,J3,3,Pin_3*%
X168460000Y-112500000D03*
%TO.P,J3,4,Pin_4*%
X171000000Y-112500000D03*
%TD*%
D14*
%TO.P,J2,1,Pin_1*%
%TO.N,+BATT*%
X239000000Y-112000000D03*
D15*
%TO.P,J2,2,Pin_2*%
%TO.N,-BATT*%
X242500000Y-112000000D03*
%TO.P,J2,3,Pin_3*%
%TO.N,GND*%
X246000000Y-112000000D03*
%TD*%
D17*
%TO.P,J1,1,Pin_1*%
%TO.N,GND*%
X183380000Y-112500000D03*
D11*
%TO.P,J1,2,Pin_2*%
X185920000Y-112500000D03*
%TO.P,J1,3,Pin_3*%
%TO.N,Net-(J1-Pin_3)*%
X188460000Y-112500000D03*
%TO.P,J1,4,Pin_4*%
%TO.N,Net-(J1-Pin_4)*%
X191000000Y-112500000D03*
%TD*%
D17*
%TO.P,J3,1,Pin_1*%
%TO.N,GND*%
X163380000Y-135500000D03*
D11*
%TO.P,J3,2,Pin_2*%
X165920000Y-135500000D03*
%TO.P,J3,3,Pin_3*%
X168460000Y-135500000D03*
%TO.P,J3,4,Pin_4*%
X171000000Y-135500000D03*
%TD*%
D14*
%TO.P,J2,1,Pin_1*%
%TO.N,+BATT*%
X239000000Y-135000000D03*
D15*
%TO.P,J2,2,Pin_2*%
%TO.N,-BATT*%
X242500000Y-135000000D03*
%TO.P,J2,3,Pin_3*%
%TO.N,GND*%
X246000000Y-135000000D03*
%TD*%
D18*
%TO.N,/~{CS}*%
X75734000Y-146840000D03*
X94640000Y-125250000D03*
X115722000Y-146840000D03*
X54652000Y-125250000D03*
D19*
%TO.N,GND*%
X49064000Y-131219000D03*
X67987000Y-115471000D03*
X75480000Y-139347000D03*
X101625000Y-115471000D03*
X107975000Y-115471000D03*
X115468000Y-139347000D03*
X75480000Y-117376000D03*
X50842000Y-114582000D03*
X61637000Y-115471000D03*
X87401000Y-146840000D03*
X90830000Y-114582000D03*
X47413000Y-146840000D03*
X89052000Y-131219000D03*
X115468000Y-117376000D03*
D18*
%TO.N,Net-(U3-PA4_A1_D1)*%
X57192000Y-126520000D03*
X75734000Y-143792000D03*
X115722000Y-143792000D03*
X97180000Y-126520000D03*
%TD*%
D20*
%TO.N,/~{CS}*%
X54652000Y-125659326D02*
X54652000Y-125250000D01*
X75480000Y-146078000D02*
X75070674Y-146078000D01*
X94640000Y-125659326D02*
X94640000Y-125250000D01*
X115058674Y-146078000D02*
X94640000Y-125659326D01*
X75070674Y-146078000D02*
X54652000Y-125659326D01*
X115468000Y-146078000D02*
X115058674Y-146078000D01*
X115722000Y-146840000D02*
X115722000Y-146332000D01*
X75734000Y-146332000D02*
X75480000Y-146078000D01*
X115722000Y-146332000D02*
X115468000Y-146078000D01*
X75734000Y-146840000D02*
X75734000Y-146332000D01*
%TO.N,GND*%
X64812000Y-119408000D02*
X65066000Y-119408000D01*
X104800000Y-119408000D02*
X105054000Y-119408000D01*
X65066000Y-119408000D02*
X65831469Y-119408000D01*
X105054000Y-119408000D02*
X105819469Y-119408000D01*
%TO.N,Net-(U3-PA4_A1_D1)*%
X57192000Y-126520000D02*
X57192000Y-127028000D01*
X97180000Y-127028000D02*
X97688000Y-127536000D01*
X100228000Y-127536000D02*
X115722000Y-143030000D01*
X115722000Y-143030000D02*
X115722000Y-143792000D01*
X97180000Y-126520000D02*
X97180000Y-127028000D01*
X97688000Y-127536000D02*
X100228000Y-127536000D01*
X57192000Y-127028000D02*
X57700000Y-127536000D01*
X57700000Y-127536000D02*
X60240000Y-127536000D01*
X75734000Y-143030000D02*
X75734000Y-143792000D01*
X60240000Y-127536000D02*
X75734000Y-143030000D01*
%TD*%
%TA.AperFunction,Conductor*%
%TO.N,GND*%
G36*
X76970031Y-108497713D02*
G01*
X77006576Y-108548013D01*
X77011500Y-108579100D01*
X77011500Y-149413900D01*
X76992287Y-149473031D01*
X76941987Y-149509576D01*
X76910900Y-149514500D01*
X45601100Y-149514500D01*
X45541969Y-149495287D01*
X45505424Y-149444987D01*
X45500500Y-149413900D01*
X45500500Y-138984936D01*
X46994300Y-138984936D01*
X46994300Y-140725063D01*
X47006118Y-140784479D01*
X47006119Y-140784480D01*
X47051140Y-140851860D01*
X47118520Y-140896881D01*
X47177936Y-140908700D01*
X47177937Y-140908700D01*
X48918063Y-140908700D01*
X48918064Y-140908700D01*
X48977480Y-140896881D01*
X49044860Y-140851860D01*
X49089881Y-140784480D01*
X49101700Y-140725064D01*
X49101700Y-138984936D01*
X49089881Y-138925520D01*
X49044860Y-138858140D01*
X48977480Y-138813119D01*
X48977479Y-138813118D01*
X48929882Y-138803650D01*
X48918064Y-138801300D01*
X47177936Y-138801300D01*
X47168078Y-138803260D01*
X47118520Y-138813118D01*
X47051140Y-138858140D01*
X47006118Y-138925520D01*
X46994300Y-138984936D01*
X45500500Y-138984936D01*
X45500500Y-137211269D01*
X46994800Y-137211269D01*
X46994800Y-137418730D01*
X47035274Y-137622209D01*
X47114664Y-137813873D01*
X47114668Y-137813881D01*
X47147070Y-137862374D01*
X47147071Y-137862374D01*
X47565037Y-137444408D01*
X47582075Y-137507993D01*
X47647901Y-137622007D01*
X47740993Y-137715099D01*
X47855007Y-137780925D01*
X47918590Y-137797962D01*
X47500624Y-138215927D01*
X47500624Y-138215928D01*
X47549118Y-138248331D01*
X47549126Y-138248335D01*
X47740790Y-138327725D01*
X47944270Y-138368200D01*
X48151730Y-138368200D01*
X48355209Y-138327725D01*
X48546870Y-138248337D01*
X48546883Y-138248329D01*
X48595374Y-138215928D01*
X48595374Y-138215927D01*
X48177409Y-137797962D01*
X48240993Y-137780925D01*
X48355007Y-137715099D01*
X48448099Y-137622007D01*
X48513925Y-137507993D01*
X48530962Y-137444409D01*
X48948927Y-137862374D01*
X48948928Y-137862374D01*
X48981329Y-137813883D01*
X48981337Y-137813870D01*
X49060725Y-137622209D01*
X49101200Y-137418730D01*
X49101200Y-137211269D01*
X49060725Y-137007790D01*
X48981335Y-136816126D01*
X48981331Y-136816118D01*
X48948928Y-136767624D01*
X48948927Y-136767624D01*
X48530962Y-137185589D01*
X48513925Y-137122007D01*
X48448099Y-137007993D01*
X48355007Y-136914901D01*
X48240993Y-136849075D01*
X48177407Y-136832037D01*
X48595374Y-136414071D01*
X48595374Y-136414070D01*
X48546881Y-136381668D01*
X48546873Y-136381664D01*
X48355209Y-136302274D01*
X48151730Y-136261800D01*
X47944270Y-136261800D01*
X47740790Y-136302274D01*
X47549127Y-136381664D01*
X47549121Y-136381667D01*
X47500624Y-136414071D01*
X47918590Y-136832037D01*
X47855007Y-136849075D01*
X47740993Y-136914901D01*
X47647901Y-137007993D01*
X47582075Y-137122007D01*
X47565037Y-137185590D01*
X47147071Y-136767624D01*
X47114667Y-136816121D01*
X47114664Y-136816127D01*
X47035274Y-137007790D01*
X46994800Y-137211269D01*
X45500500Y-137211269D01*
X45500500Y-116471346D01*
X48014300Y-116471346D01*
X48014300Y-118280654D01*
X48017174Y-118311302D01*
X48062346Y-118440395D01*
X48143561Y-118550439D01*
X48253605Y-118631654D01*
X48382698Y-118676826D01*
X48413346Y-118679700D01*
X48413352Y-118679700D01*
X48493121Y-118679700D01*
X48552252Y-118698913D01*
X48588797Y-118749213D01*
X48593411Y-118788194D01*
X48589787Y-118834233D01*
X49147766Y-119392212D01*
X49105708Y-119403482D01*
X48980292Y-119475890D01*
X48877890Y-119578292D01*
X48805482Y-119703708D01*
X48794212Y-119745766D01*
X48236233Y-119187787D01*
X48236232Y-119187787D01*
X48203404Y-119232971D01*
X48203400Y-119232977D01*
X48110278Y-119415740D01*
X48110277Y-119415742D01*
X48046891Y-119610823D01*
X48046887Y-119610839D01*
X48014800Y-119813429D01*
X48014800Y-120018570D01*
X48046887Y-120221160D01*
X48046891Y-120221176D01*
X48110277Y-120416257D01*
X48110278Y-120416259D01*
X48203399Y-120599021D01*
X48236232Y-120644210D01*
X48794211Y-120086231D01*
X48805482Y-120128292D01*
X48877890Y-120253708D01*
X48980292Y-120356110D01*
X49105708Y-120428518D01*
X49147765Y-120439787D01*
X48589787Y-120997765D01*
X48589787Y-120997766D01*
X48634971Y-121030595D01*
X48634977Y-121030599D01*
X48763499Y-121096084D01*
X48807463Y-121140047D01*
X48817189Y-121201456D01*
X48788963Y-121256854D01*
X48763500Y-121275354D01*
X48634711Y-121340976D01*
X48468698Y-121461592D01*
X48323592Y-121606698D01*
X48202976Y-121772711D01*
X48109813Y-121955552D01*
X48046404Y-122150706D01*
X48046401Y-122150720D01*
X48014300Y-122353392D01*
X48014300Y-122558607D01*
X48046401Y-122761279D01*
X48046404Y-122761293D01*
X48109813Y-122956447D01*
X48202976Y-123139288D01*
X48323592Y-123305301D01*
X48323594Y-123305303D01*
X48468697Y-123450406D01*
X48634712Y-123571024D01*
X48693716Y-123601088D01*
X48762950Y-123636365D01*
X48806913Y-123680329D01*
X48816639Y-123741738D01*
X48788413Y-123797135D01*
X48762950Y-123815635D01*
X48634711Y-123880976D01*
X48468698Y-124001592D01*
X48323592Y-124146698D01*
X48202976Y-124312711D01*
X48109813Y-124495552D01*
X48046404Y-124690706D01*
X48046401Y-124690720D01*
X48014300Y-124893392D01*
X48014300Y-125098607D01*
X48046401Y-125301279D01*
X48046404Y-125301293D01*
X48109813Y-125496447D01*
X48202976Y-125679288D01*
X48323592Y-125845301D01*
X48323594Y-125845303D01*
X48468697Y-125990406D01*
X48634712Y-126111024D01*
X48724390Y-126156717D01*
X48817552Y-126204186D01*
X49012706Y-126267595D01*
X49012708Y-126267595D01*
X49012716Y-126267598D01*
X49215392Y-126299699D01*
X49215394Y-126299700D01*
X49215397Y-126299700D01*
X49420606Y-126299700D01*
X49420606Y-126299699D01*
X49623284Y-126267598D01*
X49818447Y-126204186D01*
X50001288Y-126111024D01*
X50167303Y-125990406D01*
X50312406Y-125845303D01*
X50433024Y-125679288D01*
X50526186Y-125496447D01*
X50589598Y-125301284D01*
X50608698Y-125180692D01*
X53948300Y-125180692D01*
X53948300Y-125319307D01*
X53975343Y-125455264D01*
X54028387Y-125583323D01*
X54028388Y-125583326D01*
X54028389Y-125583327D01*
X54105400Y-125698583D01*
X54203417Y-125796600D01*
X54318673Y-125873611D01*
X54345880Y-125884880D01*
X54446731Y-125926655D01*
X54446735Y-125926655D01*
X54446738Y-125926657D01*
X54470603Y-125931403D01*
X54522112Y-125958935D01*
X74884199Y-146321022D01*
X74953448Y-146361003D01*
X74953454Y-146361006D01*
X75037059Y-146383407D01*
X75036304Y-146386222D01*
X75081462Y-146407739D01*
X75111150Y-146462367D01*
X75105184Y-146519237D01*
X75057343Y-146634735D01*
X75030300Y-146770692D01*
X75030300Y-146909307D01*
X75057343Y-147045264D01*
X75110387Y-147173323D01*
X75110388Y-147173326D01*
X75110389Y-147173327D01*
X75187400Y-147288583D01*
X75285417Y-147386600D01*
X75400673Y-147463611D01*
X75464705Y-147490134D01*
X75528735Y-147516656D01*
X75528736Y-147516656D01*
X75528738Y-147516657D01*
X75664692Y-147543700D01*
X75664693Y-147543700D01*
X75803307Y-147543700D01*
X75803308Y-147543700D01*
X75939262Y-147516657D01*
X76067327Y-147463611D01*
X76182583Y-147386600D01*
X76280600Y-147288583D01*
X76357611Y-147173327D01*
X76410657Y-147045262D01*
X76437700Y-146909308D01*
X76437700Y-146770692D01*
X76410657Y-146634738D01*
X76357611Y-146506673D01*
X76280600Y-146391417D01*
X76182583Y-146293400D01*
X76067327Y-146216389D01*
X76067328Y-146216389D01*
X76067326Y-146216388D01*
X76067323Y-146216387D01*
X76033956Y-146202565D01*
X75986680Y-146162185D01*
X75985336Y-146159926D01*
X75977020Y-146145523D01*
X75666474Y-145834977D01*
X75597225Y-145794996D01*
X75597219Y-145794993D01*
X75519989Y-145774301D01*
X75519984Y-145774300D01*
X75519983Y-145774300D01*
X75519982Y-145774300D01*
X75238141Y-145774300D01*
X75179010Y-145755087D01*
X75167006Y-145744835D01*
X56698242Y-127276071D01*
X56690479Y-127260836D01*
X56678681Y-127248462D01*
X56676718Y-127233828D01*
X56670016Y-127220673D01*
X56672690Y-127203787D01*
X56670418Y-127186840D01*
X56677432Y-127173846D01*
X56679742Y-127159265D01*
X56691830Y-127147176D01*
X56699954Y-127132129D01*
X56713267Y-127125739D01*
X56723706Y-127115301D01*
X56740591Y-127112626D01*
X56756008Y-127105228D01*
X56768708Y-127108173D01*
X56785114Y-127105575D01*
X56817168Y-127116412D01*
X56821326Y-127118656D01*
X56858673Y-127143611D01*
X56896810Y-127159408D01*
X56901332Y-127161849D01*
X56919405Y-127180804D01*
X56939315Y-127197808D01*
X56940653Y-127200055D01*
X56948979Y-127214476D01*
X57456977Y-127722473D01*
X57456979Y-127722476D01*
X57513524Y-127779021D01*
X57557427Y-127804368D01*
X57582775Y-127819004D01*
X57582777Y-127819005D01*
X57643682Y-127835323D01*
X57660016Y-127839700D01*
X57660017Y-127839700D01*
X60072533Y-127839700D01*
X60131664Y-127858913D01*
X60143668Y-127869165D01*
X75339303Y-143064800D01*
X75367529Y-143120198D01*
X75357803Y-143181606D01*
X75324060Y-143219579D01*
X75285417Y-143245400D01*
X75285413Y-143245403D01*
X75187403Y-143343413D01*
X75110388Y-143458673D01*
X75110387Y-143458676D01*
X75057343Y-143586735D01*
X75030300Y-143722692D01*
X75030300Y-143861307D01*
X75057343Y-143997264D01*
X75110387Y-144125323D01*
X75110388Y-144125326D01*
X75110389Y-144125327D01*
X75187400Y-144240583D01*
X75285417Y-144338600D01*
X75400673Y-144415611D01*
X75464705Y-144442134D01*
X75528735Y-144468656D01*
X75528736Y-144468656D01*
X75528738Y-144468657D01*
X75664692Y-144495700D01*
X75664693Y-144495700D01*
X75803307Y-144495700D01*
X75803308Y-144495700D01*
X75939262Y-144468657D01*
X76067327Y-144415611D01*
X76182583Y-144338600D01*
X76280600Y-144240583D01*
X76357611Y-144125327D01*
X76410657Y-143997262D01*
X76437700Y-143861308D01*
X76437700Y-143722692D01*
X76410657Y-143586738D01*
X76357611Y-143458673D01*
X76280600Y-143343417D01*
X76182583Y-143245400D01*
X76143942Y-143219581D01*
X76082409Y-143178465D01*
X76043918Y-143129639D01*
X76037700Y-143094820D01*
X76037700Y-142990018D01*
X76037698Y-142990010D01*
X76017006Y-142912780D01*
X76017003Y-142912774D01*
X75977022Y-142843525D01*
X60426474Y-127292977D01*
X60357225Y-127252996D01*
X60357219Y-127252993D01*
X60279989Y-127232301D01*
X60279984Y-127232300D01*
X60279983Y-127232300D01*
X60279982Y-127232300D01*
X57867466Y-127232300D01*
X57859745Y-127229791D01*
X57851729Y-127231061D01*
X57830740Y-127220366D01*
X57808335Y-127213087D01*
X57796331Y-127202835D01*
X57721474Y-127127978D01*
X57693248Y-127072580D01*
X57702974Y-127011172D01*
X57721473Y-126985708D01*
X57738600Y-126968583D01*
X57815611Y-126853327D01*
X57868657Y-126725262D01*
X57895700Y-126589308D01*
X57895700Y-126450692D01*
X57868657Y-126314738D01*
X57815611Y-126186673D01*
X57738600Y-126071417D01*
X57640583Y-125973400D01*
X57525327Y-125896389D01*
X57525328Y-125896389D01*
X57525326Y-125896388D01*
X57525323Y-125896387D01*
X57397264Y-125843343D01*
X57306626Y-125825314D01*
X57261308Y-125816300D01*
X57122692Y-125816300D01*
X57088703Y-125823060D01*
X56986735Y-125843343D01*
X56858676Y-125896387D01*
X56858673Y-125896388D01*
X56743413Y-125973403D01*
X56645403Y-126071413D01*
X56568388Y-126186673D01*
X56568387Y-126186676D01*
X56515343Y-126314735D01*
X56488300Y-126450692D01*
X56488300Y-126589307D01*
X56515343Y-126725264D01*
X56568387Y-126853323D01*
X56568391Y-126853331D01*
X56590709Y-126886732D01*
X56607585Y-126946572D01*
X56586066Y-127004903D01*
X56534370Y-127039445D01*
X56472244Y-127037004D01*
X56435928Y-127013757D01*
X55225797Y-125803626D01*
X55197571Y-125748228D01*
X55207297Y-125686820D01*
X55213276Y-125676617D01*
X55275611Y-125583327D01*
X55328657Y-125455262D01*
X55355700Y-125319308D01*
X55355700Y-125180692D01*
X55328657Y-125044738D01*
X55275611Y-124916673D01*
X55198600Y-124801417D01*
X55100583Y-124703400D01*
X54985327Y-124626389D01*
X54985328Y-124626389D01*
X54985326Y-124626388D01*
X54985323Y-124626387D01*
X54857264Y-124573343D01*
X54766626Y-124555314D01*
X54721308Y-124546300D01*
X54582692Y-124546300D01*
X54548703Y-124553060D01*
X54446735Y-124573343D01*
X54318676Y-124626387D01*
X54318673Y-124626388D01*
X54203413Y-124703403D01*
X54105403Y-124801413D01*
X54028388Y-124916673D01*
X54028387Y-124916676D01*
X53975343Y-125044735D01*
X53948300Y-125180692D01*
X50608698Y-125180692D01*
X50621700Y-125098603D01*
X50621700Y-124893397D01*
X50621700Y-124893393D01*
X50621699Y-124893392D01*
X50589598Y-124690716D01*
X50568697Y-124626388D01*
X50526186Y-124495552D01*
X50433023Y-124312711D01*
X50312407Y-124146698D01*
X50167301Y-124001592D01*
X50001288Y-123880975D01*
X50001284Y-123880973D01*
X49873050Y-123815635D01*
X49829086Y-123771671D01*
X49819360Y-123710263D01*
X49847586Y-123654865D01*
X49873050Y-123636365D01*
X50001284Y-123571026D01*
X50001288Y-123571024D01*
X50001289Y-123571023D01*
X50167303Y-123450406D01*
X50312406Y-123305303D01*
X50433024Y-123139288D01*
X50526186Y-122956447D01*
X50589598Y-122761284D01*
X50621700Y-122558603D01*
X50621700Y-122353397D01*
X50621700Y-122353393D01*
X50621699Y-122353392D01*
X50589598Y-122150716D01*
X50526186Y-121955553D01*
X50526186Y-121955552D01*
X50433023Y-121772711D01*
X50312407Y-121606698D01*
X50167301Y-121461592D01*
X50001288Y-121340976D01*
X49872499Y-121275354D01*
X49828536Y-121231390D01*
X49818810Y-121169981D01*
X49847036Y-121114584D01*
X49872500Y-121096083D01*
X50001027Y-121030596D01*
X50046212Y-120997766D01*
X49488233Y-120439787D01*
X49530292Y-120428518D01*
X49655708Y-120356110D01*
X49758110Y-120253708D01*
X49830518Y-120128292D01*
X49841787Y-120086233D01*
X50399766Y-120644212D01*
X50432599Y-120599023D01*
X50525721Y-120416259D01*
X50525722Y-120416257D01*
X50589108Y-120221176D01*
X50589112Y-120221160D01*
X50621199Y-120018570D01*
X50621200Y-120018566D01*
X50621200Y-119813434D01*
X50621199Y-119813429D01*
X50589112Y-119610839D01*
X50589108Y-119610823D01*
X50525722Y-119415742D01*
X50525721Y-119415740D01*
X50432599Y-119232977D01*
X50432595Y-119232971D01*
X50399766Y-119187787D01*
X50399765Y-119187787D01*
X49841787Y-119745765D01*
X49830518Y-119703708D01*
X49758110Y-119578292D01*
X49655708Y-119475890D01*
X49530292Y-119403482D01*
X49488231Y-119392211D01*
X50046211Y-118834232D01*
X50042588Y-118788193D01*
X50057102Y-118727737D01*
X50104380Y-118687358D01*
X50142878Y-118679700D01*
X50222648Y-118679700D01*
X50222654Y-118679700D01*
X50253302Y-118676826D01*
X50382395Y-118631654D01*
X50492439Y-118550439D01*
X50573654Y-118440395D01*
X50618826Y-118311302D01*
X50621700Y-118280654D01*
X50621700Y-116471346D01*
X50618826Y-116440698D01*
X50573654Y-116311605D01*
X50492439Y-116201561D01*
X50382395Y-116120346D01*
X50253302Y-116075174D01*
X50222654Y-116072300D01*
X48413346Y-116072300D01*
X48382698Y-116075174D01*
X48318151Y-116097760D01*
X48253604Y-116120346D01*
X48143561Y-116201561D01*
X48062346Y-116311604D01*
X48062346Y-116311605D01*
X48017174Y-116440698D01*
X48014300Y-116471346D01*
X45500500Y-116471346D01*
X45500500Y-112170033D01*
X46828500Y-112170033D01*
X46828500Y-112421966D01*
X46867909Y-112670780D01*
X46867912Y-112670794D01*
X46945758Y-112910379D01*
X47060125Y-113134836D01*
X47060130Y-113134845D01*
X47134168Y-113236750D01*
X47208205Y-113338654D01*
X47208207Y-113338656D01*
X47386344Y-113516793D01*
X47590155Y-113664870D01*
X47590163Y-113664874D01*
X47814620Y-113779241D01*
X48054205Y-113857087D01*
X48054207Y-113857087D01*
X48054215Y-113857090D01*
X48303034Y-113896499D01*
X48303036Y-113896500D01*
X48303038Y-113896500D01*
X48554964Y-113896500D01*
X48554964Y-113896499D01*
X48614339Y-113887095D01*
X48665056Y-113879063D01*
X48720368Y-113870302D01*
X48803785Y-113857090D01*
X49043379Y-113779241D01*
X49267845Y-113664870D01*
X49471656Y-113516793D01*
X49649793Y-113338656D01*
X49797870Y-113134845D01*
X49912241Y-112910379D01*
X49937569Y-112832429D01*
X59575800Y-112832429D01*
X59575800Y-113037570D01*
X59607887Y-113240160D01*
X59607891Y-113240176D01*
X59671277Y-113435257D01*
X59671278Y-113435259D01*
X59764399Y-113618021D01*
X59797232Y-113663210D01*
X60355211Y-113105231D01*
X60366482Y-113147292D01*
X60438890Y-113272708D01*
X60541292Y-113375110D01*
X60666708Y-113447518D01*
X60708765Y-113458787D01*
X60150787Y-114016765D01*
X60150787Y-114016766D01*
X60195971Y-114049595D01*
X60195977Y-114049599D01*
X60378740Y-114142721D01*
X60378742Y-114142722D01*
X60573823Y-114206108D01*
X60573839Y-114206112D01*
X60776429Y-114238199D01*
X60776434Y-114238200D01*
X60981566Y-114238200D01*
X60981570Y-114238199D01*
X61184160Y-114206112D01*
X61184176Y-114206108D01*
X61379257Y-114142722D01*
X61379259Y-114142721D01*
X61562023Y-114049599D01*
X61607212Y-114016766D01*
X61049233Y-113458787D01*
X61091292Y-113447518D01*
X61216708Y-113375110D01*
X61319110Y-113272708D01*
X61391518Y-113147292D01*
X61402787Y-113105233D01*
X61960766Y-113663212D01*
X61993596Y-113618027D01*
X62059083Y-113489500D01*
X62103047Y-113445536D01*
X62164456Y-113435809D01*
X62219853Y-113464035D01*
X62238354Y-113489499D01*
X62303976Y-113618288D01*
X62424592Y-113784301D01*
X62424594Y-113784303D01*
X62569697Y-113929406D01*
X62735712Y-114050024D01*
X62825390Y-114095717D01*
X62918552Y-114143186D01*
X63113706Y-114206595D01*
X63113708Y-114206595D01*
X63113716Y-114206598D01*
X63316392Y-114238699D01*
X63316394Y-114238700D01*
X63316397Y-114238700D01*
X63521606Y-114238700D01*
X63521606Y-114238699D01*
X63724284Y-114206598D01*
X63919447Y-114143186D01*
X64102288Y-114050024D01*
X64268303Y-113929406D01*
X64413406Y-113784303D01*
X64534024Y-113618288D01*
X64599645Y-113489500D01*
X64643608Y-113445536D01*
X64705017Y-113435810D01*
X64760415Y-113464036D01*
X64778915Y-113489499D01*
X64844401Y-113618023D01*
X64877232Y-113663210D01*
X65435211Y-113105231D01*
X65446482Y-113147292D01*
X65518890Y-113272708D01*
X65621292Y-113375110D01*
X65746708Y-113447518D01*
X65788765Y-113458787D01*
X65230787Y-114016765D01*
X65230787Y-114016766D01*
X65275971Y-114049595D01*
X65275977Y-114049599D01*
X65458740Y-114142721D01*
X65458742Y-114142722D01*
X65653823Y-114206108D01*
X65653839Y-114206112D01*
X65856429Y-114238199D01*
X65856434Y-114238200D01*
X66061566Y-114238200D01*
X66061570Y-114238199D01*
X66264160Y-114206112D01*
X66264176Y-114206108D01*
X66459257Y-114142722D01*
X66459259Y-114142721D01*
X66642023Y-114049599D01*
X66687212Y-114016766D01*
X66129233Y-113458787D01*
X66171292Y-113447518D01*
X66296708Y-113375110D01*
X66399110Y-113272708D01*
X66471518Y-113147292D01*
X66482787Y-113105233D01*
X67040765Y-113663211D01*
X67086808Y-113659589D01*
X67147265Y-113674104D01*
X67187643Y-113721382D01*
X67195300Y-113759879D01*
X67195300Y-113839654D01*
X67198174Y-113870302D01*
X67243346Y-113999395D01*
X67324561Y-114109439D01*
X67434605Y-114190654D01*
X67563698Y-114235826D01*
X67594346Y-114238700D01*
X67594352Y-114238700D01*
X69403648Y-114238700D01*
X69403654Y-114238700D01*
X69434302Y-114235826D01*
X69563395Y-114190654D01*
X69673439Y-114109439D01*
X69754654Y-113999395D01*
X69799826Y-113870302D01*
X69802700Y-113839654D01*
X69802700Y-112170033D01*
X72609500Y-112170033D01*
X72609500Y-112421966D01*
X72648909Y-112670780D01*
X72648912Y-112670794D01*
X72726758Y-112910379D01*
X72841125Y-113134836D01*
X72841130Y-113134845D01*
X72915168Y-113236750D01*
X72989205Y-113338654D01*
X72989207Y-113338656D01*
X73167344Y-113516793D01*
X73371155Y-113664870D01*
X73371163Y-113664874D01*
X73595620Y-113779241D01*
X73835205Y-113857087D01*
X73835207Y-113857087D01*
X73835215Y-113857090D01*
X74084034Y-113896499D01*
X74084036Y-113896500D01*
X74084038Y-113896500D01*
X74335964Y-113896500D01*
X74335964Y-113896499D01*
X74584785Y-113857090D01*
X74824379Y-113779241D01*
X75048845Y-113664870D01*
X75252656Y-113516793D01*
X75430793Y-113338656D01*
X75578870Y-113134845D01*
X75693241Y-112910379D01*
X75771090Y-112670785D01*
X75810500Y-112421962D01*
X75810500Y-112170038D01*
X75771090Y-111921215D01*
X75754646Y-111870605D01*
X75693241Y-111681620D01*
X75578874Y-111457163D01*
X75578870Y-111457155D01*
X75430793Y-111253344D01*
X75252656Y-111075207D01*
X75252654Y-111075205D01*
X75150750Y-111001168D01*
X75048845Y-110927130D01*
X75048839Y-110927127D01*
X75048836Y-110927125D01*
X74824379Y-110812758D01*
X74584794Y-110734912D01*
X74584780Y-110734909D01*
X74335966Y-110695500D01*
X74335962Y-110695500D01*
X74084038Y-110695500D01*
X74084033Y-110695500D01*
X73835219Y-110734909D01*
X73835205Y-110734912D01*
X73595620Y-110812758D01*
X73371163Y-110927125D01*
X73371152Y-110927132D01*
X73167345Y-111075205D01*
X72989205Y-111253345D01*
X72841132Y-111457152D01*
X72841125Y-111457163D01*
X72726758Y-111681620D01*
X72648912Y-111921205D01*
X72648909Y-111921219D01*
X72609500Y-112170033D01*
X69802700Y-112170033D01*
X69802700Y-112030346D01*
X69799826Y-111999698D01*
X69754654Y-111870605D01*
X69673439Y-111760561D01*
X69563395Y-111679346D01*
X69434302Y-111634174D01*
X69403654Y-111631300D01*
X67594346Y-111631300D01*
X67563698Y-111634174D01*
X67499151Y-111656760D01*
X67434604Y-111679346D01*
X67324561Y-111760561D01*
X67243346Y-111870604D01*
X67198174Y-111999699D01*
X67195300Y-112030351D01*
X67195300Y-112110120D01*
X67176087Y-112169251D01*
X67125787Y-112205796D01*
X67086808Y-112210410D01*
X67040765Y-112206787D01*
X66482787Y-112764765D01*
X66471518Y-112722708D01*
X66399110Y-112597292D01*
X66296708Y-112494890D01*
X66171292Y-112422482D01*
X66129231Y-112411211D01*
X66687211Y-111853232D01*
X66642021Y-111820399D01*
X66459259Y-111727278D01*
X66459257Y-111727277D01*
X66264176Y-111663891D01*
X66264160Y-111663887D01*
X66061570Y-111631800D01*
X65856429Y-111631800D01*
X65653839Y-111663887D01*
X65653823Y-111663891D01*
X65458742Y-111727277D01*
X65458740Y-111727278D01*
X65275977Y-111820400D01*
X65275971Y-111820404D01*
X65230787Y-111853232D01*
X65230787Y-111853233D01*
X65788766Y-112411212D01*
X65746708Y-112422482D01*
X65621292Y-112494890D01*
X65518890Y-112597292D01*
X65446482Y-112722708D01*
X65435212Y-112764766D01*
X64877233Y-112206787D01*
X64877232Y-112206787D01*
X64844404Y-112251971D01*
X64844403Y-112251972D01*
X64778915Y-112380500D01*
X64734951Y-112424463D01*
X64673542Y-112434189D01*
X64618145Y-112405963D01*
X64599645Y-112380500D01*
X64534156Y-112251972D01*
X64534024Y-112251712D01*
X64413406Y-112085697D01*
X64268303Y-111940594D01*
X64268301Y-111940592D01*
X64102288Y-111819976D01*
X63919447Y-111726813D01*
X63724293Y-111663404D01*
X63724279Y-111663401D01*
X63521607Y-111631300D01*
X63521603Y-111631300D01*
X63316397Y-111631300D01*
X63316393Y-111631300D01*
X63113720Y-111663401D01*
X63113706Y-111663404D01*
X62918552Y-111726813D01*
X62735711Y-111819976D01*
X62569698Y-111940592D01*
X62424592Y-112085698D01*
X62303976Y-112251711D01*
X62238354Y-112380500D01*
X62194390Y-112424464D01*
X62132981Y-112434189D01*
X62077584Y-112405962D01*
X62059084Y-112380499D01*
X61993599Y-112251977D01*
X61993595Y-112251971D01*
X61960766Y-112206787D01*
X61960765Y-112206787D01*
X61402787Y-112764765D01*
X61391518Y-112722708D01*
X61319110Y-112597292D01*
X61216708Y-112494890D01*
X61091292Y-112422482D01*
X61049231Y-112411211D01*
X61607211Y-111853232D01*
X61562021Y-111820399D01*
X61379259Y-111727278D01*
X61379257Y-111727277D01*
X61184176Y-111663891D01*
X61184160Y-111663887D01*
X60981570Y-111631800D01*
X60776429Y-111631800D01*
X60573839Y-111663887D01*
X60573823Y-111663891D01*
X60378742Y-111727277D01*
X60378740Y-111727278D01*
X60195977Y-111820400D01*
X60195971Y-111820404D01*
X60150787Y-111853232D01*
X60150787Y-111853233D01*
X60708766Y-112411212D01*
X60666708Y-112422482D01*
X60541292Y-112494890D01*
X60438890Y-112597292D01*
X60366482Y-112722708D01*
X60355212Y-112764766D01*
X59797233Y-112206787D01*
X59797232Y-112206787D01*
X59764404Y-112251971D01*
X59764400Y-112251977D01*
X59671278Y-112434740D01*
X59671277Y-112434742D01*
X59607891Y-112629823D01*
X59607887Y-112629839D01*
X59575800Y-112832429D01*
X49937569Y-112832429D01*
X49948952Y-112797396D01*
X49990087Y-112670794D01*
X49990086Y-112670794D01*
X49990090Y-112670785D01*
X50029500Y-112421962D01*
X50029500Y-112170038D01*
X49990090Y-111921215D01*
X49912241Y-111681621D01*
X49912241Y-111681620D01*
X49797874Y-111457163D01*
X49797870Y-111457155D01*
X49649793Y-111253344D01*
X49471656Y-111075207D01*
X49471654Y-111075205D01*
X49369750Y-111001168D01*
X49267845Y-110927130D01*
X49267839Y-110927127D01*
X49267836Y-110927125D01*
X49043379Y-110812758D01*
X48803794Y-110734912D01*
X48803780Y-110734909D01*
X48554966Y-110695500D01*
X48554962Y-110695500D01*
X48303038Y-110695500D01*
X48303033Y-110695500D01*
X48054219Y-110734909D01*
X48054205Y-110734912D01*
X47814620Y-110812758D01*
X47590163Y-110927125D01*
X47590152Y-110927132D01*
X47386345Y-111075205D01*
X47208205Y-111253345D01*
X47060132Y-111457152D01*
X47060125Y-111457163D01*
X46945758Y-111681620D01*
X46867912Y-111921205D01*
X46867909Y-111921219D01*
X46828500Y-112170033D01*
X45500500Y-112170033D01*
X45500500Y-108579100D01*
X45519713Y-108519969D01*
X45570013Y-108483424D01*
X45601100Y-108478500D01*
X76910900Y-108478500D01*
X76970031Y-108497713D01*
G37*
%TD.AperFunction*%
%TD*%
%TA.AperFunction,Conductor*%
%TO.N,GND*%
G36*
X116958031Y-108497713D02*
G01*
X116994576Y-108548013D01*
X116999500Y-108579100D01*
X116999500Y-149413900D01*
X116980287Y-149473031D01*
X116929987Y-149509576D01*
X116898900Y-149514500D01*
X85589100Y-149514500D01*
X85529969Y-149495287D01*
X85493424Y-149444987D01*
X85488500Y-149413900D01*
X85488500Y-138984936D01*
X86982300Y-138984936D01*
X86982300Y-140725063D01*
X86994118Y-140784479D01*
X86994119Y-140784480D01*
X87039140Y-140851860D01*
X87106520Y-140896881D01*
X87165936Y-140908700D01*
X87165937Y-140908700D01*
X88906063Y-140908700D01*
X88906064Y-140908700D01*
X88965480Y-140896881D01*
X89032860Y-140851860D01*
X89077881Y-140784480D01*
X89089700Y-140725064D01*
X89089700Y-138984936D01*
X89077881Y-138925520D01*
X89032860Y-138858140D01*
X88965480Y-138813119D01*
X88965479Y-138813118D01*
X88917882Y-138803650D01*
X88906064Y-138801300D01*
X87165936Y-138801300D01*
X87156078Y-138803260D01*
X87106520Y-138813118D01*
X87039140Y-138858140D01*
X86994118Y-138925520D01*
X86982300Y-138984936D01*
X85488500Y-138984936D01*
X85488500Y-137211269D01*
X86982800Y-137211269D01*
X86982800Y-137418730D01*
X87023274Y-137622209D01*
X87102664Y-137813873D01*
X87102668Y-137813881D01*
X87135070Y-137862374D01*
X87135071Y-137862374D01*
X87553037Y-137444408D01*
X87570075Y-137507993D01*
X87635901Y-137622007D01*
X87728993Y-137715099D01*
X87843007Y-137780925D01*
X87906590Y-137797962D01*
X87488624Y-138215927D01*
X87488624Y-138215928D01*
X87537118Y-138248331D01*
X87537126Y-138248335D01*
X87728790Y-138327725D01*
X87932270Y-138368200D01*
X88139730Y-138368200D01*
X88343209Y-138327725D01*
X88534870Y-138248337D01*
X88534883Y-138248329D01*
X88583374Y-138215928D01*
X88583374Y-138215927D01*
X88165409Y-137797962D01*
X88228993Y-137780925D01*
X88343007Y-137715099D01*
X88436099Y-137622007D01*
X88501925Y-137507993D01*
X88518962Y-137444409D01*
X88936927Y-137862374D01*
X88936928Y-137862374D01*
X88969329Y-137813883D01*
X88969337Y-137813870D01*
X89048725Y-137622209D01*
X89089200Y-137418730D01*
X89089200Y-137211269D01*
X89048725Y-137007790D01*
X88969335Y-136816126D01*
X88969331Y-136816118D01*
X88936928Y-136767624D01*
X88936927Y-136767624D01*
X88518962Y-137185589D01*
X88501925Y-137122007D01*
X88436099Y-137007993D01*
X88343007Y-136914901D01*
X88228993Y-136849075D01*
X88165407Y-136832037D01*
X88583374Y-136414071D01*
X88583374Y-136414070D01*
X88534881Y-136381668D01*
X88534873Y-136381664D01*
X88343209Y-136302274D01*
X88139730Y-136261800D01*
X87932270Y-136261800D01*
X87728790Y-136302274D01*
X87537127Y-136381664D01*
X87537121Y-136381667D01*
X87488624Y-136414071D01*
X87906590Y-136832037D01*
X87843007Y-136849075D01*
X87728993Y-136914901D01*
X87635901Y-137007993D01*
X87570075Y-137122007D01*
X87553037Y-137185590D01*
X87135071Y-136767624D01*
X87102667Y-136816121D01*
X87102664Y-136816127D01*
X87023274Y-137007790D01*
X86982800Y-137211269D01*
X85488500Y-137211269D01*
X85488500Y-116471346D01*
X88002300Y-116471346D01*
X88002300Y-118280654D01*
X88005174Y-118311302D01*
X88050346Y-118440395D01*
X88131561Y-118550439D01*
X88241605Y-118631654D01*
X88370698Y-118676826D01*
X88401346Y-118679700D01*
X88401352Y-118679700D01*
X88481121Y-118679700D01*
X88540252Y-118698913D01*
X88576797Y-118749213D01*
X88581411Y-118788194D01*
X88577787Y-118834233D01*
X89135766Y-119392212D01*
X89093708Y-119403482D01*
X88968292Y-119475890D01*
X88865890Y-119578292D01*
X88793482Y-119703708D01*
X88782212Y-119745766D01*
X88224233Y-119187787D01*
X88224232Y-119187787D01*
X88191404Y-119232971D01*
X88191400Y-119232977D01*
X88098278Y-119415740D01*
X88098277Y-119415742D01*
X88034891Y-119610823D01*
X88034887Y-119610839D01*
X88002800Y-119813429D01*
X88002800Y-120018570D01*
X88034887Y-120221160D01*
X88034891Y-120221176D01*
X88098277Y-120416257D01*
X88098278Y-120416259D01*
X88191399Y-120599021D01*
X88224232Y-120644210D01*
X88782211Y-120086231D01*
X88793482Y-120128292D01*
X88865890Y-120253708D01*
X88968292Y-120356110D01*
X89093708Y-120428518D01*
X89135765Y-120439787D01*
X88577787Y-120997765D01*
X88577787Y-120997766D01*
X88622971Y-121030595D01*
X88622977Y-121030599D01*
X88751499Y-121096084D01*
X88795463Y-121140047D01*
X88805189Y-121201456D01*
X88776963Y-121256854D01*
X88751500Y-121275354D01*
X88622711Y-121340976D01*
X88456698Y-121461592D01*
X88311592Y-121606698D01*
X88190976Y-121772711D01*
X88097813Y-121955552D01*
X88034404Y-122150706D01*
X88034401Y-122150720D01*
X88002300Y-122353392D01*
X88002300Y-122558607D01*
X88034401Y-122761279D01*
X88034404Y-122761293D01*
X88097813Y-122956447D01*
X88190976Y-123139288D01*
X88311592Y-123305301D01*
X88311594Y-123305303D01*
X88456697Y-123450406D01*
X88622712Y-123571024D01*
X88681716Y-123601088D01*
X88750950Y-123636365D01*
X88794913Y-123680329D01*
X88804639Y-123741738D01*
X88776413Y-123797135D01*
X88750950Y-123815635D01*
X88622711Y-123880976D01*
X88456698Y-124001592D01*
X88311592Y-124146698D01*
X88190976Y-124312711D01*
X88097813Y-124495552D01*
X88034404Y-124690706D01*
X88034401Y-124690720D01*
X88002300Y-124893392D01*
X88002300Y-125098607D01*
X88034401Y-125301279D01*
X88034404Y-125301293D01*
X88097813Y-125496447D01*
X88190976Y-125679288D01*
X88311592Y-125845301D01*
X88311594Y-125845303D01*
X88456697Y-125990406D01*
X88622712Y-126111024D01*
X88712390Y-126156717D01*
X88805552Y-126204186D01*
X89000706Y-126267595D01*
X89000708Y-126267595D01*
X89000716Y-126267598D01*
X89203392Y-126299699D01*
X89203394Y-126299700D01*
X89203397Y-126299700D01*
X89408606Y-126299700D01*
X89408606Y-126299699D01*
X89611284Y-126267598D01*
X89806447Y-126204186D01*
X89989288Y-126111024D01*
X90155303Y-125990406D01*
X90300406Y-125845303D01*
X90421024Y-125679288D01*
X90514186Y-125496447D01*
X90577598Y-125301284D01*
X90596698Y-125180692D01*
X93936300Y-125180692D01*
X93936300Y-125319307D01*
X93963343Y-125455264D01*
X94016387Y-125583323D01*
X94016388Y-125583326D01*
X94016389Y-125583327D01*
X94093400Y-125698583D01*
X94191417Y-125796600D01*
X94306673Y-125873611D01*
X94333880Y-125884880D01*
X94434731Y-125926655D01*
X94434735Y-125926655D01*
X94434738Y-125926657D01*
X94458603Y-125931403D01*
X94510112Y-125958935D01*
X114872199Y-146321022D01*
X114941448Y-146361003D01*
X114941454Y-146361006D01*
X115025059Y-146383407D01*
X115024304Y-146386222D01*
X115069462Y-146407739D01*
X115099150Y-146462367D01*
X115093184Y-146519237D01*
X115045343Y-146634735D01*
X115018300Y-146770692D01*
X115018300Y-146909307D01*
X115045343Y-147045264D01*
X115098387Y-147173323D01*
X115098388Y-147173326D01*
X115098389Y-147173327D01*
X115175400Y-147288583D01*
X115273417Y-147386600D01*
X115388673Y-147463611D01*
X115452705Y-147490134D01*
X115516735Y-147516656D01*
X115516736Y-147516656D01*
X115516738Y-147516657D01*
X115652692Y-147543700D01*
X115652693Y-147543700D01*
X115791307Y-147543700D01*
X115791308Y-147543700D01*
X115927262Y-147516657D01*
X116055327Y-147463611D01*
X116170583Y-147386600D01*
X116268600Y-147288583D01*
X116345611Y-147173327D01*
X116398657Y-147045262D01*
X116425700Y-146909308D01*
X116425700Y-146770692D01*
X116398657Y-146634738D01*
X116345611Y-146506673D01*
X116268600Y-146391417D01*
X116170583Y-146293400D01*
X116055327Y-146216389D01*
X116055328Y-146216389D01*
X116055326Y-146216388D01*
X116055323Y-146216387D01*
X116021956Y-146202565D01*
X115974680Y-146162185D01*
X115973336Y-146159926D01*
X115965020Y-146145523D01*
X115654474Y-145834977D01*
X115585225Y-145794996D01*
X115585219Y-145794993D01*
X115507989Y-145774301D01*
X115507984Y-145774300D01*
X115507983Y-145774300D01*
X115507982Y-145774300D01*
X115226141Y-145774300D01*
X115167010Y-145755087D01*
X115155006Y-145744835D01*
X96686242Y-127276071D01*
X96678479Y-127260836D01*
X96666681Y-127248462D01*
X96664718Y-127233828D01*
X96658016Y-127220673D01*
X96660690Y-127203787D01*
X96658418Y-127186840D01*
X96665432Y-127173846D01*
X96667742Y-127159265D01*
X96679830Y-127147176D01*
X96687954Y-127132129D01*
X96701267Y-127125739D01*
X96711706Y-127115301D01*
X96728591Y-127112626D01*
X96744008Y-127105228D01*
X96756708Y-127108173D01*
X96773114Y-127105575D01*
X96805168Y-127116412D01*
X96809326Y-127118656D01*
X96846673Y-127143611D01*
X96884810Y-127159408D01*
X96889332Y-127161849D01*
X96907405Y-127180804D01*
X96927315Y-127197808D01*
X96928653Y-127200055D01*
X96936979Y-127214476D01*
X97444977Y-127722473D01*
X97444979Y-127722476D01*
X97501524Y-127779021D01*
X97545427Y-127804368D01*
X97570775Y-127819004D01*
X97570777Y-127819005D01*
X97631682Y-127835323D01*
X97648016Y-127839700D01*
X97648017Y-127839700D01*
X100060533Y-127839700D01*
X100119664Y-127858913D01*
X100131668Y-127869165D01*
X115327303Y-143064800D01*
X115355529Y-143120198D01*
X115345803Y-143181606D01*
X115312060Y-143219579D01*
X115273417Y-143245400D01*
X115273413Y-143245403D01*
X115175403Y-143343413D01*
X115098388Y-143458673D01*
X115098387Y-143458676D01*
X115045343Y-143586735D01*
X115018300Y-143722692D01*
X115018300Y-143861307D01*
X115045343Y-143997264D01*
X115098387Y-144125323D01*
X115098388Y-144125326D01*
X115098389Y-144125327D01*
X115175400Y-144240583D01*
X115273417Y-144338600D01*
X115388673Y-144415611D01*
X115452705Y-144442134D01*
X115516735Y-144468656D01*
X115516736Y-144468656D01*
X115516738Y-144468657D01*
X115652692Y-144495700D01*
X115652693Y-144495700D01*
X115791307Y-144495700D01*
X115791308Y-144495700D01*
X115927262Y-144468657D01*
X116055327Y-144415611D01*
X116170583Y-144338600D01*
X116268600Y-144240583D01*
X116345611Y-144125327D01*
X116398657Y-143997262D01*
X116425700Y-143861308D01*
X116425700Y-143722692D01*
X116398657Y-143586738D01*
X116345611Y-143458673D01*
X116268600Y-143343417D01*
X116170583Y-143245400D01*
X116131942Y-143219581D01*
X116070409Y-143178465D01*
X116031918Y-143129639D01*
X116025700Y-143094820D01*
X116025700Y-142990018D01*
X116025698Y-142990010D01*
X116005006Y-142912780D01*
X116005003Y-142912774D01*
X115965022Y-142843525D01*
X100414474Y-127292977D01*
X100345225Y-127252996D01*
X100345219Y-127252993D01*
X100267989Y-127232301D01*
X100267984Y-127232300D01*
X100267983Y-127232300D01*
X100267982Y-127232300D01*
X97855466Y-127232300D01*
X97847745Y-127229791D01*
X97839729Y-127231061D01*
X97818740Y-127220366D01*
X97796335Y-127213087D01*
X97784331Y-127202835D01*
X97709474Y-127127978D01*
X97681248Y-127072580D01*
X97690974Y-127011172D01*
X97709473Y-126985708D01*
X97726600Y-126968583D01*
X97803611Y-126853327D01*
X97856657Y-126725262D01*
X97883700Y-126589308D01*
X97883700Y-126450692D01*
X97856657Y-126314738D01*
X97803611Y-126186673D01*
X97726600Y-126071417D01*
X97628583Y-125973400D01*
X97513327Y-125896389D01*
X97513328Y-125896389D01*
X97513326Y-125896388D01*
X97513323Y-125896387D01*
X97385264Y-125843343D01*
X97294626Y-125825314D01*
X97249308Y-125816300D01*
X97110692Y-125816300D01*
X97076703Y-125823060D01*
X96974735Y-125843343D01*
X96846676Y-125896387D01*
X96846673Y-125896388D01*
X96731413Y-125973403D01*
X96633403Y-126071413D01*
X96556388Y-126186673D01*
X96556387Y-126186676D01*
X96503343Y-126314735D01*
X96476300Y-126450692D01*
X96476300Y-126589307D01*
X96503343Y-126725264D01*
X96556387Y-126853323D01*
X96556391Y-126853331D01*
X96578709Y-126886732D01*
X96595585Y-126946572D01*
X96574066Y-127004903D01*
X96522370Y-127039445D01*
X96460244Y-127037004D01*
X96423928Y-127013757D01*
X95213797Y-125803626D01*
X95185571Y-125748228D01*
X95195297Y-125686820D01*
X95201276Y-125676617D01*
X95263611Y-125583327D01*
X95316657Y-125455262D01*
X95343700Y-125319308D01*
X95343700Y-125180692D01*
X95316657Y-125044738D01*
X95263611Y-124916673D01*
X95186600Y-124801417D01*
X95088583Y-124703400D01*
X94973327Y-124626389D01*
X94973328Y-124626389D01*
X94973326Y-124626388D01*
X94973323Y-124626387D01*
X94845264Y-124573343D01*
X94754626Y-124555314D01*
X94709308Y-124546300D01*
X94570692Y-124546300D01*
X94536703Y-124553060D01*
X94434735Y-124573343D01*
X94306676Y-124626387D01*
X94306673Y-124626388D01*
X94191413Y-124703403D01*
X94093403Y-124801413D01*
X94016388Y-124916673D01*
X94016387Y-124916676D01*
X93963343Y-125044735D01*
X93936300Y-125180692D01*
X90596698Y-125180692D01*
X90609700Y-125098603D01*
X90609700Y-124893397D01*
X90609700Y-124893393D01*
X90609699Y-124893392D01*
X90577598Y-124690716D01*
X90556697Y-124626388D01*
X90514186Y-124495552D01*
X90421023Y-124312711D01*
X90300407Y-124146698D01*
X90155301Y-124001592D01*
X89989288Y-123880975D01*
X89989284Y-123880973D01*
X89861050Y-123815635D01*
X89817086Y-123771671D01*
X89807360Y-123710263D01*
X89835586Y-123654865D01*
X89861050Y-123636365D01*
X89989284Y-123571026D01*
X89989288Y-123571024D01*
X89989289Y-123571023D01*
X90155303Y-123450406D01*
X90300406Y-123305303D01*
X90421024Y-123139288D01*
X90514186Y-122956447D01*
X90577598Y-122761284D01*
X90609700Y-122558603D01*
X90609700Y-122353397D01*
X90609700Y-122353393D01*
X90609699Y-122353392D01*
X90577598Y-122150716D01*
X90514186Y-121955553D01*
X90514186Y-121955552D01*
X90421023Y-121772711D01*
X90300407Y-121606698D01*
X90155301Y-121461592D01*
X89989288Y-121340976D01*
X89860499Y-121275354D01*
X89816536Y-121231390D01*
X89806810Y-121169981D01*
X89835036Y-121114584D01*
X89860500Y-121096083D01*
X89989027Y-121030596D01*
X90034212Y-120997766D01*
X89476233Y-120439787D01*
X89518292Y-120428518D01*
X89643708Y-120356110D01*
X89746110Y-120253708D01*
X89818518Y-120128292D01*
X89829787Y-120086233D01*
X90387766Y-120644212D01*
X90420599Y-120599023D01*
X90513721Y-120416259D01*
X90513722Y-120416257D01*
X90577108Y-120221176D01*
X90577112Y-120221160D01*
X90609199Y-120018570D01*
X90609200Y-120018566D01*
X90609200Y-119813434D01*
X90609199Y-119813429D01*
X90577112Y-119610839D01*
X90577108Y-119610823D01*
X90513722Y-119415742D01*
X90513721Y-119415740D01*
X90420599Y-119232977D01*
X90420595Y-119232971D01*
X90387766Y-119187787D01*
X90387765Y-119187787D01*
X89829787Y-119745765D01*
X89818518Y-119703708D01*
X89746110Y-119578292D01*
X89643708Y-119475890D01*
X89518292Y-119403482D01*
X89476231Y-119392211D01*
X90034211Y-118834232D01*
X90030588Y-118788193D01*
X90045102Y-118727737D01*
X90092380Y-118687358D01*
X90130878Y-118679700D01*
X90210648Y-118679700D01*
X90210654Y-118679700D01*
X90241302Y-118676826D01*
X90370395Y-118631654D01*
X90480439Y-118550439D01*
X90561654Y-118440395D01*
X90606826Y-118311302D01*
X90609700Y-118280654D01*
X90609700Y-116471346D01*
X90606826Y-116440698D01*
X90561654Y-116311605D01*
X90480439Y-116201561D01*
X90370395Y-116120346D01*
X90241302Y-116075174D01*
X90210654Y-116072300D01*
X88401346Y-116072300D01*
X88370698Y-116075174D01*
X88306151Y-116097760D01*
X88241604Y-116120346D01*
X88131561Y-116201561D01*
X88050346Y-116311604D01*
X88050346Y-116311605D01*
X88005174Y-116440698D01*
X88002300Y-116471346D01*
X85488500Y-116471346D01*
X85488500Y-112170033D01*
X86816500Y-112170033D01*
X86816500Y-112421966D01*
X86855909Y-112670780D01*
X86855912Y-112670794D01*
X86933758Y-112910379D01*
X87048125Y-113134836D01*
X87048130Y-113134845D01*
X87122168Y-113236750D01*
X87196205Y-113338654D01*
X87196207Y-113338656D01*
X87374344Y-113516793D01*
X87578155Y-113664870D01*
X87578163Y-113664874D01*
X87802620Y-113779241D01*
X88042205Y-113857087D01*
X88042207Y-113857087D01*
X88042215Y-113857090D01*
X88291034Y-113896499D01*
X88291036Y-113896500D01*
X88291038Y-113896500D01*
X88542964Y-113896500D01*
X88542964Y-113896499D01*
X88602339Y-113887095D01*
X88653056Y-113879063D01*
X88708368Y-113870302D01*
X88791785Y-113857090D01*
X89031379Y-113779241D01*
X89255845Y-113664870D01*
X89459656Y-113516793D01*
X89637793Y-113338656D01*
X89785870Y-113134845D01*
X89900241Y-112910379D01*
X89925569Y-112832429D01*
X99563800Y-112832429D01*
X99563800Y-113037570D01*
X99595887Y-113240160D01*
X99595891Y-113240176D01*
X99659277Y-113435257D01*
X99659278Y-113435259D01*
X99752399Y-113618021D01*
X99785232Y-113663210D01*
X100343211Y-113105231D01*
X100354482Y-113147292D01*
X100426890Y-113272708D01*
X100529292Y-113375110D01*
X100654708Y-113447518D01*
X100696765Y-113458787D01*
X100138787Y-114016765D01*
X100138787Y-114016766D01*
X100183971Y-114049595D01*
X100183977Y-114049599D01*
X100366740Y-114142721D01*
X100366742Y-114142722D01*
X100561823Y-114206108D01*
X100561839Y-114206112D01*
X100764429Y-114238199D01*
X100764434Y-114238200D01*
X100969566Y-114238200D01*
X100969570Y-114238199D01*
X101172160Y-114206112D01*
X101172176Y-114206108D01*
X101367257Y-114142722D01*
X101367259Y-114142721D01*
X101550023Y-114049599D01*
X101595212Y-114016766D01*
X101037233Y-113458787D01*
X101079292Y-113447518D01*
X101204708Y-113375110D01*
X101307110Y-113272708D01*
X101379518Y-113147292D01*
X101390787Y-113105233D01*
X101948766Y-113663212D01*
X101981596Y-113618027D01*
X102047083Y-113489500D01*
X102091047Y-113445536D01*
X102152456Y-113435809D01*
X102207853Y-113464035D01*
X102226354Y-113489499D01*
X102291976Y-113618288D01*
X102412592Y-113784301D01*
X102412594Y-113784303D01*
X102557697Y-113929406D01*
X102723712Y-114050024D01*
X102813390Y-114095717D01*
X102906552Y-114143186D01*
X103101706Y-114206595D01*
X103101708Y-114206595D01*
X103101716Y-114206598D01*
X103304392Y-114238699D01*
X103304394Y-114238700D01*
X103304397Y-114238700D01*
X103509606Y-114238700D01*
X103509606Y-114238699D01*
X103712284Y-114206598D01*
X103907447Y-114143186D01*
X104090288Y-114050024D01*
X104256303Y-113929406D01*
X104401406Y-113784303D01*
X104522024Y-113618288D01*
X104587645Y-113489500D01*
X104631608Y-113445536D01*
X104693017Y-113435810D01*
X104748415Y-113464036D01*
X104766915Y-113489499D01*
X104832401Y-113618023D01*
X104865232Y-113663210D01*
X105423211Y-113105231D01*
X105434482Y-113147292D01*
X105506890Y-113272708D01*
X105609292Y-113375110D01*
X105734708Y-113447518D01*
X105776765Y-113458787D01*
X105218787Y-114016765D01*
X105218787Y-114016766D01*
X105263971Y-114049595D01*
X105263977Y-114049599D01*
X105446740Y-114142721D01*
X105446742Y-114142722D01*
X105641823Y-114206108D01*
X105641839Y-114206112D01*
X105844429Y-114238199D01*
X105844434Y-114238200D01*
X106049566Y-114238200D01*
X106049570Y-114238199D01*
X106252160Y-114206112D01*
X106252176Y-114206108D01*
X106447257Y-114142722D01*
X106447259Y-114142721D01*
X106630023Y-114049599D01*
X106675212Y-114016766D01*
X106117233Y-113458787D01*
X106159292Y-113447518D01*
X106284708Y-113375110D01*
X106387110Y-113272708D01*
X106459518Y-113147292D01*
X106470787Y-113105233D01*
X107028765Y-113663211D01*
X107074808Y-113659589D01*
X107135265Y-113674104D01*
X107175643Y-113721382D01*
X107183300Y-113759879D01*
X107183300Y-113839654D01*
X107186174Y-113870302D01*
X107231346Y-113999395D01*
X107312561Y-114109439D01*
X107422605Y-114190654D01*
X107551698Y-114235826D01*
X107582346Y-114238700D01*
X107582352Y-114238700D01*
X109391648Y-114238700D01*
X109391654Y-114238700D01*
X109422302Y-114235826D01*
X109551395Y-114190654D01*
X109661439Y-114109439D01*
X109742654Y-113999395D01*
X109787826Y-113870302D01*
X109790700Y-113839654D01*
X109790700Y-112170033D01*
X112597500Y-112170033D01*
X112597500Y-112421966D01*
X112636909Y-112670780D01*
X112636912Y-112670794D01*
X112714758Y-112910379D01*
X112829125Y-113134836D01*
X112829130Y-113134845D01*
X112903168Y-113236750D01*
X112977205Y-113338654D01*
X112977207Y-113338656D01*
X113155344Y-113516793D01*
X113359155Y-113664870D01*
X113359163Y-113664874D01*
X113583620Y-113779241D01*
X113823205Y-113857087D01*
X113823207Y-113857087D01*
X113823215Y-113857090D01*
X114072034Y-113896499D01*
X114072036Y-113896500D01*
X114072038Y-113896500D01*
X114323964Y-113896500D01*
X114323964Y-113896499D01*
X114572785Y-113857090D01*
X114812379Y-113779241D01*
X115036845Y-113664870D01*
X115240656Y-113516793D01*
X115418793Y-113338656D01*
X115566870Y-113134845D01*
X115681241Y-112910379D01*
X115759090Y-112670785D01*
X115798500Y-112421962D01*
X115798500Y-112170038D01*
X115759090Y-111921215D01*
X115742646Y-111870605D01*
X115681241Y-111681620D01*
X115566874Y-111457163D01*
X115566870Y-111457155D01*
X115418793Y-111253344D01*
X115240656Y-111075207D01*
X115240654Y-111075205D01*
X115138750Y-111001168D01*
X115036845Y-110927130D01*
X115036839Y-110927127D01*
X115036836Y-110927125D01*
X114812379Y-110812758D01*
X114572794Y-110734912D01*
X114572780Y-110734909D01*
X114323966Y-110695500D01*
X114323962Y-110695500D01*
X114072038Y-110695500D01*
X114072033Y-110695500D01*
X113823219Y-110734909D01*
X113823205Y-110734912D01*
X113583620Y-110812758D01*
X113359163Y-110927125D01*
X113359152Y-110927132D01*
X113155345Y-111075205D01*
X112977205Y-111253345D01*
X112829132Y-111457152D01*
X112829125Y-111457163D01*
X112714758Y-111681620D01*
X112636912Y-111921205D01*
X112636909Y-111921219D01*
X112597500Y-112170033D01*
X109790700Y-112170033D01*
X109790700Y-112030346D01*
X109787826Y-111999698D01*
X109742654Y-111870605D01*
X109661439Y-111760561D01*
X109551395Y-111679346D01*
X109422302Y-111634174D01*
X109391654Y-111631300D01*
X107582346Y-111631300D01*
X107551698Y-111634174D01*
X107487151Y-111656760D01*
X107422604Y-111679346D01*
X107312561Y-111760561D01*
X107231346Y-111870604D01*
X107186174Y-111999699D01*
X107183300Y-112030351D01*
X107183300Y-112110120D01*
X107164087Y-112169251D01*
X107113787Y-112205796D01*
X107074808Y-112210410D01*
X107028765Y-112206787D01*
X106470787Y-112764765D01*
X106459518Y-112722708D01*
X106387110Y-112597292D01*
X106284708Y-112494890D01*
X106159292Y-112422482D01*
X106117231Y-112411211D01*
X106675211Y-111853232D01*
X106630021Y-111820399D01*
X106447259Y-111727278D01*
X106447257Y-111727277D01*
X106252176Y-111663891D01*
X106252160Y-111663887D01*
X106049570Y-111631800D01*
X105844429Y-111631800D01*
X105641839Y-111663887D01*
X105641823Y-111663891D01*
X105446742Y-111727277D01*
X105446740Y-111727278D01*
X105263977Y-111820400D01*
X105263971Y-111820404D01*
X105218787Y-111853232D01*
X105218787Y-111853233D01*
X105776766Y-112411212D01*
X105734708Y-112422482D01*
X105609292Y-112494890D01*
X105506890Y-112597292D01*
X105434482Y-112722708D01*
X105423212Y-112764766D01*
X104865233Y-112206787D01*
X104865232Y-112206787D01*
X104832404Y-112251971D01*
X104832403Y-112251972D01*
X104766915Y-112380500D01*
X104722951Y-112424463D01*
X104661542Y-112434189D01*
X104606145Y-112405963D01*
X104587645Y-112380500D01*
X104522156Y-112251972D01*
X104522024Y-112251712D01*
X104401406Y-112085697D01*
X104256303Y-111940594D01*
X104256301Y-111940592D01*
X104090288Y-111819976D01*
X103907447Y-111726813D01*
X103712293Y-111663404D01*
X103712279Y-111663401D01*
X103509607Y-111631300D01*
X103509603Y-111631300D01*
X103304397Y-111631300D01*
X103304393Y-111631300D01*
X103101720Y-111663401D01*
X103101706Y-111663404D01*
X102906552Y-111726813D01*
X102723711Y-111819976D01*
X102557698Y-111940592D01*
X102412592Y-112085698D01*
X102291976Y-112251711D01*
X102226354Y-112380500D01*
X102182390Y-112424464D01*
X102120981Y-112434189D01*
X102065584Y-112405962D01*
X102047084Y-112380499D01*
X101981599Y-112251977D01*
X101981595Y-112251971D01*
X101948766Y-112206787D01*
X101948765Y-112206787D01*
X101390787Y-112764765D01*
X101379518Y-112722708D01*
X101307110Y-112597292D01*
X101204708Y-112494890D01*
X101079292Y-112422482D01*
X101037231Y-112411211D01*
X101595211Y-111853232D01*
X101550021Y-111820399D01*
X101367259Y-111727278D01*
X101367257Y-111727277D01*
X101172176Y-111663891D01*
X101172160Y-111663887D01*
X100969570Y-111631800D01*
X100764429Y-111631800D01*
X100561839Y-111663887D01*
X100561823Y-111663891D01*
X100366742Y-111727277D01*
X100366740Y-111727278D01*
X100183977Y-111820400D01*
X100183971Y-111820404D01*
X100138787Y-111853232D01*
X100138787Y-111853233D01*
X100696766Y-112411212D01*
X100654708Y-112422482D01*
X100529292Y-112494890D01*
X100426890Y-112597292D01*
X100354482Y-112722708D01*
X100343212Y-112764766D01*
X99785233Y-112206787D01*
X99785232Y-112206787D01*
X99752404Y-112251971D01*
X99752400Y-112251977D01*
X99659278Y-112434740D01*
X99659277Y-112434742D01*
X99595891Y-112629823D01*
X99595887Y-112629839D01*
X99563800Y-112832429D01*
X89925569Y-112832429D01*
X89936952Y-112797396D01*
X89978087Y-112670794D01*
X89978086Y-112670794D01*
X89978090Y-112670785D01*
X90017500Y-112421962D01*
X90017500Y-112170038D01*
X89978090Y-111921215D01*
X89900241Y-111681621D01*
X89900241Y-111681620D01*
X89785874Y-111457163D01*
X89785870Y-111457155D01*
X89637793Y-111253344D01*
X89459656Y-111075207D01*
X89459654Y-111075205D01*
X89357750Y-111001168D01*
X89255845Y-110927130D01*
X89255839Y-110927127D01*
X89255836Y-110927125D01*
X89031379Y-110812758D01*
X88791794Y-110734912D01*
X88791780Y-110734909D01*
X88542966Y-110695500D01*
X88542962Y-110695500D01*
X88291038Y-110695500D01*
X88291033Y-110695500D01*
X88042219Y-110734909D01*
X88042205Y-110734912D01*
X87802620Y-110812758D01*
X87578163Y-110927125D01*
X87578152Y-110927132D01*
X87374345Y-111075205D01*
X87196205Y-111253345D01*
X87048132Y-111457152D01*
X87048125Y-111457163D01*
X86933758Y-111681620D01*
X86855912Y-111921205D01*
X86855909Y-111921219D01*
X86816500Y-112170033D01*
X85488500Y-112170033D01*
X85488500Y-108579100D01*
X85507713Y-108519969D01*
X85558013Y-108483424D01*
X85589100Y-108478500D01*
X116898900Y-108478500D01*
X116958031Y-108497713D01*
G37*
%TD.AperFunction*%
%TD*%
M02*
