%TF.GenerationSoftware,KiCad,Pcbnew,10.0.4-10.0.4~ubuntu24.04.1*%
%TF.CreationDate,2026-06-21T15:05:12-07:00*%
%TF.ProjectId,electrometer,656c6563-7472-46f6-9d65-7465722e6b69,rev?*%
%TF.SameCoordinates,Original*%
%TF.FileFunction,Copper,L1,Top*%
%TF.FilePolarity,Positive*%
%FSLAX46Y46*%
G04 Gerber Fmt 4.6, Leading zero omitted, Abs format (unit mm)*
G04 Created by KiCad (PCBNEW 10.0.4-10.0.4~ubuntu24.04.1) date 2026-06-21 15:05:12*
%MOMM*%
%LPD*%
G01*
G04 APERTURE LIST*
G04 Aperture macros list*
%AMRoundRect*
0 Rectangle with rounded corners*
0 $1 Rounding radius*
0 $2 $3 $4 $5 $6 $7 $8 $9 X,Y pos of 4 corners*
0 Add a 4 corners polygon primitive as box body*
4,1,4,$2,$3,$4,$5,$6,$7,$8,$9,$2,$3,0*
0 Add four circle primitives for the rounded corners*
1,1,$1+$1,$2,$3*
1,1,$1+$1,$4,$5*
1,1,$1+$1,$6,$7*
1,1,$1+$1,$8,$9*
0 Add four rect primitives between the rounded corners*
20,1,$1+$1,$2,$3,$4,$5,0*
20,1,$1+$1,$4,$5,$6,$7,0*
20,1,$1+$1,$6,$7,$8,$9,0*
20,1,$1+$1,$8,$9,$2,$3,0*%
%AMFreePoly0*
4,1,9,3.862500,-0.866500,0.737500,-0.866500,0.737500,-0.450000,-0.737500,-0.450000,-0.737500,0.450000,0.737500,0.450000,0.737500,0.866500,3.862500,0.866500,3.862500,-0.866500,3.862500,-0.866500,$1*%
G04 Aperture macros list end*
%ADD10C,0.500000*%
%TA.AperFunction,NonConductor*%
%ADD11C,0.500000*%
%TD*%
%TA.AperFunction,SMDPad,CuDef*%
%ADD12R,0.400000X1.100000*%
%TD*%
%TA.AperFunction,SMDPad,CuDef*%
%ADD13RoundRect,0.250000X-0.400000X-0.625000X0.400000X-0.625000X0.400000X0.625000X-0.400000X0.625000X0*%
%TD*%
%TA.AperFunction,ComponentPad*%
%ADD14C,2.000000*%
%TD*%
%TA.AperFunction,SMDPad,CuDef*%
%ADD15RoundRect,0.225000X-0.425000X-0.225000X0.425000X-0.225000X0.425000X0.225000X-0.425000X0.225000X0*%
%TD*%
%TA.AperFunction,SMDPad,CuDef*%
%ADD16FreePoly0,0.000000*%
%TD*%
%TA.AperFunction,SMDPad,CuDef*%
%ADD17RoundRect,0.250000X0.700000X-0.275000X0.700000X0.275000X-0.700000X0.275000X-0.700000X-0.275000X0*%
%TD*%
%TA.AperFunction,SMDPad,CuDef*%
%ADD18RoundRect,0.250000X-1.000000X1.950000X-1.000000X-1.950000X1.000000X-1.950000X1.000000X1.950000X0*%
%TD*%
%TA.AperFunction,SMDPad,CuDef*%
%ADD19RoundRect,0.250000X-0.325000X-0.650000X0.325000X-0.650000X0.325000X0.650000X-0.325000X0.650000X0*%
%TD*%
%TA.AperFunction,SMDPad,CuDef*%
%ADD20RoundRect,0.250000X-0.650000X0.325000X-0.650000X-0.325000X0.650000X-0.325000X0.650000X0.325000X0*%
%TD*%
%TA.AperFunction,SMDPad,CuDef*%
%ADD21RoundRect,0.250000X0.400000X0.625000X-0.400000X0.625000X-0.400000X-0.625000X0.400000X-0.625000X0*%
%TD*%
%TA.AperFunction,SMDPad,CuDef*%
%ADD22RoundRect,0.250000X1.000000X-1.950000X1.000000X1.950000X-1.000000X1.950000X-1.000000X-1.950000X0*%
%TD*%
%TA.AperFunction,SMDPad,CuDef*%
%ADD23RoundRect,0.075000X0.075000X-0.650000X0.075000X0.650000X-0.075000X0.650000X-0.075000X-0.650000X0*%
%TD*%
%TA.AperFunction,SMDPad,CuDef*%
%ADD24RoundRect,0.150000X-0.150000X0.587500X-0.150000X-0.587500X0.150000X-0.587500X0.150000X0.587500X0*%
%TD*%
%TA.AperFunction,SMDPad,CuDef*%
%ADD25RoundRect,0.250000X0.650000X-0.325000X0.650000X0.325000X-0.650000X0.325000X-0.650000X-0.325000X0*%
%TD*%
%TA.AperFunction,SMDPad,CuDef*%
%ADD26RoundRect,0.150000X0.150000X0.625000X-0.150000X0.625000X-0.150000X-0.625000X0.150000X-0.625000X0*%
%TD*%
%TA.AperFunction,SMDPad,CuDef*%
%ADD27RoundRect,0.250000X0.350000X0.650000X-0.350000X0.650000X-0.350000X-0.650000X0.350000X-0.650000X0*%
%TD*%
%TA.AperFunction,ComponentPad*%
%ADD28R,1.700000X1.700000*%
%TD*%
%TA.AperFunction,ComponentPad*%
%ADD29C,1.700000*%
%TD*%
%TA.AperFunction,ComponentPad*%
%ADD30RoundRect,0.250000X-0.550000X-0.550000X0.550000X-0.550000X0.550000X0.550000X-0.550000X0.550000X0*%
%TD*%
%TA.AperFunction,ComponentPad*%
%ADD31C,1.600000*%
%TD*%
%TA.AperFunction,SMDPad,CuDef*%
%ADD32R,1.400000X3.400000*%
%TD*%
%TA.AperFunction,SMDPad,CuDef*%
%ADD33R,2.300000X5.600000*%
%TD*%
%TA.AperFunction,Conductor*%
%ADD34C,0.300000*%
%TD*%
%TA.AperFunction,Conductor*%
%ADD35C,0.350000*%
%TD*%
%TA.AperFunction,Conductor*%
%ADD36C,0.400000*%
%TD*%
%TA.AperFunction,Conductor*%
%ADD37C,0.200000*%
%TD*%
G04 APERTURE END LIST*
D10*
D11*
X173452756Y-174029239D02*
X172309899Y-174029239D01*
X172881327Y-174029239D02*
X172881327Y-172029239D01*
X172881327Y-172029239D02*
X172690851Y-172314953D01*
X172690851Y-172314953D02*
X172500375Y-172505429D01*
X172500375Y-172505429D02*
X172309899Y-172600667D01*
X174690851Y-172029239D02*
X174881328Y-172029239D01*
X174881328Y-172029239D02*
X175071804Y-172124477D01*
X175071804Y-172124477D02*
X175167042Y-172219715D01*
X175167042Y-172219715D02*
X175262280Y-172410191D01*
X175262280Y-172410191D02*
X175357518Y-172791143D01*
X175357518Y-172791143D02*
X175357518Y-173267334D01*
X175357518Y-173267334D02*
X175262280Y-173648286D01*
X175262280Y-173648286D02*
X175167042Y-173838762D01*
X175167042Y-173838762D02*
X175071804Y-173934001D01*
X175071804Y-173934001D02*
X174881328Y-174029239D01*
X174881328Y-174029239D02*
X174690851Y-174029239D01*
X174690851Y-174029239D02*
X174500375Y-173934001D01*
X174500375Y-173934001D02*
X174405137Y-173838762D01*
X174405137Y-173838762D02*
X174309899Y-173648286D01*
X174309899Y-173648286D02*
X174214661Y-173267334D01*
X174214661Y-173267334D02*
X174214661Y-172791143D01*
X174214661Y-172791143D02*
X174309899Y-172410191D01*
X174309899Y-172410191D02*
X174405137Y-172219715D01*
X174405137Y-172219715D02*
X174500375Y-172124477D01*
X174500375Y-172124477D02*
X174690851Y-172029239D01*
X176024185Y-174029239D02*
X177071804Y-172695905D01*
X176024185Y-172695905D02*
X177071804Y-174029239D01*
D10*
D11*
X173452756Y-168229239D02*
X172309899Y-168229239D01*
X172881327Y-168229239D02*
X172881327Y-166229239D01*
X172881327Y-166229239D02*
X172690851Y-166514953D01*
X172690851Y-166514953D02*
X172500375Y-166705429D01*
X172500375Y-166705429D02*
X172309899Y-166800667D01*
X174119423Y-168229239D02*
X175167042Y-166895905D01*
X174119423Y-166895905D02*
X175167042Y-168229239D01*
D10*
D11*
X121452756Y-174029239D02*
X120309899Y-174029239D01*
X120881327Y-174029239D02*
X120881327Y-172029239D01*
X120881327Y-172029239D02*
X120690851Y-172314953D01*
X120690851Y-172314953D02*
X120500375Y-172505429D01*
X120500375Y-172505429D02*
X120309899Y-172600667D01*
X122690851Y-172029239D02*
X122881328Y-172029239D01*
X122881328Y-172029239D02*
X123071804Y-172124477D01*
X123071804Y-172124477D02*
X123167042Y-172219715D01*
X123167042Y-172219715D02*
X123262280Y-172410191D01*
X123262280Y-172410191D02*
X123357518Y-172791143D01*
X123357518Y-172791143D02*
X123357518Y-173267334D01*
X123357518Y-173267334D02*
X123262280Y-173648286D01*
X123262280Y-173648286D02*
X123167042Y-173838762D01*
X123167042Y-173838762D02*
X123071804Y-173934001D01*
X123071804Y-173934001D02*
X122881328Y-174029239D01*
X122881328Y-174029239D02*
X122690851Y-174029239D01*
X122690851Y-174029239D02*
X122500375Y-173934001D01*
X122500375Y-173934001D02*
X122405137Y-173838762D01*
X122405137Y-173838762D02*
X122309899Y-173648286D01*
X122309899Y-173648286D02*
X122214661Y-173267334D01*
X122214661Y-173267334D02*
X122214661Y-172791143D01*
X122214661Y-172791143D02*
X122309899Y-172410191D01*
X122309899Y-172410191D02*
X122405137Y-172219715D01*
X122405137Y-172219715D02*
X122500375Y-172124477D01*
X122500375Y-172124477D02*
X122690851Y-172029239D01*
X124024185Y-174029239D02*
X125071804Y-172695905D01*
X124024185Y-172695905D02*
X125071804Y-174029239D01*
D10*
D11*
X121452756Y-168229239D02*
X120309899Y-168229239D01*
X120881327Y-168229239D02*
X120881327Y-166229239D01*
X120881327Y-166229239D02*
X120690851Y-166514953D01*
X120690851Y-166514953D02*
X120500375Y-166705429D01*
X120500375Y-166705429D02*
X120309899Y-166800667D01*
X122119423Y-168229239D02*
X123167042Y-166895905D01*
X122119423Y-166895905D02*
X123167042Y-168229239D01*
D10*
D11*
X173452756Y-121529239D02*
X172309899Y-121529239D01*
X172881327Y-121529239D02*
X172881327Y-119529239D01*
X172881327Y-119529239D02*
X172690851Y-119814953D01*
X172690851Y-119814953D02*
X172500375Y-120005429D01*
X172500375Y-120005429D02*
X172309899Y-120100667D01*
X174690851Y-119529239D02*
X174881328Y-119529239D01*
X174881328Y-119529239D02*
X175071804Y-119624477D01*
X175071804Y-119624477D02*
X175167042Y-119719715D01*
X175167042Y-119719715D02*
X175262280Y-119910191D01*
X175262280Y-119910191D02*
X175357518Y-120291143D01*
X175357518Y-120291143D02*
X175357518Y-120767334D01*
X175357518Y-120767334D02*
X175262280Y-121148286D01*
X175262280Y-121148286D02*
X175167042Y-121338762D01*
X175167042Y-121338762D02*
X175071804Y-121434001D01*
X175071804Y-121434001D02*
X174881328Y-121529239D01*
X174881328Y-121529239D02*
X174690851Y-121529239D01*
X174690851Y-121529239D02*
X174500375Y-121434001D01*
X174500375Y-121434001D02*
X174405137Y-121338762D01*
X174405137Y-121338762D02*
X174309899Y-121148286D01*
X174309899Y-121148286D02*
X174214661Y-120767334D01*
X174214661Y-120767334D02*
X174214661Y-120291143D01*
X174214661Y-120291143D02*
X174309899Y-119910191D01*
X174309899Y-119910191D02*
X174405137Y-119719715D01*
X174405137Y-119719715D02*
X174500375Y-119624477D01*
X174500375Y-119624477D02*
X174690851Y-119529239D01*
X176024185Y-121529239D02*
X177071804Y-120195905D01*
X176024185Y-120195905D02*
X177071804Y-121529239D01*
D10*
D11*
X173452756Y-115729239D02*
X172309899Y-115729239D01*
X172881327Y-115729239D02*
X172881327Y-113729239D01*
X172881327Y-113729239D02*
X172690851Y-114014953D01*
X172690851Y-114014953D02*
X172500375Y-114205429D01*
X172500375Y-114205429D02*
X172309899Y-114300667D01*
X174119423Y-115729239D02*
X175167042Y-114395905D01*
X174119423Y-114395905D02*
X175167042Y-115729239D01*
D10*
D11*
X121052756Y-115729238D02*
X119909899Y-115729238D01*
X120481327Y-115729238D02*
X120481327Y-113729238D01*
X120481327Y-113729238D02*
X120290851Y-114014952D01*
X120290851Y-114014952D02*
X120100375Y-114205428D01*
X120100375Y-114205428D02*
X119909899Y-114300666D01*
X121719423Y-115729238D02*
X122767042Y-114395904D01*
X121719423Y-114395904D02*
X122767042Y-115729238D01*
D10*
D11*
X121052756Y-121529238D02*
X119909899Y-121529238D01*
X120481327Y-121529238D02*
X120481327Y-119529238D01*
X120481327Y-119529238D02*
X120290851Y-119814952D01*
X120290851Y-119814952D02*
X120100375Y-120005428D01*
X120100375Y-120005428D02*
X119909899Y-120100666D01*
X122290851Y-119529238D02*
X122481328Y-119529238D01*
X122481328Y-119529238D02*
X122671804Y-119624476D01*
X122671804Y-119624476D02*
X122767042Y-119719714D01*
X122767042Y-119719714D02*
X122862280Y-119910190D01*
X122862280Y-119910190D02*
X122957518Y-120291142D01*
X122957518Y-120291142D02*
X122957518Y-120767333D01*
X122957518Y-120767333D02*
X122862280Y-121148285D01*
X122862280Y-121148285D02*
X122767042Y-121338761D01*
X122767042Y-121338761D02*
X122671804Y-121434000D01*
X122671804Y-121434000D02*
X122481328Y-121529238D01*
X122481328Y-121529238D02*
X122290851Y-121529238D01*
X122290851Y-121529238D02*
X122100375Y-121434000D01*
X122100375Y-121434000D02*
X122005137Y-121338761D01*
X122005137Y-121338761D02*
X121909899Y-121148285D01*
X121909899Y-121148285D02*
X121814661Y-120767333D01*
X121814661Y-120767333D02*
X121814661Y-120291142D01*
X121814661Y-120291142D02*
X121909899Y-119910190D01*
X121909899Y-119910190D02*
X122005137Y-119719714D01*
X122005137Y-119719714D02*
X122100375Y-119624476D01*
X122100375Y-119624476D02*
X122290851Y-119529238D01*
X123624185Y-121529238D02*
X124671804Y-120195904D01*
X123624185Y-120195904D02*
X124671804Y-121529238D01*
D12*
%TO.P,U5,1,REF_1_1*%
%TO.N,GND*%
X161025000Y-163850001D03*
%TO.P,U5,2,-IN_2*%
X161675000Y-163850001D03*
%TO.P,U5,3,+IN_3*%
%TO.N,/Output*%
X162325000Y-163850001D03*
%TO.P,U5,4,V-_4*%
%TO.N,GND*%
X162975000Y-163850001D03*
%TO.P,U5,5,SENSE_5*%
%TO.N,Net-(U2-AIN0)*%
X162975000Y-159550001D03*
%TO.P,U5,6,OUT_6*%
X162325000Y-159550001D03*
%TO.P,U5,7,V+_7*%
%TO.N,+5V*%
X161675000Y-159550001D03*
%TO.P,U5,8,REF_2_8*%
%TO.N,+2V5*%
X161025000Y-159550001D03*
%TD*%
D13*
%TO.P,R11,1*%
%TO.N,Net-(C2-Pad2)*%
X155850000Y-180700001D03*
%TO.P,R11,2*%
%TO.N,Net-(U1C-V+)*%
X158950000Y-180700001D03*
%TD*%
D14*
%TO.P,C1,1*%
%TO.N,Net-(U1A--)*%
X147000000Y-169100001D03*
%TO.P,C1,2*%
%TO.N,Net-(C1-Pad2)*%
X147000000Y-166600001D03*
%TD*%
D15*
%TO.P,U4,1,OUT_1*%
%TO.N,+5V*%
X139575000Y-158400001D03*
D16*
%TO.P,U4,2,GND_2*%
%TO.N,GND*%
X139662500Y-159900001D03*
D15*
%TO.P,U4,3,IN_3*%
%TO.N,V+*%
X139575000Y-161400001D03*
%TD*%
D17*
%TO.P,FB2,1*%
%TO.N,V-*%
X151200000Y-186075001D03*
%TO.P,FB2,2*%
%TO.N,Net-(C3-Pad1)*%
X151200000Y-182925001D03*
%TD*%
D18*
%TO.P,C4,1*%
%TO.N,Net-(U1C-V+)*%
X166900000Y-186700001D03*
%TO.P,C4,2*%
%TO.N,GND*%
X166900000Y-195100001D03*
%TD*%
D19*
%TO.P,C7,1*%
%TO.N,GND*%
X136650000Y-163900001D03*
%TO.P,C7,2*%
%TO.N,V+*%
X139600000Y-163900001D03*
%TD*%
D20*
%TO.P,C3,1*%
%TO.N,Net-(C3-Pad1)*%
X148600000Y-183025001D03*
%TO.P,C3,2*%
%TO.N,GND*%
X148600000Y-185975001D03*
%TD*%
D21*
%TO.P,R12,1*%
%TO.N,Net-(C3-Pad1)*%
X151350000Y-180700001D03*
%TO.P,R12,2*%
%TO.N,Net-(U1C-V-)*%
X148250000Y-180700001D03*
%TD*%
D19*
%TO.P,C6,1*%
%TO.N,GND*%
X136650000Y-155900001D03*
%TO.P,C6,2*%
%TO.N,+5V*%
X139600000Y-155900001D03*
%TD*%
D22*
%TO.P,C5,1*%
%TO.N,GND*%
X140000000Y-194900001D03*
%TO.P,C5,2*%
%TO.N,Net-(U1C-V-)*%
X140000000Y-186500001D03*
%TD*%
D23*
%TO.P,U2,1,ADDR_1*%
%TO.N,GND*%
X152548040Y-161100001D03*
%TO.P,U2,2,ALERT/RDY_2*%
%TO.N,unconnected-(U2-ALERT{slash}RDY-Pad2)*%
X153048040Y-161100001D03*
%TO.P,U2,3,GND_3*%
%TO.N,GND*%
X153548040Y-161100001D03*
%TO.P,U2,4,AIN0_4*%
%TO.N,Net-(U2-AIN0)*%
X154048040Y-161100001D03*
%TO.P,U2,5,AIN1_5*%
%TO.N,unconnected-(U2-AIN1-Pad5)*%
X154548040Y-161100001D03*
%TO.P,U2,6,AIN2_6*%
%TO.N,unconnected-(U2-AIN2-Pad6)*%
X154548040Y-156800001D03*
%TO.P,U2,7,AIN3_7*%
%TO.N,unconnected-(U2-AIN3-Pad7)*%
X154048040Y-156800001D03*
%TO.P,U2,8,VDD_8*%
%TO.N,+3.3V*%
X153548040Y-156800001D03*
%TO.P,U2,9,SDA_9*%
%TO.N,/Blue*%
X153048040Y-156800001D03*
%TO.P,U2,10,SCL_10*%
%TO.N,/Yellow*%
X152548040Y-156800001D03*
%TD*%
D21*
%TO.P,R9,1*%
%TO.N,Net-(J2-Pin_1)*%
X165350000Y-167560001D03*
%TO.P,R9,2*%
%TO.N,/Output*%
X162250000Y-167560001D03*
%TD*%
D13*
%TO.P,R2,1*%
%TO.N,Net-(C1-Pad2)*%
X162250000Y-170760001D03*
%TO.P,R2,2*%
%TO.N,Net-(J2-Pin_2)*%
X165350000Y-170760001D03*
%TD*%
D21*
%TO.P,R10,1*%
%TO.N,Net-(J2-Pin_3)*%
X165350000Y-174160001D03*
%TO.P,R10,2*%
%TO.N,/Output*%
X162250000Y-174160001D03*
%TD*%
D24*
%TO.P,U3,1,IN_1*%
%TO.N,+5V*%
X162900000Y-155300001D03*
%TO.P,U3,2,OUT_2*%
%TO.N,+2V5*%
X161000000Y-155300001D03*
%TO.P,U3,3,GND_3*%
%TO.N,GND*%
X161950000Y-157175001D03*
%TD*%
D25*
%TO.P,C2,1*%
%TO.N,GND*%
X159000000Y-186050001D03*
%TO.P,C2,2*%
%TO.N,Net-(C2-Pad2)*%
X159000000Y-183100001D03*
%TD*%
D14*
%TO.P,R1,1*%
%TO.N,Net-(U1A--)*%
X143832000Y-169090001D03*
%TO.P,R1,2*%
%TO.N,Net-(C1-Pad2)*%
X143832000Y-166550001D03*
%TD*%
D17*
%TO.P,FB1,1*%
%TO.N,V+*%
X156000000Y-186075001D03*
%TO.P,FB1,2*%
%TO.N,Net-(C2-Pad2)*%
X156000000Y-182925001D03*
%TD*%
D26*
%TO.P,J4,1,1_1*%
%TO.N,GND*%
X155035540Y-153100001D03*
%TO.P,J4,2,2_2*%
%TO.N,+3.3V*%
X154035540Y-153100001D03*
%TO.P,J4,3,3_3*%
%TO.N,/Blue*%
X153035540Y-153100001D03*
%TO.P,J4,4,4_4*%
%TO.N,/Yellow*%
X152035540Y-153100001D03*
D27*
%TO.P,J4,MP*%
%TO.N,N/C*%
X156335540Y-149225001D03*
X150735540Y-149225001D03*
%TD*%
D28*
%TO.P,J2,1,Pin_1_1*%
%TO.N,Net-(J2-Pin_1)*%
X169400000Y-167820001D03*
D29*
%TO.P,J2,2,Pin_2_2*%
%TO.N,Net-(J2-Pin_2)*%
X169400000Y-170360001D03*
%TO.P,J2,3,Pin_3_3*%
%TO.N,Net-(J2-Pin_3)*%
X169400000Y-172900001D03*
%TD*%
D30*
%TO.P,U1,1*%
%TO.N,Net-(C1-Pad2)*%
X149730540Y-166760001D03*
D31*
%TO.P,U1,2,-_2*%
%TO.N,Net-(U1A--)*%
X149730540Y-169300001D03*
%TO.P,U1,3,+_3*%
%TO.N,GND*%
X149730540Y-171840001D03*
%TO.P,U1,4,V-_4*%
%TO.N,Net-(U1C-V-)*%
X149730540Y-174380001D03*
%TO.P,U1,5,+_5*%
%TO.N,GND*%
X157350540Y-174380001D03*
%TO.P,U1,6,-_6*%
%TO.N,Net-(J2-Pin_2)*%
X157350540Y-171840001D03*
%TO.P,U1,7*%
%TO.N,/Output*%
X157350540Y-169300001D03*
%TO.P,U1,8,V+_8*%
%TO.N,Net-(U1C-V+)*%
X157350540Y-166760001D03*
%TD*%
D32*
%TO.P,J3,1,Pin_1_1*%
%TO.N,V+*%
X156035540Y-189970001D03*
%TO.P,J3,2,Pin_2_2*%
%TO.N,GND*%
X153535540Y-189970001D03*
%TO.P,J3,3,Pin_3_3*%
%TO.N,V-*%
X151035540Y-189970001D03*
D33*
%TO.P,J3,MP*%
%TO.N,N/C*%
X159835540Y-193130001D03*
X147235540Y-193130001D03*
%TD*%
D12*
%TO.P,U5,1,REF_1_1*%
%TO.N,GND*%
X109025000Y-163850001D03*
%TO.P,U5,2,-IN_2*%
X109675000Y-163850001D03*
%TO.P,U5,3,+IN_3*%
%TO.N,/Output*%
X110325000Y-163850001D03*
%TO.P,U5,4,V-_4*%
%TO.N,GND*%
X110975000Y-163850001D03*
%TO.P,U5,5,SENSE_5*%
%TO.N,Net-(U2-AIN0)*%
X110975000Y-159550001D03*
%TO.P,U5,6,OUT_6*%
X110325000Y-159550001D03*
%TO.P,U5,7,V+_7*%
%TO.N,+5V*%
X109675000Y-159550001D03*
%TO.P,U5,8,REF_2_8*%
%TO.N,+2V5*%
X109025000Y-159550001D03*
%TD*%
D13*
%TO.P,R11,1*%
%TO.N,Net-(C2-Pad2)*%
X103850000Y-180700001D03*
%TO.P,R11,2*%
%TO.N,Net-(U1C-V+)*%
X106950000Y-180700001D03*
%TD*%
D14*
%TO.P,C1,1*%
%TO.N,Net-(U1A--)*%
X95000000Y-169100001D03*
%TO.P,C1,2*%
%TO.N,Net-(C1-Pad2)*%
X95000000Y-166600001D03*
%TD*%
D15*
%TO.P,U4,1,OUT_1*%
%TO.N,+5V*%
X87575000Y-158400001D03*
D16*
%TO.P,U4,2,GND_2*%
%TO.N,GND*%
X87662500Y-159900001D03*
D15*
%TO.P,U4,3,IN_3*%
%TO.N,V+*%
X87575000Y-161400001D03*
%TD*%
D17*
%TO.P,FB2,1*%
%TO.N,V-*%
X99200000Y-186075001D03*
%TO.P,FB2,2*%
%TO.N,Net-(C3-Pad1)*%
X99200000Y-182925001D03*
%TD*%
D18*
%TO.P,C4,1*%
%TO.N,Net-(U1C-V+)*%
X114900000Y-186700001D03*
%TO.P,C4,2*%
%TO.N,GND*%
X114900000Y-195100001D03*
%TD*%
D19*
%TO.P,C7,1*%
%TO.N,GND*%
X84650000Y-163900001D03*
%TO.P,C7,2*%
%TO.N,V+*%
X87600000Y-163900001D03*
%TD*%
D20*
%TO.P,C3,1*%
%TO.N,Net-(C3-Pad1)*%
X96600000Y-183025001D03*
%TO.P,C3,2*%
%TO.N,GND*%
X96600000Y-185975001D03*
%TD*%
D21*
%TO.P,R12,1*%
%TO.N,Net-(C3-Pad1)*%
X99350000Y-180700001D03*
%TO.P,R12,2*%
%TO.N,Net-(U1C-V-)*%
X96250000Y-180700001D03*
%TD*%
D19*
%TO.P,C6,1*%
%TO.N,GND*%
X84650000Y-155900001D03*
%TO.P,C6,2*%
%TO.N,+5V*%
X87600000Y-155900001D03*
%TD*%
D22*
%TO.P,C5,1*%
%TO.N,GND*%
X88000000Y-194900001D03*
%TO.P,C5,2*%
%TO.N,Net-(U1C-V-)*%
X88000000Y-186500001D03*
%TD*%
D23*
%TO.P,U2,1,ADDR_1*%
%TO.N,GND*%
X100548040Y-161100001D03*
%TO.P,U2,2,ALERT/RDY_2*%
%TO.N,unconnected-(U2-ALERT{slash}RDY-Pad2)*%
X101048040Y-161100001D03*
%TO.P,U2,3,GND_3*%
%TO.N,GND*%
X101548040Y-161100001D03*
%TO.P,U2,4,AIN0_4*%
%TO.N,Net-(U2-AIN0)*%
X102048040Y-161100001D03*
%TO.P,U2,5,AIN1_5*%
%TO.N,unconnected-(U2-AIN1-Pad5)*%
X102548040Y-161100001D03*
%TO.P,U2,6,AIN2_6*%
%TO.N,unconnected-(U2-AIN2-Pad6)*%
X102548040Y-156800001D03*
%TO.P,U2,7,AIN3_7*%
%TO.N,unconnected-(U2-AIN3-Pad7)*%
X102048040Y-156800001D03*
%TO.P,U2,8,VDD_8*%
%TO.N,+3.3V*%
X101548040Y-156800001D03*
%TO.P,U2,9,SDA_9*%
%TO.N,/Blue*%
X101048040Y-156800001D03*
%TO.P,U2,10,SCL_10*%
%TO.N,/Yellow*%
X100548040Y-156800001D03*
%TD*%
D21*
%TO.P,R9,1*%
%TO.N,Net-(J2-Pin_1)*%
X113350000Y-167560001D03*
%TO.P,R9,2*%
%TO.N,/Output*%
X110250000Y-167560001D03*
%TD*%
D13*
%TO.P,R2,1*%
%TO.N,Net-(C1-Pad2)*%
X110250000Y-170760001D03*
%TO.P,R2,2*%
%TO.N,Net-(J2-Pin_2)*%
X113350000Y-170760001D03*
%TD*%
D21*
%TO.P,R10,1*%
%TO.N,Net-(J2-Pin_3)*%
X113350000Y-174160001D03*
%TO.P,R10,2*%
%TO.N,/Output*%
X110250000Y-174160001D03*
%TD*%
D24*
%TO.P,U3,1,IN_1*%
%TO.N,+5V*%
X110900000Y-155300001D03*
%TO.P,U3,2,OUT_2*%
%TO.N,+2V5*%
X109000000Y-155300001D03*
%TO.P,U3,3,GND_3*%
%TO.N,GND*%
X109950000Y-157175001D03*
%TD*%
D25*
%TO.P,C2,1*%
%TO.N,GND*%
X107000000Y-186050001D03*
%TO.P,C2,2*%
%TO.N,Net-(C2-Pad2)*%
X107000000Y-183100001D03*
%TD*%
D14*
%TO.P,R1,1*%
%TO.N,Net-(U1A--)*%
X91832000Y-169090001D03*
%TO.P,R1,2*%
%TO.N,Net-(C1-Pad2)*%
X91832000Y-166550001D03*
%TD*%
D17*
%TO.P,FB1,1*%
%TO.N,V+*%
X104000000Y-186075001D03*
%TO.P,FB1,2*%
%TO.N,Net-(C2-Pad2)*%
X104000000Y-182925001D03*
%TD*%
D26*
%TO.P,J4,1,1_1*%
%TO.N,GND*%
X103035540Y-153100001D03*
%TO.P,J4,2,2_2*%
%TO.N,+3.3V*%
X102035540Y-153100001D03*
%TO.P,J4,3,3_3*%
%TO.N,/Blue*%
X101035540Y-153100001D03*
%TO.P,J4,4,4_4*%
%TO.N,/Yellow*%
X100035540Y-153100001D03*
D27*
%TO.P,J4,MP*%
%TO.N,N/C*%
X104335540Y-149225001D03*
X98735540Y-149225001D03*
%TD*%
D28*
%TO.P,J2,1,Pin_1_1*%
%TO.N,Net-(J2-Pin_1)*%
X117400000Y-167820001D03*
D29*
%TO.P,J2,2,Pin_2_2*%
%TO.N,Net-(J2-Pin_2)*%
X117400000Y-170360001D03*
%TO.P,J2,3,Pin_3_3*%
%TO.N,Net-(J2-Pin_3)*%
X117400000Y-172900001D03*
%TD*%
D30*
%TO.P,U1,1*%
%TO.N,Net-(C1-Pad2)*%
X97730540Y-166760001D03*
D31*
%TO.P,U1,2,-_2*%
%TO.N,Net-(U1A--)*%
X97730540Y-169300001D03*
%TO.P,U1,3,+_3*%
%TO.N,GND*%
X97730540Y-171840001D03*
%TO.P,U1,4,V-_4*%
%TO.N,Net-(U1C-V-)*%
X97730540Y-174380001D03*
%TO.P,U1,5,+_5*%
%TO.N,GND*%
X105350540Y-174380001D03*
%TO.P,U1,6,-_6*%
%TO.N,Net-(J2-Pin_2)*%
X105350540Y-171840001D03*
%TO.P,U1,7*%
%TO.N,/Output*%
X105350540Y-169300001D03*
%TO.P,U1,8,V+_8*%
%TO.N,Net-(U1C-V+)*%
X105350540Y-166760001D03*
%TD*%
D32*
%TO.P,J3,1,Pin_1_1*%
%TO.N,V+*%
X104035540Y-189970001D03*
%TO.P,J3,2,Pin_2_2*%
%TO.N,GND*%
X101535540Y-189970001D03*
%TO.P,J3,3,Pin_3_3*%
%TO.N,V-*%
X99035540Y-189970001D03*
D33*
%TO.P,J3,MP*%
%TO.N,N/C*%
X107835540Y-193130001D03*
X95235540Y-193130001D03*
%TD*%
D12*
%TO.P,U5,1,REF_1_1*%
%TO.N,GND*%
X161025000Y-111350001D03*
%TO.P,U5,2,-IN_2*%
X161675000Y-111350001D03*
%TO.P,U5,3,+IN_3*%
%TO.N,/Output*%
X162325000Y-111350001D03*
%TO.P,U5,4,V-_4*%
%TO.N,GND*%
X162975000Y-111350001D03*
%TO.P,U5,5,SENSE_5*%
%TO.N,Net-(U2-AIN0)*%
X162975000Y-107050001D03*
%TO.P,U5,6,OUT_6*%
X162325000Y-107050001D03*
%TO.P,U5,7,V+_7*%
%TO.N,+5V*%
X161675000Y-107050001D03*
%TO.P,U5,8,REF_2_8*%
%TO.N,+2V5*%
X161025000Y-107050001D03*
%TD*%
D13*
%TO.P,R11,1*%
%TO.N,Net-(C2-Pad2)*%
X155850000Y-128200001D03*
%TO.P,R11,2*%
%TO.N,Net-(U1C-V+)*%
X158950000Y-128200001D03*
%TD*%
D14*
%TO.P,C1,1*%
%TO.N,Net-(U1A--)*%
X147000000Y-116600001D03*
%TO.P,C1,2*%
%TO.N,Net-(C1-Pad2)*%
X147000000Y-114100001D03*
%TD*%
D15*
%TO.P,U4,1,OUT_1*%
%TO.N,+5V*%
X139575000Y-105900001D03*
D16*
%TO.P,U4,2,GND_2*%
%TO.N,GND*%
X139662500Y-107400001D03*
D15*
%TO.P,U4,3,IN_3*%
%TO.N,V+*%
X139575000Y-108900001D03*
%TD*%
D17*
%TO.P,FB2,1*%
%TO.N,V-*%
X151200000Y-133575001D03*
%TO.P,FB2,2*%
%TO.N,Net-(C3-Pad1)*%
X151200000Y-130425001D03*
%TD*%
D18*
%TO.P,C4,1*%
%TO.N,Net-(U1C-V+)*%
X166900000Y-134200001D03*
%TO.P,C4,2*%
%TO.N,GND*%
X166900000Y-142600001D03*
%TD*%
D19*
%TO.P,C7,1*%
%TO.N,GND*%
X136650000Y-111400001D03*
%TO.P,C7,2*%
%TO.N,V+*%
X139600000Y-111400001D03*
%TD*%
D20*
%TO.P,C3,1*%
%TO.N,Net-(C3-Pad1)*%
X148600000Y-130525001D03*
%TO.P,C3,2*%
%TO.N,GND*%
X148600000Y-133475001D03*
%TD*%
D21*
%TO.P,R12,1*%
%TO.N,Net-(C3-Pad1)*%
X151350000Y-128200001D03*
%TO.P,R12,2*%
%TO.N,Net-(U1C-V-)*%
X148250000Y-128200001D03*
%TD*%
D19*
%TO.P,C6,1*%
%TO.N,GND*%
X136650000Y-103400001D03*
%TO.P,C6,2*%
%TO.N,+5V*%
X139600000Y-103400001D03*
%TD*%
D22*
%TO.P,C5,1*%
%TO.N,GND*%
X140000000Y-142400001D03*
%TO.P,C5,2*%
%TO.N,Net-(U1C-V-)*%
X140000000Y-134000001D03*
%TD*%
D23*
%TO.P,U2,1,ADDR_1*%
%TO.N,GND*%
X152548040Y-108600001D03*
%TO.P,U2,2,ALERT/RDY_2*%
%TO.N,unconnected-(U2-ALERT{slash}RDY-Pad2)*%
X153048040Y-108600001D03*
%TO.P,U2,3,GND_3*%
%TO.N,GND*%
X153548040Y-108600001D03*
%TO.P,U2,4,AIN0_4*%
%TO.N,Net-(U2-AIN0)*%
X154048040Y-108600001D03*
%TO.P,U2,5,AIN1_5*%
%TO.N,unconnected-(U2-AIN1-Pad5)*%
X154548040Y-108600001D03*
%TO.P,U2,6,AIN2_6*%
%TO.N,unconnected-(U2-AIN2-Pad6)*%
X154548040Y-104300001D03*
%TO.P,U2,7,AIN3_7*%
%TO.N,unconnected-(U2-AIN3-Pad7)*%
X154048040Y-104300001D03*
%TO.P,U2,8,VDD_8*%
%TO.N,+3.3V*%
X153548040Y-104300001D03*
%TO.P,U2,9,SDA_9*%
%TO.N,/Blue*%
X153048040Y-104300001D03*
%TO.P,U2,10,SCL_10*%
%TO.N,/Yellow*%
X152548040Y-104300001D03*
%TD*%
D21*
%TO.P,R9,1*%
%TO.N,Net-(J2-Pin_1)*%
X165350000Y-115060001D03*
%TO.P,R9,2*%
%TO.N,/Output*%
X162250000Y-115060001D03*
%TD*%
D13*
%TO.P,R2,1*%
%TO.N,Net-(C1-Pad2)*%
X162250000Y-118260001D03*
%TO.P,R2,2*%
%TO.N,Net-(J2-Pin_2)*%
X165350000Y-118260001D03*
%TD*%
D21*
%TO.P,R10,1*%
%TO.N,Net-(J2-Pin_3)*%
X165350000Y-121660001D03*
%TO.P,R10,2*%
%TO.N,/Output*%
X162250000Y-121660001D03*
%TD*%
D24*
%TO.P,U3,1,IN_1*%
%TO.N,+5V*%
X162900000Y-102800001D03*
%TO.P,U3,2,OUT_2*%
%TO.N,+2V5*%
X161000000Y-102800001D03*
%TO.P,U3,3,GND_3*%
%TO.N,GND*%
X161950000Y-104675001D03*
%TD*%
D25*
%TO.P,C2,1*%
%TO.N,GND*%
X159000000Y-133550001D03*
%TO.P,C2,2*%
%TO.N,Net-(C2-Pad2)*%
X159000000Y-130600001D03*
%TD*%
D14*
%TO.P,R1,1*%
%TO.N,Net-(U1A--)*%
X143832000Y-116590001D03*
%TO.P,R1,2*%
%TO.N,Net-(C1-Pad2)*%
X143832000Y-114050001D03*
%TD*%
D17*
%TO.P,FB1,1*%
%TO.N,V+*%
X156000000Y-133575001D03*
%TO.P,FB1,2*%
%TO.N,Net-(C2-Pad2)*%
X156000000Y-130425001D03*
%TD*%
D26*
%TO.P,J4,1,1_1*%
%TO.N,GND*%
X155035540Y-100600001D03*
%TO.P,J4,2,2_2*%
%TO.N,+3.3V*%
X154035540Y-100600001D03*
%TO.P,J4,3,3_3*%
%TO.N,/Blue*%
X153035540Y-100600001D03*
%TO.P,J4,4,4_4*%
%TO.N,/Yellow*%
X152035540Y-100600001D03*
D27*
%TO.P,J4,MP*%
%TO.N,N/C*%
X156335540Y-96725001D03*
X150735540Y-96725001D03*
%TD*%
D28*
%TO.P,J2,1,Pin_1_1*%
%TO.N,Net-(J2-Pin_1)*%
X169400000Y-115320001D03*
D29*
%TO.P,J2,2,Pin_2_2*%
%TO.N,Net-(J2-Pin_2)*%
X169400000Y-117860001D03*
%TO.P,J2,3,Pin_3_3*%
%TO.N,Net-(J2-Pin_3)*%
X169400000Y-120400001D03*
%TD*%
D30*
%TO.P,U1,1*%
%TO.N,Net-(C1-Pad2)*%
X149730540Y-114260001D03*
D31*
%TO.P,U1,2,-_2*%
%TO.N,Net-(U1A--)*%
X149730540Y-116800001D03*
%TO.P,U1,3,+_3*%
%TO.N,GND*%
X149730540Y-119340001D03*
%TO.P,U1,4,V-_4*%
%TO.N,Net-(U1C-V-)*%
X149730540Y-121880001D03*
%TO.P,U1,5,+_5*%
%TO.N,GND*%
X157350540Y-121880001D03*
%TO.P,U1,6,-_6*%
%TO.N,Net-(J2-Pin_2)*%
X157350540Y-119340001D03*
%TO.P,U1,7*%
%TO.N,/Output*%
X157350540Y-116800001D03*
%TO.P,U1,8,V+_8*%
%TO.N,Net-(U1C-V+)*%
X157350540Y-114260001D03*
%TD*%
D32*
%TO.P,J3,1,Pin_1_1*%
%TO.N,V+*%
X156035540Y-137470001D03*
%TO.P,J3,2,Pin_2_2*%
%TO.N,GND*%
X153535540Y-137470001D03*
%TO.P,J3,3,Pin_3_3*%
%TO.N,V-*%
X151035540Y-137470001D03*
D33*
%TO.P,J3,MP*%
%TO.N,N/C*%
X159835540Y-140630001D03*
X147235540Y-140630001D03*
%TD*%
D32*
%TO.P,J3,1,Pin_1_1*%
%TO.N,V+*%
X103635540Y-137470000D03*
%TO.P,J3,2,Pin_2_2*%
%TO.N,GND*%
X101135540Y-137470000D03*
%TO.P,J3,3,Pin_3_3*%
%TO.N,V-*%
X98635540Y-137470000D03*
D33*
%TO.P,J3,MP*%
%TO.N,N/C*%
X107435540Y-140630000D03*
X94835540Y-140630000D03*
%TD*%
D30*
%TO.P,U1,1*%
%TO.N,Net-(C1-Pad2)*%
X97330540Y-114260000D03*
D31*
%TO.P,U1,2,-_2*%
%TO.N,Net-(U1A--)*%
X97330540Y-116800000D03*
%TO.P,U1,3,+_3*%
%TO.N,GND*%
X97330540Y-119340000D03*
%TO.P,U1,4,V-_4*%
%TO.N,Net-(U1C-V-)*%
X97330540Y-121880000D03*
%TO.P,U1,5,+_5*%
%TO.N,GND*%
X104950540Y-121880000D03*
%TO.P,U1,6,-_6*%
%TO.N,Net-(J2-Pin_2)*%
X104950540Y-119340000D03*
%TO.P,U1,7*%
%TO.N,/Output*%
X104950540Y-116800000D03*
%TO.P,U1,8,V+_8*%
%TO.N,Net-(U1C-V+)*%
X104950540Y-114260000D03*
%TD*%
D28*
%TO.P,J2,1,Pin_1_1*%
%TO.N,Net-(J2-Pin_1)*%
X117000000Y-115320000D03*
D29*
%TO.P,J2,2,Pin_2_2*%
%TO.N,Net-(J2-Pin_2)*%
X117000000Y-117860000D03*
%TO.P,J2,3,Pin_3_3*%
%TO.N,Net-(J2-Pin_3)*%
X117000000Y-120400000D03*
%TD*%
D26*
%TO.P,J4,1,1_1*%
%TO.N,GND*%
X102635540Y-100600000D03*
%TO.P,J4,2,2_2*%
%TO.N,+3.3V*%
X101635540Y-100600000D03*
%TO.P,J4,3,3_3*%
%TO.N,/Blue*%
X100635540Y-100600000D03*
%TO.P,J4,4,4_4*%
%TO.N,/Yellow*%
X99635540Y-100600000D03*
D27*
%TO.P,J4,MP*%
%TO.N,N/C*%
X103935540Y-96725000D03*
X98335540Y-96725000D03*
%TD*%
D17*
%TO.P,FB1,1*%
%TO.N,V+*%
X103600000Y-133575000D03*
%TO.P,FB1,2*%
%TO.N,Net-(C2-Pad2)*%
X103600000Y-130425000D03*
%TD*%
D14*
%TO.P,R1,1*%
%TO.N,Net-(U1A--)*%
X91432000Y-116590000D03*
%TO.P,R1,2*%
%TO.N,Net-(C1-Pad2)*%
X91432000Y-114050000D03*
%TD*%
D25*
%TO.P,C2,1*%
%TO.N,GND*%
X106600000Y-133550000D03*
%TO.P,C2,2*%
%TO.N,Net-(C2-Pad2)*%
X106600000Y-130600000D03*
%TD*%
D24*
%TO.P,U3,1,IN_1*%
%TO.N,+5V*%
X110500000Y-102800000D03*
%TO.P,U3,2,OUT_2*%
%TO.N,+2V5*%
X108600000Y-102800000D03*
%TO.P,U3,3,GND_3*%
%TO.N,GND*%
X109550000Y-104675000D03*
%TD*%
D21*
%TO.P,R10,1*%
%TO.N,Net-(J2-Pin_3)*%
X112950000Y-121660000D03*
%TO.P,R10,2*%
%TO.N,/Output*%
X109850000Y-121660000D03*
%TD*%
D13*
%TO.P,R2,1*%
%TO.N,Net-(C1-Pad2)*%
X109850000Y-118260000D03*
%TO.P,R2,2*%
%TO.N,Net-(J2-Pin_2)*%
X112950000Y-118260000D03*
%TD*%
D21*
%TO.P,R9,1*%
%TO.N,Net-(J2-Pin_1)*%
X112950000Y-115060000D03*
%TO.P,R9,2*%
%TO.N,/Output*%
X109850000Y-115060000D03*
%TD*%
D23*
%TO.P,U2,1,ADDR_1*%
%TO.N,GND*%
X100148040Y-108600000D03*
%TO.P,U2,2,ALERT/RDY_2*%
%TO.N,unconnected-(U2-ALERT{slash}RDY-Pad2)*%
X100648040Y-108600000D03*
%TO.P,U2,3,GND_3*%
%TO.N,GND*%
X101148040Y-108600000D03*
%TO.P,U2,4,AIN0_4*%
%TO.N,Net-(U2-AIN0)*%
X101648040Y-108600000D03*
%TO.P,U2,5,AIN1_5*%
%TO.N,unconnected-(U2-AIN1-Pad5)*%
X102148040Y-108600000D03*
%TO.P,U2,6,AIN2_6*%
%TO.N,unconnected-(U2-AIN2-Pad6)*%
X102148040Y-104300000D03*
%TO.P,U2,7,AIN3_7*%
%TO.N,unconnected-(U2-AIN3-Pad7)*%
X101648040Y-104300000D03*
%TO.P,U2,8,VDD_8*%
%TO.N,+3.3V*%
X101148040Y-104300000D03*
%TO.P,U2,9,SDA_9*%
%TO.N,/Blue*%
X100648040Y-104300000D03*
%TO.P,U2,10,SCL_10*%
%TO.N,/Yellow*%
X100148040Y-104300000D03*
%TD*%
D22*
%TO.P,C5,1*%
%TO.N,GND*%
X87600000Y-142400000D03*
%TO.P,C5,2*%
%TO.N,Net-(U1C-V-)*%
X87600000Y-134000000D03*
%TD*%
D19*
%TO.P,C6,1*%
%TO.N,GND*%
X84250000Y-103400000D03*
%TO.P,C6,2*%
%TO.N,+5V*%
X87200000Y-103400000D03*
%TD*%
D21*
%TO.P,R12,1*%
%TO.N,Net-(C3-Pad1)*%
X98950000Y-128200000D03*
%TO.P,R12,2*%
%TO.N,Net-(U1C-V-)*%
X95850000Y-128200000D03*
%TD*%
D20*
%TO.P,C3,1*%
%TO.N,Net-(C3-Pad1)*%
X96200000Y-130525000D03*
%TO.P,C3,2*%
%TO.N,GND*%
X96200000Y-133475000D03*
%TD*%
D19*
%TO.P,C7,1*%
%TO.N,GND*%
X84250000Y-111400000D03*
%TO.P,C7,2*%
%TO.N,V+*%
X87200000Y-111400000D03*
%TD*%
D18*
%TO.P,C4,1*%
%TO.N,Net-(U1C-V+)*%
X114500000Y-134200000D03*
%TO.P,C4,2*%
%TO.N,GND*%
X114500000Y-142600000D03*
%TD*%
D17*
%TO.P,FB2,1*%
%TO.N,V-*%
X98800000Y-133575000D03*
%TO.P,FB2,2*%
%TO.N,Net-(C3-Pad1)*%
X98800000Y-130425000D03*
%TD*%
D15*
%TO.P,U4,1,OUT_1*%
%TO.N,+5V*%
X87175000Y-105900000D03*
D16*
%TO.P,U4,2,GND_2*%
%TO.N,GND*%
X87262500Y-107400000D03*
D15*
%TO.P,U4,3,IN_3*%
%TO.N,V+*%
X87175000Y-108900000D03*
%TD*%
D14*
%TO.P,C1,1*%
%TO.N,Net-(U1A--)*%
X94600000Y-116600000D03*
%TO.P,C1,2*%
%TO.N,Net-(C1-Pad2)*%
X94600000Y-114100000D03*
%TD*%
D13*
%TO.P,R11,1*%
%TO.N,Net-(C2-Pad2)*%
X103450000Y-128200000D03*
%TO.P,R11,2*%
%TO.N,Net-(U1C-V+)*%
X106550000Y-128200000D03*
%TD*%
D12*
%TO.P,U5,1,REF_1_1*%
%TO.N,GND*%
X108625000Y-111350000D03*
%TO.P,U5,2,-IN_2*%
X109275000Y-111350000D03*
%TO.P,U5,3,+IN_3*%
%TO.N,/Output*%
X109925000Y-111350000D03*
%TO.P,U5,4,V-_4*%
%TO.N,GND*%
X110575000Y-111350000D03*
%TO.P,U5,5,SENSE_5*%
%TO.N,Net-(U2-AIN0)*%
X110575000Y-107050000D03*
%TO.P,U5,6,OUT_6*%
X109925000Y-107050000D03*
%TO.P,U5,7,V+_7*%
%TO.N,+5V*%
X109275000Y-107050000D03*
%TO.P,U5,8,REF_2_8*%
%TO.N,+2V5*%
X108625000Y-107050000D03*
%TD*%
%TO.N,Net-(J2-Pin_1)*%
D34*
X165610000Y-167820001D02*
X165350000Y-167560001D01*
%TO.N,/Output*%
X162250000Y-174160001D02*
X164350000Y-172060001D01*
X162250000Y-167560001D02*
X162250000Y-163925001D01*
%TO.N,V+*%
D35*
X150112241Y-173100001D02*
X141100000Y-173100001D01*
%TO.N,+3.3V*%
D34*
X153548040Y-154073763D02*
X154035540Y-153586263D01*
%TO.N,Net-(U2-AIN0)*%
X162325000Y-159550001D02*
X162225000Y-159650001D01*
%TO.N,Net-(J2-Pin_2)*%
X165750000Y-170360001D02*
X165350000Y-170760001D01*
%TO.N,GND*%
D36*
X138920000Y-159900001D02*
X136650000Y-162170001D01*
D34*
X167400000Y-195100001D02*
X166900000Y-195100001D01*
X158885456Y-174380001D02*
X169000000Y-184494545D01*
X152548040Y-161928121D02*
X154469920Y-163850001D01*
%TO.N,Net-(C3-Pad1)*%
X151200000Y-182925001D02*
X148700000Y-182925001D01*
%TO.N,+5V*%
X139600000Y-158375001D02*
X139575000Y-158400001D01*
%TO.N,V+*%
D35*
X156000000Y-186075001D02*
X153000000Y-183075001D01*
%TO.N,GND*%
D34*
X161725000Y-162950001D02*
X161675000Y-163000001D01*
%TO.N,+5V*%
X161432106Y-160867895D02*
X161675000Y-160625001D01*
%TO.N,Net-(U2-AIN0)*%
X161125000Y-162175001D02*
X154171080Y-162175001D01*
%TO.N,GND*%
X152794920Y-160025001D02*
X153200000Y-160025001D01*
X149730540Y-171840001D02*
X141140000Y-171840001D01*
X153548040Y-160271881D02*
X153548040Y-161100001D01*
%TO.N,V+*%
D35*
X153000000Y-180965811D02*
X153000000Y-180700001D01*
%TO.N,Net-(J2-Pin_2)*%
D34*
X170600000Y-173397058D02*
X168612057Y-175385001D01*
%TO.N,GND*%
X169000000Y-184494545D02*
X169000000Y-193500001D01*
%TO.N,Net-(C1-Pad2)*%
X157826886Y-165610001D02*
X150880540Y-165610001D01*
%TO.N,GND*%
D36*
X154000000Y-196700001D02*
X165400000Y-196700001D01*
D34*
X162148762Y-153100001D02*
X160248762Y-153100001D01*
%TO.N,+5V*%
X139600000Y-155900001D02*
X139600000Y-158375001D01*
%TO.N,Net-(J2-Pin_2)*%
X170600000Y-171560001D02*
X170600000Y-173397058D01*
%TO.N,+5V*%
X162900000Y-157673763D02*
X162900000Y-155300001D01*
%TO.N,Net-(U1C-V-)*%
X149730540Y-179219461D02*
X148250000Y-180700001D01*
%TO.N,Net-(C2-Pad2)*%
X155850000Y-182775001D02*
X156000000Y-182925001D01*
%TO.N,Net-(U2-AIN0)*%
X154171080Y-162175001D02*
X154048040Y-162051961D01*
%TO.N,+3.3V*%
X153548040Y-156800001D02*
X153548040Y-154073763D01*
%TO.N,GND*%
D36*
X153200000Y-196700001D02*
X154000000Y-196700001D01*
D34*
X169000000Y-193500001D02*
X167400000Y-195100001D01*
%TO.N,Net-(J2-Pin_2)*%
X169400000Y-170360001D02*
X165750000Y-170360001D01*
X169400000Y-170360001D02*
X170600000Y-171560001D01*
%TO.N,Net-(U1C-V+)*%
X166900000Y-186700001D02*
X166900000Y-186200001D01*
%TO.N,GND*%
D36*
X153500000Y-189970001D02*
X153500000Y-196200001D01*
D34*
X161675000Y-163000001D02*
X161675000Y-163850001D01*
X162975000Y-163000001D02*
X162925000Y-162950001D01*
%TO.N,Net-(U1C-V+)*%
X157350540Y-166760001D02*
X156200540Y-167910001D01*
%TO.N,/Yellow*%
X152548040Y-156800001D02*
X152035540Y-156287501D01*
%TO.N,GND*%
D36*
X136650000Y-162170001D02*
X136650000Y-163900001D01*
%TO.N,Net-(U1C-V+)*%
D34*
X156200540Y-177950541D02*
X158950000Y-180700001D01*
%TO.N,GND*%
D36*
X139662500Y-159900001D02*
X143612500Y-163850001D01*
D34*
X163550000Y-154501239D02*
X162148762Y-153100001D01*
%TO.N,V+*%
D37*
X139575000Y-163875001D02*
X139600000Y-163900001D01*
%TO.N,Net-(C3-Pad1)*%
D34*
X151200000Y-180850001D02*
X151350000Y-180700001D01*
%TO.N,+2V5*%
X161025000Y-155325001D02*
X161000000Y-155300001D01*
%TO.N,GND*%
X152548040Y-161100001D02*
X152548040Y-161928121D01*
D36*
X136650000Y-191950001D02*
X139600000Y-194900001D01*
%TO.N,Net-(C1-Pad2)*%
D34*
X150880540Y-165610001D02*
X149730540Y-166760001D01*
%TO.N,GND*%
D36*
X143612500Y-163850001D02*
X154469920Y-163850001D01*
X140000000Y-195300001D02*
X141400000Y-196700001D01*
%TO.N,Net-(U1A--)*%
D34*
X143832000Y-169090001D02*
X149520540Y-169090001D01*
%TO.N,Net-(J2-Pin_3)*%
X169400000Y-172900001D02*
X166610000Y-172900001D01*
%TO.N,GND*%
D36*
X141400000Y-196700001D02*
X153200000Y-196700001D01*
%TO.N,V+*%
D35*
X153000000Y-175987760D02*
X150112241Y-173100001D01*
%TO.N,GND*%
D36*
X136650000Y-157630001D02*
X136650000Y-155900001D01*
%TO.N,V+*%
D35*
X141100000Y-173100001D02*
X139600000Y-171600001D01*
%TO.N,GND*%
D36*
X140000000Y-194575001D02*
X140000000Y-194900001D01*
%TO.N,Net-(U2-AIN0)*%
D34*
X162225000Y-161075001D02*
X161125000Y-162175001D01*
%TO.N,Net-(J2-Pin_1)*%
X169400000Y-167820001D02*
X165610000Y-167820001D01*
%TO.N,/Blue*%
X153048040Y-156800001D02*
X153048040Y-153112501D01*
%TO.N,Net-(U1C-V-)*%
X149730540Y-174380001D02*
X149730540Y-179219461D01*
%TO.N,Net-(U2-AIN0)*%
X162225000Y-159650001D02*
X162225000Y-161075001D01*
%TO.N,V+*%
D35*
X153000000Y-180700001D02*
X153000000Y-175987760D01*
%TO.N,/Output*%
D34*
X164350000Y-172060001D02*
X164350000Y-169660001D01*
%TO.N,/Yellow*%
X152035540Y-156287501D02*
X152035540Y-153100001D01*
%TO.N,V+*%
D35*
X156000000Y-189970001D02*
X156000000Y-186075001D01*
%TO.N,GND*%
D34*
X167400000Y-194600001D02*
X166900000Y-195100001D01*
%TO.N,/Output*%
X157350540Y-169300001D02*
X162210540Y-174160001D01*
%TO.N,V+*%
D37*
X139575000Y-161400001D02*
X139575000Y-163875001D01*
%TO.N,+5V*%
D34*
X158967894Y-160867895D02*
X161432106Y-160867895D01*
%TO.N,GND*%
X161950000Y-157175001D02*
X161950000Y-154801239D01*
D36*
X139662500Y-159900001D02*
X138920000Y-159900001D01*
D34*
X161025000Y-163850001D02*
X161675000Y-163850001D01*
%TO.N,Net-(U2-AIN0)*%
X154048040Y-162051961D02*
X154048040Y-161100001D01*
%TO.N,GND*%
X162925000Y-162950001D02*
X161725000Y-162950001D01*
%TO.N,+3.3V*%
X154035540Y-153586263D02*
X154035540Y-153100001D01*
%TO.N,V+*%
D35*
X153000000Y-183075001D02*
X153000000Y-180700001D01*
%TO.N,+2V5*%
D34*
X161025000Y-159550001D02*
X161025000Y-155325001D01*
%TO.N,Net-(J2-Pin_2)*%
X160895540Y-175385001D02*
X157350540Y-171840001D01*
%TO.N,GND*%
D36*
X136650000Y-163900001D02*
X136650000Y-191950001D01*
%TO.N,+5V*%
D34*
X139575000Y-158400001D02*
X156500000Y-158400001D01*
%TO.N,Net-(U1C-V-)*%
D35*
X140000000Y-186100001D02*
X145400000Y-180700001D01*
%TO.N,GND*%
D34*
X153301160Y-160025001D02*
X153548040Y-160271881D01*
%TO.N,Net-(C1-Pad2)*%
X162250000Y-170033115D02*
X157826886Y-165610001D01*
%TO.N,GND*%
X154469920Y-163850001D02*
X161025000Y-163850001D01*
X152548040Y-160271881D02*
X152794920Y-160025001D01*
%TO.N,Net-(U1C-V-)*%
D35*
X145400000Y-180700001D02*
X148250000Y-180700001D01*
%TO.N,GND*%
D34*
X159000000Y-186050001D02*
X167400000Y-194450001D01*
X153200000Y-160025001D02*
X153301160Y-160025001D01*
%TO.N,V+*%
D35*
X139600000Y-171600001D02*
X139600000Y-163900001D01*
%TO.N,Net-(C1-Pad2)*%
D34*
X149520540Y-166550001D02*
X149730540Y-166760001D01*
%TO.N,GND*%
X140575000Y-171275001D02*
X140575000Y-160812501D01*
%TO.N,Net-(U1C-V+)*%
X166900000Y-186200001D02*
X161400000Y-180700001D01*
%TO.N,Net-(C1-Pad2)*%
X162250000Y-170760001D02*
X162250000Y-170033115D01*
%TO.N,GND*%
X161950000Y-154801239D02*
X160248762Y-153100001D01*
X163550000Y-162425001D02*
X163550000Y-154501239D01*
X160248762Y-153100001D02*
X155035540Y-153100001D01*
D36*
X138920000Y-159900001D02*
X136650000Y-157630001D01*
%TO.N,V-*%
D35*
X151000000Y-186275001D02*
X151200000Y-186075001D01*
%TO.N,Net-(U1C-V-)*%
X140000000Y-186500001D02*
X140000000Y-186100001D01*
D34*
X148250000Y-180700001D02*
X148250000Y-180350001D01*
%TO.N,Net-(C2-Pad2)*%
X159000000Y-183100001D02*
X156175000Y-183100001D01*
%TO.N,+5V*%
X161675000Y-158898763D02*
X162900000Y-157673763D01*
X161675000Y-160625001D02*
X161675000Y-159550001D01*
%TO.N,Net-(J2-Pin_3)*%
X166610000Y-172900001D02*
X165350000Y-174160001D01*
%TO.N,GND*%
X162975000Y-163000001D02*
X163550000Y-162425001D01*
D36*
X153500000Y-196400001D02*
X153200000Y-196700001D01*
D34*
X157350540Y-174380001D02*
X158885456Y-174380001D01*
%TO.N,Net-(U1C-V+)*%
X161400000Y-180700001D02*
X158950000Y-180700001D01*
%TO.N,Net-(C2-Pad2)*%
X156175000Y-183100001D02*
X156000000Y-182925001D01*
%TO.N,Net-(C1-Pad2)*%
X143832000Y-166550001D02*
X149520540Y-166550001D01*
%TO.N,Net-(J2-Pin_2)*%
X168612057Y-175385001D02*
X160895540Y-175385001D01*
%TO.N,+5V*%
X156500000Y-158400001D02*
X158967894Y-160867895D01*
%TO.N,GND*%
D36*
X165400000Y-196700001D02*
X167200000Y-194900001D01*
D34*
X141140000Y-171840001D02*
X140575000Y-171275001D01*
D36*
X153500000Y-189970001D02*
X153500000Y-196400001D01*
%TO.N,Net-(C2-Pad2)*%
D34*
X155850000Y-180700001D02*
X155850000Y-182775001D01*
%TO.N,GND*%
X167400000Y-194450001D02*
X167400000Y-194600001D01*
%TO.N,Net-(U1C-V+)*%
X156200540Y-167910001D02*
X156200540Y-177950541D01*
%TO.N,/Output*%
X162210540Y-174160001D02*
X162250000Y-174160001D01*
%TO.N,Net-(U2-AIN0)*%
X162325000Y-159550001D02*
X162975000Y-159550001D01*
%TO.N,Net-(C3-Pad1)*%
X148700000Y-182925001D02*
X148600000Y-183025001D01*
%TO.N,/Output*%
X162250000Y-163925001D02*
X162325000Y-163850001D01*
%TO.N,GND*%
X162975000Y-163850001D02*
X162975000Y-163000001D01*
%TO.N,V-*%
D35*
X151000000Y-189970001D02*
X151000000Y-186275001D01*
%TO.N,GND*%
D36*
X148600000Y-185975001D02*
X140000000Y-194575001D01*
D34*
X152548040Y-161100001D02*
X152548040Y-160271881D01*
D36*
X140000000Y-194900001D02*
X140000000Y-195300001D01*
%TO.N,+5V*%
D34*
X161675000Y-159550001D02*
X161675000Y-158898763D01*
%TO.N,Net-(C3-Pad1)*%
X151200000Y-182925001D02*
X151200000Y-180850001D01*
%TO.N,Net-(U1A--)*%
X149520540Y-169090001D02*
X149730540Y-169300001D01*
%TO.N,/Blue*%
X153048040Y-153112501D02*
X153035540Y-153100001D01*
%TO.N,GND*%
D36*
X153500000Y-196200001D02*
X154000000Y-196700001D01*
%TO.N,/Output*%
D34*
X164350000Y-169660001D02*
X162250000Y-167560001D01*
%TO.N,GND*%
X140575000Y-160812501D02*
X139662500Y-159900001D01*
D36*
X139600000Y-194900001D02*
X140000000Y-194900001D01*
%TO.N,Net-(J2-Pin_1)*%
D34*
X113610000Y-167820001D02*
X113350000Y-167560001D01*
%TO.N,/Output*%
X110250000Y-174160001D02*
X112350000Y-172060001D01*
X110250000Y-167560001D02*
X110250000Y-163925001D01*
%TO.N,V+*%
D35*
X98112241Y-173100001D02*
X89100000Y-173100001D01*
%TO.N,+3.3V*%
D34*
X101548040Y-154073763D02*
X102035540Y-153586263D01*
%TO.N,Net-(U2-AIN0)*%
X110325000Y-159550001D02*
X110225000Y-159650001D01*
%TO.N,Net-(J2-Pin_2)*%
X113750000Y-170360001D02*
X113350000Y-170760001D01*
%TO.N,GND*%
D36*
X86920000Y-159900001D02*
X84650000Y-162170001D01*
D34*
X115400000Y-195100001D02*
X114900000Y-195100001D01*
X106885456Y-174380001D02*
X117000000Y-184494545D01*
X100548040Y-161928121D02*
X102469920Y-163850001D01*
%TO.N,Net-(C3-Pad1)*%
X99200000Y-182925001D02*
X96700000Y-182925001D01*
%TO.N,+5V*%
X87600000Y-158375001D02*
X87575000Y-158400001D01*
%TO.N,V+*%
D35*
X104000000Y-186075001D02*
X101000000Y-183075001D01*
%TO.N,GND*%
D34*
X109725000Y-162950001D02*
X109675000Y-163000001D01*
%TO.N,+5V*%
X109432106Y-160867895D02*
X109675000Y-160625001D01*
%TO.N,Net-(U2-AIN0)*%
X109125000Y-162175001D02*
X102171080Y-162175001D01*
%TO.N,GND*%
X100794920Y-160025001D02*
X101200000Y-160025001D01*
X97730540Y-171840001D02*
X89140000Y-171840001D01*
X101548040Y-160271881D02*
X101548040Y-161100001D01*
%TO.N,V+*%
D35*
X101000000Y-180965811D02*
X101000000Y-180700001D01*
%TO.N,Net-(J2-Pin_2)*%
D34*
X118600000Y-173397058D02*
X116612057Y-175385001D01*
%TO.N,GND*%
X117000000Y-184494545D02*
X117000000Y-193500001D01*
%TO.N,Net-(C1-Pad2)*%
X105826886Y-165610001D02*
X98880540Y-165610001D01*
%TO.N,GND*%
D36*
X102000000Y-196700001D02*
X113400000Y-196700001D01*
D34*
X110148762Y-153100001D02*
X108248762Y-153100001D01*
%TO.N,+5V*%
X87600000Y-155900001D02*
X87600000Y-158375001D01*
%TO.N,Net-(J2-Pin_2)*%
X118600000Y-171560001D02*
X118600000Y-173397058D01*
%TO.N,+5V*%
X110900000Y-157673763D02*
X110900000Y-155300001D01*
%TO.N,Net-(U1C-V-)*%
X97730540Y-179219461D02*
X96250000Y-180700001D01*
%TO.N,Net-(C2-Pad2)*%
X103850000Y-182775001D02*
X104000000Y-182925001D01*
%TO.N,Net-(U2-AIN0)*%
X102171080Y-162175001D02*
X102048040Y-162051961D01*
%TO.N,+3.3V*%
X101548040Y-156800001D02*
X101548040Y-154073763D01*
%TO.N,GND*%
D36*
X101200000Y-196700001D02*
X102000000Y-196700001D01*
D34*
X117000000Y-193500001D02*
X115400000Y-195100001D01*
%TO.N,Net-(J2-Pin_2)*%
X117400000Y-170360001D02*
X113750000Y-170360001D01*
X117400000Y-170360001D02*
X118600000Y-171560001D01*
%TO.N,Net-(U1C-V+)*%
X114900000Y-186700001D02*
X114900000Y-186200001D01*
%TO.N,GND*%
D36*
X101500000Y-189970001D02*
X101500000Y-196200001D01*
D34*
X109675000Y-163000001D02*
X109675000Y-163850001D01*
X110975000Y-163000001D02*
X110925000Y-162950001D01*
%TO.N,Net-(U1C-V+)*%
X105350540Y-166760001D02*
X104200540Y-167910001D01*
%TO.N,/Yellow*%
X100548040Y-156800001D02*
X100035540Y-156287501D01*
%TO.N,GND*%
D36*
X84650000Y-162170001D02*
X84650000Y-163900001D01*
%TO.N,Net-(U1C-V+)*%
D34*
X104200540Y-177950541D02*
X106950000Y-180700001D01*
%TO.N,GND*%
D36*
X87662500Y-159900001D02*
X91612500Y-163850001D01*
D34*
X111550000Y-154501239D02*
X110148762Y-153100001D01*
%TO.N,V+*%
D37*
X87575000Y-163875001D02*
X87600000Y-163900001D01*
%TO.N,Net-(C3-Pad1)*%
D34*
X99200000Y-180850001D02*
X99350000Y-180700001D01*
%TO.N,+2V5*%
X109025000Y-155325001D02*
X109000000Y-155300001D01*
%TO.N,GND*%
X100548040Y-161100001D02*
X100548040Y-161928121D01*
D36*
X84650000Y-191950001D02*
X87600000Y-194900001D01*
%TO.N,Net-(C1-Pad2)*%
D34*
X98880540Y-165610001D02*
X97730540Y-166760001D01*
%TO.N,GND*%
D36*
X91612500Y-163850001D02*
X102469920Y-163850001D01*
X88000000Y-195300001D02*
X89400000Y-196700001D01*
%TO.N,Net-(U1A--)*%
D34*
X91832000Y-169090001D02*
X97520540Y-169090001D01*
%TO.N,Net-(J2-Pin_3)*%
X117400000Y-172900001D02*
X114610000Y-172900001D01*
%TO.N,GND*%
D36*
X89400000Y-196700001D02*
X101200000Y-196700001D01*
%TO.N,V+*%
D35*
X101000000Y-175987760D02*
X98112241Y-173100001D01*
%TO.N,GND*%
D36*
X84650000Y-157630001D02*
X84650000Y-155900001D01*
%TO.N,V+*%
D35*
X89100000Y-173100001D02*
X87600000Y-171600001D01*
%TO.N,GND*%
D36*
X88000000Y-194575001D02*
X88000000Y-194900001D01*
%TO.N,Net-(U2-AIN0)*%
D34*
X110225000Y-161075001D02*
X109125000Y-162175001D01*
%TO.N,Net-(J2-Pin_1)*%
X117400000Y-167820001D02*
X113610000Y-167820001D01*
%TO.N,/Blue*%
X101048040Y-156800001D02*
X101048040Y-153112501D01*
%TO.N,Net-(U1C-V-)*%
X97730540Y-174380001D02*
X97730540Y-179219461D01*
%TO.N,Net-(U2-AIN0)*%
X110225000Y-159650001D02*
X110225000Y-161075001D01*
%TO.N,V+*%
D35*
X101000000Y-180700001D02*
X101000000Y-175987760D01*
%TO.N,/Output*%
D34*
X112350000Y-172060001D02*
X112350000Y-169660001D01*
%TO.N,/Yellow*%
X100035540Y-156287501D02*
X100035540Y-153100001D01*
%TO.N,V+*%
D35*
X104000000Y-189970001D02*
X104000000Y-186075001D01*
%TO.N,GND*%
D34*
X115400000Y-194600001D02*
X114900000Y-195100001D01*
%TO.N,/Output*%
X105350540Y-169300001D02*
X110210540Y-174160001D01*
%TO.N,V+*%
D37*
X87575000Y-161400001D02*
X87575000Y-163875001D01*
%TO.N,+5V*%
D34*
X106967894Y-160867895D02*
X109432106Y-160867895D01*
%TO.N,GND*%
X109950000Y-157175001D02*
X109950000Y-154801239D01*
D36*
X87662500Y-159900001D02*
X86920000Y-159900001D01*
D34*
X109025000Y-163850001D02*
X109675000Y-163850001D01*
%TO.N,Net-(U2-AIN0)*%
X102048040Y-162051961D02*
X102048040Y-161100001D01*
%TO.N,GND*%
X110925000Y-162950001D02*
X109725000Y-162950001D01*
%TO.N,+3.3V*%
X102035540Y-153586263D02*
X102035540Y-153100001D01*
%TO.N,V+*%
D35*
X101000000Y-183075001D02*
X101000000Y-180700001D01*
%TO.N,+2V5*%
D34*
X109025000Y-159550001D02*
X109025000Y-155325001D01*
%TO.N,Net-(J2-Pin_2)*%
X108895540Y-175385001D02*
X105350540Y-171840001D01*
%TO.N,GND*%
D36*
X84650000Y-163900001D02*
X84650000Y-191950001D01*
%TO.N,+5V*%
D34*
X87575000Y-158400001D02*
X104500000Y-158400001D01*
%TO.N,Net-(U1C-V-)*%
D35*
X88000000Y-186100001D02*
X93400000Y-180700001D01*
%TO.N,GND*%
D34*
X101301160Y-160025001D02*
X101548040Y-160271881D01*
%TO.N,Net-(C1-Pad2)*%
X110250000Y-170033115D02*
X105826886Y-165610001D01*
%TO.N,GND*%
X102469920Y-163850001D02*
X109025000Y-163850001D01*
X100548040Y-160271881D02*
X100794920Y-160025001D01*
%TO.N,Net-(U1C-V-)*%
D35*
X93400000Y-180700001D02*
X96250000Y-180700001D01*
%TO.N,GND*%
D34*
X107000000Y-186050001D02*
X115400000Y-194450001D01*
X101200000Y-160025001D02*
X101301160Y-160025001D01*
%TO.N,V+*%
D35*
X87600000Y-171600001D02*
X87600000Y-163900001D01*
%TO.N,Net-(C1-Pad2)*%
D34*
X97520540Y-166550001D02*
X97730540Y-166760001D01*
%TO.N,GND*%
X88575000Y-171275001D02*
X88575000Y-160812501D01*
%TO.N,Net-(U1C-V+)*%
X114900000Y-186200001D02*
X109400000Y-180700001D01*
%TO.N,Net-(C1-Pad2)*%
X110250000Y-170760001D02*
X110250000Y-170033115D01*
%TO.N,GND*%
X109950000Y-154801239D02*
X108248762Y-153100001D01*
X111550000Y-162425001D02*
X111550000Y-154501239D01*
X108248762Y-153100001D02*
X103035540Y-153100001D01*
D36*
X86920000Y-159900001D02*
X84650000Y-157630001D01*
%TO.N,V-*%
D35*
X99000000Y-186275001D02*
X99200000Y-186075001D01*
%TO.N,Net-(U1C-V-)*%
X88000000Y-186500001D02*
X88000000Y-186100001D01*
D34*
X96250000Y-180700001D02*
X96250000Y-180350001D01*
%TO.N,Net-(C2-Pad2)*%
X107000000Y-183100001D02*
X104175000Y-183100001D01*
%TO.N,+5V*%
X109675000Y-158898763D02*
X110900000Y-157673763D01*
X109675000Y-160625001D02*
X109675000Y-159550001D01*
%TO.N,Net-(J2-Pin_3)*%
X114610000Y-172900001D02*
X113350000Y-174160001D01*
%TO.N,GND*%
X110975000Y-163000001D02*
X111550000Y-162425001D01*
D36*
X101500000Y-196400001D02*
X101200000Y-196700001D01*
D34*
X105350540Y-174380001D02*
X106885456Y-174380001D01*
%TO.N,Net-(U1C-V+)*%
X109400000Y-180700001D02*
X106950000Y-180700001D01*
%TO.N,Net-(C2-Pad2)*%
X104175000Y-183100001D02*
X104000000Y-182925001D01*
%TO.N,Net-(C1-Pad2)*%
X91832000Y-166550001D02*
X97520540Y-166550001D01*
%TO.N,Net-(J2-Pin_2)*%
X116612057Y-175385001D02*
X108895540Y-175385001D01*
%TO.N,+5V*%
X104500000Y-158400001D02*
X106967894Y-160867895D01*
%TO.N,GND*%
D36*
X113400000Y-196700001D02*
X115200000Y-194900001D01*
D34*
X89140000Y-171840001D02*
X88575000Y-171275001D01*
D36*
X101500000Y-189970001D02*
X101500000Y-196400001D01*
%TO.N,Net-(C2-Pad2)*%
D34*
X103850000Y-180700001D02*
X103850000Y-182775001D01*
%TO.N,GND*%
X115400000Y-194450001D02*
X115400000Y-194600001D01*
%TO.N,Net-(U1C-V+)*%
X104200540Y-167910001D02*
X104200540Y-177950541D01*
%TO.N,/Output*%
X110210540Y-174160001D02*
X110250000Y-174160001D01*
%TO.N,Net-(U2-AIN0)*%
X110325000Y-159550001D02*
X110975000Y-159550001D01*
%TO.N,Net-(C3-Pad1)*%
X96700000Y-182925001D02*
X96600000Y-183025001D01*
%TO.N,/Output*%
X110250000Y-163925001D02*
X110325000Y-163850001D01*
%TO.N,GND*%
X110975000Y-163850001D02*
X110975000Y-163000001D01*
%TO.N,V-*%
D35*
X99000000Y-189970001D02*
X99000000Y-186275001D01*
%TO.N,GND*%
D36*
X96600000Y-185975001D02*
X88000000Y-194575001D01*
D34*
X100548040Y-161100001D02*
X100548040Y-160271881D01*
D36*
X88000000Y-194900001D02*
X88000000Y-195300001D01*
%TO.N,+5V*%
D34*
X109675000Y-159550001D02*
X109675000Y-158898763D01*
%TO.N,Net-(C3-Pad1)*%
X99200000Y-182925001D02*
X99200000Y-180850001D01*
%TO.N,Net-(U1A--)*%
X97520540Y-169090001D02*
X97730540Y-169300001D01*
%TO.N,/Blue*%
X101048040Y-153112501D02*
X101035540Y-153100001D01*
%TO.N,GND*%
D36*
X101500000Y-196200001D02*
X102000000Y-196700001D01*
%TO.N,/Output*%
D34*
X112350000Y-169660001D02*
X110250000Y-167560001D01*
%TO.N,GND*%
X88575000Y-160812501D02*
X87662500Y-159900001D01*
D36*
X87600000Y-194900001D02*
X88000000Y-194900001D01*
%TO.N,Net-(J2-Pin_1)*%
D34*
X165610000Y-115320001D02*
X165350000Y-115060001D01*
%TO.N,/Output*%
X162250000Y-121660001D02*
X164350000Y-119560001D01*
X162250000Y-115060001D02*
X162250000Y-111425001D01*
%TO.N,V+*%
D35*
X150112241Y-120600001D02*
X141100000Y-120600001D01*
%TO.N,+3.3V*%
D34*
X153548040Y-101573763D02*
X154035540Y-101086263D01*
%TO.N,Net-(U2-AIN0)*%
X162325000Y-107050001D02*
X162225000Y-107150001D01*
%TO.N,Net-(J2-Pin_2)*%
X165750000Y-117860001D02*
X165350000Y-118260001D01*
%TO.N,GND*%
D36*
X138920000Y-107400001D02*
X136650000Y-109670001D01*
D34*
X167400000Y-142600001D02*
X166900000Y-142600001D01*
X158885456Y-121880001D02*
X169000000Y-131994545D01*
X152548040Y-109428121D02*
X154469920Y-111350001D01*
%TO.N,Net-(C3-Pad1)*%
X151200000Y-130425001D02*
X148700000Y-130425001D01*
%TO.N,+5V*%
X139600000Y-105875001D02*
X139575000Y-105900001D01*
%TO.N,V+*%
D35*
X156000000Y-133575001D02*
X153000000Y-130575001D01*
%TO.N,GND*%
D34*
X161725000Y-110450001D02*
X161675000Y-110500001D01*
%TO.N,+5V*%
X161432106Y-108367895D02*
X161675000Y-108125001D01*
%TO.N,Net-(U2-AIN0)*%
X161125000Y-109675001D02*
X154171080Y-109675001D01*
%TO.N,GND*%
X152794920Y-107525001D02*
X153200000Y-107525001D01*
X149730540Y-119340001D02*
X141140000Y-119340001D01*
X153548040Y-107771881D02*
X153548040Y-108600001D01*
%TO.N,V+*%
D35*
X153000000Y-128465811D02*
X153000000Y-128200001D01*
%TO.N,Net-(J2-Pin_2)*%
D34*
X170600000Y-120897058D02*
X168612057Y-122885001D01*
%TO.N,GND*%
X169000000Y-131994545D02*
X169000000Y-141000001D01*
%TO.N,Net-(C1-Pad2)*%
X157826886Y-113110001D02*
X150880540Y-113110001D01*
%TO.N,GND*%
D36*
X154000000Y-144200001D02*
X165400000Y-144200001D01*
D34*
X162148762Y-100600001D02*
X160248762Y-100600001D01*
%TO.N,+5V*%
X139600000Y-103400001D02*
X139600000Y-105875001D01*
%TO.N,Net-(J2-Pin_2)*%
X170600000Y-119060001D02*
X170600000Y-120897058D01*
%TO.N,+5V*%
X162900000Y-105173763D02*
X162900000Y-102800001D01*
%TO.N,Net-(U1C-V-)*%
X149730540Y-126719461D02*
X148250000Y-128200001D01*
%TO.N,Net-(C2-Pad2)*%
X155850000Y-130275001D02*
X156000000Y-130425001D01*
%TO.N,Net-(U2-AIN0)*%
X154171080Y-109675001D02*
X154048040Y-109551961D01*
%TO.N,+3.3V*%
X153548040Y-104300001D02*
X153548040Y-101573763D01*
%TO.N,GND*%
D36*
X153200000Y-144200001D02*
X154000000Y-144200001D01*
D34*
X169000000Y-141000001D02*
X167400000Y-142600001D01*
%TO.N,Net-(J2-Pin_2)*%
X169400000Y-117860001D02*
X165750000Y-117860001D01*
X169400000Y-117860001D02*
X170600000Y-119060001D01*
%TO.N,Net-(U1C-V+)*%
X166900000Y-134200001D02*
X166900000Y-133700001D01*
%TO.N,GND*%
D36*
X153500000Y-137470001D02*
X153500000Y-143700001D01*
D34*
X161675000Y-110500001D02*
X161675000Y-111350001D01*
X162975000Y-110500001D02*
X162925000Y-110450001D01*
%TO.N,Net-(U1C-V+)*%
X157350540Y-114260001D02*
X156200540Y-115410001D01*
%TO.N,/Yellow*%
X152548040Y-104300001D02*
X152035540Y-103787501D01*
%TO.N,GND*%
D36*
X136650000Y-109670001D02*
X136650000Y-111400001D01*
%TO.N,Net-(U1C-V+)*%
D34*
X156200540Y-125450541D02*
X158950000Y-128200001D01*
%TO.N,GND*%
D36*
X139662500Y-107400001D02*
X143612500Y-111350001D01*
D34*
X163550000Y-102001239D02*
X162148762Y-100600001D01*
%TO.N,V+*%
D37*
X139575000Y-111375001D02*
X139600000Y-111400001D01*
%TO.N,Net-(C3-Pad1)*%
D34*
X151200000Y-128350001D02*
X151350000Y-128200001D01*
%TO.N,+2V5*%
X161025000Y-102825001D02*
X161000000Y-102800001D01*
%TO.N,GND*%
X152548040Y-108600001D02*
X152548040Y-109428121D01*
D36*
X136650000Y-139450001D02*
X139600000Y-142400001D01*
%TO.N,Net-(C1-Pad2)*%
D34*
X150880540Y-113110001D02*
X149730540Y-114260001D01*
%TO.N,GND*%
D36*
X143612500Y-111350001D02*
X154469920Y-111350001D01*
X140000000Y-142800001D02*
X141400000Y-144200001D01*
%TO.N,Net-(U1A--)*%
D34*
X143832000Y-116590001D02*
X149520540Y-116590001D01*
%TO.N,Net-(J2-Pin_3)*%
X169400000Y-120400001D02*
X166610000Y-120400001D01*
%TO.N,GND*%
D36*
X141400000Y-144200001D02*
X153200000Y-144200001D01*
%TO.N,V+*%
D35*
X153000000Y-123487760D02*
X150112241Y-120600001D01*
%TO.N,GND*%
D36*
X136650000Y-105130001D02*
X136650000Y-103400001D01*
%TO.N,V+*%
D35*
X141100000Y-120600001D02*
X139600000Y-119100001D01*
%TO.N,GND*%
D36*
X140000000Y-142075001D02*
X140000000Y-142400001D01*
%TO.N,Net-(U2-AIN0)*%
D34*
X162225000Y-108575001D02*
X161125000Y-109675001D01*
%TO.N,Net-(J2-Pin_1)*%
X169400000Y-115320001D02*
X165610000Y-115320001D01*
%TO.N,/Blue*%
X153048040Y-104300001D02*
X153048040Y-100612501D01*
%TO.N,Net-(U1C-V-)*%
X149730540Y-121880001D02*
X149730540Y-126719461D01*
%TO.N,Net-(U2-AIN0)*%
X162225000Y-107150001D02*
X162225000Y-108575001D01*
%TO.N,V+*%
D35*
X153000000Y-128200001D02*
X153000000Y-123487760D01*
%TO.N,/Output*%
D34*
X164350000Y-119560001D02*
X164350000Y-117160001D01*
%TO.N,/Yellow*%
X152035540Y-103787501D02*
X152035540Y-100600001D01*
%TO.N,V+*%
D35*
X156000000Y-137470001D02*
X156000000Y-133575001D01*
%TO.N,GND*%
D34*
X167400000Y-142100001D02*
X166900000Y-142600001D01*
%TO.N,/Output*%
X157350540Y-116800001D02*
X162210540Y-121660001D01*
%TO.N,V+*%
D37*
X139575000Y-108900001D02*
X139575000Y-111375001D01*
%TO.N,+5V*%
D34*
X158967894Y-108367895D02*
X161432106Y-108367895D01*
%TO.N,GND*%
X161950000Y-104675001D02*
X161950000Y-102301239D01*
D36*
X139662500Y-107400001D02*
X138920000Y-107400001D01*
D34*
X161025000Y-111350001D02*
X161675000Y-111350001D01*
%TO.N,Net-(U2-AIN0)*%
X154048040Y-109551961D02*
X154048040Y-108600001D01*
%TO.N,GND*%
X162925000Y-110450001D02*
X161725000Y-110450001D01*
%TO.N,+3.3V*%
X154035540Y-101086263D02*
X154035540Y-100600001D01*
%TO.N,V+*%
D35*
X153000000Y-130575001D02*
X153000000Y-128200001D01*
%TO.N,+2V5*%
D34*
X161025000Y-107050001D02*
X161025000Y-102825001D01*
%TO.N,Net-(J2-Pin_2)*%
X160895540Y-122885001D02*
X157350540Y-119340001D01*
%TO.N,GND*%
D36*
X136650000Y-111400001D02*
X136650000Y-139450001D01*
%TO.N,+5V*%
D34*
X139575000Y-105900001D02*
X156500000Y-105900001D01*
%TO.N,Net-(U1C-V-)*%
D35*
X140000000Y-133600001D02*
X145400000Y-128200001D01*
%TO.N,GND*%
D34*
X153301160Y-107525001D02*
X153548040Y-107771881D01*
%TO.N,Net-(C1-Pad2)*%
X162250000Y-117533115D02*
X157826886Y-113110001D01*
%TO.N,GND*%
X154469920Y-111350001D02*
X161025000Y-111350001D01*
X152548040Y-107771881D02*
X152794920Y-107525001D01*
%TO.N,Net-(U1C-V-)*%
D35*
X145400000Y-128200001D02*
X148250000Y-128200001D01*
%TO.N,GND*%
D34*
X159000000Y-133550001D02*
X167400000Y-141950001D01*
X153200000Y-107525001D02*
X153301160Y-107525001D01*
%TO.N,V+*%
D35*
X139600000Y-119100001D02*
X139600000Y-111400001D01*
%TO.N,Net-(C1-Pad2)*%
D34*
X149520540Y-114050001D02*
X149730540Y-114260001D01*
%TO.N,GND*%
X140575000Y-118775001D02*
X140575000Y-108312501D01*
%TO.N,Net-(U1C-V+)*%
X166900000Y-133700001D02*
X161400000Y-128200001D01*
%TO.N,Net-(C1-Pad2)*%
X162250000Y-118260001D02*
X162250000Y-117533115D01*
%TO.N,GND*%
X161950000Y-102301239D02*
X160248762Y-100600001D01*
X163550000Y-109925001D02*
X163550000Y-102001239D01*
X160248762Y-100600001D02*
X155035540Y-100600001D01*
D36*
X138920000Y-107400001D02*
X136650000Y-105130001D01*
%TO.N,V-*%
D35*
X151000000Y-133775001D02*
X151200000Y-133575001D01*
%TO.N,Net-(U1C-V-)*%
X140000000Y-134000001D02*
X140000000Y-133600001D01*
D34*
X148250000Y-128200001D02*
X148250000Y-127850001D01*
%TO.N,Net-(C2-Pad2)*%
X159000000Y-130600001D02*
X156175000Y-130600001D01*
%TO.N,+5V*%
X161675000Y-106398763D02*
X162900000Y-105173763D01*
X161675000Y-108125001D02*
X161675000Y-107050001D01*
%TO.N,Net-(J2-Pin_3)*%
X166610000Y-120400001D02*
X165350000Y-121660001D01*
%TO.N,GND*%
X162975000Y-110500001D02*
X163550000Y-109925001D01*
D36*
X153500000Y-143900001D02*
X153200000Y-144200001D01*
D34*
X157350540Y-121880001D02*
X158885456Y-121880001D01*
%TO.N,Net-(U1C-V+)*%
X161400000Y-128200001D02*
X158950000Y-128200001D01*
%TO.N,Net-(C2-Pad2)*%
X156175000Y-130600001D02*
X156000000Y-130425001D01*
%TO.N,Net-(C1-Pad2)*%
X143832000Y-114050001D02*
X149520540Y-114050001D01*
%TO.N,Net-(J2-Pin_2)*%
X168612057Y-122885001D02*
X160895540Y-122885001D01*
%TO.N,+5V*%
X156500000Y-105900001D02*
X158967894Y-108367895D01*
%TO.N,GND*%
D36*
X165400000Y-144200001D02*
X167200000Y-142400001D01*
D34*
X141140000Y-119340001D02*
X140575000Y-118775001D01*
D36*
X153500000Y-137470001D02*
X153500000Y-143900001D01*
%TO.N,Net-(C2-Pad2)*%
D34*
X155850000Y-128200001D02*
X155850000Y-130275001D01*
%TO.N,GND*%
X167400000Y-141950001D02*
X167400000Y-142100001D01*
%TO.N,Net-(U1C-V+)*%
X156200540Y-115410001D02*
X156200540Y-125450541D01*
%TO.N,/Output*%
X162210540Y-121660001D02*
X162250000Y-121660001D01*
%TO.N,Net-(U2-AIN0)*%
X162325000Y-107050001D02*
X162975000Y-107050001D01*
%TO.N,Net-(C3-Pad1)*%
X148700000Y-130425001D02*
X148600000Y-130525001D01*
%TO.N,/Output*%
X162250000Y-111425001D02*
X162325000Y-111350001D01*
%TO.N,GND*%
X162975000Y-111350001D02*
X162975000Y-110500001D01*
%TO.N,V-*%
D35*
X151000000Y-137470001D02*
X151000000Y-133775001D01*
%TO.N,GND*%
D36*
X148600000Y-133475001D02*
X140000000Y-142075001D01*
D34*
X152548040Y-108600001D02*
X152548040Y-107771881D01*
D36*
X140000000Y-142400001D02*
X140000000Y-142800001D01*
%TO.N,+5V*%
D34*
X161675000Y-107050001D02*
X161675000Y-106398763D01*
%TO.N,Net-(C3-Pad1)*%
X151200000Y-130425001D02*
X151200000Y-128350001D01*
%TO.N,Net-(U1A--)*%
X149520540Y-116590001D02*
X149730540Y-116800001D01*
%TO.N,/Blue*%
X153048040Y-100612501D02*
X153035540Y-100600001D01*
%TO.N,GND*%
D36*
X153500000Y-143700001D02*
X154000000Y-144200001D01*
%TO.N,/Output*%
D34*
X164350000Y-117160001D02*
X162250000Y-115060001D01*
%TO.N,GND*%
X140575000Y-108312501D02*
X139662500Y-107400001D01*
D36*
X139600000Y-142400001D02*
X140000000Y-142400001D01*
%TO.N,V+*%
D35*
X87200000Y-119100000D02*
X87200000Y-111400000D01*
X100600000Y-130575000D02*
X100600000Y-128200000D01*
D37*
X87175000Y-108900000D02*
X87175000Y-111375000D01*
D35*
X103600000Y-137470000D02*
X103600000Y-133575000D01*
X100600000Y-128200000D02*
X100600000Y-123487759D01*
X88700000Y-120600000D02*
X87200000Y-119100000D01*
X100600000Y-123487759D02*
X97712241Y-120600000D01*
D37*
X87175000Y-111375000D02*
X87200000Y-111400000D01*
D35*
X100600000Y-128465810D02*
X100600000Y-128200000D01*
X103600000Y-133575000D02*
X100600000Y-130575000D01*
X97712241Y-120600000D02*
X88700000Y-120600000D01*
%TO.N,GND*%
D36*
X87200000Y-142400000D02*
X87600000Y-142400000D01*
D34*
X88175000Y-108312500D02*
X87262500Y-107400000D01*
D36*
X101100000Y-143700000D02*
X101600000Y-144200000D01*
X87600000Y-142400000D02*
X87600000Y-142800000D01*
D34*
X100148040Y-108600000D02*
X100148040Y-107771880D01*
D36*
X96200000Y-133475000D02*
X87600000Y-142075000D01*
D34*
X110575000Y-111350000D02*
X110575000Y-110500000D01*
X115000000Y-141950000D02*
X115000000Y-142100000D01*
D36*
X101100000Y-137470000D02*
X101100000Y-143900000D01*
D34*
X88740000Y-119340000D02*
X88175000Y-118775000D01*
D36*
X113000000Y-144200000D02*
X114800000Y-142400000D01*
D34*
X104950540Y-121880000D02*
X106485456Y-121880000D01*
D36*
X101100000Y-143900000D02*
X100800000Y-144200000D01*
D34*
X110575000Y-110500000D02*
X111150000Y-109925000D01*
D36*
X86520000Y-107400000D02*
X84250000Y-105130000D01*
D34*
X107848762Y-100600000D02*
X102635540Y-100600000D01*
X111150000Y-109925000D02*
X111150000Y-102001238D01*
X109550000Y-102301238D02*
X107848762Y-100600000D01*
X88175000Y-118775000D02*
X88175000Y-108312500D01*
X100800000Y-107525000D02*
X100901160Y-107525000D01*
X106600000Y-133550000D02*
X115000000Y-141950000D01*
X100148040Y-107771880D02*
X100394920Y-107525000D01*
X102069920Y-111350000D02*
X108625000Y-111350000D01*
X100901160Y-107525000D02*
X101148040Y-107771880D01*
D36*
X84250000Y-111400000D02*
X84250000Y-139450000D01*
D34*
X110525000Y-110450000D02*
X109325000Y-110450000D01*
X108625000Y-111350000D02*
X109275000Y-111350000D01*
D36*
X87262500Y-107400000D02*
X86520000Y-107400000D01*
D34*
X109550000Y-104675000D02*
X109550000Y-102301238D01*
X115000000Y-142100000D02*
X114500000Y-142600000D01*
D36*
X87600000Y-142075000D02*
X87600000Y-142400000D01*
X84250000Y-105130000D02*
X84250000Y-103400000D01*
X89000000Y-144200000D02*
X100800000Y-144200000D01*
X87600000Y-142800000D02*
X89000000Y-144200000D01*
X91212500Y-111350000D02*
X102069920Y-111350000D01*
X84250000Y-139450000D02*
X87200000Y-142400000D01*
D34*
X100148040Y-108600000D02*
X100148040Y-109428120D01*
X111150000Y-102001238D02*
X109748762Y-100600000D01*
D36*
X87262500Y-107400000D02*
X91212500Y-111350000D01*
X84250000Y-109670000D02*
X84250000Y-111400000D01*
D34*
X110575000Y-110500000D02*
X110525000Y-110450000D01*
X109275000Y-110500000D02*
X109275000Y-111350000D01*
D36*
X101100000Y-137470000D02*
X101100000Y-143700000D01*
D34*
X116600000Y-141000000D02*
X115000000Y-142600000D01*
D36*
X100800000Y-144200000D02*
X101600000Y-144200000D01*
D34*
X109748762Y-100600000D02*
X107848762Y-100600000D01*
D36*
X101600000Y-144200000D02*
X113000000Y-144200000D01*
D34*
X116600000Y-131994544D02*
X116600000Y-141000000D01*
X101148040Y-107771880D02*
X101148040Y-108600000D01*
X97330540Y-119340000D02*
X88740000Y-119340000D01*
X100394920Y-107525000D02*
X100800000Y-107525000D01*
X109325000Y-110450000D02*
X109275000Y-110500000D01*
X100148040Y-109428120D02*
X102069920Y-111350000D01*
X106485456Y-121880000D02*
X116600000Y-131994544D01*
X115000000Y-142600000D02*
X114500000Y-142600000D01*
D36*
X86520000Y-107400000D02*
X84250000Y-109670000D01*
%TO.N,V-*%
D35*
X98600000Y-137470000D02*
X98600000Y-133775000D01*
X98600000Y-133775000D02*
X98800000Y-133575000D01*
%TO.N,Net-(C1-Pad2)*%
D34*
X91432000Y-114050000D02*
X97120540Y-114050000D01*
X109850000Y-118260000D02*
X109850000Y-117533114D01*
X97120540Y-114050000D02*
X97330540Y-114260000D01*
X109850000Y-117533114D02*
X105426886Y-113110000D01*
X98480540Y-113110000D02*
X97330540Y-114260000D01*
X105426886Y-113110000D02*
X98480540Y-113110000D01*
%TO.N,Net-(U1A--)*%
X97120540Y-116590000D02*
X97330540Y-116800000D01*
X91432000Y-116590000D02*
X97120540Y-116590000D01*
%TO.N,Net-(U1C-V-)*%
X95850000Y-128200000D02*
X95850000Y-127850000D01*
D35*
X87600000Y-134000000D02*
X87600000Y-133600000D01*
X93000000Y-128200000D02*
X95850000Y-128200000D01*
X87600000Y-133600000D02*
X93000000Y-128200000D01*
D34*
X97330540Y-121880000D02*
X97330540Y-126719460D01*
X97330540Y-126719460D02*
X95850000Y-128200000D01*
%TO.N,Net-(J2-Pin_2)*%
X116212057Y-122885000D02*
X108495540Y-122885000D01*
X108495540Y-122885000D02*
X104950540Y-119340000D01*
X117000000Y-117860000D02*
X118200000Y-119060000D01*
X117000000Y-117860000D02*
X113350000Y-117860000D01*
X118200000Y-119060000D02*
X118200000Y-120897057D01*
X118200000Y-120897057D02*
X116212057Y-122885000D01*
X113350000Y-117860000D02*
X112950000Y-118260000D01*
%TO.N,/Output*%
X111950000Y-117160000D02*
X109850000Y-115060000D01*
X109850000Y-111425000D02*
X109925000Y-111350000D01*
X109810540Y-121660000D02*
X109850000Y-121660000D01*
X104950540Y-116800000D02*
X109810540Y-121660000D01*
X111950000Y-119560000D02*
X111950000Y-117160000D01*
X109850000Y-115060000D02*
X109850000Y-111425000D01*
X109850000Y-121660000D02*
X111950000Y-119560000D01*
%TO.N,Net-(U1C-V+)*%
X103800540Y-115410000D02*
X103800540Y-125450540D01*
X109000000Y-128200000D02*
X106550000Y-128200000D01*
X114500000Y-133700000D02*
X109000000Y-128200000D01*
X103800540Y-125450540D02*
X106550000Y-128200000D01*
X104950540Y-114260000D02*
X103800540Y-115410000D01*
X114500000Y-134200000D02*
X114500000Y-133700000D01*
%TO.N,Net-(J2-Pin_1)*%
X117000000Y-115320000D02*
X113210000Y-115320000D01*
X113210000Y-115320000D02*
X112950000Y-115060000D01*
%TO.N,Net-(J2-Pin_3)*%
X114210000Y-120400000D02*
X112950000Y-121660000D01*
X117000000Y-120400000D02*
X114210000Y-120400000D01*
%TO.N,+3.3V*%
X101635540Y-101086262D02*
X101635540Y-100600000D01*
X101148040Y-104300000D02*
X101148040Y-101573762D01*
X101148040Y-101573762D02*
X101635540Y-101086262D01*
%TO.N,/Blue*%
X100648040Y-100612500D02*
X100635540Y-100600000D01*
X100648040Y-104300000D02*
X100648040Y-100612500D01*
%TO.N,/Yellow*%
X99635540Y-103787500D02*
X99635540Y-100600000D01*
X100148040Y-104300000D02*
X99635540Y-103787500D01*
%TO.N,Net-(C2-Pad2)*%
X103450000Y-128200000D02*
X103450000Y-130275000D01*
X103775000Y-130600000D02*
X103600000Y-130425000D01*
X106600000Y-130600000D02*
X103775000Y-130600000D01*
X103450000Y-130275000D02*
X103600000Y-130425000D01*
%TO.N,+5V*%
X109275000Y-107050000D02*
X109275000Y-106398762D01*
X104100000Y-105900000D02*
X106567894Y-108367894D01*
X109275000Y-108125000D02*
X109275000Y-107050000D01*
X109275000Y-106398762D02*
X110500000Y-105173762D01*
X87175000Y-105900000D02*
X104100000Y-105900000D01*
X106567894Y-108367894D02*
X109032106Y-108367894D01*
X110500000Y-105173762D02*
X110500000Y-102800000D01*
X87200000Y-103400000D02*
X87200000Y-105875000D01*
X109032106Y-108367894D02*
X109275000Y-108125000D01*
X87200000Y-105875000D02*
X87175000Y-105900000D01*
%TO.N,+2V5*%
X108625000Y-107050000D02*
X108625000Y-102825000D01*
X108625000Y-102825000D02*
X108600000Y-102800000D01*
%TO.N,Net-(U2-AIN0)*%
X109925000Y-107050000D02*
X110575000Y-107050000D01*
X101648040Y-109551960D02*
X101648040Y-108600000D01*
X109825000Y-107150000D02*
X109825000Y-108575000D01*
X109825000Y-108575000D02*
X108725000Y-109675000D01*
X101771080Y-109675000D02*
X101648040Y-109551960D01*
X108725000Y-109675000D02*
X101771080Y-109675000D01*
X109925000Y-107050000D02*
X109825000Y-107150000D01*
%TO.N,Net-(C3-Pad1)*%
X98800000Y-130425000D02*
X98800000Y-128350000D01*
X96300000Y-130425000D02*
X96200000Y-130525000D01*
X98800000Y-128350000D02*
X98950000Y-128200000D01*
X98800000Y-130425000D02*
X96300000Y-130425000D01*
%TD*%
M02*
