M48
; DRILL file KiCad 10.0.4-10.0.4~ubuntu24.04.1 date 2026-06-21T15:05:34
; FORMAT={-:-/ absolute / metric / decimal}
; #@! TF.CreationDate,2026-06-21T15:05:34-07:00
; #@! TF.GenerationSoftware,Kicad,Pcbnew,10.0.4-10.0.4~ubuntu24.04.1
; #@! TF.FileFunction,Plated,1,2,PTH
FMAT,2
METRIC
; #@! TA.AperFunction,Plated,PTH,ComponentDrill
T1C0.700
; #@! TA.AperFunction,Plated,PTH,ComponentDrill
T2C0.800
; #@! TA.AperFunction,Plated,PTH,ComponentDrill
T3C1.000
%
G90
G05
T1
X91.432Y-114.05
X91.432Y-116.59
X91.832Y-166.55
X91.832Y-169.09
X143.832Y-114.05
X143.832Y-116.59
X143.832Y-166.55
X143.832Y-169.09
T2
X94.6Y-114.1
X94.6Y-116.6
X95.0Y-166.6
X95.0Y-169.1
X97.331Y-114.26
X97.331Y-116.8
X97.331Y-119.34
X97.331Y-121.88
X97.731Y-166.76
X97.731Y-169.3
X97.731Y-171.84
X97.731Y-174.38
X104.951Y-114.26
X104.951Y-116.8
X104.951Y-119.34
X104.951Y-121.88
X105.351Y-166.76
X105.351Y-169.3
X105.351Y-171.84
X105.351Y-174.38
X147.0Y-114.1
X147.0Y-116.6
X147.0Y-166.6
X147.0Y-169.1
X149.731Y-114.26
X149.731Y-116.8
X149.731Y-119.34
X149.731Y-121.88
X149.731Y-166.76
X149.731Y-169.3
X149.731Y-171.84
X149.731Y-174.38
X157.351Y-114.26
X157.351Y-116.8
X157.351Y-119.34
X157.351Y-121.88
X157.351Y-166.76
X157.351Y-169.3
X157.351Y-171.84
X157.351Y-174.38
T3
X117.0Y-115.32
X117.0Y-117.86
X117.0Y-120.4
X117.4Y-167.82
X117.4Y-170.36
X117.4Y-172.9
X169.4Y-115.32
X169.4Y-117.86
X169.4Y-120.4
X169.4Y-167.82
X169.4Y-170.36
X169.4Y-172.9
M30
